<svg xmlns="http://www.w3.org/2000/svg" viewBox="0 0 500 500"><path fill="#e0e0e0" d="m406.4 88.2-12.1 22.7-8.6-8.1-11.5 31.4 11.9-20.2 9.1 8.7 16.9-28.9-5.7-5.6zM435.5 141.2l-18.3 8.6-1.6-9.2-22 14.5 17-7.2 1.7 9.7 24.1-10.2-.9-6.2z"/><path fill="#ebebeb" d="m354.9 75.9 1.2 17.6-8-1.5 4.8 22.4-.5-16.1 8.5 1.8-.7-23-5.3-1.2z"/><path fill="#e0e0e0" d="m75.1 66.2 5.5 18.6 7.6-4.7 3.7 24.9-5.7-16.7-8 5L70 69.5l5.1-3.3zM45.9 106.4l11.2 6.5 1.6-5.8 13.2 10.4-10.4-5.5-1.6 6.1-14.9-7.8.9-3.9z"/><path fill="#ebebeb" d="m123.1 66.9-1.5 12.8 5.8-.8-4.3 16.3 1-11.8-6.3.9 1.3-16.8 4-.6zM44 152.2l12.4-3.8-3.2-5.1 16.6-2.6-11.1 3.9 3.4 5.3-15.8 5.7-2.3-3.4z"/><path d="M70.7 324.5a10.8 10.8 0 0 0-.6-6.5 10.4 10.4 0 0 0-4-5 8.4 8.4 0 0 0-10.2 1 8.4 8.4 0 0 0-7.2-6.8 10.3 10.3 0 0 0-6.2 1.3 10.8 10.8 0 0 0-4.6 4.7 13.2 13.2 0 0 0-1.2 8.2 18.6 18.6 0 0 0 4 7.8l7.3 8.6s5.5-1.7 10.4-2.7a18.7 18.7 0 0 0 8-3.5 13.2 13.2 0 0 0 4.3-7.1ZM446.6 400.7a11 11 0 0 0-4.4-4.8 10.4 10.4 0 0 0-6.1-1.7 8.4 8.4 0 0 0-7.7 6.7 8.4 8.4 0 0 0-3.1-2 8.6 8.6 0 0 0-6.7.7 10.5 10.5 0 0 0-4.3 4.7 10.8 10.8 0 0 0-1 6.4 13.2 13.2 0 0 0 3.8 7.4 18.7 18.7 0 0 0 7.9 4l11 2.7s3.4-4.6 6.8-8.2a18.7 18.7 0 0 0 4.5-7.6 13.2 13.2 0 0 0-.7-8.3ZM387.5 297.8a6.8 6.8 0 0 0-1-4 6.6 6.6 0 0 0-3-2.7 5.3 5.3 0 0 0-6.2 1.6 5.3 5.3 0 0 0-5-3.6 6.6 6.6 0 0 0-3.8 1.4 6.9 6.9 0 0 0-2.5 3.3 8.3 8.3 0 0 0 0 5.2 11.6 11.6 0 0 0 3.3 4.5l5.3 4.7s3.3-1.6 6.2-2.7a11.8 11.8 0 0 0 4.6-3 8.3 8.3 0 0 0 2-4.7ZM128.7 275.7a6.8 6.8 0 0 0-1-4 6.4 6.4 0 0 0-3-2.7 5.2 5.2 0 0 0-6.2 1.5 5.3 5.3 0 0 0-5-3.6 6.5 6.5 0 0 0-3.8 1.4 6.8 6.8 0 0 0-2.4 3.3 8.3 8.3 0 0 0 0 5.2 11.7 11.7 0 0 0 3.2 4.5l5.3 4.7s3.3-1.6 6.2-2.6a11.7 11.7 0 0 0 4.6-3 8.3 8.3 0 0 0 2-4.7Z" fill="#f5f5f5"/><path fill="#ebebeb" d="m56.2 411.4-23.8 17.8h6.2v22h36.5V429l6.4-.1-25.3-17.5z"/><path fill="#ebebeb" d="M64.8 412h6.1v12.9h-6.1z"/><path fill="#fff" d="M53.7 439.7h6.6v11.9h-6.6z"/><path d="M433 214.8a7.2 7.2 0 0 0 4.2-6.6 6.8 6.8 0 1 0-13.5 0 7.2 7.2 0 0 0 4.3 6.6c-10.4 1.6-10 13-10 13h24.7s.6-11.4-9.8-13Z" fill="#f5f5f5"/><path d="M453 215a7.2 7.2 0 0 0 4.3-6.6 6.8 6.8 0 1 0-13.5 0 7.2 7.2 0 0 0 4.3 6.7c-10.4 1.5-10 12.8-10 12.8l24.7.2s.5-11.5-9.8-13ZM442.6 191a3.3 3.3 0 0 0 2-3 3 3 0 1 0-6.2 0 3.3 3.3 0 0 0 2 3c-4.7.8-4.5 6-4.5 6h11.2s.2-5.3-4.5-6Z" fill="#f5f5f5"/><path d="M472.9 474.3h5.1c-21.8.2-113.5.3-223.3.3L93 474.4H26.2 44l49-.2 161.6-.2c109.8 0 201.5 0 223.3.2v.1H474Z" fill="#263238"/><path d="M273 49c-17.5-27.5-44.5 5-44.3 5.1.1-.1-28.3-32.6-45.9-5.1-10.6 16.5 8.6 38.9 25.6 54a18 18 0 0 1-.6 7.5c-1.1 3.1-3.6 5.9-6.8 6.5a16.7 16.7 0 0 0 17.6-5.4c6.6 5.3 11.5 8.6 11.5 8.6s60.5-43.7 43-71.2Z" fill="#d8b4a1"/><path d="m232 111.7-.5-.5-1.1-1.6a26.5 26.5 0 0 1-3.3-6.8 26 26 0 0 1-1-12.2 26.7 26.7 0 0 1 7.7-14.8 18.6 18.6 0 0 1 8.7-5 13.3 13.3 0 0 1 5.4 0A11 11 0 0 1 253 73a9.5 9.5 0 0 1 3 5.1 8 8 0 0 1-.9 6 10.8 10.8 0 0 1-4.9 4 22.8 22.8 0 0 1-6.4 1.7c-4.5.6-9.4.2-13.6-2.4a17 17 0 0 1-5.2-5.1 45.3 45.3 0 0 1-3.5-6.7 76.9 76.9 0 0 0-3.4-7 20.3 20.3 0 0 0-5-6 20 20 0 0 0-15.5-4 17.3 17.3 0 0 0-4 1.2 6.4 6.4 0 0 0-3.2 2.6 3.4 3.4 0 0 0-.3 2 4.4 4.4 0 0 0 .8 2 12.6 12.6 0 0 0 3.2 2.9 52.2 52.2 0 0 0 7.7 4.6 24.1 24.1 0 0 0 8.7 2.3 17.7 17.7 0 0 0 4.6-.3 16.7 16.7 0 0 0 4.4-1.6 33.6 33.6 0 0 0 7.3-6 71.8 71.8 0 0 1 7.2-6.6 25.4 25.4 0 0 1 9-4.3 26.3 26.3 0 0 1 5-.7 16.9 16.9 0 0 1 5.1.3 4.8 4.8 0 0 1 3.7 3.5 3.6 3.6 0 0 1-.6 2.6 5.7 5.7 0 0 1-2 1.8 8.5 8.5 0 0 1-9.9-1.3 9.6 9.6 0 0 1-2-10.1 11 11 0 0 1 8.1-6.7 12.4 12.4 0 0 1 5.5.1 15 15 0 0 1 5 2.3 18 18 0 0 1 6.5 8.9 23.8 23.8 0 0 1 1.2 11 14.9 14.9 0 0 1-1.9 5.5 12.8 12.8 0 0 1-3.9 4.1 16.2 16.2 0 0 1-11.1 2.4 23.3 23.3 0 0 1-10.6-4.6 27.2 27.2 0 0 1-7.8-8.8 19 19 0 0 1-2-5.7 11.9 11.9 0 0 1 .5-6 13.8 13.8 0 0 1 3.3-5 29.8 29.8 0 0 1 4.7-3.7q2.6-1.7 5.2-3.1a29.3 29.3 0 0 1 5.6-2.4l.8-.2.8-.1h1.5a26.2 26.2 0 0 1 3 0A16.6 16.6 0 0 1 271 52.3a24 24 0 0 1 1.1 12.3 32.8 32.8 0 0 1-1.5 6.1 29.7 29.7 0 0 1-1.2 3l-1.3 2.8a67.8 67.8 0 0 1-6.7 10.7 74 74 0 0 1-8.6 9.3 100.2 100.2 0 0 1-10 8 41.4 41.4 0 0 1-5.4 3.5 16.3 16.3 0 0 1-6.3 1.8 12.1 12.1 0 0 1-6.3-1.4 36.7 36.7 0 0 1-5.5-3.6L209 97l-5.1-3.9a38.7 38.7 0 0 1-5-4 7.2 7.2 0 0 1-1.7-2.9 4 4 0 0 1 .5-3.3 5.5 5.5 0 0 1 2.5-2 9.4 9.4 0 0 1 3.2-.6 65.3 65.3 0 0 1 12.6 1.2 61.5 61.5 0 0 1 12 3.6 33 33 0 0 1 10.7 6.6 24.3 24.3 0 0 1 2.1 2.4 22.3 22.3 0 0 1 1.8 2.5 8.8 8.8 0 0 1 1.2 3 9.1 9.1 0 0 1 0 3.1 9 9 0 0 1-1 3 14.5 14.5 0 0 1-2 2.5 20.6 20.6 0 0 1-4.8 3.7 11.8 11.8 0 0 1-6 1.7 5.4 5.4 0 0 1-2.9-1.2 10.6 10.6 0 0 1-2.1-2.2 11.2 11.2 0 0 1-.9-1.4l-.6-1.3-1.3-2.8a32.3 32.3 0 0 1-1.8-5.8c-.9-4-.8-8-.9-12a24.9 24.9 0 0 1 .5-6 12 12 0 0 1 2.6-5.3 11.5 11.5 0 0 1 5-3.2 22.6 22.6 0 0 1 17 1.6 13.3 13.3 0 0 1 6.7 9.2 14.1 14.1 0 0 1-3.2 10.7 19.5 19.5 0 0 1-9.3 6.2 28 28 0 0 1-11 1.2 27.6 27.6 0 0 1-10.5-3A23.3 23.3 0 0 1 205 81.6a20.6 20.6 0 0 1 .8-10.4A19.5 19.5 0 0 1 221 58.7a14 14 0 0 1 9.7 2 9.3 9.3 0 0 1 3.2 3.7 10 10 0 0 1 1 4.8 12.8 12.8 0 0 1-4 8.6 20 20 0 0 1-8.3 4.5c-1.4.5-3 .7-4.4 1.1l-4.3 1.5a56.8 56.8 0 0 1-8.7 2.7 12.7 12.7 0 0 1-4.4.1 10 10 0 0 1-4-1.8 25.7 25.7 0 0 1-5.9-6.3 51.3 51.3 0 0 1-4.1-7.4 9 9 0 0 1-.7-4 24 24 0 0 1 .4-4.1 33 33 0 0 1 2.6-7.6 11 11 0 0 1 5.7-5.2 10.8 10.8 0 0 1 7.5-.2 11.6 11.6 0 0 1 5.8 4.3 8.5 8.5 0 0 1 1.6 6.9 6.6 6.6 0 0 1-1.8 3 9.1 9.1 0 0 1-2.9 1.9 13.4 13.4 0 0 1-6.6 1 16.3 16.3 0 0 1-6.1-1.8 12.6 12.6 0 0 1-4.6-4.1 14.3 14.3 0 0 1-2.1-5.6 11.6 11.6 0 0 1 .3-5.6 16.8 16.8 0 0 1 2.6-4.8c2.2-2.7 5.2-4.8 8.4-5.2a19.6 19.6 0 0 1 8.9.6 31.4 31.4 0 0 1 7.2 3.2 52.7 52.7 0 0 1 9.7 7.6 66 66 0 0 1 5 5.6l1.6 2.1-.4-.5-1.2-1.5a64.9 64.9 0 0 0-5-5.6 52.6 52.6 0 0 0-9.8-7.6 30.9 30.9 0 0 0-7.2-3.2 19.5 19.5 0 0 0-8.8-.5 13 13 0 0 0-8.2 5.2 16.8 16.8 0 0 0-2.6 4.7 11.4 11.4 0 0 0-.3 5.5A14 14 0 0 0 188 62a12.4 12.4 0 0 0 4.5 4 16 16 0 0 0 6 1.8 13 13 0 0 0 6.5-1 7.3 7.3 0 0 0 4.4-4.8 8.3 8.3 0 0 0-1.5-6.6 11.3 11.3 0 0 0-5.7-4.2 10.4 10.4 0 0 0-7.3.2 10.8 10.8 0 0 0-5.5 5 32.4 32.4 0 0 0-2.5 7.5 21.6 21.6 0 0 0-.5 4 8.6 8.6 0 0 0 .7 4 49.5 49.5 0 0 0 4.1 7.3 25 25 0 0 0 5.9 6.3 9.4 9.4 0 0 0 3.9 1.7 12.2 12.2 0 0 0 4.3-.1 56.6 56.6 0 0 0 8.5-2.7l4.4-1.5c1.5-.5 3-.6 4.4-1a19.6 19.6 0 0 0 8.1-4.5 12.4 12.4 0 0 0 3.9-8.3 9.6 9.6 0 0 0-1-4.6 8.8 8.8 0 0 0-3.1-3.6 13.6 13.6 0 0 0-9.4-1.9 19 19 0 0 0-14.8 12.2 20.1 20.1 0 0 0-.8 10.2 22.8 22.8 0 0 0 12.1 16.3 27.4 27.4 0 0 0 10.4 3 28 28 0 0 0 10.8-1.2 19 19 0 0 0 9-6 13.6 13.6 0 0 0 3-10.4 12.8 12.8 0 0 0-6.3-8.8 20 20 0 0 0-11-2.5 20.2 20.2 0 0 0-5.7 1 11 11 0 0 0-4.8 3 11.4 11.4 0 0 0-2.4 5.2 24.7 24.7 0 0 0-.5 5.9c0 4 0 8 .9 11.9a31.2 31.2 0 0 0 1.8 5.6l1.2 2.8a14 14 0 0 0 1.4 2.6 9.8 9.8 0 0 0 2 2.1 4.9 4.9 0 0 0 2.7 1.1 11.4 11.4 0 0 0 5.6-1.6 20 20 0 0 0 4.9-3.6 13.2 13.2 0 0 0 1.8-2.4 8.3 8.3 0 0 0 1-2.8 8.5 8.5 0 0 0 0-3 8.4 8.4 0 0 0-1-2.8 23.7 23.7 0 0 0-1.9-2.5 23.4 23.4 0 0 0-2-2.3 32.7 32.7 0 0 0-10.4-6.5 61.8 61.8 0 0 0-12-3.6 65 65 0 0 0-12.6-1.2 9.1 9.1 0 0 0-3 .6 5 5 0 0 0-2.4 1.8 3.6 3.6 0 0 0-.4 2.9 6.9 6.9 0 0 0 1.6 2.6 39.7 39.7 0 0 0 4.9 4l5.1 3.9 10.4 7.8a36.9 36.9 0 0 0 5.3 3.5 11.6 11.6 0 0 0 6.1 1.4 15.7 15.7 0 0 0 6-1.9 42 42 0 0 0 5.4-3.3 101 101 0 0 0 10-8A73.5 73.5 0 0 0 261 87a67.3 67.3 0 0 0 6.6-10.7l1.4-2.8 1.1-2.9a32.7 32.7 0 0 0 1.5-6 23.3 23.3 0 0 0-1-12 16.1 16.1 0 0 0-13.8-10.3 27.3 27.3 0 0 0-3-.1 10.7 10.7 0 0 0-3 .3 29.5 29.5 0 0 0-5.5 2.3l-5.1 3a29.3 29.3 0 0 0-4.7 3.7 13.3 13.3 0 0 0-3.2 5 11.5 11.5 0 0 0-.4 5.6 18.3 18.3 0 0 0 1.9 5.5 26.6 26.6 0 0 0 7.6 8.7 22.9 22.9 0 0 0 10.4 4.5 15.7 15.7 0 0 0 10.8-2.3 12.3 12.3 0 0 0 3.8-4 14.3 14.3 0 0 0 1.8-5.2 23.1 23.1 0 0 0-1.2-10.9 17.5 17.5 0 0 0-6.3-8.6 14.5 14.5 0 0 0-4.9-2.3 12 12 0 0 0-5.3 0 10.6 10.6 0 0 0-7.7 6.3 9.2 9.2 0 0 0 1.8 9.6 8 8 0 0 0 9.4 1.3c1.4-.7 2.6-2.3 2.3-3.9a3.7 3.7 0 0 0-1.2-2 5.2 5.2 0 0 0-2.1-1.1 16.4 16.4 0 0 0-5-.4 25.3 25.3 0 0 0-5 .8 25 25 0 0 0-8.7 4.2 70.7 70.7 0 0 0-7.2 6.6 34.1 34.1 0 0 1-7.5 6 16.7 16.7 0 0 1-4.4 1.6 17.7 17.7 0 0 1-4.7.3 24.6 24.6 0 0 1-8.9-2.3 53 53 0 0 1-7.7-4.6 12.8 12.8 0 0 1-3.4-3 4.8 4.8 0 0 1-.8-2.1 3.8 3.8 0 0 1 .3-2.2 6.7 6.7 0 0 1 3.4-2.9 17.4 17.4 0 0 1 4.1-1.2 20 20 0 0 1 20.9 10.2 77.6 77.6 0 0 1 3.4 7 44.6 44.6 0 0 0 3.5 6.7 17 17 0 0 0 5 5c4.2 2.6 9 3 13.5 2.5a22.5 22.5 0 0 0 6.3-1.7 10.5 10.5 0 0 0 4.8-4 7.7 7.7 0 0 0 1-5.7 9.3 9.3 0 0 0-3-5 12 12 0 0 0-10.3-2.2A18.3 18.3 0 0 0 234 76a26.6 26.6 0 0 0-7.7 14.6 26 26 0 0 0 .9 12.2 26.8 26.8 0 0 0 3.2 6.8 26.6 26.6 0 0 0 1.5 2.1Z" fill="#263238"/><path d="M323.8 52.5c-16.8-25.2-42.6 5.4-42.4 5.5l-.2-.3c4.2 14.1-7.8 31.4-20.3 44.8a191.5 191.5 0 0 0 20.3 16.8s4.4-3.1 10.5-8.1a15.4 15.4 0 0 0 16.4 4.6c-3-.5-5.4-3-6.4-5.8a17 17 0 0 1-.8-7c15.5-14.3 33-35.4 22.9-50.5Z" fill="#d8b4a1"/><path d="m266.5 99.4.3.2c.3.2.5.5 1 .7a17.3 17.3 0 0 0 3.7 2.2 15.7 15.7 0 0 0 6.9 1 53.8 53.8 0 0 0 9.2-1.3 21 21 0 0 0 9.8-5.5 14.7 14.7 0 0 0 3.3-5.3 12.7 12.7 0 0 0 .6-6.6c-.8-4.5-4.8-8.4-9.6-10a10.3 10.3 0 0 0-3.7-.4 10.7 10.7 0 0 0-3.8 1 10.5 10.5 0 0 0-3.2 2.2 20.6 20.6 0 0 0-2.4 3.3 7 7 0 0 0 1.2 7 8.6 8.6 0 0 0 3 2.4 16.5 16.5 0 0 0 3.8 1.1 24.2 24.2 0 0 0 9.4-.2c3-.6 6-1.7 8-3.9a7.9 7.9 0 0 0 2.2-3.8 7.7 7.7 0 0 0-.3-4.2 9.5 9.5 0 0 0-5.7-5.8 12.8 12.8 0 0 0-7.8-.3 17.8 17.8 0 0 0-6.7 3.7 26.3 26.3 0 0 0-8.8 22.4 27.1 27.1 0 0 0 2.2 8.3 28.1 28.1 0 0 0 2.7 4.6l.8 1.2.3.4a14.3 14.3 0 0 1-1.2-1.5 26.4 26.4 0 0 1-2.8-4.7 26.8 26.8 0 0 1-2.3-8.3 26.1 26.1 0 0 1 1.3-11.3 26.5 26.5 0 0 1 7.6-11.5 18 18 0 0 1 6.8-3.7 13.2 13.2 0 0 1 8.2.3 10 10 0 0 1 6 6 8.2 8.2 0 0 1 .2 4.5 8.4 8.4 0 0 1-2.2 4 16.4 16.4 0 0 1-8.4 4 24.6 24.6 0 0 1-9.6.3 16.8 16.8 0 0 1-3.9-1.2 9.2 9.2 0 0 1-3.1-2.5 7.5 7.5 0 0 1-1.3-7.6 21.9 21.9 0 0 1 2.5-3.3 10.9 10.9 0 0 1 3.3-2.4 11 11 0 0 1 4-1 10.8 10.8 0 0 1 3.9.5 15.6 15.6 0 0 1 6.4 4 12.4 12.4 0 0 1 3.4 6.3 13.3 13.3 0 0 1-.6 6.9 15.2 15.2 0 0 1-3.5 5.4 21.2 21.2 0 0 1-10 5.5l-4.9.9a37.4 37.4 0 0 1-4.3.4 15.8 15.8 0 0 1-7-1.1 17 17 0 0 1-3.7-2.3l-1-.7a2.1 2.1 0 0 1-.2-.3Z" fill="#263238"/><path d="m305.3 67.6-.5.3a7.5 7.5 0 0 1-1.8.7 8 8 0 0 1-3 .1 8.2 8.2 0 0 1-4-1.7 8.1 8.1 0 0 1-2.7-4.5 9.7 9.7 0 0 1 .6-6.2 10.4 10.4 0 0 1 5.2-5 11.7 11.7 0 0 1 8-.6 15 15 0 0 1 7.5 4.9 20.3 20.3 0 0 1 4 8.7 19.8 19.8 0 0 1-.2 10.4 12.3 12.3 0 0 1-2.8 4.7 13.5 13.5 0 0 1-4.7 3 15.6 15.6 0 0 1-5.6 1.2 18.1 18.1 0 0 1-5.9-.9 26.4 26.4 0 0 1-10.1-6.4 21 21 0 0 1-6.2-10.8 11.4 11.4 0 0 1 .6-6.4 14.2 14.2 0 0 1 3.8-5.3 44 44 0 0 1 5.3-3.8 51.9 51.9 0 0 1 5.6-3.1 21 21 0 0 1 3-1.2l.7-.2.8-.1 1.6-.1a26.8 26.8 0 0 1 6.2.4 17 17 0 0 1 5.7 2.3 14.6 14.6 0 0 1 4.3 4.2 19.3 19.3 0 0 1 3 11 31.5 31.5 0 0 1-2 10.9 57.9 57.9 0 0 1-4.5 9.3 66.7 66.7 0 0 1-12 14.2 121.5 121.5 0 0 1-12 9.5 27.8 27.8 0 0 1-5.4 3.1 13 13 0 0 1-5.2 1 12.4 12.4 0 0 1-6.9-2.3c-1.4-.9-2-1.5-2-1.5l.5.4 1.5 1a12.6 12.6 0 0 0 6.9 2.2 12.9 12.9 0 0 0 5-1 28.6 28.6 0 0 0 5.5-3.1 122.1 122.1 0 0 0 11.9-9.6 67 67 0 0 0 11.8-14.2 58.6 58.6 0 0 0 4.6-9.2 31.2 31.2 0 0 0 1.9-10.7 19 19 0 0 0-3-10.8 14.1 14.1 0 0 0-4.2-4 16.6 16.6 0 0 0-5.5-2.1 25.7 25.7 0 0 0-6.1-.4H303l-.8.2-.7.2a21.4 21.4 0 0 0-3 1.1 51.8 51.8 0 0 0-5.5 3.1 43.7 43.7 0 0 0-5.1 3.8 13.7 13.7 0 0 0-3.7 5 10.8 10.8 0 0 0-.6 6.2 20.6 20.6 0 0 0 6 10.5 25.9 25.9 0 0 0 10 6.3 17.4 17.4 0 0 0 5.7.9 15.1 15.1 0 0 0 5.5-1.1 13.1 13.1 0 0 0 4.5-3 11.8 11.8 0 0 0 2.7-4.5 19.4 19.4 0 0 0 .3-10.1 19.8 19.8 0 0 0-4-8.6 14.8 14.8 0 0 0-7.2-4.8 11.3 11.3 0 0 0-7.8.5 10 10 0 0 0-5 4.8 9.5 9.5 0 0 0-.7 6 8 8 0 0 0 2.6 4.4 8 8 0 0 0 6.8 1.7 7.9 7.9 0 0 0 2.3-1Z" fill="#263238"/><path d="M279.3 87.8h-.8a5.7 5.7 0 0 0-2 .8 13 13 0 0 0-2.8 2.3 10.4 10.4 0 0 0-2.3 4 10.2 10.2 0 0 0 0 5.6 40.3 40.3 0 0 0 2.2 6.2l1.5 3.2a15.3 15.3 0 0 0 1.9 3.2 5.7 5.7 0 0 0 3 2.1 7 7 0 0 0 3.7-.6 19.5 19.5 0 0 0 6.3-4.4c1.7-1.8 3.2-3.8 3.6-6a9.5 9.5 0 0 0 .2-3.4 7 7 0 0 0-1.3-2.8 43.6 43.6 0 0 0-3.6-4.4 21.3 21.3 0 0 0-6.7-4.9 21.7 21.7 0 0 0-2.9-1 9.6 9.6 0 0 1 3 .8 20.9 20.9 0 0 1 6.9 4.8 40.1 40.1 0 0 1 3.7 4.4 7.3 7.3 0 0 1 1.4 3 9.7 9.7 0 0 1-.2 3.5 9.5 9.5 0 0 1-1.4 3.4 20 20 0 0 1-2.3 3 19.7 19.7 0 0 1-6.5 4.5 7.3 7.3 0 0 1-4 .6 6 6 0 0 1-3.2-2.3 16.5 16.5 0 0 1-2-3.2l-1.5-3.3a40.5 40.5 0 0 1-2.1-6.3 12.7 12.7 0 0 1-.4-3 9.6 9.6 0 0 1 .4-2.8 10.6 10.6 0 0 1 2.5-4 13.3 13.3 0 0 1 2.8-2.3 5.4 5.4 0 0 1 2.2-.8 2 2 0 0 1 .7 0Z" fill="#263238"/><path d="m467.2 252.3 6.3-9.5s0-2.8-5.8-1.8-11.9 12.5-11.9 12.5l-7.2 5.4 6.7-9 5.9-11.2a5.7 5.7 0 0 0-1-.5 7.3 7.3 0 0 0-8.5 3.3l-3.8 6.3-8.7 7.8c.5-.5 7.2-7.9-.1-8l-14.2 6a135 135 0 0 0-14.3 7.7c-7.9 4.9-8 15.2-8 15.2L419 286c18.7-7.2 29-13.1 29-13.1l5.9-5.9 9.1-2.7 16.8-12.7c-3-4.5-12.7.6-12.7.6Z" fill="#ffbf9d"/><path d="M451.6 269a27.5 27.5 0 0 1 2.7-2 44.4 44.4 0 0 0 6.1-5.1 33.8 33.8 0 0 0 4.8-6.3c1-1.8 1.6-3 1.7-2.9a3.6 3.6 0 0 1-.3.9 24.2 24.2 0 0 1-1 2.2 29.2 29.2 0 0 1-4.8 6.5 35.8 35.8 0 0 1-6.2 5l-2.1 1.2a3 3 0 0 1-.9.4Z" fill="#ff9a6c"/><path fill="#ffbf9d" d="m402.5 276.5-16.3 57.7 26.2 23.8 8.8-74.2-18.7-7.3z"/><path d="M443.7 262.8a8.8 8.8 0 0 1 1.5-1.7 51.9 51.9 0 0 1 4.3-3.3l4.4-3.1a10.6 10.6 0 0 1 2-1.2 50.4 50.4 0 0 1-6.1 4.7l-4.3 3.2a10.3 10.3 0 0 1-1.8 1.4ZM437 255.6a3.4 3.4 0 0 1-.7.6 16.2 16.2 0 0 1-2.5 1.1 79.8 79.8 0 0 1-8.4 2.5 21.8 21.8 0 0 0-7.9 3.6 19.6 19.6 0 0 0-2.5 2.6 3 3 0 0 1 .5-.9 10.3 10.3 0 0 1 1.8-2 20.4 20.4 0 0 1 8-3.8c3.3-1 6.3-1.5 8.4-2.3s3.3-1.4 3.4-1.4Z" fill="#ff9a6c"/><path d="M433.7 270.6a12.4 12.4 0 0 0 3.4-1.6 4.3 4.3 0 0 0 2-3 4.7 4.7 0 0 0-1-3c-2.8-3.7-4.7-6.9-4-9 .6-2.8 2.7-3.6 4.5-2.4s4 5.4 5 7.4c2 3.4 4 7.1 3.2 11" fill="#ffbf9d"/><path d="M446.8 270v-2a13 13 0 0 0-1.2-4.8c-.8-2-2.2-4.2-3.6-6.7a27 27 0 0 0-2.5-3.6 4.6 4.6 0 0 0-1.7-1.4 2.2 2.2 0 0 0-2 .2 3.7 3.7 0 0 0-1.4 1.8 4 4 0 0 0-.2 2.2 12.7 12.7 0 0 0 1.8 4l2.4 3.3a4.7 4.7 0 0 1 .7 3.5 4.5 4.5 0 0 1-1.6 2.5 8.1 8.1 0 0 1-2 1 12.5 12.5 0 0 1-1.4.5 1.5 1.5 0 0 1-.4.1s.6-.2 1.7-.7a7.9 7.9 0 0 0 1.8-1.1 4.2 4.2 0 0 0 1.5-2.3 4.4 4.4 0 0 0-.7-3.2l-2.4-3.3a13 13 0 0 1-2-4.2 4.7 4.7 0 0 1 0-1.2 5.7 5.7 0 0 1 .3-1.2 4.1 4.1 0 0 1 1.5-2.1 2.7 2.7 0 0 1 2.6-.3 5.2 5.2 0 0 1 2 1.5 26.8 26.8 0 0 1 2.5 3.8 67 67 0 0 1 3.5 6.7 12.6 12.6 0 0 1 1 5 7 7 0 0 1 0 1.4 1.8 1.8 0 0 1-.2.5Z" fill="#ff9a6c"/><path d="m387.4 322.3-5.5 21.1-44.7-50.6-13-5.8 11.3 75.2 43 35.3s12.7 19 26.2-4.6c11.6-20.3 16.5-44.9 16.5-44.9Z" fill="#d8b4a1"/><path d="M368.9 174.4a36.4 36.4 0 0 1 6.8 33c-1.6 5.4-4.5 11.4-1.7 16.4s9.7 6.3 12.2 11.4c3 6-2 12.7-2 19.4A13.1 13.1 0 0 0 396 267a51.1 51.1 0 0 1-27.1 5.5l-5-10.4c2 3.7.2 8.5-3 11.2s-7.5 3.5-11.7 4a64.9 64.9 0 0 1-53.7-20.9Z" fill="#263238"/><path d="M254.4 201.3c2.3-4 5.4-7.4 7.3-11.6 4-9 1.7-20.5 8-28 4.5-5.3 12-6.8 19-7.4s14.3-.9 20.2-4.7c4.3-2.7 7.4-7.1 11.7-9.9 6.1-4 14-4 21.2-3 7.4 1.1 14.8 3.4 20.7 8s10.1 11.9 9.8 19.4c-.2 3.6-1.4 7.2-1 10.8.4 4 2.7 7.6 3.8 11.5a19.2 19.2 0 0 1-9.5 21.6l-64 54.3c-11.4 1.7-36-8.5-42.5-18s-10.5-33-4.7-43Z" fill="#263238"/><path d="m277.5 287 9.4-109.5a9 9 0 0 1 9-7.8l48.5-5.6c15.2.4 22.7 20.2 21.6 35.3a270.4 270.4 0 0 1-6.9 49.7c-7.3 24.5-27 25.2-27 25.2l-1.8 12.7-3 17.8" fill="#ffbf9d"/><path d="M357.7 222.2a3.3 3.3 0 0 1-3.5 2.8 3.1 3.1 0 0 1-3-3.3 3.3 3.3 0 0 1 3.6-2.9 3.1 3.1 0 0 1 3 3.4ZM326.2 218a3.2 3.2 0 0 1-3.6 2.8 3.1 3.1 0 0 1-2.9-3.3 3.2 3.2 0 0 1 3.5-2.8 3.1 3.1 0 0 1 3 3.3ZM361.4 211.3c-.4.5-3-2-6.8-2.3s-6.7 1.8-7 1.2c-.3-.2.2-1.1 1.5-2.1a8.7 8.7 0 0 1 5.7-1.6 8.6 8.6 0 0 1 5.4 2.4c1.1 1.1 1.5 2.1 1.2 2.4ZM327.7 207c-.5.5-3-2.3-7-3s-7.3 1-7.6.4c-.2-.3.4-1.2 1.9-2a9.8 9.8 0 0 1 6.2-.9 9.6 9.6 0 0 1 5.5 3c1 1.3 1.3 2.3 1 2.5ZM335.2 233c0-.2 2.2-.3 5.8-.3.9 0 1.7 0 2-.6a4.6 4.6 0 0 0-.3-2.7l-1.7-7c-2.4-10.1-4-18.4-3.5-18.5s2.6 8 5 18.1l1.6 7.1c.2 1 .6 2.3 0 3.5a2.2 2.2 0 0 1-1.6 1.1 6 6 0 0 1-1.6 0c-3.5-.3-5.7-.5-5.7-.7Z" fill="#263238"/><path d="M332.1 274.3a64.4 64.4 0 0 1-32.4-13.5s6.1 18.8 31.6 19.7Z" fill="#ff9a6c"/><path d="M313.3 192.7c.4-1 3.9-.3 8-.6s7.5-1.3 8-.4c.2.4-.4 1.3-1.7 2.1a13.9 13.9 0 0 1-12.2.8c-1.5-.6-2.2-1.4-2-1.9ZM349.7 192c1-.5 3.3 1.2 6.4 2.4s5.9 1.5 6.2 2.5c.1.5-.6 1.1-2 1.4a10.4 10.4 0 0 1-5.6-.6 10.2 10.2 0 0 1-4.5-3.4c-.8-1.2-1-2-.5-2.3Z" fill="#263238"/><path d="M285.2 171c3-3 7.5-4 11.7-4.6a232.7 232.7 0 0 1 55.2-2.2c1.4 4.2-1.7 8.7-5.6 10.7s-8.5 2-12.8 2.7-9 2.1-11.5 5.7c-2.6 3.9-2.2 9.2-4.7 13.2-4.2 6.8-15 7-19.2 13.8-3.2 5.2-1.2 11.9-1.6 18a21.7 21.7 0 0 1-26 19.7l9.8-64.4c.7-4.5 1.5-9.3 4.7-12.5Z" fill="#263238"/><path d="M231 215.6c4-2.3 8.8-4 11-8 3.3-5.8-.1-14.2 4.3-19.3 4-4.5 12.7-2.4 16.6-7.2 3-3.6 1.3-7.8 3-11.3s7.4-5.6 11-4.3l20 48.1c-.2 14.7.9 22.7-3.9 30.4-2.6 4.1-5.7 8-7.4 12.7s-1.6 10.3 1.7 14c-17.6-2.4-32-14.9-45-26.9l-14-12.6a11.8 11.8 0 0 1-3.6-4.6c-1.5-4.3 2.4-8.7 6.4-11Z" fill="#263238"/><path d="M242.7 239.5a8.6 8.6 0 0 0 1.8.8 15.8 15.8 0 0 0 5.5.7 17.1 17.1 0 0 0 8.4-2.5 16.8 16.8 0 0 0 7-9 17.3 17.3 0 0 0 1-6.8 27.5 27.5 0 0 0-2-7.1 26.5 26.5 0 0 1-1.8-7.4c-.1-2.5.5-5.4 2.5-7.2s5-1.6 8-2.2a8.2 8.2 0 0 0 4.3-2 8 8 0 0 0 2.1-4.3c.6-3.1-.1-6.3 0-9.4a10 10 0 0 1 .9-4.4 6.3 6.3 0 0 1 3.2-3c2.9-1.3 6.1-.9 9.3-.5a19.3 19.3 0 0 0 9.5-.7 17.2 17.2 0 0 0 7.5-5.4 28.7 28.7 0 0 0 4-7.8 39 39 0 0 1 3.3-7.4 17.6 17.6 0 0 1 5.4-5.3 19.9 19.9 0 0 1 23.4 1.7 24.1 24.1 0 0 1 5.6 6.5 32.3 32.3 0 0 1 2.9 6.8 2.5 2.5 0 0 0-.1-.5l-.3-1.4a23 23 0 0 0-2.2-5.1 24.2 24.2 0 0 0-5.5-6.8 20.9 20.9 0 0 0-10.6-4.7 21.1 21.1 0 0 0-13.7 2.8 18.6 18.6 0 0 0-5.7 5.6 40.8 40.8 0 0 0-3.4 7.5 27.8 27.8 0 0 1-3.9 7.5 16.3 16.3 0 0 1-7 5 18.3 18.3 0 0 1-9 .7c-3.2-.4-6.7-.8-9.9.6a7.3 7.3 0 0 0-3.7 3.4 11 11 0 0 0-1 5c0 3.2.6 6.3 0 9.2a7 7 0 0 1-1.8 3.7 7.2 7.2 0 0 1-3.8 1.8l-4.3.6a8.3 8.3 0 0 0-4.1 1.8c-2.4 2-3 5.2-2.8 8a26.4 26.4 0 0 0 2 7.5 26.9 26.9 0 0 1 1.9 7 16.5 16.5 0 0 1-.8 6.4 16.3 16.3 0 0 1-6.7 8.8 16.8 16.8 0 0 1-8 2.6 19.1 19.1 0 0 1-7.4-1.1Z" fill="#455a64"/><path d="M226 204.7a3.7 3.7 0 0 0-1 1.3 6.4 6.4 0 0 0-.1 4.5 6.7 6.7 0 0 0 1.7 2.8 7 7 0 0 0 3.5 1.8 8.9 8.9 0 0 0 8.6-3.2 12 12 0 0 0 2.4-5 16.5 16.5 0 0 0 0-6c-.6-4-2.3-8.3-1.5-12.7a8.2 8.2 0 0 1 3.3-5.5c1.9-1.2 4.4-1.1 6.7-.6s5 1.2 7.7.8a6.7 6.7 0 0 0 3.6-2 9.5 9.5 0 0 0 2.1-3.5c1-2.7.8-5.3 1-7.9a17.3 17.3 0 0 1 2-7 18.4 18.4 0 0 1 10.2-8.9c4.3-1.5 8.7-.8 12.7-.2s7.8 1.2 11.3.6a23.5 23.5 0 0 0 8.8-3.2 23 23 0 0 0 5.4-4.6l3.5-4s-1.2 1-3.8 3.8a23.5 23.5 0 0 1-5.4 4.3 23.2 23.2 0 0 1-8.6 3c-3.4.5-7.1 0-11.1-.7s-8.5-1.4-13 .1a19.4 19.4 0 0 0-11 9.3 18.4 18.4 0 0 0-2 7.5c-.2 2.5-.1 5.1-1 7.5s-2.5 4.5-5 4.9-4.8-.4-7.2-.9-5.3-.6-7.5.8a9.1 9.1 0 0 0-3.6 6.2 17.5 17.5 0 0 0 .2 6.8c.4 2.2 1 4.2 1.3 6.2a16 16 0 0 1 0 5.7 11.1 11.1 0 0 1-2.1 4.7 8.2 8.2 0 0 1-8 3 6.6 6.6 0 0 1-3.2-1.5 6.4 6.4 0 0 1-1.7-2.6 6.3 6.3 0 0 1 0-4.2c.4-1 .8-1.3.7-1.4ZM406.4 253.8a7 7 0 0 1-1 4.6 6.1 6.1 0 0 1-4.4 2.9 6.4 6.4 0 0 1-6-3.1 5.9 5.9 0 0 1-.7-4 12 12 0 0 1 1.6-4.3c1.5-2.7 4-5.5 4.6-9.4a14.3 14.3 0 0 0-3.2-11.1 17 17 0 0 0-4.8-4 25 25 0 0 0-6-2.2 33.1 33.1 0 0 1-5.8-2 8.1 8.1 0 0 1-4-3.8 10 10 0 0 1-.7-5.5 20.2 20.2 0 0 1 1.6-5.3c1.5-3.3 3.2-6.4 3.7-9.8a15.8 15.8 0 0 0-1.3-9 20.2 20.2 0 0 0-4.6-6 39 39 0 0 1-3.9-4.1 12 12 0 0 1-2-4.3s0 .1 0 .4a5.3 5.3 0 0 0 .1.9 9.6 9.6 0 0 0 1.6 3.2 35.7 35.7 0 0 0 3.8 4.3 20 20 0 0 1 4.3 5.8 15 15 0 0 1 1.2 8.7c-.5 3.1-2.3 6.2-3.8 9.5a20.9 20.9 0 0 0-1.6 5.5 11 11 0 0 0 .6 6 9.1 9.1 0 0 0 4.5 4.5 33.6 33.6 0 0 0 6 2 23.9 23.9 0 0 1 5.8 2 15.8 15.8 0 0 1 4.5 3.8 13.4 13.4 0 0 1 3 10.4c-.4 3.5-2.8 6.2-4.4 9a12.8 12.8 0 0 0-1.7 4.7 6.7 6.7 0 0 0 1 4.4 7 7 0 0 0 6.6 3.3 6.5 6.5 0 0 0 4.7-3.3 6.5 6.5 0 0 0 .9-3.5 3.6 3.6 0 0 0-.2-1.2Z" fill="#263238"/><path d="m335.2 195.4.8-.5a4 4 0 0 0 1.5-1.6 4 4 0 0 0 .4-2.1l-.2-1s.4.2.5.9a3.5 3.5 0 0 1-.2 2.4 3.6 3.6 0 0 1-1.8 1.7c-.6.3-1 .3-1 .2ZM343.9 197s-.5 0-1-.7a3.7 3.7 0 0 1 1.3-5.3c.6-.4 1.1-.4 1.1-.4l-1 .7a3.7 3.7 0 0 0-1 4.8l.6 1ZM330.6 240.1a2.5 2.5 0 0 0-.8-.6 17.8 17.8 0 0 0-5.9-1.8 3.7 3.7 0 0 0-3 .4 3.1 3.1 0 0 0-.6 3.2 6.5 6.5 0 0 0 3.2 4.2 5.6 5.6 0 0 0 5.3 0 5 5 0 0 0 2.4-3.4 2.4 2.4 0 0 0-.6-2Z" fill="#ff9a6c"/><path d="M328.6 245.2s-.2.3-.8.6a6.3 6.3 0 0 1-2.8.3 7 7 0 0 1-3.8-1.6 6 6 0 0 1-1.5-2 4.2 4.2 0 0 1-.5-2.7 3.5 3.5 0 0 1 1.7-2.3 4.2 4.2 0 0 1 2.5-.4 18.4 18.4 0 0 1 4 1c2 .8 3.2 1.7 3.1 1.8a36 36 0 0 1-3.4-1 21.4 21.4 0 0 0-3.8-.8 3.3 3.3 0 0 0-2 .3 2.5 2.5 0 0 0-1 1.7 4.2 4.2 0 0 0 1.5 3.7 6.8 6.8 0 0 0 3.3 1.6 13 13 0 0 0 3.5-.2Z" fill="#263238"/><path d="M364.2 338.6a74.8 74.8 0 0 1 3.7-7.7c2.4-4 3.7-4.1 4.8-4.1 1.8 0 3.3 1.7 2.2 5.5l-1.4 4.1s2.3-5.5 6-4.6 1.7 5.5 1.7 5.5 2.5-.6 3 5.6-1.4 23.6-1.4 23.6l3.3 14h-22.4l-1.4-37Z" fill="#ffbf9d"/><path d="M375.5 358.7a2.7 2.7 0 0 1-.1-1 24.2 24.2 0 0 1 0-2.3 33 33 0 0 1 4.2-15.3 21.8 21.8 0 0 1 1.3-2l.6-.7-1.6 2.9a38.9 38.9 0 0 0-2.9 7.3 39.7 39.7 0 0 0-1.3 7.8l-.2 3.3ZM367.3 348.9a11.5 11.5 0 0 1 .9-2.5 65.7 65.7 0 0 1 5.9-11 11.6 11.6 0 0 1 1.5-2.1 14.3 14.3 0 0 1-1.2 2.3c-.8 1.4-2 3.3-3 5.4l-2.9 5.6a13.6 13.6 0 0 1-1.2 2.3Z" fill="#ff9a6c"/><path d="M393.2 474c0-30.8-12-59-12-59l-17.8-67.6s-31.6-56.8-33.4-56.8-52.1-11.7-52.1-11.7-11.3 6-17.6 15.2c-11 15.6-6.9 40-3 65.7s22 73 22 73l6.3 20-6.2 21.2Z" fill="#d8b4a1"/><path d="M274.3 350.3s18.1 34.2 47.2 55.7 64.4 25.5 64.4 25.5l-4.8-22-35.8-40.9Z" opacity=".3"/><path d="M255.6 305.9a26.2 26.2 0 0 1 32.4-20.2c7.8 2 20.6 10.5 27.6 17.8 31.9 33.3 64.4 67.8 72.7 78.1s8 28.3-1.6 36.4-33.2.4-53.3-11.2-44.9-42.7-51-47.5c-1.6-1.2-23.2-24-26.8-43.8a26.4 26.4 0 0 1 0-9.6Z" fill="#d8b4a1"/><path d="M255.6 305.9v.2l-.1.8a26.5 26.5 0 0 0-.3 3.1 27 27 0 0 0 .4 5 50 50 0 0 0 1.8 6.7 79.4 79.4 0 0 0 8.6 16.8 139 139 0 0 0 15.5 19.7 142 142 0 0 1 10.2 10.3 331.5 331.5 0 0 0 22.9 23.4 131.5 131.5 0 0 0 13.9 11.4 115.6 115.6 0 0 0 16.4 9.2 109.3 109.3 0 0 0 18.4 6.8 53.9 53.9 0 0 0 9.9 1.7 23.3 23.3 0 0 0 10-1.2 11.7 11.7 0 0 0 4.2-2.8l1-.8.8-1a15 15 0 0 0 1.4-2.2 25 25 0 0 0 3.2-9.8 30.2 30.2 0 0 0-4.6-20 50.7 50.7 0 0 0-3.2-4l-3.3-3.8-6.8-7.5c-9-10-17.8-19.3-26.3-28.3l-24-25.3-10.9-11.4a80.1 80.1 0 0 0-11.3-9.2 67.4 67.4 0 0 0-11.5-6.5 25.8 25.8 0 0 0-5.8-1.7 27.4 27.4 0 0 0-5.6-.4 26.6 26.6 0 0 0-10 2.3 27.8 27.8 0 0 0-7.1 4.7 25.5 25.5 0 0 0-6.6 9.8 17.8 17.8 0 0 0-.9 3l-.3 1 .3-1a18.2 18.2 0 0 1 .8-3 25.4 25.4 0 0 1 6.5-10 27.7 27.7 0 0 1 7.2-4.7 26.8 26.8 0 0 1 15.8-2 24.8 24.8 0 0 1 5.9 1.7 67.9 67.9 0 0 1 11.5 6.5 80.7 80.7 0 0 1 11.4 9.2l11 11.4 24 25.3c8.4 8.9 17.3 18.3 26.3 28.2l6.8 7.5 3.3 3.9a51.4 51.4 0 0 1 3.2 4 30.7 30.7 0 0 1 4.8 20.3 25.3 25.3 0 0 1-3.4 10 15.6 15.6 0 0 1-1.5 2.3l-.8 1-1 .9a12.2 12.2 0 0 1-4.4 2.9 23.7 23.7 0 0 1-10.2 1.2 53.9 53.9 0 0 1-10-1.7 108.8 108.8 0 0 1-18.5-6.9 114.8 114.8 0 0 1-16.5-9.3 131.4 131.4 0 0 1-13.9-11.4 315 315 0 0 1-22.8-23.4 142.1 142.1 0 0 0-10.2-10.4 137.4 137.4 0 0 1-15.5-19.8 78.7 78.7 0 0 1-8.4-16.9 50.2 50.2 0 0 1-1.8-6.7 26.9 26.9 0 0 1-.4-5 26 26 0 0 1 .3-3.1c0-.7.2-1 .2-1ZM337.7 294l.3.5.9 1.4a195.9 195.9 0 0 1 12 22.3 467 467 0 0 1 8 17.7l2.3 5.5.6 1.5a1.9 1.9 0 0 1 .1.5 4.3 4.3 0 0 1-.2-.5l-.7-1.4-2.4-5.4a552.5 552.5 0 0 0-17.1-35l-2.8-5.1-.8-1.4a3 3 0 0 1-.2-.6ZM102.2 175.9a11.1 11.1 0 0 1-12.8-18 11.6 11.6 0 0 1 1.7-22 13.8 13.8 0 0 1 14.8-18.6 15.6 15.6 0 0 1 17.5-7.8 11 11 0 0 1 16.3 13.4" fill="#263238"/><path d="m129.9 118.6-2.3 1a47.2 47.2 0 0 0-26.3 58.4 860 860 0 0 0 20.5 56.8c10.2 23.2 35 16.8 35 16.8l10 28.9 56-25.8-38.4-103.8c-8.2-25-29.7-41.2-54.5-32.3Z" fill="#ffbf9d"/><path d="M156.7 251.7s15.3-5.4 26.7-22c0 0-.2 20.5-24.3 28.3Z" fill="#ff9a6c"/><path d="M117 199.6a3.6 3.6 0 0 0 4.5 2 3.5 3.5 0 0 0 2.2-4.5 3.6 3.6 0 0 0-4.6-2 3.5 3.5 0 0 0-2.2 4.5ZM111.2 187.2c.6.3 2.3-2.6 6-4.2s7-.8 7.1-1.4c.1-.3-.6-.9-2.1-1.2a10 10 0 0 0-6 .6 9.6 9.6 0 0 0-4.5 3.9c-.7 1.3-.8 2.2-.5 2.3ZM150.3 186a3.6 3.6 0 0 0 4.7 2 3.5 3.5 0 0 0 2.1-4.5 3.6 3.6 0 0 0-4.6-2 3.5 3.5 0 0 0-2.2 4.5ZM146.7 173c.6.2 2.4-2.8 6-4.3s7-.8 7.1-1.4c.1-.3-.6-1-2.1-1.3a10 10 0 0 0-6 .7 9.5 9.5 0 0 0-4.5 3.8c-.7 1.3-.8 2.3-.5 2.4ZM145 205c0-.2-2.5.3-6.3 1.4-1 .3-1.9.5-2.3 0s-.5-1.8-.5-3l-.3-8.2c-.5-11.5-1.2-20.8-1.7-20.8s-.4 9.4 0 21l.4 8c.1 1.2 0 2.7 1 3.8a2.5 2.5 0 0 0 2.1.7 6.5 6.5 0 0 0 1.7-.4c3.7-1.3 6-2.3 5.9-2.5ZM155.4 157c-.7-1-3.8.8-7.8 1.7s-7.5 1-7.7 2c0 .5.9 1.2 2.5 1.7a12.3 12.3 0 0 0 6.3 0 11.8 11.8 0 0 0 5.4-2.9c1.2-1.1 1.6-2.2 1.3-2.6ZM119.9 169.6c-1.2-.4-3.4 2.1-6.7 4.3s-6.3 3.3-6.4 4.5c0 .5.8 1 2.5 1 .8.2 2 0 6.2-2.3a12.3 12.3 0 0 0 4.3-4.8c.7-1.6.6-2.6 0-2.8Z" fill="#263238"/><path d="M99 166.3s0-17.2 5.5-23.6c6.8-7.8 14.4 0 21.6-5.7s13.6-13.2 24.6-10.4c12 3 9.8 9.6 14.8 19.7 20 41 32.8 49.6 26.6 29-.7-2.3 4.6-6.6 1.5-16.1-3.8-12.4-9.5-27-15.8-34.3a36 36 0 0 0-20.9-11.6c-15-3.7-30.9 2.9-41 8.5S90.2 148.4 99 166.3Z" fill="#263238"/><path d="M190.3 175.2a6.9 6.9 0 0 1 4.3-9c4.5-1.4 10.4-1 14 8.1 6.2 16.1-11.3 19.1-11.5 18.7l-6.8-17.8Z" fill="#ffbf9d"/><path d="m198.2 185.5 1 .1a3 3 0 0 0 2-.7c1.5-1.3 2-4.6.9-7.5a10 10 0 0 0-2.4-3.8 3.5 3.5 0 0 0-3-1.3 1.5 1.5 0 0 0-1.3 1.4v.9c0 .1-.4-.1-.5-.8a1.9 1.9 0 0 1 .2-1.3 2.3 2.3 0 0 1 1.4-1 4.3 4.3 0 0 1 4 1.4 10.3 10.3 0 0 1 2.7 4c1.1 3.4.6 7-1.4 8.7a3.2 3.2 0 0 1-2.8.5c-.6-.2-.8-.5-.8-.6Z" fill="#ff9a6c"/><path d="M176.9 144.5c-1.5 2.3-3 4.7-5.5 6s-5.8 1-7.3-1.2c-.6-1-1-2.5-2-3-1.3-.7-2.7.3-4 1-4.4 2.5-12-.3-15-4.3a4.5 4.5 0 0 1-5.2 3.5 16.3 16.3 0 0 1-5.3-1.8c-2-1-4.6-1.6-6.6-.4-1.1.7-1.9 1.8-3.1 2.2-2.2.8-4.3-1.3-5.5-3.2s-2.4-4.3-4.7-4.6c-2-.4-4 1.1-5.8 2.2s-4.4 1.7-5.7 0a4.1 4.1 0 0 1-.6-3.2 11.2 11.2 0 0 1 10.6-9 15.2 15.2 0 0 1 24.4-13.7 15.4 15.4 0 0 1 25-4.5 11.2 11.2 0 0 1 18 10c3.5.4 7.2 2.2 8.6 5.5s-.3 8-3.9 8.4a6.2 6.2 0 0 1-7.4 9.9" fill="#263238"/><path d="M111.9 133.9a1.5 1.5 0 0 0 .1.3l.5.8a11 11 0 0 0 2.4 2.6 12.4 12.4 0 0 0 5.2 2.2 11.5 11.5 0 0 0 7.3-.9l-.4-.2a6.3 6.3 0 0 0 2.2 4.2 17.9 17.9 0 0 0 4.4 2.8 12.8 12.8 0 0 0 2.5 1 6 6 0 0 0 3 0 6.3 6.3 0 0 0 4.3-4h-.7a13 13 0 0 0 8.6 6.1 9.5 9.5 0 0 0 6-.5 17 17 0 0 0 4.7-3.3h-.5a13.5 13.5 0 0 0 5.9 3.3 7.3 7.3 0 0 0 6.2-.8 9.6 9.6 0 0 0 3.8-9.8l-.3.3a9 9 0 0 0 5.8-1.5 9.8 9.8 0 0 0 3.1-3.3 8.5 8.5 0 0 0 1-2.7 4.4 4.4 0 0 0 0-1 10.4 10.4 0 0 1-1.2 3.5 9.4 9.4 0 0 1-3.1 3.1 8.5 8.5 0 0 1-5.5 1.4h-.4v.3a9 9 0 0 1-3.6 9.1 6.6 6.6 0 0 1-5.7.7 13 13 0 0 1-5.5-3.1l-.2-.3-.3.3a16.5 16.5 0 0 1-4.5 3.1 8.8 8.8 0 0 1-5.5.5 12.3 12.3 0 0 1-8.1-5.8l-.5-.7-.2.8a5.6 5.6 0 0 1-3.8 3.5 5.3 5.3 0 0 1-2.6.2 12.9 12.9 0 0 1-2.4-1 17.6 17.6 0 0 1-4.3-2.6 5.7 5.7 0 0 1-2-3.9v-.4l-.4.2a11.1 11.1 0 0 1-7 1 12.3 12.3 0 0 1-5-2 13.5 13.5 0 0 1-3.3-3.5Z" fill="#455a64"/><path d="M155.9 211.8c0 .3-3.1 1.2-6.3 3.6s-5 5.2-5.2 5c-.2 0 .1-.8 1-2a16.8 16.8 0 0 1 8.3-6.2c1.3-.5 2.1-.5 2.2-.4Z" fill="#263238"/><path d="m124.4 171.3 1-.7a3.7 3.7 0 0 0 1.2-2.5 3.8 3.8 0 0 0-1-2.6c-.5-.6-1-.8-.9-.9s.5 0 1.2.6a3.7 3.7 0 0 1 1.3 3 3.7 3.7 0 0 1-1.6 2.7c-.6.5-1.2.5-1.2.4ZM135.3 167.9a2.2 2.2 0 0 1-1.5.1 4.2 4.2 0 0 1-3.2-5.7c.4-.9.8-1.3.9-1.2s-.3.5-.5 1.3a4.2 4.2 0 0 0 3 5.2c.8.3 1.3.2 1.3.3Z" fill="#ff9a6c"/><path d="M113 206.1s-4.9 3.4-5.7 8-3.7 13-4.3 16.7-6.7 16.5-11.2 19.7-29.5.5-29.5.5-3-12.4-1.8-19.1 6.2-20.7 6.2-20.7 3.9-5.6 7.8-4.3 3.1 4.6 3.1 4.6.7-9.2 5-9 4.2 3.7 4.2 3.7 1-7.8 6-6.9 4.6 6.7 4.6 6.7 1.3-12.9 5.4-11.8 4.2 8.6 4.2 8.6 5.2-2.8 6 3.3Z" fill="#ffbf9d"/><path d="m97.3 205 1 2.5a3.5 3.5 0 0 0 2 1.8 3.8 3.8 0 0 0 3.1-.5 5.7 5.7 0 0 0 2.1-2.5 10.7 10.7 0 0 0 .8-2.7 20 20 0 0 1 .4-2.7 9.7 9.7 0 0 1 0 2.7 10.1 10.1 0 0 1-.7 2.9 6 6 0 0 1-2.3 2.8 4.3 4.3 0 0 1-3.6.4 3.8 3.8 0 0 1-2.1-2 8.6 8.6 0 0 1-.6-2 1.9 1.9 0 0 1-.1-.7ZM86.7 205.2a9.4 9.4 0 0 1-.2 1.6l-.5 4.5-.5 6.6a13.9 13.9 0 0 0 .3 3.8 4 4 0 0 0 2.4 3 3.8 3.8 0 0 0 3.6-1 6.7 6.7 0 0 0 1.6-3.4 170.5 170.5 0 0 1 2.3-11 10.1 10.1 0 0 1 .5-1.5 10.5 10.5 0 0 1-.3 1.6l-1 4.4c-.4 1.8-.7 4-1 6.5a7 7 0 0 1-1.7 3.7 4.2 4.2 0 0 1-4.1 1.2 4.5 4.5 0 0 1-2.8-3.3 14 14 0 0 1-.3-4 65.5 65.5 0 0 1 .6-6.7l.7-4.4a10.4 10.4 0 0 1 .4-1.6Z" fill="#ff9a6c"/><path d="M77.3 209.5a7.8 7.8 0 0 1-.1 1.3l-.3 3.6a46.7 46.7 0 0 0 .7 11.7 7.6 7.6 0 0 0 1.2 3 2.8 2.8 0 0 0 2.5 1.2 4.2 4.2 0 0 0 2.4-1.2 4.9 4.9 0 0 0 1.3-2 12.3 12.3 0 0 0 .6-3.4 6.7 6.7 0 0 1 .1-1.3 6.3 6.3 0 0 1 0 1.3 11 11 0 0 1-.4 3.6 5 5 0 0 1-4 3.4 3.3 3.3 0 0 1-3-1.3 7.8 7.8 0 0 1-1.2-3.2 42.2 42.2 0 0 1-.7-11.9 34.3 34.3 0 0 1 .5-3.6 5.4 5.4 0 0 1 .4-1.2Z" fill="#ff9a6c"/><path d="M69 211.8a14.7 14.7 0 0 1 1 2.6c.7 1.6 1.4 4 2.3 6.4.4 1.3.7 2.5 1.2 3.5a5.6 5.6 0 0 0 1.7 2.3 3.7 3.7 0 0 0 1.9.7h.7a1.3 1.3 0 0 1-.7.2 3.6 3.6 0 0 1-2-.6 5.6 5.6 0 0 1-2-2.4 31.3 31.3 0 0 1-1.4-3.5l-2-6.5a15.1 15.1 0 0 1-.7-2.7Z" fill="#ff9a6c"/><path d="M67 220.6a8.8 8.8 0 0 1 2.8.6 8.8 8.8 0 0 1 2.8 1.1 8.6 8.6 0 0 1-3-.6 8.6 8.6 0 0 1-2.7-1.1ZM77.8 244.9a3.8 3.8 0 0 1 .1-1 18.6 18.6 0 0 1 .8-2.6 27 27 0 0 1 10.9-13.5 18.7 18.7 0 0 1 2.3-1.3 3.8 3.8 0 0 1 1-.4c0 .1-1.3.7-3.1 2A29.3 29.3 0 0 0 79 241.5l-1.2 3.4Z" fill="#ff9a6c"/><path d="m90.7 249 19.3 74.4 24.3-14 17 44.6s-36.7 24.8-57 25.7c-25 1-24.5-43.8-27.4-69-2.5-21.6-4.2-60.6-4.2-60.6Z" fill="#ffbf9d"/><path d="M106.3 339.1a13.8 13.8 0 0 1 .6-2.4l1.5-5.8 1.2-6a15.3 15.3 0 0 1 .5-2.4 10.6 10.6 0 0 1-.2 2.5 61 61 0 0 1-2.7 11.8 10.4 10.4 0 0 1-1 2.3Z" fill="#ff9a6c"/><path d="M189.4 262c-2.1.4-15-1.3-31.8 16-16.6 17.2-43.2 40-43.2 40l50 48.1s47.8-34 55.2-57.2 6.7-54.3-30.2-46.9Z" fill="#d8b4a1"/><path d="M122.3 335.1a3.5 3.5 0 0 1-.5.6l-1.4 1.7-5.4 6-8 9c-3 3.4-6.5 7-9.5 11.2a76 76 0 0 0-7.5 12.5 29.6 29.6 0 0 0-3 11.5 22.2 22.2 0 0 0 1 8l1.2 2.7a4.1 4.1 0 0 1-.4-.7 16.8 16.8 0 0 1-1-2 21.5 21.5 0 0 1-1.2-8 29.3 29.3 0 0 1 3-11.6 73.9 73.9 0 0 1 7.4-12.7 145 145 0 0 1 9.6-11.2l8.1-8.9 5.5-6 1.5-1.6a5.8 5.8 0 0 1 .6-.5Z" fill="#ff9a6c"/><path d="m108.8 439.8-4.1 34.2h132l-5.8-34.6s14.5-92.2 14.8-112.7.7-43.8-7.9-58.4c-11.8-20-20.2-28.3-20.2-28.3l-55.4 31.7s-43.8 94-43.8 97.4-9.6 70.7-9.6 70.7Z" fill="#d8b4a1"/><path d="M115.5 409.4s11 1.3 26.1-4.6 27.2-17.9 27.2-17.9l6.4 2.4s48-36.4 51-61.6l-38 1.4Z" opacity=".3"/><path d="m117.8 341.4 36.3-41.8 44.8 48s-50.7 43.8-65.9 54.2c-15.3 10.5-32 11-41.5.6a18 18 0 0 1-4.5-10.9c-.4-5.4 0-13.8 5-21.2 8.2-12 25.8-28.9 25.8-28.9Z" fill="#ffbf9d"/><path d="M194.5 261.6c-2.2.4-13.2 6-31.3 24.9-17.9 18.5-43.8 45.9-43.8 45.9l51.5 49s51.4-37 59.2-62 4.2-66-35.6-57.8Z" fill="#d8b4a1"/><path d="m194.5 261.6.9-.2 2.5-.5a43 43 0 0 1 10-.3 29.8 29.8 0 0 1 7.1 1.6 24.5 24.5 0 0 1 7.4 4.3 27 27 0 0 1 6.2 7.8 39.6 39.6 0 0 1 3.8 10.5 58 58 0 0 1 1.2 12.1 74.8 74.8 0 0 1-1 13.2 54.7 54.7 0 0 1-4 13.7 68.5 68.5 0 0 1-8.2 12.7 193 193 0 0 1-22.4 23.2 357.8 357.8 0 0 1-27 22H170.7l-1-1-50.5-48.1-.2-.2.2-.2 29-30.3 12.2-12.8c3.8-4 7.3-7.6 10.7-10.7a122.3 122.3 0 0 1 16.7-13.4 42.1 42.1 0 0 1 4.9-2.8 14.2 14.2 0 0 1 1.3-.5l.5-.1-.5.1a14.2 14.2 0 0 0-1.3.6 43.7 43.7 0 0 0-4.9 2.8 125.4 125.4 0 0 0-16.5 13.5q-5 4.7-10.6 10.7L148.5 302l-28.9 30.5v-.4l50.5 48.1 1 1h-.3c9.5-7 18.5-14.5 26.9-22a193.7 193.7 0 0 0 22.4-23.1 69 69 0 0 0 8.1-12.6 54.7 54.7 0 0 0 4-13.5 74.1 74.1 0 0 0 1-13.1 58.6 58.6 0 0 0-1.2-12.2 39.9 39.9 0 0 0-3.7-10.3 27 27 0 0 0-6-7.7 24.4 24.4 0 0 0-7.4-4.4 29.7 29.7 0 0 0-7-1.6 44 44 0 0 0-10 .2l-2.5.5ZM154.1 294.6l4-11.3c2.3-6.2 4.2-11 4.4-11s-1.7 5.1-4 11.3-4.2 11-4.4 11Z" fill="#263238"/></svg>