<svg xmlns="http://www.w3.org/2000/svg" viewBox="0 0 500 500"><path fill="#d8b4a1" d="M442.5 109.2c-1.5-2.4-3.2-4.7-4.9-7-22.5-30.8-60-51.8-96.4-61.4-16-4.1-32.3-6.3-48.7-6.9-107.3-3.6-146.7 78.6-181.2 99.8-34.6 21.2-87.6 57.4-81 133.4a162 162 0 0 0 105.1 138.3c7.1 2.8 14.6 5.2 22.4 7.2 14.6 3.7 30.4 6 47.4 6.8 48.9 2 88.6-9 127.4-36.5 9-6.4 18-13.7 29.7-14.5 8.5-.5 16.6 2.3 7.7 10-10.5 9 1.6 26.6 28.1 14.3 44.4-20.5 62.6-64.7 71.2-109.7 10.6-55.2 5.4-123.9-26.8-173.8Z"/><path fill="#fff" d="M442.5 109.2c-1.5-2.4-3.2-4.7-4.9-7-22.5-30.8-60-51.8-96.4-61.4-16-4.1-32.3-6.3-48.7-6.9-107.3-3.6-146.7 78.6-181.2 99.8-34.6 21.2-87.6 57.4-81 133.4a162 162 0 0 0 105.1 138.3c7.1 2.8 14.6 5.2 22.4 7.2 14.6 3.7 30.4 6 47.4 6.8 48.9 2 88.6-9 127.4-36.5 9-6.4 18-13.7 29.7-14.5 8.5-.5 16.6 2.3 7.7 10-10.5 9 1.6 26.6 28.1 14.3 44.4-20.5 62.6-64.7 71.2-109.7 10.6-55.2 5.4-123.9-26.8-173.8Z" opacity=".8"/><ellipse cx="254.8" cy="438.6" fill="#263238" stroke="#263238" stroke-linecap="round" stroke-linejoin="round" rx="202.2" ry="22.6"/><g fill="#263238"><path d="M437.5 378.2c-1.8.6-6.1 0-6.1 0l1.3-2.8c1.2-2 4.5-4.8 7-4.2 1.6.4 2.4 2.2 1.8 3.8-.5 1.7-2.4 2.7-4 3.2ZM397.5 377l-.5-3.1c0-2.2 1.1-6.5 3.5-7.3 1.6-.6 3.3.5 3.7 2.1.4 1.7-.5 3.7-1.6 5a20.8 20.8 0 0 1-5.1 3.3Z"/><path d="M398.2 408.8a17 17 0 0 0 5.1-1l.5 3.7.3 1.5.4 1.5.8 2.8.4 1.4-1-2c-1-1.6-4-4-6.1-3.5-1.5.4-2.2 2-1.7 3.4.6 1.5 2.3 2.4 3.6 2.8 1.6.4 5 0 5.4-.2l1 3.2.6 1.8h1.5a148 148 0 0 1-1.9-5c.4-.2 3.3-1.4 4.5-2.6 1.2.8 2.6 1.5 2.9 1.6a106.5 106.5 0 0 0-1.6 6h1.4a117.6 117.6 0 0 1 1.3-5.4c.4 0 3.7.7 5.3.3 1.4-.3 3-1.2 3.7-2.6.6-1.3 0-3-1.5-3.5-2-.6-5.2 1.7-6.3 3.3l-1.1 2 .5-1.7.8-2.8.4-1.4.6-1.4.9-2a16 16 0 0 0 5 1c1.4-.2 3.2-.7 4-2 .8-1.3.5-3-1-3.7-1.9-1-5.3.9-6.6 2.3l-.6.7 1-2 3.2-5.6.7-1.2a17 17 0 0 0 5 1c1.5 0 3.3-.6 4.1-2 .8-1.2.5-3-.9-3.7-2-1-5.4 1-6.7 2.4l-.7.8a67.6 67.6 0 0 0 4-8.7c.3.1 3.6 1.3 5.3 1.2 1.4-.2 3.2-.7 4-2 .8-1.3.5-3-.9-3.7-2-1-5.4.9-6.7 2.3l-1.6 2a34 34 0 0 0 1.8-11.2v-4.5l-.2-2 1-2.6c.4-1.8.1-5.7-1.7-6.9-1.4-.8-3 0-3.6 1.3-.7 1.4-.2 3.2.5 4.5.7 1.3 3.1 3.2 3.7 3.7a58.3 58.3 0 0 1 0 6.5v1.4l-.3-2c-.5-1.8-2.6-5.2-4.7-5.3-1.6 0-2.7 1.3-2.7 2.8.1 1.5 1.4 2.9 2.6 3.7 1.2.8 4.3 1.4 5 1.6a35.7 35.7 0 0 1-1.8 8.8h-.1l-.1-2.4c-.3-2-2-5.5-4.1-5.8-1.6-.3-2.8 1-3 2.4 0 1.6 1.1 3 2.2 4a18 18 0 0 0 5 2.2 45.2 45.2 0 0 1-4.7 9.1v-2.6c-.3-2-2-5.5-4.1-5.9-1.6-.2-2.9 1-3 2.5 0 1.5 1 3 2.2 4 1.2 1 4.6 2 4.9 2.1l-1 1.7-3.4 5.7-1 2-.2-2.4c-.2-1.9-1.9-5.4-4-5.8-1.6-.2-2.9 1-3 2.5 0 1.5 1 3 2.2 4 1 1 3.9 1.8 4.7 2l-1.6 3.4-.6 1.4-.5 1.4-.9 2.8-.4 1.3.3-2c0-2-1.1-5.8-3.2-6.4-1.5-.5-3 .5-3.3 2v.5a10 10 0 0 0-1.6 4.8l.1 2.3-.6-1.8-.8-2.7-.4-1.5-.3-1.4-.4-2.3c1-.2 3.6-1 4.7-1.8 1.2-1 2.4-2.4 2.3-4 0-1.4-1.2-2.7-2.8-2.5-2.1.3-4 3.7-4.3 5.6l-.1 1-.2-2.2-.5-6.6v-1.3c.7-.2 3.6-1 4.7-2 1.2-.8 2.4-2.3 2.3-3.8 0-1.5-1.2-2.8-2.8-2.6-2.1.3-4 3.7-4.3 5.6l-.1 1.2a68.4 68.4 0 0 0-1.4-9.5c.2-.1 3.7-1 5-2 1-.9 2.3-2.3 2.2-3.9 0-1.5-1.2-2.8-2.8-2.6-2.1.3-4 3.8-4.3 5.7l-.2 2.5a34.6 34.6 0 0 0-4.7-10.3 62.4 62.4 0 0 0-3.7-5.3s-.5-2.5-.6-2.7c-.7-1.8-3-4.9-5.2-4.8-1.6 0-2.6 1.6-2.4 3 .3 1.5 1.7 2.8 3 3.5 1.3.7 4.3 1 5 1a59.8 59.8 0 0 1 3.8 5.4l.6 1.2-1.3-1.4c-1.4-1.3-5-3-6.8-1.9-1.4.8-1.6 2.6-.7 3.8.9 1.2 2.7 1.6 4.2 1.7 1.5 0 4.4-1.2 5-1.5a40.6 40.6 0 0 1 3.4 8.4h-.1l-1.4-2c-1.3-1.4-4.7-3.4-6.6-2.5-1.5.6-1.9 2.4-1.1 3.7.7 1.3 2.5 2 4 2.1 1.6.2 5.1-.9 5.2-1a44.5 44.5 0 0 1 1.3 10.3l-1.6-2.2c-1.3-1.5-4.6-3.5-6.6-2.6-1.4.6-1.8 2.3-1 3.7.7 1.3 2.5 2 3.9 2.1 1.6.2 5-.8 5.3-1v2.1l.4 6.5c0 .8 0 1.5.2 2.3l-1.4-1.9c-1.2-1.4-4.6-3.5-6.6-2.6-1.4.6-1.8 2.4-1 3.7.7 1.3 2.5 2 4 2.1ZM106 399c-1.1.4-3.7 0-3.7 0l.8-1.7c.7-1 2.7-2.8 4.1-2.5 1 .3 1.5 1.4 1.1 2.3-.3 1-1.4 1.6-2.3 2ZM82.2 398.3l-.3-1.8c0-1.3.7-3.9 2-4.4 1-.3 2 .3 2.3 1.3.2 1-.3 2.2-1 3-.7.8-3 2-3 2Z"/><path d="M82.7 417.1c.8.2 2.5-.3 3-.5 0 .8.1 1.5.3 2.2A110.1 110.1 0 0 0 87 423l-.6-1.1c-.6-1-2.4-2.5-3.6-2.1-1 .2-1.3 1.2-1 2 .3.9 1.3 1.4 2.1 1.6 1 .3 3 0 3.2 0a58.5 58.5 0 0 0 1 3h.9a80.7 80.7 0 0 1-1.2-3c.3-.2 2-.9 2.7-1.6l1.7 1-.5 1.8-.4 1.7h.8a50 50 0 0 1 .8-3.2c.2 0 2.2.4 3.1.2.8-.2 1.9-.7 2.2-1.5.4-.8 0-1.8-.9-2.1-1.2-.4-3 1-3.7 2l-.7 1.2.3-1.1.5-1.6.3-.9c0-.3.2-.5.3-.8l.6-1.2c.5.2 2 .7 2.9.6.8 0 2-.4 2.4-1.2.5-.7.3-1.8-.6-2.2-1.1-.6-3.1.6-4 1.4l-.3.4.6-1.2 2-3.3c0-.3.2-.5.3-.7.5.1 2.2.7 3 .6 1 0 2-.4 2.5-1.2.4-.7.2-1.8-.6-2.2-1.1-.5-3.2.6-4 1.4l-.4.5 1-1.8c.6-1.1 1-2.2 1.4-3.3.2 0 2.2.7 3.1.6.9 0 2-.4 2.4-1.2.5-.7.3-1.7-.5-2.2-1.2-.5-3.2.6-4 1.4a29.7 29.7 0 0 0-1 1.2 19.7 19.7 0 0 0 1.1-6.6 37.9 37.9 0 0 0 0-3.9s.5-1.4.5-1.5c.2-1.1 0-3.4-1-4-.8-.6-1.8-.2-2.2.7-.3.8 0 1.9.4 2.6.4.8 1.8 2 2.2 2.2a151.6 151.6 0 0 1 0 3.9v.8l-.2-1.1c-.3-1.1-1.5-3.1-2.8-3.2-1 0-1.6.8-1.6 1.6 0 1 .8 1.8 1.5 2.3.8.5 2.6.8 3 .9a20.5 20.5 0 0 1-1 5.2h-.1l-.1-1.4c-.2-1.2-1.2-3.3-2.4-3.5-1-.1-1.7.6-1.8 1.5 0 .9.6 1.8 1.3 2.4.8.6 2.9 1.2 3 1.2a27 27 0 0 1-2.8 5.5v-1.6c-.2-1.2-1.2-3.3-2.5-3.5-.9-.1-1.7.6-1.7 1.5s.6 1.8 1.2 2.3c.8.7 2.8 1.3 3 1.3l-.7 1-2 3.4-.6 1.1v-1.3c-.2-1.2-1.2-3.3-2.5-3.5-.9-.1-1.6.6-1.7 1.5 0 .9.6 1.8 1.3 2.4.6.5 2.3 1 2.8 1.2a27 27 0 0 0-1 2l-.3.8-.3.8-.6 1.7-.2.8.2-1.3c0-1.1-.7-3.3-2-3.8-.8-.2-1.7.4-1.8 1.2v.4c-.7.8-1 2-1 2.8v1.4c0-.4-.2-.7-.3-1l-.5-1.7-.2-.9-.2-.8-.2-1.4c.5-.1 2.1-.6 2.8-1 .6-.6 1.4-1.5 1.3-2.4 0-.9-.7-1.6-1.6-1.5-1.3.1-2.4 2.2-2.6 3.3v.6L86 415l-.3-3.9v-.8c.4-.1 2.2-.6 2.8-1.1.7-.6 1.4-1.4 1.4-2.3 0-1-.7-1.7-1.7-1.6-1.2.2-2.3 2.3-2.5 3.4v.6a48.1 48.1 0 0 0-1-5.6c.2 0 2.3-.5 3-1.1.7-.6 1.4-1.4 1.4-2.4 0-.8-.7-1.6-1.7-1.5-1.2.2-2.3 2.2-2.5 3.4l-.1 1.5a29.5 29.5 0 0 0-2.8-6 23.3 23.3 0 0 0-2.2-3.2s-.3-1.6-.4-1.7c-.4-1-1.8-3-3-2.9-1 0-1.6 1-1.5 1.8.2 1 1 1.7 1.8 2 .7.5 2.6.7 3 .7a30 30 0 0 1 2.2 3.2l.4.7-.8-.8c-.9-.8-3-1.8-4-1.1-.9.4-1 1.5-.5 2.2.6.7 1.7 1 2.5 1 1 0 2.6-.7 3-.9a23.3 23.3 0 0 1 2 5 36 36 0 0 0-.9-1.1c-.8-.9-2.7-2-4-1.6-.8.4-1 1.4-.6 2.2.5.8 1.6 1.2 2.4 1.3 1 .1 3-.5 3.1-.6a28.7 28.7 0 0 1 .8 6l-1-1.2c-.7-.9-2.7-2-3.9-1.6-.8.4-1 1.4-.6 2.2.4.8 1.5 1.2 2.4 1.3 1 .1 3-.5 3-.6l.1 1.2.2 4 .1 1.2-.8-1c-.7-1-2.7-2.1-3.9-1.6-.8.4-1 1.4-.6 2.2.4.8 1.5 1.1 2.3 1.2Z"/></g><g fill="#fff" stroke="#263238" stroke-linecap="round" stroke-linejoin="round"><path d="M239.8 385.3s-5 .7-6.4 7.2 2.7 9.5 5.2 17.1a62.8 62.8 0 0 0 6.8 13.9s10 3.8 16 3.2c6-.5 6.5-4.7 4.5-9.2-2-4.5-6.3-7-7.7-8.2-1.4-1.3-3.6-6-3.6-6s2-7.4-4-13.7c-6-6.3-10.8-4.3-10.8-4.3Z"/><path d="M266.9 420.7c-.9 2-2.5 4-5.6 4.2-6.5.4-12.8-2.3-14.3-2.9s-3.7-4.5-6-10.4c-2.4-6-5.7-12.8-3.9-19.8 1.8-7 7-6.1 7-6.1l.4-.2c-2.8-1-4.7-.2-4.7-.2s-5 .7-6.5 7.2 2.7 9.5 5.3 17.1a62.8 62.8 0 0 0 6.8 13.9s10 3.8 16 3.2c4.5-.4 6-2.9 5.5-6Z"/></g><g stroke="#263238" stroke-linecap="round" stroke-linejoin="round"><path fill="#ccc" d="M342 406.2s-1.2 22.7-.7 24.3 2.7 3.2 5.4 3.4c2.7.2 13.4 1 15.7 2.9 3.8 3 10.6 3 10.6 3s13.5.5 12.8-4.3c-.5-3.6-15.1-11.7-19.3-14.7-4-3-7.7-7.8-7.7-8.5l-1.3-9-15.4 2.9Z"/><path fill="#fff" d="M354.9 417.9s-2.6.4-8.9-1.4l-4.4-1.4c-.3 6.5-.6 14.4-.3 15.4.6 1.6 2.8 3.2 5.5 3.4 2.6.2 13.3 1 15.6 2.9 3.8 3 10.6 3 10.6 3s13.5.5 12.8-4.3c-.5-3.6-15.1-11.7-19.3-14.7-4-3-7.7-7.8-7.7-8.5-3.6 0-4 5.6-4 5.6Z"/><path fill="#fff" d="M385.8 435.5c0-.6-.6-1.3-1.3-2.1-.5.8-1.4 1.9-4 2.9a26 26 0 0 1-14.8-.4 39.4 39.4 0 0 0-12.3-4c-4.4-1-9.3-2.5-12.2-3.5 0 1.1 0 1.8.2 2 .5 1.7 2.7 3.3 5.4 3.5 2.6.2 13.3 1 15.6 2.9 3.8 3 10.6 3 10.6 3s13.5.5 12.8-4.3Z"/></g><path fill="#263238" stroke="#263238" stroke-linecap="round" stroke-linejoin="round" d="M233.3 361.3s-4 16.6-1 20a56.5 56.5 0 0 0 14.5 8.2s-5.7 1.4-5.4 6.8 1.7 6.7 9.2 9c7.6 2.3 17.1 5.6 24 6.8 6.8 1.3 11.5 2.4 16.2.2 4.6-2.2 11.3-14 10-20.3s-8.8-18-8.8-18 20.2-8.8 25.6-13.5c5.4-4.7 14.4-11 14.4-11s7.4 45 8.3 51.7 1.6 8.6 1.6 8.6l19.4-4.7s-.3-30.6-2.5-45.7c-2.2-15.1-4.5-38.9-6.3-44.6-1.8-5.8-7.2-7.4-13.1-6.2s-30.6 12-44.5 25.8-45.7 14.4-53.8 17.6c-8.1 3.2-7.8 9.3-7.8 9.3Z"/><g stroke="#263238" stroke-linecap="round" stroke-linejoin="round"><path fill="#ccc" d="M329.5 216.2s-2-5.9-2.9-5.9l-6 .4s.3 1.7 1.7 2.5c1.4.9 4.5 2.1 4.5 2.1l2.7.9Z"/><path fill="#ccc" d="M308 293.4s27 11.7 32.1 13.7c5.2 2 7.6.5 8.3-.7.7-1.2 2-9.4 2-9.4l-24.6-56s5.4-17.8 5.6-20.4c.2-2.6-3-5.3-5-6.7s-5-1.2-4 .5 1.3 2.7 1.3 2.7-5.2 23.9-5.2 25.6S325 276 325 276l-17 17.4Z"/><path fill="none" d="m327.1 291 .4 2.4M324.9 276l1.9 12.8M324.2 216l3.1 2.7-2.9 7.1"/></g><g stroke="#263238" stroke-linecap="round" stroke-linejoin="round"><path fill="#d8b4a1" d="M281.3 246.6s-20 8.7-28.7 14.7C244 267.3 241 281 241 284s-5.8 50.9-5.8 50.9l-5.8 14c-2.8 6.7-.7 9.3.7 10.7s3.2 1.8 3.2 1.8 19.9-10.2 28.3-10.2 18-2.1 18-2.1 17.2-7.3 18-10.3c1-3-.8-14.7-.8-14.7s6.7-8.1 9.3-17 5.3-13 5.3-13l13.6-18s-8.9-7.5-12.6-11.4c-3.8-4-5.6-9.1-14.3-12.1s-13-7.5-16.7-5.9Z"/><path fill="none" d="m277.8 336.4-4.3 2.4M293.4 325.4s-6.2 5-13 9.4M288.4 320.6c-.8 1-13.5 16.3-20 19.6M308.3 276.6l-1-2.7M310.3 295.1s.7-7.2-1.1-15.1M274.4 256s1.7 7.8 5.4 14.8c3.8 7 8 12 9.5 10.8a45.7 45.7 0 0 0 7.5-15"/></g><g stroke="#263238" stroke-linecap="round" stroke-linejoin="round"><path fill="#ccc" d="m283 235.3-6.3 15.8s-1.7 3.6 2.2 11.4c4 7.8 7.8 15.4 10.5 13.7 2.7-1.7 5.6-9.5 7.3-14.6s3.6-9.6 3.6-9.6l-17.2-16.7Z"/><path fill="#263238" d="m289.5 249.4 5.3 17.2 4.7-12-10-5.2z"/></g><path fill="#ccc" stroke="#263238" stroke-linecap="round" stroke-linejoin="round" d="M294.8 201.2s-9.5 3.8-10.6 8.8c-1.2 5-1 10.4-1 10.4s-3.8-2.8-4.4 2.5.2 8.2 2 9l1.6.7s1.4 10.1 4.2 13.5c2.9 3.5 10.3 11 15.6 12.8s8-3 9.8-5.7 5.9-8.2 7.6-12.2 5-16.4 4.5-21.3-5.3-15.3-11-17.7-12.2-3.5-18.3-.8Z"/><g stroke="#263238" stroke-linecap="round" stroke-linejoin="round"><path fill="#636363" d="M297.7 210c1.5-.8 10-3.6 26 7.1-1.4-5.3-5.7-13-10.6-15.2a22.6 22.6 0 0 0-18.3-.7s-9.5 3.8-10.6 8.8c-1.2 4.9-1 10.4-1 10.4s.6.8.8 1.7l1 3.8s4 1.2 4-.3.7-4.4.7-4.4 7.4.4 8-2.9c.6-3.2-1.5-7.6 0-8.4Z"/><path fill="#263238" d="M323.7 217.2c-1.4-5.4-5.7-13.1-10.6-15.2a22.6 22.6 0 0 0-18.3-.8s-9.5 3.8-10.6 8.8l-.4 1.8c3.5-1 8.5-2 13.9-1.8 1.4-.8 10-3.6 26 7.2Z"/></g><path fill="#263238" d="M301.5 226.5s8.4-.2 9.3 0 3-.2 3 1.2-4.1 1.1-5.5 1.1-6.4-1.1-6.8-2.3ZM316.5 228.8s3 5.5 4 5.9.4-2.9-1.1-5c-1.5-2-2.3-2.8-2.9-.9Z"/><path fill="none" stroke="#263238" stroke-linecap="round" stroke-linejoin="round" d="M316.5 230.2s-1 2.5-1.3 2.9-1.4 12.5-2 13c-.5.6-5.5-1.6-5.5-1.6M305.7 248.6s2.4-.2 3.8.4"/><path fill="#263238" d="M308 233c-.3 1-1 1.5-1.6 1.3-.6-.2-.8-1-.5-1.9s1-1.4 1.6-1.2c.5.2.8 1 .5 1.9ZM317.7 236.3c-.3 1-1 1.5-1.6 1.3s-.8-1-.5-2c.3-.8 1-1.4 1.5-1.2.6.2.8 1 .6 2Z"/><path fill="#d8b4a1" stroke="#263238" stroke-linecap="round" stroke-linejoin="round" d="M257.5 259.4s-11 4.3-14.2 9.8c-3.3 5.6-3.5 32.2-3.5 32.2l28.2 3 3-30"/><g stroke="#263238" stroke-linecap="round" stroke-linejoin="round"><path fill="#ccc" d="M243.5 301.9s3 48.5 4.7 52c1.6 3.5 5.3 4.4 6.3 4.6s40.5 11 43.3 12.1c2.8 1.2 8.2 2.8 8.2 2.8s-1 11 .7 14.5c1.6 3.5 4.4 11 4.4 11l-2.8 4.6s-4.9 1.4-4.4 2.1c.5.7 4.7 2.1 5.4 2.1s5.8-.5 7-1 4.8-4.6 5.3-5.7c.5-1.2-1-7-1-7l-5-23.6c-.8-2.3-2-4-2.6-4.2-.7-.2-48.7-24.5-48.7-24.5V304l-20.8-2.1Z"/><path fill="#fff" d="M309.3 407.7s2.1-2.3 3-2.7 1.3-1.2 1.5-1.9c.3-.6.5-3.1.5-3.1M313.2 407s2.5-1.8 2.9-2.2 1.7-5 1.7-5M320.2 399.5s-1 4-1.7 5"/></g><g stroke="#263238" stroke-linecap="round" stroke-linejoin="round"><path fill="#263238" d="M169.1 122.4s-1 1.2-11.1 19c-10 17.8-.4 27.4-.4 27.4L170 138l-.9-15.5Z"/><path fill="#fff" d="M164.2 78.6s-6.4 7.7-6.7 10.8c-.3 3.1.2 5.3-1.2 7.4-1.3 2.1-6.4 3.5-6.9 5.4-.6 3 .7 4 1.7 4.6s1.1 4.4 2 5.4c.8 1 .3 1.3 1 3.1l.6 1.8s-.2 3.2 1.5 4.5c1.6 1.3 7 .8 10 .8h3s8-31.7 8.3-32.2c.3-.5-13.3-11.6-13.3-11.6Z"/><path fill="none" d="m160.4 96.5 5.1.8M160.4 91.7s4.5 2.6 5.8 3"/><path fill="#263238" d="M162.4 97.2s.5 1.2 1.3 1.2c.8.1 1-1 1-1l-2.3-.2Z"/><path fill="none" d="m154.3 112.5 2.4.8"/><path fill="#d8b4a1" d="M151.9 172.2s-13.5 15.3-15.9 21-.7 14.7 3 16.7c3.9 2 16.5-9 16.5-9l-3.6-28.7Z"/><path fill="#fff" d="M143.8 189.1s-5.4 1.8-6.2 2.7"/><path fill="#263238" d="m152.6 242.2-1.2 13.8s-9.8 18.9-16.1 38c-6.3 19.1-12.6 37.8-11 40.8 1.7 3 40 67.2 40.8 68.8 1 1.6-.4 4.2-2.3 8.2-1.9 4-5.1 7.7-9.6 9.8-4.4 2-5.8 4-4.4 5.1 1.4 1.2 11.2 1 15.6.5 4.5-.5 6.8-4 10.3-6.8s6.8-3.7 8.6-6.5c2-2.8.3-7.5-1.6-9.6a60.4 60.4 0 0 1-5.1-6.3c-1.4-2-11.2-30-14.5-41.5-3.3-11.4-5.8-16.8-8.1-21.2s-4-7.7-4.2-8.6c-.3-1 20-36.2 20-36.2s6-8.4 14.5-25c8.4-16.5.8-23.7.8-23.7l-32.5.4Z"/><path fill="#fff" d="M162.8 411.8c-1.9 4-5.1 7.7-9.5 9.8-4.5 2-5.9 4-4.5 5.1 1.4 1.2 11.2 1 15.7.5 4.4-.5 6.7-4 10.2-6.8s6.8-3.7 8.6-6.5c2-2.8.3-7.5-1.6-9.6a60.4 60.4 0 0 1-5.1-6.3c-.7-1-3.3-8-6.3-16.4-3.8 4.2-11 6.3-14 7l8.9 15c.9 1.6-.5 4.2-2.4 8.2Z"/><path fill="#d8b4a1" d="M183.3 413.9c2-2.8.3-7.5-1.6-9.6l-1.7-2c-3.8 3-9.7 6-9.7 6s-.7-1.9-1.2-2.6c-.4-.5-2.7-.4-3.7-.3-.3 1.6-1.3 3.7-2.6 6.4-1.9 4-5.1 7.7-9.6 9.8-4.4 2-5.8 4-4.4 5.1 1.4 1.2 11.2 1 15.6.5 4.5-.5 6.8-4 10.3-6.8s6.8-3.7 8.6-6.5Z"/><path fill="#a1a1a1" d="m153.7 384.7 5 7.5s9.3-1.9 14-7l-3.8-10s-9.6 8.8-15.2 9.5Z"/><path fill="#263238" d="M164 264.4s2.5 22.4 7 42.7c4.4 20.2 8.6 50.6 10.5 62.5s.2 37-.5 40.3c-.7 3.3-2 5-4.9 7.3a31.4 31.4 0 0 1-10 6c-3.8 1.2-9.1 2.4-8.4 5.4.7 3 9.5 3 14.7 3.7s14.7-1.1 20-1.1 5.4-3.3 5-7.3c-.5-4-2-7.4-2.2-10.5-.2-3 3.5-18.6 3.5-18.6s5.2-21.7 3.8-45.3C201 326 199 320 199 319s2.3-39.7 4-44.6 5.8-18.2 4.8-24.5c-.9-6.3-3.7-14.5-3.7-14.5L158 240"/><path fill="#fff" d="M182.1 395.6c-.3 7-.8 12.9-1 14.3-.8 3.3-2.2 5-5 7.2a31.4 31.4 0 0 1-10 6.1c-3.7 1.2-9.1 2.3-8.4 5.4.7 3 9.5 3 14.7 3.7 5.1.7 14.7-1.2 20-1.2s5.4-3.2 5-7.2c-.5-4-2-7.4-2.2-10.5-.1-2.3 2-12 3-16.4-7.5 1.3-13-.1-16-1.4Z"/><path fill="#d8b4a1" d="M197.3 424c-.3-2.5-.9-4.8-1.4-6.8-5.7 1.5-12.3 1.3-12.3 1.3l-1.6-4.4c-.6-1.4-1.4-1.4-2.1-1-.8 1.4-2 2.6-3.8 4a31.4 31.4 0 0 1-10 6.1c-3.7 1.2-9.1 2.3-8.4 5.4.7 3 9.6 3 14.7 3.7 5.1.7 14.7-1.2 20-1.2s5.4-3.2 5-7.2Z"/><path fill="#a1a1a1" d="M181.7 389.2v11.6s10.5 2.8 15.9 1.7l2.3-12.2s-15.6 0-18.2-1.1Z"/><path fill="#d8b4a1" d="M152.6 235s-3 7.4-1 8.8c2.1 1.4 4 5.4 21.5 5.1 17.5-.2 25.4-3.2 28.7-4.9s4.9-3.7 4.6-5.8l-1-6.7s-4.8 5.8-21.8 4.4a277 277 0 0 1-31.3-4.4l.3 3.5Z"/><path fill="#d8b4a1" d="M163.4 152.5s-11.5 13.2-12.8 19.7 1.8 17.8 2.4 20.5c.5 2.7-1.1 21.1-1.7 26.4-.5 5.2-3.6 15.3-1.2 16.7a88 88 0 0 0 35 6c15.3-1 20.9-6 20.3-10.3-.5-4.3-7.9-20.6-7-29.4.9-8.8 6.8-22.9 6-35.3-1-12.5-4.2-24.7-9-27.2-5-2.6-11.4-4.2-19.9 1.4-8.5 5.6-12 11.5-12 11.5Z"/><path fill="none" d="M157.2 230s6.3 7.1 19.6 11.7"/><path fill="#263238" d="m152.2 211.7 5.8-4.5s8.6 9.6 11.8 9c3.2-.7 18.6-23.4 18.6-23.4l6 13.7-3.1-23S166 200 162.8 199.8s-10.6-.7-10.6-.7v12.5Z"/><path fill="#d8b4a1" d="M177.5 159.2 167 190.9s-13.1-6.8-15.1-7.7-5.2-1.5-6.7 2.5c-1.4 4-2.3 3.8-.1 7.4s18.2 23 20.7 22.5 13.9-14.4 22.2-26.3a98 98 0 0 0 13.5-30.8c.7-3.8-5-17.5-11.2-17.9"/><path fill="#263238" d="m155.3 78.6 17.5 13.6s-2.9 18.9-6.9 31.9-8.4 23.4-5 31c3.4 7.5 8 8.6 8.8 6.5s.8-8.5 6.9-16S192 138 195 143c3.1 4.9 4 17.5 6 26.3s-6.7 19.1-4 21.6 7.6 4.2 15.2-.3c7.5-4.5 6.5-13.5 4.3-16.8-2.2-3.2-4.5-3-1-6.8 3.3-3.8 8.4-9 4.4-22.7s-11-15.9-12.6-24c-1.6-8.1 4.9-16.8-.7-30.8-5.6-14-12.8-20.8-22.5-22-9.8-1.3-21.5-.2-28.9 11.2Z"/><path fill="#fff" d="M159 186.6c.1.5 11-7.8 12.9-8.1 2-.4 8.5 1.4 10.3 2 1.8.5 1.8 1.6.1 1.8-1.6.1-7.5-.8-8.4-.6-1 .2 4 1.5 5.6 2.2 1.6.7 4.3 1.6 3.2 2.2-1 .5-9 0-9.5-.2l5.6 2.3c1 .6 1 2 0 2.2-1.1.1-9.4-3-9.4-3s2.9 2.8 3.6 3.9c.7 1 .4 1.8-1 1.6-1.2-.2-3.7-2.7-3.7-2.7l-1.3.7-8-4.3ZM149.6 182.1s-2-2.7-3.7-2.2c-1.6.6-4.8 5.4-5.4 7.4s3.3 1.8 3.3 1.8 2-7 5.7-7Z"/></g><path fill="#d8b4a1" d="m313.8 109.9-5 5-35.7 35.7-35.7-35.7-5-5a25.2 25.2 0 0 1 35.7-35.7l5 5 5-5a25.1 25.1 0 0 1 35.7 0 25.2 25.2 0 0 1 0 35.7Z"/><path fill="none" stroke="#263238" stroke-linecap="round" stroke-linejoin="round" d="M210.2 77s20.7-10.2 45.3-4.9c24.6 5.4 27 26 20 35.8-7 9.8-26.6-27 4.6-30.4 25.3-2.7 15.2 25.5-.2 36.2a19.6 19.6 0 0 1-11.5 4c-20-.5-28-21.1-8-35.8 19.8-14.7 31 3 22.1 18.2-8.8 15.2-36.4 2.4-35.2-12.3 1.1-14.7 19.4-22.5 37.6-13.7 18.2 8.8 10.6 30.9 5.3 40.2s-20.6 16.1-29.4 7.8c-8.8-8.3 16.5-43.6 30.6-35.3 14.1 8.4 5.9 41.2-16.5 44.6-22.3 3.5-36.6-24-38.2-36.7-1.7-12.4 33.7-36.8 60.6-15.7 0 0 10 8.2 6.9 26.1-3 18-22 32.4-28.4 35.8-6.4 3.4-36.4-22.9-43.4-31-7-8.2 1.2-27.8 10.3-35.5 9.1-7.8 23.3 25.6 29.7 26.7s10.9-17.3 6.5-18.6c-4.4-1.4-20 1.7-21.3 13.5-1.4 11.8 6.7 24.3 18.9 23.3s23.3 1.7 34.8-11.8c11.5-13.5.3-33.8-10.1-36.5S284.9 85.5 287 98.4c2 12.8 16.2 17.9 22 4.3s1.3-27.7-5.1-23.6c-6.5 4-6.8 11.1-3 15.9s33.4-9.2 39.5 18.9c6 28-17 33.1-24.4 40.2-7.4 7 .4 13.2 4.8 17.2 4.4 4 1.7 8.8-.4 11.5s-2.3 7.1-2.3 7.1"/></svg>