<svg xmlns="http://www.w3.org/2000/svg" viewBox="0 0 750 500"><path fill="#fafafa" d="M380 96.3c.6-4.3-5.5-7.8-10-8.2-2.2-.2-4.4.2-6.5-.5-4.4-1.6-6.2-7.3-10.5-9.2-3.2-1.3-7-.1-10.1 1.5s-6.2 3.5-9.8 3.8c-3 .2-6.3-1-9 .5-2 1.1-3 3.4-4.8 4.8s-4.2 1.6-6.4 1.7-4.5.1-6.5 1-3.7 3.1-3.3 5.3Z"/><path fill="#ebebeb" d="M230.7 58c.4-3.2-4-5.8-7.4-6-1.7-.2-3.3 0-4.9-.5-3.2-1.1-4.6-5.4-7.8-6.7-2.4-1-5.2-.1-7.5 1s-4.6 2.7-7.2 2.8c-2.3.2-4.8-.7-6.7.4-1.5.9-2.3 2.6-3.6 3.6a8.6 8.6 0 0 1-4.8 1.3 13.3 13.3 0 0 0-4.8.8 3.8 3.8 0 0 0-2.5 3.9ZM695.4 110.8c.4-3.2-4-5.8-7.4-6-1.6-.2-3.3 0-4.8-.5-3.3-1.1-4.6-5.4-7.8-6.7-2.4-1-5.2-.1-7.5 1s-4.7 2.7-7.3 2.8c-2.2.2-4.7-.7-6.7.4-1.5.9-2.2 2.6-3.6 3.6a8.6 8.6 0 0 1-4.7 1.3 13.3 13.3 0 0 0-4.9.8c-1.5.6-2.7 2.2-2.4 3.9Z"/><path fill="#f5f5f5" d="M634.4 82c1-6.2-8-11.3-14.6-11.8-3.1-.3-6.4.2-9.4-.9-6.5-2.2-9-10.6-15.4-13.3-4.7-2-10.2-.2-14.8 2s-9.1 5.3-14.2 5.6c-4.5.3-9.3-1.3-13.2.8-3 1.7-4.5 5-7.2 7s-6 2.4-9.3 2.6-6.6.2-9.5 1.5-5.5 4.5-4.9 7.7ZM157 82.2c.7-5.4-7-9.9-12.8-10.3-2.7-.3-5.6.2-8.2-.8-5.6-2-7.9-9.2-13.4-11.5-4.1-1.8-8.9-.2-12.9 1.8s-8 4.5-12.4 4.8c-3.8.2-8-1.2-11.5.7-2.5 1.4-3.8 4.3-6.1 6s-5.3 2-8.1 2.2-5.8.2-8.4 1.4-4.7 4-4.2 6.7ZM54 233.8s7.7-15.6 7.7-18.8l-2.1-19.3s-1.4-1-2.8 2.3a10.8 10.8 0 0 0-.4 6.7l-1.6 4.3-2.2-3.4-2.3-12.6s-1.4-9.1-2.9-8.2-1.9 3.5-1.3 7.5l1.4 9s.2 1.5-1.2-1.2-2.8-13.6-3.3-15.1-.7-5.4-2.9-5.3-1 5.2-1 5.2l1.7 16.3-2.3-7.7c-.3-1.1-1-4.7-1.6-6.7s-1.8-3-2.8-2.9a1.9 1.9 0 0 0-1.8 1.9l3 13.9s1.7 6.3 1.6 6.7-2.4-2.7-2.4-2.7l-1.7-4.5s-1.3-6.4-3-6.6-1.8 1-1.8 1l2.5 11.8 4.9 13.3 4.6 10a46.7 46.7 0 0 0 .5 5.6c.2.4 13.5-.5 13.5-.5Z"/><path fill="#e0e0e0" d="M52.8 206.7c-.1.1 1 1.9 2.5 3.9s3 3.5 3.1 3.4-1-1.9-2.5-4-2.9-3.4-3-3.3ZM37.3 211.2c0 .2 3.1.7 6.5 2.7s5.2 4.6 5.4 4.4-1.5-3-5-5-7-2.3-7-2.1Z"/><path fill="#263238" d="M150.8 248.7c.2 0 .2-1.5.6-4a28.5 28.5 0 0 1 3.3-9.3c1.9-3.4 4.5-6 6.8-6.9a9.3 9.3 0 0 1 4-.6 2.3 2.3 0 0 0-1.1-.3 6.7 6.7 0 0 0-3.1.4c-2.5.9-5.3 3.5-7.2 7a25.3 25.3 0 0 0-3.2 9.6 12.3 12.3 0 0 0 0 4.1Z"/><path fill="#e0e0e0" d="M147.8 143.6c.6-4 4.2-7.2 8.2-8.1s8.3-.2 12.1 1.2a29 29 0 0 1 11.7 7.2 17.5 17.5 0 0 1 5 12.6c-.3 4.3-2.5 8.7-1.3 12.8 1 3.2 3.6 5.5 6.3 7.4s5.6 3.7 7.4 6.4 2 6.9-.4 9c-2.1 2-6 2.2-7 5-.5 1.7.4 3.5 1 5.3a13.7 13.7 0 0 1-1.8 11 23 23 0 0 1-8.4 7.6c-5.9 3.3-13.2 4.9-19.4 2.2a18.5 18.5 0 0 1-7.6-6.2c-3.3-4.5-4.7-10.1-5-15.6s.3-11.1 1-16.6Z"/><path fill="#e0e0e0" d="M145.6 209.5a17 17 0 0 0 21.6-16.8c-.1-5-2.4-10-.8-14.7 1-3.2 3.7-5.8 4.6-9 1.4-4.9-1.6-9.8-4.4-14a32.8 32.8 0 0 0-6.2-7.5 11 11 0 0 0-9-2.7M93.8 183.6c1.3-6.5-5.1-12.5-4.2-19.1.6-3.7 3.3-6.6 5.8-9.4s5-6.1 4.7-9.9l17.1 67.5c-12.8 4.4-17-2.4-17-2.4-2-2.8-4.7-5-7-7.6s-4-5.9-3.5-9.3 3.4-6.3 4-9.8Z"/><path fill="#e0e0e0" d="M157.4 151c0-3.4-3-6-6.2-7.3s-6.7-1.7-9.5-3.6c-2.4-1.7-4.1-4.3-6.2-6.4a20.8 20.8 0 0 0-35 9.6c-1.2 4.8-.4 10.5 3.4 13.7 4.4 3.7 11 2.8 16.6 1.7s12-2.3 16.7 1c2.9 2 4.5 5.2 6.2 8.3s4 6 7.2 7.2 7.8-.9 7.9-4.3"/><path fill="#f5f5f5" d="M144 151.6a5.7 5.7 0 0 1 5 5.8l-3.3 76.4c-.2 9-13.4 14-23 13.8-9.8-.2-10.1-5-10.2-13.6l-.2-19.6c0 .1-12.3-2-14.8-18.2a171 171 0 0 1-.1-31.8c.6-9.6 7-21.5 16.6-20.4Z"/><path fill="#e0e0e0" d="M104.2 174.8a2 2 0 0 0 2 2.1 2 2 0 0 0 2-1.8 2 2 0 0 0-2-2.1 2 2 0 0 0-2 1.8ZM100.2 170.2c.2.3 1.8-.9 4-.9s3.8 1.1 4 .9c.2-.2 0-.6-.8-1.2a5.7 5.7 0 0 0-3.2-1 5.5 5.5 0 0 0-3.3 1c-.6.6-.8 1-.7 1.2ZM125.8 175.4a2 2 0 0 0 2 2 2 2 0 0 0 2.1-1.8 2 2 0 0 0-2-2 2 2 0 0 0-2.1 1.8ZM122 171.7c.3.3 1.8-.9 4-.9s3.8 1.1 4 .9 0-.6-.8-1.1a5.7 5.7 0 0 0-3.2-1 5.4 5.4 0 0 0-3.2 1c-.7.5-1 1-.8 1.1ZM114 188.1a14.4 14.4 0 0 0-3.7-.6c-.5 0-1-.2-1.2-.6a2.8 2.8 0 0 1 .4-1.7l1.7-4.3c2.3-6.1 4-11.2 3.8-11.3s-2.4 4.9-4.7 11l-1.6 4.3a3.2 3.2 0 0 0-.3 2.3 1.4 1.4 0 0 0 .9.8 4 4 0 0 0 1 .1 14.5 14.5 0 0 0 3.6 0ZM112.3 214.4a40.9 40.9 0 0 0 21.6-5.7s-5.5 11-21.6 9.5ZM121 167.8c.2.6 2.4.3 5 .6s4.7 1 5 .5c.2-.2-.2-.8-1-1.4a8.6 8.6 0 0 0-3.8-1.3 8.4 8.4 0 0 0-3.9.5c-.9.4-1.4.8-1.3 1.1ZM101 164.8c.4.5 2 0 3.8 0s3.4.3 3.7-.2c.2-.2 0-.7-.7-1.2a5.4 5.4 0 0 0-6 .2c-.7.5-1 1-.8 1.2Z"/><path fill="#e0e0e0" d="M110.9 140.5a152.4 152.4 0 0 1 35.2 8.5c2.6 1 5.3 2.2 6.9 4.5s1.6 5.7 1.4 8.6l-2 43.3-9.7-4.4a14.5 14.5 0 0 1-4.4-12.3c.5-3.9 2.6-8 1.2-11.7-1.8-4.9-8.7-6.4-10.5-11.4-1.1-2.8-.2-6.2-1.4-9-1.1-2.6-3.9-4.1-6.6-5.1s-5.6-1.6-7.9-3.4-3.7-5.1-2.2-7.6Z"/><path fill="#f5f5f5" d="M165.6 153.8c-.2.2-2.7-4-7.7-6.7s-9.6-3-9.6-3.2a7.5 7.5 0 0 1 3 0 20.1 20.1 0 0 1 7 2.4 19.8 19.8 0 0 1 5.7 4.9 7.6 7.6 0 0 1 1.6 2.6Z"/><path fill="#ebebeb" d="M112.9 195a10.3 10.3 0 0 0 1.4 2.7 3.6 3.6 0 0 0 2.5 1.5 3.2 3.2 0 0 0 2.8-1.5 5.2 5.2 0 0 0 .7-3.1c0-1-.5-2.1-1.4-2.3a2.4 2.4 0 0 0-1.2.3l-5.2 2"/><path fill="#e0e0e0" d="M115 199.3a7.5 7.5 0 0 0 2.7-.4 4 4 0 0 0 2-1.9 4.1 4.1 0 0 0 0-3.3 3.5 3.5 0 0 0-.4-.8c-.2-.2-.1-.2-.3-.1l-.9.3-.8.3-3 1.2a9 9 0 0 1-2.7.8 9.6 9.6 0 0 1 2.5-1.4l2.9-1.4.8-.3a8.2 8.2 0 0 1 1-.4 1.2 1.2 0 0 1 .7 0 1.5 1.5 0 0 1 .6.4 4.1 4.1 0 0 1 .5 1 4.8 4.8 0 0 1-.1 4.1 4.4 4.4 0 0 1-2.6 2.1 4.1 4.1 0 0 1-2.2.1l-.8-.3ZM70.1 465.6 88.8 404v-51.6l63.5-9 5 20.9a86.5 86.5 0 0 1 12.9 27.7 25.7 25.7 0 0 1 .7 4.6c2.1 9.4 1.4 30.6-2 37.5-5.1 10-1 31.6-1 31.6h-32"/><path fill="#f5f5f5" d="m145.6 224.2-33.3 5.2-5.9 5.1s-21 40.8-21.3 49a96.3 96.3 0 0 0 4.4 24.7l-4.8 36c-.7 4.2 2 8.2 3.8 8.2l57.5-7.7c7.5-1.5 10.6-5.4 10.1-9.7l-.8-8 24.5-82.3c1.4 4.9-.8-13-11.8-17.1a49 49 0 0 0-22.4-3.4Z"/><path fill="#f5f5f5" d="M109.5 232.1s-10.3 7.9-20 16.9S54 275.9 54 275.9l2.6-44-19.7-2.7s-12.6 49.6-6.5 62.5 12.1 17.2 32.2 10.8 25.9-9.4 25.9-9.4Z"/><path fill="#e0e0e0" d="M104.3 237.7a3.1 3.1 0 0 0-.4.5l-1.2 1.8-4.2 6.5c-3.5 5.7-8.1 13.6-11.2 23.2s-3.2 19.1-1.7 25.6a35.3 35.3 0 0 0 2.4 7.4l1 1.9a3.6 3.6 0 0 0 .4.6 25.3 25.3 0 0 0-1-2.6 38.4 38.4 0 0 1-2.2-7.4c-1.4-6.4-1.2-15.7 1.8-25.2s7.6-17.5 10.9-23.1l4-6.7 1-1.8.4-.7Z"/><path fill="#f5f5f5" d="M161.8 227.6s-10.4 13.5-11 26 18.6 87 18.6 87l16.8 68.2 21-7.7s-5-48.5-5.8-54.6c-2-12.5-10.2-37-11.4-51.1s-6.3-41.4-9-47.8-2.6-20.4-19.2-20Z"/><path fill="#e0e0e0" d="M151.7 260.5a2.3 2.3 0 0 0 0 .7l.3 2a653.2 653.2 0 0 0 14.3 64.5l.6 2a2.4 2.4 0 0 0 .2.8 2.3 2.3 0 0 0 0-.8l-.5-2-1.8-7.4-5.7-24.7-5.4-24.8-1.4-7.5-.4-2a2.7 2.7 0 0 0-.2-.8Z"/><path fill="#f5f5f5" d="m188.8 407.9 2.3 20 18.4 16.8s1.5-2.5.7-4.6 4.2 2.7 4.2 2.7v11.5s3.1 1.3 4.1-1.4 1.7-12.6 1.7-12.6l-1.4-1a5.3 5.3 0 0 0 1.4-4.6 16.4 16.4 0 0 0 1-8.4 25 25 0 0 0-1.8-7.3l-15-16.8Z"/><path fill="#e0e0e0" d="M198 427.2c-.2 0 2 3.3 5.4 6.7s6.5 5.8 6.6 5.6-2.7-2.7-6-6.1-5.8-6.4-6-6.2ZM211 430.8c-.2.2 1.7 2.4 4.3 5s4.8 4.7 5 4.5-1.9-2.4-4.4-5-4.8-4.6-5-4.5ZM213.4 426.2c-.1.2 1.6 1.9 3.5 4.2s3.1 4.3 3.3 4.2-.8-2.4-2.7-4.7-4-3.8-4-3.7ZM215.5 421.5c-.1.2 1.2 1.5 2.8 3.3s2.7 3.3 2.8 3.2-.7-1.9-2.3-3.7-3.2-3-3.3-2.8Z"/><path fill="#f5f5f5" d="M136.7 466.1c-.1 0 2.7-4.7 6.3-10.3s6.7-10.2 6.8-10.1-2.7 4.7-6.3 10.4-6.7 10.1-6.8 10Z"/><path fill="#e0e0e0" d="M667.5 220c4.3-2 7-6.4 8.5-10.8s2.3-9.2 4-13.6c1.4-3.2 0-8.4 2.9-10.4 3.6-2.4 3.6-8.8 2.2-12-1.6-3.6-5.7-6.2-6-7.3-.8-2.9 1.8-6 .8-8.9-2.2-6.7-7.7-5.8-7.7-5.8-2.4-3-5.8-7-11.3-8.4-6-1.6-14.7-2.7-20 .4s-9.2 5.2-10.9 11"/><path fill="#f5f5f5" d="M621.8 162.6a6 6 0 0 0-5.3 6.1L620 250c.1 9.6 14.2 15 24.5 14.8 10.4-.3 10.7-5.4 10.8-14.5l.3-21s13-2.1 15.8-19.2c1.3-8.6.8-22.5 0-34-.6-10.2-7.4-22.8-17.7-21.7Z"/><path fill="#e0e0e0" d="M668.5 188.7a2.2 2.2 0 0 1-2 2.2 2.1 2.1 0 0 1-2.3-2 2.2 2.2 0 0 1 2-2.2 2.1 2.1 0 0 1 2.3 2ZM668.5 183.4c-.3.3-2-.9-4.3-.9s-4 1.2-4.3 1c-.2-.2.1-.7.9-1.3a6 6 0 0 1 3.4-1 5.8 5.8 0 0 1 3.5 1c.7.6 1 1.1.8 1.3ZM645.3 188.7a2.2 2.2 0 0 1-2 2.2 2.1 2.1 0 0 1-2.4-2 2.2 2.2 0 0 1 2.2-2.2 2.1 2.1 0 0 1 2.2 2ZM645.3 184c-.3.2-2-1-4.3-1s-4.1 1.2-4.4 1c-.1-.2.2-.7 1-1.3a6.2 6.2 0 0 1 3.4-1 5.8 5.8 0 0 1 3.4 1c.8.6 1 1.1.9 1.2ZM653.9 201.4a16 16 0 0 1 3.8-.7c.6 0 1.2-.1 1.3-.6a3.1 3.1 0 0 0-.4-1.7l-1.8-4.6c-2.5-6.6-4.3-12-4-12s2.5 5 5 11.6l1.7 4.6a3.5 3.5 0 0 1 .3 2.4 1.5 1.5 0 0 1-1 .9 4.2 4.2 0 0 1-1 .1 15.8 15.8 0 0 1-4 0ZM655.6 229.4a43.6 43.6 0 0 1-23-6s5.8 12 23 10.3Z"/><path fill="#ebebeb" d="M652.9 207.1a4.3 4.3 0 0 0-3.8-1.5 3.9 3.9 0 0 0-2.7 1.4 2.5 2.5 0 0 0-.2 2.8 2.9 2.9 0 0 0 3.1.8 9 9 0 0 0 3-1.8 2.6 2.6 0 0 0 .7-.7.8.8 0 0 0 0-.9"/><path fill="#e0e0e0" d="M647 203c.3 0 .3 2.6 2.5 4.4s5 1.6 5 2c0 0-.6.4-1.7.5a6.4 6.4 0 0 1-4.2-1.5 5.6 5.6 0 0 1-2-3.6c-.1-1 .2-1.7.3-1.7ZM646.3 177c-.2.7-2.6.4-5.3.8s-5 1-5.4.5c-.2-.3.2-.9 1.1-1.5a9.4 9.4 0 0 1 8.2-1c1 .5 1.5 1 1.4 1.3ZM667.6 179.1c-.4.6-2 0-4 0s-3.6.4-4-.2c-.1-.2.1-.8.8-1.3a5.8 5.8 0 0 1 6.5.2c.7.5 1 1 .7 1.3ZM631.2 153.2a11.7 11.7 0 0 0 13.8 11.5c2.7-.5 5.5-1.8 7.8-.4s2.5 5 4.6 6.9c3 2.6 7.8.2 11.7 1.3 3 .9 4.8 3.7 6.7 6s5 4.7 7.9 3.8a34.9 34.9 0 0 0-1.2-7.9 11.7 11.7 0 0 0-4.5-6.4c-1.2-.8-2.6-1.3-3.8-2.2-2.4-2-3-5.4-4.5-8.2a12.8 12.8 0 0 0-9.8-6.5c-3.4-.3-6.9.7-10.1-.1-2.5-.7-4.6-2.2-7-2.7-4.8-1-9.3 2.5-12.7 6"/><path fill="#e0e0e0" d="M622.2 190.2c-.5 0-2.6 3 .7 3.7 5.8 1.3 6.6-10 5.3-13.2a33.5 33.5 0 0 0 5.7-6 24 24 0 0 0 2.7-11.7c2 .2 10.9-2.8 10-3-2.2-.6-6.5-2-7.7-3.9-2.5-4-7-6.8-11.4-6.5a10.8 10.8 0 0 0-9.8 8.5 15.6 15.6 0 0 0-13.4 8.6 18 18 0 0 0 .5 16.8c.8 1.3 1.8 2.6 1.8 4.1 0 2-1.4 3.5-2.4 5-2.7 4.3-2.5 10.2-.4 15s3.6 6.2 6.5 7.2c5.9 1.8-.9 13.8 8.8 13.8"/><path fill="#f5f5f5" d="M622.5 195c-.2-3.6-4.2-6-7.4-4.3-1.7 1-3 3-2.9 7 .5 10.2 10.7 7.7 10.7 7.4l-.4-10.1Z"/><path fill="#e0e0e0" d="m619.6 201.3-.5.2a1.8 1.8 0 0 1-1.3.1c-1.1-.3-2-2-2.2-3.9a5.9 5.9 0 0 1 .4-2.6 2 2 0 0 1 1.3-1.4 1 1 0 0 1 1 .5c.2.2.1.5.2.5s.2-.2.1-.6a1.1 1.1 0 0 0-.4-.7 1.3 1.3 0 0 0-1-.2 2.5 2.5 0 0 0-1.8 1.7 6.2 6.2 0 0 0-.5 2.9c.1 2 1.3 4 2.8 4.3a2 2 0 0 0 1.6-.3c.3-.3.4-.5.3-.5ZM644.4 203.6c.2 0 .6-.5 1.4-.8s1.4-.4 1.4-.6-.8-.6-1.8-.1-1.2 1.4-1 1.5ZM642.4 202.8c.2 0 .5-.8 1.2-1.3s1.4-.7 1.5-1-1-.4-2 .4-1 1.9-.7 1.8Z"/><path fill="#fff" d="m607.1 187-.8-1.7a11.3 11.3 0 0 1-1-4.8 10.2 10.2 0 0 1 2.7-6.6 10.5 10.5 0 0 1 3.5-2.5 12.2 12.2 0 0 1 4.4-1c3.2-.1 6.3.4 9.2 0a14.2 14.2 0 0 0 7-2.8 14 14 0 0 0 3.4-3.7 5.8 5.8 0 0 0 .8-1.7 17.9 17.9 0 0 1-4.6 5 14 14 0 0 1-6.7 2.5c-2.8.3-5.8-.2-9.1 0a12.5 12.5 0 0 0-4.8 1 11 11 0 0 0-3.6 2.7 10.5 10.5 0 0 0-2.7 7 10.7 10.7 0 0 0 1.2 5 5 5 0 0 0 1.1 1.5Z"/><path fill="#fff" d="M607.1 164a9 9 0 0 1 4.2-1.2 13.5 13.5 0 0 1 4.8.8c1.7.6 3.6 1.5 5.7 2.1a13 13 0 0 0 6.1.6 12.8 12.8 0 0 0 4.7-1.9 11.1 11.1 0 0 0 2.6-2.2 3 3 0 0 0 .6-1 22 22 0 0 1-3.5 2.8 12.3 12.3 0 0 1-10.3 1c-2-.6-3.9-1.5-5.7-2a13.3 13.3 0 0 0-5-.7 7.2 7.2 0 0 0-3.3 1l-.9.8ZM676.4 156a7.8 7.8 0 0 1-1.2 1.6 6.8 6.8 0 0 1-5 1.7c-2.3 0-4.8-1.5-7-3.6s-4.7-4.8-8-6.5a9.6 9.6 0 0 0-5.5-.8 11.9 11.9 0 0 0-4.7 1.8 17 17 0 0 0-5.6 6.3 38.4 38.4 0 0 0-2.3 5.1 11.6 11.6 0 0 0-.7 2 10.1 10.1 0 0 0 1-1.8 50.5 50.5 0 0 1 2.5-5 17 17 0 0 1 5.5-6 11.7 11.7 0 0 1 4.5-1.7 9 9 0 0 1 5 .8c3.1 1.5 5.4 4.3 7.8 6.3s5 3.7 7.5 3.7a6.9 6.9 0 0 0 5.3-2 4.2 4.2 0 0 0 .8-1.4 1.6 1.6 0 0 0 .1-.5Z"/><path fill="#fff" d="M640.8 145.7a6.2 6.2 0 0 0-2 1.9 14.8 14.8 0 0 0-3 6.1 14.7 14.7 0 0 0 .1 6.8 6 6 0 0 0 1.1 2.6 27.5 27.5 0 0 0-.5-2.7 16.7 16.7 0 0 1 2.7-12.5 26 26 0 0 0 1.6-2.2Z"/><path fill="#ebebeb" d="M561.7 328.5s-8-7.3-7.4-15.1 0-16.9 7.4-26.4c4.6-6 38.3-46.8 38.3-46.8l-2.8 44.1Z"/><path fill="#e0e0e0" d="M581.7 309.5s-10-5-18.3 2-30 50.1-30 50.1 16.4 19.2 22.3 20 29.7 2.7 31 2.7 13.6-48.8 13.6-48.8Z"/><path fill="#e0e0e0" d="M613.4 235s-9.5-3.2-16.9 9.1c-4.2 7.1-28.2 69.3-28.2 69.3l14.3 4.3Z"/><path fill="#f5f5f5" d="M561.1 313.8a16.8 16.8 0 0 0 2.7-1.8c1.7-1.1 4-2.7 7-2.5s5.3 1.9 6.9 3a15.9 15.9 0 0 0 2.6 2 10.7 10.7 0 0 0-2.3-2.4 16.8 16.8 0 0 0-2.9-2.1 9.6 9.6 0 0 0-4.2-1.4 9 9 0 0 0-4.4 1 16 16 0 0 0-3 1.9 10.2 10.2 0 0 0-2.4 2.3Z"/><path fill="#f5f5f5" d="M556.7 382a19 19 0 0 0 1.4-2.6l3.2-7a270.1 270.1 0 0 0 17.5-56 18 18 0 0 0 .5-2.7 20 20 0 0 0-.8 2.7l-1.8 7.5a374 374 0 0 1-16 48.3l-3 7.1a19.7 19.7 0 0 0-1 2.6Z"/><path fill="#e0e0e0" d="M568.4 400c1-12.6 20.3-48 20.3-48l58.4 3 4.5 110.7-63.5.3-4.9-25s-16.5-21.1-14.8-41Z"/><path fill="#f5f5f5" d="M572.3 421.9a10 10 0 0 0 1.7-1.4l4.3-4h.1v-.2a1018 1018 0 0 0 2-31.2v-.2l-.2-.1-5-1.3a7.5 7.5 0 0 0-1.8-.3 8.5 8.5 0 0 0 1.8.7l4.8 1.5-.2-.3a933.8 933.8 0 0 0-2 31.1v-.2l-4 4.2a9.7 9.7 0 0 0-1.5 1.7Z"/><path fill="#f5f5f5" d="M570.2 391.4c0 .2 2 .5 4.6.5s4.7-.1 4.7-.4-2-.4-4.7-.5-4.6.2-4.6.4Z"/><path fill="#e0e0e0" d="M595 355h68l10.1 18.3s15.8 49.5 26.4 92.4h-83.2l-3.3-24.3s-16.3-14.1-22.6-34S595 355 595 355Z"/><path fill="#f5f5f5" d="M647 389a4.5 4.5 0 0 0-.8-.2l-2.4-.1-9-.6-32.5-2h-.4v32.2l.1.2 5 4.1 16.6 14.3.2.1h.2l21.6-10.9h.2v-.3l1-26.8.2-7.5v-1.9a3.6 3.6 0 0 0 0-.6 5.4 5.4 0 0 0 0 .7l-.1 2-.5 7.5-1.3 26.6.2-.3-21.6 10.7h.4L607.4 422l-4.9-4.2.1.3v-31.6l-.3.3 32.2 1.6 9.2.5h2.4a8.3 8.3 0 0 0 .9 0Z"/><path fill="#f5f5f5" d="M602.4 392.4a7.1 7.1 0 0 0 1.7.3l4.8.7a312.4 312.4 0 0 0 31.6 2l4.8-.1a6.9 6.9 0 0 0 1.7-.2 6.8 6.8 0 0 0-1.7-.1l-4.8-.3a732 732 0 0 1-31.6-2l-4.8-.3a7 7 0 0 0-1.7 0ZM573.5 339.7c1.1-6.1 17-63.5 23.2-86.3 2.2-7.9 7.1-15.2 15-18 3.8-1.2 4.2-2 7.8-1.9.5 0 3.7 2.1 8.7 4.5a41.2 41.2 0 0 0 23.2 3.5l5.2-.8c6.3-.5 13.6 0 21 9.5 6 7.9 29.3 49 29.3 49s8 4.9 8.4 11.3 8 29.8-7.7 34.3a27.3 27.3 0 0 1-25.8-5.2l-6.6-10.9c.2 4.3.6 7.7 2 9.6s8.5 16.6 7.5 27.2c-.6 7-11.4 8.4-11.4 8.4s-1.6-3.2-7.7-4.2a110 110 0 0 0-12.6-1.4l-15-8.7-53-4.7s-12.9-7.5-11.5-15.2Z"/><path fill="#e0e0e0" d="M651.7 293.6c-.2 0 5.1 8.4 11.8 18.4s12.4 18 12.6 18-5.2-8.4-11.9-18.5c-5.6-8.4-12-17.4-12.5-17.9ZM644.7 283.3c.1 0-.7-2.1-1.2-5.7a32.2 32.2 0 0 1 7.8-25.9c2.4-2.7 4.2-4 4.1-4.1a5.3 5.3 0 0 0-1.3.8 25.9 25.9 0 0 0-3.2 3 30.5 30.5 0 0 0-8 26.3 27.2 27.2 0 0 0 1.1 4.2 5.1 5.1 0 0 0 .7 1.4ZM650.4 367.4a9 9 0 0 0 3.8-1 17 17 0 0 0 10.3-15 9 9 0 0 0-.5-3.8c-.1 0 .1 1.5-.1 3.9a18 18 0 0 1-10 14.4c-2 1.1-3.5 1.4-3.5 1.5ZM635.7 359.2s.8 0 1.7-.6a7.2 7.2 0 0 0 2.9-3.5 7 7 0 0 0 .2-4.5c-.3-1-.8-1.6-.9-1.6l.3 1.8a7.8 7.8 0 0 1-2.8 7.3l-1.4 1ZM593.3 332.2l-.2 1.1a20.5 20.5 0 0 0 .2 3.2 28 28 0 0 0 10.3 17.9 18.4 18.4 0 0 0 2.7 1.8l1 .5-3.3-2.8a31 31 0 0 1-10-17.5c-.6-2.6-.6-4.2-.7-4.2Z"/><path fill="#fff" d="m665.4 312 .3-2.2a12.7 12.7 0 0 1 2.4-5.4 11.5 11.5 0 0 1 7.5-4.4 11.9 11.9 0 0 1 5.2.4 14 14 0 0 1 4.9 2.8c1.5 1.2 2.9 2.6 4.4 3.7a12.5 12.5 0 0 0 5 2.5 9.6 9.6 0 0 0 8.7-2.5 9.4 9.4 0 0 0 2.6-5.7 8.3 8.3 0 0 0 0-1.7l-.2-.6-.1 2.3a9.4 9.4 0 0 1-2.7 5.2 9 9 0 0 1-8.2 2.3 12.1 12.1 0 0 1-4.6-2.4c-1.5-1.1-2.8-2.5-4.4-3.8a14.5 14.5 0 0 0-5.2-2.9 12.4 12.4 0 0 0-5.5-.3 11.9 11.9 0 0 0-7.8 4.7 12.3 12.3 0 0 0-2.3 5.8 10.1 10.1 0 0 0 0 1.7v.6ZM650.2 293a3.6 3.6 0 0 0 .9-.4 23.5 23.5 0 0 0 2.3-1.4 29.1 29.1 0 0 0 7.2-6.7 27 27 0 0 0 3.4-6 17.8 17.8 0 0 0 1.5-7.7 12.2 12.2 0 0 0-3.5-8 9.6 9.6 0 0 0-4-2.4 6.8 6.8 0 0 0-5 .2 4.3 4.3 0 0 0-1.8 1.8 4.4 4.4 0 0 0-.5 2.5 6 6 0 0 0 2.2 4.2 8.3 8.3 0 0 0 4.3 1.6 14.6 14.6 0 0 0 4.3-.3 18.6 18.6 0 0 0 15-17.4 16.6 16.6 0 0 0-.1-2.7 4.4 4.4 0 0 0-.2-.9v3.6a19 19 0 0 1-3.2 9 18.4 18.4 0 0 1-11.7 7.7c-2.6.5-5.7.5-8-1.3a5.1 5.1 0 0 1-1.8-3.6 3.5 3.5 0 0 1 2-3.4 6 6 0 0 1 4.3-.2 9 9 0 0 1 3.7 2.2 11.4 11.4 0 0 1 3.3 7.4 17.4 17.4 0 0 1-1.3 7.4 27.2 27.2 0 0 1-3.3 5.9 30.4 30.4 0 0 1-7 6.8c-1.9 1.4-3 2-3 2ZM663.6 353.2c0-.1-.6 0-1.5-.3a6.2 6.2 0 0 1-3.2-2.3 8.6 8.6 0 0 1-1.5-5.8 9.6 9.6 0 0 1 3.1-6.5 10.7 10.7 0 0 1 6.8-2.6 11.2 11.2 0 0 1 5.9 1.6 16.9 16.9 0 0 1 4.2 3.8 4 4 0 0 0-.8-1.4 11.6 11.6 0 0 0-3.1-3 11.1 11.1 0 0 0-13.5 1 10.2 10.2 0 0 0-3.4 7 9 9 0 0 0 1.8 6.2 6.2 6.2 0 0 0 3.6 2.3 3.7 3.7 0 0 0 1.2 0h.4Z"/><path fill="#fff" d="M580 317.3a2 2 0 0 0 .4.2l1 .4a16.3 16.3 0 0 0 4.5.6 37 37 0 0 0 7-1 64.7 64.7 0 0 1 9.3-1.6 16.8 16.8 0 0 1 10.6 2.8 14.7 14.7 0 0 1 6.7 10.4 9 9 0 0 1-1.8 6.4 6.5 6.5 0 0 1-6 2.6 6 6 0 0 1-3.3-1.4 4.9 4.9 0 0 1-1.6-3 7 7 0 0 1 3-6.3 9 9 0 0 1 7.3-1 15.7 15.7 0 0 1 6.5 3.6c3.7 3.2 6.4 7.3 10 10.4a17.5 17.5 0 0 0 5.9 3.5 11.7 11.7 0 0 0 6.4.3 8.6 8.6 0 0 0 2.8-1.3 13.7 13.7 0 0 0 2.2-2 9.8 9.8 0 0 1 4.2-3.1 9 9 0 0 1 8.6 1.4 8.6 8.6 0 0 1 3 6.1 9.2 9.2 0 0 1-.8 4.3l-.7 1.4a5.5 5.5 0 0 0 .9-1.3 9.2 9.2 0 0 0-2-10.8 9.4 9.4 0 0 0-9.1-1.7c-3.8 1-5.2 5.6-9.2 6.4a11 11 0 0 1-6-.4 16.8 16.8 0 0 1-5.7-3.4c-3.4-3-6-7-10-10.4a16.5 16.5 0 0 0-6.8-3.7 9.9 9.9 0 0 0-7.9 1 7.8 7.8 0 0 0-3.4 7.2 5.7 5.7 0 0 0 2 3.5 7.1 7.1 0 0 0 7.4 1 8 8 0 0 0 3-2.4 9.8 9.8 0 0 0 1.9-6.9 15.4 15.4 0 0 0-7.1-10.9 17.4 17.4 0 0 0-11-2.8 63.6 63.6 0 0 0-9.3 1.7 36.9 36.9 0 0 1-7 1 17.7 17.7 0 0 1-5.9-.8ZM589.7 279a10 10 0 0 1 4-1.6c2.7-.4 7 .4 10.8 3.6a45.3 45.3 0 0 1 5.6 5.9 42.6 42.6 0 0 0 6.6 6.7c2.6 2 6 3.6 9.9 3.3a8.4 8.4 0 0 0 5.1-2.2 5.8 5.8 0 0 0 1.6-2.6 4 4 0 0 0-.4-3 5 5 0 0 0-5.4-2.2 6.2 6.2 0 0 0-4.1 3.8 8.3 8.3 0 0 0 0 5.5 14.3 14.3 0 0 0 2.4 4.6 18.2 18.2 0 0 0 26.5 2.5 17.1 17.1 0 0 0 2.2-2.3 5.7 5.7 0 0 0 .6-1 29 29 0 0 1-3 3 18.6 18.6 0 0 1-10.7 4.3 17.6 17.6 0 0 1-7.8-1.4 18.1 18.1 0 0 1-7.2-5.6 13.7 13.7 0 0 1-2.4-4.3 7.5 7.5 0 0 1 0-5 5.4 5.4 0 0 1 3.6-3.3 4.3 4.3 0 0 1 4.5 1.8c1 1.5.2 3.4-1 4.6a7.6 7.6 0 0 1-4.7 2c-3.5.3-6.8-1.2-9.3-3a43.2 43.2 0 0 1-6.6-6.7 44.8 44.8 0 0 0-5.7-5.8c-4-3.2-8.4-4-11.2-3.4a8.3 8.3 0 0 0-3 1.1 5.6 5.6 0 0 0-.7.5l-.2.2ZM597 252a6.9 6.9 0 0 0 1.6 1 27.3 27.3 0 0 0 4.7 2.4 30.3 30.3 0 0 0 32.5-6.8 27 27 0 0 0 3.4-4 7 7 0 0 0 1-1.8 59.3 59.3 0 0 1-4.7 5.4 31 31 0 0 1-32 6.7 62 62 0 0 1-6.5-3Z"/><path fill="#f5f5f5" d="M591.3 369.2a23 23 0 0 0-1 4 97.9 97.9 0 0 0-1.2 11.2c-.2 4.7-.4 10.4-.3 16.7a44 44 0 0 0 5.9 19.3 63.7 63.7 0 0 0 8.7 12 69.8 69.8 0 0 0 9.8 8.9v.1l2.3 17.6.6 5 .2 1.3a3 3 0 0 1 0 .4 2.7 2.7 0 0 1-.1-.4l-.2-1.3-.8-5-2.4-17.5v.1a68.3 68.3 0 0 1-9.8-8.8 63.5 63.5 0 0 1-8.8-12.1 44 44 0 0 1-5.9-19.6c-.1-6.3.1-12 .4-16.7a89.7 89.7 0 0 1 1.4-11.2 26.7 26.7 0 0 1 .7-3l.3-.8a1 1 0 0 1 .2-.2ZM568.3 401.4a2 2 0 0 1 0-.5l.2-1.5a49.2 49.2 0 0 1 1.1-5.2c1.2-4.3 3.2-10.1 5.7-16.5a461.3 461.3 0 0 1 8.8-21l.6-1.3.3-.5a2.3 2.3 0 0 1-.2.5l-.5 1.3-2 5-6.5 16.2a221.3 221.3 0 0 0-7.1 21.6l-.3 1.4a1.8 1.8 0 0 1 0 .5Z"/><path fill="#263238" d="M456.5 465.7h62.1l4.8-7.2 4.9 7.2h66.2l-26.3-52.1H466.8l-10.3 52.1zM541.5 122c1.4-5.5 5.5-8.2 10.9-10a17.7 17.7 0 0 1 16.1 2.6c3 2.3 5.4 5.7 9 6.9 6 2 12.8-2.4 18.5.3a8 8 0 0 1-3.8 15.3c3.8 1.4 5 6.9 2.8 10.3s-6.9 4.7-11 4-7.5-3.2-10.5-6-5.8-5.7-9-8.2-7.2-4.4-11.3-4.2c-5.5.3-10.3 4.5-12.7 9.5s-3 10.6-3.4 16.1-.4 11.2-2 16.5c-.2.6-.5 1.3-1.1 1.5-.9.3-1.7-.7-2.1-1.5a81.3 81.3 0 0 1-9.3-30.3c-.6-6-.5-11.9 3-17s11.8-9 16-5.8"/><path fill="#a37361" d="m530.8 147.6-2.9 62.1c-.5 10.6 1 26.2 17.7 26.2 14.5-1 18.8-14.7 19.3-24.5l.4-9s15.9-.8 17.7-16.4c1-7.5 1.5-23.2 1.9-37.4a29.3 29.3 0 0 0-26.2-29.8l-1.5-.1c-16.3-.9-26.1 12.6-26.5 29Z"/><path fill="#825648" d="M565.4 202.1a36.6 36.6 0 0 1-19.8-8s3.6 11.8 19.4 12Z"/><path fill="#263238" d="M580.9 160.2a2.2 2.2 0 0 1-2.4 2 2.1 2.1 0 0 1-2.1-2.3 2.3 2.3 0 0 1 2.4-2 2.1 2.1 0 0 1 2 2.3ZM580.7 155.9c-.3.3-1.9-1.2-4.3-1.4s-4.2.7-4.5.4c0-.1.3-.6 1-1.1a6.2 6.2 0 0 1 3.7-.7 6 6 0 0 1 3.4 1.5c.7.6.9 1.2.7 1.3ZM557.2 158.5a2.2 2.2 0 0 1-2.4 2 2.1 2.1 0 0 1-2-2.2 2.3 2.3 0 0 1 2.4-2 2.1 2.1 0 0 1 2 2.2ZM557 153.8c-.2.3-1.8-1.1-4.2-1.4s-4.3.8-4.5.5c-.1-.2.2-.7 1-1.2a6.2 6.2 0 0 1 3.7-.7 6 6 0 0 1 3.4 1.5c.6.7.8 1.2.7 1.3ZM563.9 172.6a16.6 16.6 0 0 1 4-.3c.6 0 1.2 0 1.4-.5a3.2 3.2 0 0 0-.3-1.9l-1.3-4.8c-1.8-7-3-12.6-2.8-12.7s2 5.5 3.8 12.4l1.3 5a3.6 3.6 0 0 1 0 2.3 1.6 1.6 0 0 1-1 .8 4.8 4.8 0 0 1-1 0 15 15 0 0 1-4.1-.3ZM558.7 144.5c-.3.6-2.7 0-5.5.1s-5.2.6-5.5 0c-.2-.4.3-1 1.3-1.5a9.6 9.6 0 0 1 8.4 0c1 .5 1.4 1.1 1.3 1.4ZM580.6 148.9c-.5.5-2.1-.3-4-.5s-3.8 0-4-.7c-.2-.2.1-.8 1-1.2a6 6 0 0 1 6.5.9c.5.6.7 1.2.5 1.5Z"/><path fill="#a37361" d="M530.8 159.3c-.3-.1-10.4-4.3-11.2 6.4s10.1 9.3 10.2 9l1-15.4Z"/><path fill="#825648" d="m526.8 170.4-.5.3a1.9 1.9 0 0 1-1.4-.1c-1.1-.5-2-2.4-1.8-4.3a6.3 6.3 0 0 1 .7-2.6 2.2 2.2 0 0 1 1.5-1.4 1 1 0 0 1 1 .6c.2.3 0 .5.1.6s.3-.2.2-.7a1.2 1.2 0 0 0-.3-.7 1.5 1.5 0 0 0-1-.3 2.6 2.6 0 0 0-2.1 1.5 6.3 6.3 0 0 0-.9 3c0 2.1.9 4.2 2.4 4.8a2 2 0 0 0 1.7-.2c.4-.2.4-.5.4-.5Z"/><path fill="#263238" d="M588.5 145.7a22.7 22.7 0 0 1-19.5-6.6c-3.5-3.7-5.9-8.6-10.5-10.6a12.7 12.7 0 0 0-9.8.3 24.5 24.5 0 0 0-8.1 6c2.2 8.3-.8 16.9-3.7 25a4.3 4.3 0 0 1-1.5 2.2c-1.4.9-3.2 0-4.2-1.3a13 13 0 0 1-2.2-7.3 44.2 44.2 0 0 1 2-17.3 30 30 0 0 1 9.9-14.2 28.5 28.5 0 0 1 20.6-5.4 35 35 0 0 1 19.4 9.3 20.4 20.4 0 0 1 5.8 8.3"/><path fill="#825648" d="M564.6 179.3a11.3 11.3 0 0 1-1.4 2.7 3.6 3.6 0 0 1-2.5 1.5 3.2 3.2 0 0 1-2.7-1.5 5 5 0 0 1-.8-3.1c0-1 .5-2.1 1.5-2.3a2.4 2.4 0 0 1 1.2.3l5.1 2.1"/><path fill="#263238" d="M562.6 183.6a7.8 7.8 0 0 1-2.7-.4 3.9 3.9 0 0 1-2.1-1.9 4 4 0 0 1 0-3.3 3.9 3.9 0 0 1 .4-.8c.2-.2.1-.2.4-.1l.8.3.8.3 3 1.2a9.4 9.4 0 0 0 2.7.8 9 9 0 0 0-2.5-1.4l-2.8-1.4-.9-.3-1-.4a1.2 1.2 0 0 0-.7 0 1.3 1.3 0 0 0-.5.4 4 4 0 0 0-.6 1 4.8 4.8 0 0 0 .2 4.1 4.4 4.4 0 0 0 2.5 2.1 4.2 4.2 0 0 0 2.3.1c.5-.1.7-.3.7-.3Z"/><path fill="#455a64" d="m577 367.3-2.8-40.5-10.2-95.4 3.6-19.9-40.4-16.1-5 14.2c-25.9 9.3-34.2 47-34.2 47l-1 97.4-26.9 66 7 6.2c11 6.6 113.9 2.4 113.9 2.4Z"/><path d="M470.5 394.6a127.1 127.1 0 0 0 24.4 23.6c5 3.8 11 7.4 17.1 6.4 6-1 10.5-6 14.4-10.6l22-26c1.3-1.5 2.6-3 3-5a6.9 6.9 0 0 0-3.2-6.4 15 15 0 0 0-7-2.3c-15.5-1.8-30.6 5.9-46.3 6-5.3 0-14-1-19 .7l-5.4 13.6" opacity=".3"/><path fill="#263238" d="M553.7 331.1a23.9 23.9 0 0 1 3 30.5L543 381.8l-20 26.1a15.8 15.8 0 0 1-23.6 1.7L408 339a13.7 13.7 0 0 1-2.8-18.7l37.2-52.3a13.7 13.7 0 0 1 19.1-3.2Z"/><path fill="#455a64" d="M506.4 413.6a4.5 4.5 0 0 1 .2-.5l.8-1.4 3.3-5.1 12.5-18.7c5.3-7.8 11.7-17.2 18.6-27.7a70 70 0 0 0 4.8-8.2 10.4 10.4 0 0 0 1-4.7 8 8 0 0 0-1.7-4.4c-2-2.6-5-4.4-8-6.5l-8.7-6.2-60.4-43-18.2-13.2-5-3.6-1.2-1a2.6 2.6 0 0 1-.4-.3 3 3 0 0 1 .5.3l1.3.9 5 3.4 18.4 13 60.5 42.8 8.7 6.2c2.9 2.1 6 4 8.1 6.7a8.8 8.8 0 0 1 2 4.9 11.1 11.1 0 0 1-1.2 5 69 69 0 0 1-5 8.3l-18.7 27.6c-10.7 15.6-17.2 25.4-17.2 25.4Z"/><path fill="#263238" d="M541 208.3s-26-13.7-65.1 48.5l7 8.1s32.7-57.6 54.3-50.6c16 5.1 3.3 54.8-16.7 94.5l6.6 3.2s47.6-90.5 14-103.7Z"/><path fill="#455a64" d="M454.3 278.3a33.8 33.8 0 0 0-4.5 42l.9 1.3 35.3 54.8 29.6-18.2-28.6-52s13.3-13.8 27.7-29.2c19.5-20.8 40.3-46.4 25.4-61 0 0-10.1-8-25.7 4-11.3 8.7-43.3 41-60 58.3Z"/><path fill="#a37361" d="m640.4 239.3 15.4-3.8s4.1 3.7 2 7.6-5.8 13.6-5.8 13.6l-12 3.8-3.3 9.7-20.5-8.7 5.5-18.2 11.5-14.2 8.7-1.3 5.8 5s-4.9 3.5-8.2-.3l-4 1.5.4 2.4a3.6 3.6 0 0 0 4.5 3Z"/><path fill="#a37361" d="m655.7 236.1 10-4.9s2.4-.7 3.8.8l.5 1-12 8Z"/><path fill="#825648" d="M634.5 251.8a10.5 10.5 0 0 1 1-2.5 14.3 14.3 0 0 0 1.5-6.3 7.2 7.2 0 0 0-.9-3.3 9.7 9.7 0 0 1-.7-1.5 4.5 4.5 0 0 1-.1-1.4 7.2 7.2 0 0 1 .3-2.8 13.4 13.4 0 0 1 .3 2.7 5 5 0 0 0 1 2.7 7.6 7.6 0 0 1 1 3.6 12.8 12.8 0 0 1-1.9 6.5 8.1 8.1 0 0 1-1.5 2.3Z"/><path fill="#263238" d="m680 215.1 2.3 3.4-46 33.8-2.8-3.7Z"/><path fill="#a37361" d="M651.8 256c.9-1 .3-2.8-.8-3.6a7.2 7.2 0 0 0-4-.9 29.6 29.6 0 0 0-6.7.4 4.3 4.3 0 0 0-2 .8 1.8 1.8 0 0 0-.6 2c.3.9 1.3 1.2 2.2 1.4a31.4 31.4 0 0 0 7.2.6"/><path fill="#825648" d="M647.1 256.7a13.1 13.1 0 0 1-4.3.1c-.7 0-1.4 0-2.2-.2a6.5 6.5 0 0 1-2.5-.7 2 2 0 0 1-1-1.4 2.2 2.2 0 0 1 .6-1.6 4.4 4.4 0 0 1 2.8-1.4 27 27 0 0 1 5.8-.3c1.7 0 3.5 0 4.7.9a3 3 0 0 1 1.4 3c-.2.7-.6 1-.6 1a3.7 3.7 0 0 0 .3-1.2 2.7 2.7 0 0 0-1.4-2.3 9.2 9.2 0 0 0-4.4-.7 29.5 29.5 0 0 0-5.6.4 3.8 3.8 0 0 0-2.4 1 1.2 1.2 0 0 0 .2 1.9 6.2 6.2 0 0 0 2.2.7l2.1.3c2.7.4 4.3.3 4.3.5Z"/><path fill="#a37361" d="M655.6 246.6c-3.6-.9-6.3-1.2-10-2.1a5.9 5.9 0 0 0-3.6-.1c-1.1.4-1.8 2-1 3a2.7 2.7 0 0 0 1.1.6l11 4.3"/><path fill="#825648" d="M653.1 252.3a23.6 23.6 0 0 1-4.3-1.4l-4.5-1.7-2.7-1a2 2 0 0 1-1.3-1.3 2.4 2.4 0 0 1 .4-1.8 2.7 2.7 0 0 1 1.4-1.1 4.2 4.2 0 0 1 1.6-.3 17.4 17.4 0 0 1 2.9.6l4.7 1.1a19.8 19.8 0 0 1 4.3 1.3 29.4 29.4 0 0 1-4.4-.7c-1.4-.2-3-.5-4.8-1a17.2 17.2 0 0 0-2.7-.4 2.4 2.4 0 0 0-2.3 1 1.6 1.6 0 0 0-.3 1.1 1.2 1.2 0 0 0 .8.8l2.7 1 4.5 2a23.6 23.6 0 0 1 4 1.8Z"/><path fill="#a37361" d="m658 241-10-1.9a5.9 5.9 0 0 0-3.5.1c-1.1.6-1.8 2.2-.9 3a3 3 0 0 0 1.2.6l11.2 3.6"/><path fill="#825648" d="M656 246.4a23.7 23.7 0 0 1-4.3-1L647 244l-2.8-.9a2 2 0 0 1-1.3-1.1 2.4 2.4 0 0 1 .2-1.9 2.8 2.8 0 0 1 1.2-1.3 4 4 0 0 1 1.7-.3 15 15 0 0 1 2.9.4l4.7 1a23.3 23.3 0 0 1 4.4 1 24.5 24.5 0 0 1-4.5-.5l-4.8-.8a15.9 15.9 0 0 0-2.7-.3 2.4 2.4 0 0 0-2.2 1.2c-1 2 1.9 2 3.4 2.8l4.6 1.5a24 24 0 0 1 4.2 1.6Z"/><path fill="#455a64" d="M637.9 268.8 608 332.7a19.6 19.6 0 0 1-15.2 11.1 19.5 19.5 0 0 1-20.4-11.6l-22.3-51 12.7-55.1 30 64.3 24.5-34.8Z"/><path fill="#263238" d="M584 311.9c-.3 0 1.4-5.1 3.8-11.2s4.4-11 4.6-11-1.5 5.1-3.8 11.3-4.5 11-4.7 10.9ZM577.3 366.6a7.6 7.6 0 0 1-.2-1.3l-.3-4-1.3-14.5-4.1-48c-1.6-18.7-3.4-35.6-4.8-47.8l-1.6-14.5-.5-4a12.6 12.6 0 0 1 0-1.3 7.7 7.7 0 0 1 .2 1.4l.6 3.9 2 14.4c1.4 12.3 3.2 29.2 5 48s3 35.6 3.9 48l1 14.5.2 4a6.4 6.4 0 0 1 0 1.3Z"/><path fill="#a37361" d="m509.4 361.8 3.9 8.2s7.7.9 10.9 2.4 14.7 11.5 14.7 11.5a3.8 3.8 0 0 1-4.4 2c-1.4-.4-7.3-5-7.3-5a3.9 3.9 0 0 0-2.6 6c2.3 3.5 5 7.5 5.2 8s5.3 2.8 9.2 4.4c2.2.9 2 4.5-.5 4.9a1.3 1.3 0 0 1-.6-.1s1.8 3.8-4.9 2.7c0 0-4.4 3-7.9 1.2 0 0-6.3 1.4-9 .5s-14.5-17.3-14.5-17.3l-10-18.3Z"/><path fill="#825648" d="M519.8 391.1a12.1 12.1 0 0 0 1.4 3.3 18.4 18.4 0 0 0 5.2 6.7 16.3 16.3 0 0 0 8 2.6 11.2 11.2 0 0 0 3.5.1 14.8 14.8 0 0 0-3.4-.7 18.5 18.5 0 0 1-7.6-2.8 21 21 0 0 1-5.2-6.2 15.6 15.6 0 0 0-1.9-3ZM516.5 394.9s.2 1.3 1 3a24.7 24.7 0 0 0 2 3 11 11 0 0 0 3 3 18.5 18.5 0 0 0 4 1.5l3.3.9a11 11 0 0 0 3.1.6 11 11 0 0 0-3-1.2l-3.1-1a20.3 20.3 0 0 1-3.8-1.6 10.7 10.7 0 0 1-3-2.7 30.1 30.1 0 0 1-1.8-2.8c-1.1-1.6-1.5-2.8-1.7-2.7ZM513 399.5c-.2.2 1.8 3.2 4.5 6.5a3.5 3.5 0 0 0 1.5 1 13.6 13.6 0 0 0 1.4.5 14.8 14.8 0 0 0 2.4.6c1.5.1 2.4 0 2.3-.2a12 12 0 0 0-2.2-.5 19.9 19.9 0 0 1-2.3-.7 12 12 0 0 1-1.3-.5 2.7 2.7 0 0 1-1-.8l-3.6-4.2a10.2 10.2 0 0 0-1.6-1.7Z"/><path fill="#263238" d="M560.3 209c.3 0-.4 3.6-1.2 8s-1.3 8-1.5 8 0-3.7.7-8.2 1.8-7.8 2-7.8ZM548 214c-.3-.1.1-2.2 1-4.6s1.5-4.4 1.7-4.3-.2 2.1-1 4.6-1.6 4.3-1.8 4.2ZM538.8 209.4c-.2 0 .5-1.9 1.6-4s2-3.7 2.3-3.6-.5 1.9-1.6 4-2.1 3.7-2.3 3.6ZM526.8 208c-.2 0 1.2-2.3 3.2-4.8s3.6-4.5 3.8-4.4-1.2 2.3-3.2 4.9-3.6 4.5-3.8 4.4ZM487 306.8a30.4 30.4 0 0 1-2.6-2 24.3 24.3 0 0 0-14.9-4.4 28.7 28.7 0 0 1-3.3.2 8.8 8.8 0 0 1 3.3-.8 20.9 20.9 0 0 1 8 .8 21.1 21.1 0 0 1 7.2 3.7 8.5 8.5 0 0 1 2.4 2.5ZM478.4 286.1a10.1 10.1 0 0 1 2.6 2.3 26.9 26.9 0 0 1 6.8 15.1 9.6 9.6 0 0 1 0 3.5c-.3 0-.3-5.4-3-11.2s-6.6-9.5-6.4-9.7Z"/><path fill="#263238" d="M515.7 357.8a5 5 0 0 1-.6-1l-1.7-3-6.2-10.7-20.4-36.5-.2-.3.2-.2 6.3-6.6 33.1-34.7 10.2-10.5 2.8-2.8a8.9 8.9 0 0 1 1-1 7.6 7.6 0 0 1-1 1.1l-2.6 3-10 10.6-33 34.9-6.2 6.6v-.5l20.3 36.6 6 11 1.5 3a7.4 7.4 0 0 1 .5 1Z"/><path d="m500.2 292.6 11.6 8.3a12.5 12.5 0 0 0 4.1-3.6 120 120 0 0 0 18.7-40.2Z" opacity=".3"/><path fill="#455a64" d="M533.8 440.6a5.3 5.3 0 0 1-.5 1l-1.5 2.7a524.7 524.7 0 0 1-10.4 17.7l-1.7 2.6a4.4 4.4 0 0 1-.7 1 5 5 0 0 1 .5-1l1.6-2.8a573.1 573.1 0 0 1 10.4-17.6l1.6-2.6a4.6 4.6 0 0 1 .7-1Z"/><path fill="#263238" d="M425.4 466.4s9-54.2 2.2-86.6l-105 1s-15.3 60.1-8 86ZM385.3 227.3c-.5-22.5-1-45.1-3.3-67.6l20.2 15.3c5.1 13.4-.1 26.5 5 40 2.6 7 7.7 13.1 8.3 20.6.4 6-2.1 11.8-1.7 17.8s4 11.7 3.2 17.7c-.5 4.5-3.3 8.3-6 11.8-1.1 1.5-2.3 3-4 3.5a8 8 0 0 1-4.1-.3 87 87 0 0 1-9.5-3 17 17 0 0 1-6.6-4c-3.9-4.1-3-10.6-2.4-16.3 1.3-11.8 1-23.7.9-35.5Z"/><path fill="#d8b4a1" d="M298.8 333.2c.2-5.6 4.4-60 5.2-65a23.3 23.3 0 0 1 11.2-16.9l15.8-6.2c17.7-5 76.6-1.1 76.6-1.1l9.7 88.7s11.4 36.4 11.4 43.6 2 27.2 2 27.2-32.2 12.1-55.4 10.7-58.4-9.5-58.4-9.5l5.1-32.1s-3.3-5.3-1.6-9.4a26.1 26.1 0 0 1 1.7-3.3 26.4 26.4 0 0 1-13.4-5.6c-10.3-8.6-10-15.5-9.9-21.1Z"/><path d="M424.2 354.8c-6.3 5-14.3 8.4-22.4 7.8-3.7-.2-7.4-1.3-11-1.4-6-.2-11.6 2-17.2 3.6A83.8 83.8 0 0 1 321 362l1.1-2a29.5 29.5 0 0 0 16-1.2c25.4-4.1 40.6-9.6 66.2-9 6.7.1 13.7.6 19.6 4" opacity=".3"/><path fill="#263238" d="M313 345.2a3.8 3.8 0 0 1 .2-1 9.8 9.8 0 0 1 .3-1.3 15 15 0 0 1 .6-1.6 25.4 25.4 0 0 1 2-4 27 27 0 0 1 7.4-7.9 25.4 25.4 0 0 1 3.8-2.2 15.8 15.8 0 0 1 1.5-.7 11.9 11.9 0 0 1 1.2-.4 4 4 0 0 1 1.1-.3l-3.7 1.7a28 28 0 0 0-3.7 2.3 31.6 31.6 0 0 0-4 3.5 31.2 31.2 0 0 0-3.2 4.3 27.7 27.7 0 0 0-2 3.8l-1.5 3.8ZM308.3 332.6l.7-.6a20 20 0 0 1 2-1.6 27.8 27.8 0 0 1 16-4.8 20.9 20.9 0 0 1 2.5.2 3.6 3.6 0 0 1 1 .1H327a31 31 0 0 0-15.9 4.8l-2.8 2Z"/><path fill="#263238" d="M330.1 304.9a10 10 0 0 1 .1 1.5V324a3.4 3.4 0 0 0 1.9 3 20 20 0 0 0 3.2 1.2l5.8 2 4 1.2a8.7 8.7 0 0 1 1.3.6 7 7 0 0 1-1.5-.4l-3.9-1.1-5.8-1.8a20.2 20.2 0 0 1-3.4-1.3 4.7 4.7 0 0 1-.8-.6 3.1 3.1 0 0 1-.7-.8 5.2 5.2 0 0 1-.5-2c-.2-1.4 0-2.7 0-3.9v-9.6l.1-4.2a7 7 0 0 1 .2-1.4ZM302 287a.7.7 0 0 1 0 .3v.7l-.2 3-.8 10.8L300 318l-.7 9.5-.4 5a30.4 30.4 0 0 0 .2 5.1 18.5 18.5 0 0 0 3.3 8.9 28.5 28.5 0 0 0 11.6 10.9 29.7 29.7 0 0 0 12.4 3 38.8 38.8 0 0 0 8.6-.7l2.2-.6.6-.1h.2-.2l-.6.3-2.2.6a36.7 36.7 0 0 1-8.6.9 29.7 29.7 0 0 1-12.6-3 28.9 28.9 0 0 1-11.8-11 19 19 0 0 1-3.5-9.1 31.6 31.6 0 0 1-.2-5.3l.4-5 .7-9.4 1.3-16.1.9-10.8.3-3v-.7l.1-.3ZM320.7 371.7a2.4 2.4 0 0 1 .6.2l1.6.7 6 2.7a198.7 198.7 0 0 0 41 12.9l6.4 1.1 1.8.4a4.7 4.7 0 0 1 .6.1 2.2 2.2 0 0 1-.7 0l-1.7-.2-6.5-1a176.1 176.1 0 0 1-41-12.9 139 139 0 0 1-6-2.8l-1.5-.8a2.1 2.1 0 0 1-.6-.4Z"/><path fill="#fff" d="M330 289.1a5.7 5.7 0 0 1 .7-.2l2-.5a46.8 46.8 0 0 1 7.8-.7l11.5.1 14.1.2 25.6.6 7.8.2 2 .1a3.5 3.5 0 0 1 .8 0 3.7 3.7 0 0 1-.7 0h-9.9l-25.6-.4-14.1-.2-11.5-.2a54.3 54.3 0 0 0-7.7.5l-2 .4a3.2 3.2 0 0 1-.8.1ZM334 298h33.3c18.3 0 33.2.5 33.2.6s-14.9.1-33.2 0-33.3-.4-33.3-.5ZM302.9 282.3a4.1 4.1 0 0 1 1-.4l2.8-.7a43 43 0 0 1 19.6.6 29.6 29.6 0 0 1 2.8.9 3.8 3.8 0 0 1 1 .4l-4-1a49.4 49.4 0 0 0-19.3-.5l-4 .7ZM301.6 289.8a4.2 4.2 0 0 1 1-.4 29.7 29.7 0 0 1 3-.7 43.2 43.2 0 0 1 19.4 1c1.2.3 2.2.6 2.8.9a4.7 4.7 0 0 1 1 .4l-3.9-1a50.8 50.8 0 0 0-9.6-1.4 51.5 51.5 0 0 0-9.7.5l-4 .7Z"/><path d="m321.7 251 27 22.5c.7 3.6 2 19 2.6 22.7a3 3 0 0 1 0 1.7c-.5 1-2 1.2-3 .6a6 6 0 0 1-2-2.9c-.9 2.7.3 5.5 1 8.2s1.3 6-.7 7.9c-1.7 1.6-4.3 1.6-6.5 1.3a13.7 13.7 0 0 1-7.6-3.5 17 17 0 0 1-3.5-6.4 125.3 125.3 0 0 1-7.3-52.1ZM376.2 253.8a97.2 97.2 0 0 1 10.1 35.7c2.2 14.5.6 30 1.4 44.7-3.8-.6-6.6-4.3-7.5-8s-.5-7.8-.4-11.7c.6-20.3-7.2-40.6-3.6-60.7Z" opacity=".3"/><path fill="#d8b4a1" d="M407.6 244c10.6 2 26.7 2.4 26 21.7-.6 19.6-4 53.5-10.8 64.8s-15 16.8-27.6 10.4-11.1-26.4-11.1-26.4l24.8-18.6-3.6-4.6Z"/><path fill="#263238" d="M411.4 342.3h-.2l-.7.3a22.4 22.4 0 0 1-2.6.6 19.4 19.4 0 0 1-9.8-.8 23 23 0 0 1-11.2-9.5 16.6 16.6 0 0 1-1.9-4 37.1 37.1 0 0 1-1-4.5 68.1 68.1 0 0 1-.7-9.6v-.2h.1l6.3-4.4 20.5-14H410.6a58.6 58.6 0 0 1 8 9.1 29.9 29.9 0 0 1 2.5 4.4 25.5 25.5 0 0 1 1.4 4.1 28.6 28.6 0 0 1 .8 6v1.6a2 2 0 0 1 0 .6 4.4 4.4 0 0 1 0-.6v-1.6a31 31 0 0 0-1-5.9 25 25 0 0 0-1.4-4 29.5 29.5 0 0 0-2.5-4.4 59.5 59.5 0 0 0-8-8.9h.3l-20.5 14-6.4 4.4.1-.2a68.3 68.3 0 0 0 .7 9.5 37.8 37.8 0 0 0 1 4.5 16.4 16.4 0 0 0 1.7 3.8c3 4.7 7 8 11 9.4a19.8 19.8 0 0 0 9.7 1l2.6-.5.7-.2h.2ZM404.6 286.8a74.5 74.5 0 0 1 .4-8.9 78 78 0 0 1 1-8.8 74.4 74.4 0 0 1-.4 8.9 78 78 0 0 1-1 8.8Z"/><path fill="#fff" d="M404.6 283.6a4.5 4.5 0 0 1 1-.1l3-.2a79.2 79.2 0 0 1 10 .3 80.5 80.5 0 0 1 9.9 1.5l2.9.7a4 4 0 0 1 1 .3 4.8 4.8 0 0 1-1-.1l-3-.6c-2.6-.4-6-1-9.9-1.3s-7.4-.4-9.9-.4h-3a4.3 4.3 0 0 1-1 0ZM406.4 291.5a4 4 0 0 1 1 0h2.7a101.6 101.6 0 0 1 20 2.1 3.1 3.1 0 0 1 1 .3 31.6 31.6 0 0 1-3.6-.4 338.2 338.2 0 0 0-17.4-1.7 28 28 0 0 1-3.7-.3Z"/><path fill="#263238" d="M426.5 246.2a1.5 1.5 0 0 1 .8-.1 3.5 3.5 0 0 1 2 .8c.9.6 1.3 1.7 2 2.4a1.3 1.3 0 0 0 .8.2 8.6 8.6 0 0 1 1 0 2.6 2.6 0 0 1 1.8 1.3 6.1 6.1 0 0 1 .7 2 8 8 0 0 0 .2 1 1.3 1.3 0 0 0 .5.6 6.8 6.8 0 0 1 1.3 1 4.3 4.3 0 0 1 .8 1.4 4.1 4.1 0 0 1 .2 2.2 1.7 1.7 0 0 1-.3.7l.1-.7a4.4 4.4 0 0 0-.3-2 4.2 4.2 0 0 0-.8-1.2 6.5 6.5 0 0 0-1.3-1 1.8 1.8 0 0 1-.7-.8 8 8 0 0 1-.2-1 5.7 5.7 0 0 0-.7-1.9 2 2 0 0 0-1.4-1 8.8 8.8 0 0 0-.9 0 1.8 1.8 0 0 1-1-.4 4.9 4.9 0 0 1-1.1-1.4 4.7 4.7 0 0 0-.9-1.1 3.6 3.6 0 0 0-1.8-1h-.8Z"/><path fill="#263238" d="M428.6 244.7a1.5 1.5 0 0 1 .8-.1 3.5 3.5 0 0 1 2.1.7c.8.6 1.2 1.8 2 2.5a1.4 1.4 0 0 0 .7.2 7 7 0 0 1 1 0 2.6 2.6 0 0 1 1.8 1.3 6.2 6.2 0 0 1 .7 2 5.9 5.9 0 0 0 .2 1 1.2 1.2 0 0 0 .5.5 6.2 6.2 0 0 1 1.3 1.1 4 4 0 0 1 .8 1.3 4.1 4.1 0 0 1 .2 2.3c0 .5-.2.7-.3.7a6.8 6.8 0 0 1 .1-.8 4.4 4.4 0 0 0-.3-2 4 4 0 0 0-.8-1.2 6.2 6.2 0 0 0-1.3-1 1.7 1.7 0 0 1-.7-.8 5.7 5.7 0 0 1-.2-1 6 6 0 0 0-.7-1.8 2 2 0 0 0-1.3-1 6.9 6.9 0 0 0-1 0 1.9 1.9 0 0 1-1-.4 4.7 4.7 0 0 1-1.1-1.4 5 5 0 0 0-.9-1.1 3.7 3.7 0 0 0-1.8-1 6.4 6.4 0 0 1-.8 0ZM341.6 156.5c11.2-9.6 23-5.3 23-5.3 14.8-4.8 27.5 4.9 32.6 13l5 10.8c-9.1 15-27.3 24.3-44.6 27.9a28 28 0 0 1-16.1-.6c-5.8-2.3-8.4-7-10.2-12.9 0 0-1-23.3 10.3-32.9Z"/><path fill="#ffbe9d" d="M372.9 159.4c10-1.3 23.1 11 24 21.2.9 11.3 1.6 25.1.4 33.6-2.4 17-15.3 19.4-15.3 19.4l.3 17.7-38-1.4-2.1-75.8-.2-5.5Z"/><path fill="#263238" d="M389.3 192.8a2.2 2.2 0 0 1-2.1 2.3 2 2 0 0 1-2.3-2 2.2 2.2 0 0 1 2-2.2 2 2 0 0 1 2.4 2ZM393.4 187.9c-.2.3-2-1-4.3-.9s-4 1.3-4.3 1c0-.1.2-.6 1-1.2a6 6 0 0 1 3.4-1.1 5.7 5.7 0 0 1 3.4 1c.7.5 1 1 .8 1.2ZM366 193.7a2.2 2.2 0 0 1-2 2.2 2 2 0 0 1-2.3-1.9 2.2 2.2 0 0 1 2-2.2 2 2 0 0 1 2.3 1.9ZM370.4 188.7c-.2.3-2-.8-4.3-.8s-4 1.3-4.3 1c0-.1.2-.6 1-1.2a6 6 0 0 1 3.4-1.1 5.7 5.7 0 0 1 3.4 1c.7.5 1 1 .8 1.1ZM379.2 206a16 16 0 0 1 3.8-.8c.6 0 1.2-.2 1.3-.6a3 3 0 0 0-.4-1.8l-1.9-4.5c-2.6-6.5-4.5-11.7-4.2-11.8s2.6 5 5.2 11.4l1.7 4.6a3.5 3.5 0 0 1 .4 2.3 1.6 1.6 0 0 1-1 .9 4.1 4.1 0 0 1-1 .2 15.7 15.7 0 0 1-3.9 0Z"/><path fill="#eb996e" d="M382 233.6a45 45 0 0 1-23.4-5.6s6.2 11.7 23.7 9.8ZM378.4 211.6a4.2 4.2 0 0 0-3.8-1.5 3.8 3.8 0 0 0-2.7 1.5 2.5 2.5 0 0 0-.1 2.8 2.8 2.8 0 0 0 3 .7 9 9 0 0 0 3-1.8 2.5 2.5 0 0 0 .7-.8.8.8 0 0 0 0-.8"/><path fill="#263238" d="M378.3 216.3c-.4.2-1.2-2.3-3.8-3.3s-5.1.1-5.3-.2c0-.1.5-.7 1.5-1a6.3 6.3 0 0 1 4.4 0 5.5 5.5 0 0 1 3 2.9c.4.9.3 1.6.2 1.6ZM360.2 180.2c.1-.7 2.5-.8 5.1-1.6s4.7-1.9 5.2-1.4c.2.3 0 1-.9 1.7a9 9 0 0 1-3.6 2 8.9 8.9 0 0 1-4.2.2c-1-.2-1.6-.6-1.6-1ZM385.2 177.5c.6-.4 2 .8 4.1 1.6s3.9 1.1 4.1 1.8c0 .3-.4.7-1.3.9a7 7 0 0 1-6.6-2.8c-.6-.8-.6-1.4-.3-1.5Z"/><path fill="#263238" d="M327.6 222.6c1.4-9 1.3-18.3 1.8-27.4s1.5-18.4 5.3-26.8 10.6-15.6 19.4-18.2c8.3-2.3 18.3.6 23 7.8a58.8 58.8 0 0 0-26.4 41.2c1 6.2 2.8 14.6 3.3 20.5.7 9.1-1.5 18.4-.7 27.5.6 7.4 3.1 14.6 2.6 22-.3 5-2 9.6-2.8 14.5s-.8 10.1 2 14.2c-5.6-2-8.8-8-9.9-13.8a51.3 51.3 0 0 1-.5-10.2c-1.9 10.5-3 21-.5 31.4-5.7-.2-12.3-.8-15.8-5.3-1.7-2.2-2.3-5-3-7.8l-3.4-15a83.2 83.2 0 0 1-2.2-12c-1.1-14.5 5.4-28.3 7.8-42.6ZM377.8 159.2a13.2 13.2 0 0 0-.7-1.2l.1-.1Z"/><path fill="#eb996e" d="M362.7 197.4a12.4 12.4 0 0 0 3.3 1 12.2 12.2 0 0 0 3.3-.6s-.3.4-.9.6a5.7 5.7 0 0 1-4.9-.3c-.6-.3-.8-.6-.8-.7ZM387 196.7a27.3 27.3 0 0 0 2.9.3 26.7 26.7 0 0 0 2.8-.4 4.7 4.7 0 0 1-5.6.1ZM388.7 198.3l1.6-.2 1.6-.2c0 .1-.6.6-1.5.7s-1.7-.1-1.7-.3ZM362.8 199.8a19.2 19.2 0 0 1 2.4.2 17.8 17.8 0 0 1 2.4 0 5 5 0 0 1-4.8-.1ZM367.4 214c-.1.1-.5-.4-.4-1s.6-1.1.7-1-.1.5-.2 1 0 1 0 1ZM374 175.3c0-.2 1.4.3 3.2.3s3.2-.4 3.3-.2a7 7 0 0 1-6.5-.1Z"/><path fill="#263238" d="m299.6 261.2-.2-.8a3.5 3.5 0 0 1 .7-2c.6-1 1.7-1.4 2.3-2.3a1.4 1.4 0 0 0 .2-.7v-1a2.6 2.6 0 0 1 1.2-1.8 6.4 6.4 0 0 1 2-.9 5.5 5.5 0 0 0 .9-.2 1.2 1.2 0 0 0 .5-.5 6.3 6.3 0 0 1 1-1.4 4 4 0 0 1 1.3-.9 4.1 4.1 0 0 1 2.2-.3 1.7 1.7 0 0 1 .8.2 4.7 4.7 0 0 1-.8 0 4.3 4.3 0 0 0-2 .5 4 4 0 0 0-1.2.8 6.4 6.4 0 0 0-.9 1.4 1.7 1.7 0 0 1-.7.7 7.3 7.3 0 0 1-1 .3 6 6 0 0 0-1.8.7 2 2 0 0 0-1 1.5v1a1.9 1.9 0 0 1-.3 1 4.8 4.8 0 0 1-1.4 1.1 4.8 4.8 0 0 0-1 1 3.6 3.6 0 0 0-.8 1.8v.8Z"/><path fill="#263238" d="m298 259.2-.2-.8a3.5 3.5 0 0 1 .7-2.1c.6-.8 1.7-1.3 2.3-2.2a1.4 1.4 0 0 0 .2-.7v-1a2.6 2.6 0 0 1 1.2-1.8 6.4 6.4 0 0 1 2-.9 5.5 5.5 0 0 0 .9-.2 1.3 1.3 0 0 0 .5-.5 6.3 6.3 0 0 1 1-1.4 4 4 0 0 1 1.3-.9 4.1 4.1 0 0 1 2.2-.3 1.7 1.7 0 0 1 .8.2 6.5 6.5 0 0 1-.8 0 4.3 4.3 0 0 0-2 .5 4 4 0 0 0-1.2.8 6.2 6.2 0 0 0-.9 1.4 1.7 1.7 0 0 1-.7.7 6 6 0 0 1-1 .3 6.2 6.2 0 0 0-1.8.7 2 2 0 0 0-1 1.5v1a2 2 0 0 1-.3 1 4.8 4.8 0 0 1-1.4 1.1 4.8 4.8 0 0 0-1 1 3.6 3.6 0 0 0-.8 1.8v.8ZM398.8 160.7a3.7 3.7 0 0 1 .1.8 7.7 7.7 0 0 0 .6 2.2 2.8 2.8 0 0 0 1 1.1c.5.3 1.1.4 1.7.8a2.7 2.7 0 0 1 1 2v2.1a3.5 3.5 0 0 0 .7 2 6.8 6.8 0 0 0 1.4 1.2 4.6 4.6 0 0 1 2 3 4.5 4.5 0 0 1-.2 2.3l-.4.8a6.6 6.6 0 0 1 .2-.8 4.6 4.6 0 0 0 0-2.3 4.3 4.3 0 0 0-1.8-2.6 6.8 6.8 0 0 1-1.6-1.3 4 4 0 0 1-.7-2.2v-2.2a2.2 2.2 0 0 0-.9-1.6c-.4-.4-1-.5-1.6-.8a3 3 0 0 1-1-1.3 6.4 6.4 0 0 1-.6-2.4 2.3 2.3 0 0 1 0-.8ZM395.1 158a.3.3 0 0 1 .4 0 .3.3 0 0 1 0 .5.3.3 0 0 1-.4 0 .3.3 0 0 1 0-.4ZM407 184.8c-.1.1-.5-.4-.6-1.2s0-1.4.2-1.3.2.5.3 1.2.2 1.3.1 1.3ZM298.3 345.7a15.8 15.8 0 0 0 .9 3.2 10 10 0 0 0 2 3 16.4 16.4 0 0 0 3.9 2.5 7.1 7.1 0 0 1 1.9 1.5c.5.6.8 1.3 1.3 1.8a7.9 7.9 0 0 0 3 2l3.2 1a2.8 2.8 0 0 1-.9 0 17 17 0 0 1-2.4-.7 7.8 7.8 0 0 1-3.3-2l-1.3-1.7a6.6 6.6 0 0 0-1.8-1.4l-2-1.2a9.6 9.6 0 0 1-1.8-1.4 9.8 9.8 0 0 1-2.2-3.2 8.4 8.4 0 0 1-.6-2.5 2.3 2.3 0 0 1 0-1ZM295.8 342.2s.4 0 .6.5 0 .8-.2.8-.2-.3-.3-.6-.2-.5-.1-.7ZM315.8 361.6c0-.1.4-.3 1-.3s1 .4 1 .5h-1c-.6 0-1 0-1-.2Z"/><path fill="#ffbe9d" d="M422.8 330.5s7-.4 9 1 2 5 2 5v1.6a6.9 6.9 0 0 1-.3 4.3c-1 2.4-4.8 1.2-4.8 1.2s2.9.7 2.6 3.2a3.1 3.1 0 0 1-2.6 2.8 4 4 0 0 1 .2 2.5 3.4 3.4 0 0 1-3 2.2l-4.2.5s-15.9 2.7-19.3 2-10.2-3-10.2-3l-1.8-19Z"/><path fill="#ffbe9d" d="M390.3 334.9s-30.5 2.5-43.8-3.1l-9 26.5s51.9-2.7 54.6-4.5-1.8-18.9-1.8-18.9Z"/><path fill="#d8b4a1" d="M422.2 347.6a9.4 9.4 0 0 1 3.4.5 5.7 5.7 0 0 1 3 1.5c0 .2-1.4-.6-3.2-1a14.4 14.4 0 0 1-3.2-1ZM422 342.1l1-.2a11 11 0 0 1 2.6 0 5.2 5.2 0 0 1 2.3.9c.6.4.8.7.7.8s-.3-.2-.9-.5a6.8 6.8 0 0 0-2.2-.7l-2.4-.2h-1ZM421 335.8s0-.2.3-.4a2.4 2.4 0 0 1 1.4-.6 7.8 7.8 0 0 1 2.2.2l2.6.5a21.2 21.2 0 0 1 4.5 1.5 4.2 4.2 0 0 1 1.7 1.1l-1.8-.8a29.9 29.9 0 0 0-4.5-1.3l-2.6-.5a8.4 8.4 0 0 0-2-.3 2.7 2.7 0 0 0-1.8.6Z"/><path fill="#ffbe9d" d="M409.4 297s-17.7-34.5-20.2-48.6l-13.5 2.3 8.4 63.8Z"/><path fill="#ffbe9d" d="m389.1 248.7.7-3.8 6.1-16.1a4.8 4.8 0 0 0 .2-2.9l-2.4-9.8a6 6 0 0 0-4.6-4.4c-3.4-.7-8-1.5-9.1-.3-1.7 1.8-1 3-1 3s-4.5 1-4.5 3.3c0 0-3.4 1.8-3.1 3.1s1.5 5.8 2.8 5.5a2.6 2.6 0 0 0 1.8-1l.8 2.8-.8 4.7s-3 10-2.4 12.7a45.7 45.7 0 0 0 2.4 6.6"/><path fill="#eb996e" d="M376 252.2a1.8 1.8 0 0 1-.2-.3 18 18 0 0 1-.4-1c-.4-.9-.9-2.1-1.4-3.8a7.9 7.9 0 0 1-.6-2.9 23 23 0 0 1 .5-3.4c.4-2.4 1-5.1 2-8l.8-4.8v.1l-.9-2.8h.5a2.6 2.6 0 0 1-1.4 1 2 2 0 0 1-.9.1 1.4 1.4 0 0 1-.7-.5 9.2 9.2 0 0 1-1.5-3l-.5-1.6v-.4a1.3 1.3 0 0 1 0-.5 2 2 0 0 1 .3-.9 10.2 10.2 0 0 1 3-2.1l-.2.2a3 3 0 0 1 1.7-2.4 10.7 10.7 0 0 1 2.8-1.2l-.1.4a2.4 2.4 0 0 1 0-1.8 5.1 5.1 0 0 1 1-1.5 3 3 0 0 1 2-.7 12.8 12.8 0 0 1 2 0 38 38 0 0 1 3.9.6l1.8.3a6.3 6.3 0 0 1 1.8.8 6.3 6.3 0 0 1 2.4 2.7 9 9 0 0 1 .5 1.8l.4 1.6.9 3.3.7 3.2.4 1.5a5 5 0 0 1 0 1.6 8 8 0 0 1-.5 1.4l-.5 1.4-1 2.6-2 4.8-2.7 7-.5 2.8-.2.7a2.3 2.3 0 0 1 0 .3.7.7 0 0 1 0-.3v-.7l.5-2.8 2.6-7 1.7-4.7 1-2.6.5-1.3a6.9 6.9 0 0 0 .5-1.4 4.7 4.7 0 0 0 0-1.5l-.4-1.5-.8-3.1-.8-3.3-.4-1.6a9.2 9.2 0 0 0-.5-1.7 5.6 5.6 0 0 0-2.3-2.5 9.6 9.6 0 0 0-3.4-1 35.4 35.4 0 0 0-3.7-.6 15 15 0 0 0-2 0 2.6 2.6 0 0 0-1.6.6 4.5 4.5 0 0 0-.8 1.3 2 2 0 0 0-.1 1.3v.3l-.2.1a10.3 10.3 0 0 0-2.7 1.1 2.7 2.7 0 0 0-1.5 2v.2h-.1a9.8 9.8 0 0 0-2.7 2 1.5 1.5 0 0 0-.4.7 1.7 1.7 0 0 0 .1.7l.5 1.6a9.2 9.2 0 0 0 1.3 2.8 1 1 0 0 0 .5.4 1.8 1.8 0 0 0 .7-.2 2.3 2.3 0 0 0 1-.7l.4-.5.1.5.8 2.9-.8 4.7c-.9 3-1.6 5.6-2 8a24.7 24.7 0 0 0-.5 3.4 8 8 0 0 0 .5 2.8l1.3 3.8.4 1a1.4 1.4 0 0 1 .1.2Z"/><path fill="#eb996e" d="M374.4 217.7a4.4 4.4 0 0 1 1.7-.5 4.2 4.2 0 0 1 2 0 3.5 3.5 0 0 1 1.9 1.8 31.7 31.7 0 0 1 2.4 5.6 42 42 0 0 1-2.8-5.3 3 3 0 0 0-1.6-1.5 4.2 4.2 0 0 0-1.8-.2 12.3 12.3 0 0 1-1.8.1ZM375 222l.7 2 .6 2c-.1 0-.7-.8-1-2a3.6 3.6 0 0 1-.4-2Z"/><path fill="#eb996e" d="m373.3 222.3 1 .7c.6.3 1 .3 1 .5s-.6.4-1.3 0-.9-1.1-.7-1.2ZM388.3 224.7a37.2 37.2 0 0 0-2.3-7.8 3.6 3.6 0 0 0-2-2.3 5.6 5.6 0 0 0-2.4 0 4.9 4.9 0 0 1-2.5 0l2.4-.4a5.5 5.5 0 0 1 2.7 0 3 3 0 0 1 1.4 1 6.4 6.4 0 0 1 .9 1.5 21.5 21.5 0 0 1 1.7 5.6 7.8 7.8 0 0 1 0 2.4ZM389.4 211.8s.7 0 1.4 1a14.4 14.4 0 0 1 1.7 4 22.1 22.1 0 0 1 1.2 5.9c-.2 0-.8-2.6-1.7-5.8a19 19 0 0 0-1.5-3.9 4.6 4.6 0 0 0-1.1-1.2ZM388.5 232.9c0-.2 1-.7 1.8-2a11.3 11.3 0 0 0 1-2.4s.2.3.1.8a4.1 4.1 0 0 1-.6 2 4.2 4.2 0 0 1-1.5 1.4l-.8.2ZM381.3 232.6c0-.1 1-.3 1.8-1.2s1-2 1.2-2 0 .4 0 .8a3.2 3.2 0 0 1-2.3 2.4h-.7Z"/><path fill="#263238" d="m428.6 324.2.6-.6a4.2 4.2 0 0 0 .5-2.4v-1.8a4 4 0 0 1 .5-2 4.4 4.4 0 0 1 1.8-1.4c.7-.3 1.3-.7 1.5-1.4s0-1.6.1-2.4a10 10 0 0 1 .6-2.2 26 26 0 0 0 1.3-3.5 5.8 5.8 0 0 0 0-2.4c0-.6-.2-1-.2-1a1.9 1.9 0 0 1 .5 1 5.4 5.4 0 0 1 0 2.5 22.8 22.8 0 0 1-1.1 3.6 10.2 10.2 0 0 0-.6 2l-.1 2.5a2 2 0 0 1-.7 1.1 4.9 4.9 0 0 1-1 .7 3.9 3.9 0 0 0-1.7 1.2 3.7 3.7 0 0 0-.5 1.8v1.7a4.2 4.2 0 0 1-.8 2.5c-.4.5-.7.5-.7.5ZM282.2 374.5s3 7.4.8 14.8-10.6 23.4-10.6 23.4l-3 53H168.5l-9-93.5Z"/><path fill="#455a64" d="M189.3 466.1a3.9 3.9 0 0 1-.2-.7l-.4-2.1-1.3-7.9c-1-6.6-2.3-15.8-3.4-26l-2.7-26-.8-8-.2-2.2a3.5 3.5 0 0 1 0-.7 5.6 5.6 0 0 1 .1.7l.3 2.2 1 7.9 2.9 26c1 10 2.3 19.5 3.2 26l1.2 8 .3 2a5.1 5.1 0 0 1 0 .8Z"/><path fill="#ffbe9d" d="m215.4 76.3-1.7.1a31.6 31.6 0 0 0-30.2 30.3c-.7 15.3-1.1 32.3-.7 40.5 1 17 18 18.9 18 18.9l-.3 22 39.8 4.8 1.6-83.4c.8-17.7-8.8-32.9-26.5-33.2Z"/><path fill="#263238" d="M240.9 136.4c2.2-6.7 4.5-13.4 5.5-20.4s1-14.3-1.4-20.9c-.3-1-3.4-7.7-4.5-7.7-.7.1 1.1 6.4.7 7a36.2 36.2 0 0 0-4.3 21.1 95.5 95.5 0 0 0 4 20.9"/><path fill="#eb996e" d="M200.8 166a41 41 0 0 0 21.8-7.4s-4.9 12.6-21.8 11.8Z"/><path fill="#263238" d="M187.3 118.4a2.4 2.4 0 0 0 2.5 2.4 2.3 2.3 0 0 0 2.4-2.3 2.4 2.4 0 0 0-2.5-2.4 2.3 2.3 0 0 0-2.4 2.3ZM187.4 113.6c.3.3 2-1.1 4.7-1.2s4.5 1.1 4.8.8c.1-.2-.2-.7-1-1.3a6.7 6.7 0 0 0-4-1 6.4 6.4 0 0 0-3.7 1.4c-.7.6-1 1.2-.8 1.3ZM212.3 119.3a2.4 2.4 0 0 0 2.4 2.4 2.3 2.3 0 0 0 2.4-2.3 2.4 2.4 0 0 0-2.4-2.4 2.3 2.3 0 0 0-2.4 2.3ZM212.5 114.3c.3.3 2-1.1 4.7-1.2s4.5 1.1 4.8.8c.1-.2-.2-.7-1-1.3a6.7 6.7 0 0 0-4-1 6.4 6.4 0 0 0-3.7 1.4c-.8.6-1 1.2-.8 1.3ZM204.4 134c0-.1-1.6-.4-4.3-.6-.6 0-1.2-.1-1.4-.6a3.4 3.4 0 0 1 .4-2l1.7-5.1c2.5-7.4 4.2-13.4 4-13.5s-2.6 5.8-5 13.1l-1.7 5.2a3.8 3.8 0 0 0-.2 2.6 1.7 1.7 0 0 0 1 1 4.8 4.8 0 0 0 1.2 0c2.7.1 4.3 0 4.3-.1ZM212.2 135.5c-.5 0-.4 2.9-2.7 5s-5.4 1.9-5.4 2.3c0 .1.7.5 2 .5a7 7 0 0 0 4.5-1.8 6.1 6.1 0 0 0 2-4.1c0-1.2-.3-1.9-.4-1.9ZM212 104.1c.3.7 2.9.3 6 .5s5.5 1 6 .4c.1-.4-.4-1-1.4-1.7a10.4 10.4 0 0 0-9-.6c-1.2.5-1.8 1.1-1.6 1.4ZM188.6 105.8c.5.5 2.3-.2 4.4-.3s4 .3 4.4-.4c.2-.3-.1-.9-1-1.4a6.2 6.2 0 0 0-3.6-.8 6.1 6.1 0 0 0-3.5 1.3c-.7.7-.9 1.3-.7 1.6Z"/><path fill="#ffbe9d" d="M238.7 121c.3 0 11.6-3.8 11.7 7.8s-11.6 9.3-11.6 9V121Z"/><path fill="#eb996e" d="m242.3 133.3.5.3a2 2 0 0 0 1.5 0c1.3-.4 2.3-2.4 2.3-4.5a6.7 6.7 0 0 0-.6-2.9 2.4 2.4 0 0 0-1.5-1.5 1 1 0 0 0-1.2.6c-.2.3 0 .5-.1.5s-.3-.1-.2-.6a1.3 1.3 0 0 1 .4-.8 1.5 1.5 0 0 1 1.2-.3 2.8 2.8 0 0 1 2 1.8 6.8 6.8 0 0 1 .8 3.2c0 2.4-1.2 4.6-2.9 5a2.2 2.2 0 0 1-1.8-.2c-.4-.3-.5-.6-.4-.6Z"/><path fill="#263238" d="M191 87.5c-1.9-1 3.8-7.1 8.4-9.2 7-3.2 17.6-5.1 24-3.3 7.8 2.2 14.2 6 18.1 13s5.4 15.3 5.1 23.4c0 2.4-.3 5-1.6 7-1.6 2.6-4.7 4.3-4.6 7.8a4.9 4.9 0 0 1-1.2 3.5c-2.1 2.3-4.7.2-5.9-2-2.6-4.5-2.8-10-3-15.1-.2-3.7-.4-7.5.7-11 .5-2 1.4-3.8 1.9-5.8a5.8 5.8 0 0 0-1.8-6.7 12.1 12.1 0 0 0-12-2.3 45 45 0 0 1-19.9 2.2c-5.2-1-5.9-3.9-5.9-3.9ZM193.3 179.3a3.8 3.8 0 0 1 .2.7l.5 2.2 1.6 8v.2l-4.9 10.6-6.2 12.8-11.5 23.5-3.6 7.1-1 2a3.1 3.1 0 0 1-.4.6 2.4 2.4 0 0 1 .2-.7l.9-2 3.4-7.2c2.8-6.1 6.8-14.5 11.3-23.7l6.2-12.8 5-10.5v.2l-1.3-8.1-.4-2.2a2.6 2.6 0 0 1 0-.7Z"/><path fill="#455a64" d="M170 243.7c-5.5 11.9-16.5 30-20.1 37.7-21.3 45.6 7.5 98.3 7.5 98.3l127.3 2.5-8.9-84s5.2-58.2 2.4-79.6c-3.3-25.4-23-48.8-25.8-49.5l-3.1-7.7a19.8 19.8 0 0 0-12-2.8c-6.9.7-44 20.7-44 20.7l1.7 9.3"/><path fill="#263238" d="M252.4 169.1a33.7 33.7 0 0 0-9.6.8 43.2 43.2 0 0 0-9.7 3.7l-11.6 5.6-20 9.4h-.4l-5-6.3a20 20 0 0 1-1.8-2.3 17.7 17.7 0 0 1 2 2.1l5.2 6h-.3c5.2-2.6 12.2-6 20-9.6l11.6-5.5a41.8 41.8 0 0 1 9.9-3.6 25.8 25.8 0 0 1 7-.6 18.9 18.9 0 0 1 2 .2 2.1 2.1 0 0 1 .7.1Z"/><path fill="#ffbe9d" d="m243 262.8-1.7 17.8L207 382.4l-20.9 3.4 17.8-129.4 39.1 6.4z"/><path fill="#ffbe9d" d="m208.1 375.5 1 17-1.5 4.5 2.8 3.5 5.5.7s1.7 2.4-.2 4a7.5 7.5 0 0 1-5 1.6s0 3.2-1.3 3.8a8 8 0 0 1-3.7.6s.9 2.9-.3 3.4-9 .8-9 .8h-6.9c-.4 0-2.7-5.5-2.7-5.5s-5.1.2-5.2-2.7 1.4-1.5 2.2-5 2-18.7 2-18.7l3.5-14Z"/><path fill="#eb996e" d="m200.3 396.6.7 2.3a11 11 0 0 0 8.2 7.2l2.4.4a4.6 4.6 0 0 1-2.5.2 10.1 10.1 0 0 1-8.6-7.6 4.6 4.6 0 0 1-.2-2.5ZM194.3 400.3a21.3 21.3 0 0 1 .8 2.3 13.7 13.7 0 0 0 8.3 7.8 21 21 0 0 1 2.3.8 5 5 0 0 1-2.5-.3 12.3 12.3 0 0 1-8.6-8 4.9 4.9 0 0 1-.3-2.6ZM189.5 400.7a9.2 9.2 0 0 1 .4 2.5 25.6 25.6 0 0 0 1.2 5.9 12.1 12.1 0 0 0 3.2 4.9c1.2 1 2 1.3 2 1.4a4 4 0 0 1-2.4-1 10.9 10.9 0 0 1-3.6-5 19.5 19.5 0 0 1-1-6.1 7 7 0 0 1 .2-2.6ZM186.8 409.9c-.2 0-1-4.5-1.4-10s-.3-10.1 0-10.1.3 4.5.8 10 .8 10 .6 10Z"/><path fill="#455a64" d="m257.8 213.2-7.4 50.6-50.8-7.5 6.3-51.3a25.6 25.6 0 0 1 11.6-18.7 23.3 23.3 0 0 1 16.6-3.2 38.1 38.1 0 0 1 7.3 2 26 26 0 0 1 16.3 28Z"/><path fill="#263238" d="M236.3 183.5a2.3 2.3 0 0 1 .4 0l1.4.3a26.6 26.6 0 0 1 5 1.5 23.6 23.6 0 0 1 7 4.6 25.3 25.3 0 0 1 6.2 9.3 27.6 27.6 0 0 1 1.5 13.4l-2.1 15.5-5 35.7v.4h-.4l-9-1.3-42.1-6.1h-.3v-.4a266.4 266.4 0 0 1 8-53.5l.8-3 .2-.7.2-.3v.3l-.2.8-.8 3a225.3 225.3 0 0 0-5.6 29.8c-.8 7.1-1.4 15-1.9 23.7l-.3-.4 42.1 6 9 1.3-.5.3 5-35.7 2.2-15.5a27.1 27.1 0 0 0-1.3-13.1 25 25 0 0 0-6-9.2 24 24 0 0 0-6.9-4.6 28.5 28.5 0 0 0-5-1.7l-1.3-.3a2.5 2.5 0 0 1-.3 0ZM715.6 465.7c0 .1-152.5.2-340.6.2s-340.6 0-340.6-.2 152.5-.3 340.6-.3 340.6.1 340.6.3Z"/><circle cx="454.7" cy="118.5" r="38.5" fill="#fafafa" transform="rotate(-67 454.7 118.5)"/><path fill="#263238" d="m431.2 161.7-.4-1a5.2 5.2 0 0 0-2.3-2.1 4.8 4.8 0 0 0-2-.6 4.2 4.2 0 0 0-2.3.7 4.6 4.6 0 0 0 1.4 8.5 4.2 4.2 0 0 0 2.4-.1 4.9 4.9 0 0 0 1.7-1.1 5.1 5.1 0 0 0 1.5-2.7V162a1 1 0 0 1 .1.3 1.3 1.3 0 0 1 0 .4 3.1 3.1 0 0 1 0 .5 5 5 0 0 1-1.4 2.8 4.9 4.9 0 0 1-1.8 1.3 4.4 4.4 0 0 1-2.6.1 5.3 5.3 0 0 1-2.5-1.3 4.6 4.6 0 0 1-.9-5.7 5.2 5.2 0 0 1 2-2 4.5 4.5 0 0 1 2.4-.8 5.1 5.1 0 0 1 2.2.6 5 5 0 0 1 2.2 2.3 3.3 3.3 0 0 1 .2.5 2.1 2.1 0 0 1 0 .3 1 1 0 0 1 .1.3ZM420.4 175l-.3-.6a3.3 3.3 0 0 0-1.4-1.3 2.7 2.7 0 0 0-2.7.1 2.8 2.8 0 0 0 .9 5.3 2.7 2.7 0 0 0 2.6-.8 3.2 3.2 0 0 0 .9-1.7v-.7a1.7 1.7 0 0 1 0 .8 3.3 3.3 0 0 1-2 2.6 2.9 2.9 0 0 1-1.6 0 3.1 3.1 0 0 1-1-5.8 2.8 2.8 0 0 1 1.7-.4 3.3 3.3 0 0 1 2.7 1.8 1.3 1.3 0 0 1 .2.8ZM455.7 157.2l.6-.1 1.8-.2h1.4l1.6-.4 1.9-.3a6.3 6.3 0 0 0 1-.2l1-.4a36.9 36.9 0 0 0 10.2-4.5 38.3 38.3 0 0 0 10.7-10l1.2-1.7 1-1.9.6-.9a6.9 6.9 0 0 0 .5-1l.9-2 .4-1 .4-1 .7-2.3.6-2.2.3-1.2v-.6l.2-.6a37 37 0 0 0 .4-4.9v-2.5l-.2-2.5-.1-1.3-.2-1.3-.5-2.6a39.6 39.6 0 0 0-1.7-5l-.5-1.3-.2-.7-.3-.6-1.3-2.4-1.5-2.4-.7-1.2-.9-1a43.7 43.7 0 0 0-3.8-4.3l-2.2-2-.6-.4-.6-.5-1.2-.8-1.2-.9-1.3-.7-1.3-.8-.6-.3-.7-.3-2.7-1.3-2.9-1a38.2 38.2 0 0 0-24.3.6l-2.8 1.2-2.7 1.3-.6.4-.7.4-1.2.8-1.3.8-1.1.9-1.2.9-.6.5-.4.5-2.1 2a45.9 45.9 0 0 0-3.6 4.5l-.8 1.1-.8 1.2-1.3 2.4-1.2 2.6-.2.6-.3.6-.4 1.3a40.2 40.2 0 0 0-1.4 5.2l-.3 2.6-.2 1.3v1.3l-.1 2.5.1 2.5a35.2 35.2 0 0 0 .7 4.9l.1.6.2.6.3 1 .7 2.4.8 2 .4 1.2.5 1 1 2a9.6 9.6 0 0 0 .6.9l.6.9 1.1 1.8 1.3 1.6a38.5 38.5 0 0 0 11.2 9.5l1.4.8 1.4.7 1.3.6c.3 0 .5.2.7.3l.7.2 2.5.9 2.4.5 1 .3a6.5 6.5 0 0 0 1 .2l2 .3 1.5.1h1.4l1.8.1h.7-3.9l-1.6-.2-2-.2a6.5 6.5 0 0 1-1-.2l-1-.2-2.4-.6-2.5-.9-.7-.2-.7-.3-1.3-.6-1.5-.6-1.4-.8a38.4 38.4 0 0 1-11.2-9.6l-1.3-1.6-1.2-1.8-.6-.9a6.9 6.9 0 0 1-.5-1l-1-2-.5-1-.5-1-.8-2.2-.7-2.3-.3-1.1-.2-.6v-.6a34 34 0 0 1-.8-5l-.2-2.4.1-2.6v-1.3l.2-1.3.3-2.6a41 41 0 0 1 1.4-5.2l.4-1.3.3-.7.3-.6 1.1-2.6c.4-.9 1-1.6 1.4-2.4a13.6 13.6 0 0 1 .7-1.2l.8-1.2a42.7 42.7 0 0 1 3.7-4.5l2-2 .6-.5.6-.5 1.2-.9 1.1-1 1.3-.7 1.3-.8.6-.4.7-.4 2.7-1.4 2.9-1.1a38.4 38.4 0 0 1 24.4-.6l3 1 2.7 1.2.7.4.7.3 1.3.8 1.3.7 1.2.9 1.2.8.6.5.5.5 2.3 1.9a43.3 43.3 0 0 1 3.8 4.3l.9 1.1.8 1.2 1.5 2.4 1.3 2.5.3.6.2.6.5 1.3a42 42 0 0 1 1.7 5.1l.4 2.6.3 1.3v1.3l.3 2.6v2.5a36.1 36.1 0 0 1-.5 5v.5a5.6 5.6 0 0 1-.2.6l-.3 1.2-.5 2.3-.8 2.2-.3 1-.5 1-1 2a6.9 6.9 0 0 1-.4 1l-.6 1-1 1.9-1.3 1.7a38.8 38.8 0 0 1-10.7 10 36.6 36.6 0 0 1-10.3 4.5l-1 .3a6.3 6.3 0 0 1-1 .3l-2 .3-1.6.3h-1.3l-1.8.2Z"/><path fill="#455a64" d="M457.7 118.2a8.6 8.6 0 0 0 5.2-8 8 8 0 1 0-16.2 0 8.6 8.6 0 0 0 5.2 8c-12.4 1.9-11.9 15.4-11.9 15.4l29.4.1s.6-13.6-11.7-15.5Z"/><path fill="#455a64" d="M473 109.8a4.3 4.3 0 0 0 2.6-4 4 4 0 1 0-8.1 0 4.3 4.3 0 0 0 2.6 4c-6.2 1-6 7.6-6 7.6l14.7.1s.3-6.8-5.8-7.7ZM438.7 110.6a4.3 4.3 0 0 0 2.6-4 4 4 0 1 0-8.1 0 4.3 4.3 0 0 0 2.6 4c-6.3.9-6 7.6-6 7.6l14.7.1s.3-6.8-5.8-7.7Z"/><path fill="#263238" d="m421.9 98.4 1-1.7 65 42-1 1.7z"/></svg>