<svg xmlns="http://www.w3.org/2000/svg" viewBox="0 0 500 500" width="1280" height="1280"><path fill="#ebebeb" d="M0 382.4h500v.3H0zM416.8 398.5h33.1v.3h-33.1zM322.5 401.2h8.7v.3h-8.7zM396.6 389.2h19.2v.3h-19.2zM52.5 390.9h43.2v.3H52.5zM104.6 390.9h6.3v.3h-6.3zM131.5 395.1h93.7v.3h-93.7zM237 337.8H44a5.7 5.7 0 0 1-5.8-5.7V60.7A5.7 5.7 0 0 1 44 55H237a5.7 5.7 0 0 1 5.7 5.7v271.4a5.7 5.7 0 0 1-5.7 5.7ZM44 55.2a5.5 5.5 0 0 0-5.5 5.5V332a5.5 5.5 0 0 0 5.4 5.4H237a5.5 5.5 0 0 0 5.5-5.4V60.7a5.5 5.5 0 0 0-5.5-5.5ZM453.3 337.8h-193a5.7 5.7 0 0 1-5.8-5.7V60.7a5.7 5.7 0 0 1 5.7-5.7h193.1a5.7 5.7 0 0 1 5.7 5.7V332a5.7 5.7 0 0 1-5.7 5.7Zm-193-282.6a5.5 5.5 0 0 0-5.6 5.5V332a5.5 5.5 0 0 0 5.5 5.4h193.1a5.5 5.5 0 0 0 5.5-5.4V60.7a5.5 5.5 0 0 0-5.5-5.5Z"/><path fill="#ebebeb" d="M356.6 382.4h-8V94h8z"/><path fill="#f0f0f0" d="m297.2 129.8 97.3-4.2-.7-16.1-97.3 4.2-13.4 8.6 14.1 7.5zM290 180.1l96.5 13.3 2.2-16-96.5-13.2-14.7 6.1 12.5 9.8z"/><path fill="#f5f5f5" d="m342.4 210.1 67-4.5 14.2 7.1-13.1 9-66.6 4.5-1.5-16.1zM428.3 143l-97.4-1.4-.2 16.1 97.4 1.4 13.8-7.9-13.6-8.2z"/><path fill="#e6e6e6" d="M93 312.8h7.1v69.6H93zM169 312.8h7.1v69.6H169z"/><rect x="75.7" y="224.5" width="117.8" height="98.2" rx="3.9" fill="#f0f0f0"/><path d="M187.3 319H81.7a2.5 2.5 0 0 1-2.4-2.4v-86a2.4 2.4 0 0 1 2.4-2.4h105.6a2.4 2.4 0 0 1 2.5 2.4v86a2.5 2.5 0 0 1-2.5 2.5ZM81.7 229.3a1.4 1.4 0 0 0-1.4 1.4v86a1.4 1.4 0 0 0 1.4 1.4h105.6a1.4 1.4 0 0 0 1.4-1.4v-86a1.4 1.4 0 0 0-1.4-1.4Z" fill="#fafafa"/><path fill="#fafafa" d="m101.2 238.1-4.8-6.1-4.8 6.1h2.3v12.3h5v-12.3h2.3zM99.5 267l6.1-4.8-6.1-4.8v2.3H87.2v5h12.3v2.3zM93.3 278.3l-6.1 4.9 6.1 4.8v-2.3h12.3v-5H93.3v-2.4zM91.6 307.2l4.8 6.2 4.8-6.2h-2.3v-12.3h-5v12.3h-2.3zM112.6 237.4h69.3v2.4h-69.3zM112.6 242.6h55v2.4h-55zM112.6 258.4h69.3v2.4h-69.3zM112.6 263.6h55v2.4h-55zM112.6 279.3h69.3v2.4h-69.3zM112.6 284.6h55v2.4h-55zM112.6 300.3h69.3v2.4h-69.3zM112.6 305.6h55v2.4h-55z"/><path d="M144.8 126c0-8.1-4.7-10.8-8.3-11.3-5.8-.8-10 3.7-10 3.7s-3.2-10.8-14.7-10.8-15 11.8-15 11.8a14.8 14.8 0 0 0-11-2.5c-4.5.8-7.2 4-10.1 9.1ZM276.3 98.5c0-10.5-6-14-10.6-14.6-7.6-1-13 4.7-13 4.7s-4-13.8-19-13.8-19.4 15.1-19.4 15.1a19 19 0 0 0-14.2-3.2c-5.8 1-9.3 5.3-13 11.8ZM152.4 168s2.6-6.3 9-7a10.3 10.3 0 0 1 9.4 3.6s5-8.8 14.6-7.6c10.7 1.4 10 11.1 10 11.1Z" fill="#f0f0f0"/><ellipse cx="250" cy="420.2" rx="151.4" ry="11.3" fill="#f5f5f5"/><path d="M227.9 141.5a93.4 93.4 0 0 0-72-24.3C115 120.9 82.4 151 73 193.9c-8.7 39.4 3.1 93.7 60.7 130.9l-4.7 7.6 23-.5-10-20.7-4.1 6.8c-54-35-65.1-85.6-57-122.4 8.6-39.4 38.4-67 75.7-70.4a85.4 85.4 0 0 1 66 22.2c12.7 11.7 21 26.7 21 38.1h8c0-13.8-9.1-30.7-23.7-44Z" fill="#d8b4a1"/><path d="M227.9 141.5a93.4 93.4 0 0 0-72-24.3C115 120.9 82.4 151 73 193.9c-8.7 39.4 3.1 93.7 60.7 130.9l-4.7 7.6 23-.5-10-20.7-4.1 6.8c-54-35-65.1-85.6-57-122.4 8.6-39.4 38.4-67 75.7-70.4a85.4 85.4 0 0 1 66 22.2c12.7 11.7 21 26.7 21 38.1h8c0-13.8-9.1-30.7-23.7-44Z" fill="#fff" opacity=".7"/><path d="M414 259.8a96 96 0 0 1-53.4 74.3 109.3 109.3 0 0 1-45.4 9.7 111 111 0 0 1-17.5-1.4 88.3 88.3 0 0 1-55.4-30.5c-29-36-18.2-84.7 1.6-118.3l6.9 4C232.3 229 222 274 248.5 307c26.7 33.1 76 35 108.8 20 26-12 43.9-37.7 48.4-66a88.3 88.3 0 0 0 1-17.2 84.2 84.2 0 0 0-3-19.5c-4-14.3-16.7-27-31.4-23.5a22.4 22.4 0 0 0-16.7 24.7c1.3 9.7 9.6 17 17 20.4L369 253c-11.9-5.7-20-15.6-21.4-26.6a30.4 30.4 0 0 1 22.8-33.5c19.3-4.6 36 11.2 41 29.1a91.3 91.3 0 0 1 3 17.7 95.2 95.2 0 0 1-.6 20.1Z" fill="#263238"/><path d="M414 259.8a96 96 0 0 1-53.4 74.3 109.3 109.3 0 0 1-45.4 9.7 111 111 0 0 1-17.5-1.4 88.3 88.3 0 0 1-55.4-30.5c-29-36-18.2-84.7 1.6-118.3l6.9 4C232.3 229 222 274 248.5 307c26.7 33.1 76 35 108.8 20 26-12 43.9-37.7 48.4-66a88.3 88.3 0 0 0 1-17.2 84.2 84.2 0 0 0-3-19.5c-4-14.3-16.7-27-31.4-23.5a22.4 22.4 0 0 0-16.7 24.7c1.3 9.7 9.6 17 17 20.4L369 253c-11.9-5.7-20-15.6-21.4-26.6a30.4 30.4 0 0 1 22.8-33.5c19.3-4.6 36 11.2 41 29.1a91.3 91.3 0 0 1 3 17.7 95.2 95.2 0 0 1-.6 20.1Z" fill="#fff" opacity=".8"/><path d="M414 259.8a54.8 54.8 0 0 1-8.3 1.1 88.3 88.3 0 0 0 1-17.2 63 63 0 0 0 7.9-4 95.2 95.2 0 0 1-.7 20.1Z" opacity=".2"/><path d="m438.4 233.7-23-.7 4.4 7.2c-10 5.4-30 13.8-47.2 5.6-7.4-3.5-15.7-10.7-17-20.4l-8 1a36 36 0 0 0 21.5 26.6 44.5 44.5 0 0 0 19.3 4.2 77 77 0 0 0 35.4-10.1l4.4 7.3Z" fill="#263238"/><path d="m438.4 233.7-23-.7 4.4 7.2c-10 5.4-30 13.8-47.2 5.6-7.4-3.5-15.7-10.7-17-20.4l-8 1a36 36 0 0 0 21.5 26.6 44.5 44.5 0 0 0 19.3 4.2 77 77 0 0 0 35.4-10.1l4.4 7.3Z" fill="#fff" opacity=".8"/><path d="m420 122.6-13.5-18.5L395 124l8.4-.5c.7 15-19 20-23 20.8a191.6 191.6 0 0 1-21.3 2.7c-16.5 1.5-33.6 3.1-47.8 13.6a49.7 49.7 0 0 0-19.7 35 36 36 0 0 0 15 33 27.8 27.8 0 0 0 15.2 4.6 25.5 25.5 0 0 0 11-2.5 26.3 26.3 0 0 0 14.7-21.4 36.8 36.8 0 0 0-13.3-30.5L329 185a29 29 0 0 1 10.5 23.6 18 18 0 0 1-10 15 18.5 18.5 0 0 1-18.5-1.7 28.2 28.2 0 0 1-11.4-25.7 41.5 41.5 0 0 1 16.4-29c12.4-9.2 27.7-10.7 43.8-12.2a200.9 200.9 0 0 0 22.2-2.9c14.4-3 30.3-12.4 29.4-29Z" fill="#d8b4a1"/><path d="M411.5 123c.9 16.7-15 26-29.4 29a200.9 200.9 0 0 1-22.2 3c-16 1.5-31.3 3-43.7 12h-.1a41.3 41.3 0 0 0-11.6 13.5 39.6 39.6 0 0 0-4.8 15.7 28.2 28.2 0 0 0 11.4 25.7 18.5 18.5 0 0 0 18.4 1.6 18 18 0 0 0 10.1-15c.7-6-1.6-12.8-5.8-18.5 3.2-1.2 5.8-3.2 5.6-6 6 7.4 9 16.8 8.2 25.3a26.3 26.3 0 0 1-14.6 21.4 25.6 25.6 0 0 1-11 2.5 27.8 27.8 0 0 1-15.2-4.6 35.8 35.8 0 0 1-15-33 47.1 47.1 0 0 1 4.7-16.8 50.1 50.1 0 0 1 10.6-14.6 44.5 44.5 0 0 1 4.3-3.6c14.3-10.4 31.3-12 47.9-13.6a189.7 189.7 0 0 0 21.2-2.8c4.1-.8 23.8-5.7 23.1-20.7l-8.5.5 11.4-20 13.5 18.6Z" fill="#fff" opacity=".5"/><path d="M316.2 167h-.1a41.3 41.3 0 0 0-11.6 13.5 44.1 44.1 0 0 0-8.1-1.7 50.1 50.1 0 0 1 10.7-14.6 73.6 73.6 0 0 1 9.1 2.8Z" opacity=".2"/><path d="m347.6 209.3-8-.8A29 29 0 0 0 329 185c-20-17-55.9-11.8-75.5 3.6l-5-6.4c22.6-17.6 62.4-23.2 85.7-3.3a36.8 36.8 0 0 1 13.3 30.4Z" fill="#d8b4a1"/><path d="m347.6 209.3-8-.8A29 29 0 0 0 329 185c-20-17-55.9-11.8-75.5 3.6l-5-6.4c22.6-17.6 62.4-23.2 85.7-3.3a36.8 36.8 0 0 1 13.3 30.4Z" fill="#fff" opacity=".5"/><path d="M286.7 392.5c-37.3 0-74.7-16-98.9-44a127.7 127.7 0 0 1-30.1-83.4 122.9 122.9 0 0 1 4.7-33.1c3.4-11.9 8.9-19.4 16.1-27a73.2 73.2 0 0 1 62.2-22l-1 8a65.2 65.2 0 0 0-55.4 19.6 52.4 52.4 0 0 0-14.2 23.6 115 115 0 0 0-4.4 30.9c-.1 28.7 10.1 57.2 28.2 78 28.7 33.3 77 48.6 120.4 38.2a107 107 0 0 0 54.8-31.7 82 82 0 0 0 21.3-58.2 80.4 80.4 0 0 0-45.9-66 94.2 94.2 0 0 0-82 3 202 202 0 0 0-9.9 5.7c-7.3 4.4-14.9 8.9-23.5 11.3l-2.2-7.7c7.6-2.1 14.4-6.2 21.6-10.5 3.3-2 6.8-4 10.3-5.8 27.9-14.7 62-15.9 89-3.2a88.5 88.5 0 0 1 50.6 72.7 90.1 90.1 0 0 1-23.4 64 115.1 115.1 0 0 1-58.9 34.2 126 126 0 0 1-29.4 3.4Z" fill="#263238"/><path d="M375 355a115 115 0 0 1-59 34.1 125.4 125.4 0 0 1-29.3 3.4c-37.4 0-74.7-16-99-44a127.7 127.7 0 0 1-30-83.5 123.3 123.3 0 0 1 4-31l.7-2a57 57 0 0 1 7.6-16.6 78.6 78.6 0 0 1 8.5-10.3 73.2 73.2 0 0 1 62.2-22l-1 8a65.2 65.2 0 0 0-55.4 19.5A68.8 68.8 0 0 0 176 221a48.3 48.3 0 0 0-5.8 13.2c-.7 2.2-1.2 4.4-1.7 6.7a115.5 115.5 0 0 0-2.7 24.2c-.2 28.7 10 57.2 28.1 78.1 28.7 33.2 77.1 48.5 120.4 38.1a107 107 0 0 0 54.9-31.7 82 82 0 0 0 21.3-58.2 80.4 80.4 0 0 0-46-66 94.2 94.2 0 0 0-82 3 202 202 0 0 0-9.8 5.7c-7.4 4.4-15 9-23.5 11.4l-2.2-7.7a92.5 92.5 0 0 0 21.6-10.5l10.2-6c28-14.5 62-15.7 89.1-3a88.5 88.5 0 0 1 50.5 72.6c1.3 22.6-7.2 46-23.3 64Z" fill="#fff" opacity=".5"/><path d="M175.9 221a48.3 48.3 0 0 0-5.8 13.2c-.7 2.2-1.2 4.4-1.7 6.7a82.8 82.8 0 0 1-6.6-6.8l.6-2.1a57 57 0 0 1 7.6-16.6 80.4 80.4 0 0 0 5.9 5.6Z" opacity=".2"/><path d="M258.8 221.4c-3.5 1.8-7 3.9-10.3 5.9-7.2 4.3-14 8.3-21.5 10.5a57.6 57.6 0 0 1-49.6-11.8c-12.4-9.6-22.9-23.9-32-43.7-4.2-9.1-8-18.8-11.5-28a778 778 0 0 0-6.5-16.7c-5-12.4-13-20.8-23-24.4l3.8-7.6-22.8 2.8L97.2 128l3.7-7.5c10.8 3.4 16.5 13.7 19.1 20.2 2.3 5.4 4.4 11 6.5 16.4 3.6 9.4 7.3 19.2 11.6 28.5 9.7 21 21 36.3 34.4 46.8a69 69 0 0 0 41.8 15.1 54 54 0 0 0 14.9-2c8.5-2.4 16-7 23.4-11.3 3.2-2 6.6-4 10-5.7Z" fill="#263238"/><path d="M258.8 221.4c-3.5 1.8-7 3.9-10.3 5.9-7.2 4.3-14 8.3-21.5 10.5a57.6 57.6 0 0 1-49.6-11.8c-12.4-9.6-22.9-23.9-32-43.7-4.2-9.1-8-18.8-11.5-28a778 778 0 0 0-6.5-16.7c-5-12.4-13-20.8-23-24.4l3.8-7.6-22.8 2.8L97.2 128l3.7-7.5c10.8 3.4 16.5 13.7 19.1 20.2 2.3 5.4 4.4 11 6.5 16.4 3.6 9.4 7.3 19.2 11.6 28.5 9.7 21 21 36.3 34.4 46.8a69 69 0 0 0 41.8 15.1 54 54 0 0 0 14.9-2c8.5-2.4 16-7 23.4-11.3 3.2-2 6.6-4 10-5.7Z" fill="#fff" opacity=".5"/><circle cx="248.1" cy="188.1" r="14.6" transform="rotate(-76.7 248 188.1)" fill="#d8b4a1"/><circle cx="248.1" cy="188.1" r="14.6" transform="rotate(-76.7 248 188.1)" fill="#fff" opacity=".5"/><path d="M406.8 369c-7.4.5-15 .9-22.7.9-32.8 0-66.6-6.7-82.6-36.5a87.8 87.8 0 0 1-10-36.8 90 90 0 0 1 .9-18q.5-3.8 1.4-7.5a39 39 0 0 1 11-19.8 26.3 26.3 0 0 1 20.2-6.6 30.1 30.1 0 0 1 20.9 11l-6.3 5a22 22 0 0 0-15.2-8 18.4 18.4 0 0 0-14.1 4.5c-4 3.7-7 9.2-8.7 16a74.7 74.7 0 0 0-1.6 8.8 82.2 82.2 0 0 0-.2 17.9 79 79 0 0 0 8.8 29.8c17.6 32.8 61.5 34 97.7 31.4ZM242.7 179l-7.7 2.3a14.2 14.2 0 0 0-8.9-9.3 33 33 0 0 0-26.2 3 31.2 31.2 0 0 0-14.1 18.6 33.7 33.7 0 0 0-1 13.3 35.3 35.3 0 0 0 .8 4.3 95.2 95.2 0 0 0 5.2 13.8c4.8 11.4 10.3 24.4 3.2 38-7.2 13.8-22.8 18.6-35.4 18.6l-3.3-.1A74.8 74.8 0 0 1 103 250a38.4 38.4 0 0 1-5-35l7.6 2.7a31.2 31.2 0 0 0 4.2 28 66 66 0 0 0 46.1 27.7c10.5.8 25-2.5 31-14.2 5.3-10.3 1.2-20-3.5-31.2-2.8-6.5-5.6-13.2-6.5-20.2l-.1-1.2a41.5 41.5 0 0 1 1.4-15.4 39.1 39.1 0 0 1 17.7-23.2c8-4.8 21.9-7.9 33.1-3.6a22.1 22.1 0 0 1 13.7 14.4Z" fill="#d8b4a1"/><path fill="#d8b4a1" d="m419.5 365-19.9-11.5 1.2 24.9 18.7-13.4z"/><path d="M184.9 206.9a35.3 35.3 0 0 0 .8 4.2 56.5 56.5 0 0 0-9-4.4 41.5 41.5 0 0 1 1.5-15.4c2.4.6 5 1.4 7.6 2.3a33.7 33.7 0 0 0-1 13.3ZM299.8 299.9a53 53 0 0 1-8.3-3.2 90 90 0 0 1 .9-18 66.5 66.5 0 0 0 7.6 3.2 82.2 82.2 0 0 0-.3 18Z" opacity=".2"/><path d="M238.5 352.4a65.4 65.4 0 0 1-29.2-6.4c-16.3-8.2-30.1-27.2-25-47.8a37.5 37.5 0 0 1 22.2-25.6l3 7.5a29.4 29.4 0 0 0-17.5 20c-4 16.5 7.4 32 20.8 38.7 11.5 5.8 26.5 7.1 42.2 3.8 27.5-5.8 59.3-25.7 58.7-63a82.3 82.3 0 0 0-13-41.3c-9-14.7-24.6-34-47.7-42.7l2.8-7.5c25.3 9.5 42.1 30.3 51.8 46a90 90 0 0 1 14 45.4 64 64 0 0 1-19.3 47.4 91.6 91.6 0 0 1-45.6 23.5 87.8 87.8 0 0 1-18.2 2Z" fill="#263238"/><path d="M321.7 279.5a64 64 0 0 1-19.4 47.4 89.3 89.3 0 0 1-38.2 21.7l-7.4 1.8a87.8 87.8 0 0 1-18.2 2 74.1 74.1 0 0 1-13.8-1.3 59.5 59.5 0 0 1-15.4-5.1c-16.3-8.2-30.1-27.2-25-47.8a37.5 37.5 0 0 1 22.2-25.6l3 7.5a29.4 29.4 0 0 0-17.5 20c-4 16.5 7.4 32 20.8 38.7a54 54 0 0 0 19 5.3 77 77 0 0 0 23.3-1.5 94.3 94.3 0 0 0 14.2-4.2c23-8.9 45-27.9 44.4-58.8a82.3 82.3 0 0 0-12.9-41.2c-9-14.7-24.6-34.1-47.8-42.8l2.9-7.5c25.2 9.5 42 30.3 51.7 46a90.5 90.5 0 0 1 14.1 45.4Z" fill="#fff" opacity=".2"/><path d="M269.3 338.4a35.6 35.6 0 0 1-5.2 10.2l-7.4 1.8a87.8 87.8 0 0 1-18.2 2 74.1 74.1 0 0 1-13.8-1.3 38 38 0 0 0 7.1-7 77 77 0 0 0 23.2-1.5 94.3 94.3 0 0 0 14.3-4.2Z" opacity=".2"/><path d="M250.8 410.3a.8.8 0 0 1-.8-.5.9.9 0 0 1 0-.7 3.5 3.5 0 0 1 1.2-1.4c-.7.2-1.5.3-1.8 0s-.2-.4 0-.8a1.3 1.3 0 0 1 .7-.8c1.2-.4 3 .6 3.1.6a.3.3 0 0 1 .1 0 .2.2 0 0 1 0 .2 10 10 0 0 1-1.9 3 1.2 1.2 0 0 1-.6.4Zm-.4-1a.4.4 0 0 0 0 .3c.1.3.3.3.3.3.5 0 1.4-1.4 2-2.5-.9.4-2.1 1.2-2.3 1.9Zm-.7-2.3v.4c.3.3 1.7 0 3-.5a3.8 3.8 0 0 0-2.4-.4.7.7 0 0 0-.3.2.8.8 0 0 0-.3.3Z" fill="#d8b4a1"/><path d="M259.7 400.1c-.5-.5-6.4 5.4-6.4 5.4s-.3 7.2-3.2 11.4 1.2 4.4 5.4.8l10.4-9.1c3-2.7-1.2-3.5-6.2-8.5Z" fill="#d8b4a1"/><path d="M259.7 400.1c-.5-.5-6.4 5.4-6.4 5.4s-.3 7.2-3.2 11.4 1.2 4.4 5.4.8l10.4-9.1c3-2.7-1.2-3.5-6.2-8.5Z" fill="#fff" opacity=".3"/><path d="M259.7 400.1c-.5-.5-6.4 5.4-6.4 5.4s-.3 7.2-3.2 11.4 1.2 4.4 5.4.8l10.4-9.1c3-2.7-1.2-3.5-6.2-8.5Z" opacity=".2"/><path d="M253.6 415.3a.8.8 0 0 1-.2-.9.9.9 0 0 1 .4-.5 3.6 3.6 0 0 1 2-.2c-.8-.4-1.4-.8-1.4-1.2 0-.3.1-.6.5-.7a1.4 1.4 0 0 1 1.1 0c1.2.4 2 2.3 2 2.4a.2.2 0 0 1 0 .1.1.1 0 0 1-.1 0 11 11 0 0 1-3.6 1.1 1.2 1.2 0 0 1-.7 0Zm.4-1a.5.5 0 0 0-.2.2v.5c.5.3 2-.2 3.3-.7a5.7 5.7 0 0 0-3.1 0Zm1.1-2.1-.3.2c0 .4 1.3 1 2.6 1.5a3.6 3.6 0 0 0-1.5-1.8.8.8 0 0 0-.4 0 .9.9 0 0 0-.4 0Z" fill="#d8b4a1"/><path d="M267.3 413.4c0-.7-8.5 0-8.5 0s-5.2 5.2-10.3 6.4-2.2 4 3.5 4l14.1-.2c4 0 1.5-3.3 1.2-10.2Z" fill="#d8b4a1"/><path d="M267.3 413.4c0-.7-8.5 0-8.5 0s-5.2 5.2-10.3 6.4-2.2 4 3.5 4l14.1-.2c4 0 1.5-3.3 1.2-10.2Z" fill="#fff" opacity=".3"/><path d="M225.7 346.8a488.3 488.3 0 0 1 20 43.2c2.3 5.4 5.2 12.2 6.8 16.3a15.9 15.9 0 0 0 9-3.7c-1.2-7.4-4.3-26.6-10.1-43.6-3-8.9-7-17.7-11.6-24.8 22-54.6 17.8-75.4 17.8-75.4l-23.4-1.7s-4.2 20.4-7.8 41.4c-1.8 11-3.5 22.1-4.2 30.6a31.7 31.7 0 0 0 3.5 17.7Z" fill="#263238"/><path d="M246 318c3.3-9.3 5.7-17.4 7.4-24.3a28.8 28.8 0 0 0-6-13.1c-.1 0-4.8 15-1.4 37.3ZM245.7 390c2.3 5.4 5.2 12.2 6.8 16.3a15.9 15.9 0 0 0 9-3.6c-1.2-7.5-4.3-26.7-10.1-43.6-2 9-4.3 20.5-5.7 30.9Z" opacity=".2"/><path d="M243.6 255s6.8 50.5 10.7 74.9c4.1 25.6 4.6 66.6 3.6 83.3 1.5.9 7 1.9 9.9 1 0 0 13.9-51.7 4.7-81.8 8.4-59.2-3.8-73.6-3.8-73.6Z" fill="#263238"/><path d="M242.5 213.2c-9.3 2.2-25 5.7-34 1.5-10.6-6-1.8-17 4.1-22.6a97 97 0 0 1 13.3-10.6 2.7 2.7 0 0 1 3.4 4.2c-3.6 3.9-7.3 7.9-10.6 12-2.1 2.7-4.5 5.7-5.4 8.8-.1.6 0 .5 0 0a2 2 0 0 0-.5-.8c3.6.9 7.6.3 11.5-.2 5-.7 10.4-1.7 15.5-2.9 7-1.5 9.6 8.5 2.7 10.6Z" fill="#e8bcbd"/><path d="M245.2 202.2c-5.5-.2-27.8 3.3-27.8 3.3l2.1 12 16-.7Z" fill="#d8b4a1"/><path d="M245.2 202.2 238 213l-2.6 3.9-4.5.2-11.4.4-2.1-12s22.3-3.5 27.8-3.3Z" fill="#fff" opacity=".7"/><path d="m238 213-2.6 3.9-4.5.2a10.5 10.5 0 0 1 7.6-7.3c.1.4-.6 2.8-.5 3.2Z" opacity=".2"/><path d="m225 183.5 1-8.7 4.1-6 3.3 5.4-1.2 3.8s1.3 5-2.7 7.6Z" fill="#e8bcbd"/><path d="M233.7 246c-.3-7.3-.5-12.4-.5-17.6a97.6 97.6 0 0 1 .5-13.4c.4-5.7 4.9-12.2 10.7-12.8l4.9-.4a105.2 105.2 0 0 1 14.8.5c1.4 0 2.8.2 4 .4a7.6 7.6 0 0 1 6.3 10.2 149.9 149.9 0 0 0-7.5 31.7c.9 2.3 5.3 15 3.5 16.4-2 1.5-35 2.7-37.6 0-2-2.2 0-11 1-15Z" fill="#d8b4a1"/><path d="M274.4 212.9a298 298 0 0 0-2.3 7.5l-.3.8-1 3.4-1.8 7.5a94.3 94.3 0 0 0-2 12.5c.8 2.4 5.2 15 3.4 16.4-2 1.6-35 2.7-37.6 0-2-2.2 0-11 1-15-.4-7.3-.6-12.4-.6-17.6a96.7 96.7 0 0 1 .5-13.4c.4-5.8 4.9-12.3 10.7-12.9l4.9-.4a103.6 103.6 0 0 1 14.8.5l4 .5a7.6 7.6 0 0 1 6.3 10.2Z" fill="#fff" opacity=".7"/><path d="m271.8 221.2-1 3.4c-3-1.7-1.7-6.7-1.7-6.7.7-1.7 0-2.7 1.3-2.4a47 47 0 0 0 1.4 5.7Z" opacity=".2"/><path d="m272.2 250.2 2 8.5-1.7 7-5-4-.3-3.8s-2.8-4.2 0-8Z" fill="#e8bcbd"/><path d="M274.4 205.3c7.6 5 24 16.6 20 27.1-3.6 9-15.7 16.5-23.8 21a2.7 2.7 0 0 1-3-4.4c5.9-5.5 12.3-10.8 16.6-17.5a5.4 5.4 0 0 0 1-2.3l-.1-.2a25.5 25.5 0 0 0-5.7-6.3 135.8 135.8 0 0 0-11-8.4c-5.6-4.2 0-12.6 6-9Z" fill="#e8bcbd"/><path d="M268.2 202.7A42 42 0 0 1 292 219l-9.8 8.3s-8.3-5.4-16.2-7.8a19.6 19.6 0 0 1-2.5-10.5c.4-5.7 4.6-6.3 4.6-6.3Z" fill="#d8b4a1"/><path d="M268.2 202.7A42 42 0 0 1 292 219l-9.8 8.3s-8.3-5.4-16.2-7.8a19.6 19.6 0 0 1-2.5-10.5c.4-5.7 4.6-6.3 4.6-6.3Z" fill="#fff" opacity=".7"/><path d="M239.3 210.6s.3-9 11.2-10.2 12.2 2.6 11.4 7.8a32.5 32.5 0 0 0-5.3-1.8c-2.6-.6-10 7.8-10 7.8s-3.3-6.4-3.8-7-3.5 3.4-3.5 3.4Z" fill="#d8b4a1"/><path d="M231 181.1c2.2 4.7 5 6.6 4.6 13.6s1.1 8.8 14.1 6.6 16.5-6 16.4-11.8-3-7-5.5-10.4-3.2-11.8-13.9-11.2-18.9 5.8-15.6 13.2Z" fill="#263238"/><path d="M251.2 187.3c.7 5 2.6 13.6 6.7 15.4 0 0-4.4 1-11 10.3a24.6 24.6 0 0 1-3.1-7.7c4.5-3.2 3.5-3.8 1.4-7Z" fill="#e8bcbd"/><path d="m248.8 191.8-3.5 6.5a15 15 0 0 1 1.2 2.3c1.8-1 3.7-4.3 3.2-6.4a7.3 7.3 0 0 0-1-2.4Z" opacity=".2"/><path d="M253.4 178.7c.4 7.8.7 11-2.7 15.7-5.2 7-14.7 6.2-17.4-1.2-2.4-6.7-2.6-18.4 4.5-22.8a10 10 0 0 1 15.6 8.3Z" fill="#e8bcbd"/><path d="M238.6 184.3a19.5 19.5 0 0 1-1.9 4.5 2.6 2.6 0 0 0 2.3.1Z" fill="#d4827d"/><path d="M256.6 184.6a6.3 6.3 0 0 1-3.3 3.5c-2 .8-3.2-1.1-2.8-3.3.4-1.9 1.9-4.6 4-4.5s3 2.4 2.1 4.3Z" fill="#e8bcbd"/><path d="M235.7 179.3a.3.3 0 0 1 .3 0 .4.4 0 0 1 .2.5 4 4 0 0 1-3 2.1.3.3 0 0 1-.3-.3.4.4 0 0 1 .3-.4 3.2 3.2 0 0 0 2.3-1.7.5.5 0 0 1 .2-.2ZM241.1 178.6a.3.3 0 0 0-.2.2.4.4 0 0 0 0 .5 4 4 0 0 0 3.5 1 .3.3 0 0 0 .2-.5.4.4 0 0 0-.5-.2 3.3 3.3 0 0 1-2.7-.8.4.4 0 0 0-.3-.2ZM244.3 182.4a1.4 1.4 0 0 1 .1.2c.1.7 0 1.3-.5 1.4s-.8-.3-1-1a1.4 1.4 0 0 1 0-.4c0-.5.2-.8.5-.9s.8.2 1 .7Z" fill="#263238"/><path d="M243.7 181.7H242s1 1 1.6 0ZM245.7 192c-1.1.6-4.4 1.3-4.3 1.6a2.4 2.4 0 0 0-.3-.5 2 2 0 0 0-2-1c-.6-.2 4.2-4.9 6.6-1.3.3.6.3 1 0 1.3Z" fill="#263238"/><path d="M245.7 192c-1.1.6-4.4 1.3-4.3 1.6a2.4 2.4 0 0 0-.3-.5 2.8 2.8 0 0 1 4.6-1Z" fill="#a02724"/><path d="M244.3 185c-1.1 0-1.7-1.3-1.7-1.3a.1.1 0 0 1 .1-.2.1.1 0 0 1 .2 0c0 .1.5 1.5 1.6 1.2a.1.1 0 1 1 .1.3 1.3 1.3 0 0 1-.3 0Z" opacity=".2"/><path d="m235.4 184-1.7-.2s1 1.1 1.7.2Z" fill="#263238"/><path d="M234.5 183.8a2.3 2.3 0 0 1 3.2-.4 2.4 2.4 0 0 0-2.5.8Z" fill="#263238"/><path d="M236 185.7a.1.1 0 0 1-.2 0 .1.1 0 0 1 0-.3 2.7 2.7 0 0 0 1.7-1.6.1.1 0 0 1 .2 0 .1.1 0 0 1 .1.1 3 3 0 0 1-1.8 1.8Z" opacity=".2"/><path d="M241.3 171.8s3 11.2 10.2 13.7 7 10.1 4.3 11.7c0 0 6 1 7.5-4.7s-2.8-10.7-3.9-18.6-12.6-8.9-19.5-7.1-11.7 5.7-8.8 14.3c0 0 1-8.6 10.2-9.3Z" fill="#263238"/><path d="M320 295.8a86.8 86.8 0 0 1-16.6-2c-17.3-3.4-31-7.6-43.1-13.1-15-6.9-27.5-15.9-36.9-26.8-5.2-6-8.9-12.9-12.4-19.5-5.1-9.4-9.9-18.4-18.7-24.4-16.8-11.5-37.6-12.6-52.2-11.5-6.6.4-28.7 3.3-34.5 19.3L98 215c5-13.8 20.5-23 41.4-24.5 15.9-1.2 38.6.1 57.4 13 10.4 7 15.8 17.3 21.1 27.1a95.9 95.9 0 0 0 11.5 18 99 99 0 0 0 34.1 24.8c11.6 5.3 24.7 9.3 41.3 12.5a55.4 55.4 0 0 0 23.2 1 20 20 0 0 0 14-12.4 14 14 0 0 0-2.4-13.8l6.2-5a22 22 0 0 1 3.8 21.3 27.9 27.9 0 0 1-19.7 17.6 41.9 41.9 0 0 1-9.9 1.2Z" fill="#d8b4a1"/><path d="M265.5 307.6a45 45 0 0 0-34.8-36.6 41.5 41.5 0 0 0-24.2 1.6l3 7.4a34 34 0 0 1 19.5-1.2 36.7 36.7 0 0 1 28.6 29.8c1 8.5-1.4 17.7-6.8 25.8-9.4 14.3-25.7 22.4-37.1 27.4-41.6 17.8-84.4 21-115.8 9l3-7.6-22.5 4.6 13.4 18.6 3.2-8c13.4 5 28.6 7.6 44.9 7.6 24.3 0 50.9-5.7 77-16.9 12.3-5.3 30-14.2 40.6-30.3a46.5 46.5 0 0 0 8-31.2Z" fill="#263238"/><path d="M265.5 307.6a45 45 0 0 0-34.8-36.6 41.5 41.5 0 0 0-24.2 1.6l3 7.4a34 34 0 0 1 19.5-1.2 36.7 36.7 0 0 1 28.6 29.8c1 8.5-1.4 17.7-6.8 25.8-9.4 14.3-25.7 22.4-37.1 27.4-41.6 17.8-84.4 21-115.8 9l3-7.6-22.5 4.6 13.4 18.6 3.2-8c13.4 5 28.6 7.6 44.9 7.6 24.3 0 50.9-5.7 77-16.9 12.3-5.3 30-14.2 40.6-30.3a46.5 46.5 0 0 0 8-31.2Z" fill="#fff" opacity=".2"/><g fill="#d8b4a1"><path d="m253.2 157.4-3.3-25.2h6.7l-3.4 25.2zM257.9 158.8l11.1-29.2 6 3.1-17.1 26.1zM261.4 162.2l17-16.5 3.9 5.5-20.9 11z"/></g></svg>