<svg xmlns="http://www.w3.org/2000/svg" viewBox="0 0 500 500"><path fill="#263238" d="M473.7 450.1c0 .2-100.2.3-223.7.3s-223.7-.1-223.7-.3 100.2-.3 223.7-.3 223.7.2 223.7.3Z"/><g fill="#263238"><path d="M440.4 329c0 .2-14.6.3-32.6.3s-32.7 0-32.7-.2 14.6-.3 32.7-.3 32.6.2 32.6.3ZM427.4 321c0 .1-9 .3-20 .3s-19.8-.2-19.8-.3 8.9-.3 19.9-.3 19.9.2 19.9.3ZM203 364.3c0 .1-7.2.2-16 .2s-15.8-.1-15.8-.2 7-.3 15.9-.3 15.8.1 15.8.3ZM206 358.1c0 .2-5 .3-11.2.3s-11.2-.1-11.2-.3 5-.2 11.2-.2 11.2.1 11.2.2Z"/></g><path fill="#455a64" d="M416.3 264.4a7.2 7.2 0 0 0 6.4 4.7 6.6 6.6 0 0 0-6.4-4.7"/><path fill="#263238" d="M397.2 262.6h.4l1.2.4a49.3 49.3 0 0 0 11.4 1.2 72 72 0 0 0 8.5-.4 117 117 0 0 0 15-3l4.4-1.1 1.3-.3.3-.1h-.3l-1.2.4-4.5 1.2a112.9 112.9 0 0 1-15 3 67.8 67.8 0 0 1-8.4.4 53 53 0 0 1-7-.5 44.1 44.1 0 0 1-4.5-.8l-1.2-.3-.3-.1Z"/><path fill="#d8b4a1" d="M434.5 259a.6.6 0 0 1-.3-1.2.6.6 0 0 1 .8.5.6.6 0 0 1-.5.7ZM436.4 259a.6.6 0 0 1-.7-.4.6.6 0 0 1 .5-.7.6.6 0 0 1 .7.4.6.6 0 0 1-.4.8ZM437.6 260.3a.6.6 0 0 1-.8-.4.6.6 0 0 1 .5-.8.6.6 0 1 1 .3 1.2ZM435.2 260.6a.6.6 0 1 1 .4-.8.6.6 0 0 1-.4.8ZM436.2 263.4a.6.6 0 1 1 .5-.7.6.6 0 0 1-.5.7ZM433.7 263.5a.6.6 0 0 1-.3-1.2.6.6 0 1 1 .3 1.2ZM430.4 262.3a.6.6 0 1 1 .4-.7.6.6 0 0 1-.4.7ZM438 263.1a.6.6 0 0 1-.7-.5.6.6 0 0 1 .4-.7.6.6 0 0 1 .7.5.6.6 0 0 1-.4.7ZM438.3 258.7a.6.6 0 0 1-.8-.5.6.6 0 0 1 .5-.7.6.6 0 0 1 .7.5.6.6 0 0 1-.4.7ZM436.8 261.7a.6.6 0 0 1-.7-.4.6.6 0 0 1 .4-.8.6.6 0 1 1 .3 1.2ZM438.9 261.6a.6.6 0 0 1-.3-1.2.6.6 0 0 1 .7.5.6.6 0 0 1-.4.7ZM440.4 258.8a.6.6 0 1 1 .4-.8.6.6 0 0 1-.4.8ZM440.8 261a.6.6 0 1 1 .5-.8.6.6 0 0 1-.5.7ZM439.3 260.2a.6.6 0 1 1 .4-.8.6.6 0 0 1-.4.8ZM441.9 259.5a.6.6 0 1 1 .4-.7.6.6 0 0 1-.4.7ZM432.9 260a.6.6 0 0 1-.7-.5.6.6 0 0 1 .4-.7.6.6 0 0 1 .3 1.2ZM431.4 261.1a.6.6 0 0 1-.3-1.2.6.6 0 0 1 .7.5.6.6 0 0 1-.4.7ZM433.2 261.8a.6.6 0 1 1 .5-.7.6.6 0 0 1-.5.7ZM432.1 263a.6.6 0 0 1-.7-.5.6.6 0 0 1 .5-.7.6.6 0 0 1 .7.5.6.6 0 0 1-.5.7ZM435 262.2a.6.6 0 0 1-.7-.5.6.6 0 0 1 .4-.7.6.6 0 1 1 .3 1.2Z"/><path fill="#455a64" d="M422.3 263c3.2-.9 6-3.7 6.3-7a7.8 7.8 0 0 0-6.4 7M415.8 263a6.2 6.2 0 0 0 5.2-4.5 5.6 5.6 0 0 0-5.2 4.5M424.2 263.8a7.2 7.2 0 0 0 7.2 3.3 6.6 6.6 0 0 0-7.2-3.3"/><path fill="#263238" d="m414.2 264.2.6-.4a18.1 18.1 0 0 0 1.5-1.2l1.4-1.3.6-.5-.1.2-.4.4a18.3 18.3 0 0 1-1.4 1.3 14.3 14.3 0 0 1-1.5 1.1l-.5.3-.2.1ZM420 267a6.6 6.6 0 0 1-.6-.5 18.1 18.1 0 0 0-1.5-1.1l-1.7-1-.7-.3h.2l.6.3a13.8 13.8 0 0 1 3.1 2l.5.4ZM428.3 265.6a5.5 5.5 0 0 1-.8-.3l-1.7-.9-1.8-.8a7 7 0 0 1-.8-.3s.1 0 .3 0l.5.2 1.8.8 1.8 1 .5.2ZM421.6 263.4a6.5 6.5 0 0 1 .6-.5 15.8 15.8 0 0 0 1.2-1.2 16.2 16.2 0 0 0 1-1.3 5 5 0 0 1 .5-.6s0 0 0 .2-.2.2-.4.4a12.6 12.6 0 0 1-1 1.4 12.3 12.3 0 0 1-1.3 1.2 4.7 4.7 0 0 1-.4.3Z"/><path fill="#d8b4a1" d="M408.9 222.8a1.3 1.3 0 0 0-1.2 0c-.4.2-.5.6-.9 1s-.7.3-1 .6a1.7 1.7 0 0 0-.4 1.8 2.8 2.8 0 0 0 1.4 1.5 8.6 8.6 0 0 0 2 .6l2.6-.2a9.2 9.2 0 0 0-1.6-4.6 2.5 2.5 0 0 0-1-.7ZM415.9 226.6a8.2 8.2 0 0 0 1.3-1.5 2.1 2.1 0 0 0 .2-1.9 1.6 1.6 0 0 0-2.2-.6c-.3-.4-.7-.8-1.2-.7s-.9.7-1 1.3a16.8 16.8 0 0 0-.4 3.7l2.1 1.4a4.1 4.1 0 0 1 1.2-1.7Z"/><path d="M408.9 222.8a1.3 1.3 0 0 0-1.2 0c-.4.2-.5.6-.9 1s-.7.3-1 .6a1.7 1.7 0 0 0-.4 1.8 2.8 2.8 0 0 0 1.4 1.5 8.6 8.6 0 0 0 2 .6l2.6-.2a9.2 9.2 0 0 0-1.6-4.6 2.5 2.5 0 0 0-1-.7ZM415.9 226.6a8.2 8.2 0 0 0 1.3-1.5 2.1 2.1 0 0 0 .2-1.9 1.6 1.6 0 0 0-2.2-.6c-.3-.4-.7-.8-1.2-.7s-.9.7-1 1.3a16.8 16.8 0 0 0-.4 3.7l2.1 1.4a4.1 4.1 0 0 1 1.2-1.7Z" opacity=".3"/><path fill="#d8b4a1" d="M408.8 226.4a3 3 0 0 0-1.8-1.3 1.6 1.6 0 0 0-1.3.4 2.1 2.1 0 0 0-.6 1.2c-.1.5-.1 1-.4 1.4s-.6.3-.8.6a1 1 0 0 0-.2 1 2.3 2.3 0 0 0 .7 1 6.7 6.7 0 0 0 3.7 1.4 14.5 14.5 0 0 0 4-.3l.8-.4ZM414 231a12.9 12.9 0 0 0 3.3-1.4 6 6 0 0 0 2.3-2.6 2 2 0 0 0 .2-1 1 1 0 0 0-.5-.8l-.9-.1c-.3-.1-.6-.6-.8-1a1.9 1.9 0 0 0-1-.6 1.5 1.5 0 0 0-1.2.2 2.6 2.6 0 0 0-.9 1.7l-1.3 5.6"/><path fill="#d8b4a1" d="M413.2 231a18.3 18.3 0 0 0 1.3-5.4 5 5 0 0 0-.4-2.7 1.4 1.4 0 0 0-1-.8c-.9 0-1.4 1-2.2 1-.4 0-.8-.2-1.2-.1a1.4 1.4 0 0 0-1 .9 3.1 3.1 0 0 0 0 2.2 6.7 6.7 0 0 0 1 2 16.7 16.7 0 0 0 3.2 3.3"/><path fill="#263238" d="M413 232a5 5 0 0 1-1.3.2.8.8 0 0 1-.3 0 .2.2 0 0 1-.2-.2c0-.1.1-.2.3-.2a1.3 1.3 0 0 0 .3-.2l-.3-.2-.1-.2a.2.2 0 0 1 .1-.1.4.4 0 0 1 .3 0 4.4 4.4 0 0 1 .7.2 1.4 1.4 0 0 1-.4-.6.3.3 0 0 1 0-.3.3.3 0 0 1 .4 0 .8.8 0 0 1 .2.2 1 1 0 0 1 .4-.5.3.3 0 0 1 .2-.1.2.2 0 0 1 .2.2.7.7 0 0 1-.1.3.5.5 0 0 0 0 .3 2.7 2.7 0 0 1 .5-.4.3.3 0 0 1 .3 0 .2.2 0 0 1 0 .3.7.7 0 0 1-.2.3 1.9 1.9 0 0 1 .5-.1.2.2 0 0 1 .1 0 .2.2 0 0 1 0 .2.6.6 0 0 1-.1.1 8.3 8.3 0 0 1-1.8.9"/><path fill="#263238" d="M413 231.7h-.1l-.2-.2c-.2 0-.4-.2-.6-.4a10.7 10.7 0 0 1-.8-.8 11.5 11.5 0 0 1-1.7-2.1l-.6-1-.3-.7-.1-.2v.2l.4.7.6 1 .8 1 1 1c.2.4.5.6.7.8l.6.5.2.1ZM412.8 231.4v-.2a19.5 19.5 0 0 0 1-3 21.4 21.4 0 0 0 .5-2.5l.2-.7v-.2a.3.3 0 0 1 0-.1v.3l-.1.7a21.1 21.1 0 0 1-1.3 4.8l-.3.7v.2ZM416 228l-.3.5a9 9 0 0 1-1 1.4 10 10 0 0 1-1.2 1.1l-.4.3-.2.1.2-.1.4-.3a12.3 12.3 0 0 0 1.2-1.2 13 13 0 0 0 1-1.3l.3-.4Z"/><path fill="#263238" d="M413.1 231.6h-.7a18 18 0 0 1-1.9-.2 19 19 0 0 1-1.8-.5l-.6-.2h-.2.3l.5.1a33.4 33.4 0 0 0 3.7.7l.5.1ZM412.4 226.9l.4 2.3.4 2.4-.5-2.3a13 13 0 0 1-.3-2.4Z"/><path fill="#455a64" d="M413.4 248.6c3 1 6.9.2 8.9-2.3a7.5 7.5 0 0 0-8.9 2.3"/><path fill="#263238" d="M398 264.4h.2l.3-.3 1.1-.9a69.3 69.3 0 0 0 9.3-9.3 82.4 82.4 0 0 0 5.7-7.8 132.8 132.8 0 0 0 8.1-15.5l2.2-4.8.6-1.4.2-.3v-.1.1l-.2.4-.5 1.3-2.2 4.9a130.8 130.8 0 0 1-8.2 15.5 82.4 82.4 0 0 1-5.6 7.8 73.6 73.6 0 0 1-5.3 5.8 51.4 51.4 0 0 1-4 3.5l-1.2.8-.3.3Z"/><path fill="#d8b4a1" d="M421.6 229.7a.6.6 0 0 1-.8.3.6.6 0 0 1-.3-.8.6.6 0 0 1 .8-.3.6.6 0 0 1 .3.8ZM422.8 228.3a.6.6 0 0 1-.8.3.6.6 0 0 1-.3-.8.6.6 0 0 1 1 .5ZM424.3 228.2a.6.6 0 0 1-.7.3.6.6 0 0 1-.3-.8.6.6 0 0 1 .8-.3.6.6 0 0 1 .2.8ZM423 230.1a.6.6 0 0 1-1-.5.6.6 0 0 1 .8-.3.6.6 0 0 1 .3.8ZM425.8 231a.6.6 0 1 1-.3-.8.6.6 0 0 1 .3.8ZM424.3 233a.6.6 0 0 1-.7.3.6.6 0 0 1 .5-1 .6.6 0 0 1 .2.7ZM421.5 234.7a.6.6 0 1 1-.3-.8.6.6 0 0 1 .3.8ZM426.6 229.6a.6.6 0 1 1-1-.5.6.6 0 0 1 .7-.3.6.6 0 0 1 .3.8ZM423.5 226.7a.6.6 0 1 1-.2-.7.6.6 0 0 1 .2.7ZM424.9 229.6a.6.6 0 1 1-.3-.8.6.6 0 0 1 .3.8ZM426 228a.6.6 0 1 1-.2-.8.6.6 0 0 1 .3.8ZM424.8 225.3a.6.6 0 0 1-.8.2.6.6 0 1 1 .8-.2ZM426.7 226.2a.6.6 0 1 1-.3-.8.6.6 0 0 1 .3.8ZM425.2 226.9a.6.6 0 0 1-1-.5.6.6 0 1 1 1 .5ZM426.3 224.6a.6.6 0 1 1-.3-.8.6.6 0 0 1 .3.8ZM421.3 231.4a.6.6 0 1 1-1-.5.6.6 0 0 1 .8-.2.6.6 0 0 1 .2.7ZM421.2 233.2a.6.6 0 0 1-.7.3.6.6 0 1 1 .7-.3ZM422.8 232.3a.6.6 0 0 1-.7.3.6.6 0 0 1-.3-.8.6.6 0 1 1 1 .5ZM423 233.8a.6.6 0 1 1-.2-.8.6.6 0 0 1 .3.8ZM424.1 231.2a.6.6 0 0 1-.7.3.6.6 0 0 1-.3-.8.6.6 0 0 1 1 .5Z"/><path fill="#455a64" d="M416.4 242.3c1.6-3.5 1-8-1.7-10.7a9 9 0 0 0 1.7 10.7M411.9 248a7 7 0 0 0-.3-7.8 6.6 6.6 0 0 0-1.2 4 6.5 6.5 0 0 0 1.5 4M418.5 241.2a8.2 8.2 0 0 0 8.2-4 7.5 7.5 0 0 0-8.2 4"/><path fill="#263238" d="M411.7 250.4a7.8 7.8 0 0 1 .1-1 19.4 19.4 0 0 0 0-2v-2.2l-.1-.7v-.2a.8.8 0 0 1 0 .2l.1.7a17.9 17.9 0 0 1 .2 2.1 14.7 14.7 0 0 1-.1 2.2l-.1.7a.8.8 0 0 1 0 .2ZM418.3 247.2a8.9 8.9 0 0 1-.9.2 20.4 20.4 0 0 0-2 .6 20 20 0 0 0-2 .8 8.7 8.7 0 0 1-.8.4l.2-.2a6.2 6.2 0 0 1 .5-.3 13.7 13.7 0 0 1 2-.8 14.9 14.9 0 0 1 2.1-.6h.7a.9.9 0 0 1 .2 0ZM423.1 238.8l-.2.2-.6.2-2 1-2 1-.7.3a.8.8 0 0 1-.2.1l.2-.1.6-.4a35.6 35.6 0 0 1 4-2l.7-.2h.3ZM416.4 243.2a6.1 6.1 0 0 1 0-.8 18.7 18.7 0 0 0-.3-2 18.9 18.9 0 0 0-.4-2l-.2-.8a1 1 0 0 1 0 .2l.3.6a13.8 13.8 0 0 1 .4 2 15.3 15.3 0 0 1 .2 2v.8ZM401 257.5l.1-.1.2-.3.6-1.3a41 41 0 0 0 1.7-4 40.1 40.1 0 0 0 1.3-4.4l.3-1.3.1-.3v-.2a.7.7 0 0 1 0 .2v.3l-.3 1.4a36.3 36.3 0 0 1-3 8.4l-.7 1.2-.2.3Z"/><path fill="#d8b4a1" d="M405 241.6a.6.6 0 1 1-.3-.7.6.6 0 0 1 .4.7ZM406 240a.6.6 0 1 1-.4-.7.6.6 0 0 1 .4.7ZM407.5 239.6a.6.6 0 1 1-1.1-.3.6.6 0 0 1 .7-.4.6.6 0 0 1 .4.7ZM406.6 241.7a.6.6 0 0 1-.7.4.6.6 0 0 1-.4-.7.6.6 0 0 1 .7-.4.6.6 0 0 1 .4.7ZM409.5 242a.6.6 0 1 1-.4-.7.6.6 0 0 1 .4.7ZM408.5 244.2a.6.6 0 0 1-1.2-.3.6.6 0 0 1 1.2.3ZM406 246.5a.6.6 0 0 1-.6.4.6.6 0 0 1-.5-.7.6.6 0 0 1 .7-.4.6.6 0 0 1 .4.7ZM410 240.4a.6.6 0 0 1-1.1-.2.6.6 0 0 1 .7-.5.6.6 0 0 1 .4.7ZM406.4 238.3a.6.6 0 1 1-.4-.7.6.6 0 0 1 .4.7Z"/><path fill="#d8b4a1" d="M408.3 240.8a.6.6 0 1 1-.4-.7.6.6 0 0 1 .4.7ZM409.1 239a.6.6 0 0 1-.7.4.6.6 0 0 1-.4-.7.6.6 0 1 1 1.1.3ZM407.4 236.6a.6.6 0 1 1-.4-.7.6.6 0 0 1 .4.7ZM409.4 237.1a.6.6 0 1 1-.4-.7.6.6 0 0 1 .4.7ZM408.8 235.5a.6.6 0 1 1-.5-.7.6.6 0 0 1 .4.7ZM408 238a.6.6 0 0 1-.6.5.6.6 0 0 1-.4-.7.6.6 0 0 1 .7-.4.6.6 0 0 1 .4.7ZM405.2 243.3a.6.6 0 1 1-.4-.7.6.6 0 0 1 .4.7ZM405.5 245.1a.6.6 0 0 1-.7.4.6.6 0 0 1-.4-.7.6.6 0 1 1 1 .3ZM406.9 243.9a.6.6 0 0 1-.7.4.6.6 0 0 1-.5-.7.6.6 0 0 1 1.2.3ZM407.4 245.3a.6.6 0 0 1-.7.4.6.6 0 1 1 .3-1.1.6.6 0 0 1 .4.7ZM408 242.5a.6.6 0 1 1-.5-.7.6.6 0 0 1 .4.7Z"/><path fill="#263238" d="M407.8 261.7h.1l.3-.1 1.3-.5a40.6 40.6 0 0 0 4.1-1.8 41.3 41.3 0 0 0 3.9-2.2l1.1-.8.3-.2h.1l-.4.3-1 .8a36 36 0 0 1-4 2.2 36.7 36.7 0 0 1-4 1.8l-1.3.4h-.4Z"/><path fill="#d8b4a1" d="M421.6 252.9a.6.6 0 0 1-.6-1 .6.6 0 0 1 .8.2.6.6 0 0 1-.2.8ZM423.4 252.3a.6.6 0 0 1-.8-.1.6.6 0 0 1 .1-.8.6.6 0 0 1 .9.1.6.6 0 0 1-.2.8ZM424.8 253.1a.6.6 0 0 1-.8-.2.6.6 0 0 1 .2-.8.6.6 0 0 1 .7.2.6.6 0 0 1-.1.8ZM422.7 254a.6.6 0 1 1 .2-.7.6.6 0 0 1-.2.8ZM424.5 256.3a.6.6 0 0 1-.8-.2.6.6 0 0 1 .2-.8.6.6 0 0 1 .8.2.6.6 0 0 1-.2.8ZM422.3 257.1a.6.6 0 0 1-.8-.1.6.6 0 0 1 .2-.8.6.6 0 0 1 .8.1.6.6 0 0 1-.2.8ZM419 257.1a.6.6 0 0 1-.8-.1.6.6 0 0 1 .2-.8.6.6 0 1 1 .6 1ZM426 255.4a.6.6 0 0 1-.8-.1.6.6 0 0 1 .2-.8.6.6 0 0 1 .8.1.6.6 0 0 1-.2.8ZM424.9 251.4a.6.6 0 0 1-.8-.1.6.6 0 0 1 1-.7.6.6 0 0 1-.2.8ZM424.5 254.6a.6.6 0 0 1-.8-.2.6.6 0 0 1 .2-.8.6.6 0 0 1 .8.2.6.6 0 0 1-.2.8ZM426.3 253.8a.6.6 0 0 1-.8-.1.6.6 0 0 1 .2-.8.6.6 0 0 1 .8.1.6.6 0 0 1-.2.8ZM426.8 250.9a.6.6 0 0 1-.9-.2.6.6 0 0 1 .2-.8.6.6 0 0 1 .8.2.6.6 0 0 1-.1.8ZM427.8 252.6a.6.6 0 1 1 .2-.8.6.6 0 0 1-.2.8ZM428.5 251a.6.6 0 0 1-.8-.2.6.6 0 0 1 1-.6.6.6 0 0 1-.2.8ZM426.2 252.4a.6.6 0 0 1-.8-.2.6.6 0 0 1 .2-.8.6.6 0 0 1 .8.2.6.6 0 0 1-.2.8ZM420.5 254.3a.6.6 0 0 1-.8-.2.6.6 0 0 1 .2-.8.6.6 0 1 1 .6 1ZM419.5 255.8a.6.6 0 0 1-.8-.2.6.6 0 0 1 .2-.8.6.6 0 0 1 .8.1.6.6 0 0 1-.2.8ZM421.3 255.8a.6.6 0 0 1-.8-.2.6.6 0 0 1 .2-.8.6.6 0 0 1 .8.2.6.6 0 0 1-.2.8ZM420.8 257.2a.6.6 0 1 1 .1-.8.6.6 0 0 1-.1.8ZM423 255.5a.6.6 0 0 1-.6-1 .6.6 0 0 1 .6 1Z"/><path fill="#ebebeb" d="M397.5 280.9c.4-.9 7.3-3.4 11.3-5.4l10.2-5c.7-.3 1.5-.8 1.5-1.6a2.5 2.5 0 0 0-1-1.6l-19.2-18.8c-5 8-7.2 19.9-7 28.8l-5.8 9 8.4 7.5s-.3-8.9 1.6-13Z"/><path fill="#d8b4a1" d="M440 241.2a1.6 1.6 0 0 0 0-1.5c-.3-.5-.9-.7-1.2-1.1l-.9-1.4a2.2 2.2 0 0 0-2.4-.5 3.6 3.6 0 0 0-1.8 1.8 10.6 10.6 0 0 0-.8 2.5l.2 3.4c2.1-.3 4.3-.7 6-2a3 3 0 0 0 .9-1.2ZM435 250.2a10.5 10.5 0 0 0 2 1.7 2.7 2.7 0 0 0 2.4.3 2 2 0 0 0 .7-2.9c.6-.3 1.2-1 1-1.6s-1-1-1.6-1.2a21.7 21.7 0 0 0-4.8-.5l-1.9 2.7a5.3 5.3 0 0 1 2.2 1.5Z"/><path d="M440 241.2a1.6 1.6 0 0 0 0-1.5c-.3-.5-.9-.7-1.2-1.1l-.9-1.4a2.2 2.2 0 0 0-2.4-.5 3.6 3.6 0 0 0-1.8 1.8 10.6 10.6 0 0 0-.8 2.5l.2 3.4c2.1-.3 4.3-.7 6-2a3 3 0 0 0 .9-1.2ZM435 250.2a10.5 10.5 0 0 0 2 1.7 2.7 2.7 0 0 0 2.4.3 2 2 0 0 0 .7-2.9c.6-.3 1.2-1 1-1.6s-1-1-1.6-1.2a21.7 21.7 0 0 0-4.8-.5l-1.9 2.7a5.3 5.3 0 0 1 2.2 1.5Z" opacity=".3"/><path fill="#d8b4a1" d="M435.3 241a3.8 3.8 0 0 0 1.7-2.2 2.1 2.1 0 0 0-.6-1.6 2.7 2.7 0 0 0-1.5-.9 3.5 3.5 0 0 1-1.8-.5l-.7-1a1.4 1.4 0 0 0-1.4-.2 2.9 2.9 0 0 0-1.1 1 8.6 8.6 0 0 0-1.9 4.7 18.3 18.3 0 0 0 .4 5.1l.4 1.1ZM429.3 247.8a16.3 16.3 0 0 0 1.8 4.2 7.6 7.6 0 0 0 3.4 3 2.7 2.7 0 0 0 1.2.3 1.2 1.2 0 0 0 1-.7c.2-.4 0-.8.2-1.1l1.2-1.1a2.4 2.4 0 0 0 .9-1.3 1.9 1.9 0 0 0-.3-1.5 3.4 3.4 0 0 0-2.2-1.1l-7.3-1.7"/><path fill="#d8b4a1" d="M429.4 246.8a23.4 23.4 0 0 0 6.9 1.6 6.3 6.3 0 0 0 3.5-.5 1.8 1.8 0 0 0 1-1.4c0-1-1.1-1.7-1.2-2.7l.2-1.6a1.8 1.8 0 0 0-1.2-1.3 4.1 4.1 0 0 0-2.8 0 9 9 0 0 0-2.5 1.4 21.1 21.1 0 0 0-4.3 4.1"/><path fill="#263238" d="M428.2 246.6a6.5 6.5 0 0 1-.4-1.8.9.9 0 0 1 0-.4.3.3 0 0 1 .2-.2c.2 0 .3.1.4.3a1.5 1.5 0 0 0 .2.5.8.8 0 0 0 .2-.4l.3-.2a.3.3 0 0 1 .2.2.7.7 0 0 1 0 .3 8.6 8.6 0 0 1-.3 1 1.6 1.6 0 0 1 .8-.5.4.4 0 0 1 .4 0 .3.3 0 0 1 0 .4 1 1 0 0 1-.3.3 1.4 1.4 0 0 1 .7.5.3.3 0 0 1 0 .3.3.3 0 0 1-.2.2 1.5 1.5 0 0 1-.4 0 .6.6 0 0 0-.3 0 3.7 3.7 0 0 1 .4.6.4.4 0 0 1 0 .4.3.3 0 0 1-.4 0 1 1 0 0 1-.3-.3 2.2 2.2 0 0 1 .2.6.3.3 0 0 1 0 .2.2.2 0 0 1-.3 0 .7.7 0 0 1-.2-.2 10.2 10.2 0 0 1-1.1-2.3"/><path fill="#263238" d="M428.5 246.4v-.1l.2-.2.6-.8a12.6 12.6 0 0 1 1-1 17.4 17.4 0 0 1 1.3-1.2 16.1 16.1 0 0 1 1.5-1 13.7 13.7 0 0 1 1.2-.7l.9-.5H435.5l-.3.1-.9.5-1.2.7-1.4 1-1.3 1.1-1 1-.7.8-.1.2ZM428.8 246.2h.1l.2.1 1 .3 3 1a31.6 31.6 0 0 0 3 .7l1 .1h.3-1.3a27.3 27.3 0 0 1-6.1-1.7 16 16 0 0 1-1-.3l-.2-.2ZM433.3 250.5l-.2-.1a5.9 5.9 0 0 1-.6-.4 11.6 11.6 0 0 1-1.7-1.3 11.7 11.7 0 0 1-1.5-1.5l-.4-.6a1 1 0 0 1 0-.2 1 1 0 0 1 0 .2l.5.5a15.3 15.3 0 0 0 1.5 1.6 14.9 14.9 0 0 0 1.7 1.3l.5.3.2.2Z"/><path fill="#263238" d="M428.6 246.7a1 1 0 0 1 0-.3v-.8l.3-2.3a23.7 23.7 0 0 1 .6-2.4l.3-.7v-.2a.9.9 0 0 1 0 .2l-.2.7a30 30 0 0 0-1 4.8v1ZM434.6 245.7l-3 .6a42.8 42.8 0 0 1 3-.6Z"/><path fill="#263238" d="m428.8 245.6-3.2 1.4a54.4 54.4 0 0 0-7.4 3.8 55.2 55.2 0 0 0-6.7 5c-1.6 1.4-2.5 2.4-2.6 2.3a3.6 3.6 0 0 1 .6-.7l1.8-1.9a42.9 42.9 0 0 1 6.6-5 43.8 43.8 0 0 1 7.6-3.8l2.4-.8a3.5 3.5 0 0 1 .9-.3ZM397.5 281a5.6 5.6 0 0 1-2.5-1.3c-1.3-1-2-2-2-2a12.7 12.7 0 0 1 2.3 1.6 13 13 0 0 1 2.2 1.7ZM397.4 282.2a5.5 5.5 0 0 1-2.8-1.3 5.5 5.5 0 0 1-2.2-2.3 29.6 29.6 0 0 1 2.5 1.9c1.3 1 2.5 1.5 2.5 1.7Z"/><path fill="#263238" d="M419.2 267.6a4 4 0 0 1-.9.6l-2.5 1.3c-2.1 1-5 2.7-8.2 4.4s-6 3.5-8 4.8l-2.4 1.5a4 4 0 0 1-1 .4 4 4 0 0 1 .9-.6l2.3-1.6 8-5 8.3-4.2c1-.6 2-1 2.6-1.2a4 4 0 0 1 .9-.4ZM393.6 292a16.5 16.5 0 0 1 .7-5.2 16.8 16.8 0 0 1 1.8-5l-1.3 5.1c-.7 2.8-1 5.2-1.2 5.2Z"/><path fill="#263238" d="M397.5 281a3.8 3.8 0 0 1 1.2-.5 11.3 11.3 0 0 1 3.5-.6h1.2a2.9 2.9 0 0 1 1.3.3 1.2 1.2 0 0 1 .5.6 1.1 1.1 0 0 1 0 .9 2.4 2.4 0 0 1-1.3 1 5 5 0 0 1-3.2 0 13.4 13.4 0 0 1-1.5-.5 5.7 5.7 0 0 1-1.6-.8 2.6 2.6 0 0 1-.6-1.7 11.6 11.6 0 0 1 0-1.7 10.4 10.4 0 0 1 .2-1.6 5.8 5.8 0 0 1 .4-1.5 1.6 1.6 0 0 1 1.3-1 1.4 1.4 0 0 1 1.2.8 4.3 4.3 0 0 1 .2 2.6 5.7 5.7 0 0 1-1.7 3 4.8 4.8 0 0 1-.7.7c-.2 0-.3.1-.4 0s.4-.2 1-.8a5.7 5.7 0 0 0 1.5-3 4 4 0 0 0-.3-2.2 1 1 0 0 0-.8-.6 1.1 1.1 0 0 0-.9.7 9.4 9.4 0 0 0-.5 3 12.1 12.1 0 0 0 0 1.5 2 2 0 0 0 .5 1.4c1.8 1 4 2 5.8 1.2a2 2 0 0 0 1-.7.6.6 0 0 0-.3-.9 2.5 2.5 0 0 0-1.1-.3h-1.2a15.8 15.8 0 0 0-4.7.8Z"/><path fill="#fafafa" d="m150.3 182 6.2-6a25.5 25.5 0 1 1 .3 9.2Z"/><path fill="#263238" d="m150.3 182 .4.2 1.2.6 4.9 2.4a25.4 25.4 0 0 0 5.5 11.2 24 24 0 0 0 2.8 2.8l1.7 1.3a16.4 16.4 0 0 0 1.8 1.2 25.5 25.5 0 0 0 19 2.9 25.7 25.7 0 0 0 10-4.8 26.2 26.2 0 0 0 7.2-9.4 23.7 23.7 0 0 0 1.2-2.9 15 15 0 0 0 .4-1.5l.3-1.5a25.2 25.2 0 0 0 .4-3.1v-3.2a25.6 25.6 0 0 0-11.6-19.9 25.6 25.6 0 0 0-28.6.6 28 28 0 0 0-3.2 2.6 35 35 0 0 0-2.6 3 25.4 25.4 0 0 0-4.8 11.6l-4.5 4.5-1.2 1-.4.4.4-.3 1.2-1.2 4.6-4.3a25.3 25.3 0 0 1 4.8-11.4 32.8 32.8 0 0 1 2.6-3 27.6 27.6 0 0 1 3.2-2.7 25.3 25.3 0 0 1 18.2-4.2 25.5 25.5 0 0 1 10.1 3.8 25.4 25.4 0 0 1 11.4 19.6l.1 1.6c.1.6 0 1 0 1.6a26.3 26.3 0 0 1-.4 3c0 .6-.3 1-.4 1.6a12.6 12.6 0 0 1-.4 1.4 23 23 0 0 1-1 2.9 25.8 25.8 0 0 1-7.3 9.2 25.3 25.3 0 0 1-28.7 2 15.2 15.2 0 0 1-1.8-1.2l-1.7-1.3a24.5 24.5 0 0 1-2.8-2.7 25.5 25.5 0 0 1-5.5-11h-.1l-4.7-2.6-1.3-.7Z"/><path fill="#263238" d="m184.6 173.7 9.4.7a6 6 0 0 0-5.6-3.3c-3.3.1-4.2 1.3-4.4 1.7a6.5 6.5 0 0 0 .7-4.6 5 5 0 0 0-2.5-3.8l.7 8.4a4.7 4.7 0 0 0-4.1-3.5c-3.4-.1-6.4 2.7-6.4 2.7l10.1 1.4c-.2 0-9.2-1.7-10.1 6.6l9-5.1a23.6 23.6 0 0 0-4.4 8.6 21.2 21.2 0 0 0-.7 7.5h3.7s-.4-6.4 1-10.6a28.9 28.9 0 0 1 2.3-5l4.3 6.5a6.1 6.1 0 0 0 .4-5.3 4.4 4.4 0 0 0-3.4-2.9Z"/><path fill="#263238" d="M187.6 190.9a9.7 9.7 0 0 0-2.4-1.1 4.1 4.1 0 0 0-2.7.3 17.8 17.8 0 0 1-3.4 1.7 3.6 3.6 0 0 1-2.2-.2 12.2 12.2 0 0 1-1.6-1 4.4 4.4 0 0 0-2.7-.8 8.2 8.2 0 0 0-2.5.8s0-.3.5-.6a4 4 0 0 1 2-.9 4.4 4.4 0 0 1 1.5 0 6.5 6.5 0 0 1 1.6.7c1 .5 2 1.2 3.2 1a24.9 24.9 0 0 0 3.2-1.7 4.6 4.6 0 0 1 3.3-.1 4.1 4.1 0 0 1 1.9 1.1c.3.5.4.8.3.8Z"/><path fill="#263238" d="M187.6 193.4a9.3 9.3 0 0 0-2.4-1.1 4.1 4.1 0 0 0-2.7.3 17.3 17.3 0 0 1-3.4 1.7 3.5 3.5 0 0 1-2.2-.2 13.4 13.4 0 0 1-1.6-1 4.3 4.3 0 0 0-2.7-.8 8 8 0 0 0-2.5.8s0-.3.5-.6a4 4 0 0 1 2-.9 4.4 4.4 0 0 1 1.5 0 6.4 6.4 0 0 1 1.6.7c1 .6 2 1.3 3.2 1a23.7 23.7 0 0 0 3.2-1.6 4.6 4.6 0 0 1 3.3-.2 4.1 4.1 0 0 1 1.9 1.2c.3.4.4.7.3.7ZM330.9 260.5c.5-6 .7-12.4-1.5-18-3.8-9.3-29.7-17.9-39.5-15.6l-8.8 37.3c-1 5.5-2.2 11.1-1.8 16.7s2.2 11.4 6.3 15.2c4 3.7 9.3 5.3 14.5 6.7 6.7 1.8 14.4 3.5 20.1-.4 5-3.5 6.6-10 7.5-16q2.2-12.9 3.2-25.9Z"/><path fill="#455a64" d="M307.8 234a4.8 4.8 0 0 1 .8 0l2.2.3a29 29 0 0 1 3.3.7 17.2 17.2 0 0 1 4.3 1.8 10.1 10.1 0 0 1 5 10.3c-.3 4.5-.9 9.4-1.5 14.5a189.9 189.9 0 0 1-4.7 26 103 103 0 0 1-2.4 7.8l-.7 2a3.5 3.5 0 0 1-.3.7 7.1 7.1 0 0 1 .2-.7l.7-2.1 2.1-7.7a209.3 209.3 0 0 0 4.6-26L323 247a9.7 9.7 0 0 0-4.8-10 16.9 16.9 0 0 0-4.1-1.8 32.2 32.2 0 0 0-3.4-.8l-2.1-.4a3.5 3.5 0 0 1-.8-.2ZM304.6 252.5a6 6 0 0 1 0 1.3l-.6 3.5-1.6 11.6-1.4 11.6-.4 3.5a6.3 6.3 0 0 1-.2 1.3 6.5 6.5 0 0 1 0-1.3l.2-3.5a274.6 274.6 0 0 1 3.7-26.7 5.5 5.5 0 0 1 .3-1.3Z"/><path fill="#ffbf9d" d="M255.2 222.2s-7 1.6-11.5 10.7c-2.3 4.8-13.3 30.7-16.3 32.9s-38.8 37-38.8 37l7.4 8.2s37.5-28.6 41.6-33.6 21.3-34.7 21.3-34.7Z"/><path fill="#f5f5f5" d="M460 405.4c-2.5-6.2-9-10.2-15.7-11.4-2.6-.4-5.3-.5-7.8-1.4s-4.9-2.7-5.4-5.3c-.4-2.4.7-4.7.6-7.1-.1-4.7-4.7-8-9.1-9.5s-9.3-2.5-12.7-5.7c-4.9-4.7-5-12.8-9.7-17.5-3.2-3.2-8-4.3-12.4-4.5s-9 .6-13.5.5a47.8 47.8 0 0 1-28.3-11.8 130.5 130.5 0 0 1-20.9-21.2l31.5 86.6c15 19.8 39 31 63.5 35 9.6 1.6 20 2 28.7-2.4s14.9-15.2 11.2-24.3Z"/><path fill="#ebebeb" d="M469.2 429.5c-5-.8-10.4-.2-15-2.4-9.4-4.5-10.2-17.7-16.8-26a21.6 21.6 0 0 0-19.9-7.6c-2.2.4-4.5 1.2-6.7.5-2.6-.7-4.3-3.1-5.2-5.7s-1-5.2-1.6-7.8c-2.9-12.1-14.6-20-26-24.8s-24-8.4-33-17c-11.4-11-15.8-29.1-30-36.2l28.2 67.5 50.6 34.3 45.4 29.4 23 13.7c3.7.3 7.6.5 11-.7s6.7-4.4 6.6-8.1c-.1-5.1-5.6-8.4-10.6-9.1Z"/><path fill="#455a64" d="m249.3 446 .3 1S236 460.1 237 463.3l32.3-13.5-4.8-10.4a20.3 20.3 0 0 1-15.3 6.7Z"/><path fill="#fff" d="M262.6 444.2a1.4 1.4 0 0 1 1.6 1 1.4 1.4 0 0 1-1.2 1.6 1.5 1.5 0 0 1-1.6-1.2 1.4 1.4 0 0 1 1.4-1.4M269.3 449.8l-1.1-2.5-30.6 13.8s-1.1 1.2-.6 2.2Z" opacity=".6"/><path fill="#263238" d="M249.6 447.2h1.8c1 .1 1.7.7 1.8.6s-.5-1-1.7-1.2-2 .4-2 .6ZM246.7 450c0 .1.9 0 1.7.5s1.2 1 1.4 1-.1-1-1.2-1.5-2-.2-1.9 0ZM246.5 454.7c.1 0 0-.9-.7-1.5s-1.7-.7-1.7-.6l1.3 1 1 1.1Z"/><path fill="#e0e0e0" d="M256.7 292s-11.5 24-20.1 48c0 0-11.7 26.4-13.3 34s-1 10.4-.4 12.8a852.1 852.1 0 0 0 18.5 64.6c14 5 22.8-1.4 34.3.6 24.1 4.2 4.4 13 91 5 21.2-2 32.9 2.4 41.8 2.3 12.2-.2 41.3-2.3 55.8-4 25-3 12-8.5-7.8-16.1-13-5-16-12.2-33.2-29s-24.4-32.3-35.5-41.3-28.5-10.4-44.3-23.8-22.4-41-34.7-52.2-19.6-13.1-19.6-13.1Z"/><path fill="#263238" d="m260.6 303.1-1 1.8-2.6 5-8 16.6a681 681 0 0 1-10.8 21.4l-.9 1.3a2 2 0 0 1-.3.4s.4-.7 1-1.8l2.6-5 8-16.6a866.5 866.5 0 0 1 10.8-21.4 12 12 0 0 1 .9-1.2l.3-.5Z"/><path fill="#455a64" d="M316.9 322.2a3.9 3.9 0 0 1-.4-.5 14.1 14.1 0 0 1-1-1.5 49.7 49.7 0 0 1-3-6 23 23 0 0 0-5.2-8.3 9.3 9.3 0 0 0-5-2.5 9.8 9.8 0 0 0-6 1.2 16 16 0 0 0-4.7 4 24.8 24.8 0 0 0-3 5 66.2 66.2 0 0 0-3.6 9.2l-2 6.4-.7 1.7a3.1 3.1 0 0 1-.3.6 2.4 2.4 0 0 1 .2-.6l.6-1.7 1.9-6.5a63.2 63.2 0 0 1 3.4-9.4 24.4 24.4 0 0 1 3.1-5 16.3 16.3 0 0 1 4.9-4.1 10.3 10.3 0 0 1 6.2-1.3 9.8 9.8 0 0 1 5.3 2.6c2.9 2.6 4.2 5.9 5.3 8.5a56 56 0 0 0 2.7 6l1.3 2.2Z"/><path fill="#455a64" d="M296.3 313.1a8.3 8.3 0 0 1-.3 1.6 239.8 239.8 0 0 0-2.8 18.2 148.2 148.2 0 0 0-.6 18.4 10.2 10.2 0 0 1 0 1.6 8.6 8.6 0 0 1-.2-1.6l-.2-4.3a122.3 122.3 0 0 1 .5-14.2 119.6 119.6 0 0 1 2.1-14l1-4.2a9.3 9.3 0 0 1 .5-1.5Z"/><path d="M315.9 312a14.8 14.8 0 0 0-3.2-7.5c-3.4-4-9.5-5-14.4-3.1s-8.8 5.9-11 10.5-3.5 10-4.2 15l5-13.1c2.4-5.2 6.7-9 10.9-9.6a11.7 11.7 0 0 1 11.3 4.7c2.4 3.6 2.8 8.4 5.8 11.4a44 44 0 0 0-.2-8.2Z" opacity=".2"/><path fill="#455a64" d="M262.2 389.5c-.2 0 3-9.6 7-21.2s7.3-21.2 7.5-21.1-3 9.6-7 21.2-7.4 21.2-7.5 21.1ZM373 421.5a4.5 4.5 0 0 1-.7-.4l-1.9-1.4-3-2.3-3.7-3.1c-1.4-1.1-3-2.5-4.5-4l-5-4.7a195.8 195.8 0 0 1-20.4-23.9c-1.3-2-2.7-3.8-3.8-5.6l-3.2-5-2.5-4.3-1.8-3.3-1-2a6.3 6.3 0 0 1-.4-.8 4 4 0 0 1 .4.7l1.2 2 1.9 3.2 2.5 4.2 3.2 5a202.1 202.1 0 0 0 24.2 29.4l5 4.8 4.4 4c1.4 1.3 2.7 2.2 3.8 3.1l2.9 2.4 1.8 1.5a5 5 0 0 1 .6.5ZM463.5 444a1.6 1.6 0 0 1-.5 0l-1.4.1-5.3.1a166 166 0 0 1-34.4-3.6l-5.1-1.2-1.4-.4a1.6 1.6 0 0 1-.5-.2 2 2 0 0 1 .5.1l1.4.3 5.1 1a201.2 201.2 0 0 0 34.4 3.6l5.3.1h1.4a1.8 1.8 0 0 1 .5.1ZM284.3 420.3a2.1 2.1 0 0 1-.4-.3l-1.1-.9-3.9-3.5a141.7 141.7 0 0 1-21.8-26.4l-2.7-4.4-.7-1.2a2 2 0 0 1-.2-.5s.2.1.3.4l.8 1.2 2.9 4.3a165.8 165.8 0 0 0 21.7 26.3l3.7 3.6 1 1 .4.4Z"/><path d="M295.3 318.5a94.4 94.4 0 0 0 .5 45.5 76.6 76.6 0 0 0 24 38.4 173.3 173.3 0 0 1-24.5-83.9M333.2 379.9l5.6 7.4c20.6 31 57.9 52 95 54A252.2 252.2 0 0 1 333.3 380Z" opacity=".2"/><path fill="#fff" d="m471.2 444.6-.6.1-1.7.4-6.7 1.5c-5.8 1.2-14.3 3-24.8 4.3a145 145 0 0 1-17.4 1.2 156.4 156.4 0 0 1-20-1.3c-7-.8-14.2-1.8-21.9-2.1a87 87 0 0 0-11.6.2 112.1 112.1 0 0 0-11.8 1.9c-8 1.6-15.7 3.5-23.4 4a51.6 51.6 0 0 1-11.3-.4 68.7 68.7 0 0 1-10.5-2.6c-6.6-2.3-12.8-4.9-18.8-6.5a112.1 112.1 0 0 0-17-3.4 115 115 0 0 0-25.1-.3l-4 .5-2.8.4-1.8.3h-.6a86.9 86.9 0 0 1 9.1-1.4 112.4 112.4 0 0 1 25.2.2 111.2 111.2 0 0 1 17 3.3c6.2 1.6 12.3 4.2 19 6.4a67.6 67.6 0 0 0 10.4 2.6 50.7 50.7 0 0 0 11.2.4c7.6-.5 15.3-2.4 23.3-4a112.4 112.4 0 0 1 11.9-2 88.2 88.2 0 0 1 11.7-.1c7.6.3 15 1.3 22 2.1a157.8 157.8 0 0 0 19.8 1.4 145.2 145.2 0 0 0 17.3-1.1c10.6-1.3 19-3 24.8-4.2l6.7-1.4 1.8-.3.6-.1Z"/><path fill="#fff" d="M308.1 442.4a4.6 4.6 0 0 1-.6-.3l-2-1-1.3-.6-1.7-.8c-1.1-.5-2.5-1.2-4-1.7l-2.4-1-2.7-1-5.9-1.7a100 100 0 0 0-13.8-2.7 101.7 101.7 0 0 0-14.2-.5l-6.1.4-2.8.4-2.6.3-4.3.9-1.8.3-1.5.4-2 .5a3.6 3.6 0 0 1-.8.1 4.7 4.7 0 0 1 .7-.2l2-.6 1.5-.4 1.8-.4 4.3-1 2.6-.4 2.8-.3c2-.3 4-.4 6.2-.5a90.8 90.8 0 0 1 28.1 3.2l6 1.9 2.6 1 2.4 1 4 1.8 1.7.8 1.3.8 1.9 1a3.9 3.9 0 0 1 .6.3ZM435.3 442.1a1.6 1.6 0 0 1-.3.1l-.9.3-3.4 1a88.3 88.3 0 0 1-13 2 91.2 91.2 0 0 1-19.6-.3 100 100 0 0 1-11.4-2.1c-3.9-1-7.9-2-12-2.6a34.2 34.2 0 0 0-12.3.3c-4 .8-7.6 2.1-11 3.2a57.6 57.6 0 0 1-19.5 2.4 56.9 56.9 0 0 1-13-2.1l-3.4-1.2-.9-.3-.3-.1h.4l.8.3c.8.3 2 .7 3.5 1a59.8 59.8 0 0 0 13 2 58 58 0 0 0 19.2-2.5c3.5-1 7.2-2.4 11.1-3.2a34.7 34.7 0 0 1 12.4-.3c4.3.6 8.3 1.7 12.2 2.6a104.2 104.2 0 0 0 11.3 2.2 94.7 94.7 0 0 0 32.5-1.6l3.5-.8.9-.2ZM452 437.6a11.5 11.5 0 0 1-6.5 6.5c0-.1 1.8-1.1 3.6-3s2.8-3.5 2.9-3.5Z"/><path d="M340.3 448.6c-9.4-9-20.2-16.5-30.2-24.7s-19.7-17.4-26-28.8a82.4 82.4 0 0 1-8.7-44.2c-4.5 13.5-13.4 36.7-14 43-.5 3.8 14 17.3 21 24.5s13 13.8 21.4 19.4c8.6 7.3 22.4 10.5 36.5 10.8Z" opacity=".2"/><path fill="#263238" d="M295.9 198.9c.4 2.5 4.5 3.4 6.8 3.2 1.8-.1 3.5-1 5.3-1a5.5 5.5 0 0 1 5.1 4 2.7 2.7 0 0 0-.3-3.5 5.5 5.5 0 0 0-3.6-1.4c-1.3 0-2.6 0-3.9-.2a4.2 4.2 0 0 1-2.4-1 2 2 0 0 1-.4-2.6"/><path fill="#263238" d="M308.8 182.1a8.6 8.6 0 0 0-6.6-3.6c-2.6 0-7 1.4-7.5 4l.9 15.7c0 1.6 2 2.4 3.7 2.4a11.5 11.5 0 0 0 9.4-18.4Z"/><path fill="#263238" d="M297.5 185a16 16 0 0 0-3-9.1c-2.7-4-5.7-5.5-8.6-7a21 21 0 0 0-10.4-2.9c-4 .2-8.2.8-11.8 2.7-5.8 3.2-8 12.3-8.8 18.9s-1 10.8.8 17.2l26.9 6.4A17 17 0 0 0 296 198c.9-4.5 1.7-7.4 1.4-13Z"/><path fill="#ffbf9d" d="m287.3 177.6-12-7.2-1.4 1c-7.5-1.3-14.9 3.3-16.8 12.6a83.8 83.8 0 0 0-2.4 18.7 13.7 13.7 0 0 0 9.7 12.8s-.4 3.9-.8 7.6l14.1 12.2a205 205 0 0 1 6.3-11.7l6-42a3.6 3.6 0 0 0-2.7-4Z"/><path fill="#263238" d="M271 193.6a1.3 1.3 0 0 0 1.1 1.5 1.3 1.3 0 0 0 1.5-1 1.3 1.3 0 0 0-1.1-1.5 1.3 1.3 0 0 0-1.5 1ZM258.4 192a1.3 1.3 0 0 0 1.2 1.4 1.3 1.3 0 0 0 1.4-1 1.3 1.3 0 0 0-1-1.5 1.3 1.3 0 0 0-1.6 1ZM258 186.9c.1.2 1.2-.4 2.6-.3s2.4 1 2.6.8 0-.4-.5-.7a3.7 3.7 0 0 0-2-.9 3.4 3.4 0 0 0-2.1.4c-.5.3-.6.6-.6.7ZM272.2 189.3c.1.2 1.1-.5 2.6-.5s2.4.7 2.6.5-.1-.4-.6-.7a3.6 3.6 0 0 0-2-.7 3.5 3.5 0 0 0-2.1.7c-.4.3-.6.6-.5.7ZM265.7 198.7a9 9 0 0 0-2.3-.6c-.3-.1-.7-.2-.7-.5a1.8 1.8 0 0 1 .4-1l1.3-2.6c2-3.7 3.3-6.8 3.2-7a48.1 48.1 0 0 0-3.7 6.7l-1.3 2.7a2 2 0 0 0-.4 1.4 1 1 0 0 0 .5.5 2.3 2.3 0 0 0 .7.2 9.4 9.4 0 0 0 2.3.2Z"/><path fill="#ff9a6c" d="M264.4 215.5a27.2 27.2 0 0 0 14-2.4s-4.2 7.2-14.3 5ZM265.9 202.2c1-.5 2.2-1.3 3-1.1.7.1.6.9.9 1.4a1 1 0 0 1-.1 1.4 2.4 2.4 0 0 1-2.2.7c-.7-.3-.9-1-1.4-1.4a1.6 1.6 0 0 1-.3-.5.5.5 0 0 1 0-.5"/><path fill="#263238" d="M271.7 182.7c.2.4 1.6.2 3.2.5s3 .6 3.3.3c0-.2-.2-.5-.7-1a5.7 5.7 0 0 0-5-.5c-.5.3-.8.6-.8.7ZM260 181.4c.3.3 1.3 0 2.5.2s2.1.5 2.4.1c0-.1 0-.4-.4-.8a3.5 3.5 0 0 0-3.9-.3c-.5.3-.6.6-.5.8Z"/><path fill="#263238" d="M287 199.3s-7.5 1-8.7-17.2c-.5-6.3-5.3-12.1-5.3-12.1l2.4-.3s13.5 6.2 13.7 6.4 2.4 8 2.4 8Z"/><path fill="#ffbf9d" d="M285.3 198.3c0-.7 1.2-2.4 2-2.4 2-.1 5.6.4 5 5.5-.7 7-7.5 4.8-7.5 4.6s.2-5 .5-7.7Z"/><path fill="#ff9a6c" d="m287.2 203.6.3.2a1.2 1.2 0 0 0 .9.1 3 3 0 0 0 1.7-2.5 4.1 4.1 0 0 0-.2-1.8 1.4 1.4 0 0 0-.8-1 .6.6 0 0 0-.8.3v.3s-.2-.1-.1-.4a.8.8 0 0 1 .3-.4 1 1 0 0 1 .7-.1 1.7 1.7 0 0 1 1.1 1.2 4.2 4.2 0 0 1 .2 2c-.1 1.4-1 2.6-2 2.8a1.3 1.3 0 0 1-1.1-.3l-.2-.4Z"/><path fill="#455a64" d="m296 178.7.4.7a6.8 6.8 0 0 1 .5 1 13 13 0 0 1 .4 1.2 19.5 19.5 0 0 1 .8 3.5 25.5 25.5 0 0 1 .2 4.3 29.3 29.3 0 0 1-1.5 7.8 22 22 0 0 1-.8 2.2l-.5.8 1-3.1a34.4 34.4 0 0 0 1.3-7.7 28.2 28.2 0 0 0-.2-4.3 21.9 21.9 0 0 0-.6-3.4l-1-3ZM278.4 184l1.4.5a11.7 11.7 0 0 0 4 .4 10.9 10.9 0 0 0 5.5-1.8 11.3 11.3 0 0 0 4.4-5.6l.4.3-2 1a14.6 14.6 0 0 1-4.1 1.2 8.7 8.7 0 0 1-4-.4 13 13 0 0 1-5.5-4 27.6 27.6 0 0 1-2.6-3.6 10.7 10.7 0 0 1-.8-1.5 9.4 9.4 0 0 1 1 1.4 35.6 35.6 0 0 0 2.7 3.5 12.8 12.8 0 0 0 5.4 3.7 8.2 8.2 0 0 0 3.8.4 13.9 13.9 0 0 0 4-1.2l1.9-1 .6-.3-.2.6a11.6 11.6 0 0 1-4.7 5.8 11.3 11.3 0 0 1-9.8 1.2 7.7 7.7 0 0 1-1-.5 1.3 1.3 0 0 1-.4-.1Z"/><path fill="#fff" d="M290.5 207.2a2.4 2.4 0 1 1-2.3-2.4 2.4 2.4 0 0 1 2.3 2.3Z"/><path fill="#263238" d="m290.5 207.2-.2-.6a2.3 2.3 0 0 0-.8-1.2 2.2 2.2 0 0 0-2-.3 2.1 2.1 0 0 0-.1 4 2.2 2.2 0 0 0 2-.2 2.3 2.3 0 0 0 .9-1.2c0-.3.1-.5.2-.5a1 1 0 0 1 0 .6 2.4 2.4 0 0 1-1 1.4 2.5 2.5 0 0 1-2.3.4 2.6 2.6 0 0 1 0-5 2.5 2.5 0 0 1 2.5.5 2.3 2.3 0 0 1 .8 1.5 1 1 0 0 1 0 .6ZM308.6 187.3c.6 1.1 1.4 2.3 2.6 2.5a4.7 4.7 0 0 0 2.6-.6 3.4 3.4 0 0 1 2.5-.4c1 .4 1.4 1.4 2.2 2a3.5 3.5 0 0 0 2.4.4 10.2 10.2 0 0 0 2.5-.7 1.9 1.9 0 0 1-.8 1.4 3.7 3.7 0 0 1-1.5.5 7.4 7.4 0 0 1-4-.3 10.7 10.7 0 0 0-2.4-.8 7.3 7.3 0 0 0-3.7.9 4.3 4.3 0 0 1-3.6.3"/><path fill="#455a64" d="M310 185.2a4.5 4.5 0 0 1-.7 2.3 10.5 10.5 0 0 1-4 4 20.7 20.7 0 0 1-5.3 2 9.5 9.5 0 0 1-2.3.4 11.7 11.7 0 0 1 2.2-.7 25.8 25.8 0 0 0 5.1-2.1 11.3 11.3 0 0 0 4-3.8l1-2Z"/><path fill="#455a64" d="M307.7 189a18.6 18.6 0 0 0-3-5.7 18.3 18.3 0 0 0-5-3.8 4.8 4.8 0 0 1 1.8.6 12 12 0 0 1 6 7 5 5 0 0 1 .2 1.9Z"/><path fill="#263238" d="M293.1 203c-.7-1.1-1.4-2.5-2.7-3-.7-.3-1.6-.3-2.3-.6a4.5 4.5 0 0 1-2.6-3.6 13.3 13.3 0 0 1 .4-4.6l-6.7-4.4c-.3 2.2 1.2 8 1.8 10.2s2.4 4 4.7 4.2a9.8 9.8 0 0 1 2 .2c1.3.4 2 1.8 2.9 2.7a5 5 0 0 0 6 1c-1.4.2-2.7-1-3.5-2.1ZM267 205a11.4 11.4 0 0 1 1.4-.5 2 2 0 0 0 1.1-1 1.8 1.8 0 0 0-.2-1.6l-.3-.5a1.4 1.4 0 0 0-.7.2l-1.3.4a17.8 17.8 0 0 1-1.7.6h-.6l.5-.2h.2l-.1.1a15 15 0 0 1 1.5-.9l1.4-.6a1.8 1.8 0 0 1 1-.2.8.8 0 0 1 .4.3 3.7 3.7 0 0 1 .3.5 3.2 3.2 0 0 1 .3 1 1.8 1.8 0 0 1-.2 1.1 2.4 2.4 0 0 1-1.4 1 3 3 0 0 1-1.6.3Z"/><path fill="#d8b4a1" d="M296.2 181.4a4.8 4.8 0 0 0-1.2 3.4c0 .4.2 1 .7 1a.8.8 0 0 0 .6-.5 4.8 4.8 0 0 0 .8-2.5 4.6 4.6 0 0 0 1.3 2.1 1.6 1.6 0 0 0 2.2-.2 1.5 1.5 0 0 0-.2-1.7 4.4 4.4 0 0 0-1.5-1 4.7 4.7 0 0 0 2 .2 1.7 1.7 0 0 0 1.4-1.3c0-.9-.9-1.6-1.7-1.7a4.8 4.8 0 0 0-2.5.9 3.9 3.9 0 0 0 .8-3c0-.6-.4-1.2-1-1.3a1.2 1.2 0 0 0-.9.6 3.1 3.1 0 0 0-.3 3 4.5 4.5 0 0 0-1.3-1.8 1.5 1.5 0 0 0-2 .2 1.7 1.7 0 0 0 0 1.7 3.5 3.5 0 0 0 2 1.8M303 185.4a2.6 2.6 0 0 0-.6 1.9c0 .2.2.5.4.5s.2-.1.3-.3a2.6 2.6 0 0 0 .4-1.3 2.4 2.4 0 0 0 .8 1.1.7.7 0 1 0 1-1 2.5 2.5 0 0 0-.8-.5 2.5 2.5 0 0 0 1 0 .9.9 0 0 0 .8-.6c0-.5-.4-.9-.9-.9a2.5 2.5 0 0 0-1.3.4 2 2 0 0 0 .4-1.6c0-.3-.2-.6-.5-.6a.6.6 0 0 0-.5.3 1.7 1.7 0 0 0-.2 1.6 2.3 2.3 0 0 0-.7-1 .8.8 0 0 0-1 0 1 1 0 0 0 0 1 2 2 0 0 0 1 1"/><path fill="#fff" d="M297.7 180.7a1 1 0 0 0-.3-.5.4.4 0 0 0-.5.1.9.9 0 0 0 0 .9.7.7 0 0 0 .3.4.4.4 0 0 0 .5-.1.5.5 0 0 0 .1-.4 1.4 1.4 0 0 0 0-.4Z"/><path fill="#ffbf9d" d="m245.3 252.6.5-15.2 9.4-15.2 8.5.2 20.8.4 12.6 4.4 3.9 13.1-4.6 15-19.3 14.5-18.4-4.5-13.4-12.7z"/><path fill="#e0e0e0" d="M244.1 258c0 .3-1.2-11.4 4.2-13.7 5-2.2 15 4 15 4s10.4-4.8 17.5-3.3 13.2 8.6 13.2 8.6l2.4 1.7-4.2 24.5 5.9 5.1c2 .9-30 21.9-37.8 21.5s-2.8-11.5-2.8-11.5a118.7 118.7 0 0 0-5.8-18.9c-2.9-6.7-7.6-10.3-7.6-18Z"/><path fill="#fff" d="M296 258.1a8 8 0 0 1-1.2-1l-2.9-2.8a40.7 40.7 0 0 0-4.7-3.6 21.7 21.7 0 0 0-6.6-3 18.3 18.3 0 0 0-7.1-.3 26.2 26.2 0 0 0-5.8 1.6 38.2 38.2 0 0 0-3.6 1.7 8.5 8.5 0 0 1-1.3.7 7 7 0 0 1 1.2-.9 29.6 29.6 0 0 1 3.6-1.8 24.8 24.8 0 0 1 5.8-1.8 18.2 18.2 0 0 1 7.4.3 21.4 21.4 0 0 1 6.7 3 37.2 37.2 0 0 1 4.7 3.8l2.8 3a9.4 9.4 0 0 1 1 1.1Z"/><path fill="#ff9a6c" d="M267.6 239.5a28.6 28.6 0 0 0-2.8 4 29.8 29.8 0 0 0-1.7 4.6 10.4 10.4 0 0 1 4.5-8.6Z"/><path fill="#263238" d="M292.2 279.8a1.4 1.4 0 0 1-.1.5 6.4 6.4 0 0 1-.6 1.4 14.3 14.3 0 0 1-3.5 4.1 42.8 42.8 0 0 1-6.9 4.1c-2.6 1.4-5.5 3.1-8.4 5a144.8 144.8 0 0 0-12 8.4l-.3.2v-.3L258 296l-.6-2a3.3 3.3 0 0 1-.2-.7 3.3 3.3 0 0 1 .3.7l.7 2 2.5 7.2h-.3a126.8 126.8 0 0 1 12-8.6c3-1.9 5.8-3.6 8.5-5a45.3 45.3 0 0 0 6.9-4 15.1 15.1 0 0 0 3.6-4 11.8 11.8 0 0 0 .8-1.7ZM269.7 268a4.5 4.5 0 0 1-1.8-.5 12.3 12.3 0 0 1-3.7-2.5 11.9 11.9 0 0 1-2.6-3.7 4.3 4.3 0 0 1-.5-1.8 16 16 0 0 0 8.6 8.5Z"/><path fill="#fff" d="M292 275.1a1.5 1.5 0 0 1-.1.5 8.7 8.7 0 0 1-.6 1.3 11.7 11.7 0 0 1-3.5 3.8c-1.8 1.3-4.1 2.5-6.6 4l-8.1 4.8-11 6.3-.2.1-.1-.1-2.8-3.9-2-3-1.3-1.9a4.5 4.5 0 0 1-.5-.7 3.1 3.1 0 0 1 .6.6l1.4 1.9 2.1 3 2.8 3.8-.3-.1 11-6.4 8.2-4.8c2.5-1.5 4.8-2.6 6.6-3.9a12 12 0 0 0 3.6-3.6c.6-1 .8-1.7.8-1.7Z"/><path fill="#263238" d="M269.4 314.7a76.8 76.8 0 0 1-.4-9 81.3 81.3 0 0 1 .2-9 75.6 75.6 0 0 1 .3 9 80 80 0 0 1-.1 9ZM273.4 299c-.1.1-.6-.8-1-2a4.8 4.8 0 0 1-.5-2c.1-.1.6.8 1 2a5 5 0 0 1 .5 2Z"/><path fill="#fff" d="m263 251.8-2-1.8a18 18 0 0 0-5.8-3 18.2 18.2 0 0 0-6.4-.7c-1.7 0-2.7.4-2.7.3l.7-.3a10.6 10.6 0 0 1 2-.4 16.3 16.3 0 0 1 12.4 3.9 11.3 11.3 0 0 1 1.4 1.4l.4.6Z"/><path fill="#ffbf9d" d="M290.5 228s3.6-3.2 11.4 1c8.4 4.5 30.8 22.7 32 26.7S311.2 295 311.2 295l-7.7-6 13.2-30.3S293.9 247 292 245.4s-1.6-17.4-1.6-17.4Z"/><path fill="#ff9a6c" d="M323 256.5a13.7 13.7 0 0 0-3.7.7 14.5 14.5 0 0 0-3.1 2.2s.1-.5.6-1a6.6 6.6 0 0 1 5.1-2.2l1.2.3Z"/><path fill="#263238" d="M288.1 259c-3-9.8.6-20.7 6.9-28.8a28.6 28.6 0 0 0 1.9-3c.3-1.7-2.7-3.5-4.3-3.7a7 7 0 0 0-4 .4c-6 4.8-9 13-9.2 20.7s2.1 15.3 5.7 22 10.4 10.8 15.1 16.9l1.7-1.8c-2-8.9-11.1-14-13.8-22.6Z"/><path fill="#ff9a6c" d="M316.4 258.9a3.8 3.8 0 0 1-1-.4l-2.3-1.3-7.8-4.4-8-4.2-2.3-1.3a4 4 0 0 1-.8-.5 3.3 3.3 0 0 1 .9.3l2.5 1.2 8 4 7.7 4.6 2.3 1.4a3.7 3.7 0 0 1 .8.6Z"/><path fill="#455a64" d="M296.9 277.4a2.7 2.7 0 0 1-.6-.3l-1.5-1a31.7 31.7 0 0 1-5-4.4 34.6 34.6 0 0 1-9.3-19.9 34.3 34.3 0 0 1 1-12.2 34.8 34.8 0 0 1 4-9.2 32 32 0 0 1 4-5.3l1.3-1.3a3.6 3.6 0 0 1 .5-.4s-.6.6-1.6 1.8a35.5 35.5 0 0 0-7.7 14.6 33.2 33.2 0 0 0 2.4 23.5 35.5 35.5 0 0 0 5.6 8.2 35 35 0 0 0 4.9 4.5l2 1.4Z"/><path fill="#ffbf9d" d="M303.7 288.6s-8.4 3.9-9.8 9l-2.6 8.3a3.3 3.3 0 0 0 3.6-1.6 43.3 43.3 0 0 0 2.4-4.1l-.8 6.7c-1.7.5-1.8 1.5-1.5 2.3.6 1.4 3.4 1.3 3.4 1.3s1 1.7 3.3.2a2.7 2.7 0 0 0 3.1 0s1.1 1 2.7-.5 2.4-3.9 2.7-7.4c.3-3.1 2-11 2-11Z"/><path fill="#ff9a6c" d="M301 306.5v.8a4.5 4.5 0 0 1-.5 1.8 2.8 2.8 0 0 1-1.4 1.3c-.4.2-.8.1-.8 0l.7-.3a3.2 3.2 0 0 0 1-1.3c.7-1.2.8-2.4 1-2.3ZM303.2 308.4c.2 0 .1.8-.4 1.6s-1.3 1-1.4.8.5-.5 1-1.2.7-1.2.8-1.2ZM305.5 308.4c.1 0 .3.7 0 1.5s-1 1.2-1.1 1 .3-.5.6-1.2.4-1.3.5-1.3Z"/><path fill="#263238" d="M251.8 223.2a27.4 27.4 0 0 0-6.1 12.2c-.7 4.3-.1 9.3-.2 10.1l1-2.6c2.8-4.8 8.3-14.9 14.7-20.6-2-1.7-7.4-1.3-9.4.9Z"/><path fill="#ffbf9d" d="M83.8 322.5c-.1.3-1.3 3.7-2.5 4.2a2.5 2.5 0 0 1-2.3-.5 4.1 4.1 0 0 1-2.6.8 4.4 4.4 0 0 1-2.3-1.4h-1.2a2.4 2.4 0 0 1-2.3-1 4.4 4.4 0 0 0-1.7-2c-1.1-.7-.6-4.7-.5-6.6s.2-4.6 3-6a78.5 78.5 0 0 1 9-3.3l10 4.8s.5 1.9-1.4 5.3a19.1 19.1 0 0 1-5.2 5.7Z"/><path fill="#263238" d="m84.8 331.3-2.7-.7.7-2.7c.8-2.8-.6-5.6-3-6.3l-10-2.6c-2.4-.6-5 1.2-5.7 4l-.7 2.7-2.8-.7.7-2.7c1.2-4.6 5.4-7.5 9.3-6.5l10 2.7c4 1 6.2 5.6 5 10.2Z"/><rect width="88.1" height="62.1" x="21.6" y="325.9" fill="#455a64" rx="11.9" transform="rotate(14.7 65.7 356.9)"/><path fill="#fff" d="m28.2 326-1.5 5.9 20.2-12-5.7-1.5a10.7 10.7 0 0 0-13 7.6ZM114.2 345.7a7.8 7.8 0 0 0-5.6-9.6l-6.7-1.7 10.5 18.2ZM86.3 394.5l4.1 1a10.3 10.3 0 0 0 12.6-7.3l1.1-4.2ZM31 380l-11.7-20.1-1.7 6.5a9.7 9.7 0 0 0 7 11.9Z" opacity=".3"/><path fill="#263238" d="m50.1 320.3 6.3 1.7-16 61-6.3-1.6z"/><path fill="#455a64" d="M48.5 339.3a3.2 3.2 0 0 1 .7 0 3.4 3.4 0 0 0 1.7-.5c1.5-.8 1.6-3.3 2.4-5.8l.1.3-3.1-.8-3.2-.8.3-.2c-.6 2.5-1.7 4.8-.8 6.2A3.4 3.4 0 0 0 48 339l.6.3a1.4 1.4 0 0 1-.7-.2 3.3 3.3 0 0 1-1.5-1.2 3.5 3.5 0 0 1-.3-3l1-3.5v-.2h.2l3.2.8 3.2.9h.2v.3l-1 3.5a3.5 3.5 0 0 1-1.8 2.4 3.3 3.3 0 0 1-1.9.4 1.5 1.5 0 0 1-.6-.2ZM53.2 324.6a.7.7 0 0 1-1 .5.7.7 0 1 1 .4-1.4.7.7 0 0 1 .6 1ZM52.1 328.5a.7.7 0 1 1-.5-.9.7.7 0 0 1 .5 1Z"/><path fill="#e0e0e0" d="m53.1 334-5.9-1.6a1.3 1.3 0 0 1-.9-1.6 1.3 1.3 0 0 1 1.6-.9l5.9 1.6a1.3 1.3 0 0 1 .9 1.5 1.3 1.3 0 0 1-1.6 1Z"/><path fill="#263238" d="m90.8 331 6.3 1.6-16 61.2-6.3-1.7z"/><path fill="#455a64" d="M89.3 350h.6a3.4 3.4 0 0 0 1.8-.5c1.5-.8 1.6-3.3 2.3-5.8l.2.4-3.2-.9-3.2-.8.3-.2c-.5 2.6-1.7 4.8-.7 6.2a3.4 3.4 0 0 0 1.2 1.3 6.2 6.2 0 0 1 .6.3 1.4 1.4 0 0 1-.7-.2 3.3 3.3 0 0 1-1.4-1.2 3.6 3.6 0 0 1-.3-3l.9-3.5v-.3l.3.1 3.1.8 3.2.9h.2v.3l-1 3.5a3.5 3.5 0 0 1-1.7 2.4 3.2 3.2 0 0 1-2 .4 1.3 1.3 0 0 1-.5-.2ZM94 335.3a.7.7 0 1 1-.6-.9.7.7 0 0 1 .5 1ZM93 339.2a.7.7 0 0 1-1 .6.7.7 0 1 1 .4-1.5.7.7 0 0 1 .5 1Z"/><path fill="#e0e0e0" d="m93.9 344.6-5.9-1.5a1.3 1.3 0 0 1-.9-1.6 1.3 1.3 0 0 1 1.6-.9l5.8 1.6a1.3 1.3 0 0 1 1 1.5 1.3 1.3 0 0 1-1.6 1Z"/><path fill="#263238" d="M88.8 395.1a17.4 17.4 0 0 0 2.8.4 12 12 0 0 0 7.5-2.6 11.7 11.7 0 0 0 3.6-4.5 18.2 18.2 0 0 0 1-3.2l.9-3.5 4.3-16.5 2.5-9.6 1.3-5.2a13.1 13.1 0 0 0 .5-5.3 11.8 11.8 0 0 0-6.3-8.9 14.6 14.6 0 0 0-2.7-1l-3-.8-6-1.5L42.6 319a12.2 12.2 0 0 0-7 .5 13.2 13.2 0 0 0-3 1.6 13.8 13.8 0 0 0-2.5 2.4 13 13 0 0 0-1.6 3 31.9 31.9 0 0 0-1 3.3l-1.8 6.7L19 362a19 19 0 0 0-1 6 11.7 11.7 0 0 0 1.8 5.6 11.4 11.4 0 0 0 4 3.9 20.8 20.8 0 0 0 5.4 1.8l20 5.3 29 7.7 7.8 2 2 .6.7.2-.7-.1-2-.5-7.9-2-29-7.6-20-5.2-2.7-.7a11.6 11.6 0 0 1-2.7-1.1 11.8 11.8 0 0 1-4.3-4.1 11.8 11.8 0 0 1-1.6-9l.8-3 6.7-25.3 1.7-6.7a33.2 33.2 0 0 1 1-3.3 12.7 12.7 0 0 1 4.3-5.7 13.8 13.8 0 0 1 3.2-1.7 12.8 12.8 0 0 1 7.2-.5l52.7 13.9 6 1.5 3 .8 1.4.5a14.3 14.3 0 0 1 1.4.6 12.2 12.2 0 0 1 6.5 9.2 13.3 13.3 0 0 1-.5 5.5l-1.4 5.1-2.5 9.6-4.4 16.5-1 3.5a18 18 0 0 1-1 3.2 11.8 11.8 0 0 1-3.6 4.6 12 12 0 0 1-7.6 2.5 10.9 10.9 0 0 1-2.2-.2Z"/><path fill="#ffbf9d" d="M74.6 324.6a17 17 0 0 0 1.8-3.6l.7-1.8a4 4 0 0 1 1.2-1.5 2.2 2.2 0 0 1 1.8-.4 1.5 1.5 0 0 1 1.2 1.3 1.4 1.4 0 0 1 1.8-.2 2.2 2.2 0 0 1 .9 1.6 5.5 5.5 0 0 1-.2 2 12.8 12.8 0 0 1-1 2.8 4 4 0 0 1-1.6 1.9 1.8 1.8 0 0 1-2.3-.6 2.7 2.7 0 0 1-2 .6"/><path fill="#ffbf9d" d="M77.2 317a2 2 0 0 0-1.5-1.6 2.6 2.6 0 0 0-2.2 1.3 18.4 18.4 0 0 0-2.4 5.8l.3 1.2a4.6 4.6 0 0 0 1.2.8 1.6 1.6 0 0 0 1.4 0 2.4 2.4 0 0 0 .8-1 19.4 19.4 0 0 0 2-3.7 7.3 7.3 0 0 0 .4-2.9Z"/><path fill="#ff9a6c" d="M79 326.2a10.5 10.5 0 0 1 .5-2.1l1.3-5 .3-.7a1 1 0 0 1 0-.3.6.6 0 0 1 .2-.2.9.9 0 0 1 .5 0 3.1 3.1 0 0 1 1.4.4 2 2 0 0 1 .9 1 3.2 3.2 0 0 1 .2 1 6.2 6.2 0 0 1-.3 1.7l-.2.5.1-2a2 2 0 0 0-1-1.9 3 3 0 0 0-1.1-.3.4.4 0 0 0-.3 0v.2l-.3.7c-.5 2-1 3.7-1.5 5a10.5 10.5 0 0 1-.7 2Z"/><path fill="#ff9a6c" d="M74 325.6a7.8 7.8 0 0 1 .7-1.7c.4-1 1-2.5 1.8-4v-.2a5 5 0 0 1 1.3-2.2 2.1 2.1 0 0 1 2-.5 2.7 2.7 0 0 1 1.2.8l.3.4-.4-.3a2.8 2.8 0 0 0-1.1-.6 1.8 1.8 0 0 0-1.7.5 4.7 4.7 0 0 0-1.1 2v.2l-2 4a6.6 6.6 0 0 1-1 1.6Z"/><path fill="#ff9a6c" d="M70.5 324.7a15 15 0 0 1 1.6-2.2A226.2 226.2 0 0 1 74 316v-.1a3.9 3.9 0 0 1 1.5-.5 2 2 0 0 1 1.4.3 1.5 1.5 0 0 1 .6 1 3.1 3.1 0 0 1 0 1.1 6.4 6.4 0 0 1-.4 1.5l-.3.4s.3-.7.5-1.9c0-.6 0-1.4-.6-1.8a2.5 2.5 0 0 0-2.4.3l.1-.2-.3 1.4-1.5 5.3a14.4 14.4 0 0 1-2 2Z"/><path fill="#ffbf9d" d="M80 308s-8.2 3-8.4 3.1-3 7.5-2.8 9.4.9 4.3.9 4.3 1.8.8 2.8-2.2 1.6-6 1.6-6l2.8-1s6.2 2.3 9.5-3"/><path fill="#ff9a6c" d="M86.4 312.6a3.3 3.3 0 0 1-.4.7 4.7 4.7 0 0 1-.6.7 5.8 5.8 0 0 1-1 .8 7.3 7.3 0 0 1-3.2 1.3 10.1 10.1 0 0 1-4.4-.4h.2l-2.8 1 .1-.2-1.2 4.6a17.3 17.3 0 0 1-.8 2.4 3.4 3.4 0 0 1-.8 1.1 2 2 0 0 1-1.4.5 1.7 1.7 0 0 1-.5-.1v-.1l-.6-2.4-.2-1.1a7 7 0 0 1-.2-1.2 9.4 9.4 0 0 1 .4-2.2l.6-2 1.4-3.8.3-.8.1-.2a.5.5 0 0 1 .1-.1l.1-.1.5-.2 1.5-.6 4.7-1.6 1.3-.4a2.5 2.5 0 0 1 .4-.1s-.1 0-.4.2l-1.3.5-4.6 1.7-1.5.6-.4.2-.2.2c0 .3-.2.5-.3.8L70 316l-.6 2a9.8 9.8 0 0 0-.4 2.2 6.6 6.6 0 0 0 .2 1.1l.2 1.1.5 2.4-.1-.2a1.6 1.6 0 0 0 .3 0 2 2 0 0 0 1.8-1.2 17 17 0 0 0 .8-2.4l1.2-4.5v-.2h.1l2.8-1h.1a10 10 0 0 0 4.3.5 7.3 7.3 0 0 0 3.1-1.1 11 11 0 0 0 2.1-2Z"/><path fill="#d8b4a1" d="m77.2 306.7 19.2-31.5-.4-26.9 19.8 17.8-4.5 27.8-20 21-14.1-8.2z"/><path fill="#d8b4a1" d="m100.4 223.8-.7-7.6a66.1 66.1 0 0 0-4.2 29.5l.8 10.5 8.6 66.1 22-6 .4-19.6Z"/><path d="M105.8 316.5s-2.3-21-3.5-29.4-3-33-3-33 15.7 54.4 15.4 54.5-8.9 7.9-8.9 7.9Z" opacity=".3"/><path fill="#263238" d="M104.3 317.6a5 5 0 0 1-.2-.8l-.3-2-1.2-7.8a869.8 869.8 0 0 1-5.8-51l-.7-7.8-.2-2.1a3.4 3.4 0 0 1 0-.7 3.5 3.5 0 0 1 .2.7l.2 2 1 7.8 2.7 25.6c1 10 2.2 19 3 25.5l1 7.7.2 2.1a3.7 3.7 0 0 1 0 .8ZM165 430.8l9.2 8.3.9 1.3s-12.5 15.9-10.9 19l31.3-19.1-4.4-7.3-14.7-14Z"/><path fill="#e0e0e0" d="M183.9 433.1a1.5 1.5 0 0 1 1.8 1 1.4 1.4 0 0 1-1 1.7 1.6 1.6 0 0 1-1.8-1 1.5 1.5 0 0 1 1.1-1.7"/><path fill="#455a64" d="m195.5 440.2-1.7-2.4-29.3 19.2s-1 1.5-.3 2.3Z"/><path fill="#fff" d="M174.5 440.5c0 .2.9-.2 2-.2s1.8.4 2 .3-.7-.9-2-.9-2.2.7-2 .8ZM172 443.9c0 .2.9 0 1.8.3s1.5 1 1.6.9-.3-1-1.4-1.4-2 0-2 .2ZM172.6 449c.1 0-.1-1-1-1.5s-1.9-.5-1.8-.4l1.4.9c.7.5 1.2 1 1.4 1Z"/><path fill="#ffbf9d" d="m123.4 215-3.3-40.4c-.5-10.1-6.8-18.3-16.8-17.5l-1 .1a18 18 0 0 0-15.6 19c.5 8.7 1.1 18.4 1.8 23 1.4 9.6 11.2 9.8 11.2 9.8l.9 8.7-1.6 6.8 7.8-2.6Z"/><path fill="#ff9a6c" d="M99.7 209a23.4 23.4 0 0 0 12-5.4s-2 7.6-11.7 8Z"/><path fill="#263238" d="M92.3 184.1a1.4 1.4 0 0 0 1.5 1.2 1.3 1.3 0 0 0 1.3-1.4 1.4 1.4 0 0 0-1.5-1.2 1.3 1.3 0 0 0-1.3 1.4ZM89.3 180.1c.2.2 1.1-.8 2.6-1s2.7.5 2.8.3-.1-.4-.7-.7a3.8 3.8 0 0 0-2.2-.4 3.6 3.6 0 0 0-2 1c-.5.4-.6.7-.5.8ZM107 182.3a1.4 1.4 0 0 0 1.5 1.2 1.3 1.3 0 0 0 1.3-1.4 1.4 1.4 0 0 0-1.5-1.2 1.3 1.3 0 0 0-1.3 1.4ZM103.8 178.5c.2.1 1.2-.8 2.7-1s2.6.4 2.8.2-.2-.4-.7-.6a3.9 3.9 0 0 0-2.3-.4 3.6 3.6 0 0 0-2 1c-.4.4-.5.7-.5.8ZM100 190.6a9.5 9.5 0 0 0-2.4-.1c-.4 0-.7 0-.8-.3a2 2 0 0 1 0-1.2l.8-3c1-4.3 1.7-7.8 1.5-7.8a50 50 0 0 0-2.8 10.7 2.2 2.2 0 0 0 0 1.5 1 1 0 0 0 .7.4 2.4 2.4 0 0 0 .7 0 10 10 0 0 0 2.4-.2ZM102.7 174c.3.3 1.7-.3 3.4-.6s3.2-.2 3.4-.6c0-.2-.3-.5-1-.7a6 6 0 0 0-5.2.8c-.5.5-.7.9-.6 1ZM88.7 175.8c.3.3 1.5-.2 3-.4s2.7-.1 3-.5c0-.2-.2-.5-.8-.7a5 5 0 0 0-4.7.7c-.6.3-.7.7-.5.9Z"/><path fill="#ffbf9d" d="M120.3 181.8c.2 0 6.3-2.8 7 3.8s-6.1 5.9-6.1 5.7l-1-9.5Z"/><path fill="#ff9a6c" d="m123 188.6.3.1a1.1 1.1 0 0 0 .9 0 2.9 2.9 0 0 0 1-2.7 3.9 3.9 0 0 0-.5-1.6 1.3 1.3 0 0 0-1-.8.6.6 0 0 0-.7.3v.4s-.1-.1 0-.4a.7.7 0 0 1 .1-.4.9.9 0 0 1 .7-.3 1.6 1.6 0 0 1 1.3 1 3.8 3.8 0 0 1 .6 1.7 3 3 0 0 1-1.4 3 1.3 1.3 0 0 1-1.1 0l-.2-.3Z"/><path fill="#263238" d="M104.8 191c-.2 0 0 1.5-1.3 2.7s-2.8 1.2-2.8 1.4.4.3 1 .2a3.8 3.8 0 0 0 2.4-1 3.3 3.3 0 0 0 1-2.3c0-.6-.2-1-.3-1ZM72.5 168.7a1.6 1.6 0 0 1 .7-1 4.8 4.8 0 0 1 2.4-.7 14 14 0 0 0 5.9-2.2 6.9 6.9 0 0 1-2-1 4.2 4.2 0 0 1-1.6-4 1 1 0 0 1 .5-.7c.4-.2.8.2 1.2.5a3.6 3.6 0 0 0 3.5 1 5.8 5.8 0 0 0 2.4-1l1-1.2a22.1 22.1 0 0 1 6.3-5.7 22.6 22.6 0 0 1 11.9-2.2c3.4.5 6.7 3 7.5 6.3 1.8-1.8 4.6-2 7-1.4 2.6.7 4.4 3.2 5.4 5.7l.2.4a10.3 10.3 0 0 0 3.8 3c.2.2.5.3.6.6a.8.8 0 0 1-.4.7 5 5 0 0 1-2 1 11.5 11.5 0 0 0 1 1.8c.4.5.8 1 .6 1.5a1 1 0 0 1-1.1.7 3.4 3.4 0 0 1-1.3-.5l1.1 2a6.2 6.2 0 0 1-2.8.1c-.3 2.5-.2 7.1-.7 8.8-1.7.2-2.2 0-3 .5-1 .5-.4 2.5-2 2-.8-.2-2.2-3-2.6-3.7a37.8 37.8 0 0 1-3.3-15.8 12 12 0 0 0-4-2.3l.2.1c-2.8-.6-6-1.2-8.4.3-1.9 1.2-2.9 3.4-4.2 5.2a13.9 13.9 0 0 1-9.6 6c-.1 3 .3 7.7.4 10.4l-2.9-5.2-.6-.9-1-1.5a1.7 1.7 0 0 1-2.7-2 3.8 3.8 0 0 1 .7-1 2.7 2.7 0 0 1-2.4 1 2.1 2.1 0 0 1-1.8-2 1.8 1.8 0 0 1 1-1.5 6 6 0 0 1-3.6-.4c-.7-.3-1.4-.8-1.3-1.7Z"/><path fill="#455a64" d="M109.3 158.3a10 10 0 0 1 1 .8 6.9 6.9 0 0 1 1.9 3 12 12 0 0 1 .5 2.4l.2 2.9a25.7 25.7 0 0 0 .2 3.2 10.9 10.9 0 0 0 .4 1.6 3.5 3.5 0 0 0 .9 1.6 1.5 1.5 0 0 0 1.4.3 2.2 2.2 0 0 0 1.1-.8 5.1 5.1 0 0 0 .7-2.6h-.2a8 8 0 0 0 1.4 2 2.9 2.9 0 0 0 2 .7 1.8 1.8 0 0 0 1-.2 1.6 1.6 0 0 0 .6-.8 1.7 1.7 0 0 0 .1-.9 1.1 1.1 0 0 0-.4-.7v.1a6.3 6.3 0 0 0 2.2 1.4 5 5 0 0 0 .6.1h.3-.2l-.7-.2a6.3 6.3 0 0 1-2.2-1.4 1.3 1.3 0 0 1 .2 1.5 1.5 1.5 0 0 1-.6.7 1.7 1.7 0 0 1-.9.2 2.8 2.8 0 0 1-1.8-.8 8.4 8.4 0 0 1-1.4-1.8l-.1-.3v.3a4.9 4.9 0 0 1-.7 2.5 2 2 0 0 1-1 .7 1.2 1.2 0 0 1-1.2-.3 3.3 3.3 0 0 1-.8-1.4 11.4 11.4 0 0 1-.4-1.6 27 27 0 0 1-.2-3.2l-.2-2.9a13 13 0 0 0-.6-2.4 6.9 6.9 0 0 0-1.9-3.1 4 4 0 0 0-1.2-.6ZM80.4 170.8l.3.2.5.3.6.2a8.5 8.5 0 0 0 4.2.3 11 11 0 0 0 5.6-2.8 19.3 19.3 0 0 0 4.4-6.3c.6-1.2 1-2.5 1.6-3.6a12.8 12.8 0 0 1 1.8-3.2 6.7 6.7 0 0 1 2.6-2 4.8 4.8 0 0 1 1.5-.3 5.4 5.4 0 0 1 3.5 1.1 5.3 5.3 0 0 1 1.2 1.3 5.9 5.9 0 0 1 .7 1.4s0 0 0-.1a3 3 0 0 1 0-.3 5.7 5.7 0 0 0-.6-1 5.6 5.6 0 0 0-1.2-1.4 5.7 5.7 0 0 0-2.2-1 5.5 5.5 0 0 0-1.4-.2 4.9 4.9 0 0 0-1.5.3 7 7 0 0 0-2.7 2 13.4 13.4 0 0 0-2 3.3l-1.5 3.7a19 19 0 0 1-4.3 6.2 10.9 10.9 0 0 1-5.5 2.7 8.8 8.8 0 0 1-4.2-.2 13.8 13.8 0 0 1-1.4-.6Z"/><path fill="#455a64" d="M79 166.7a1.5 1.5 0 0 0 .5.2 7 7 0 0 0 1 .4 9.9 9.9 0 0 0 1.7.3 12 12 0 0 0 2.1 0 11.5 11.5 0 0 0 2.1-.3 10.8 10.8 0 0 0 1.6-.6 6.8 6.8 0 0 0 1-.6 1.5 1.5 0 0 0 .3-.2l-1.4.6a11.2 11.2 0 0 1-1.6.6 13.3 13.3 0 0 1-2 .3 14 14 0 0 1-2 0 12 12 0 0 1-1.7-.3l-1.5-.4Z"/><path fill="#263238" d="M113.2 307.7s-43.7 51.5-45 58.8S86.7 442 86.7 442l23.7-3.8-12.1-62.9 42.7-37.7s13.9-10.2 17.8-18.7.7-14.8.7-14.8l-.5-8.6-47.1 4.4Z"/><path fill="#263238" d="M121.6 350.5c.2 1.2 3 35.2 6.9 41.3a365.8 365.8 0 0 0 40.4 49.1l18.9-13.4-35.7-47.3-1.8-46.4 3.6-11 3-7.3-23.5-.4Z"/><path fill="#455a64" d="M149.1 330.8a3.9 3.9 0 0 1-.5.5l-1.4 1.3-5.5 4.8-17.8 15.9a1394.9 1394.9 0 0 1-23.6 20.4l-1.5 1.2a3.7 3.7 0 0 1-.6.4 3.5 3.5 0 0 1 .5-.4l1.5-1.4 5.4-4.8 18-15.8a1330.2 1330.2 0 0 1 23.4-20.5l1.6-1.2a2.7 2.7 0 0 1 .5-.4Z"/><path fill="#263238" d="m87.2 430.4 4.4 18.4s-17.1 10.6-16.7 14.1l36-7.3-5.8-28.9Z"/><path fill="#e0e0e0" d="M102.4 445a1.5 1.5 0 0 1 1.3 1.5 1.4 1.4 0 0 1-1.4 1.3 1.6 1.6 0 0 1-1.4-1.5 1.5 1.5 0 0 1 1.6-1.3"/><path fill="#455a64" d="m110.8 455.6-.7-2.9-34.1 8.1s-1.4 1-1 2.1Z"/><path fill="#fff" d="M91 448.7c0 .2 1 0 2 .5s1.5 1 1.6.9-.3-1-1.5-1.5-2.2 0-2.1.1ZM87.5 451c0 .2.9.3 1.6 1s1 1.3 1.3 1.3 0-1-1-1.9-1.9-.5-1.9-.4ZM86.3 456c.2 0 .3-1-.4-1.8s-1.5-1-1.6-1l1.1 1.4c.5.7.8 1.4 1 1.4ZM90.4 444.4c.1.2.9-.2 1.9-.4s1.8 0 1.9-.1-.8-.7-2-.5-1.9.9-1.8 1Z"/><path fill="#ebebeb" d="M100.3 215s-2.5 4.7-2.8 8c-.2 2.8 0 6.2 0 6.4-.2 4-1.7 3.7-.7 11 .5 4.3 6.8 34.3 6.8 34.3s2.1 24.8 4.3 28.4c2.4 4 7.3 1.2 7.3 1.2l43.7-6.1s4.2-4.5 3.3-9.1-5.2-15.8-4.7-17l-5.7-17.5-.2-4.3-12-39.5-14.6-3.6-2.3-4.2-20.5 12.8-1 6.2Z"/><path fill="#d8b4a1" d="m125.9 206.6-2.3-2.8s-11 6.5-12.6 13.5-2.2 28 .3 35.5c1.3 3.9 11.4 29.3 27.3 42.3 18.3 15 16 31.7 19.4 32.6 7 1.8 27.5-13.6 29.8-15.3s-29.5-41.8-29.5-41.8l-9.5-24.2-4.3-32a19 19 0 0 0-9.9-5.4Z"/><path fill="#263238" d="M109.3 219.7a22.8 22.8 0 0 1-1.4 2.4 64.4 64.4 0 0 0-3 6.1l-.2.7-.3-.7-.2-.8-1.9-7.2a13 13 0 0 1-.4-3 28.2 28.2 0 0 1 .8 3 335 335 0 0 0 2.2 8h-.4a43.7 43.7 0 0 1 3-6.2 11.8 11.8 0 0 1 1.8-2.3Z"/><path d="M118.1 267.1c-.1-.5 9.6 13.5 16.3 18.5s13.9 9.5 18.8 16.2A34 34 0 0 1 159 328s-2 0-3.2-4.5-3.7-13.6-8.4-19.1-14.3-13.9-17.5-18-11-16.1-11.9-19.3Z" opacity=".3"/><path fill="#263238" d="M116.7 307.8a4.6 4.6 0 0 1-.3-.8l-.7-2.2c-.6-2-1.5-4.8-2.4-8.3a334.4 334.4 0 0 1-10.8-64.7l-.2-2.3a7 7 0 0 1 0-.8 4 4 0 0 1 .2.8 433.9 433.9 0 0 0 5 39 398 398 0 0 0 8.4 36.2l.6 2.3a4 4 0 0 1 .2.8ZM158.2 270a8.7 8.7 0 0 1-1.4 1.6 60 60 0 0 1-7.9 6.6 8 8 0 0 1-1.8 1l5.6-4.5c3-2.5 5.4-4.8 5.5-4.7ZM116.5 217.4a51.5 51.5 0 0 1 4.1-6 50.2 50.2 0 0 1 4.5-5.6 49 49 0 0 1-4 6 48.9 48.9 0 0 1-4.6 5.6Z"/><path fill="#d8b4a1" d="m98.7 226.3 1.4 3 2.2.2 1.4-4.4-1-4-3.4 1.6-.6 3.6Z"/><path fill="#263238" d="M99.5 218.5a46.8 46.8 0 0 1-1 5.3 49.7 49.7 0 0 1-1.2 5.3 20.1 20.1 0 0 1 .7-5.4 20.6 20.6 0 0 1 1.5-5.2Z"/><path fill="#d8b4a1" d="m99.8 222.8-1.3-1.8a1.4 1.4 0 0 0-1.8-.4 2.2 2.2 0 0 0-.7 1.1 6.8 6.8 0 0 0-.2 1.6 16.2 16.2 0 0 0 .7 5.5c.1.4.3.8.6.9s.6-.2.8-.6a14.6 14.6 0 0 0 2.1-3.7ZM109.3 220.5a5.4 5.4 0 0 0-.6-1.7 2.4 2.4 0 0 0-1.3-1 1.8 1.8 0 0 0-1.7.1 6.8 6.8 0 0 0-1.4 2 16 16 0 0 0-1.4 3l.2 3.3a8.3 8.3 0 0 0 3 4.6 2 2 0 0 0 1.8.5c.7-.2 1-1 1.1-1.8a24 24 0 0 0 .3-9Z"/><path fill="#263238" d="M99 227.1a5.2 5.2 0 0 1 .1-2.2 5 5 0 0 1 .7-2.2 5 5 0 0 1-.1 2.3c-.2 1.2-.5 2.2-.7 2.1Z"/><path fill="#263238" d="M103 227.6a15.9 15.9 0 0 1-3.2-4.8 8.5 8.5 0 0 1 1.8 2.2 8.3 8.3 0 0 1 1.4 2.6ZM103.5 226.3s-.3-.1-.5-.5a3.5 3.5 0 0 1-.4-1.5 3.5 3.5 0 0 1 .5-2.2v2.1a18.3 18.3 0 0 0 .4 2.1Z"/><path fill="#263238" d="M107.2 221c0 .1-1 .8-2 1.9s-1.7 2-1.9 2a4.6 4.6 0 0 1 1.5-2.4 4.5 4.5 0 0 1 2.4-1.5ZM107.5 225.5a11.2 11.2 0 0 1-2 0 11.3 11.3 0 0 1-2 0c-.1 0 .8-.5 2-.5s2 .4 2 .5Z"/><path fill="#fff" d="m114.7 245.7.1-.4c.5-1.8 2.4-8.6 3.3-8l7.2 5"/><path fill="#263238" d="M127.6 245.8a7.8 7.8 0 0 1-.4-1l-.9-2.7.2.1-13.7 4.3.2-.3v.4l.2.5.3 1 .5 1.7-.3-.1a783 783 0 0 1 9.8-2.9l3-.8a7.5 7.5 0 0 1 1-.3 6 6 0 0 1-1 .4l-2.8 1-9.9 3-.2.1v-.2l-.6-1.8-.3-1-.2-.4v-.4l.1-.4c5.6-1.7 10.6-3.2 13.8-4h.2l.7 2.9a4.8 4.8 0 0 1 .3.9Z"/><path d="m130.4 238.1 25.5 26.4-3.7-9.5-21.8-16.9z" opacity=".3"/><path fill="#263238" d="M159.3 325a3.9 3.9 0 0 1 0-.7V322a35.5 35.5 0 0 0-1.1-8 38.6 38.6 0 0 0-4.8-11 43.6 43.6 0 0 0-4.4-5.5 49.2 49.2 0 0 0-5.6-5.1c-4-3.3-8.2-6-11.8-9a66.9 66.9 0 0 1-8.4-8.5 65.2 65.2 0 0 1-4.8-6.6l-1.1-1.9a3.9 3.9 0 0 1-.3-.7 5 5 0 0 1 .4.7l1.2 1.8a73.2 73.2 0 0 0 5 6.4 69.2 69.2 0 0 0 8.4 8.5c3.4 2.9 7.6 5.6 11.7 8.9a49.4 49.4 0 0 1 5.7 5.1 42.7 42.7 0 0 1 4.3 5.7 37.7 37.7 0 0 1 4.8 11.1 33 33 0 0 1 1 8 21.4 21.4 0 0 1 0 2.3 5.7 5.7 0 0 1-.2.8Z"/><path fill="#ffbf9d" d="M185.4 291.2c.2.8 7.1 8.4 7.1 8.4s5 5.8 5.7 7.5a23.9 23.9 0 0 1 1.1 4.6s-.2 2.7-2 3c0 0 .4 4.2-2.3 4l-1-.1a2.9 2.9 0 0 1-3.2 2c-2.5-.1-4-3.6-4-3.6a3.5 3.5 0 0 0 .8-4.2c-1-2.7-4.6-4.2-4.6-4.2l2.1 6.7c-.7.9-3.5.1-5.3-1.6a10.3 10.3 0 0 1-1.3-7.3c0-.7.7-3.2.7-3.2-.6-3.4-4.4-7.2-4.4-7.2Z"/><path fill="#ffbf9d" d="m188.3 312 1.3-1.2a1.5 1.5 0 0 0 .7-1.5 1.3 1.3 0 0 0-1.5-.7 8 8 0 0 0-1.7.9 4.1 4.1 0 0 0 1.2-1.4 1.5 1.5 0 0 0-.4-1.7 2.1 2.1 0 0 0-2.1.3 36.5 36.5 0 0 0-3.4 2l-.8.9a1.6 1.6 0 0 0-.3 2l.2.2c.4.4 2 0 2 0-.2.6-.4 1.6 0 2a1.7 1.7 0 0 0 2 .4 4 4 0 0 0-.5 1.4 1.4 1.4 0 0 0 .7 1.3c.7.3 1.5-.2 2-.7a14.1 14.1 0 0 0 1.6-1.6 3.5 3.5 0 0 0 .8-1.4 1.4 1.4 0 0 0-.3-1.4c-.4-.3-1.5.3-1.5.3Z"/><path fill="#ff9a6c" d="M188.3 312a.6.6 0 0 1 .2 0 3.4 3.4 0 0 1 .6-.3 1.4 1.4 0 0 1 .5 0 .8.8 0 0 1 .5.4 1.8 1.8 0 0 1 .1 1.5 4.5 4.5 0 0 1-1 1.5l-1.5 1.5a3.1 3.1 0 0 1-1.1.6 1.3 1.3 0 0 1-1.4-.3 1.8 1.8 0 0 1-.4-1.4 5 5 0 0 1 .4-1.3l.3.3a1.9 1.9 0 0 1-2.1-.4 1.6 1.6 0 0 1-.3-1.2 3.5 3.5 0 0 1 .2-1.2l.3.4a5.4 5.4 0 0 1-1.6.2 1.5 1.5 0 0 1-.5-.1 1.3 1.3 0 0 1-.4-.4 1.6 1.6 0 0 1-.3-1 2 2 0 0 1 .5-1.3l1-1 2.3-1.3a5.8 5.8 0 0 1 2.5-1.1 1.4 1.4 0 0 1 1.3.5 1.8 1.8 0 0 1 .2 1.3 2 2 0 0 1-.5 1 7.8 7.8 0 0 1-.8.8l-.3-.3a8.6 8.6 0 0 1 1.5-.8 1.6 1.6 0 0 1 1.5.1 1.1 1.1 0 0 1 .4 1.3 2 2 0 0 1-.6.9l-1.5 1.2 1.3-1.4a1.9 1.9 0 0 0 .6-.8.8.8 0 0 0-.4-.9 1.3 1.3 0 0 0-1.2 0 8.7 8.7 0 0 0-1.3.7.2.2 0 0 1-.3 0 .2.2 0 0 1 0-.3c.5-.4 1-1 1.2-1.6a1.3 1.3 0 0 0-.3-1 1 1 0 0 0-.8-.3 5.6 5.6 0 0 0-2.2 1l-2.3 1.5-1 .9a1.4 1.4 0 0 0-.3 1 1 1 0 0 0 .2.6l.2.2a.8.8 0 0 0 .3 0 5.1 5.1 0 0 0 1.5-.1.3.3 0 0 1 .3.2.3.3 0 0 1 0 .1 2 2 0 0 0 0 1.9 1.4 1.4 0 0 0 1.5.3.3.3 0 0 1 .4 0 .3.3 0 0 1 0 .3 4.2 4.2 0 0 0-.4 1.2 1.3 1.3 0 0 0 .3 1c.4.5 1.3.1 1.8-.3l1.5-1.4a4.4 4.4 0 0 0 1-1.4 1.5 1.5 0 0 0 0-1.3.6.6 0 0 0-.4-.3 1.1 1.1 0 0 0-.4 0c-.5 0-.8.2-.8.2ZM199.4 311a77.6 77.6 0 0 0-3.9-7c-2.4-3.5-4.8-6.2-4.7-6.3a10.4 10.4 0 0 1 1.7 1.6 41.6 41.6 0 0 1 3.5 4.5 29.2 29.2 0 0 1 2.6 5 8.9 8.9 0 0 1 .8 2.2ZM193 315.7c0-.1.7.5 1 1.5s-.1 1.9-.3 1.8 0-.8-.3-1.7-.6-1.6-.5-1.6ZM196.5 312.4c.2 0 .4.5.6 1.2s.3 1.3.1 1.3-.4-.5-.6-1.2-.2-1.3 0-1.3Z"/><path fill="#ff9a6c" d="M189.2 311.4c.1 0-.7.9-1.8 1.7s-2 1.4-2.2 1.3.8-.9 1.9-1.7a6.3 6.3 0 0 1 2.1-1.3ZM187.7 309.2a9.7 9.7 0 0 1-2.1 1.5 9.6 9.6 0 0 1-2.2 1.3c0-.1.7-1 2-1.7a4.9 4.9 0 0 1 2.3-1Z"/><path fill="#d8b4a1" d="m128 236.3 32.7 25.1 13 39.6 17.2-4.3-11.5-39.1a40.3 40.3 0 0 0-9.6-16.5l-25.5-26.6a16.6 16.6 0 0 0-13.7-5.6 12 12 0 0 0-7.7 4.2 17 17 0 0 0-2.2 13.3"/><path fill="#263238" d="M120.7 226.4a14.3 14.3 0 0 1-.4-2.4 17.4 17.4 0 0 1 .5-6.8 14 14 0 0 1 2.2-4.5 11.5 11.5 0 0 1 4.9-3.3 13 13 0 0 1 6.7-.5 17 17 0 0 1 7 3 20.4 20.4 0 0 1 3.1 2.8l3 3 6.3 6.6 13.9 14.4 3.6 4a40.2 40.2 0 0 1 3.3 4.3 40.9 40.9 0 0 1 4.7 10.3l6.8 22.8a6743 6743 0 0 1 4.8 16.5v.3h-.2l-17.2 4.3-.2.1v-.2c-5-14.9-9.3-28.3-13-39.7v.2L136.7 243l-6.5-5-1.7-1.4-.5-.4.6.4 1.7 1.3 6.5 5 24 18.3 13 39.7-.2-.2 17.2-4.3-.2.3-4.9-16.5-6.7-22.8a40 40 0 0 0-4.6-10.2 38.3 38.3 0 0 0-3.3-4.3c-1.1-1.4-2.4-2.7-3.6-4l-13.8-14.4-6.3-6.6-3-3a20.1 20.1 0 0 0-3-2.8 16.5 16.5 0 0 0-6.9-3 12.7 12.7 0 0 0-6.6.5 11.3 11.3 0 0 0-4.8 3.2 13.6 13.6 0 0 0-2.2 4.4 17.6 17.6 0 0 0-.6 6.8l.2 1.8.2.5Z"/></svg>