<svg xmlns="http://www.w3.org/2000/svg" viewBox="0 0 500 500"><path fill="#263238" d="M55.6 468.8c124.5-.6 264.3-.7 388.8 0-124.5.6-264.3.6-388.8 0Z"/><path fill="#d8b4a1" d="M398.2 255.3s25-3.5 19.1-33.6c0 0-27.9 6.2-19 33.6Z"/><path d="M398.2 255.3s25-3.5 19.1-33.6c0 0-27.9 6.2-19 33.6Z" opacity=".1"/><path fill="#263238" d="M399.5 249a45 45 0 0 1 1.7-4.5v-.6l.1-1.2.2-2.7.3-5.4c0-.1.1 0 .1 0v5.4l-.1 2.7v.6a53.4 53.4 0 0 1 5-8.6 45.4 45.4 0 0 1 5.8-6.6 44.9 44.9 0 0 0-4.8 6.4l-2.1 3.5.2-.1.9-.4 2-.8 4-1.4s.1 0 0 .1l-4 1.6-1.9.9-1 .4a3.3 3.3 0 0 1-.6.2l-1.5 2.7a64 64 0 0 0-3 7.2l-.2.5a14.2 14.2 0 0 1 2-1l2.6-1.1 5.2-2.6v.1l-5 2.9c-1 .5-1.8 1-2.7 1.3a8.3 8.3 0 0 1-2.3 1 29.5 29.5 0 0 0-1.6 7c-.3 3.5-.3 6.9-.4 10.3a121 121 0 0 1-.5-9.3 26.8 26.8 0 0 1 1.6-8.5Z"/><path fill="#263238" d="M403.3 231.3a30.4 30.4 0 0 1 .3 5.3s-.1 0-.1 0l-.3-5.3s.1-.1.1 0ZM410.4 232.8a19.5 19.5 0 0 0 3.3-1.6s.1 0 0 .1a12.2 12.2 0 0 1-3.2 1.6s-.1-.1 0-.1ZM397.4 303l.1-8.2c0-9.2.1-18.3.3-27.5l.5-21.8v-6l.2-.1h.1v6a.1.1 0 0 1 0 .2c.5 12.9.8 25.8.9 38.8v60.3c0 .4-.5.6-1 .6s-1.1-.2-1.1-.6l-.1-25.6.1-16Z"/><path fill="#d8b4a1" d="M407.8 294.7s12-8.9 23.4-2.9 13.2 29.2 13.2 29.2-16.7 2.4-27.3-7.6c-10.1-9.7-9.3-18.7-9.3-18.7Z"/><path fill="#263238" d="M404.6 295.2a14.4 14.4 0 0 1 7-.9 9 9 0 0 1 1.4-.1l1.7-.1 3.5-.3c2.3-.2 4.7-.3 7-.6.2 0 .2.2 0 .2l-7 .9-3.5.3h-1l1.1.3a29.1 29.1 0 0 1 5.5 2.3c1 .1 1.9.4 2.8.6l4.4 1.1 8.7 2.5v.1l-8.7-2-4.2-1-1.1-.2a35 35 0 0 1 8.5 7.4 46 46 0 0 1 6 9.3c0 .1-.1.2-.2.1a45.6 45.6 0 0 0-7.2-9.4l.2.5.7 2.1 1.3 4.2h-.1c-.6-1.3-1-2.7-1.5-4l-.7-2-.4-1.1-.1-.4a42.9 42.9 0 0 0-4.3-3.6 32 32 0 0 0-6.3-3.6v.6l.4 1.6.7 3.4c.5 2.4.7 4.7 1.2 7h-.2l-1.7-7-.8-3.5-.3-1.6-.2-1-.6-.2a19 19 0 0 0-10-1.4 9.8 9.8 0 0 0-7.3 5.8c0 .3-.5.1-.4-.1.6-3 3-5 5.7-6.2Z"/><path fill="#263238" d="m423 305.1 1 4.6a32.4 32.4 0 0 1 .8 4.4h-.1a34 34 0 0 1-1-4.5l-1-4.5s.2-.1.2 0ZM434.5 309l4.6 2.3v.1a50.8 50.8 0 0 1-4.6-2.3v-.1Z"/><path fill="#d8b4a1" d="M405.1 278.4s14.7.9 21.5-8.8 5.3-23.4 5.3-23.4-15.4 1.8-21.5 8.8-5.3 23.4-5.3 23.4Z"/><path fill="#263238" d="M398.3 292.8c.5-1.5 1-3 1.7-4.6l1.8-4.4a91 91 0 0 1 4.4-8.7c1-1.7 2.1-3.5 3.3-5.2l.1-.7.2-1.4.5-2.8 1-6c0-.1.2-.1.2 0l-.8 6-.4 3-.2 1a103 103 0 0 1 7.3-9.4l1-1.2.2-.3.3-.9a122 122 0 0 0 1.9-5.2 41.8 41.8 0 0 1-1.6 5.3v.3l5.7-6 .1.1a104.8 104.8 0 0 0-10.4 12.8 10.7 10.7 0 0 1 1.1-.3l3.4-.5a173 173 0 0 0 7.2-.9l-6.8 1.5-3.2.6a20.4 20.4 0 0 0-2.6.8l-.7 1-3.1 4.8 1.5-.3a117.2 117.2 0 0 0 10-1.7c-2.2.5-4.4 1-6.6 1.7l-3.3.8-1.6.3a3.4 3.4 0 0 1-.7.1q-3.2 5.2-6 10.7l-2.3 4.8-2.2 5c0 .4-.6.3-.4 0Z"/><path fill="#263238" d="M413.3 259.1a194.5 194.5 0 0 1 .2 0 38.3 38.3 0 0 1-.8 4 28.1 28.1 0 0 1 .6-4ZM421.8 258.7a23 23 0 0 1 2.1-.9l1.1-.4.6-.2a2.6 2.6 0 0 0 .6-.3c.1 0 .2.1 0 .1a2.5 2.5 0 0 0-.5.3l-.6.2-1.1.5-2.2.9v-.2Z"/><path fill="#d8b4a1" d="M390.1 266.8s-8.9-16.5-22.4-19.1S346 259 346 259s9.8 12.6 22.2 14.8 22-7 22-7Z"/><path fill="#263238" d="M358.7 255.1a36.5 36.5 0 0 1 10.6.2l-.6-.4-3-1.5c-2-1-4.2-2.2-6.4-3.1l.1-.2 6.4 2.8 3.2 1.6 2 1a37.1 37.1 0 0 1 8.5 3l-1.6-2c-1.3-1.3-2.5-2.7-4-4 0 0 0-.1.2 0l4.3 3.7 1.9 2 1 1a35.5 35.5 0 0 1 18 24.5c0 .1-.1.2-.1 0a40.7 40.7 0 0 0-10-16.7 39.1 39.1 0 0 0-18-10.5 39.7 39.7 0 0 0-12.5-1.1.1.1 0 0 1 0-.3Z"/><path d="M346 259s9.8 12.6 22.2 14.8a26.8 26.8 0 0 0 20.4-5.7l.7-1.1s-6.4-5.4-18.5-8.5-24.8.5-24.8.5Z" opacity=".1"/><path fill="#263238" d="M366.5 249.2a35.3 35.3 0 0 1 3 2 19 19 0 0 1 2.6 2.4v.1l-2.8-2.3a28.9 28.9 0 0 0-2.8-2c-.1-.1 0-.2 0-.2ZM359.1 252l1.5.6 1.5.6c.1 0 .1.2 0 .2l-1.5-.6-1.5-.7c-.1 0-.1-.1 0-.1Z"/><path fill="#d8b4a1" d="M391.9 287.7s-2.4 16.4-14.7 22.2-27.5 0-27.5 0 6-35.6 42.2-22.2Z"/><path fill="#263238" d="m358.2 299.2 3.4-.5 1.7-.3.9-.2 1-1a50.2 50.2 0 0 1 7.5-5.4 43.2 43.2 0 0 1 4.6-2.4h-.3l-4 .2-8.2.4c-.1 0-.1-.2 0-.2l8.1-.7 4-.3 2-.2h.5l2.1-.8a19.3 19.3 0 0 1 10.5-.6c3.1.8 6.2 2.8 7 6.1 0 .1-.1.2-.2.1-1.1-2.7-4.2-4.1-7-4.7a16.7 16.7 0 0 0-5.5-.1 12.8 12.8 0 0 1-.7 2.5l-1 3.5-2.1 6.9h-.2l1.7-7 .8-3.4a19.3 19.3 0 0 1 .6-2.3 28.6 28.6 0 0 0-3.2.7 46 46 0 0 0-5.6 2 46.9 46.9 0 0 1-2 7.8v-.2l.8-4 .7-3.3-4.5 2.3-.2 1-.2 1.7-.8 3.8a61.2 61.2 0 0 1-2.2 7.1v.2h-.2l1.8-7.4.8-3.6.3-1.9.1-.5a49 49 0 0 0-4.8 3.2 51.6 51.6 0 0 0-7.4 6.7 48 48 0 0 1 4.7-5.7h-.2l-1.7.3-3.5.4.1-.2Z"/><path fill="#263238" d="M367 304.8v-.5l.1-.5a61 61 0 0 0 .8-3.3 13.3 13.3 0 0 1-.9 4.3ZM377.3 304.5l1-4.4.5-2.4.2-1.2a3.5 3.5 0 0 1 .3-1h.1a6.9 6.9 0 0 1-.3 2.1l-.4 2.4-1.3 4.9h-.1ZM359.4 294.5l6.7-1c.1 0 .2.2 0 .2l-6.7 1s-.1-.2 0-.2Z"/><path fill="#d8b4a1" d="M398.2 249.1s7.6-33.2-28-46.6c0 0-10 43.7 28 46.6Z"/><path fill="#263238" d="m390.5 230.3-.4-.2a75 75 0 0 1-2-1.1l-4.1-2.4-8.2-4.6s0-.1.1 0l8.3 4.3 4.1 2.1 1.7.9a83.3 83.3 0 0 0-9.9-14.8.1.1 0 0 1 .2-.2 56.5 56.5 0 0 1 8.3 10.1v-.3l-.1-2.5v-4.8c0-.1.1-.1.1 0l.4 4.7.1 2.4v1.4l2.1 3.6a60.2 60.2 0 0 1 3.2 6.6l.1-2.4c.1-1.8.4-3.7.4-5.5h.2v5.5l-.1 2.7v1a60.2 60.2 0 0 1 2.6 9.1 99.2 99.2 0 0 1 1.3 10 53.7 53.7 0 0 0-1.9-8.9l-1.4-4.7-4.4-2.3-4.4-2.5c-3-1.6-6-3.3-9-4.7-.1 0 0-.2 0-.2 3.2 1.5 6.3 2.8 9.3 4.3l4.5 2.5c1.3.6 2.5 1.3 3.7 2.1l-1-3a88.3 88.3 0 0 0-3.8-8.2Z"/><path fill="#263238" d="M393.5 222.7h.2l-.4 5.7c0 .1-.2.1-.2 0 0-1.9.3-3.8.4-5.7ZM376.4 229l6.7 2.7c.1 0 0 .2 0 .1l-6.7-2.6c-.1 0 0-.2 0-.1ZM373 213.8a58.5 58.5 0 0 1 6.4 3.3c0 .1 0 .3-.1.2a110.4 110.4 0 0 0-6.3-3.6Z"/><path fill="#455a64" d="M425 375.1h-51.4V321H425z"/><path fill="#263238" d="M425.9 340.1h2.6v128.7h-2.6zM370.3 340.1h2.6v128.7h-2.6zM396.7 340.1h2.6v128.7h-2.6z"/><path fill="#263238" d="M427.3 379.2h-55.6v-7.5h55.6z"/><path fill="#ad6359" d="m277.6 341.3-37.7 30.5c-7.3 5.8-13.5 11-16.5 14-1.1 1.2-1.8 2-1.8 2.3v.1c.3 3.3 44.8 62.5 47 64s6.9-4.7 7-8.4-6.8-34-6.8-34L306 379Z"/><path fill="#ebebeb" d="m247.6 365.5-7.7 6.3c-7.3 5.8-13.5 11-16.5 14a12.8 12.8 0 0 0-1.8 2.3s0 .1 0 .1c.3 3.3 44.8 62.5 47 64s6.9-4.7 7-8.4-6.8-34-6.8-34l7.9-6.2Z"/><path fill="#455a64" d="M268.6 452.3c-2.3-1.6-46.8-60.8-47-64-.2-1.3 8-8.3 18.3-16.5l.3-.2 29.2 37.8-.7.5s7 30.3 6.8 34-4.6 9.9-6.9 8.4Z"/><path fill="#263238" d="M270.4 449.9a1989.2 1989.2 0 0 0-45.5-60c7 10.2 37.5 50.3 45.3 60 .2.3.4.2.2 0ZM271 413.1c-2.2-4.4-6.4-8.8-11.5-9.7-.2 0-.2.3-.1.4a69.3 69.3 0 0 1 11 9.7.3.3 0 0 0 .6-.4Z"/><path fill="#263238" d="M271.4 417.3c-2.2-4.5-6.4-8.9-11.5-9.7-.2 0-.2.2 0 .3a68.9 68.9 0 0 1 11 9.7.3.3 0 0 0 .5-.3ZM271.9 421.4c-2.3-4.5-6.5-8.8-11.5-9.7-.2 0-.3.2-.1.3a69.3 69.3 0 0 1 11 9.7.3.3 0 0 0 .6-.3Z"/><path fill="#37474f" d="M298 305c-2.7 13.2-57.4 65.8-57.4 65.8l38.2 44s77.6-77.5 73.6-106.7c-3.6-25.3-41.5-127.1-41.5-127.1H267s33.5 111 30.9 124Z"/><path fill="#263238" d="M283 404.4c-5-6.3-3.5-4.6-8.6-10.9-2.5-3-19-23.1-21.9-25.5h-.1c1.9 3.3 18.8 23 21.3 26l9.2 10.5a.1.1 0 0 0 .2-.1ZM303.4 298.6l-2-9.8q-2.1-10-4.5-20-4.8-19.9-10.3-39.4a654.6 654.6 0 0 0-14-43.8.1.1 0 0 0-.1 0c3.9 13 8 25.8 11.6 38.7a1328.8 1328.8 0 0 1 14.9 58.5l2 9.7a69.4 69.4 0 0 1 2 10 15.2 15.2 0 0 1-2.7 9c-1.6 2.7-3.5 5.2-5.4 7.7a1772.7 1772.7 0 0 1-40.4 46c4.8-4.3 35-37 38.9-42l5.6-7.7a30 30 0 0 0 4.3-7.6c1-3.1.7-6.2 0-9.3Z"/><path fill="#ad6359" d="m284.5 395.6 9.5 46c.1 9.3.4 17.4 1 21.6a6.5 6.5 0 0 0 .6 3c2.9 1.8 77 3 79.5 2.1s.5-8.3-2.4-10.6-31-15.5-31-15.5l-9.9-46Z"/><path fill="#ebebeb" d="M375.1 468.4c-2.6.8-76.6-.3-79.4-2.2a6.6 6.6 0 0 1-.8-2.9c-.5-4.2-.8-12.4-1-21.6l-1.6-8H340l1.8 8.6s28.2 13.1 31 15.5 5 9.8 2.4 10.6Z"/><path fill="#455a64" d="M375.1 468.4c-2.6.8-76.6-.3-79.4-2.2-1-.7-1.5-11.5-1.7-24.5v-.4l47.8.2v.8s28.1 13.1 31 15.4 5 9.9 2.3 10.7Z"/><path fill="#263238" d="M374.4 465.5a1989.1 1989.1 0 0 0-75.3-.8 1941.8 1941.8 0 0 0 75.3.8ZM345.7 442.5c-4.8-1-10.9-.3-14.7 3.1-.1.1 0 .3.2.3a69.2 69.2 0 0 1 14.5-2.8.3.3 0 0 0 0-.6ZM349.3 444.7c-5-1-11-.3-14.8 3-.1.2 0 .4.2.4a69.5 69.5 0 0 1 14.5-2.8.3.3 0 0 0 0-.6ZM352.8 446.9c-5-1-11-.4-14.8 3-.1.2 0 .4.2.4a69.2 69.2 0 0 1 14.5-2.8.3.3 0 0 0 0-.6Z"/><path fill="#37474f" d="M306.6 181a178.8 178.8 0 0 0-3.7 21.8c-1 9.2-2 17.3-3.3 18.3-1.4 1.2-8.3 5.6-10.6 7 0 0 21.6 65.4 27.1 87.2 8 31.6 27.4 126.3 27.4 126.3H292s-15.7-90.2-22.5-120.3a3142.6 3142.6 0 0 0-28.3-103.1A45 45 0 0 1 243 181s63.6 0 63.6 0Z"/><path fill="#263238" d="M341.6 431.6c-8 0-5.7-.2-13.8-.1-4 0-30 .2-33.7.8v.2c3.7.6 29.7 0 33.7-.2l13.8-.5a.1.1 0 0 0 0-.2ZM303.3 218.5A99.3 99.3 0 0 0 289 228c-.1.1 0 .4.2.3 4.9-3 9.8-6 14.4-9.3a.3.3 0 0 0-.4-.5ZM299.3 183c0-.3-.3-.3-.3 0a171 171 0 0 1 1.8 17.3c.2 2.7.3 17.7-4.5 17.3-.7 0-1.3-.7-1.6-1.9a18.5 18.5 0 0 1 0-4.6c0-3.1 0-6.3-.3-9.4a85.4 85.4 0 0 0-2.9-17.3.1.1 0 0 0-.3 0 162.2 162.2 0 0 1 2.3 24.2c0 4-1 10 3.1 10s5.3-10.1 5.4-12.8a88.5 88.5 0 0 0-2.7-22.9Z"/><path fill="#263238" d="M296.5 218a24.8 24.8 0 0 0-.5 3.2 6.9 6.9 0 0 0 0 2.6.2.2 0 0 0 .2 0 8.9 8.9 0 0 0 .7-2.6l.6-3a.5.5 0 0 0-1-.2ZM286 403.2l-.5-3.6-1-6.8a640.6 640.6 0 0 0-11.5-56c-.1-.4-.6-.2-.6.1l2.6 13.8 2.8 13.8 5.3 27.2a518.4 518.4 0 0 1 2.2 11.5c.3 1.2.7 2.5.9 3.8l.2-.1-.4-3.7ZM321.5 334.8c-1.7-8.5-4-17-6.3-25.4-4.7-16.9-10.2-33.5-15.7-50.1l-4.8-14.4c-.7-2.4-4.6-15.4-5.1-16.6a.1.1 0 0 0-.2 0c1.1 4.5 2.6 10.9 4 15.3l4 12.8c2.5 8.5 5.2 16.9 7.8 25.3a703.4 703.4 0 0 1 17.5 64.6l3 14.4c0 .1.2.1.1 0-.8-8.7-2.6-17.3-4.3-26ZM289.5 379.5a988.4 988.4 0 0 0-22.6-96.8c-4.6-16-9.8-31.8-15.3-47.5a200.4 200.4 0 0 1-7-22.6 53.8 53.8 0 0 1-.8-23.5 39.4 39.4 0 0 1 1.8-5.7c0-.2-.2-.3-.2-.1-6.2 14.4-2.2 30.2 2.5 44.4l8 23.3q3.8 12 7.4 24.2a1016.7 1016.7 0 0 1 23.7 97.3c3 16.3 5.7 33 8.4 49.5l.9 6.5h.2a919 919 0 0 0-7-49Z"/><path fill="#ebebeb" d="M238.2 200.7c.3.2 77.3-10.5 78-11.4.8-1.3-31.1-78.6-40.5-87.8-2-2-7.7-1.8-12.3-.5a22.3 22.3 0 0 0-3.6 1.3h-.1a8.7 8.7 0 0 0-2.5 1.7c-11.7 12.4-15 47.2-16 58.6-1.7 18.8-3.7 37.5-3 38.1Z"/><path fill="#263238" d="M263.4 101s24 24.3 26.4 33 2.7 65.2 2.7 65.2l-59.5 8.5s6-32.6 5.9-34.6c0 0 3.4-37.2 9.6-53.8 7-18.8 14.9-18.3 14.9-18.3Z"/><path fill="#263238" d="M276.1 101s14.3 29 15.3 31.8l20.8 63.2 6.5-5.1-10-25s-25.7-58.3-32.6-64.8Z"/><path fill="#263238" d="M264.8 110.3c18.7 10 49.8 36 51 43.4.8 5.3 1 10.7-1 13.6-4 5.8-13.3 5.7-16.6 3.8-14.7-8.1-31.1-26.9-42.1-46.7-9.7-17.5 2.6-17.4 8.7-14Z"/><path fill="#37474f" d="M307 142.2a701 701 0 0 0-26-21.3l-3.9-3a144.5 144.5 0 0 1 29.8 24.2ZM259.3 129.9a143.1 143.1 0 0 0 22.8 28q3.2 3.1 6.7 6c4.4 3.8 9.4 7.9 15.6 7.6a19.5 19.5 0 0 0 8.6-2.3 16.2 16.2 0 0 1-8.6 3.2c-6.4.5-11.6-4-16.2-7.8-2.3-2-4.5-4-6.7-6.2a132.7 132.7 0 0 1-22.2-28.5Z"/><path fill="#37474f" d="M263 135.8a10 10 0 0 1-4-3.9 32.2 32.2 0 0 1 4 3.9ZM272.2 114.7c-4-2.3-13.2-8-17.5-4.6-3.8 4 1.3 13.5 3.3 17.7a39.1 39.1 0 0 1-4.5-8.7c-.8-2.3-1.5-5-.9-7.5 3-8.2 15.3-.3 19.6 3.1Z"/><path fill="#ad6359" d="M302 132c-10-3.9-13.2-2.8-16-1.5-5.9 2.6-14.5 9.3-12 13.4 2 3.6 14-7.6 14-7.6s-14 9.4-10.7 13.4 16.6-10 16.6-10-14.2 10.1-10.1 13.6c3.1 2.7 15.8-9.2 15.8-9.2s-12.2 8.7-9.1 11.6c3.4 3.2 15.8-7 15.8-7 2.3.4 5.2.6 6 .3 1-.5-3.5-14.4-10.2-17Z"/><path fill="#263238" d="M292.8 132.7c-1.7 1-3.5 2-5 3.3l-4.7 3.8a33.4 33.4 0 0 0-5.3 5.7c3-3.5 8.7-8 10.3-9.1s3.1-2.5 4.7-3.7ZM297.2 138.4c-2.1 1.4-4.3 2.8-6.3 4.3s-3.9 3.1-5.8 4.8c-.1.1 0 .2.1 0l6-4.5 6-4.6ZM301.9 142.6a57.2 57.2 0 0 0-9.2 7.3c-.1.1 0 .2.2 0 3-2.5 5.3-4.5 9-7.3.1 0 .1 0 0 0Z"/><path fill="#ad6359" d="M277 111c-3.5 1.3-12.8-3.2-16-8-.1-.4 0-12.5-.2-15.3 0-.6 17.8 3.3 17.8 3.3a44.6 44.6 0 0 0-1 10.8 6.6 6.6 0 0 0 .1 1.2v.2c.6 2.1 3.1 6.6-.7 7.9Z"/><path fill="#263238" d="M277.8 103a1.8 1.8 0 0 0 0 .2 12 12 0 0 1-1.8.2c-10.4.3-13.8-12.4-14.5-15.7 3.1.3 17.2 3.3 17.2 3.3a45 45 0 0 0-1.1 10.8 6.4 6.4 0 0 0 .2 1.2Z"/><path fill="#ad6359" d="M252.8 68.4c-.5 6.5 6.6 23.3 11.8 26.3 7.5 4.3 18 2.6 21-6 3.1-8.4-6.5-30.2-12.1-32.7-8.3-3.7-20 2.8-20.7 12.4Z"/><path fill="#263238" d="M270.4 75.5v.2c.5 1 .9 2.4 0 3.3 1.2-.7.7-2.5 0-3.5Z"/><path fill="#263238" d="M268.9 74.8c-1.9.6-.5 4.3 1.2 3.7s.4-4.3-1.2-3.8ZM277.2 73.2v.1c.5 1.2 1 2.4 2.3 2.4v.1c-1.3.3-2.1-1.4-2.3-2.6Z"/><path fill="#263238" d="M277.8 71.6c1.8-.8 3.3 2.9 1.6 3.7s-3.2-3-1.6-3.7ZM266.8 73.6a14 14 0 0 0 1.3-1 2.7 2.7 0 0 0 1-1.3.8.8 0 0 0-.5-1 2 2 0 0 0-2 .6 3 3 0 0 0-1.1 1.9.9.9 0 0 0 1.3.8ZM278.5 69.2a14.8 14.8 0 0 1-1.6.2 2.7 2.7 0 0 1-1.7-.1.8.8 0 0 1-.3-1 2.1 2.1 0 0 1 1.8-1.1 3 3 0 0 1 2.2.4.9.9 0 0 1-.4 1.6ZM273.3 86.6a1.9 1.9 0 0 0 1.2.4 3.1 3.1 0 0 0 1.2-.8 1.7 1.7 0 0 1-1.2 1.2 1.3 1.3 0 0 1-1.3-.7h.1Z"/><path fill="#263238" d="M273.2 82.7a4.2 4.2 0 0 0 3.3.8 5.2 5.2 0 0 0 1.4-.4.9.9 0 0 0 .3-.2l.2-.1a.3.3 0 0 0 .2-.4v-.2l-1-2.2c.4 0 2.4.2 2.2-.3a63.5 63.5 0 0 0-6-11.3c0-.1-.2 0-.2 0 1.5 3.8 3.6 7.2 5 10.8a7.2 7.2 0 0 0-2 .2l1.2 3a5.8 5.8 0 0 1-4.5.2c-.1 0-.2 0 0 .1Z"/><path fill="#263238" d="M285.7 88.7c-3.2 8.6-13.6 10.3-21 6a22.7 22.7 0 0 1-6.7-8.9l2.2-7.8s3.2 4.8 6 5.7c3.6 1 10 0 11-4l2-.7s5 1.4 5.8-2.4c1.3 4.8 1.7 9.2.7 12Z" opacity=".3"/><path fill="#263238" d="M257.2 83.3c2.7 0 3.4-2.7 3.5-4.5s-3.6-11-3.1-13.8 2.6-4.9 4.8-5 5.8 1.8 7.3 1.1.8-4 1.8-4.4c2.3-.8 6.7 4.1 8 6.5 0 0-3.6-10.9-15-8.2-11.2 2.7-12.2 11.3-12 14.9.2 6.9 4.7 13.4 4.7 13.4Z"/><path fill="#ad6359" d="M260.7 81.3s-5.3-4.7-7.6-2.7 2.8 9.5 6 9.9a3.2 3.2 0 0 0 3.7-2.6Z"/><path fill="#263238" d="M254.6 80.7c2.3.4 4 2 5.2 4a1.8 1.8 0 0 0-2.7.1s0 .1.1.1a2 2 0 0 1 2.2.2 9.5 9.5 0 0 1 1.5 1.4c.1.2.4 0 .3-.2-.6-2.8-3.6-6-6.6-5.6Z"/><path fill="#ebebeb" d="m277.8 102.3-.4 7.6-16.5-11.7-.5 4.3 16.7 14 .7-5.8 4.1 2.8-1.9-8.2-2.2-3z"/><path fill="#263238" d="M260.4 102.5c5.7 4.5 11.3 9.1 16.9 13.8l-.4.1.7-5.7v-.4l.3.2 4 2.8-.3.2-1.6-8.2 2 8.5-4.4-2.9.4-.1-.7 5.7v.4c-5.7-4.7-11.4-9.5-17-14.4Z"/><path fill="#263238" d="m260.6 103-.8-4.7s8.6 5.7 9.4 6.8l9.5 12.9s-15.8-9.9-18.1-15Z"/><path fill="#eb9481" d="M125.5 469.9c2.5.8 77.6-.9 80.4-2.7 1-.7-5.4-71.8-5.4-71.8l-47.6 1 5.4 47.5s-27.7 13.1-30.5 15.5-5 9.7-2.3 10.5Z"/><path fill="#263238" d="M125.5 469.9c2.5.8 77.6-.9 80.4-2.7.3-.2.4-7.4-.8-16.8-13.6 2.3-62.2 9.7-66 7.5-2.6-1.6-.3-4 1.9-5.6-6.2 3-12 6-13.2 7-2.8 2.4-5 9.8-2.3 10.6Z"/><path fill="#d8b4a1" d="m157 432.5 46.7-.7s-9.3-112-8.9-114.1c.5-2.8 33.7-132.9 33.7-132.9h-44.6s-35.2 121.3-36.5 133c-2 18.8 9.5 114.7 9.5 114.7Z"/><path d="m157 432.5 46.7-.7s-9.3-112-8.9-114.1c.5-2.8 33.7-132.9 33.7-132.9h-44.6s-35.2 121.3-36.5 133c-2 18.8 9.5 114.7 9.5 114.7Z" opacity=".5"/><path fill="#263238" d="M199.5 421.3c-2.8-.2-5.6-.2-8.3-.2h-8.3q-8.4 0-16.7.2l-4.5.2c-1.5.1-3.3.4-4.9.4a.1.1 0 0 0 0 .2c1.4 0 2.7.2 4 .3h12.7l16.6-.3c3.1-.2 6.3-.2 9.4-.5a.1.1 0 0 0 0-.3ZM218.7 195.3c-4 14.2-7.7 28.4-11.3 42.7l-10.6 42.8-5.4 21.4c-1.7 7-3.7 14-4.1 21s.5 14.7 1 22 1.3 14.6 2 22c1.2 14.5 2.4 29.1 4 43.7l.6 5.5h.3c-1-14.6-2-29.2-3.2-43.8l-1.8-22c-.6-7.2-1.4-14.5-1.6-21.8s1-14.5 2.9-21.6 3.5-14 5.2-21l10.7-42.7a1588 1588 0 0 0 11.3-48.2Z"/><path fill="#263238" d="M228.5 184.8 204.3 280l-19-95Z"/><path fill="#eb9481" d="M181.5 470c2.6.8 77.7-.8 80.5-2.6 1-.7-3-71.9-3-71.9l-47 1 2.4 47.5s-27.8 13.2-30.6 15.5-4.8 9.7-2.3 10.5Z"/><path fill="#263238" d="M181.5 470c2.6.8 77.7-.8 80.4-2.6.4-.3.3-7.3 0-16.9-13.6 2.3-63 9.8-66.7 7.5-2.7-1.5-.3-4 1.8-5.6-6.2 3.1-12 6.1-13.2 7.1-2.7 2.3-4.8 9.7-2.3 10.5Z"/><path fill="#d8b4a1" d="M185.3 184.8s1.3 21.4 6.4 38.2l1.3 4a80 80 0 0 1 13 6.5s3.2 81.7 3.2 86.7c-.2 19 4.6 111.3 4.6 111.3l47.1-.4S256 326.6 256 319.7c0-6.7-3.2-49.1-6-85.8 0 0 4.1-11.8 3.7-17.7-1.2-14.4-7.6-31.4-7.6-31.4Z"/><path d="M185.3 184.8s1.3 21.4 6.4 38.2l1.3 4a80 80 0 0 1 13 6.5s3.2 81.7 3.2 86.7c-.2 19 4.6 111.3 4.6 111.3l47.1-.4S256 326.6 256 319.7c0-6.7-3.2-49.1-6-85.8 0 0 4.1-11.8 3.7-17.7-1.2-14.4-7.6-31.4-7.6-31.4Z" opacity=".5"/><path fill="#263238" d="m195.6 213.5-.5-3.6-1.2-6.4a315 315 0 0 0-2.8-14.7.1.1 0 0 0-.2 0q.2 3 .6 5.9l.8 5.8c.5 4 1 7.8 1.7 11.6.3 1.5 1.2 4.2-1 4.6-1.7.4-2.9-1.3-3.4-2.7a33.3 33.3 0 0 1-1.1-5.3l-1-5.9q-.8-6.4-2-12.8h-.2a129.9 129.9 0 0 0 1 13.1l1 6.3a22.2 22.2 0 0 0 1.4 5.7 4.7 4.7 0 0 0 3.5 2.9h.1a.2.2 0 0 0 0 .1 18 18 0 0 0 .4 4 14 14 0 0 0 .5 2 9.5 9.5 0 0 0 .4 1 8.5 8.5 0 0 0 .6.9.1.1 0 0 0 .2 0v-1.1l-.2-1-.5-2-.5-2-.6-2a3.1 3.1 0 0 0 3-2 5.3 5.3 0 0 0 0-2.4ZM209.8 235.2a38.5 38.5 0 0 0-4.5-3 44 44 0 0 0-5-2.6c-3.4-1.5-7-2.5-10.5-3.6 0 0-.1.1 0 .1 3.4 1.4 6.6 3.2 10 4.8l4.9 2.3c1.7.7 3.3 1.6 5 2.2a.1.1 0 0 0 0-.3ZM236.4 205.4a29 29 0 0 1-7.1-1c-1-.2-2.1-.6-3.2-1a8.3 8.3 0 0 1-2.8-1.4c-1.7-1.4-2.4-3.6-3.1-5.5a52.9 52.9 0 0 1-1.9-6.8h-.2a26.3 26.3 0 0 0 1 7.7c.6 2 1.4 4.4 3 5.9a12 12 0 0 0 6.6 2.4 30 30 0 0 0 7.7-.1.1.1 0 0 0 0-.2ZM258.8 422c-2.7-.2-5.5-.2-8.3-.2h-8.3q-8.3 0-16.7.3c-1.5 0-3 0-4.5.2l-4.9.4a.1.1 0 0 0 0 .2l4.1.2H232.8c5.5 0 11 0 16.6-.3 3.2-.1 6.3-.1 9.4-.5a.1.1 0 0 0 0-.3ZM253 415.8a.6.6 0 0 0 .6-.6L243 232.4c.1-.8 3.1-11 3.4-16.2.3-5.5-5.4-27-5.7-27.9a.6.6 0 0 0-.7-.4.6.6 0 0 0-.4.7c0 .2 6 22.2 5.7 27.6s-3.4 16-3.4 16.1l10.6 183a.6.6 0 0 0 .6.5ZM248.4 112.9c-.1 3.7 1.7 5 1.8 7 0 0-8.6 3.7-23 3.2s-22.5-4.8-22.5-4.8c.1-2 2.1-3.1 2.2-6.8.2-4.3-2.7-4.7-1.8-11.2.7-4.8 4.3-5.3 5.2-14.7 1-9.8 4.8-13.7 7.8-15.8a16.2 16.2 0 0 1 11.1-3.3s5.2-.8 10.6 3.7c2.8 2.3 6.7 6.8 7 16.6.2 9.5 3.8 10.2 4.1 15 .5 6.6-2.4 6.8-2.5 11.1Z"/><path fill="#263238" d="M210 90.9c1.3-2.7 1.4-6 1.3-8.9 0-.1-.2-.2-.3 0 0 2.8 0 5.8-1.3 8.3-1 2.3-2.9 3.8-4.4 5.7a10.3 10.3 0 0 0-2.2 6.2 10 10 0 0 0 .5 3.4 22.6 22.6 0 0 0 1.6 3c1.6 3.3-.6 6.6-2.4 9 1.5-1.8 3-3.9 3.3-6.4a5.7 5.7 0 0 0-.8-3.4 11.4 11.4 0 0 1-1.6-3.7 9.6 9.6 0 0 1 1.9-7.5c1.4-2 3.3-3.5 4.4-5.7ZM252.4 101.7c-.4-2.8-1.8-5-3.2-7.2a16.9 16.9 0 0 1-1.8-3.5 21.6 21.6 0 0 1-.8-4.4c-.2-1.6-.3-3.2-.7-4.8a29.5 29.5 0 0 0-1.5-4.7 32.3 32.3 0 0 1 1.8 9 18.1 18.1 0 0 0 2 7.7c1.4 2.3 3 4.4 3.6 7 .6 2.9.7 6.4-.8 9-1.3 2-3.7 4.4-2.5 7.2h.1c-.9-3.2 1.8-5.3 3-7.7s1.1-5.2.8-7.6Z"/><path fill="#d8b4a1" d="M175.2 166c-.5 4 3.2 9 8.8 11.4l25.4-21.8c-4.5-.9-9.3-2-12-2.4-11.6-1.9-22 10.2-22.2 12.7Z"/><path d="M175.2 166c-.5 4 3.2 9 8.8 11.4l25.4-21.8c-4.5-.9-9.3-2-12-2.4-11.6-1.9-22 10.2-22.2 12.7Z" opacity=".1"/><path fill="#d8b4a1" d="m182.7 187 9.3-25s-5.5-8.3-.4-16.7c2.6-4.3 19.6-24.6 28-29.3 7.7-4.4 15.1 0 18 5 8 14.1 6.5 30.2 12.1 69.8Z"/><path fill="#eb9481" d="M229.9 116c-.5 1.2-14 11.1-18.2 8.4-1-.7 4.7-8.5 4.7-8.5l-.5-11.5 15.4-6.2s-1.2 17.3-1.4 17.8Z"/><path fill="#263238" d="M230.8 105.5a21.8 21.8 0 0 1-14.4 9.8l-.5-10.8 15.4-6.3Z"/><path fill="#eb9481" d="M205.2 84.6c-6.3 17.7 3.6 23.5 7.5 24.8 3.4 1.2 15.4 5 23.4-12s1.8-25.5-6-28.7-18.7-1.8-25 16Z"/><path fill="#263238" d="M211.6 81.3a11.3 11.3 0 0 0 1.3.1 2 2 0 0 0 1.3 0 .7.7 0 0 0 .3-.8 1.6 1.6 0 0 0-1.4-1 2.4 2.4 0 0 0-1.7.4.7.7 0 0 0 .2 1.3ZM223.5 85.8a11.3 11.3 0 0 1-1.1-.7 2.2 2.2 0 0 1-1-.9.7.7 0 0 1 .3-.8 1.6 1.6 0 0 1 1.6.3 2.4 2.4 0 0 1 1.2 1.3.7.7 0 0 1-1 .8ZM219.3 89.3v.2c-.5 1.2-.9 2.6 0 3.4 0 0 0 .1 0 0-1.2-.6-.7-2.5 0-3.6Z"/><path fill="#263238" d="M220.9 88.5c2 .6.6 4.5-1.3 4s-.4-4.5 1.3-4Z"/><path fill="#263238" d="M221.6 89c.2.3.4.8.8 1s1 0 1.4-.3c-.2.8-.7 1.4-1.6 1.3s-1-1-1-1.9c0-.1.2-.2.4-.1ZM212.3 86.5h-.2c-.3 1.3-1 2.6-2.2 2.7 1.4.3 2.2-1.5 2.4-2.7Z"/><path fill="#263238" d="M211.6 84.9c-1.9-.9-3.3 3-1.6 3.8s3.2-3.2 1.6-3.8Z"/><path fill="#263238" d="M210.7 84.8c-.3.1-.8.4-1.2.2s-.5-.6-.7-1.1c0-.1 0 0 0 0-.4.7-.4 1.5.2 2s1.4-.1 1.8-.8v-.3ZM215.5 99.3a2 2 0 0 1-1.2.5 3.6 3.6 0 0 1-1.3-.7 1.7 1.7 0 0 0 1.3 1.1 1.4 1.4 0 0 0 1.3-.8s0-.1-.1 0ZM211.8 93l-1 2.7.4.3a4.3 4.3 0 0 0 4.4-.3.1.1 0 0 0 0-.2 6.5 6.5 0 0 1-4.1 0c0-.3 1.5-3 1.3-3a8 8 0 0 0-2-.2c1.6-3.7 3.7-7.1 5.3-10.8a.1.1 0 0 0-.2-.1 65.5 65.5 0 0 0-6.3 11.3c-.1.5 1.8.4 2.2.4Z"/><path fill="#263238" d="M211.6 95.6a5 5 0 0 0 1.2 2.2 2.3 2.3 0 0 0 1.2.6c1 .2 1.4-.7 1.6-1.5a5.5 5.5 0 0 0 0-1.2 6.5 6.5 0 0 1-4-.1Z"/><path fill="#ff9abb" d="M212.8 97.8a2.3 2.3 0 0 0 1.2.6c1 .2 1.4-.7 1.6-1.5a2.4 2.4 0 0 0-2.8 1Z"/><path fill="#263238" d="M221.8 70.1a8.5 8.5 0 0 0-1.1 4.8c.7 4.6 6 5 7.1 7s-.3 5 .7 6.8c1.4 2.7 4.3 2.6 4.2 4.1s-.4 6.3 1.2 7.3 18.3-26.3-5.3-32c0 0-2.8-2.2-8.5-1.1-6.3 1.2-11.2 9.6-11.2 9.6l1.1-.6c1.4-.7 2.1-1.5 3.1-1.9 1.6-.6 2.2 0 3.8-.7a16 16 0 0 0 4.9-3.3Z"/><path fill="#263238" d="M222.5 69a16 16 0 0 0-1.7 3.3 6.8 6.8 0 0 0-.5 3.6 5 5 0 0 0 2.1 2.9c1 .7 2.2 1.2 3.2 2a3.8 3.8 0 0 1 1.3 1.6 5.3 5.3 0 0 1 .2 2 6.8 6.8 0 0 0 .3 3.6 4.2 4.2 0 0 0 2.8 2.2c1.1.4 2.5.4 3.5 1.3-1-.8-2.3-.7-3.6-1a4.5 4.5 0 0 1-3.1-2.3 6.8 6.8 0 0 1-.5-3.8 4.5 4.5 0 0 0-.2-1.8 3.2 3.2 0 0 0-1-1.3c-1-.8-2.2-1.3-3.2-2a6.8 6.8 0 0 1-1.4-1.4 4 4 0 0 1-.8-1.8 7.2 7.2 0 0 1 .6-3.9 16.6 16.6 0 0 1 2-3.3Z"/><path fill="#263238" d="M221.8 69.9a13 13 0 0 1-2 2.9 6.1 6.1 0 0 1-3.2 1.9 8 8 0 0 1-1.8.2 3 3 0 0 0-1.5.4 8.8 8.8 0 0 1-1.4 1.1 4 4 0 0 1-1.7.5 4.5 4.5 0 0 0 1.6-.7A8.8 8.8 0 0 0 213 75a3 3 0 0 1 1.8-.7 9 9 0 0 0 1.7-.2 6.6 6.6 0 0 0 2.9-1.7 25.4 25.4 0 0 0 2.4-2.5Z"/><path fill="#eb9481" d="M232.3 97.3s5.7-4.3 7.8-2.1-3.4 9.3-6.8 9.5a3.2 3.2 0 0 1-3.5-2.9Z"/><path fill="#263238" d="M238.4 97.2c-2.3.3-4 1.9-5.4 3.6a1.8 1.8 0 0 1 2.6.4 2 2 0 0 0-2.3 0 9.1 9.1 0 0 0-1.5 1.4c-.2.1-.5 0-.4-.3.9-2.7 4.1-5.7 7-5.1Z"/><path fill="#eb9481" d="M196.4 154s10.3.9 15.6 3a36.8 36.8 0 0 1 14 10.6c4 5 10.4 19.8 6.5 22.4-3.6 2.3-9.3-13.2-9.3-13.2s8.4 14.8 3.6 16.8-10.5-16.2-10.5-16.2 8.4 15.3 3 16.6c-4 1-10-15.3-10-15.3s7.1 13.3 3 14.5c-4.4 1.3-11-13.4-11-13.4a24 24 0 0 1-20.2-6c-1-.8 15.3-19.7 15.3-19.7Z"/><path fill="#263238" d="M220.5 171.5c1 1.7 2.2 3.4 3 5.2s1.8 3.6 2.5 5.5a34.1 34.1 0 0 1 2.1 7.5c-1-4.5-4.2-11-5-12.8a121.2 121.2 0 0 0-2.6-5.4ZM214 174.6c1.3 2.3 2.6 4.4 3.7 6.7l3 6.9c.1.2 0 .1-.1 0-1-2.3-2.3-4.4-3.4-6.7l-3.3-6.8c.1 0 .1-.1.1 0ZM208 176.3a56.5 56.5 0 0 1 4.9 10.7c0 .2-.1.1-.2 0-1.6-3.6-2.8-6.4-4.9-10.6 0 0 .1-.2.2 0Z"/><path fill="#d8b4a1" d="M189.4 152.4c-.7 1-12 12-12.8 16.8s14-3.3 14-3.3Z"/><path fill="#d8b4a1" d="M225.3 125.2c-18.3 10.8-48.3 38-49.1 45.5-.6 5.4-.7 10.7 1.5 13.5 4.3 5.7 13.6 5.2 16.8 3.1 14.4-8.7 30-28.1 40-48.5 9-17.8-3.3-17.2-9.2-13.6Z"/><path fill="#263238" d="M184.5 158.8a144.1 144.1 0 0 1 28.8-25.5l-3.7 3.2c-8 7-17.4 15-25 22.3ZM231.6 144.5a133 133 0 0 1-21 29.5q-3 3.4-6.4 6.5c-4.4 4-9.4 8.6-15.9 8.4a16.2 16.2 0 0 1-8.6-2.8 19.4 19.4 0 0 0 8.6 2c6.2 0 11-4.4 15.3-8.3q3.3-3 6.5-6.3a143.4 143.4 0 0 0 21.5-29Z"/><path fill="#263238" d="M228.2 150.5a32.3 32.3 0 0 1 3.8-4 10 10 0 0 1-3.8 4Z"/><path d="M218 129.9c4.2-3.6 16-12 19.5-4 .7 2.5.1 5.2-.6 7.6a39 39 0 0 1-4.1 8.9c1.8-4.3 6.5-14.1 2.5-18-4.5-3.2-13.2 3-17.3 5.5Z" opacity=".1"/><path fill="#fff" d="M144.4 65.2a25.7 25.7 0 0 0 43 16.3l13 1.9-6.5-11.2a25.4 25.4 0 0 0 1.8-12.4 25.8 25.8 0 1 0-51.2 5.4Z"/><path fill="#263238" d="M152.2 44a26 26 0 0 1 40.6 5.5 26 26 0 0 1 1.6 23V72l6.4 11.1.4.9-.9-.2-12.9-2h.3A26 26 0 0 1 175 88a21.4 21.4 0 0 1-3.6.4 25.1 25.1 0 0 1-3.5 0 25.8 25.8 0 0 1-7-1.8 25.4 25.4 0 0 1-6.2-3.4 23.2 23.2 0 0 1-5-5 25.9 25.9 0 0 1 2.5-34.3Zm-2.5 34.2a29.5 29.5 0 0 0 2.4 2.6 30.9 30.9 0 0 0 2.7 2.3 23.9 23.9 0 0 0 6.2 3.4 25.5 25.5 0 0 0 6.9 1.5 24.3 24.3 0 0 0 3.5 0 21.6 21.6 0 0 0 3.5-.4 25.4 25.4 0 0 0 12.3-6.4H187.5l13 1.7-.5.7-6.5-11.1-.1-.2V72a25.4 25.4 0 0 0-1.4-22 26.6 26.6 0 0 0-7.7-8.5 25.6 25.6 0 0 0-22-3.3 25.6 25.6 0 0 0-17.8 27 26 26 0 0 0 5.2 13Z"/><path fill="#d8b4a1" d="m167.2 77.2-11-11.1 3.7-3.7 6.4 6.5L179.7 48l4.4 2.8-16.9 26.4z"/></svg>