<svg xmlns="http://www.w3.org/2000/svg" viewBox="0 0 500 500"><path fill="#ebebeb" d="M371.9 219.2c-36.2 72.8-122 116-122 116s-85.9-43.2-122-116c-30-60.7-11-126.4 36.5-140.7 68-20.6 85.5 57.4 85.5 57.4s17.4-78 85.5-57.4c47.5 14.3 66.5 80 36.5 140.7Z"/><path fill="#c7c7c7" d="M79 238.6c6.6 4.5 16 4 16 4s5.2-7.8 4.8-15.7c-.3-6.6-5.1-11.3-9.8-10.2-6.8 1.5-2.6 12.4-2.6 12.4s-7.2-9.2-12-4.2c-3.3 3.5-1.8 10 3.7 13.7ZM386.8 92.4c1.4 3.8 5.4 6.4 5.4 6.4s4.4-1.7 6.6-5.1c1.8-2.9 1.2-6.2-1-7.2-3.3-1.3-4.8 4.4-4.8 4.4s-.2-6-3.7-5.3c-2.4.5-3.7 3.6-2.6 6.8ZM367.9 199c4.1 12.1 16.6 20.6 16.6 20.6s14.3-5 21.4-15.6c6-8.9 4.3-19.5-2.8-22.7-10.2-4.6-15.3 13.5-15.3 13.5s-.3-18.8-11.4-17c-7.7 1.3-12 11.1-8.5 21.2Z"/><path fill="#263238" d="M25.1 441.7c144-.6 305.7-.6 449.8 0-144 .6-305.7.6-449.8 0ZM195.6 228.7c1.1 5.7 2.2 11.4 3.6 17a101.9 101.9 0 0 0 3 10.2 23.7 23.7 0 0 0 5.3 2l-.9-2.5a117.5 117.5 0 0 1-3.4-12.1 145 145 0 0 0 5.5 15 38 38 0 0 0 5.2.6l-1.1-2.9c-1-2.2-1.8-4.5-2.5-6.7a117.1 117.1 0 0 1-3.7-13.7c0-.1.3-.2.3 0q2 7 4.4 13.8a166.3 166.3 0 0 0 3.8 9.5 58.9 58.9 0 0 0 9.6-.5c9.1-1 18-5.2 25.8-10a52.3 52.3 0 0 0 17-16.6 41.7 41.7 0 0 1-8.8-9 .1.1 0 0 1 .2-.2 111 111 0 0 0 9.2 8.3 3.1 3.1 0 0 1 .2-.3l1.2-2.2a66 66 0 0 1-5.8-5.6 60.5 60.5 0 0 1-7.2-8.7.2.2 0 0 1 .3-.3c2.5 2.7 5 5.5 7.6 8.1 1.8 1.9 3.7 3.6 5.6 5.4 1-2.3 1.7-5 .7-7.4-.9-2-2.6-3.5-4.1-5a55.8 55.8 0 0 1-4.8-5.3c-11.7-15-21.5-51.1-34.8-50.3-.1-.1-23.9-4.5-32.8 8-14.3 20-2 75.7-.1 80a17.5 17.5 0 0 0 6.7 7.8c-1-2.8-1.8-5.7-2.4-8.6a167 167 0 0 1-3-17.8.1.1 0 0 1 .2 0Z"/><path fill="#d3766a" d="M198.7 239c12 21 28.9 49.9 36.6 52.3 20 6.5 59.4 9.6 72.8 5.2 5-1.6 1.6-43-3.9-41.4a267 267 0 0 1-55 3c-2.3-.8-22-19.1-37.3-30-21.7-15.5-17.5 3.4-13.2 11Z"/><path d="M198.7 239c12 21 28.9 49.9 36.6 52.3 20 6.5 59.4 9.6 72.8 5.2 5-1.6 1.6-43-3.9-41.4a267 267 0 0 1-55 3c-2.3-.8-22-19.1-37.3-30-21.7-15.5-17.5 3.4-13.2 11Z" opacity=".1"/><path fill="#d3766a" d="M362.2 262.5a2.3 2.3 0 0 1-1.3 1.7c3 2.1 4.8 4.6 3.7 7.1-.7 1.5-2.2 2.2-4 2.2 1.2 1.3 1.6 2.7.7 4.2-1.7 2.6-8.7 1.8-15.5.2 4.5 1.8 7.9 4 6.5 6.4-3.8 6.3-18.7 1.2-29.2-.8a34.6 34.6 0 0 0-10-.8 8.7 8.7 0 0 0-1.4.4c-1.3.3-2.2 1-2.3 2.1-.2 2 4 3.7 7.2 3.9 5.7.3 12.8 5.9 12.6 9.5-.3 5.4-13.5 2.8-18.3 3-6.4.4-17-2.7-17.8-2.8 0 0-1-4-2-9.4-2-10.5-4.2-26.7-.6-32.5 0 0 20.2-8.9 41.3-11 7.2-.7 32.2 9.4 30.4 16.6Z"/><path d="M362.2 262.5a2.3 2.3 0 0 1-1.3 1.7c3 2.1 4.8 4.6 3.7 7.1-.7 1.5-2.2 2.2-4 2.2 1.2 1.3 1.6 2.7.7 4.2-1.7 2.6-8.7 1.8-15.5.2 4.5 1.8 7.9 4 6.5 6.4-3.8 6.3-18.7 1.2-29.2-.8a34.6 34.6 0 0 0-10-.8 8.7 8.7 0 0 0-1.4.4c-1.3.3-2.2 1-2.3 2.1-.2 2 4 3.7 7.2 3.9 5.7.3 12.8 5.9 12.6 9.5-.3 5.4-13.5 2.8-18.3 3-6.4.4-17-2.7-17.8-2.8 0 0-1-4-2-9.4-2-10.5-4.2-26.7-.6-32.5 0 0 20.2-8.9 41.3-11 7.2-.7 32.2 9.4 30.4 16.6Z" opacity=".1"/><path fill="#263238" d="M321.4 272a26.5 26.5 0 0 1 12.2.5c5.5 1.4 8 3.3 13 5.5a.1.1 0 0 1-.1.2c-2.3-1-10.3-4.2-12.7-5a25.4 25.4 0 0 0-12.4-1.1v-.1ZM322.8 262.5a59 59 0 0 1 13.5.3c5.5.8 10.5 3.5 15.4 6q4.5 2.3 8.8 4.8c.1 0 0 .3-.1.2q-7.5-4-15.2-7.5a39.7 39.7 0 0 0-15.2-3.6c-3 0-4.2-.2-7.2 0v-.2ZM324.2 253.8c4.8-.7 9-1.3 13.8-.3 6.4 1.4 12.3 4.8 14.8 6l8 4.6-.1.2a157.9 157.9 0 0 0-18.4-9 25 25 0 0 0-8.4-2 56.2 56.2 0 0 0-9.7.4Z"/><path fill="#d8b4a1" d="M239.7 246.4 220.3 279s-21.8-35.5-25.3-47.7c-4-13.8 4-12.8 16-6.3s28.7 21.4 28.7 21.4Z"/><path fill="#263238" d="M233 244c-3 3.9-10.4 16.6-11.7 18.7l-3.7 6.7c-.1.1.1.2.2.1 1.3-2 2.8-4 4-6.1s9.4-14.8 11.4-19.2a.1.1 0 0 0-.1-.1Z"/><path d="m232.8 258-12.5 21s-21.8-35.5-25.3-47.7c-1.9-6.6-1-9.8 1.7-10.7Z" opacity=".1"/><path fill="#d3766a" d="M341 439.6c3.3-1 .4-10.5-3.2-13.4-1.2-1-5.5-3.2-10.9-5.8-11.8-5.7-28.9-13.3-28.9-13.3l14.6-61.6-59.3.3s-16.2 57.9-16 61.5v.6c.4 16.4 1.2 29.7 2.6 30.6 3.6 2.3 97.9 2.2 101.2 1.1Z"/><path fill="#ebebeb" d="M341 439.6c-3.2 1.1-97.5 1.2-101.1-1.1-1.4-.9-2.2-14.2-2.7-30.5v-.7a68.5 68.5 0 0 1 1.9-8.7H300l-2 8.5s17 7.6 29 13.3c5.3 2.6 9.6 4.8 10.8 5.8 3.6 2.9 6.5 12.3 3.3 13.4Z"/><path fill="#d8b4a1" d="M342.1 440.2c-3.3 1-99.4 1-103-1.3-1.4-1-2.2-15-2.7-31.8v-.6l62-.6v1s36.7 16.5 40.5 19.5 6.6 12.7 3.2 13.8Z"/><path fill="#263238" d="M341 436.4a2577.8 2577.8 0 0 0-97.5.4c16 .8 81.3.4 97.5-.1.4 0 .4-.3 0-.3ZM305.3 406c-6.4-1.1-14.2-.1-19 4.4-.2.2 0 .4.2.4a89 89 0 0 1 18.7-3.9.4.4 0 0 0 0-.8ZM309.8 408.9c-6.3-1.2-14.1-.3-19 4.3-.2.2.1.4.3.4a90 90 0 0 1 18.7-4 .4.4 0 0 0 0-.7ZM314.4 411.6c-6.3-1.2-14.1-.2-19 4.3-.1.2.1.5.3.4a89 89 0 0 1 18.7-3.9.4.4 0 0 0 0-.8Z"/><path fill="#263238" d="M313.6 392.2c-2.6-3.4-7.2-1.9-9.9.3a34 34 0 0 0-9.8 14.6.2.2 0 0 0 .2.2.8.8 0 0 0 1 .8c5.2-1.9 11-3.3 15.6-6.8 2.6-2 5.2-5.8 2.9-9Zm-11.2 11.4-7.7 3c2-2.9 3.8-5.8 6-8.4a35.4 35.4 0 0 1 3.3-3.7c2-1.7 9.4-5.3 8.3 1.7-.6 3.8-6.8 6.2-9.9 7.4Z"/><path fill="#263238" d="M277.7 405.4c5.3 2.3 11.3 2.2 16.9 2.7.5 0 .8-.5.7-1a.2.2 0 0 0 .1-.2 33.9 33.9 0 0 0-13.2-11.7c-3.1-1.4-8-1.8-9.6 2.2-1.4 3.7 2 6.7 5.1 8Zm-2.9-4.5c-2.8-6.5 5.4-4.8 7.6-3.6a35.3 35.3 0 0 1 4.2 2.6 99.2 99.2 0 0 1 7.9 6.6l-8.2-1c-3.3-.3-9.9-1-11.5-4.6Z"/><path fill="#37474f" d="M170.7 304.4s-10.6 38.5 8 49.9c12.3 7.6 67-3 69.4-9.7 4.4-12.8 4.4-17.5 4.4-17.5l-14 67.8 68.9.8s12.9-56 9.6-115.5c-1.2-22-30.8-28.6-51.4-17.7-20 10.6-55.6 40-55.6 40Z"/><path fill="#263238" d="M244.2 355.2c3.7-9.1 3.4-12.7 12.7-40.9 1.3-3.8 2.3-7.6 3.4-11.4 1.1-4 2.5-7.9 3.4-12 0-.1.4 0 .3.2-1 3.5-1.8 7-2.7 10.6a349.9 349.9 0 0 1-4 14.8l.5-1a174 174 0 0 1 2.5-4c1.7-3 3.8-5.6 5.3-8.5.1-.2.4 0 .3.1-1.8 2.8-3 6-4.6 8.9l-2.5 4.1a27.4 27.4 0 0 1-2.5 3.7c-1.3 4.3-4 14.8-5.4 19.1-4.2 13.7-2.8 9.2-6 16.6-.2.4-.8 0-.7-.3ZM275.6 383.7c-10.4-.1-20.7-.7-31-.9-.3 0-.3-.3 0-.3 10.3 0 20.6-.5 31-.3s20.6.6 31 1c.3 0 .3.4 0 .4-10.3 0-20.6.2-31 0ZM250.2 380.2c1-4.5 2.3-9 3.5-13.6l3.6-13.5 7.7-27 4.7-15.3a.1.1 0 0 1 .2 0Q263 338.2 255 365c-1.5 5.1-2.9 10.3-4.7 15.3h-.1Z"/><path fill="#263238" d="M178.6 354.3c-18.5-11.4-7.9-49.9-7.9-49.9l33-1.6 45 39.6-.7 2.2c-2.3 6.8-57 17.3-69.4 9.7ZM307.7 394.1l-.4 1.6-68.9-.8 10.8-52.1Z"/><path fill="#d3766a" d="M33 448.9c-.5 3.4 9.2 5.4 13.5 3.6 1.3-.6 5.3-3.3 10.2-6.8 10.7-7.6 25.6-19 25.6-19l50.7 3.1 28.3-52s-46.6-2.7-49.8-4.4l-.6-.3c-14.6-7.4-26.7-13.2-28-12.4-3.8 2-49.2 84.7-49.8 88.2Z"/><path fill="#ebebeb" d="m120.3 374.8-26.6 52.7-11.4-.7S67.4 438 56.7 445.7a93.6 93.6 0 0 1-10.2 6.8c-4.3 1.8-14-.3-13.4-3.7s46-86 49.7-88c1.4-.8 13.5 5 28 12.3l.6.3c.8.4 4.3.9 9 1.4Z"/><path fill="#d8b4a1" d="M32.1 449.5c.6-3.5 47-87.6 50.8-89.6 1.4-.8 14 5.2 29.1 13l.5.2-29.3 54.6-.9-.6s-32.1 24.3-36.6 26.1-14.2-.2-13.6-3.7Z"/><path fill="#263238" d="M35.9 450.4a2580.4 2580.4 0 0 0 46.7-85.6 2564.4 2564.4 0 0 0-46.7 85.6ZM79.7 433.6c4.1-5 7-12.3 5.4-18.7 0-.3-.4-.2-.4 0a89.5 89.5 0 0 1-5.7 18.3.4.4 0 0 0 .7.4ZM75 436.3c4.2-5 7-12.3 5.5-18.8 0-.2-.4-.1-.5.1a88.8 88.8 0 0 1-5.6 18.3.4.4 0 0 0 .7.4ZM70.4 439c4.2-5 7-12.3 5.4-18.8 0-.2-.4-.1-.4.1a89.5 89.5 0 0 1-5.7 18.3.4.4 0 0 0 .7.4Z"/><path fill="#263238" d="M87.9 447.6c4.2-.6 5.1-5.4 4.4-8.8a34 34 0 0 0-8-15.6.2.2 0 0 0-.2 0 .8.8 0 0 0-1.2.5c-.9 5.5-2.4 11.3-1.5 17 .4 3.3 2.5 7.4 6.5 6.9Zm-4.6-15.3c.3-2.7.8-5.4 1-8.1a102.3 102.3 0 0 1 4.6 9.2 35.6 35.6 0 0 1 1.5 4.7c.6 2.5.2 10.8-5.4 6.5-3-2.4-2.1-9-1.7-12.3Z"/><path fill="#263238" d="M93.6 409.8c-4.5 3.5-7.3 8.9-10.5 13.5a.8.8 0 0 0 .5 1.2.2.2 0 0 0 .2.2 34 34 0 0 0 16.5-6c2.9-2 5.5-6.2 2.8-9.5-2.6-3-7-1.4-9.5.6Zm5.3-.3c7 .6 1.7 7-.4 8.4a37.6 37.6 0 0 1-4.4 2.4c-3 1.5-6.3 2.5-9.6 3.7 1.7-2.2 3.2-4.5 4.8-6.7 2-2.7 5.7-8.2 9.6-7.8Z"/><path fill="#37474f" d="M217.8 297.1a280 280 0 0 1 1.6 28.3s65.5 34.3 68.5 66.9c1 11.6-.5 33.2-23.1 43-25.4 11-165.2 3.5-165.2 3.5l17.5-64.4h61.7s-43.6 7-48.3-22c-4.4-27 12.2-55.3 12.2-55.3Z"/><path fill="#263238" d="M114 435.6c1.6-7.4 3-14.8 4.8-22.2s3.5-14.8 5.5-22.1l1.6-6.2.9-3 .9-3h.1a50.6 50.6 0 0 1-1 5.8l-1.2 5.4-2.5 11c-1.7 7.3-3.6 14.6-5.5 21.9l-3.3 12.4c0 .3-.3.3-.3 0ZM157.4 374.4l15-.6h15c5-.1 10 .4 15 .8a109.8 109.8 0 0 1 15 2.1l-3.8-.4-3.7-.4-7.5-.5-15-.6-15-.3Z"/><path fill="#263238" d="M156.4 302.4a180.7 180.7 0 0 0-5.9 17.6 113.9 113.9 0 0 0-3.5 18 51.8 51.8 0 0 0-.2 9.1 22.8 22.8 0 0 0 2.2 8.7 12 12 0 0 0 2.7 3.5 21.6 21.6 0 0 0 3.7 2.6 40.8 40.8 0 0 0 8.4 3.4 114 114 0 0 0 18 3.3c6.1.7 12.3 1.2 18.4 1.8a133.5 133.5 0 0 1 18.4 2.8 36.4 36.4 0 0 1 8.8 3.3 42 42 0 0 1 7.6 5.4l1.4 1.3h-1.9l-49.8-.7-25-.2c-8.3 0-16.6 0-25 .2 8.4-.5 16.7-.7 25-.8l25-.2h25l25 .3-.6 1.2a40.2 40.2 0 0 0-7.4-5.2 34.4 34.4 0 0 0-8.5-3.1 148.1 148.1 0 0 0-18-2.8c-6.2-.7-12.4-1.2-18.5-2a115.3 115.3 0 0 1-18.2-3.3 39.3 39.3 0 0 1-8.7-3.6 23.2 23.2 0 0 1-3.8-2.8 13.4 13.4 0 0 1-2.9-3.9 23.6 23.6 0 0 1-2.2-9 52.5 52.5 0 0 1 .3-9.4 107 107 0 0 1 4-18 163.8 163.8 0 0 1 6.2-17.5ZM210.7 296.5a.1.1 0 0 1 .3 0l1.4 19.8c.1 1.7 0 4.7 2.5 4.7 2 0 3-2.2 3.2-3.8.3-2-.8-16.8-1-21.8a150 150 0 0 1 2.4 22.8 5 5 0 0 1-3.2 4 33 33 0 0 1 0 5.9h-.6c.1-1.1-.5-5.6-.5-5.6a3.5 3.5 0 0 1-3.2-1.5c-1.7-2.4-1.3-18.9-1.3-24.5Z"/><path fill="#263238" d="M203.6 334.3a91.8 91.8 0 0 1 11.2-6.7c1.9-1 3.8-2 5.8-2.8s4-1.8 6-2.5l-2.8 1.6-2.9 1.6-5.6 3-5.8 3-2.9 1.4-3 1.4ZM157.2 324c3.4 0 14.3.6 19.4-3.7 4.2-3.6 6-15.6 6.8-19h.2a37.8 37.8 0 0 1-1.4 11.1c-.8 3.1-2 6.5-4.4 8.6s-6.1 3-9.4 3.5a43.5 43.5 0 0 1-11.2-.2.2.2 0 0 1 0-.3Z"/><path fill="#d8b4a1" d="m220.5 287-2.3 27-85.5.5s24-67.4 48-90.3c9.6-9 18.6-6.5 25.5.4 1.5 1.6 20.5 32.5 22.2 43.6 1.3 9-7.9 18.8-7.9 18.8Z"/><path fill="#263238" d="M208.6 282a68.8 68.8 0 0 0-12.8 1.6c-2.1.5-4.2 1-6.3 1.8l-3.1.9a10.8 10.8 0 0 1-3.3.5c-.1 0-.1.2 0 .2a18.1 18.1 0 0 0 3 .2 18.8 18.8 0 0 0 3-.5l6.5-1.6c4.3-1 8.6-2 13-2.7.2 0 .2-.5 0-.5ZM218.6 287.7a70.8 70.8 0 0 0-10.4-1.6 48.8 48.8 0 0 0-5.3 0l-2.5.2c-.8 0-1.9.3-2.8.4-.1 0-.1.2 0 .2l2.6.1 2.6.2c1.8 0 3.5.2 5.3.3 3.5 0 7 .3 10.5.6.2 0 .2-.4 0-.4Z"/><path fill="#d3766a" d="M193.5 223.5c0 1.7 5.4 14.2 13 15.5 2.4.5 5.4-12.9 5.4-12.9l.5-1 6.2-13-13.8-14.1-2-2-3.3 8.4-.2.7c0 .3-.2.5-.3.7l-.9 2-.5 1.7c-.1.6-.4 1.1-.7 1.7a91.7 91.7 0 0 0-3.4 12.3Z"/><path fill="#263238" d="M199.5 204.4a29 29 0 0 0 12.9 20.8l6.2-13-13.8-14.2-2-2-3.3 8.4Z"/><path fill="#d3766a" d="M243.1 195.7c-4.3 25-19.8 25.3-25.2 24.3-5-.8-21.5-4.4-19.8-29.7s14.7-31.3 26-30 23.3 10.3 19 35.3Z"/><path fill="#263238" d="m239 188.7-1.7-.6a2.9 2.9 0 0 1-1.5-1 1 1 0 0 1 .2-1.1 2.3 2.3 0 0 1 2.3-.1 3.3 3.3 0 0 1 1.8 1.5 1 1 0 0 1-1.2 1.3ZM222.4 186a17 17 0 0 0 1.8 0 2.8 2.8 0 0 0 1.7-.5 1 1 0 0 0 .2-1 2.3 2.3 0 0 0-2-1 3.3 3.3 0 0 0-2.3.8 1 1 0 0 0 .6 1.7ZM224.7 193c0-.1-.2 0-.2 0-.2 1.8-.7 3.7-2.4 4v.2c2 0 2.6-2.6 2.6-4.3Z"/><path fill="#263238" d="M223.4 191c-2.7-.7-3.8 4.8-1.3 5.4s3.6-5 1.3-5.5Z"/><path fill="#263238" d="M222.3 191c-.6.2-1.2.7-1.8.6s-1-.7-1.4-1.3c0-.1 0 0 0 0-.3 1 0 2.2 1 2.5s2-.4 2.4-1.4c0-.2 0-.5-.3-.4ZM234.6 194.4v.2c-.3 1.7-.5 3.7 1 4.5v.1c-2-.6-1.7-3.3-1-4.8Z"/><path fill="#263238" d="M236.4 193c2.8.2 2 5.8-.6 5.4s-1.7-5.8.6-5.5Z"/><path fill="#263238" d="M237.5 193.4c.4.4.8 1 1.3 1.1s1.1-.4 1.6-.9c0 1.1-.6 2.2-1.6 2.2s-1.5-1-1.6-2c0-.2.2-.5.3-.4ZM222.7 206.7c.3.5.5 1.1 1.1 1.3a4.4 4.4 0 0 0 2 0v.1a2.3 2.3 0 0 1-2.4.4 1.8 1.8 0 0 1-1-1.8h.3ZM230.9 201.8s-.1 2.6-.3 3.8h-.8a5.8 5.8 0 0 1-5.2-3 .1.1 0 0 1 .2-.2 8.8 8.8 0 0 0 5 2.4c.2-.3 0-4.5.2-4.4a10.8 10.8 0 0 1 2.6 1c.4-5.4-.1-10.8.3-16.2a.2.2 0 0 1 .4 0c.9 5.6.6 12 .4 17.5 0 .7-2.4-.6-2.8-1Z"/><path fill="#263238" d="M228.9 205a6.2 6.2 0 0 1-2.8 1.4 2.8 2.8 0 0 1-1.7-.1c-1.1-.6-1-1.7-.6-2.6a6.5 6.5 0 0 1 .8-1.3 8 8 0 0 0 4.3 2.6Z"/><path fill="#ff9cbd" d="M226.1 206.4a2.8 2.8 0 0 1-1.7-.1c-1.1-.6-1-1.7-.6-2.6a2.9 2.9 0 0 1 2.3 2.8Z"/><path fill="#263238" d="M197.4 194.6c4.4.8 6.4-8.2 6.4-8.2s8.8 1 13.2-11.3a19.7 19.7 0 0 1-5.1 10s15.8.2 23.8-12.1c0 0-3.4 6.3-6 8.4 0 0 6.6-1.1 10.4-6 0 0 2 7.8 3.8 10.1 0 0 2.4-27.3-23.2-27.3 0 0-15.9-.7-23 11.1s-.3 25.3-.3 25.3Z"/><path fill="#d8b4a1" d="m206.9 187.6-6.3-6.1-1.5 1.8 7 5.3.8-1zM205.7 189.4l-7.4-4.8-1.1 2 7.8 3.9.7-1.1z"/><path fill="#d3766a" d="M201.7 192.9s-3.3-9.1-7.3-8.1-2.9 13.2.8 15.8a4.3 4.3 0 0 0 6.2-.8Z"/><path fill="#263238" d="M194.8 188.3c2.6 2 3.4 5 3.7 8-.6-1.2-1.6-2-3.3-1.4v.1a2.6 2.6 0 0 1 2.6 1.7 12.4 12.4 0 0 1 .8 2.6c0 .3.5.3.5 0 1-3.8-.5-9.6-4.3-11Z"/><path fill="#d3766a" d="M178.7 249.3c2.6 25.3 9.4 70.4 26.7 76.5 11.1 3.8 46.2-19 58.3-28.6 4.2-3.3-13.1-36-18.5-34-7.2 2.7-28.1 17.2-30 16.6-1.5-.5-7.6-17.5-17.6-36-12.7-23.3-21-15.4-18.9 5.4Z"/><path fill="#d3766a" d="M268.9 292c-4 7.4-15.8 9.4-15.8 9.4l-16.3-31.6s9.3-7 12-12.5c.8-1.6 5.2-9.8 9-18 4.3-9.5 10-18.7 11.2-19.2 2.2-1 4.8 2.1 3.4 9.1s-6.6 20.2-6.7 21a6.1 6.1 0 0 0 0 .9c.3.3 8.5 6.2 8.5 10.8s-2.6 24.9-5.3 30Z"/><path fill="#d3766a" d="M258 261.8s-.2-17.4 1.8-20.4 11.5-22.8 13.7-23.8 4.8 2.1 3.4 9.1-6.6 20.2-6.7 21 2.6 16 2.5 17.4-14.6-3.3-14.6-3.3Z"/><path fill="#263238" d="m256.5 252 1.4-5.6a94.7 94.7 0 0 1 1.2-4l.2-.8a6.2 6.2 0 0 1 .3-.7 1084 1084 0 0 1 10.9-20 12.3 12.3 0 0 1 1.8-2.4 5.1 5.1 0 0 1 1.2-.9 2.4 2.4 0 0 1 1.5-.3 2 2 0 0 1 1.3.9 4.5 4.5 0 0 1 .6 1.3 11.1 11.1 0 0 1 .4 2.9 12 12 0 0 0-.6-2.8 4 4 0 0 0-.7-1.2 1.5 1.5 0 0 0-1-.6 3 3 0 0 0-2.2 1.2 11.6 11.6 0 0 0-1.6 2.2 651.6 651.6 0 0 1-10.9 20.1 14.4 14.4 0 0 0-1 2.6l-1 2.7Z"/><path fill="#d3766a" d="M260.8 264.7s-.2-19.1 1.8-22.1 11.5-22.9 13.7-23.8 4.8 2 3.3 9-6.5 20.3-6.6 21 1 15.8.8 17.3-13-1.4-13-1.4Z"/><path fill="#263238" d="m258.1 255.2 2-6.7 1-3.3.7-1.7a13.3 13.3 0 0 1 .7-1.6l6.7-12.3 3.5-6.1.8-1.6a15 15 0 0 1 1-1.5 7.3 7.3 0 0 1 1.3-1.3 3.2 3.2 0 0 1 1.8-.8 1.9 1.9 0 0 1 1 .3 2.5 2.5 0 0 1 .7.7 5.4 5.4 0 0 1 .7 1.8 16.4 16.4 0 0 1 .3 3.5 20 20 0 0 1-1.5 7 21.7 21.7 0 0 0 1-7 16.7 16.7 0 0 0-.4-3.4 4.9 4.9 0 0 0-.7-1.5 1.3 1.3 0 0 0-1.1-.6 2.4 2.4 0 0 0-1.3.6 7 7 0 0 0-1.1 1.2l-1.7 3-3.4 6.2-6.9 12.2a13 13 0 0 0-.8 1.5 45 45 0 0 0-1.9 4.9Z"/><path fill="#d3766a" d="M260.2 264.5s3.7-16.6 5.6-19.4 7.4-16.7 9.5-17.6 4.5 2 3.1 8.5-2.9 14.2-3 15l-1.6 15.1c-.2 1.4-13.6-1.6-13.6-1.6Z"/><path fill="#263238" d="M259.8 259.8a660.3 660.3 0 0 1 4-13l.3-1a10 10 0 0 1 .4-1.1l1-2a160.4 160.4 0 0 1 6.8-11.8l1.2-1.9a13.4 13.4 0 0 1 1.5-1.8 1.9 1.9 0 0 1 1.3-.6 2 2 0 0 1 1.3.6 5.7 5.7 0 0 1 1.2 2.2 10 10 0 0 1 .4 4.7l-1.7 8.8c-.6 3-1.1 6-1.8 8.9l-.6 4.4-.7 4.5c0-3 .2-6 .5-9l1.7-9 1.6-8.8a8.9 8.9 0 0 0-.3-4.2 4.5 4.5 0 0 0-1-1.8.8.8 0 0 0-1.3 0 14 14 0 0 0-1.3 1.7l-1.3 1.8-2.3 3.9-4.6 7.7-1 2a18.1 18.1 0 0 0-.8 2.1l-1.5 4.3Z"/><path fill="#d8b4a1" d="m212.4 268.7-30.7 22.1s-5.8-41.2-4.1-53.9c1.9-14.2 8.7-10 17 .7s17.8 31.1 17.8 31.1Z"/><path fill="#263238" d="M207.4 264c-4.3 2.2-16.3 10.9-18.2 12.3l-6.2 4.6c-.1.1 0 .3.2.2l6.2-4c2-1.4 14.4-9.8 18-13a.1.1 0 0 0 0-.2Z"/><path fill="#263238" d="M177.8 253.7c0-.2-.3-.1-.3 0l.6 10.6a30.1 30.1 0 0 1-1.2-5.4h-.1a24.7 24.7 0 0 0 1.3 6.3l.6 7.3c.6 6.3 1.1 12.6 2 18.8a.4.4 0 0 0 .7.2 48.8 48.8 0 0 0 3-2.7l-2.9 1.7c-.4-6-1-12.1-1.6-18.1l-2-18.7ZM205.7 254l-2.3-5.6 1.5 4.2c-1.5-2.6-3-5.1-4.6-7.5 1.8 4 4 8 6 11.9l6 11.6a80.8 80.8 0 0 1-1.8 2l2.4-1.5a.4.4 0 0 0 .2-.5c-2.3-5-4.8-9.9-7.4-14.6Z"/><path fill="#d8b4a1" d="M345.4 250.9s11-10.3 19-10.2 27.2 2 40.2 2c12 0 13.8 25.2-1 31.5C390.3 280 365 260 360.3 258s-12.4-.3-12.4-.3-3.7-4.2-2.4-6.7Z"/><path d="M345.4 250.9s11-10.3 19-10.2 27.2 2 40.2 2c12 0 13.8 25.2-1 31.5C390.3 280 365 260 360.3 258s-12.4-.3-12.4-.3-3.7-4.2-2.4-6.7Z" opacity=".6"/><path fill="#d8b4a1" d="M331.1 392.8s-10.5 30.7-15.8 43.2a16.4 16.4 0 0 1-3.9 5.3c-.9.9-35.4.1-36 0s3.7-8.4 6.1-9.5 20.6 2.2 20.6 2.2.7-36 .5-37.1a31.4 31.4 0 0 1-.2-4l-.4 5.5a34.4 34.4 0 0 1-1.3-6c0-2 1.1-20.7 1.1-20.7Z"/><path d="M331.1 392.8s-10.5 30.7-15.8 43.2a16.4 16.4 0 0 1-3.9 5.3c-.9.9-35.4.1-36 0s3.7-8.4 6.1-9.5 20.6 2.2 20.6 2.2.7-36 .5-37.1a31.4 31.4 0 0 1-.2-4l-.4 5.5a34.4 34.4 0 0 1-1.3-6c0-2 1.1-20.7 1.1-20.7Z" opacity=".3"/><path fill="#263238" d="M283.5 435.8c-1.8 1.1-3.8 3.4-3 5.6 0-2.2 1.7-3.8 3-5.6ZM280 435.6c-1.9 1.1-3.8 3.4-3 5.6 0-2.2 1.7-3.8 3-5.6Z"/><path d="M301.4 378.8a71.8 71.8 0 0 0 10 15 130 130 0 0 0 15.7 10.8l4-11.7-29.3-21.2-.4 7.1Z" opacity=".1"/><path fill="#d8b4a1" d="m437 413.3 4.7 7a118 118 0 0 0 18.2-64.6c-.2-4.5-.6-14.4-2-18a34.6 34.6 0 0 0-5.7-9 40.5 40.5 0 0 1 3.6 9.7l-1-2c-10.4-21.3-48.5-29-48.5-29s23.5 17.5 33 48.7c3.2 11 3.3 23.2 2.3 33.4a93.7 93.7 0 0 0-.4-13c0 1-1.3 24.5-2.6 30.8l-.2.6v.4l-1.4 5Z"/><path d="m437 413.3 4.7 7a118 118 0 0 0 18.2-64.6c-.2-4.5-.6-14.4-2-18a34.6 34.6 0 0 0-5.7-9 40.5 40.5 0 0 1 3.6 9.7l-1-2c-10.4-21.3-48.5-29-48.5-29s23.5 17.5 33 48.7c3.2 11 3.3 23.2 2.3 33.4a93.7 93.7 0 0 0-.4-13c0 1-1.3 24.5-2.6 30.8l-.2.6v.4l-1.4 5Z" opacity=".3"/><path d="m437 413.3 4.7 7c1.5-2.3 2.9-4.8 4.2-7.3l-6.8-9.3a44.8 44.8 0 0 1-.7 4.2v.4l-1.4 5Z" opacity=".1"/><path fill="#d8b4a1" d="M443.8 427.2c-.3 3 .3 14-10.7 14h-54.3c-7 0-56.8-41-65.2-50.4S298 370 297 360.8c-2.6-27 19.1-68.3 19.1-68.3s-18-12.7-24-20.9-4.7-25.7-3.2-27.3 31.7 12.2 31.7 12.2 11.6-8 19.2-10 33 19.4 36.4 26.6.1 19.3-3.7 26a37.6 37.6 0 0 1-9 10.7 14.2 14.2 0 0 0 .3 6c1 3.3 26.6 38.6 31.3 42s30.6 13 36.3 22.7 13.5 31.4 12.4 46.7Z"/><path d="M443.8 427.2c-.3 3 .3 14-10.7 14h-54.3c-7 0-56.8-41-65.2-50.4S298 370 297 360.8c-2.6-27 19.1-68.3 19.1-68.3s-18-12.7-24-20.9-4.7-25.7-3.2-27.3 31.7 12.2 31.7 12.2 11.6-8 19.2-10 33 19.4 36.4 26.6.1 19.3-3.7 26a37.6 37.6 0 0 1-9 10.7 14.2 14.2 0 0 0 .3 6c1 3.3 26.6 38.6 31.3 42s30.6 13 36.3 22.7 13.5 31.4 12.4 46.7Z" opacity=".2"/><path d="M402.1 361.5c.8 9.4 5.5 23.3 12.6 31.2s21.5 9.2 25.5 9.4a103.1 103.1 0 0 0-8.8-21.6c-4.3-7.3-19.8-14.4-29.3-19ZM395 365.6c-1 3.7-8.3 4.3-11.8 2.7s-5.6-7.1-2.7-10.5 15.4 3.4 14.4 7.8ZM368.8 336.4c.1 4.5 4 11.7 8.3 13.2a9.8 9.8 0 0 0 9.3-2c-4.8-6-10.4-13.6-14.9-20-2 1.5-2.9 5.5-2.8 8.8Z" opacity=".2"/><path d="M315.9 324.5a33 33 0 0 1-.8-10.7.3.3 0 0 0-.6-.2l-2.2 2.5v-.7l.3-2.1a26.3 26.3 0 0 1 1-4.2 25 25 0 0 1 1.9-4l2.4-3.6v-.1a16.9 16.9 0 0 0-3 3.5 23.3 23.3 0 0 0-2.2 3.8 22.2 22.2 0 0 0-1.3 4.2 25 25 0 0 0-.4 2.3 6.3 6.3 0 0 0 0 2.3c.1.4.8.4 1 0l2.3-2.8a23.5 23.5 0 0 0 0 4.5 23.1 23.1 0 0 0 1.2 5.3c.1.2.4.1.4 0ZM364 308.4l2.8 1Z" opacity=".1"/><path fill="#d8b4a1" d="M380 434.8s1.5 5.1.4 6.3-48.3.5-48.4 0 7.3-10.5 12-11 19.4 3.7 19.4 3.7-27.1-33.7-19.2-53.8c3.5-8.9 24.5-12.3 51.4-1.5 24.4 9.9 18.5 53.7 5.1 58.5s-20.6-2.2-20.6-2.2Z"/><path d="M380 434.8s1.5 5.1.4 6.3-48.3.5-48.4 0 7.3-10.5 12-11 19.4 3.7 19.4 3.7-27.1-33.7-19.2-53.8c3.5-8.9 24.5-12.3 51.4-1.5 24.4 9.9 18.5 53.7 5.1 58.5s-20.6-2.2-20.6-2.2Z" opacity=".2"/><path fill="#263238" d="M393.9 377.7c-12.1-5-37.3-11.8-47.7-1.4-8.4 8.8-2.7 24.3 2 33.8a132.7 132.7 0 0 0 15.2 23.7c-2.8-3.8-5.4-7.7-7.8-11.7-6.5-11-18.4-32.7-9.2-44.4 9.5-10.8 35.5-4.2 47.5 0Z"/><path fill="#263238" d="M388.8 374.1a17.5 17.5 0 0 0-8-.4 78.4 78.4 0 0 0 8 .4ZM380.2 441.1a1 1 0 0 0 .6-.8 14.6 14.6 0 0 0 .1-3 58 58 0 0 0-1.6-10.2l-.6-2 .3 2 1 6c.2 2 .6 4 .7 6.1 0 .6.2 1.5-.5 1.9Z"/><path fill="#263238" d="m380.2 426-.5 3.6c-.3 2.5.6-.2.7-1.2a5.5 5.5 0 0 0-.2-2.4ZM341.6 435.8c-1.8 1.1-3.8 3.4-3 5.6 0-2.2 1.7-3.8 3-5.6ZM338 435.6c-1.8 1.1-3.7 3.4-3 5.6.1-2.2 1.8-3.8 3-5.6Z"/><path fill="#d8b4a1" d="M313.1 354s-18.8-16-24.2-26.6a230 230 0 0 1-13.8-36.3c-.6-2.2-2.3-30.3-1.3-32s7.3 2 10.7 6.5c1.9 2.5.4 16.2 1.3 19.5.8 2.4 17.5 22 18.7 23.3s16 9.3 27 13.9"/><path d="M313.1 354s-18.8-16-24.2-26.6a230 230 0 0 1-13.8-36.3c-.6-2.2-2.3-30.3-1.3-32s7.3 2 10.7 6.5c1.9 2.5.4 16.2 1.3 19.5.8 2.4 17.5 22 18.7 23.3s16 9.3 27 13.9" opacity=".2"/><path fill="#263238" d="M277.6 266.3c-.3-2.4-1.8-5.5-4.5-5.8 2.3 1.2 3.2 3.7 4.5 5.8ZM281.3 263.6c-1-2.3-3.4-5.3-6.2-4.8 2.7.6 4.3 3 6.2 4.8ZM297.7 339.2c4.5 3.7 8.3 8.1 12.5 12.3-5-3-9-7.7-12.5-12.3Z"/><path fill="#263238" d="M303.3 345.3a15.7 15.7 0 0 1 3.1 6 8.8 8.8 0 0 1-3.1-6ZM320.2 317a51.1 51.1 0 0 1-14.3-7.6 85.3 85.3 0 0 1 14.3 7.7Z"/><path fill="#263238" d="M312.7 313a9.3 9.3 0 0 1 6.9 1.6 19.6 19.6 0 0 1-7-1.6ZM288 242.8c-1.3 1-.8 9.6 1.4 11.5s10.8-2.3 11.4-4.5-11.2-8.2-12.8-7Z"/><path fill="#263238" d="M290 252.3c.2 2.9.2 11.9 3.3 12.9 2.6.8 5.4-1 7.6-2.4-2.1 1.7-5 3.7-7.8 2.9-3.6-1.2-3.3-10.2-3.2-13.4Z"/><path fill="#263238" d="M288.4 259.1a11.3 11.3 0 0 0 .8 3h-.1c.6-2.8.4-5.8.8-8.7a35.9 35.9 0 0 1 0 6.2 7.5 7.5 0 0 1-.5 2.8c-1 1-1-2.7-1-3.3Z"/><path d="M335 257c7.5 2.4 9.4 9.3 7.2 16a11.7 11.7 0 0 1-15 7c-7-2.2-9.4-10-7.7-15.1A12.3 12.3 0 0 1 335 257Z" opacity=".2"/><path fill="#263238" d="M327.9 260.5c4.2.6 5.8 4.2 5.2 8a6.4 6.4 0 0 1-7.6 5 6.8 6.8 0 0 1-5.4-7.5 6.7 6.7 0 0 1 7.8-5.5Z"/><path fill="#fff" d="M327.3 261.2c4 .6 5.5 4 5 7.5a6 6 0 0 1-7.2 4.8 6.4 6.4 0 0 1-5.1-7 6.3 6.3 0 0 1 7.3-5.3Z"/><path fill="#263238" d="M326 261.8c3.2.5 4.5 3.2 4 6.1a4.9 4.9 0 0 1-5.8 4 5.2 5.2 0 0 1-4.2-5.9 5.2 5.2 0 0 1 6-4.2Z"/><path fill="#455a64" d="M363.9 310s9.6-9.2 10.8-9.7 7.2 2.6 7.8 4.7-18.6 6.4-18.6 6.4Z"/><path fill="#37474f" d="m367.4 310.6-.8.2-1.3-2.2.6-.5 1.5 2.5Zm5.7-3.7-2.1-3.5-.6.5 2 3.5.4.7.5 1 .8-.3-.7-1.2-.3-.6Zm5.9-3.1-.4-.7a88 88 0 0 0-1.3-2.2 12 12 0 0 0-1.1-.4l1.8 3c0 .3.2.5.4.7l1.5 2.7.7-.3-1.6-2.8Zm.8-1.5-1.2.8-.6.5-5 3.3-.6.5c-1.5 1-3.2 2-4.8 3.2l2.3-.6 2.9-2 .6-.4a267 267 0 0 0 5.6-3.8l1.5-1-.7-.5Z"/><path d="M363.9 310s10.2-9.7 12.3-8.2-10.5 7.6-12.3 8.3Z" opacity=".3"/><path fill="#455a64" d="M364.4 310.4s10.1 3.1 11 3.7c1.5 1 .8 5-.5 6.2s-11.4-9.4-11.4-9.4Z"/><path fill="#37474f" d="m376.1 315.2-1.4-.3-.7-.2-.3.8c.3 0 .5 0 .8.2l1.7.4a4.4 4.4 0 0 0 0-.9Zm-1.6.5.2-.8.3-1-.7-.3-.3 1.1-.3.8-1.3 3.7.7.5 1.4-4Z"/><path fill="#37474f" d="m367.9 314-.3 1-.6-.6.1-.5-1-.3-1-1 2.2.5.6-1.6.7.2-.5 1.6 5.8 1.4-.2.8-5.8-1.4Z"/><path d="M364.4 310.4s10.8 3.3 10.6 5.3-9.4-4.3-10.6-5.3Z" opacity=".3"/><path fill="#455a64" d="M314.7 292.6c-.9 1.8 21.6 34 24.7 35 2.3.6 25.3-14.8 25.5-17.7.1-1.3-2.6-.3-21.1-6.1-8.6-2.7-28.5-12.6-29.1-11.2Z"/><path fill="#37474f" d="m320.4 294.2-.7-.3-.5 1.2.8.3.4-1.2Zm-.7 2-.7-.4-1.2 3 .5.9 1.4-3.6Zm3.8 8.8.2-.7 2.1-5.5.3-.7.5-1.3-.8-.3-.4 1.3-.3.7-2 5.5-.4.7-.4 1 .5.8.7-1.5Zm12.5 5-.8-.3-2.2 5.5.7.2 2.3-5.4Zm0 0-.8-.3-2.2 5.5.7.2 2.3-5.4Zm0 0-.8-.3-2.2 5.5.7.2 2.3-5.4Zm-6.3-2.4c0-.3.2-.5.3-.8l2-5.4.3-.8.4-1.1-.7-.3-.4 1.1-.3.8-2 5.5-.4.7-2 5 .5.6v.1l2.3-5.4Zm6.3 2.4-.7-.3q-1 2.7-2.3 5.5l.8.2 2.2-5.4Zm0 0-.7-.3q-1 2.7-2.3 5.5l.8.2 2.2-5.4Zm0 0-.7-.3q-1 2.7-2.3 5.5l.8.2 2.2-5.4Zm-4 9.3 1.4-3.1.3-.8a217.7 217.7 0 0 0 4.6-11.6l.2-.8.4-1-.8-.3-.3 1c0 .3-.2.5-.3.8a228 228 0 0 1-2 5.5 231 231 0 0 1-5.6-2.2c0 .3-.2.5-.3.8l5.6 2.1-2.2 5.5-.4.7-1.1 2.7.5.7Zm5.3 4.6 2.4-5.4 5.7 1.9.3-.7-5.7-2a196.6 196.6 0 0 0 4.5-11.7l.3-.7.3-1-.7-.2-.3 1-.3.7-2 5.5-5.6-2-.2.8 5.5 2a161 161 0 0 1-2.2 5.4c0 .3-.2.5-.3.8l-2.4 5.4-.3.7v.2l.5.6.3-.6c0-.3.2-.5.3-.7Zm8.8-3.3.3-.7 2.2-5.5.3-.7a200.4 200.4 0 0 0 2.2-6.3l.5-1.3-.8-.2-.4 1.3-.3.7a350.7 350.7 0 0 1-2.2 6.3l-2.2 5.5-.3.7-2.4 5.4-.2.4.6-.3.5-.3 2.3-5Zm9-4.2.2-.7 2-5.6.2-.7.6-1.6-.8-.2-.5 1.6-.3.7-2 5.6-.2.7-1.5 4 1.1-.8Zm8.9-5.1.6-2a5.8 5.8 0 0 0-.7-.3l-.6 2-.3.8-.3.8.8-.7.5-.5Zm-44.7-16.2-4.6-2.2v.4a6.5 6.5 0 0 0 .3.6l4 1.9Zm44.7 16.2-.8-.2-5.6-1.7-.8-.2-5.6-1.8-.7-.2-5.6-2-.8-.2-5.5-2-.7-.3-5.6-2-.7-.4-5.5-2.2-.7-.3-5.4-2.4-.3.7 5.4 2.4.8.3 5.4 2.3-2 5.4.7.3 2-5.5 5.6 2.2a228 228 0 0 1-2 5.5 231 231 0 0 1-5.6-2.2c0 .3-.2.5-.3.8l5.6 2.1.7.3 5.6 2 .7.2 5.6 2 .3-.8-5.6-1.9 2-5.5 5.6 1.9-2 5.5.7.3 2-5.6 5.7 1.8.7.2 5.7 1.7.4.1.5-.5.1-.1Zm-22.1 0-5.6-2a228 228 0 0 0 2-5.5l5.6 2-2 5.5Zm13.5 4.5-.8-.3-5.6-1.8-.8-.2-5.6-2-.7-.2-5.6-2-.8-.3a231 231 0 0 1-5.5-2.1l-.7-.3q-2.8-1-5.5-2.3l-.8-.3-2.7-1.2.2.3.6 1 1.6.6.7.3 5.5 2.3.7.3 5.6 2.1.7.3 5.6 2 .7.3 5.7 1.9.7.2 5.7 1.8.7.2 2.1.7.8-.6Zm-9 4.1-.6-.2-5.7-2 2.2-5.4-.7-.3a161 161 0 0 1-2.2 5.5l-5.6-2-.8-.3-5.5-2.2h-.1v.1l.8 1 4.5 1.8.8.3a141.7 141.7 0 0 0 12 4.2l.7.3 4 1.2.8-.5-4.5-1.5Zm-3.3 6-5.7-2-.7-.3-1.7-.6 1 1.2.4.1.7.3 5.4 1.8.4-.2.6-.3Z"/><path d="M351.4 321c-5.5 3.7-11 6.8-12 6.5-2.5-.7-17.9-22.2-23-31.1 5.5 8.5 22 27.5 24.4 28.1a34 34 0 0 0 10.6-3.4Z" opacity=".1"/><path fill="#d8b4a1" d="M371.4 269s14.7 3.9 18.8 10.7 12.8 24 19.7 35c6.5 10.2-14 25.2-27.1 16-12-8.3-8.6-40.3-9.4-45.4s-6.3-10.7-6.3-10.7 1.5-5.3 4.3-5.6Z"/><path d="M371.4 269s14.7 3.9 18.8 10.7 12.8 24 19.7 35c6.5 10.2-14 25.2-27.1 16-12-8.3-8.6-40.3-9.4-45.4s-6.3-10.7-6.3-10.7 1.5-5.3 4.3-5.6Z" opacity=".5"/><path fill="#fff" d="M88.8 125.2a35.5 35.5 0 0 0 59.4 22.4l17.7 2.7-8.9-15.4a35.6 35.6 0 1 0-68.3-9.7Z"/><path fill="#263238" d="M99.4 95.8a35.5 35.5 0 0 1 29.8-9.9 36 36 0 0 1 15.2 5.7 36.4 36.4 0 0 1 11 11.9 36 36 0 0 1 2.3 31.6v-.6l8.8 15.4.7 1.2-1.3-.2-17.8-2.7.4-.2a35.9 35.9 0 0 1-17.6 8.7 31.2 31.2 0 0 1-4.9.5 34 34 0 0 1-5 0 36 36 0 0 1-18-7.1 40.4 40.4 0 0 1-3.8-3.2 37.9 37.9 0 0 1-3.2-3.7 35.8 35.8 0 0 1 3.4-47.4ZM96 143.1a39 39 0 0 0 3.2 3.7 40 40 0 0 0 3.8 3.1 33 33 0 0 0 8.6 4.6 34 34 0 0 0 14.3 2.1 31.3 31.3 0 0 0 4.8-.6 35 35 0 0 0 17-8.7l.2-.2h.3l17.8 2.5-.7 1-9-15.4-.1-.3.1-.3a35.5 35.5 0 0 0 2.5-15.5 35.1 35.1 0 0 0-4.5-15 36.4 36.4 0 0 0-10.7-11.6 35 35 0 0 0-14.6-5.8 35.4 35.4 0 0 0-15.8 1.2A35.1 35.1 0 0 0 96 143Z"/><path fill="#d8b4a1" d="M110.6 127.8a41.6 41.6 0 0 0 13.4 11.6 41.7 41.7 0 0 0 13.4-11.6c4.7-6.3 4.4-16-2.3-18.1-7.4-2.3-11.1 8.9-11.1 8.9s-3.7-11.3-11.1-9c-6.7 2.3-7 12-2.3 18.2Z"/></svg>