<svg xmlns="http://www.w3.org/2000/svg" viewBox="0 0 500 500"><path fill="#ebebeb" d="M392.7 413.1c-.2.6-33.7-14.5-28.4-44.3 1.8-14.8 5.6-32.5 14.6-48 13.5-15.2 41.5-52.6 55.3-55.8 16.7-2 26.7 56.8 14 76.4-9.7 20-52.9 28.1-59.6 36.6-11.6 17.6 3.5 35.2 4.1 35.1Z"/><path fill="#fff" d="M431 318.1c.6 2.4 2.5 2.7 4 .6a9.8 9.8 0 0 0 1.6-8c-.8-2.3-2.5-2.5-4-.5a10.6 10.6 0 0 0-1.6 8ZM414.4 330.2c.4 2.3 2.3 2.8 4.2.9a9.3 9.3 0 0 0 2.5-7.8c-.5-2.3-2.4-2.6-4.1-.7a10.2 10.2 0 0 0-2.6 7.6ZM395 340.7c.2 2.3 2.2 2.9 4.5 1.2s4-5 3.7-7.4-2.2-2.7-4.3-1-3.9 4.8-3.8 7.2Z"/><path fill="#ebebeb" d="M98.1 349c.6 0 5-17.4 6.8-39.5 1.2-14 7.2-31.1 12.8-51 7.4-21.4-7.3-60-36.2-55.1-13.6 2.4-27 20-32 38.4-5.8 18.4-3.4 37.7 1.4 46.7 10.6 18.3 38.7 23.2 41.4 31.7 5.6 16.7 6 28.7 5.8 28.9Z"/><path fill="#fff" d="M89.8 276.4c-.5 2.7.3 5.2 1.7 5.7s2.8-1.3 3.3-3.9 0-5.2-1.5-5.7-3 1.2-3.5 3.9ZM78.4 265.9c-.6 2.8.2 5.5 1.6 6s3-1.2 3.7-4 0-5.5-1.5-6.1-3.2 1.3-3.8 4ZM66.5 255c-.7 3 .2 5.7 1.7 6.2s3.2-1.3 3.8-4.2 0-5.8-1.5-6.4-3.4 1.4-4 4.3Z"/><path fill="#ebebeb" d="M202.6 164.3s-5.8-8.1-7.7-21.1a114 114 0 0 1 .4-32.8c2-11.8 19.8-25 27.5-22.3 7.6 2.6 5.6 24.4.8 33.3S203.4 133 201.4 144a53 53 0 0 0 1.2 20.3Z"/><path fill="#fff" d="M217.5 109.6c.3 1.6 1.2 2.2 2.1 1.2a6.6 6.6 0 0 0 1.4-4.7c-.3-1.7-1.2-2.2-2.1-1.3a6.5 6.5 0 0 0-1.4 4.8ZM209 114.7c.2 1.6 1.2 2.2 2 1.2a6.6 6.6 0 0 0 1.3-4.8c-.2-1.6-1.2-2.2-2-1.2a6.5 6.5 0 0 0-1.3 4.8ZM200.6 119.9c.3 1.7 1.2 2.2 2.1 1.2a6.7 6.7 0 0 0 1.2-4.8c-.3-1.7-1.2-2.2-2.1-1.2a6.6 6.6 0 0 0-1.2 4.8Z"/><path fill="#ebebeb" d="M252.1 332.2c-39.3 0-61.3-19.2-73-35.6a96.9 96.9 0 0 1-17.5-45.5 115.2 115.2 0 0 1 7.2-43.7 78 78 0 0 1 67.5-51.1c28.1-3.5 51.6 2.8 70 18.7 23.1 20.2 32.2 51.4 32.4 66.3s-2.6 89.2-84 91ZM251 156.4a116.5 116.5 0 0 0-14.4.9c-41 5-59 30.2-66.7 50.5a113.9 113.9 0 0 0-7.2 43.3c.3 7 4.8 27.2 17.4 45 11.5 16.1 33.2 35.1 72.1 35.1h2.5c80.6-1.6 83.4-75.1 83.2-89.8s-9.3-45.7-32.2-65.6a80.7 80.7 0 0 0-54.7-19.5Z"/><path fill="#ebebeb" d="M305.5 178.4s61.9 54 13.8 115.7-113 26.2-127.9 11.8c-15.3-14.8-56.5-65.3-4.6-119.3s110.5-15.9 118.7-8.2Z"/><path fill="#ebebeb" d="M254.4 334.2a88.6 88.6 0 0 1-70.6-31.7 95.9 95.9 0 0 1-17.8-31.9c-.2-.7-11.7-41.9 8.3-75.7 12-20.3 32.7-34 61.7-40.6 27.7-6.2 50.7-2.7 68.5 10.5 32.3 24 36 71.4 36 73.4 0 .5 1.7 43.4-24.5 71.8-14.7 16-35.3 24-61.2 24.2Zm6.8-181.9a113.3 113.3 0 0 0-25 3c-28.6 6.5-49.2 20-61 40.1-19.9 33.6-8.3 74.6-8.2 75a95 95 0 0 0 17.6 31.5 87.7 87.7 0 0 0 69.8 31.3h.3c25.2-.1 45.2-7.8 59.7-23 26.7-27.8 25.2-71.5 25.1-71.9 0-2-3.7-49-35.6-72.7a69.6 69.6 0 0 0-42.7-13.3Z"/><path fill="#ebebeb" d="M240.8 333.3a82.6 82.6 0 0 1-34.2-6.8c-20.6-9.3-34.9-28-42.5-55.4-8.7-31.2-6.6-57.2 6.3-77.3 19-29.6 56.3-37.6 67.3-39.3l.5-.1c.2-.1 40.2-3.3 70.7 16.1 21.9 14 32.6 35.8 31.8 65-1 35-12.3 56.2-21.7 67.8-10 12.4-20 16.8-20.5 17-.7.3-27.7 13-57.7 13Zm-2.3-178a4.4 4.4 0 0 1-.7.1c-10.8 1.8-47.7 9.7-66.5 39-12.8 19.8-14.9 45.5-6.3 76.4 7.6 27.2 21.7 45.6 42 54.8 10.8 4.9 22.5 6.7 33.8 6.7 30 0 57-12.7 57.3-13 0 0 10-4.2 20.1-16.7 9.3-11.4 20.6-32.4 21.5-67.2.7-24.9-7.2-44.5-23.4-58.2-29.9-25.3-76.7-22-77.8-21.9Z"/><path fill="#ebebeb" d="M252 335a88.3 88.3 0 0 1-57.7-21.4c-17.9-15.2-27.9-34.8-28.2-43.1h1c.3 8.2 10.2 27.4 27.9 42.4a87.5 87.5 0 0 0 68.8 20.4c62-7.7 69.9-58.6 75.6-95.8l.4-2.1c3-19-9.6-44.1-30.4-61.3a90.7 90.7 0 0 0-91.9-14.7 77.4 77.4 0 0 0-53.3 64.3 119 119 0 0 0 2.2 44.3l-1 .3a120 120 0 0 1-2.3-44.7c3.3-22 15.3-51.1 54-65.1a91.6 91.6 0 0 1 92.8 14.9c21.1 17.3 33.8 43 30.8 62.2l-.3 2c-5.8 37.6-13.8 89-76.5 96.7a97.5 97.5 0 0 1-11.9.7Z"/><path fill="#263238" d="M52.3 451c126.7-.5 268.7-.5 395.4 0-126.7.7-268.7.7-395.4 0ZM261 169.5c-8.8 3.1-19.8 3.6-27.6-2.5-6.4-5-8.8-13.6-7.7-21.5A28.1 28.1 0 0 1 230 134c2.8-4.3 6.5-7.9 10-11.5 7-6.7 14.6-14.9 14.4-25.2-.3-9-7.7-16.1-16-18.6a28.2 28.2 0 0 0-17.8.8A26.5 26.5 0 0 0 199 69.3a38.6 38.6 0 0 0-24.3 8.9 37.7 37.7 0 0 0-4.6 4.5c-.5.6.3 1.3.8.8A37.4 37.4 0 0 1 192.7 71a29 29 0 0 1 22.6 4.5 19 19 0 0 1 4.2 4.4 28 28 0 0 0-5.5 3.2c-3 2.2-7.6 6.3-5.8 10.6a7.4 7.4 0 0 0 8.4 4c3.9-1 6.1-5.2 6.5-9a14.2 14.2 0 0 0-2-8.2 27.2 27.2 0 0 1 17-.7c8.3 2.4 15.5 9.6 15.2 18.6-.2 4.8-2.3 9.4-5 13.3s-6.3 7.5-9.8 11a66 66 0 0 0-9.6 11 28.8 28.8 0 0 0-4.1 11c-1.2 7.3.4 15.3 5.5 21 6.2 6.7 16 8.2 24.6 6.6a39.5 39.5 0 0 0 6.5-1.7c.7-.3.3-1.4-.3-1.1ZM221.6 84c1 3.7.4 8-2.4 10.8a6.1 6.1 0 0 1-5 1.8 6.6 6.6 0 0 1-4.2-2.2c-3.2-3.8 1.5-8.1 4.4-10.3a26.4 26.4 0 0 1 5.8-3.3 13.4 13.4 0 0 1 1.4 3.2ZM432.6 250.4c-10-3.2-19.3 4-26.1 10.5s-14.1 14.2-24.2 13.7a14.8 14.8 0 0 1-11.6-6c-2.6-3.8-3-8.6-2.8-13 .7-9.9 5.7-20.2 1.7-29.8a19.5 19.5 0 0 0-9.5-9.7 39 39 0 0 0-15.6-3.4l-4.3-.1a.6.6 0 0 0 0 1c5.6.2 11.4.4 16.7 2.4 4.4 1.6 8.6 4.5 11 8.7 2.4 4.6 2.3 10 1.6 15.1-.8 5-2.1 9.7-2.6 14.7a24 24 0 0 0 2 13 15 15 0 0 0 10 7.7 20.3 20.3 0 0 0 13.1-1.5c4.4-2 8-5.2 11.6-8.4 3.6-3.5 7-7 11.2-9.9s9-5 14-4.7a15 15 0 0 1 3.6.7c.6.2.9-.8.2-1ZM91.3 216.3c-1-1.8-2-4.5-.7-6.4a1.8 1.8 0 0 1 2.6-.5 4.5 4.5 0 0 1 1.6 2.4 10.6 10.6 0 0 1 0 6 12.6 12.6 0 0 1-.8 2.2 15.4 15.4 0 0 1-2.7-3.7Zm27.3-.2a15.8 15.8 0 0 1-10.4 8.1 15 15 0 0 1-12.6-2.8l-.8-.6a14.8 14.8 0 0 0 1-2.8 12 12 0 0 0 0-6.5c-.5-1.7-2-3.8-4-3.5-2.6.3-3.1 3.3-2.7 5.4a14 14 0 0 0 3.2 6.4 16.7 16.7 0 0 0 1.2 1.2 14.4 14.4 0 0 1-6.4 6 17.4 17.4 0 0 1-13 .3c-9.7-3.5-15.1-13.8-16.7-23.5a43.1 43.1 0 0 1 4-26.6c.5-1 1-2 1.7-2.9.3-.6-.5-1.3-.9-.7a44 44 0 0 0-6.2 28.8c1.4 10.5 7 22 17.5 25.8a18.5 18.5 0 0 0 14-.2 15.5 15.5 0 0 0 6.8-6.2 16.4 16.4 0 0 0 10.7 4 17 17 0 0 0 12.7-6.3 15.8 15.8 0 0 0 2-3c.2-.7-.8-1-1.1-.4Zm-55.2-44a102.7 102.7 0 0 0-10.4 7.6c-.5.4 0 1.3.6.9a101.6 101.6 0 0 1 9.3-7 46.4 46.4 0 0 0-1.4 10.8c0 .7 1 .7 1 0a44.2 44.2 0 0 1 1.7-11.7.5.5 0 0 0-.8-.6ZM393 114.4c-1.9.8-4.7 1.7-6.5.3a1.8 1.8 0 0 1-.3-2.6 4.6 4.6 0 0 1 2.5-1.5 10.7 10.7 0 0 1 6 .4 14.4 14.4 0 0 1 2.2 1 15.2 15.2 0 0 1-3.9 2.4Zm1.5-27.3A15.7 15.7 0 0 1 402 98a15 15 0 0 1-3.6 12.5l-.7.7a15.3 15.3 0 0 0-2.7-1.3 12 12 0 0 0-6.4-.4c-1.8.4-4 1.8-3.8 4 0 2.5 3.1 3.2 5.2 3a14 14 0 0 0 6.6-3l1.3-1a14.4 14.4 0 0 1 5.5 6.7 17.3 17.3 0 0 1-.6 13c-4 9.5-14.6 14.2-24.4 15.2a43 43 0 0 1-26.3-5.8c-1-.5-1.9-1.2-2.8-1.8-.6-.4-1.3.4-.7.8a44.1 44.1 0 0 0 28.3 8c10.6-.7 22.3-5.5 26.8-15.8a18.5 18.5 0 0 0 .7-14 15.6 15.6 0 0 0-5.7-7.1 16.4 16.4 0 0 0 4.7-10.4 17 17 0 0 0-5.4-13 16 16 0 0 0-3-2.2c-.6-.3-1 .7-.5 1ZM347 139.3a101.3 101.3 0 0 0 7 11c.4.5 1.3 0 .9-.5a101 101 0 0 1-6.3-9.8 45.4 45.4 0 0 0 10.7 2.1c.6 0 .7-1 0-1a44.9 44.9 0 0 1-11.7-2.5.5.5 0 0 0-.5.7ZM364.8 319.8c-2-.2-4.9-.9-5.7-3a1.8 1.8 0 0 1 1-2.4 4.5 4.5 0 0 1 3 0 10.7 10.7 0 0 1 5 3.3 13.8 13.8 0 0 1 1.3 2 15 15 0 0 1-4.6.1Zm15-22.8a15.7 15.7 0 0 1 1 13.2 15 15 0 0 1-9.4 9c-.3 0-.6 0-1 .2a15 15 0 0 0-1.7-2.5 12 12 0 0 0-5.3-3.6c-1.8-.5-4.3-.4-5.3 1.5-1.2 2.2 1 4.4 3 5.2a14.1 14.1 0 0 0 7.2 1l1.6-.4a14.2 14.2 0 0 1 1.4 8.6 17.4 17.4 0 0 1-7 10.9c-8.4 6.2-19.9 4.9-28.9.8a43 43 0 0 1-19.7-18.2l-1.5-3c-.3-.6-1.3-.3-1 .4a44 44 0 0 0 20.4 21.2c9.5 4.7 22 6.5 31.2-.1a18.5 18.5 0 0 0 7.6-11.7 15.5 15.5 0 0 0-1.4-9.1 16.3 16.3 0 0 0 9.3-6.6 17 17 0 0 0 2-14 16.1 16.1 0 0 0-1.5-3.3c-.4-.7-1.3 0-1 .5Zm-67.3 21.1a103.5 103.5 0 0 0 .5 13c0 .6 1 .7 1 0a102.4 102.4 0 0 1-.5-11.6 45.9 45.9 0 0 0 8.1 7.2c.6.3 1.1-.5.6-1a44.3 44.3 0 0 1-8.8-8 .5.5 0 0 0-.8.4Z"/><path fill="#263238" d="M266.9 183.5c-2.3 0-5.6-.2-6.9-2.5a2 2 0 0 1 .9-2.8 5.2 5.2 0 0 1 3.1-.5 11.9 11.9 0 0 1 6 3 14.9 14.9 0 0 1 1.8 1.8 16.6 16.6 0 0 1-5 1Zm12.9-27.5a17.5 17.5 0 0 1 3.2 14.3 16.7 16.7 0 0 1-9 11.3l-1 .5a16.4 16.4 0 0 0-2.3-2.4 13.4 13.4 0 0 0-6.5-3.1c-2-.4-4.8.2-5.5 2.4-1 2.7 1.8 4.7 4 5.3a15.7 15.7 0 0 0 8-.2 18.2 18.2 0 0 0 1.9-.5 16 16 0 0 1 2.8 9.2 19.3 19.3 0 0 1-6 13.1c-8.2 8.1-21 8.6-31.6 5.5a48 48 0 0 1-24.7-17l-2-3c-.5-.7-1.6-.1-1.2.5a49 49 0 0 0 25.8 20.2c11.3 3.7 25.4 3.6 34.4-5.1a20.6 20.6 0 0 0 6.5-14 17.3 17.3 0 0 0-3-10 18.2 18.2 0 0 0 9.3-8.7 18.8 18.8 0 0 0-.1-15.7 17.8 17.8 0 0 0-2.1-3.5c-.5-.6-1.4.2-.9.9Zm-.8-2.3a44.7 44.7 0 0 1-.2 11.9c-.1.6 1 .8 1 .2a45.2 45.2 0 0 0 .3-10.9 104.6 104.6 0 0 1 8.2 8.3c.4.5 1-.2.7-.7a104 104 0 0 0-9.1-9.3.5.5 0 0 0-.9.4ZM317.3 171.2c-2.8-10-10-18.1-14-27.7a45.2 45.2 0 0 1 19-55.8c1-.7 2.2-1.3 3.3-1.9.7-.3.3-1.3-.3-1a46.3 46.3 0 0 0-25 52.6 54.6 54.6 0 0 0 6 14.6c2.6 4.5 5.5 8.9 7.7 13.6a33.1 33.1 0 0 1 3.4 15.4 35.3 35.3 0 0 1-4.7 15.9 47.6 47.6 0 0 1-28 21 .6.6 0 0 0 .4 1 52.7 52.7 0 0 0 25.6-17.2c6.6-8.5 9.6-20 6.6-30.5Z"/><path fill="#37474f" d="M156.6 265.1c-5 2-10.2 4-15.6 4.5a31 31 0 0 1-13-1.3 36.6 36.6 0 0 1-20.4-17.2 46 46 0 0 1-5.3-15.7c0-.7-1.2-.7-1 0a44 44 0 0 0 13.3 26.3A34.7 34.7 0 0 0 139 271c6.2-.3 12.2-2.5 18-4.7.7-.3.3-1.3-.3-1ZM373.9 261c-.2 5.5-.4 11-2 16.2a31 31 0 0 1-6.2 11.5 36.6 36.6 0 0 1-23.7 12.2 45.8 45.8 0 0 1-16.6-1.2c-.6-.2-1 .8-.3 1a44 44 0 0 0 29.5-2.2 34.7 34.7 0 0 0 17.8-18.8 57.2 57.2 0 0 0 2.6-18.5c0-.7-1.1-.8-1.1-.1ZM344.4 125.8a95.3 95.3 0 0 0-25.2-10.3 86.7 86.7 0 0 0-26.3-2.7c-8.4.5-16.7 2.8-23.5 7.9l-.3.2a59.8 59.8 0 0 0-11.5-2.4 75.4 75.4 0 0 0-21.9.7 76.6 76.6 0 0 0-38.7 19.1 69.8 69.8 0 0 0-3.7 3.8c-.6.7.3 1.6 1 1a74.2 74.2 0 0 1 34.9-21 75.6 75.6 0 0 1 20.4-2.7 63.7 63.7 0 0 1 18.2 2.5 29.9 29.9 0 0 0-6.6 7.8c-2 3.5-3.5 7.7-2.4 11.7a9.4 9.4 0 0 0 2.7 4.5 9.5 9.5 0 0 0 5.7 2.2 15.1 15.1 0 0 0 10.5-3.3 13 13 0 0 0 4.7-9.8 12.4 12.4 0 0 0-4.3-9.3 23.2 23.2 0 0 0-7.3-4.3 40.8 40.8 0 0 1 18.2-6.8 77.3 77.3 0 0 1 25 1.1A93.7 93.7 0 0 1 338 124l5.6 3a.7.7 0 0 0 .7-1.2Zm-74.5-3.1a19.7 19.7 0 0 1 8.7 5.6 10.7 10.7 0 0 1 1.9 10 12 12 0 0 1-7.4 7.6c-3.5 1.3-8.3 1.5-11-1.3s-2.7-7.3-1.4-10.8a26.1 26.1 0 0 1 7-9.8c.5-.6 1-1 1.7-1.5ZM283.6 82.5c-.9 3.7-3.1 7.4-7 8.3a6 6 0 0 1-5.5-1.3 7.2 7.2 0 0 1-2.2-4.9c-.3-4 2.4-7.8 5.1-10.6a30.8 30.8 0 0 1 8-5.7 22.5 22.5 0 0 1 1.6 14.2ZM315.7 62c-9.3-.1-19-.2-28 2.7a41.9 41.9 0 0 0-5.2 2c-6.7-13.6-23.4-19.2-38-19.5a65 65 0 0 0-26.5 5.1c-8 3.4-15.1 8.2-22.9 12-7.5 3.6-15.4 6-23.9 5.6a46.8 46.8 0 0 1-22.9-6.8 42 42 0 0 1-4.9-3.5c-.5-.5-1.3.3-.8.8a47.4 47.4 0 0 0 42.6 9c7.8-2.3 14.9-6.4 22-10.4a123.2 123.2 0 0 1 11-5.6 63.5 63.5 0 0 1 12.7-3.9 62.3 62.3 0 0 1 25.8.3 38.4 38.4 0 0 1 20.6 11.3 28.4 28.4 0 0 1 4.1 6.2c-5 2.5-9.5 6.2-12 11.1-1.8 3.3-2.4 7.5-.1 10.7 2.1 3 6 3.6 9.3 2.1 3.4-1.6 5.4-5.2 6.1-8.8a23.1 23.1 0 0 0-.6-11.4 28.6 28.6 0 0 0-1.1-3.3l.4-.2a61 61 0 0 1 25.5-4.4h6.9a.6.6 0 0 0 0-1.1ZM141 59.6a102.2 102.2 0 0 0 8.4 9.8c.5.5 1.3-.1.8-.6a102.6 102.6 0 0 1-7.5-8.8 45.7 45.7 0 0 0 10.8.6c.7 0 .6-1-.1-1a45 45 0 0 1-11.9-.8.5.5 0 0 0-.5.8Z"/><path fill="#37474f" d="M396.5 236a22.4 22.4 0 0 1 4.5-5.7c2-1.8 4.4-3.5 7.1-3.8a5.8 5.8 0 0 1 6.1 3.7 8.8 8.8 0 0 1-.5 7.6c-3.5 6.7-13.3 12.2-20.8 9.6a31.5 31.5 0 0 1 3.6-11.4Zm48.6 63.5a48.4 48.4 0 0 1-31.3-7.7 47.7 47.7 0 0 1-19-25.6 45.5 45.5 0 0 1-2-17.7c7.2 2.3 16.2-2.2 20.6-8.1a11.8 11.8 0 0 0 2.6-7.4 8.5 8.5 0 0 0-2.8-6c-4.4-3.6-10.3 0-13.6 3.2a28.5 28.5 0 0 0-7.7 16.9 11 11 0 0 1-3.5-2.5c-3.4-3.6-4.2-9-3.5-13.6.9-5.7 4-10.8 6.8-15.7a65.3 65.3 0 0 0 10-31.9 40 40 0 0 0-3-16 40.8 40.8 0 0 0-8.5-12.5 73.5 73.5 0 0 0-27-16.4 112 112 0 0 0-36-7.2l-9 .1c-.7 0-.7 1.1 0 1.1a111.3 111.3 0 0 1 38.2 4.8 82 82 0 0 1 30.4 15.9 42.4 42.4 0 0 1 10 12.6 38.1 38.1 0 0 1 3.8 16.8 54.2 54.2 0 0 1-3 17.4 89.3 89.3 0 0 1-7.7 16.2c-2.8 4.9-5.7 10-6.2 15.8-.5 4.7.5 10 4 13.4a12.3 12.3 0 0 0 4 2.8 44.5 44.5 0 0 0 .3 10.6 48.5 48.5 0 0 0 44.8 42 47.8 47.8 0 0 0 8.3-.1c.7-.1.7-1.3 0-1.2Zm1.8 0a101 101 0 0 0-12.3-3.8c-.7-.1-1 .8-.4 1a102 102 0 0 1 11.1 3.4 45.8 45.8 0 0 0-9.4 5.3c-.6.4 0 1.2.6.8a44.6 44.6 0 0 1 10.5-5.7.5.5 0 0 0 0-1Z"/><path fill="#263238" d="M408 355.9c-5.7 1.6-13.1.9-17-4-3.4-4.4-2.6-10.3 0-15a20.5 20.5 0 0 1 5.2-6.1c2.5-2 5.3-3.5 8-5.4a17 17 0 0 0 5.8-6.6 10 10 0 0 0-.1-8.2c-3-6.5-10-8.7-16.5-9.3-7.6-.8-15.2-.6-22.7-1.2a56.3 56.3 0 0 1-20-4.9A29.7 29.7 0 0 1 337 283a26.1 26.1 0 0 1-1.8-18.9 34.5 34.5 0 0 1 11.3-17.2 44.7 44.7 0 0 1 4.3-3.2c.6-.4-.1-1.2-.7-.9a39.3 39.3 0 0 0-14.2 16 29 29 0 0 0-2 19.1c3.4 13.2 16.5 20 28.9 22.3 7.5 1.4 15.3 1.4 23 1.7 7 .3 15.9.3 21 6a10.1 10.1 0 0 1 2.8 8.4c-.5 3.1-2.7 5.5-5.2 7.4-2.5 2-5.4 3.7-8 5.6a22.4 22.4 0 0 0-5.8 6c-2.8 4.4-4.2 10.2-1.8 15.1 2.7 5.7 9.3 7.8 15.2 7.3a21.6 21.6 0 0 0 4.4-.8c.7-.1.3-1.2-.4-1Z"/><path fill="#263238" d="M352 242.1a102.4 102.4 0 0 0-12.8 2c-.6 0-.6 1.1 0 1a103.6 103.6 0 0 1 11.6-1.8 45.8 45.8 0 0 0-6.2 8.8c-.4.6.6 1 .9.5a45 45 0 0 1 7-9.7.5.5 0 0 0-.5-.8ZM136.2 200c-3.7 5.5-10 8.3-16.5 8.5a30.1 30.1 0 0 1-18.8-6.3 63 63 0 0 1-14.6-16.9l-3-4.8c-.4-.6.6-1.1 1-.5 3.9 6.5 8 13 13.6 18.2a31.3 31.3 0 0 0 18.5 9c6.5.6 13.3-1.2 17.7-6.2a23.6 23.6 0 0 0 4.3-20 55.3 55.3 0 0 0-10.8-21.3 230.9 230.9 0 0 0-16.7-20c-5.3-5.6-11-11-15-17.6a27.5 27.5 0 0 1-4.3-19c1-6.1 4.8-11.6 10.9-13.6 6.5-2.1 13.8.3 19.2 4a32.8 32.8 0 0 1 4 3.1c.4.5-.4 1.3-.9.8-5-4.7-12-8.2-18.9-7.5a14.3 14.3 0 0 0-8.7 4.1 16.7 16.7 0 0 0-4.2 8c-1.6 6.7.1 13.4 3.6 19.3 4 6.7 9.8 12 15.1 17.7a229.1 229.1 0 0 1 16.7 20 59 59 0 0 1 11 21c1.5 6.6.8 14.3-3.2 20Z"/><path fill="#37474f" d="M425.9 239.4a11 11 0 0 0-2.2-5.3 17.3 17.3 0 0 0-5.4-4.1 21.1 21.1 0 0 1-5.9-4.4 16 16 0 0 1-3.2-5.9c-3-10.3 5.5-19.3 12.5-25.5 7-6 14.8-12.4 16.4-22A29.4 29.4 0 0 0 430 148a56 56 0 0 0-26-14.3c-10.6-3.2-21.7-5-32.1-9.1a43.7 43.7 0 0 1-21.5-16.8c-10.7-17.6 2.2-38.6 17.4-48.7a40 40 0 0 1 6.6-3.6c.6-.3.3-1.3-.4-1a51 51 0 0 0-22 18.8c-5 7.6-8 17-6.1 26a34.2 34.2 0 0 0 14.8 20.6c8.6 6 18.9 8.8 29 11.2 10.2 2.5 20.8 4.9 30 10.3a34.1 34.1 0 0 1 17.2 22.1 22.2 22.2 0 0 1-1.3 13.3c-2 4.4-5.3 8.1-8.8 11.4-7 6.5-15.7 12.5-18.5 22.2a16.8 16.8 0 0 0 1.4 13.1 17 17 0 0 0 4.2 5 68.1 68.1 0 0 0 5.9 3.6 10.4 10.4 0 0 1 4.4 5.2 12.5 12.5 0 0 1 .5 6.2c-.8 4.9-4 8.7-7.6 11.8a74 74 0 0 1-5.7 4.3c-.6.4 0 1.3.6 1 7-5.1 15.2-11.7 13.9-21.3Z"/><path fill="#37474f" d="M375.7 53.7a100.7 100.7 0 0 0-12.8 1.9c-.7 0-.6 1.1 0 1a101.4 101.4 0 0 1 11.5-1.7 45.8 45.8 0 0 0-6.3 8.8c-.3.6.6 1 1 .4a44.4 44.4 0 0 1 7-9.5.5.5 0 0 0-.4-.9ZM251.8 155a11 11 0 0 0-4.5 3.7 17.4 17.4 0 0 0-2.4 6.3 20.9 20.9 0 0 1-2.5 7 16 16 0 0 1-4.7 4.7c-9 5.9-20 .3-28-4.6-7.8-4.9-16.2-10.6-25.8-9.4a29.4 29.4 0 0 0-20.8 14.8c-5 8.6-6.2 19-6.2 29 0 11.1 1.6 22.2.6 33.4a43.8 43.8 0 0 1-9.9 25.4c-13.8 15.4-37.6 9-51.7-2.6a41 41 0 0 1-5.3-5.3c-.4-.5-1.3.1-.9.7a51 51 0 0 0 24.4 15.6 35.2 35.2 0 0 0 26.7-1.6c7.8-4.2 12.8-12 15.4-20.1 3.3-10 3-20.6 2.4-31-.6-10.5-1.4-21.3 1.1-31.7a34.2 34.2 0 0 1 16.3-22.9 22.3 22.3 0 0 1 13-2.6c4.8.6 9.3 2.7 13.5 5.2 8.3 4.8 16.5 11.3 26.6 11.3a16.7 16.7 0 0 0 15.7-10.7 65.1 65.1 0 0 0 1.7-6.6 10.5 10.5 0 0 1 3.7-5.8 12.4 12.4 0 0 1 5.9-2.2c4.8-.6 9.4 1.3 13.4 3.9 2 1.3 3.9 2.7 5.8 4.2.5.4 1.2-.5.7-.9-6.8-5.2-15.4-11.2-24.3-7.1Z"/><path fill="#37474f" d="M88.5 256.7a104 104 0 0 0 5.4 11.7c.3.6 1.3.3 1-.3a102 102 0 0 1-5-10.6 45.6 45.6 0 0 0 10.3 3.5.5.5 0 0 0 .2-1 44.7 44.7 0 0 1-11.2-4 .5.5 0 0 0-.7.7ZM220.5 265a13 13 0 0 1-14-.8c-5-3.5-6-10-4.5-15.7 3-12 15-20.6 14-33.7-.4-5.4-3.4-10-8.5-12-5.4-2-11.6-1.2-17 .5a55.3 55.3 0 0 0-17.1 9c-5.5 4.1-10.5 8.9-16.7 11.9-5.7 2.7-12.4 3.6-18.2.6a21.4 21.4 0 0 1-10-12.4c-4-12.6 3.5-25.4 12.8-33.4a93.7 93.7 0 0 1 16.3-10.9c5.5-3 11.1-6 16-9.9a31 31 0 0 0 10.3-14 19 19 0 0 0-1.1-15.8c-5.7-9.6-17.8-11.5-27.3-15.2-5-2-10.1-4.5-13.4-8.8A15.7 15.7 0 0 1 140 89a15.3 15.3 0 0 1 4.6-6.3c.6-.5-.2-1.2-.8-.8a17 17 0 0 0-6 14c.3 5.3 3.2 9.8 7.4 13 9 6.9 20.9 7.4 30.2 13.5 4.7 3 8.2 7.8 8.6 13.6.4 6-2.2 12-6 16.4-4.2 5-9.9 8.5-15.5 11.7s-11.5 6.2-16.8 10c-10.2 7.2-19.3 18-19.3 31.1 0 10.9 7.8 22 19.3 22.5 6.7.3 13-3 18.2-6.7 5.6-4 10.7-8.8 16.7-12.3a43 43 0 0 1 18.4-6c5.8-.4 12.1 1.4 14.7 7.1 2.5 5.4 1 11.9-1.5 17-2.9 5.8-7.2 11-9.8 17-2.3 5.5-3.3 12.2 0 17.6a14 14 0 0 0 12 6.3 13 13 0 0 0 6.7-1.9c.6-.3 0-1.3-.6-.9Z"/><path fill="#455a64" d="M271 336.4a13 13 0 0 1-8.3-11.4c-.4-6.2 4.2-11 9.4-13.4 11.2-5.2 25.5-1.3 35-10.3 4-3.7 5.7-9 4-14.2a26.5 26.5 0 0 0-11-12.9 55.4 55.4 0 0 0-17.8-7.6c-6.6-1.6-13.5-2.5-19.8-5.5-5.7-2.7-10.6-7.3-11.9-13.7a21.4 21.4 0 0 1 3.3-15.6c7.3-11 22-13.3 34-11.1a93.8 93.8 0 0 1 18.7 5.8c5.8 2.3 11.7 4.9 17.8 6.2a31 31 0 0 0 17.4-.8 19 19 0 0 0 11.5-10.9c3.9-10.3-2.3-21-5.4-30.7-1.6-5-2.9-10.7-1.6-16A15.7 15.7 0 0 1 357 163a15.3 15.3 0 0 1 7.9-.4c.7.2.8-1 0-1a17 17 0 0 0-14.6 4c-4 3.7-5.6 8.8-5.5 14 .3 11.3 7.4 20.9 8.6 32 .5 5.6-.9 11.3-5.2 15.2s-10.6 5.8-16.5 5.7c-6.6-.1-12.8-2.4-18.8-4.7s-12-5-18.4-6.8c-12-3.4-26.1-3.6-36.4 4.6-8.4 6.8-12.1 20-5.3 29.2 4 5.4 10.5 8.2 16.8 10 6.6 1.8 13.5 2.7 20 5.2 6 2.3 12 5.7 16.3 10.5 4 4.3 6.5 10.3 3.7 15.9-2.6 5.4-8.6 8.3-14.2 9.6-6.3 1.4-13 1.2-19.3 3-5.7 1.7-11.6 5.1-13.7 11a14.1 14.1 0 0 0 2.7 13.5 13 13 0 0 0 5.6 4 .6.6 0 0 0 .4-1.1Z"/><path fill="#37474f" d="M181.2 319a73.7 73.7 0 0 1-32.5 8 37 37 0 0 1-24.7-9.8 27.3 27.3 0 0 1-7-11.4c-1.4-4.6-2-9.4-3.5-14a19.3 19.3 0 0 0-19.6-14.2c-9 .2-16.8 6.6-20.3 14.6-3.5 7.9-3 18.1 3 24.6a14.4 14.4 0 0 0 2.3 1.8 26.3 26.3 0 0 0-.7 11.9 25.4 25.4 0 0 0 16.5 19.3 24.8 24.8 0 0 0 6.3 1.4c.7 0 .7-1 0-1.1A24.7 24.7 0 0 1 81 336a24.4 24.4 0 0 1-1-16.7c5.2 3 12.5 3 17.3-1 3.1-2.7 5.2-7.6 2.1-11.2a8.3 8.3 0 0 0-5.2-2.6 10.2 10.2 0 0 0-6.4 1.7 21.6 21.6 0 0 0-8.3 10.8l-.2.6a13.7 13.7 0 0 1-1.2-1c-6.3-6-6.9-16-3.7-23.5 3.4-7.9 10.8-14.2 19.5-14.4a19.5 19.5 0 0 1 11.8 3.5c3.6 2.6 5.8 6.6 7 10.8s2 8.9 3.4 13.2a28.6 28.6 0 0 0 6.2 10.8 36.9 36.9 0 0 0 22 10.9 62 62 0 0 0 30.4-4.9l7-3c.7-.3.2-1.3-.5-1Zm-97-8.1c2.7-3.4 7-6.5 11.4-5a6.1 6.1 0 0 1 4 4c.7 2.3-.5 4.7-2 6.4-4.2 4.9-12 5.1-17.3 1.9a23.4 23.4 0 0 1 3.9-7.3Z"/><path fill="#37474f" d="M102.9 351a102.6 102.6 0 0 0-9.8-8.4c-.5-.4-1.3.3-.7.7a101 101 0 0 1 8.8 7.6 45.5 45.5 0 0 0-10.8 1c-.6.1-.4 1.1.3 1a44.4 44.4 0 0 1 11.8-1 .5.5 0 0 0 .4-.8ZM267.6 305.7a73.6 73.6 0 0 1 3.7-33.3 37 37 0 0 1 17.8-19.8 27.4 27.4 0 0 1 13-2.6c4.8.2 9.5 1.3 14.3 1.5a19.3 19.3 0 0 0 20.2-13.5c2.9-8.6-.4-18-6.7-24.1-6.2-6-16-9.1-24.1-5.6a14.1 14.1 0 0 0-2.6 1.5 26.3 26.3 0 0 0-10.8-4.8 25.4 25.4 0 0 0-23.9 8.9 24.2 24.2 0 0 0-3.4 5.4c-.3.6.7 1 1 .4a24.7 24.7 0 0 1 20.1-14 24.4 24.4 0 0 1 16.1 4.8c-4.7 3.9-7.2 10.7-5 16.6 1.4 4 5.3 7.5 9.7 5.9a8.3 8.3 0 0 0 4.3-4 10.2 10.2 0 0 0 .6-6.6c-1-4.5-3.9-8.5-7.3-11.5l-.5-.4a13.3 13.3 0 0 1 1.3-.8c7.7-3.9 17.3-1 23.4 4.7 6.2 5.8 9.5 15 6.7 23.2a19.4 19.4 0 0 1-7.3 9.8c-3.7 2.6-8.2 3.2-12.6 3s-9-1.3-13.5-1.5a28.5 28.5 0 0 0-12.3 2.2c-7.7 3.2-13.9 9.6-17.7 17a62 62 0 0 0-6 30.2c0 2.5.2 5 .4 7.6.1.7 1.2.5 1.1-.2Zm41.1-88.3c2.2 3.6 3.7 8.8.7 12.4a6 6 0 0 1-5.1 2.5c-2.4-.3-4.3-2.2-5.3-4.2-3.1-5.6-.7-13 4.2-17a23.1 23.1 0 0 1 5.5 6.3Z"/><path fill="#37474f" d="M264.6 221.1a102.4 102.4 0 0 0 11.3-6.3c.5-.3 0-1.3-.5-.9a100.8 100.8 0 0 1-10.1 5.7A45.2 45.2 0 0 0 268 209c0-.7-1-.8-1-.1a44.3 44.3 0 0 1-3.1 11.5.5.5 0 0 0 .7.6Z"/><path fill="#d8b4a1" d="M301.7 223c19.3 12.6 39 27 59.6 39.7 6.8 4.3 13.8 7.7 20.7 11.6 13.7 7.2 28 17 40.2 15.6 17.9 1.3 12.4-62.5 2.4-85.7-6.9-22.6-27.6-61.8-51.5-72.4-26-12.2-48.2-5.1-59.7 5-11.5 11.2-7.1 19.4 4.4 37.1 9.3 14.5 19.1 29.3 25.5 45.2 1.5 4 5 12.7 1.4 14.1-11.5 4.6-30-5-43-10.3Z"/><path fill="#fff" d="M301.7 223c19.3 12.6 39 27 59.6 39.7 6.8 4.3 13.8 7.7 20.7 11.6 13.7 7.2 28 17 40.2 15.6 17.9 1.3 12.4-62.5 2.4-85.7-6.9-22.6-27.6-61.8-51.5-72.4-26-12.2-48.2-5.1-59.7 5-11.5 11.2-7.1 19.4 4.4 37.1 9.3 14.5 19.1 29.3 25.5 45.2 1.5 4 5 12.7 1.4 14.1-11.5 4.6-30-5-43-10.3Z" opacity=".6"/><path fill="#263238" d="M359.9 173.2a13 13 0 0 1-8.6-7.4c-1.3-3.3.4-5.7 4-5a12.6 12.6 0 0 1 8.7 7.4c1.3 3.5-.7 5.7-4.1 5ZM375.2 205.7a12.6 12.6 0 0 1-7.4-8.2c-.9-3.4 1.1-5.5 4.5-4.6a12.2 12.2 0 0 1 7.6 8.4c.8 3.6-1.4 5.5-4.7 4.4ZM386.1 239.6a12.4 12.4 0 0 1-6.3-9c-.3-3.5 1.9-5.3 5.1-4s6.2 5.6 6.5 9.2-2.1 5.3-5.3 3.8Z"/><path fill="#fff" d="M146.6 158.9c0-.4-25 5.4-45.1 9-12.4 1.4-28.7 6.3-34.5-1.2-3.1-4 2-20 14.2-35.7a115 115 0 0 1 48.4-37.5 50.7 50.7 0 0 1 43 1.7c9.4 5.6 11.9 13.7 6.4 18.9-5.6 5.1-20 12.2-31.8 20.4-11.9 7.9-21 16.8-19.5 18.5 5.8 6.7 19 5.7 19 5.9Z"/><path fill="#d8b4a1" d="M146.6 158.9c-7 0-13.5-1-17.5-4-.7-.8-2.1-1.4-1.9-2.6 1.3-3.5 5.7-7 9.1-10.1a221 221 0 0 1 29-19.5c11-6.6 17.6-10.5 14.8-17.8-3.5-10.4-27.9-22.6-58.1-7.4-26.2 12.4-49.7 41.4-54.1 60-4.7 19.9 23.4 10.3 38.7 9.2 12.6-2.3 26.4-5.5 40-7.8Z"/><path fill="#fff" d="M146.6 158.9c-7 0-13.5-1-17.5-4-.7-.8-2.1-1.4-1.9-2.6 1.3-3.5 5.7-7 9.1-10.1a221 221 0 0 1 29-19.5c11-6.6 17.6-10.5 14.8-17.8-3.5-10.4-27.9-22.6-58.1-7.4-26.2 12.4-49.7 41.4-54.1 60-4.7 19.9 23.4 10.3 38.7 9.2 12.6-2.3 26.4-5.5 40-7.8Z" opacity=".2"/><path fill="#263238" d="M109.6 139.3c1.4.6.7 2.5-1.4 4.4s-4.8 3-6.2 2.4-.8-2.4 1.3-4.4 5-3 6.3-2.4ZM126.5 123.3c1.3.7.4 2.5-1.9 4.1s-5.1 2.4-6.4 1.7-.5-2.6 1.8-4.2 5.3-2.4 6.5-1.6ZM145.4 109.4c1.1.8 0 2.5-2.4 3.8s-5.4 1.8-6.7 1-.2-2.7 2.3-4 5.6-1.7 6.8-.8Z"/><path fill="#fff" d="M313.4 103.2c0-.1 13.7-.2 22.8-3.4 5.6-2 12.4-6.5 13-11.5 1.2-5.9-26.6-22.1-42.7-24-16-2.2-22.8 7.7-16.8 12.9C296 82 324.5 90.6 323.5 96c-.8 4.5-10.2 7-10.1 7Z"/><path fill="#fff" d="M313.4 103.2c11.7-.6 22.8-2.3 29.1-7.2a17 17 0 0 0 5-5.3c1.4-2 1.3-4.3-1.6-7C339 76 311.2 62 298 64.9c-7.6 1.4-11.4 6.4-8.7 10.8 1.4 2.3 5.6 4 9.2 5.6 7.7 3.4 16.3 6.5 22.6 11 7.1 5.4-2.3 9-7.8 10.9Z"/><path fill="#263238" d="M313.4 103.2c11-1 23.6-1.6 31.9-9.9 3-3.2 4.2-6 .4-9.4a34.6 34.6 0 0 0-5.9-4.8c-10.4-6.8-30.4-16.6-42.8-13.6-4.5.9-10.4 5.2-7.3 10.2 1.4 2 4 3 6.2 4.1 4.6 2.2 9.4 4 14 6.2 11.9 5.4 22.6 11.3 3.4 17.2Zm0 0c18.8-6.2 8-11.5-3.6-16.8l-14.1-6c-2.3-1.2-4.9-2.2-6.5-4.4-3.4-5.4 2.8-10.2 7.7-11.2 12.8-3.2 32.6 6.7 43.2 13.8a35 35 0 0 1 6 5c1.4 1.2 2.7 3 2.5 5-1.3 5.3-7.9 9.4-12.7 11-7.2 2.6-15 3.1-22.5 3.5Z"/><path fill="#263238" d="M306.8 74.9a6 6 0 0 1-4.6-.4c-1.4-.8-1.6-1.9-.5-2.4a5.8 5.8 0 0 1 4.7.4c1.4.8 1.6 1.8.4 2.4ZM321.2 81a5.7 5.7 0 0 1-4.5-.6c-1.4-.8-1.5-2-.3-2.4a5.7 5.7 0 0 1 4.6.6c1.3.9 1.4 2 .2 2.5ZM335.1 88a5.6 5.6 0 0 1-4.5-1c-1.2-.9-1.3-2-.1-2.4a5.6 5.6 0 0 1 4.5.9c1.3 1 1.3 2 .1 2.4ZM190.6 154.4s-16.4-9-31 0-21.6 31-19 49.5-12.9 30.8-14.6 44.5 7.5 20.2 10.6 27.4c3.5 8.3-10.6 37.6 25.3 44.4 45 8.6 62.1-18.7 57.5-41.2-2.2-11-8.5-18.8-8.4-27.7s6.5-16 3.2-27.4-7.8-9.7-9.6-27.5 2-39-14-42Z"/><path fill="#263238" d="M162.7 154a55 55 0 0 0-21.2 25.2 50 50 0 0 0-3.9 16c-.4 7.3.7 14-2 21-4.4 11.3-13.2 20.7-12.7 33.3a30.7 30.7 0 0 0 5.4 16.3c3.8 5.7 9.4 10.1 12.6 16.2.2.2.5 0 .4-.2-2.7-5.4-7-9.5-10.7-14.4a31.2 31.2 0 0 1-6.7-19.6c.4-12 9-21.1 13-32 1.9-4.9 2-9.7 1.8-14.8a53.1 53.1 0 0 1 2.3-18 58.1 58.1 0 0 1 21.7-29ZM143.8 289.2v.1ZM219.3 275.8c-1.1-5.3-4-10.1-5-15.4-1.4-6.4.2-12.8 1.4-19 1.8-9 1.6-17.4-2.4-25.8-2.6-5.5-5.8-10.6-7.7-16.3a66.6 66.6 0 0 1-3.4-19.3c0-.1-.2-.1-.2 0a60.5 60.5 0 0 0 6 27.4c2.4 5 5.4 9.8 6.9 15.2a45 45 0 0 1-.2 19.4c-.7 4.4-1.7 8.8-1.6 13.2 0 4.7 1.5 8.8 3.1 13a45.2 45.2 0 0 1-.2 33.8c0 .2.3.3.4.1a43 43 0 0 0 2.9-26.3Z"/><path fill="#263238" d="M124.8 246.9c.4-9.8 7.4-16.5 11.6-25a34.6 34.6 0 0 0 4.3-20.4h-.3a46.5 46.5 0 0 1-9.5 28.1c-3.9 5.7-7 11.2-7 18s2.7 12.5 6.5 18c2.8 4 5.5 7.7 6.7 12.4s1 9.6.7 14.3c0 .3.4.3.4 0a35 35 0 0 0-3-21.2c-4.6-8.2-10.8-14.3-10.4-24.2ZM221 268.9a61.1 61.1 0 0 0-5.7-9.5c-3.8-5.5-4.5-10-3.2-16.6a.1.1 0 0 0-.3 0c-1.8 5.4-2.2 9.9 1 14.8 4.6 7 9 13.3 10 21.5 1.6 14.7-6.8 28.4-20.5 35.9-.2 0 0 .3.2.2a36.7 36.7 0 0 0 21.2-27.4 34.6 34.6 0 0 0-2.7-19Z"/><path fill="#eb9481" d="M171.6 227.5c23.7-8 72.2-12.9 95.6-10.3 15.9 1.8 17.8 10.9 16.7 16.9-2.4 13.5-39.4 22-55.6 21.6a304.2 304.2 0 0 1-57-6.3c-14.6-3-10-18.5.3-22Z"/><path fill="#d8b4a1" d="M232.9 215.7 213.2 263s-32-6.6-49.8-15.6c-13.6-7-10.7-15-1.2-18.4 32-11 70.7-13.3 70.7-13.3Z"/><path fill="#fff" d="m226.2 223.6 2 3.4-1.1 2.6-5.7-1.8-6.4 8.8-1.2-10.7-7.8-2.5 7-3.5-.3-2.1 4-.5.5.2.2-.3 5.4-.6.8 2.8 6.5-.6Zm-54 11.5 1.8-3-3.4.4-1.2-2.8-1.8 3-3-.8 1.8 2.6-2.2 2.2 3.5-.3 2 3.7.9-3.5 2.7 1Zm27.8 8.4v-2l-1.6 1-1.4-1v2l-1.8.5 1.6.8-.5 1.8 1.7-1.2 2.1 1.4-.5-2 1.6-.3Zm-4.8 9.2-6.3 1.8-3-4.8-1 5.8h-.4c3 1 6 1.8 8.9 2.6l-.1-.1Z"/><path fill="#263238" d="M206.2 258.1c2.5-7.5 10-27.6 16.4-40 0-.2.4 0 .3 0a766.2 766.2 0 0 1-16.3 40.2c0 .1-.5 0-.4-.2Z"/><path d="M163.4 247.3c17.8 9 49.8 15.6 49.8 15.6l12.1-29-71.1 2.6c-.4 3.4 2.2 7.3 9.2 10.8Z" opacity=".1"/><path fill="#eb9481" d="m199.2 310.7 6.8 28.5H100.1s18.2-79.4 36.6-101.8c12.4-15.3 24.5-15.3 35-5.8 2.7 2.4 28.9 35 33 50 3.5 13.2-5.5 29-5.5 29Z"/><path fill="#d8b4a1" d="m102 323.4 79.7-8 21.4 4.5-4-9.3s9-15.8 5.5-29c-4-15-30.2-47.6-32.9-50-10.5-9.5-22.6-9.5-35 5.7-12.8 15.6-29.2 61.2-34.7 86.1Z"/><path fill="#fff" d="m130.5 313.5-8.9-2.8-6.3 8.8-1.3-10.7-7.5-2.4a1.3 1.3 0 0 0 0-.2l6.8-3.3-.7-5.2 4.9 2.7 4.3-5.9 2 7.8 6.6-.5-4 4.7Zm42.8-80.2-1-1-1.7.1-1.1-2.6a.8.8 0 0 0-.2 0l-1.7 2.9-3-.8 1.8 2.6-2.3 2.2 3.6-.3 2 3.7.8-3.5 2.7 1-1-2.4ZM163 305l1.6-1.4-2-.4-.2-1.8-1.6 1.4-1.5-1 .5 1.8-1.6.8 2 .5.5 2.4 1.1-1.8 1.4 1Zm-32.4-25.3v-2.1l-1.6 1-1.4-1-.1 2-1.8.5 1.7.9-.6 1.7 1.8-1.2 2 1.4-.5-2 1.7-.3Zm61.5 5.9v-2.1l-1.6 1.1-1.4-1.1-.1 2-1.8.5 1.7.9-.5 1.8 1.7-1.2 2 1.3-.5-2 1.7-.2Zm-45.3-35.9 3-5.8-6.3 1-2.5-5.2-3 5.9-5.6-1 3.6 4.6-3.9 4.3 6.6-1 4.1 6.7 1.1-6.5 5.2 1.5Zm42.5 4.8-.5.1-3-4.8-1 5.8h-5.8l5.2 4.2-2 7.5 5.6-3.6 2.4 4.8 1.7-4.7 3.1-.9-5.7-8.4Zm-30.1 24.4 4.4.9-1.8-4 2.9-2.5-4.4-1-.4-3.8-2.4 3.2-3.5-1.8 1.9 4.2-3.6 4 4.5-.5v3.6Zm37.8 24 4.4 1-1.8-4 2.9-2.5-4.4-1-.4-3.8-2.4 3.2-3.5-1.7 1.9 4.2-3.6 3.8 4.4-.5v3.7Z"/><path fill="#263238" d="M163.2 305.1a114.2 114.2 0 0 1 16.7 1.4c2.7.5 5.4 1 8 1.7l4 1a18.1 18.1 0 0 0 4.3.4.1.1 0 0 1 0 .2 29.3 29.3 0 0 1-4 .2 28.8 28.8 0 0 1-4-.4L180 308c-5.6-1-11.1-2-16.8-2.5-.2 0-.1-.5.1-.5ZM150 311.1a123 123 0 0 1 13.6-1.7 83 83 0 0 1 10.2 0l3.6.3a.1.1 0 1 1 0 .1l-3.4.3-3.4.2-6.9.4c-4.6.2-9.1.4-13.7.8-.2 0-.3-.3 0-.4ZM181.7 321.3c-2 1.5-2.6 4.4-2.2 6.8 0 .6.4 1 .8 1.1 1.2.1 1.3-1.8 1.2-2.7a3.8 3.8 0 0 0-.6-1.8 4.1 4.1 0 0 1 .5 4.8 1.4 1.4 0 0 1-2.2-.2 5 5 0 0 1-.5-3c0-2 1.1-4.3 3-5Z"/><path fill="#eb9481" d="M153.3 228c-.3 3 2.7 17.7 11.4 19.9 4.5 1 9-14.4 9-14.4l.6-1.1 7.6-15.1-18.1-19s-10.4 28.9-10.5 29.7Z"/><path fill="#263238" d="M160 209a34 34 0 0 0 14.3 23.4l7.6-15.1-18.1-19.1-3.9 10.8Z"/><path fill="#eb9481" d="M211.3 199.2c-5.6 29.1-23.7 29-30 27.9-5.7-1.1-25-5.6-22.5-35.2s18-36.2 31.1-34.4 27 12.5 21.4 41.7Z"/><path fill="#263238" d="M160.7 191.6c5 2.2 10.1-9.5 10.1-9.5s23.8 3 31.3-14.8c0 0 .3 12.9 10.5 21.8 0 0 5.4-20.4-9.4-29.2 0 0-17.7-13.2-33.6-.9s-12.3 31-9 32.6Z"/><path fill="#263238" d="M202.6 166a20.8 20.8 0 0 1-3.6 8 21.7 21.7 0 0 1-6.5 6.1 18 18 0 0 1-2 1.1l-1 .5-1 .4-2.2.7-2.2.5-1.1.2h-1.1l-2.2.2-4.5-.3 4.4-.4 2.2-.3 1-.2c.4 0 .7-.2 1-.3l2.1-.5 2-.8 1-.4 1-.5a17.8 17.8 0 0 0 1.9-1 24.9 24.9 0 0 0 6.4-5.6 26.5 26.5 0 0 0 2.4-3.5 25 25 0 0 0 2-4Z"/><path fill="#eb9481" d="M164.4 191.5s-3.7-10.7-8.4-9.6-3.7 15.3.6 18.4a5 5 0 0 0 7.2-.7Z"/><path fill="#263238" d="M156.4 186v.1c2.9 2.3 3.7 5.9 4 9.5-.6-1.6-1.7-2.6-3.7-2v.3a3 3 0 0 1 3 2 15 15 0 0 1 .8 3c0 .4.6.4.6 0 1.3-4.3-.3-11.2-4.7-12.9Z"/><path fill="#455a64" d="M157.4 199.4a1.3 1.3 0 1 0 2.6 0 1.3 1.3 0 0 0-2.6 0Z"/><path fill="#263238" d="M158 199.4a.6.6 0 1 0 .7-.6.6.6 0 0 0-.6.6Z"/><path fill="#455a64" d="M155.7 197.3a.9.9 0 1 0 .9-.9.9.9 0 0 0-1 1Z"/><path fill="#263238" d="M210 193.4a19.9 19.9 0 0 0-1.7-1.4 3.4 3.4 0 0 0-1.8-1 1 1 0 0 0-1 .8 2.6 2.6 0 0 0 1.1 2.5 3.9 3.9 0 0 0 2.6 1 1.1 1.1 0 0 0 .7-2ZM188.1 188.6a20 20 0 0 1 2-.4 3.4 3.4 0 0 1 2.1 0 1 1 0 0 1 .6 1.2 2.6 2.6 0 0 1-2.2 1.6 3.9 3.9 0 0 1-2.7-.3 1.1 1.1 0 0 1 .2-2.1ZM182.6 211c.3.7.5 1.5 1.1 1.9a5.3 5.3 0 0 0 2.2.3v.1a2.7 2.7 0 0 1-2.8 0 2.2 2.2 0 0 1-.8-2.2h.3ZM188 208.5a18.6 18.6 0 0 1 7.4 1.9c.2 0 .7 0 .8-.2l1-4.2c.4.4 2.9 2.4 3 1.6 1.2-6.6 2.6-13.8 2.5-20.6a.2.2 0 0 0-.4 0c-1.4 6.3-1.8 12.7-3.1 19a11.8 11.8 0 0 0-2.9-1.8c-.2 0-.7 4.5-1 5.1a11.4 11.4 0 0 0-7.6-1.2c-1 .1-1 .3.2.4Z"/><path fill="#263238" d="M190.8 212.1c1 0 3.6-3 2.2-3.7s-5.2-1.2-7.3.6c-1.9 1.5 3 1.7 3.7 2.3s.6.8 1.3.8Z"/><path fill="#ff9abb" d="m189.4 211.3.3.3c.4-1.1 0-2.8-2-3.6a5.3 5.3 0 0 0-2 1c-1.9 1.5 3 1.7 3.7 2.3Z"/><path fill="#263238" d="m191 195-.2.3c-.2 2-.9 4.2-2.8 4.6v.1c2.3 0 3-3 3-5ZM187.2 193.6a5.5 5.5 0 0 0-.2 1.1 3 3 0 0 1-.6.7 1.6 1.6 0 0 1-1.6.3c-1.2-.4-1.3-1.8-1-3 0-.1 0-.2 0 0 .4.7.8 1.5 1.5 1.6s1.2-.4 1.8-.7Z"/><path fill="#263238" d="M190.7 197.3a3.1 3.1 0 0 1-1 1.4 2.2 2.2 0 0 1-1.6.4 2 2 0 0 1-1.5-1.1 3.5 3.5 0 0 1-.3-1.6 6.3 6.3 0 0 1 0-1 4.5 4.5 0 0 1 .8-1.9 6.8 6.8 0 0 0-.1 1.5 8.3 8.3 0 0 0 0 1.3c.2 1 .6 1.7 1.3 1.8s1.3-.3 1.7-1.1a13.9 13.9 0 0 0 1-2.7 6.5 6.5 0 0 1-.3 3ZM203 197.6l.1.2c-.5 2-.7 4.4 1 5.4v.1c-2.2-.8-1.9-3.9-1.1-5.7ZM207.1 197.6a6 6 0 0 1-.2 1.1 3.2 3.2 0 0 0 .3.9 1.6 1.6 0 0 0 1.4.9c1.2 0 1.9-1.3 2-2.5 0 0 0-.1 0 0-.6.5-1.3 1.1-2 1s-1-1-1.4-1.4Z"/><path fill="#263238" d="M202.5 199.8a3.2 3.2 0 0 0 .3 1.6 2.3 2.3 0 0 0 1.5 1 2 2 0 0 0 1.7-.5 3.7 3.7 0 0 0 1-1.3 7.8 7.8 0 0 0 .2-1 4.4 4.4 0 0 0 0-2 6.7 6.7 0 0 1-.4 1.4 9.6 9.6 0 0 1-.5 1.3c-.5.8-1.1 1.4-1.8 1.2s-1.1-.8-1.2-1.7a14.2 14.2 0 0 1 0-2.9 6.4 6.4 0 0 0-.8 2.9Z"/><path fill="#eb9481" d="M412 449.5c4.2-1.4.5-13.5-4.1-17.2-1.5-1.2-7-4-14-7.3-15-7.3-37-17-37-17l-15.6-67.3-75.7.4s13.6 62.5 13.7 67.1v.9c.6 20.8 1.7 38 3.4 39 4.6 2.9 125.1 2.8 129.4 1.4Z"/><path fill="#ebebeb" d="M412 449.5C408 451 287.4 451 282.8 448c-1.7-1-2.7-18.1-3.4-39v-.8c0-1-.7-4.9-1.7-10.3h77.1L357 408s21.8 9.8 37 17c6.9 3.4 12.4 6.2 13.9 7.4 4.6 3.6 8.3 15.7 4.2 17.1Z"/><path d="M369 450.4c-36.5.1-83.4-.6-86.3-2.3-1.7-1.1-2.7-18.2-3.4-39.1v-.8a1946 1946 0 0 0-13.7-67.2l63.2-.3Z" opacity=".1"/><path fill="#d8b4a1" d="M413.4 450.2c-4.3 1.4-127 1.3-131.7-1.7-1.7-1-2.8-19-3.4-40.6v-.7l79.2-.8v1.4s47 21 51.7 24.8 8.5 16.2 4.2 17.6Z"/><path fill="#263238" d="M412 445.4a3298.6 3298.6 0 0 0-124.7.5c20.5 1 104 .5 124.7-.1.5 0 .5-.4 0-.4ZM366.3 406.7c-8.2-1.6-18.1-.3-24.3 5.5-.3.2 0 .5.3.5a114.7 114.7 0 0 1 24-5 .5.5 0 0 0 0-1ZM372.2 410.2c-8.2-1.5-18.1-.3-24.4 5.5-.2.2.1.6.4.5a114 114 0 0 1 24-5 .5.5 0 0 0 0-1ZM378 413.8c-8.1-1.6-18.1-.3-24.3 5.5-.3.2 0 .5.3.4a114.2 114.2 0 0 1 24-5 .5.5 0 0 0 0-1Z"/><path fill="#263238" d="M376.9 389c-3.2-4.5-9.2-2.5-12.6.3a43.4 43.4 0 0 0-12.5 18.7.2.2 0 0 0 .2.3 1 1 0 0 0 1.2 1c6.8-2.5 14.3-4.3 20-8.8 3.4-2.6 6.7-7.4 3.7-11.6Zm-14.2 14.4-9.9 3.9a128.8 128.8 0 0 1 7.6-10.7 46.4 46.4 0 0 1 4.3-4.7c2.5-2.2 12-6.9 10.6 2-.8 5-8.7 8-12.6 9.5Z"/><path fill="#263238" d="M331 405.8c6.8 2.9 14.5 2.7 21.6 3.4.8.1 1.1-.6 1-1.2a.2.2 0 0 0 .1-.4 43.5 43.5 0 0 0-16.8-14.8c-4-2-10.3-2.3-12.3 2.7-1.9 4.8 2.6 8.6 6.5 10.3Zm-3.6-5.8c-3.6-8.3 6.8-6.2 9.7-4.7a45.4 45.4 0 0 1 5.4 3.5 130.8 130.8 0 0 1 10 8.4L342 406c-4.1-.5-12.6-1.4-14.6-6ZM392.8 424.6a21 21 0 0 0-15.7 6.3c-3.2 3.6-6 8.6-5.9 14 0 .2.4.2.4 0a24.3 24.3 0 0 1 21.2-20 .2.2 0 0 0 0-.3Z"/><path fill="#fff" d="M294 428.5c-8.8 0-8.8 13.8 0 13.8s9-13.8 0-13.8Z"/><path d="M415 448.1a2.6 2.6 0 0 1-1.6 2.1c-4.3 1.4-127 1.3-131.7-1.7-1.7-1-2.8-19-3.4-40.6v-.7l75.5-.7Z" opacity=".1"/><path fill="#37474f" d="M119 339.2s-14.1 48-6.6 71c5.7 17.4 24.8 29.4 39.5 36.8 9.1 4.5 66.2 7.2 81.2-5 21-17.2 54-109.6 54-112.3 0-10.4-31.7-30-31.7-30s-.2 28 2 39.8a713.5 713.5 0 0 0 16.2 54l81.3-.4s-14.6-89.5-39.3-143.6c-5.4-11.8-22-18-35.9-17.5a40.6 40.6 0 0 0-28.6 13.3c-19.5 21.2-61.1 92.3-61.1 92.3Z"/><path fill="#263238" d="M269.3 379.3c-1.8-7.4-7.1-23.3-11.6-45.6-1.7-8.5-3-19.4-4.3-29.9-.7-5-1.6-19.1-2.5-24.3a.2.2 0 1 0-.4 0c0 5.1 1 16.5 1.4 21l.6 6c-.2-.5-4-9.7-5.1-13.8a.2.2 0 1 0-.4.2c1.7 6.2 5 16.9 5.8 17.9.6 5.7 1.5 16.8 2.6 22.4 3 15.6 10.6 42 13.2 46.7.3.5.8-.1.7-.6ZM310.7 378.4c-10.9-.1-23.5-.4-32.6-1-.3 0-.3-.4 0-.4 9-.2 21.6-.4 32.5-.3s21.7.7 32.6 1c.3 0 .4.5 0 .5-10.8 0-21.6.3-32.5.2ZM190 337.6a98 98 0 0 1-9.7 16.4 58.2 58.2 0 0 1-12.4 8.3c3-2.8 6.4-5.6 9.5-8.3a11.9 11.9 0 0 0 2.6-2.9c3.2-4.5 6.4-9.2 10-13.4Z"/><path fill="#263238" d="M171 355.4a22.7 22.7 0 0 1 9.1-2.9 22.6 22.6 0 0 1-9.1 3Z"/><path fill="#263238" d="M130.2 342.3c-.9 7-1.6 14-2.1 21.1-.2 4.4-.6 8.9 0 13.3 1.7 5 11.4 6.4 16 7.2a64.4 64.4 0 0 0 16 .2c1.6-.3 3.4-.3 4.6-1.7 11.5-13.4 20.4-29 30.2-43.5 15.6-23.7 30.3-48 47.5-70.5a64 64 0 0 1 5.3-6c1.3-1.4 3-2.8 5-1.7a19.3 19.3 0 0 1 6 5.4c1 1.5 2.4 3 2.8 4.7 1.7 19.4 1 39 4.2 58.3 3 13.8 6.7 27.5 10.5 41.1q-3-10.2-5.8-20.5c-2.6-10.2-5.9-20.5-6.6-31-1-10.7-1.5-21.3-2-32-.4-5.4-.3-11-1.2-16.3a22 22 0 0 0-8.2-9 2.4 2.4 0 0 0-2.2 0c-2.9 1.8-5 4.9-7.2 7.5-19.8 26.4-40.6 60.8-59.1 88.2-4 5.9-8 11.8-12.1 17.5a75.7 75.7 0 0 1-6.7 8.3 4.2 4.2 0 0 1-2.4 1.4c-9 1.6-26.5 1-33.6-5.2-1.4-1.2-1.6-3.2-1.6-5a94.3 94.3 0 0 1 .3-10.6c.5-7 1.4-14.1 2.3-21.1Z"/><path d="m347 393.1-73.4.3-4.5-13.7c-10.4 25.4-25.5 53.7-36 62.2-15 12.2-72.1 9.6-81.2 5-14.8-7.3-33.8-19.3-39.5-36.6-7.5-23 6.6-71.1 6.6-71.1l71-1.6s41.6-71 61.2-92.3a40.6 40.6 0 0 1 28.6-13.3 49.2 49.2 0 0 1 15 2Z" opacity=".1"/><path fill="#eb9481" d="M393.1 449.5c4.2-1.4.5-13.5-4.2-17.2-1.4-1.2-7-4-13.8-7.3-15.2-7.3-37-17-37-17l-15.7-67.3-75.7.4s13.6 62.5 13.7 67.1v.9c.6 20.8 1.7 38 3.4 39 4.6 2.9 125.1 2.8 129.3 1.4Z"/><path fill="#ebebeb" d="M393.1 449.5C389 451 268.4 451 263.8 448c-1.7-1-2.7-18.1-3.4-39v-.8c0-1-.7-5-1.8-10.3h77.2L338 408s21.8 9.8 37 17c6.9 3.4 12.4 6.2 13.9 7.4 4.6 3.6 8.3 15.7 4.1 17.1Z"/><path fill="#d8b4a1" d="M394.5 450.2c-4.3 1.4-127 1.3-131.7-1.7-1.8-1-2.8-19-3.4-40.6v-.7l79.2-.8v1.4s47 21 51.7 24.8 8.5 16.2 4.2 17.6Z"/><path fill="#263238" d="M393.1 445.4a3298.2 3298.2 0 0 0-124.6.5c20.5 1 104 .5 124.6-.1.4 0 .4-.4 0-.4ZM347.4 406.7c-8.2-1.6-18.1-.3-24.3 5.5-.3.2 0 .5.3.5a115 115 0 0 1 24-5 .5.5 0 0 0 0-1ZM353.2 410.2c-8.1-1.5-18-.3-24.3 5.5-.2.2.1.6.4.5a114 114 0 0 1 24-5 .5.5 0 0 0 0-1ZM359.1 413.8c-8.1-1.6-18-.3-24.3 5.5-.2.2 0 .5.3.4a114 114 0 0 1 24-5 .5.5 0 0 0 0-1Z"/><path fill="#263238" d="M358 389c-3.2-4.5-9.2-2.5-12.6.3A43.5 43.5 0 0 0 333 408a.2.2 0 0 0 .2.3c0 .6.5 1.3 1.2 1 6.8-2.5 14.2-4.3 20-8.8 3.4-2.6 6.7-7.4 3.7-11.6Zm-14.2 14.4-9.9 3.9a131 131 0 0 1 7.6-10.7 48.9 48.9 0 0 1 4.3-4.7c2.5-2.2 12-6.9 10.6 2-.8 5-8.7 8-12.6 9.5Z"/><path fill="#263238" d="M312.2 405.8c6.7 2.9 14.4 2.7 21.5 3.4.8.1 1.1-.6 1-1.2a.2.2 0 0 0 .1-.4 43.5 43.5 0 0 0-16.8-14.8c-4-2-10.3-2.3-12.3 2.7-1.9 4.8 2.6 8.6 6.5 10.3Zm-3.7-5.8c-3.7-8.3 6.8-6.2 9.7-4.7a47 47 0 0 1 5.4 3.5c3.6 2.5 6.7 5.5 10 8.4L323 406c-4.1-.5-12.6-1.4-14.6-6ZM374.4 424.6a21 21 0 0 0-15.7 6.3c-3.3 3.6-6 8.6-5.9 14 0 .2.3.2.3 0a24.3 24.3 0 0 1 21.3-20 .2.2 0 0 0 0-.3Z"/><path fill="#fff" d="M275.6 428.5c-8.8 0-8.9 13.8 0 13.8s9-13.8 0-13.8Z"/><path fill="#37474f" d="M100.1 339.2s-14.1 48-6.6 71c5.7 17.4 24.8 29.4 39.5 36.8 9.1 4.6 66.2 7.2 81.2-5 21-17.1 54-109.6 54-112.3 0-10.4-31.7-30-31.7-30s-.2 28 2 39.8a713.5 713.5 0 0 0 16.2 54l82.1-.4s-15.4-89.5-40-143.6c-5.4-11.8-22.1-18-36-17.5a40.6 40.6 0 0 0-28.6 13.3c-19.5 21.2-61.1 92.4-61.1 92.4Z"/><path fill="#263238" d="M250.3 379.8c-1.8-7.3-7-23.8-11.5-46-1.7-8.6-3-19.5-4.3-30-.7-5-1.6-19.1-2.6-24.3a.2.2 0 0 0-.4 0c.1 5.2 1.1 16.5 1.5 21l.5 6c-.1-.5-3.9-9.7-5-13.7-.1-.3-.5-.2-.4 0 1.7 6.4 5 17 5.8 18 .6 5.8 1.5 16.8 2.6 22.5 3 15.5 10.6 41.9 13.2 46.6.2.5.7.4.6-.1ZM291.8 378.4c-10.9-.1-23.5-.4-32.7-1-.2 0-.2-.4 0-.4 9.1-.2 21.7-.4 32.6-.3s21.7.7 32.6 1c.3 0 .3.5 0 .5-10.8 0-21.7.3-32.5.2ZM171.1 337.6a96.7 96.7 0 0 1-9.7 16.4 57.9 57.9 0 0 1-12.4 8.3c2.9-2.9 6.3-5.7 9.4-8.3a12.1 12.1 0 0 0 2.6-3c3.2-4.5 6.4-9 10-13.4Z"/><path fill="#263238" d="M152.1 355.4a22.8 22.8 0 0 1 9.2-2.9 22.6 22.6 0 0 1-9.2 3ZM111.5 372.5c2-.7 10.1-2.3 12-3.1a45.8 45.8 0 0 0 10.7-5.8 24 24 0 0 0 7.1-9.5c1-2 5.4-12.7 5.7-12.7a.3.3 0 0 1 .3.1c.3.7-1 4.7-1.5 6l-2.2 6.8a23.7 23.7 0 0 1-7.2 11 36.8 36.8 0 0 1-11.8 6.2 37.8 37.8 0 0 1-6.7 1.5 17.8 17.8 0 0 1-6.4.1c-.4-.1-.3-.5 0-.6Z"/><path fill="#263238" d="M111.3 342.3c-1 7-1.7 14-2.1 21.1-.2 4.4-.6 8.9 0 13.3 1.7 5 11.4 6.4 16 7.2a64.4 64.4 0 0 0 15.9.2c1.7-.3 3.5-.3 4.7-1.7 11.5-13.4 20.4-29 30.2-43.5 15.6-23.7 30.3-48 47.5-70.5a65.7 65.7 0 0 1 5.3-6c1.3-1.4 3-2.8 5-1.7a19.1 19.1 0 0 1 6 5.4c1 1.5 2.4 3 2.8 4.7 1.7 19.4 1 39 4.2 58.3 3 13.8 6.8 27.5 10.5 41.1q-3-10.2-5.8-20.5c-2.6-10.2-5.9-20.5-6.6-31-1-10.7-1.5-21.3-2-32-.4-5.4-.3-11-1.2-16.3a22 22 0 0 0-8.2-9 2.4 2.4 0 0 0-2.2 0c-2.9 1.8-5 4.9-7.2 7.5-19.8 26.4-40.6 60.8-59.1 88.2-4 5.9-8 11.8-12.1 17.5a75.7 75.7 0 0 1-6.7 8.3 4.2 4.2 0 0 1-2.4 1.4c-9 1.6-26.5 1-33.6-5.2-1.4-1.2-1.6-3.2-1.6-5a96.7 96.7 0 0 1 .3-10.6c.6-7 1.4-14.1 2.3-21.1Z"/><path fill="#c7c7c7" d="M151 338.4a8 8 0 0 0-1 3 .6.6 0 0 0 .3.7c.3 0 .5-.2.6-.6a7 7 0 0 1 .5-1.7v-.2a1.5 1.5 0 0 1 .2-.3l.1-.2a.7.7 0 0 0 0-.8.4.4 0 0 0-.7 0ZM149.5 344a8 8 0 0 0-1 3 .6.6 0 0 0 .4.6c.2 0 .5-.2.5-.5a7 7 0 0 1 .5-1.8l.1-.2.1-.3.1-.2a.7.7 0 0 0 0-.8.4.4 0 0 0-.7 0ZM147.6 348.8a6.7 6.7 0 0 0-1.8 2.4.7.7 0 0 0 .2.8.4.4 0 0 0 .6-.3 6.2 6.2 0 0 1 1-1.4l.1-.2.3-.2.1-.1a.7.7 0 0 0 .2-.8.4.4 0 0 0-.7-.2ZM144.3 353a5.8 5.8 0 0 0-2.2 1.8.7.7 0 0 0 0 .9.4.4 0 0 0 .6 0 5 5 0 0 1 1.3-1.2h.1s.2-.2 0 0l.3-.2h.2a.6.6 0 0 0 .3-.8c-.1-.3-.4-.5-.6-.4ZM140.3 356a5.3 5.3 0 0 0-2.4 1.4.7.7 0 0 0 0 .8.4.4 0 0 0 .6 0 4.7 4.7 0 0 1 1.4-.8h.4l.2-.2a.6.6 0 0 0 .4-.6c0-.3-.3-.6-.6-.5ZM136 358.2a5.1 5.1 0 0 0-2.5 1 .7.7 0 0 0-.1.9.4.4 0 0 0 .6.1 4.3 4.3 0 0 1 1.4-.7h.7a.6.6 0 0 0 .4-.6c0-.3-.2-.6-.5-.6ZM131.6 360a5 5 0 0 0-2.6 1 .7.7 0 0 0-.1.7.4.4 0 0 0 .6.2 4.3 4.3 0 0 1 1.5-.6H131.6a.6.6 0 0 0 .5-.6c0-.3-.2-.6-.5-.6ZM127.1 361.6a5 5 0 0 0-2.5 1 .7.7 0 0 0-.2.7.4.4 0 0 0 .7.2 4.4 4.4 0 0 1 1.4-.6H127.1a.6.6 0 0 0 .5-.6c0-.3-.2-.6-.5-.6ZM122.4 363.3a5 5 0 0 0-2.6 1 .7.7 0 0 0-.1.7.4.4 0 0 0 .6.2 4.3 4.3 0 0 1 1.4-.6h.7a.5.5 0 0 0 .4-.6c0-.3-.2-.6-.4-.6ZM117.8 365.3a5.6 5.6 0 0 0-2.3 1.7.7.7 0 0 0 0 .8.4.4 0 0 0 .7 0 4.8 4.8 0 0 1 1.2-1l.2-.1s.2-.1 0 0l.2-.1h.2a.6.6 0 0 0 .4-.8c-.1-.3-.4-.5-.6-.4ZM113.8 368.9a6.4 6.4 0 0 0-2 2.2.7.7 0 0 0 .1.8.4.4 0 0 0 .7-.2 6 6 0 0 1 1-1.4h.2l.2-.3.2-.1a.7.7 0 0 0 .2-.8.5.5 0 0 0-.7-.3ZM110.4 373a7.2 7.2 0 0 0-1.7 2.6.7.7 0 0 0 .3.8.5.5 0 0 0 .6-.3 6.4 6.4 0 0 1 .9-1.6 1.1 1.1 0 0 0 .1-.2l.2-.2.2-.2a.7.7 0 0 0 0-.8.4.4 0 0 0-.6-.1ZM107.7 378a7.7 7.7 0 0 0-1.4 2.8.6.6 0 0 0 .4.7.5.5 0 0 0 .6-.4 6.4 6.4 0 0 1 .7-1.7 1 1 0 0 1 0-.1s.2-.2 0 0l.2-.3.1-.1a.7.7 0 0 0 0-.9.4.4 0 0 0-.6 0ZM105.3 383a7.4 7.4 0 0 0-1.5 2.7.6.6 0 0 0 .3.8.5.5 0 0 0 .6-.4 7 7 0 0 1 .8-1.6l.1-.2s.1-.2 0 0l.1-.2a1.1 1.1 0 0 1 .2-.2.7.7 0 0 0 0-.8.4.4 0 0 0-.6-.1ZM102.7 388a6.5 6.5 0 0 0-1.9 2.3.7.7 0 0 0 .2.8.4.4 0 0 0 .6-.2 6.2 6.2 0 0 1 1-1.4l.2-.2s.1-.1 0 0l.1-.2h.2a.7.7 0 0 0 .2-.9.4.4 0 0 0-.7-.2ZM99.3 391.8a5.3 5.3 0 0 0-2.5 1.3.7.7 0 0 0 0 .9.4.4 0 0 0 .6 0 4.7 4.7 0 0 1 1.4-.9h.4l.2-.1a.6.6 0 0 0 .4-.7c0-.3-.3-.5-.5-.5ZM95.1 394a4.8 4.8 0 0 0-2.6-.5.6.6 0 0 0-.5.6.5.5 0 0 0 .6.5 4 4 0 0 1 1.5.2h.2l.2.1.2.1a.4.4 0 0 0 .6-.3.7.7 0 0 0-.2-.8ZM90.8 392.7a7 7 0 0 0-1.7-2.5.4.4 0 0 0-.7.2.7.7 0 0 0 .1.8 5.9 5.9 0 0 1 1.1 1.4l.1.1s.1.2 0 0l.1.3.1.2a.4.4 0 0 0 .7.3.7.7 0 0 0 .2-.8ZM88.2 388a8.5 8.5 0 0 0-.8-3.1.4.4 0 0 0-.7-.2.7.7 0 0 0-.1.8 7 7 0 0 1 .5 1.8 1.2 1.2 0 0 1 0 .2v.3a2.3 2.3 0 0 1 0 .2c0 .4.3.6.5.6a.6.6 0 0 0 .5-.6ZM86.8 382.4a8.9 8.9 0 0 0 0-3.3.5.5 0 0 0-.5-.4.6.6 0 0 0-.4.7 8 8 0 0 1 .1 1.9v.2s0 .2 0 0a2 2 0 0 1 0 .3 1.9 1.9 0 0 1 0 .2.6.6 0 0 0 .4.8.5.5 0 0 0 .5-.4ZM86.8 376.5a8.3 8.3 0 0 0 .6-3.2.5.5 0 0 0-.5-.6.6.6 0 0 0-.5.7 7.2 7.2 0 0 1-.2 1.9v.5a2 2 0 0 1-.2.2.7.7 0 0 0 .2.8.4.4 0 0 0 .6-.3ZM87.8 370.6a8.6 8.6 0 0 0 .7-3.1.5.5 0 0 0-.4-.6c-.3 0-.5.3-.5.6a7.5 7.5 0 0 1-.3 1.8 1 1 0 0 1 0 .2l-.1.3-.1.3a.7.7 0 0 0 .2.8.4.4 0 0 0 .6-.2ZM89 364.9a8.3 8.3 0 0 0 1.4-2.9.6.6 0 0 0-.3-.7.5.5 0 0 0-.6.4 7.4 7.4 0 0 1-.7 1.8l-.1.1s-.2.2 0 .1l-.2.2-.1.2a.7.7 0 0 0 0 .8.4.4 0 0 0 .7 0ZM91.1 360a8.4 8.4 0 0 0 2.3-2.3.5.5 0 1 0-.8-.5 7.4 7.4 0 0 1-1.3 1.4l-.1.1s-.2.2 0 0a1.6 1.6 0 0 0-.2.2l-.2.2a.7.7 0 0 0-.3.7.4.4 0 0 0 .7.2ZM95 355.6a8.5 8.5 0 0 0 1.8-2.7.5.5 0 0 0-.2-.7.6.6 0 0 0-.7.4 7.7 7.7 0 0 1-1 1.7l-.1.1s-.2.2 0 0l-.2.3-.2.1a.6.6 0 0 0 0 .8.5.5 0 0 0 .6 0Z"/><path fill="#dbdbdb" d="M98.4 349.8h-.1a1.8 1.8 0 0 0-2.4.8l-.3.5a1.8 1.8 0 0 0 .4 2.4 1.8 1.8 0 0 0 2.4-.8l.3-.4a1.8 1.8 0 0 0-.3-2.5Zm-.5 2.5a1 1 0 0 1-1.4.5 1 1 0 0 1-.2-1.5l.1-.2a1 1 0 0 1 1.4-.5 1 1 0 0 1 .3 1.4Z"/><path fill="#c7c7c7" d="M98 350.2a1.4 1.4 0 0 0-1.9.6l-.2.4a1.4 1.4 0 0 0 .3 1.9 1.4 1.4 0 0 0 1.9-.6l.2-.4a1.4 1.4 0 0 0-.3-2Zm0 2.1a1 1 0 0 1-1.5.5 1 1 0 0 1-.3-1.5l.2-.2a1 1 0 0 1 1.4-.5 1 1 0 0 1 .3 1.4Z" opacity=".4"/><path fill="#dbdbdb" d="m95.3 354.5-.1-.1a1.7 1.7 0 0 0-2.4.5l-.3.4a2 2 0 0 0 0 2.6h.1a1.7 1.7 0 0 0 2.4-.5l.3-.4a1.9 1.9 0 0 0 0-2.5Zm-.7 2.4a1 1 0 0 1-1.4.4l-.1-.1a1.1 1.1 0 0 1 0-1.5l.2-.3a1 1 0 0 1 1.4-.3 1.1 1.1 0 0 1 0 1.5Z"/><path fill="#c7c7c7" d="M95 354.8h-.1a1.3 1.3 0 0 0-1.9.3l-.2.4a1.5 1.5 0 0 0 0 2 1.3 1.3 0 0 0 1.9-.4l.2-.3a1.5 1.5 0 0 0 0-2Zm-.4 2.1a1 1 0 0 1-1.4.4l-.1-.1a1.1 1.1 0 0 1 0-1.5l.2-.3a1 1 0 0 1 1.4-.3 1.1 1.1 0 0 1 0 1.5Z" opacity=".4"/><path fill="#dbdbdb" d="M91.4 358.7h-.1a1.5 1.5 0 0 0-2.2.9l-.2.5a2 2 0 0 0 .6 2.5l.1.1a1.5 1.5 0 0 0 2.2-1l.2-.4a2 2 0 0 0-.6-2.6Zm-.1 2.6a1 1 0 0 1-1.3.6h-.1a1.3 1.3 0 0 1-.4-1.6l.2-.2a.9.9 0 0 1 1.2-.6h.1a1.2 1.2 0 0 1 .4 1.6Z"/><path fill="#c7c7c7" d="M91.1 359.1a1.2 1.2 0 0 0-1.7.7l-.2.4a1.6 1.6 0 0 0 .5 2 1.2 1.2 0 0 0 1.7-.7l.2-.4a1.6 1.6 0 0 0-.5-2Zm.2 2.2a1 1 0 0 1-1.3.6h-.1a1.3 1.3 0 0 1-.4-1.6l.2-.2a.9.9 0 0 1 1.2-.6h.1a1.2 1.2 0 0 1 .4 1.6Z" opacity=".4"/><path fill="#dbdbdb" d="M89 363.8h-.2a1.5 1.5 0 0 0-2 1.2l-.1.5a2 2 0 0 0 1 2.5 1.5 1.5 0 0 0 2-1.2l.2-.5a2 2 0 0 0-1-2.5Zm.2 2.6a1 1 0 0 1-1.2.7 1.2 1.2 0 0 1-.7-1.5l.1-.3a1 1 0 0 1 1.2-.7 1.2 1.2 0 0 1 .7 1.5Z"/><path fill="#c7c7c7" d="M88.7 364.2a1.2 1.2 0 0 0-1.6 1l-.2.4a1.6 1.6 0 0 0 .8 2h.1a1.2 1.2 0 0 0 1.6-1v-.5a1.6 1.6 0 0 0-.7-1.9Zm.5 2.2a1 1 0 0 1-1.2.7 1.2 1.2 0 0 1-.7-1.5l.1-.3a1 1 0 0 1 1.2-.7 1.2 1.2 0 0 1 .7 1.5Z" opacity=".4"/><path fill="#dbdbdb" d="M87.7 369.6h-.2a1.6 1.6 0 0 0-1.8 1.6v.5a2 2 0 0 0 1.2 2.3h.1a1.6 1.6 0 0 0 1.8-1.6l.1-.5a2 2 0 0 0-1.2-2.3Zm.5 2.5a1 1 0 0 1-1 1H87a1.2 1.2 0 0 1-.8-1.4v-.3a1 1 0 0 1 1.1-1h.1a1.2 1.2 0 0 1 .8 1.4Z"/><path fill="#c7c7c7" d="M87.5 370a1.3 1.3 0 0 0-1.5 1.3v.4a1.5 1.5 0 0 0 1 1.7 1.3 1.3 0 0 0 1.5-1.2v-.4a1.5 1.5 0 0 0-1-1.7Zm.7 2.1a1 1 0 0 1-1 1H87a1.2 1.2 0 0 1-.8-1.4v-.3a1 1 0 0 1 1.1-1h.1a1.2 1.2 0 0 1 .8 1.4Z" opacity=".4"/><path fill="#dbdbdb" d="M86.8 375.4h-.1a1.6 1.6 0 0 0-1.9 1.6v.5a2 2 0 0 0 1.2 2.2h.1a1.6 1.6 0 0 0 1.9-1.5v-.5a2 2 0 0 0-1.2-2.3Zm.5 2.6a1 1 0 0 1-1 .9h-.1a1.2 1.2 0 0 1-.8-1.4v-.3a1 1 0 0 1 1.1-1 1.2 1.2 0 0 1 .8 1.5Z"/><path fill="#c7c7c7" d="M86.6 375.9A1.3 1.3 0 0 0 85 377v.4a1.5 1.5 0 0 0 1 1.8 1.3 1.3 0 0 0 1.5-1.2v-.5a1.5 1.5 0 0 0-1-1.7Zm.7 2a1 1 0 0 1-1 1h-.1a1.2 1.2 0 0 1-.8-1.4v-.3a1 1 0 0 1 1.1-1 1.2 1.2 0 0 1 .8 1.4Z" opacity=".4"/><path fill="#dbdbdb" d="M86.3 381.4h-.1a2 2 0 0 0-1.2 2.4v.5a1.6 1.6 0 0 0 2 1.5h.1a2 2 0 0 0 1.2-2.3v-.6a1.6 1.6 0 0 0-2-1.5Zm1.3 2a1.2 1.2 0 0 1-.7 1.5 1 1 0 0 1-1.2-.9v-.3a1.2 1.2 0 0 1 .7-1.4 1 1 0 0 1 1.2.9Z"/><path fill="#c7c7c7" d="M86.3 382a1.6 1.6 0 0 0-1 1.7v.4a1.3 1.3 0 0 0 1.5 1.2h.1a1.6 1.6 0 0 0 1-1.8l-.1-.4a1.3 1.3 0 0 0-1.5-1.2Zm1.3 1.5a1.2 1.2 0 0 1-.7 1.4 1 1 0 0 1-1.2-.9v-.3a1.2 1.2 0 0 1 .7-1.4 1 1 0 0 1 1.2.9Z" opacity=".4"/><path fill="#dbdbdb" d="M87.4 387.4h-.2a2.2 2.2 0 0 0-.5 2.7l.2.5a1.4 1.4 0 0 0 2.2.7v-.1a2.2 2.2 0 0 0 .6-2.7l-.2-.4a1.4 1.4 0 0 0-2.1-.7Zm1.7 1.4a1.3 1.3 0 0 1-.3 1.6.8.8 0 0 1-1.4-.3l-.1-.3a1.3 1.3 0 0 1 .3-1.6h.1a.8.8 0 0 1 1.3.4Z"/><path fill="#c7c7c7" d="m87.5 387.8-.1.1a1.7 1.7 0 0 0-.4 2.1l.2.4a1.1 1.1 0 0 0 1.6.5h.1a1.7 1.7 0 0 0 .5-2.1l-.2-.4a1.1 1.1 0 0 0-1.7-.6Zm1.6 1a1.3 1.3 0 0 1-.3 1.6.8.8 0 0 1-1.4-.3l-.1-.3a1.3 1.3 0 0 1 .3-1.6h.1a.8.8 0 0 1 1.3.4Z" opacity=".4"/><path fill="#dbdbdb" d="m89.7 392.5-.1.2a2.2 2.2 0 0 0 .7 2.6l.4.2a1.4 1.4 0 0 0 2.1-.8v-.2a2.2 2.2 0 0 0-.6-2.6l-.4-.2a1.4 1.4 0 0 0-2.1.8Zm2 0a1.3 1.3 0 0 1 .5 1.7.9.9 0 0 1-1.3.5h-.2a1.3 1.3 0 0 1-.4-1.7.9.9 0 0 1 1.3-.6Z"/><path fill="#c7c7c7" d="M90 392.8v.1a1.7 1.7 0 0 0 .5 2l.3.2a1.1 1.1 0 0 0 1.7-.6v-.1a1.7 1.7 0 0 0-.5-2l-.3-.2a1.1 1.1 0 0 0-1.7.6Zm1.8-.2a1.3 1.3 0 0 1 .4 1.6.9.9 0 0 1-1.2.5h-.3a1.3 1.3 0 0 1-.4-1.7.9.9 0 0 1 1.3-.6Z" opacity=".4"/><path fill="#dbdbdb" d="M94.3 394.5v.1a1.6 1.6 0 0 0 1.8 1.6h.4a2 2 0 0 0 1.3-2.3v-.2a1.6 1.6 0 0 0-1.8-1.6l-.4.1a2 2 0 0 0-1.3 2.3ZM96 393a1 1 0 0 1 1 1 1.2 1.2 0 0 1-.7 1.3l-.2.1a1 1 0 0 1-1.1-1 1.2 1.2 0 0 1 .7-1.4Z"/><path fill="#c7c7c7" d="M94.7 394.5v.1c0 .8.7 1.4 1.4 1.2h.3a1.5 1.5 0 0 0 1-1.8v-.1a1.3 1.3 0 0 0-1.4-1.2h-.3a1.5 1.5 0 0 0-1 1.8ZM96 393a1 1 0 0 1 1 1 1.2 1.2 0 0 1-.7 1.3l-.2.1a1 1 0 0 1-1.1-1 1.2 1.2 0 0 1 .7-1.4Z" opacity=".4"/><path fill="#dbdbdb" d="M99 393v.1a1.4 1.4 0 0 0 2.2 0l.3-.4a2.3 2.3 0 0 0 0-2.7v-.1a1.4 1.4 0 0 0-2.3 0l-.3.4a2.3 2.3 0 0 0 0 2.7Zm.6-2.5a.8.8 0 0 1 1.4 0 1.4 1.4 0 0 1 0 1.7l-.2.3a.8.8 0 0 1-1.3 0v-.1a1.4 1.4 0 0 1 0-1.6Z"/><path fill="#c7c7c7" d="M99.3 392.8a1 1 0 0 0 1.8 0l.2-.3a1.8 1.8 0 0 0 0-2.1v-.1a1 1 0 0 0-1.8 0l-.3.3a1.8 1.8 0 0 0 0 2.1Zm.3-2.3a.8.8 0 0 1 1.4 0v.1a1.4 1.4 0 0 1 0 1.6l-.2.3a.8.8 0 0 1-1.3 0 1.4 1.4 0 0 1 0-1.7Z" opacity=".4"/><path fill="#dbdbdb" d="M102.5 389a1.4 1.4 0 0 0 2.2-.4l.3-.5a2.2 2.2 0 0 0-.4-2.7h-.1a1.4 1.4 0 0 0-2.2.5l-.3.4a2.2 2.2 0 0 0 .5 2.7Zm.3-2.6a.8.8 0 0 1 1.3-.3 1.3 1.3 0 0 1 .3 1.7l-.2.2a.8.8 0 0 1-1.3.3 1.3 1.3 0 0 1-.3-1.6Z"/><path fill="#c7c7c7" d="M102.7 388.6h.1a1.1 1.1 0 0 0 1.7-.3l.2-.3a1.7 1.7 0 0 0-.3-2.2 1 1 0 0 0-1.8.4l-.2.3a1.7 1.7 0 0 0 .3 2.1Zm0-2.2a.8.8 0 0 1 1.3-.3h.1a1.3 1.3 0 0 1 .3 1.6l-.2.3a.8.8 0 0 1-1.3.3 1.3 1.3 0 0 1-.3-1.7Z" opacity=".4"/><path fill="#dbdbdb" d="M105.2 384.2h.1a1.4 1.4 0 0 0 2.2-.6l.2-.5a2.2 2.2 0 0 0-.5-2.6l-.1-.1a1.4 1.4 0 0 0-2.2.6l-.2.5a2.2 2.2 0 0 0 .5 2.7Zm.2-2.6a.8.8 0 0 1 1.3-.4h.1a1.3 1.3 0 0 1 .3 1.6l-.1.2a.8.8 0 0 1-1.3.4 1.3 1.3 0 0 1-.4-1.6Z"/><path fill="#c7c7c7" d="M105.5 383.8a1.1 1.1 0 0 0 1.8-.4l.1-.4a1.7 1.7 0 0 0-.4-2v-.1a1.1 1.1 0 0 0-1.7.5l-.2.3a1.7 1.7 0 0 0 .4 2.1Zm0-2.3a.8.8 0 0 1 1.2-.3h.1a1.3 1.3 0 0 1 .3 1.6l-.1.2a.8.8 0 0 1-1.3.4 1.3 1.3 0 0 1-.4-1.6Z" opacity=".4"/><path fill="#dbdbdb" d="m107.4 378.9.1.1a1.4 1.4 0 0 0 2.2-.5l.3-.4a2.3 2.3 0 0 0-.4-2.7l-.1-.1a1.4 1.4 0 0 0-2.2.5l-.3.4a2.3 2.3 0 0 0 .4 2.7Zm.4-2.6a.8.8 0 0 1 1.3-.3 1.4 1.4 0 0 1 .3 1.7l-.2.2a.8.8 0 0 1-1.3.3 1.3 1.3 0 0 1-.3-1.7Z"/><path fill="#c7c7c7" d="M107.7 378.6h.1a1 1 0 0 0 1.7-.3l.2-.4a1.8 1.8 0 0 0-.3-2v-.1a1 1 0 0 0-1.8.3l-.2.3a1.8 1.8 0 0 0 .3 2.2Zm0-2.3a.8.8 0 0 1 1.4-.3 1.4 1.4 0 0 1 .3 1.7l-.2.2a.8.8 0 0 1-1.3.3 1.3 1.3 0 0 1-.3-1.7Z" opacity=".4"/><path fill="#dbdbdb" d="M110 374v.1a1.4 1.4 0 0 0 2.3 0l.3-.4a2.3 2.3 0 0 0 0-2.7l-.1-.1a1.4 1.4 0 0 0-2.2 0l-.4.3a2.3 2.3 0 0 0 0 2.8Zm.7-2.5a.8.8 0 0 1 1.3 0v.1a1.4 1.4 0 0 1 0 1.6l-.1.3a.8.8 0 0 1-1.3 0v-.1a1.4 1.4 0 0 1 0-1.6Z"/><path fill="#c7c7c7" d="M110.3 373.7v.1a1 1 0 0 0 1.8 0l.2-.3a1.8 1.8 0 0 0 0-2.1v-.1a1 1 0 0 0-1.8 0l-.2.3a1.8 1.8 0 0 0 0 2.1Zm.4-2.2a.8.8 0 0 1 1.3 0 1.4 1.4 0 0 1 0 1.7l-.1.3a.8.8 0 0 1-1.3 0v-.1a1.4 1.4 0 0 1 0-1.7Z" opacity=".4"/><path fill="#dbdbdb" d="M113.3 369.7v.1a1.4 1.4 0 0 0 2.2.5l.4-.3a2.2 2.2 0 0 0 .4-2.7v-.1a1.4 1.4 0 0 0-2.3-.5l-.3.3a2.2 2.2 0 0 0-.4 2.7Zm1-2.3a.8.8 0 0 1 1.3.3v.1a1.3 1.3 0 0 1-.2 1.6l-.2.2a.8.8 0 0 1-1.3-.3 1.3 1.3 0 0 1 .2-1.7Z"/><path fill="#c7c7c7" d="m113.6 369.5.1.1a1 1 0 0 0 1.7.4l.3-.2a1.8 1.8 0 0 0 .3-2.1v-.1a1 1 0 0 0-1.8-.4l-.3.2a1.8 1.8 0 0 0-.3 2.1Zm.7-2a.8.8 0 0 1 1.3.2v.1a1.3 1.3 0 0 1-.2 1.6l-.2.2a.8.8 0 0 1-1.3-.3 1.3 1.3 0 0 1 .2-1.7Z" opacity=".4"/><path fill="#dbdbdb" d="M117 366v.2a1.5 1.5 0 0 0 2 1l.5-.1a2.1 2.1 0 0 0 .9-2.6v-.1a1.5 1.5 0 0 0-2-1l-.5.1a2.1 2.1 0 0 0-.8 2.6Zm1.5-1.9a.9.9 0 0 1 1.3.7 1.3 1.3 0 0 1-.6 1.6h-.2a.9.9 0 0 1-1.2-.6 1.3 1.3 0 0 1 .5-1.6Z"/><path fill="#c7c7c7" d="M117.5 366v.1a1.2 1.2 0 0 0 1.6.8l.3-.1a1.7 1.7 0 0 0 .7-2v-.1a1.2 1.2 0 0 0-1.6-.9l-.3.2a1.7 1.7 0 0 0-.7 2Zm1-1.9a.9.9 0 0 1 1.2.7 1.3 1.3 0 0 1-.5 1.6l-.2.1a.9.9 0 0 1-1.3-.6v-.1a1.3 1.3 0 0 1 .6-1.5Z" opacity=".4"/><path fill="#dbdbdb" d="M121.7 363.6v.2a1.6 1.6 0 0 0 1.8 1.6l.5-.1a2 2 0 0 0 1.3-2.3v-.1a1.6 1.6 0 0 0-1.9-1.6h-.4a2 2 0 0 0-1.3 2.3Zm1.7-1.5a1 1 0 0 1 1.1 1 1.2 1.2 0 0 1-.7 1.4h-.3a1 1 0 0 1-1-.9 1.2 1.2 0 0 1 .7-1.4Z"/><path fill="#c7c7c7" d="M122.1 363.7a1.3 1.3 0 0 0 1.5 1.3h.3a1.5 1.5 0 0 0 1-1.8v-.1a1.3 1.3 0 0 0-1.4-1.3l-.4.1a1.5 1.5 0 0 0-1 1.8Zm1.3-1.6a1 1 0 0 1 1.1 1 1.2 1.2 0 0 1-.7 1.4h-.3a1 1 0 0 1-1-.9 1.2 1.2 0 0 1 .7-1.4Z" opacity=".4"/><path fill="#dbdbdb" d="M126.4 362.3v.1a1.6 1.6 0 0 0 1.8 1.6l.4-.1a2 2 0 0 0 1.3-2.3v-.1a1.6 1.6 0 0 0-1.8-1.6l-.5.1a2 2 0 0 0-1.2 2.3Zm1.7-1.6a1 1 0 0 1 1 1 1.2 1.2 0 0 1-.7 1.4h-.2a1 1 0 0 1-1.1-.9 1.2 1.2 0 0 1 .7-1.4Z"/><path fill="#c7c7c7" d="M126.8 362.3v.1a1.3 1.3 0 0 0 1.4 1.2h.3a1.5 1.5 0 0 0 1-1.8v-.1a1.3 1.3 0 0 0-1.4-1.3l-.3.1a1.5 1.5 0 0 0-1 1.8Zm1.3-1.6a1 1 0 0 1 1 1 1.2 1.2 0 0 1-.7 1.4h-.2a1 1 0 0 1-1.1-.9 1.2 1.2 0 0 1 .7-1.4Z" opacity=".4"/><path fill="#dbdbdb" d="M130.8 360.6v.2a1.6 1.6 0 0 0 2 1.3l.4-.1a2 2 0 0 0 1-2.4v-.2a1.6 1.6 0 0 0-2-1.3l-.3.1a2 2 0 0 0-1.1 2.4Zm1.6-1.7a1 1 0 0 1 1.1.8v.1a1.2 1.2 0 0 1-.6 1.4l-.3.1a1 1 0 0 1-1.1-.8 1.2 1.2 0 0 1 .6-1.5Z"/><path fill="#c7c7c7" d="M131.2 360.6v.1a1.2 1.2 0 0 0 1.5 1h.3a1.6 1.6 0 0 0 .9-2 1.2 1.2 0 0 0-1.5-1.1l-.4.1a1.6 1.6 0 0 0-.8 2Zm1.2-1.7a1 1 0 0 1 1.1.8v.1a1.2 1.2 0 0 1-.6 1.4l-.3.1a1 1 0 0 1-1.1-.8 1.2 1.2 0 0 1 .6-1.5Z" opacity=".4"/><path fill="#dbdbdb" d="M135.3 359v.2a1.5 1.5 0 0 0 2 1.1l.4-.2a2.1 2.1 0 0 0 .9-2.5v-.1a1.5 1.5 0 0 0-2-1.1l-.5.2a2.1 2.1 0 0 0-.8 2.5Zm1.4-1.8a.9.9 0 0 1 1.3.6v.1a1.3 1.3 0 0 1-.6 1.5l-.2.1a.9.9 0 0 1-1.2-.6v-.1a1.3 1.3 0 0 1 .5-1.5Z"/><path fill="#c7c7c7" d="M135.7 359v.1a1.2 1.2 0 0 0 1.6.9l.3-.1a1.6 1.6 0 0 0 .7-2v-.2a1.2 1.2 0 0 0-1.6-.8l-.3.1a1.6 1.6 0 0 0-.7 2Zm1-1.8a.9.9 0 0 1 1.3.7 1.3 1.3 0 0 1-.6 1.5l-.2.2a.9.9 0 0 1-1.2-.7v-.1a1.3 1.3 0 0 1 .5-1.5Z" opacity=".4"/><path fill="#dbdbdb" d="M139.7 357v.1a1.4 1.4 0 0 0 2.3.6l.3-.3a2.2 2.2 0 0 0 .5-2.7v-.1a1.4 1.4 0 0 0-2.2-.6l-.4.3a2.2 2.2 0 0 0-.5 2.7Zm1.1-2.2a.8.8 0 0 1 1.3.3 1.3 1.3 0 0 1-.2 1.7l-.2.2a.8.8 0 0 1-1.4-.4 1.3 1.3 0 0 1 .3-1.7Z"/><path fill="#c7c7c7" d="M140.1 356.8a1 1 0 0 0 1.8.5l.2-.2a1.7 1.7 0 0 0 .4-2v-.2a1 1 0 0 0-1.8-.4l-.2.2a1.8 1.8 0 0 0-.4 2Zm.7-2a.8.8 0 0 1 1.3.3 1.3 1.3 0 0 1-.2 1.7l-.2.1a.8.8 0 0 1-1.4-.3 1.3 1.3 0 0 1 .3-1.7Z" opacity=".4"/><path fill="#dbdbdb" d="M144 354.2h.1a1.4 1.4 0 0 0 2.3 0l.3-.4a2.3 2.3 0 0 0-.1-2.8h-.1a1.4 1.4 0 0 0-2.3 0l-.2.4a2.3 2.3 0 0 0 0 2.8Zm.7-2.5a.8.8 0 0 1 1.3-.1 1.4 1.4 0 0 1 .1 1.7l-.2.2a.8.8 0 0 1-1.3.1 1.4 1.4 0 0 1-.1-1.7Z"/><path fill="#c7c7c7" d="M144.4 353.9a1 1 0 0 0 1.8 0l.2-.3a1.8 1.8 0 0 0 0-2.2h-.1a1 1 0 0 0-1.8 0l-.2.4a1.8 1.8 0 0 0 0 2Zm.3-2.2a.8.8 0 0 1 1.3-.1 1.4 1.4 0 0 1 .1 1.7l-.2.2a.8.8 0 0 1-1.3.1 1.4 1.4 0 0 1-.1-1.7Z" opacity=".4"/><path fill="#dbdbdb" d="M147.5 350a1.4 1.4 0 0 0 2.3-.6l.2-.4a2.2 2.2 0 0 0-.5-2.7h-.1a1.4 1.4 0 0 0-2.2.6l-.2.5a2.2 2.2 0 0 0 .5 2.6Zm.2-2.6a.8.8 0 0 1 1.3-.4 1.3 1.3 0 0 1 .4 1.6l-.1.3a.8.8 0 0 1-1.3.4h-.1a1.3 1.3 0 0 1-.3-1.6Z"/><path fill="#c7c7c7" d="M147.8 349.7a1.1 1.1 0 0 0 1.7-.5l.2-.3a1.7 1.7 0 0 0-.4-2.1h-.1a1.1 1.1 0 0 0-1.7.4l-.2.4a1.7 1.7 0 0 0 .4 2Zm-.1-2.3a.8.8 0 0 1 1.3-.4 1.3 1.3 0 0 1 .4 1.6l-.1.3a.8.8 0 0 1-1.3.4h-.1a1.3 1.3 0 0 1-.3-1.6Z" opacity=".4"/><path fill="#dbdbdb" d="M149.7 345.1h.1a1.6 1.6 0 0 0 2-1.4v-.5a2 2 0 0 0-1-2.4h-.2a1.6 1.6 0 0 0-2 1.4v.5a2 2 0 0 0 1.1 2.4Zm-.4-2.6a1 1 0 0 1 1.1-.8h.1a1.2 1.2 0 0 1 .7 1.4v.3a1 1 0 0 1-1.2.8 1.2 1.2 0 0 1-.8-1.4Z"/><path fill="#c7c7c7" d="M149.9 344.6a1.2 1.2 0 0 0 1.6-1v-.5a1.6 1.6 0 0 0-.8-1.8h-.1a1.2 1.2 0 0 0-1.5 1.1l-.1.4a1.6 1.6 0 0 0 .9 1.8Zm-.6-2a1 1 0 0 1 1.1-1h.1a1.2 1.2 0 0 1 .7 1.5v.3a1 1 0 0 1-1.2.8 1.2 1.2 0 0 1-.8-1.4Z" opacity=".4"/><path fill="#dbdbdb" d="M96.1 352.2a9.5 9.5 0 0 0-2 3 .5.5 0 0 0 .3.7.7.7 0 0 0 .7-.4 8.5 8.5 0 0 1 1-1.8l.2-.2.2-.2.1-.2a.7.7 0 0 0 .2-.9.5.5 0 0 0-.8 0Z"/><path fill="#c7c7c7" d="M94.9 355.7a.6.6 0 0 1-.5.2.5.5 0 0 1-.3-.7 9.5 9.5 0 0 1 2-3 .6.6 0 0 1 .5-.2 9.4 9.4 0 0 0-2 3 .5.5 0 0 0 .3.7Z" opacity=".4"/><path fill="#dbdbdb" d="M92.8 356.7a9.2 9.2 0 0 0-2.4 2.6.6.6 0 0 0 0 .8.6.6 0 0 0 .8-.3 7.9 7.9 0 0 1 1.4-1.5l.1-.2h.1a1.8 1.8 0 0 1 .2-.2 1.1 1.1 0 0 1 .2-.1.8.8 0 0 0 .3-.9.5.5 0 0 0-.7-.2Z"/><path fill="#c7c7c7" d="M91 360a.5.5 0 0 1-.5 0 .6.6 0 0 1-.1-.7 9 9 0 0 1 2.4-2.6.5.5 0 0 1 .5 0 9 9 0 0 0-2.4 2.5.6.6 0 0 0 0 .8Z" opacity=".4"/><path fill="#dbdbdb" d="M89.6 361.3a8.8 8.8 0 0 0-1.6 3.1.6.6 0 0 0 .3.8c.3 0 .6-.2.7-.5a7.5 7.5 0 0 1 .8-1.9 1.4 1.4 0 0 1 0-.1s.2-.3 0-.1l.2-.2.2-.2a.7.7 0 0 0 0-1 .5.5 0 0 0-.7 0Z"/><path fill="#c7c7c7" d="M88.9 365a.5.5 0 0 1-.5.1.6.6 0 0 1-.4-.7 8.8 8.8 0 0 1 1.6-3.1.4.4 0 0 1 .4-.2 9 9 0 0 0-1.5 3.1.6.6 0 0 0 .3.8Z" opacity=".4"/><path fill="#dbdbdb" d="M87.6 367a9 9 0 0 0-.8 3.4.5.5 0 1 0 1 0 8.3 8.3 0 0 1 .3-2l.1-.1v-.1a2 2 0 0 1 .1-.3l.1-.2a.7.7 0 0 0-.2-.9.5.5 0 0 0-.7.2Z"/><path fill="#c7c7c7" d="M87.8 370.8a.5.5 0 0 1-.5.3.6.6 0 0 1-.5-.7 9 9 0 0 1 .8-3.4.5.5 0 0 1 .3-.3 9.3 9.3 0 0 0-.7 3.4.6.6 0 0 0 .5.7Z" opacity=".4"/><path fill="#dbdbdb" d="M86.4 373a9.3 9.3 0 0 0-.6 3.4.6.6 0 0 0 .6.6.6.6 0 0 0 .4-.7 7.9 7.9 0 0 1 .3-2v-.2s0-.2 0 0v-.3a2.4 2.4 0 0 1 .1-.3.7.7 0 0 0-.2-.8.5.5 0 0 0-.7.3Z"/><path fill="#c7c7c7" d="M86.8 376.7a.5.5 0 0 1-.4.3.6.6 0 0 1-.6-.6 9.3 9.3 0 0 1 .6-3.5.5.5 0 0 1 .3-.3 9.3 9.3 0 0 0-.5 3.5.6.6 0 0 0 .5.6Z" opacity=".4"/><path fill="#dbdbdb" d="M85.8 379a9.5 9.5 0 0 0 0 3.5.5.5 0 0 0 .7.4.7.7 0 0 0 .3-.7 8.3 8.3 0 0 1 0-2.1v-.2c0-.1 0-.3 0 0V379.2a.7.7 0 0 0-.5-.8.5.5 0 0 0-.6.4Z"/><path fill="#c7c7c7" d="M86.8 382.5a.6.6 0 0 1-.3.4.5.5 0 0 1-.7-.4 9.5 9.5 0 0 1 0-3.6.6.6 0 0 1 .3-.4 9.5 9.5 0 0 0 0 3.6.5.5 0 0 0 .7.4Z" opacity=".4"/><path fill="#dbdbdb" d="M86.4 385a9 9 0 0 0 .8 3.5.5.5 0 0 0 .7.1.7.7 0 0 0 .2-.8 7.1 7.1 0 0 1-.6-2 1.4 1.4 0 0 1 0-.2 2.7 2.7 0 0 1 0-.3v-.3c0-.3-.2-.6-.5-.6a.6.6 0 0 0-.5.7Z"/><path fill="#c7c7c7" d="M88.2 388.1a.7.7 0 0 1-.2.5.5.5 0 0 1-.8-.1 9 9 0 0 1-.8-3.4.7.7 0 0 1 .2-.5 9 9 0 0 0 .8 3.4.5.5 0 0 0 .7.1Z" opacity=".4"/><path fill="#dbdbdb" d="M88.2 391a7.4 7.4 0 0 0 2 2.7.5.5 0 0 0 .6-.2.7.7 0 0 0-.1-.9 6.5 6.5 0 0 1-1.2-1.5l-.1-.1-.1-.3a2.4 2.4 0 0 1-.1-.2.5.5 0 0 0-.7-.3.7.7 0 0 0-.2.8Z"/><path fill="#c7c7c7" d="M90.9 392.9a.7.7 0 0 1 0 .6.5.5 0 0 1-.8.1 7.4 7.4 0 0 1-1.8-2.6.7.7 0 0 1 0-.6 7.6 7.6 0 0 0 1.9 2.7.5.5 0 0 0 .7-.2Z" opacity=".4"/><path fill="#dbdbdb" d="M92.2 394.7a5.3 5.3 0 0 0 2.9.6.6.6 0 0 0 .4-.7.6.6 0 0 0-.6-.6 4.4 4.4 0 0 1-1.6-.2H93a1.4 1.4 0 0 1-.3-.1l-.2-.1a.5.5 0 0 0-.6.3.7.7 0 0 0 .2.9Z"/><path fill="#c7c7c7" d="M95.2 394.1a.6.6 0 0 1 .3.5.6.6 0 0 1-.5.7 5.3 5.3 0 0 1-2.8-.6.6.6 0 0 1-.3-.4 5.2 5.2 0 0 0 2.9.6.6.6 0 0 0 .4-.7.2.2 0 0 0 0-.1Z" opacity=".4"/><path fill="#dbdbdb" d="M97.1 394.3a5.8 5.8 0 0 0 2.7-1.4.8.8 0 0 0 0-.9.5.5 0 0 0-.7 0 5.3 5.3 0 0 1-1.5 1h-.4l-.2.1a.6.6 0 0 0-.4.7c0 .4.3.6.5.6Z"/><path fill="#c7c7c7" d="M99.4 391.8a.5.5 0 0 1 .4.2.8.8 0 0 1 0 .9 5.8 5.8 0 0 1-2.7 1.4.4.4 0 0 1-.4-.1 5.7 5.7 0 0 0 2.7-1.5.8.8 0 0 0 0-.9Z" opacity=".4"/><path fill="#dbdbdb" d="M101.5 391.3a7 7 0 0 0 2-2.5.7.7 0 0 0-.2-.9.5.5 0 0 0-.7.2 6.5 6.5 0 0 1-1.1 1.6l-.2.1-.2.3-.2.1a.7.7 0 0 0-.2.9.5.5 0 0 0 .7.2Z"/><path fill="#c7c7c7" d="M102.8 387.9a.4.4 0 0 1 .5 0 .7.7 0 0 1 .2.9 7 7 0 0 1-2 2.5.4.4 0 0 1-.5 0 7.2 7.2 0 0 0 2-2.6.7.7 0 0 0-.2-.8Z" opacity=".4"/><path fill="#dbdbdb" d="M104.6 386.5a8 8 0 0 0 1.6-2.9.7.7 0 0 0-.3-.8.5.5 0 0 0-.6.4 7 7 0 0 1-1 1.7v.2a1.6 1.6 0 0 1-.2.3l-.2.2a.8.8 0 0 0 0 .8.5.5 0 0 0 .7.1Z"/><path fill="#c7c7c7" d="M105.4 382.9a.4.4 0 0 1 .5-.1.7.7 0 0 1 .3.8 8 8 0 0 1-1.6 3 .4.4 0 0 1-.4 0 7.9 7.9 0 0 0 1.6-2.9.7.7 0 0 0-.3-.8Z" opacity=".4"/><path fill="#dbdbdb" d="M107.2 381.5a8.3 8.3 0 0 0 1.5-3 .7.7 0 0 0-.4-.8c-.3 0-.6.1-.6.5a7.2 7.2 0 0 1-.8 1.8l-.1.1s-.1.3 0 .1a1 1 0 0 1-.1.2 1.4 1.4 0 0 1-.2.2.7.7 0 0 0 0 1 .5.5 0 0 0 .7 0Z"/><path fill="#c7c7c7" d="M107.8 377.8a.4.4 0 0 1 .5 0 .7.7 0 0 1 .4.7 8.3 8.3 0 0 1-1.5 3 .4.4 0 0 1-.5.2 8.1 8.1 0 0 0 1.5-3 .7.7 0 0 0-.3-.8Z" opacity=".4"/><path fill="#dbdbdb" d="M109.5 376.5a7.6 7.6 0 0 0 1.8-2.8.7.7 0 0 0-.3-.9c-.3-.1-.6 0-.7.4a6.6 6.6 0 0 1-1 1.7.8.8 0 0 1 0 .1s-.2.2 0 0l-.3.3-.1.1a.8.8 0 0 0-.1 1 .5.5 0 0 0 .7 0Z"/><path fill="#c7c7c7" d="M110.5 372.9a.4.4 0 0 1 .5 0 .7.7 0 0 1 .3.8 7.6 7.6 0 0 1-1.8 2.8.4.4 0 0 1-.4 0 7.9 7.9 0 0 0 1.7-2.7.7.7 0 0 0-.2-.9Z" opacity=".4"/><path fill="#dbdbdb" d="M112.4 372a6.9 6.9 0 0 0 2.1-2.3.7.7 0 0 0-.1-.9.5.5 0 0 0-.7.2 6.3 6.3 0 0 1-1.2 1.5l-.1.1-.3.2-.2.2a.7.7 0 0 0-.2.8.5.5 0 0 0 .7.3Z"/><path fill="#c7c7c7" d="M114 368.8a.5.5 0 0 1 .4 0 .7.7 0 0 1 .1.9 6.9 6.9 0 0 1-2.1 2.3.4.4 0 0 1-.5 0 7 7 0 0 0 2.2-2.3.8.8 0 0 0-.2-1Z" opacity=".4"/><path fill="#dbdbdb" d="M116 368.1a6.1 6.1 0 0 0 2.4-1.8.8.8 0 0 0 0-.9.5.5 0 0 0-.7 0 5.5 5.5 0 0 1-1.4 1.2h-.2l-.2.2h-.2a.7.7 0 0 0-.4.8c.1.4.4.6.6.5Z"/><path fill="#c7c7c7" d="M118 365.3a.5.5 0 0 1 .4.1.8.8 0 0 1 0 1 6.1 6.1 0 0 1-2.5 1.7.4.4 0 0 1-.4 0 6 6 0 0 0 2.4-1.9.8.8 0 0 0 0-.9Z" opacity=".4"/><path fill="#dbdbdb" d="M120 365.5a5.3 5.3 0 0 0 2.8-1 .7.7 0 0 0 .1-1 .5.5 0 0 0-.7-.1 4.8 4.8 0 0 1-1.5.7h-.7a.6.6 0 0 0-.5.6c0 .4.2.7.5.6Z"/><path fill="#c7c7c7" d="M122.5 363.3a.5.5 0 0 1 .4.3.7.7 0 0 1-.2.9 5.3 5.3 0 0 1-2.7 1 .4.4 0 0 1-.4-.3 5.4 5.4 0 0 0 2.8-1 .7.7 0 0 0 .1-.8Z" opacity=".4"/><path fill="#dbdbdb" d="M124.7 363.8a5.4 5.4 0 0 0 2.8-1 .7.7 0 0 0 .2-.9.5.5 0 0 0-.7-.2 4.6 4.6 0 0 1-1.6.7h-.7a.6.6 0 0 0-.5.7c0 .3.3.6.5.6Z"/><path fill="#c7c7c7" d="M127.3 361.6a.5.5 0 0 1 .4.3.7.7 0 0 1-.2.9 5.4 5.4 0 0 1-2.8 1 .5.5 0 0 1-.4-.2 5.4 5.4 0 0 0 2.8-1 .7.7 0 0 0 .2-1Z" opacity=".4"/><path fill="#dbdbdb" d="M129.2 362.2a5.4 5.4 0 0 0 2.8-1 .7.7 0 0 0 .1-.9.5.5 0 0 0-.7-.2 4.6 4.6 0 0 1-1.5.7h-.7a.6.6 0 0 0-.5.6c0 .4.2.7.5.7Z"/><path fill="#c7c7c7" d="M131.7 360a.5.5 0 0 1 .4.3.7.7 0 0 1-.1.9 5.4 5.4 0 0 1-2.8 1 .5.5 0 0 1-.4-.3 5.5 5.5 0 0 0 2.8-1 .7.7 0 0 0 .1-.8.2.2 0 0 0 0-.1Z" opacity=".4"/><path fill="#dbdbdb" d="M133.7 360.5a5.6 5.6 0 0 0 2.7-1.1.8.8 0 0 0 .1-1 .5.5 0 0 0-.7 0 4.7 4.7 0 0 1-1.5.7h-.2l-.3.1h-.2a.6.6 0 0 0-.5.7c0 .3.3.6.6.6Z"/><path fill="#c7c7c7" d="M136.1 358.2a.5.5 0 0 1 .4.3.8.8 0 0 1 0 .9 5.6 5.6 0 0 1-2.8 1.1.5.5 0 0 1-.4-.2 5.5 5.5 0 0 0 2.7-1.2.8.8 0 0 0 .1-.8Z" opacity=".4"/><path fill="#dbdbdb" d="M138.2 358.6a5.7 5.7 0 0 0 2.7-1.4.8.8 0 0 0 0-1 .5.5 0 0 0-.7 0 5 5 0 0 1-1.5 1H138.1a.6.6 0 0 0-.5.8c0 .3.3.6.6.5Z"/><path fill="#c7c7c7" d="M140.5 356a.5.5 0 0 1 .4.3.8.8 0 0 1 0 .9 5.7 5.7 0 0 1-2.7 1.4.4.4 0 0 1-.4-.2 5.7 5.7 0 0 0 2.6-1.4.8.8 0 0 0 .1-.9Z" opacity=".4"/><path fill="#dbdbdb" d="M142.5 356a6.3 6.3 0 0 0 2.5-2 .8.8 0 0 0 0-.8.5.5 0 0 0-.8 0 5.7 5.7 0 0 1-1.3 1.3h-.2s-.1.1 0 0l-.2.1-.2.1a.7.7 0 0 0-.4.8c.1.4.4.6.7.5Z"/><path fill="#c7c7c7" d="M144.5 353a.4.4 0 0 1 .4.1.8.8 0 0 1 0 1 6.3 6.3 0 0 1-2.4 1.8.4.4 0 0 1-.4 0 6.3 6.3 0 0 0 2.4-2 .8.8 0 0 0 0-.8Z" opacity=".4"/><path fill="#dbdbdb" d="M146.4 352.1a7.3 7.3 0 0 0 2-2.6.7.7 0 0 0-.2-.8.5.5 0 0 0-.7.3 6.5 6.5 0 0 1-1 1.6h-.2v.1l-.2.2-.2.2a.7.7 0 0 0-.1.8.5.5 0 0 0 .7.2Z"/><path fill="#c7c7c7" d="M147.7 348.7a.4.4 0 0 1 .5 0 .7.7 0 0 1 .2.8 7.3 7.3 0 0 1-2 2.7.4.4 0 0 1-.4 0 7.3 7.3 0 0 0 2-2.6.7.7 0 0 0-.2-.9Z" opacity=".4"/><path fill="#dbdbdb" d="M149.4 347.6a8.8 8.8 0 0 0 1.1-3.3.6.6 0 0 0-.4-.7c-.3 0-.6.2-.6.5a7.8 7.8 0 0 1-.6 2v.1c0 .1-.2.3 0 .1l-.2.3a2.5 2.5 0 0 1-.1.2.8.8 0 0 0 0 .9.5.5 0 0 0 .8-.1Z"/><path fill="#c7c7c7" d="M149.6 343.8a.4.4 0 0 1 .5-.2.6.6 0 0 1 .4.7 8.8 8.8 0 0 1-1.1 3.3.5.5 0 0 1-.4.2 8.6 8.6 0 0 0 1.1-3.3.6.6 0 0 0-.4-.7Z" opacity=".4"/><path fill="#dbdbdb" d="M150.8 342a8.8 8.8 0 0 0 1.2-3.3.6.6 0 0 0-.5-.7.6.6 0 0 0-.5.6 7 7 0 0 1-.6 2s0 0 0 .1-.2.3 0 0l-.2.3a1.6 1.6 0 0 1-.1.3.8.8 0 0 0 0 .8.5.5 0 0 0 .8 0Z"/><path fill="#c7c7c7" d="M151 338.3a.5.5 0 0 1 .5-.2.6.6 0 0 1 .5.7 8.6 8.6 0 0 1-1.2 3.2.5.5 0 0 1-.4.3 8.7 8.7 0 0 0 1.2-3.3.6.6 0 0 0-.5-.7Z" opacity=".4"/><path fill="#eb9481" d="M283.9 230c-.7 11.7-8.8 22.3-43 54.3-4.8 4.4-41.1-14.7-39-21.2 2.8-8 29.7-33.7 31.8-35.2 17.1-12.3 50.6-6 50.2 2Z"/><path fill="#eb9481" d="M205.3 257.9s-11.9 15.7-15.5 26A69.4 69.4 0 0 0 187 317c2 12 15 39.7 23.6 37.4 7.8-2.1-7-29.8-7-29.8s10.4 30.7 19.3 26.4-10-35.4-10-35.4 11.4 31.3 19.9 25.4c6.4-4.5-9-33.6-9-33.6s9.8 26.8 16.6 22.5c7.6-4.7-5-32.5-5-32.5a45.4 45.4 0 0 0 17.3-36c.1-2.3-47.5-3.5-47.5-3.5Z"/><path fill="#263238" d="M199.5 314.3c1.1 3.6 2.2 7.3 3.6 10.8s3 7 4.6 10.4a61.6 61.6 0 0 0 8 12.6c-5-7.3-10.2-19.8-11.6-23.4l-4.4-10.5c0-.1-.2 0-.2 0ZM212.2 309c1.6 4.6 3 9.2 4.8 13.7s3.8 8.7 6 13c0 .4.2.2 0-.2l-5.1-13.1c-1.8-4.4-3.9-9-5.6-13.4 0-.2-.1-.1 0 0ZM222.3 302.5c2 7.1 5.4 13.9 8.9 20.4.2.3.3 0 .1-.3-3-6.7-5.5-12-8.8-20.2 0-.1-.3 0-.2 0ZM259.3 220.6a48.5 48.5 0 0 0-22 4.6c-7.7 3.7-24.4 22.4-28.6 28 0 .1 0 .3.1.2 6.6-6.4 19.6-21.4 29.6-27 3.9-2.2 13-5 21-5.6a.1.1 0 0 0-.1-.2Z"/><path fill="#eb9481" d="M136.8 251.8c-2.6 23.2-2.3 69.6 9.1 84.7 11 14.4 28.5-24.3 28.9-26.7 2.3-16.2-5-38-18.3-64.5-12-24.1-17.6-12.8-19.7 6.5Z"/><path fill="#d8b4a1" d="m132 307 42.8-23.1s-9.4-29.6-19.6-45.5c-7.8-12.2-15.2-8.7-17.4.6-7.2 31.3-5.8 68-5.8 68Z"/><path fill="#fff" d="m146.9 249.6 2.2 4.5-5.1-1.5-1.1 6.5-4.1-6.7-3.6.5.5-3.4.4-.4-.3-.3.7-3.6 1.6.3 3-5.9 2.5 5.1 6.3-1Zm12.4 29.2 4.4.9-1.8-4 2.9-2.5-4.4-1-.4-3.8-2.4 3.2-3.5-1.8 1.9 4.2-3.6 4 4.5-.5v3.6Z"/><path fill="#263238" d="M169.5 277.8c-6.8 3-25 12-36.2 19.3l.1.3a720.7 720.7 0 0 0 36.3-19.2c.2-.1 0-.5-.2-.4ZM175.3 283.7a321 321 0 0 0-5.8-15.7l-.6-3.3a22.4 22.4 0 0 0-1.4-4.2h-.1l.6 2 .5 2 .5 2.2c-1.4-3.6-3-7.2-4.7-10.7h-.1c1.2 4 2.6 8 4 11.8s4.5 12.2 6.2 15.8l-1.7 1.1a.2.2 0 0 0 .2.3l2.1-.9a.4.4 0 0 0 .3-.4Z"/><path fill="#263238" d="M131.1 308.6c-.1-1.1.3-26.8.9-31.3l-.3-3.4a22 22 0 0 1 .3-4.4l.4 5.4a94 94 0 0 1 1.3-11.3h.1c-.9 12.5-1.8 40.1-1.7 43.3.5-.2 4-2.2 4.7-2.4l-.1.4c-1.1.9-5.6 3.9-5.6 3.7Z"/><path fill="#eb9481" d="M147.3 337.4c-4.8-12.3 8.3-49.5 32.1-90 3.7-6.3 45 11 42.4 18.3a809.2 809.2 0 0 1-26.6 52.3c-11.8 20.5-44.6 27.8-47.8 19.4Z"/><path fill="#eb9481" d="M191.7 227.8c-2 2.3-3.3 1.2-2.8-4.2s6.6-26.6-1-28.2S172 224 172 233s3.2 23.8 3.2 23.8c2.9-5.5 10.9-18.2 16.5-29Z"/><path fill="#eb9481" d="M217.9 272.8c9.4-16.2 17.3-35 15.4-54.6a9.7 9.7 0 0 0-2.6-5.8c-.7-8.8-5-11.1-5-11.1-3.2-8-8-9.7-8-9.7s-1.5-7-6.5-6.4c-4.8.7-6.3 12.5-9.7 21.5-7.8 20.4-23.5 44.5-26.3 50.1Z"/><path fill="#263238" d="M209.6 231c2.1-6 4.4-12 5.8-18.3 1.4-7 1.7-13.9 2.1-21a.2.2 0 0 1 .3 0c1.3 13-2 28-8 39.4-.1.2-.3.2-.2-.1ZM221.2 237.4a103.4 103.4 0 0 0 4.4-36.1 66.8 66.8 0 0 1-4 36.2c-.2.4-.5.3-.4 0ZM227.6 240.8a104.6 104.6 0 0 0 3.2-28.4c1.2 12.7.2 17.5-2.9 28.6 0 .3-.4.2-.3-.2ZM148.4 316.9a231.9 231.9 0 0 1 26-61.7v.3a136.3 136.3 0 0 1-2.8-19c-.6-6.4 1-12.8 2.6-19 .9-3 1.9-6.1 3-9.1 1.9-4.4 3.6-9.2 7.4-12.4a4.2 4.2 0 0 1 6.7 1.5 15.8 15.8 0 0 1 1 7.3A95.2 95.2 0 0 1 190 219c-.4 1.9-1.7 8.8.2 9.5a11 11 0 0 0 2-2.6 141 141 0 0 0 8.5-17.1c2.3-5 5.1-26.1 12.8-23.4-7.7-2.6-10.1 18.6-12.4 23.5a137.8 137.8 0 0 1-8.3 17.3 9.3 9.3 0 0 1-2.3 3c-3.4.5-1.7-8.4-1.3-10.3 1-6.1 2.8-12.6 1.9-18.8-.4-3.2-3.1-5.7-6-3.4-3.6 3-5.3 7.8-7 12-1.2 3-2.1 6-3 9-1.6 6.2-3.2 12.4-2.7 18.7a136.5 136.5 0 0 0 2.8 18.9v.2l-.1.1a243 243 0 0 0-26.7 61.2Z"/><path fill="#263238" d="M136.8 304.5c1 8.7 4.2 30 12.3 34.3 5.7 2.6 12.4 1.4 18.2-.3a49 49 0 0 0 23.4-14.8c5.8-7.4 10-16 14.4-24.2a708.1 708.1 0 0 0 16.4-34 87.8 87.8 0 0 0 11.7-35.7 69.2 69.2 0 0 0 0-12.6 69.4 69.4 0 0 1 .2 12.6 86 86 0 0 1-11.2 36q-7.6 17.3-16.2 34.2c-4.4 8.3-8.7 16.9-14.6 24.3a50 50 0 0 1-23.8 15c-6 1.6-12.8 2.8-18.8 0-8.4-4.6-11.1-25.8-12-34.9Z"/></svg>