<svg xmlns="http://www.w3.org/2000/svg" viewBox="0 0 500 500"><ellipse cx="250" cy="344.1" fill="#f5f5f5" rx="239.8" ry="138.5"/><path fill="#e6e6e6" d="M147 243.4c-10.3 6-10.3 15.8 0 21.8s27 6 37.4 0 10.3-15.7 0-21.8-27-6-37.4 0ZM401 331.7l41.5-24a1 1 0 0 0 0-2L340 246.5a3.9 3.9 0 0 0-3.5 0L295 270.3a1 1 0 0 0 0 2l102.4 59.3a3.9 3.9 0 0 0 3.6 0Z"/><path fill="#e0e0e0" d="m176.5 433-152-87.7c-4.6-2.7-4.6-7 0-9.7L86.3 300a18.5 18.5 0 0 1 16.7 0l152 87.7c4.6 2.7 4.6 7 0 9.7L193.2 433a18.7 18.7 0 0 1-16.7 0Z"/><path fill="#fafafa" d="m94.3 83.7 1.7 1 33.7-19.5-1.6-1-33.8 19.5z"/><path fill="#fff" d="M128.1 64.2 96 82.8V49.1l32.1-18.5v33.6z"/><path fill="#f0f0f0" d="m132.8 24.3-40 23v42.8l40-23.1Zm-3 40.9L96 84.7V49.1l33.8-19.5Z"/><path fill="#e0e0e0" d="m129.7 65.2-1.6-1V30.6l1.6-1v35.6z"/><path fill="#fafafa" d="m132.8 24.3-1.7-1-39.9 23.1 1.6.9 40-23z"/><path fill="#e0e0e0" d="m91.2 46.4 1.6.9v42.8l-1.6-1V46.4z"/><g fill="#f0f0f0"><path d="M126.8 63.2 97.2 80.3v-8.5l7.4-17.1 4.6 4.2-1.6 7.2 10.2-21.9 9 10.5v8.5z"/><path d="M109 46.4a4.8 4.8 0 0 0-2.3 3.8c0 1.4 1 2 2.2 1.3a4.8 4.8 0 0 0 2.2-3.8c0-1.4-1-2-2.2-1.3Z"/></g><path fill="#fafafa" d="m41 123.3 1.7 1 33.7-19.5-1.6-1L41 123.3z"/><path fill="#fff" d="m74.8 103.8-32.1 18.6V88.7l32.1-18.5v33.6z"/><path fill="#f0f0f0" d="m79.5 63.9-40 23v42.8l40-23.1Zm-3 40.9-33.8 19.5V88.7l33.7-19.5Z"/><path fill="#e0e0e0" d="m76.4 104.8-1.6-1V70.2l1.6-1v35.6z"/><path fill="#fafafa" d="m79.6 63.9-1.7-1-40 23.1 1.7.9 40-23z"/><path fill="#e0e0e0" d="m37.9 86 1.7.9v42.8l-1.7-1V86z"/><g fill="#f0f0f0"><path d="m73.5 102.8-29.6 17.1v-8.5l7.4-17.1 4.7 4.2-1.7 7.2 10.2-21.9 9 10.5v8.5z"/><path d="M55.7 86a4.8 4.8 0 0 0-2.2 3.8c0 1.4 1 2 2.2 1.3a4.8 4.8 0 0 0 2.2-3.8c0-1.4-1-2-2.2-1.3Z"/></g><path fill="#fafafa" d="m443.1 170.1-2.7 1.6-98.4-57.1 2.6-1.6 98.5 57.1z"/><path fill="#fff" d="m344.6 113 95.8 55.6V87.3l-95.8-55.6V113z"/><path fill="#f0f0f0" d="M392.5 56.7v84.4l-5-2.9V53.8l5 2.9z"/><path fill="#e0e0e0" d="m394.9 55.2-2.4 1.5v84.4l2.4-1.4V55.2z"/><path fill="#f0f0f0" d="m337 117.5 108.4 62.8V84.4L337 21.6Zm5-87.3 98.5 57v84.5L342 114.6Z"/><path fill="#e0e0e0" d="m342 114.6 2.6-1.6V31.7l-2.6-1.5v84.4z"/><path fill="#fafafa" d="m337 21.6 2.7-1.6 108.4 62.9-2.7 1.5L337 21.6z"/><path fill="#e0e0e0" d="m448.1 82.9-2.7 1.5v95.9l2.7-1.5V82.9zM392.5 59.5l-5-2.8v2.9l5 2.8v-2.9z"/><path d="m392.5 62.4 2.4-1.4-2.4-1.5v2.9z" opacity=".1"/><path fill="#e0e0e0" d="m392.2 308.6 3.5 17.6 3.5 2 3.4-2 3.6-17.6-7-4.1-7 4.1z"/><path d="m392.2 308.6 3.5 17.6 3.5 2 3.4-2 3.6-17.6-7-4.1-7 4.1z" opacity=".1"/><path fill="#ebebeb" d="M399.2 328.2v-15.6l-7-4 3.5 17.6 3.5 2z"/><path d="m392.2 308.6 2.3 11.4 4.7 2.7 4.7-2.7 2.3-11.4-7-4.1-7 4.1z" opacity=".1"/><path fill="#e0e0e0" d="m423.1 290.7 3.5 17.7 3.5 2 3.4-2 3.6-17.7-7-4-7 4z"/><path d="m423.1 290.7 3.5 17.7 3.5 2 3.4-2 3.6-17.7-7-4-7 4z" opacity=".1"/><path fill="#ebebeb" d="M430.1 310.4v-15.6l-7-4.1 3.5 17.7 3.5 2z"/><path d="m423.1 290.7 2.3 11.4 4.7 2.8 4.7-2.7 2.3-11.5-7-4-7 4zM300.9 255.8l3.5 17.7 3.5 2 3.4-2 3.6-17.7-7-4-7 4z" opacity=".1"/><path fill="#ebebeb" d="M307.9 275.5v-15.6l-7-4.1 3.5 17.7 3.5 2z"/><path d="m300.9 255.8 2.3 11.4 4.7 2.8 4.7-2.7 2.3-11.5-7-4-7 4z" opacity=".1"/><path fill="#e0e0e0" d="m399.2 319.8 38.3-22V215l-38.3 22v82.8z"/><path fill="#ebebeb" d="m399.2 237-100.3-57.9v82.8l100.3 57.9V237z"/><path fill="#f5f5f5" d="M298.9 179.1 399.2 237l38.3-22-100.4-58-38.2 22.1z"/><path fill="#e0e0e0" d="m393.7 278.1-89.4-51.7v30.4l-1 .6 89.4 51.6 1-.6v-30.3z"/><path fill="#f5f5f5" d="M392.7 278.6 303.3 227v30.4l89.4 51.6v-30.4z"/><path fill="#e0e0e0" d="m349.8 259.6-7.5-4.3c-1-.6-1.7-.3-1.7.5a3.5 3.5 0 0 0 1.7 2.6l7.5 4.3c1 .6 1.7.3 1.7-.6a3.5 3.5 0 0 0-1.8-2.5ZM393.7 241.4l-89.4-51.6v30.3l-1 .6 89.4 51.6 1-.5v-30.4z"/><path fill="#f5f5f5" d="m392.7 241.9-89.4-51.6v30.4l89.4 51.6v-30.4z"/><path fill="#e0e0e0" d="m349.8 222.9-7.5-4.3c-1-.6-1.7-.3-1.7.6a3.5 3.5 0 0 0 1.7 2.5l7.5 4.3c1 .6 1.7.3 1.7-.5a3.5 3.5 0 0 0-1.7-2.6ZM324.3 167.7c-4.6 2.7-4.6 7 0 9.7s12.2 2.7 16.8 0 4.6-7 0-9.7-12.1-2.7-16.8 0Z"/><path fill="#ebebeb" d="M340.1 173.1c4-4 6.4-14.4 2.5-17.6h-20c-4 3.2-1.6 13.5 2.4 17.6a1.1 1.1 0 0 0 .1.1 1.9 1.9 0 0 0 .1.2 3.9 3.9 0 0 0 .4.3h.1a3.5 3.5 0 0 0 .3.3 4.1 4.1 0 0 0 .5.3 13.3 13.3 0 0 0 12 0 5.1 5.1 0 0 0 .6-.3l.2-.2.2-.1.3-.3.2-.2a.4.4 0 0 0 .1 0Z"/><path fill="#fafafa" d="M324.3 154.1c-4.6 2.7-4.6 7 0 9.6s12 2.6 16.5 0 4.6-7 0-9.6-12-2.6-16.5 0Z"/><path fill="#f5f5f5" d="M327.5 156c-2.8 1.6-2.8 4.2 0 5.8a11.2 11.2 0 0 0 10 0c2.9-1.6 2.9-4.2 0-5.8a11.1 11.1 0 0 0-10 0Z"/><path fill="#ebebeb" d="M337.6 158.8a11.1 11.1 0 0 0-10 0 4.6 4.6 0 0 0-1.8 1.5 4.6 4.6 0 0 0 1.7 1.5 11.2 11.2 0 0 0 10 0 4.6 4.6 0 0 0 1.8-1.5 4.6 4.6 0 0 0-1.7-1.5Z"/><path fill="#e0e0e0" d="M328.1 160.3a22.8 22.8 0 0 1-3.6-4.8c-1.7-3-2-7-1.1-7.5s4.4 3.5 4.4 3.5a21.6 21.6 0 0 1-.4-5.1c.2-2.6.8-5 1.6-5.5s2.4 2.8 3.1 5.2l1.2 4.5a37.5 37.5 0 0 1 1.3-5.6c.9-2.5 1.7-3.1 2.3-2.9s1 1.5 1.2 4.8a32.7 32.7 0 0 1-.1 4.8s1.2-1.4 2.6-2.7 2.2-1.7 2.6-1.4.6 2.6-1.8 6.8a24 24 0 0 1-4.4 5.9s-3.3 2.1-8.9 0Z"/><path fill="#fafafa" d="m394.1 219.3-1.4.7-27.6-15.9 1.4-.7 27.6 15.9z"/><path fill="#fff" d="m366.5 203.4 26.3 15.1 3.8-39.3-26.2-15.1-3.9 39.3z"/><path fill="#f0f0f0" d="m362.3 205.4 32.6 18.8 4.5-46.3-32.7-18.8Zm6.7-42 27.6 15.8-4 40.8-27.6-16Z"/><path fill="#e0e0e0" d="m365.1 204.1 1.4-.7 3.9-39.3-1.4-.8-3.9 40.8z"/><path fill="#fafafa" d="m366.8 159.1 1.5-.7 32.6 18.8-1.5.7-32.6-18.8z"/><path fill="#e0e0e0" d="m400.9 177.2-1.5.7-4.5 46.3 1.5-.7 4.5-46.3z"/><g fill="#f0f0f0"><path d="m367.7 202.6 24.2 14 .6-6.6-4.5-19.5-4.2 6.7.8 5.6-7.1-20.7-9.2 13.9-.6 6.6zM388.4 182.3a3.4 3.4 0 0 1 1.6 3c0 1.1-1 1.5-2 1a3.4 3.4 0 0 1-1.6-3c.1-1.1 1-1.5 2-1Z"/></g><path fill="#ebebeb" d="M150.7 257.8c-8-8.3-12.8-42.2-5-48.8h40c7.9 6.6 3.2 40.4-4.9 48.8l-.2.2-.3.3-.7.6-.2.2-.6.4a10.9 10.9 0 0 1-1 .7 26.3 26.3 0 0 1-24 0 12.4 12.4 0 0 1-1-.7l-.6-.4-.2-.2-.7-.6-.4-.3Z"/><path fill="#f5f5f5" d="M182.3 206.4c9 5.3 9 14 0 19.3s-24 5.3-33 0-9.2-14 0-19.3 23.8-5.4 33 0Z"/><path fill="#e0e0e0" d="M177.9 209c6.7 3.8 6.7 10.2 0 14s-17.6 4-24.3 0-6.7-10.2 0-14 17.6-4 24.3 0Z"/><path fill="#fafafa" d="M153.6 215.7c6.7-4 17.6-4 24.3 0a11.2 11.2 0 0 1 4 3.7 11.2 11.2 0 0 1-4 3.7c-6.7 4-17.6 4-24.3 0a11 11 0 0 1-4-3.7 11.1 11.1 0 0 1 4-3.8Z"/><path fill="#f0f0f0" d="m183.7 146.6-15.2 12 14.7-6.8a40.8 40.8 0 0 1-2.6 14 90.3 90.3 0 0 0-11.4 8l11.3-4.4s.7 7.4-2.4 18.7c-.8 3-4.1 8.6-6.2 12.9a48.9 48.9 0 0 1-3.3 5.6l-.2.4-8-4.3a82.4 82.4 0 0 1-5-21c-3.2-29.4 19-46.3 37-52 0 0-6.2 7.8-8.7 16.9Z"/><path fill="#fff" d="M171 147.8c-3.1 3.1-5 7.2-6.3 11.3A59.8 59.8 0 0 0 162 172a55.2 55.2 0 0 0 3.2 25.6.4.4 0 0 1-.2.5.4.4 0 0 1-.6-.2 55.9 55.9 0 0 1-2.8-26 59.5 59.5 0 0 1 2.9-12.7c1.4-4.1 3.3-8.2 6.5-11.3Z"/><path fill="#f5f5f5" d="M118 162a228 228 0 0 1 15.9 22.3l15.4 2.5-11.4 2 6.1 9.6 15.2 3.2-11.9 2s3.3 11.5 11.8 16.3c4.7 2.6 7 3 8.4 1.7 1-1 1.2-6.5 2-11.4s.9-13-3.8-22.7a30.5 30.5 0 0 0-4.9-7.1A66 66 0 0 0 118 162Z"/><path fill="#fff" d="M134 167a62.9 62.9 0 0 1 21.5 14.9 42.1 42.1 0 0 1 7.3 10.9 39.8 39.8 0 0 1 3.4 12.6 51.5 51.5 0 0 0-4-12.2 47.6 47.6 0 0 0-7-10.8 64 64 0 0 0-21-15.2l-.1-.1Z"/><path fill="#f0f0f0" d="M209.8 168.4a34 34 0 0 0-4 .2 62 62 0 0 0-14.8 3.6 67.2 67.2 0 0 0-7.9 3.6 43 43 0 0 0-11.4 8.5 27.1 27.1 0 0 0-3.9 5.5l-.4.8-.9 2a37.1 37.1 0 0 0-3.3 18.3c.1 4.4 1.6 9.4 2.5 10.3a2.5 2.5 0 0 0 .4.3c1.2.8 3.2.3 7-1.8 7.5-4.2 10.4-14.8 10.4-14.8l-10.4-1.8 13.4-2.7 5.4-8.5-10-1.8 13.7-2.1a199.2 199.2 0 0 1 14-19.6Z"/><path fill="#e6e6e6" d="M205.9 168.6a62 62 0 0 0-14.9 3.6 67.2 67.2 0 0 0-7.9 3.6 43 43 0 0 0-11.4 8.5 27.1 27.1 0 0 0-3.9 5.5l-.4.8-.9 2a37.1 37.1 0 0 0-3.3 18.3c.1 4.4 1.6 9.4 2.5 10.3a2.5 2.5 0 0 0 .4.3 2.5 2.5 0 0 0 .8.3 61 61 0 0 1 7.6-31.4c5.3-7.5 17.9-18.3 35.2-22a33.4 33.4 0 0 0-3.8.2Z"/><path fill="#fff" d="M166.9 221.8a58.9 58.9 0 0 1 1-15.2 49.2 49.2 0 0 1 5-14.4 42.9 42.9 0 0 1 10.2-11.3 57 57 0 0 1 13-7.9h.1a74.6 74.6 0 0 0-12.5 8.4 56 56 0 0 0-5.6 5.1 33.4 33.4 0 0 0-4.6 6 48.4 48.4 0 0 0-5.2 14 58.6 58.6 0 0 0-1.3 15.3Z"/><path fill="#fafafa" d="M179.4 417.4h11l-1.8 10.7a2 2 0 0 1-1 1.4 6 6 0 0 1-5.4 0 2 2 0 0 1-1-1.4ZM236.7 383.4h11l-1.8 10.8a2 2 0 0 1-1 1.3 5.9 5.9 0 0 1-5.4 0 2 2 0 0 1-1-1.3ZM31.9 332.2h11L41 343a2 2 0 0 1-1.1 1.3 5.9 5.9 0 0 1-5.3 0 2 2 0 0 1-1-1.3ZM89.2 298.3h11L98.4 309a2 2 0 0 1-1 1.3 5.9 5.9 0 0 1-5.4 0 2 2 0 0 1-1-1.3Z"/><path fill="#ebebeb" d="m96.6 264.5 2 1.1 17.2 29.3a21.2 21.2 0 0 0 6.6 6.6l125 72.2a3 3 0 0 1 1.7 2.4v7.1a3 3 0 0 1-1.7 2.4l-58.3 33.7a9.3 9.3 0 0 1-8.4 0l-148-85.5a9.3 9.3 0 0 1-4.3-7.3v-20a9.2 9.2 0 0 1 4.2-7.3l57.9-33.4c2.3-1.3 5-1.9 6.1-1.3Z"/><path fill="#e0e0e0" d="m34.5 308.2 14.6 25.2a21.4 21.4 0 0 0 6.6 6.6l125 72.2a9.3 9.3 0 0 0 8.3 0l58.4-33.7c2.3-1.3 2.3-3.5 0-4.8l-125-72.2a21.2 21.2 0 0 1-6.6-6.6L101 270a4.9 4.9 0 0 0-6.6-1.8l-58.1 33.5a4.8 4.8 0 0 0-1.8 6.6Z"/><path d="m34.5 308.2 14.6 25.2a21.4 21.4 0 0 0 6.6 6.6l125 72.2a9.3 9.3 0 0 0 8.3 0l58.4-33.7c2.3-1.3 2.3-3.5 0-4.8l-125-72.2a21.2 21.2 0 0 1-6.6-6.6L101 270a4.9 4.9 0 0 0-6.6-1.8l-58.1 33.5a4.8 4.8 0 0 0-1.8 6.6Z" opacity=".1"/><path fill="#f5f5f5" d="M184.9 413.2v7.1a8.6 8.6 0 0 0 4.2-1l58.3-33.6a3 3 0 0 0 1.7-2.5v-7a3 3 0 0 1-1.7 2.3L189 412.2a8.6 8.6 0 0 1-4.2 1Z"/><path fill="#ebebeb" d="M251.6 354.3v13a9.2 9.2 0 0 1-4.2 7.2L189 408.2a9.3 9.3 0 0 1-8.4 0l-121.4-70a21.9 21.9 0 0 1-6.6-6.6l-36.3-60.8a20.7 20.7 0 0 1-2.4-9v-15.3a9.2 9.2 0 0 1 4.2-7.2l58.3-33.7a4.8 4.8 0 0 1 6.6 1.8l15.4 31.1 21 31.9a30 30 0 0 0 4.4 5.3l121.3 70c4.5 2.7 6.4 6 6.4 8.6Z"/><path d="M184.9 386.6v22.6a8.5 8.5 0 0 0 4.2-1l58.3-33.7a9.2 9.2 0 0 0 4.2-7.2v-13a9.3 9.3 0 0 0-3.8-7c1.9 1.3 1.8 3.3-.4 4.5l-58.3 33.7a8.5 8.5 0 0 1-4.2 1Z" opacity=".1"/><path fill="#f5f5f5" d="M76.5 205.6 18 239.3a4.8 4.8 0 0 0-1.7 6.6l36.3 63a21.1 21.1 0 0 0 6.6 6.6l121.4 70a9.3 9.3 0 0 0 8.4 0l58.3-33.6c2.3-1.4 2.3-3.5 0-4.9a58.4 58.4 0 0 0-31.1-18 56 56 0 0 0-31.4-18c-8.4-11-19-17.1-31.4-18.2A48.4 48.4 0 0 0 126 277a21.3 21.3 0 0 1-6.6-6.6 56.4 56.4 0 0 0-21-31.9 55.9 55.9 0 0 0-15.3-31.1 4.8 4.8 0 0 0-6.6-1.8Z"/><path fill="#e0e0e0" d="M78.9 206a3.9 3.9 0 0 1 3.3 2h.1l.1.2c7.3 6.4 12 16.1 15.1 30.6l.1.3.3.2a55.3 55.3 0 0 1 20.6 31.4v.2a21.8 21.8 0 0 0 7 7h.4a47.2 47.2 0 0 1 26.9 15.6l.3.3h.3c12.2 1 22.5 7 30.7 17.7l.2.3h.4c13 3 22 8.2 30.9 18l.2.1.3.1c10.6 1.8 22 8.5 30.6 17.7h.1l.1.2c.8.4 1.3 1 1.3 1.5s-.5 1.2-1.3 1.6l-58.3 33.7a8.3 8.3 0 0 1-7.4 0l-121.4-70a20.5 20.5 0 0 1-6.2-6.3l-36.4-63a3.9 3.9 0 0 1 1.4-5.3L77 206.5a3.9 3.9 0 0 1 2-.6m0-1a4.8 4.8 0 0 0-2.5.7l-58.4 33.7a4.8 4.8 0 0 0-1.7 6.6l36.3 63a21.1 21.1 0 0 0 6.6 6.6l121.4 70a9.2 9.2 0 0 0 8.4 0l58.3-33.6c2.3-1.4 2.3-3.5 0-4.9a58.4 58.4 0 0 0-31.1-18 56 56 0 0 0-31.4-18c-8.4-11-19-17.1-31.4-18.2A48.4 48.4 0 0 0 126 277a21.3 21.3 0 0 1-6.6-6.6 56.4 56.4 0 0 0-21-31.9 55.9 55.9 0 0 0-15.3-31.1 4.8 4.8 0 0 0-4.2-2.4Z"/><path d="m18.1 239.3 58.4-33.7a4.8 4.8 0 0 1 6.6 1.8 56 56 0 0 1 15.4 31.1c11.8 9 17 18.8 21 31.9a19.9 19.9 0 0 0 3.2 4L56 312.9a19.9 19.9 0 0 1-3.3-4l-36.3-63a4.8 4.8 0 0 1 1.8-6.6Z" opacity=".1"/><path d="M66.5 236.1c2-.5 4-1 5.5-2.4a7.2 7.2 0 0 0 1.1-1.3 5.1 5.1 0 0 1 .9-1.3.8.8 0 0 1 .4-.2 7.4 7.4 0 0 0-1.5-3.7 12 12 0 0 0-1.3-1.8c-.4-.5-1-.9-1.3-1.4v-.3a3.6 3.6 0 0 1 2 1.1 11.1 11.1 0 0 1 2 2.3 9.5 9.5 0 0 1 1 2.2 5.5 5.5 0 0 1 .2 1 3.1 3.1 0 0 1 0 .5 1.6 1.6 0 0 1 .6-.3 12 12 0 0 0 3.4-1.5 8.4 8.4 0 0 0 3.7-4.4s.2 0 .1.1a7.6 7.6 0 0 1-.8 2 7.8 7.8 0 0 1-1.3 1.8 11.8 11.8 0 0 1-3.7 2.4 9.5 9.5 0 0 1-1.3.4 6.4 6.4 0 0 1 2.4 2.8 8.2 8.2 0 0 1 .8 5.1c0 .1-.1 0-.1 0a17 17 0 0 0-.4-2.2 11.1 11.1 0 0 0-1-2.3 6 6 0 0 0-2.8-2.9.3.3 0 0 1-.2-.4.8.8 0 0 1-.2 0 3.8 3.8 0 0 1-.7 1.4 8.9 8.9 0 0 1-1.5 1.6 8.7 8.7 0 0 1-2.4 1.4 9.8 9.8 0 0 1-1.8.5 6 6 0 0 1-1.7 0s-.1-.2 0-.2Z" opacity=".1"/><path fill="#e0e0e0" d="M73.7 232.5a2.6 2.6 0 1 1 3.3.6 2.4 2.4 0 0 1-3.3-.6Z"/><path d="M73.7 232.5a2.6 2.6 0 1 1 3.3.6 2.4 2.4 0 0 1-3.3-.6ZM146.8 307.3a10.6 10.6 0 0 0-4.7-3.3 12.3 12.3 0 0 0-2.1-.5 10.1 10.1 0 0 1-2-.2.6.6 0 0 1-.2-.3 13 13 0 0 0-4.5 2 15.8 15.8 0 0 0-1.9 1.4c-.5.4-.8 1-1.4 1.3 0 .1-.4.1-.4 0-.2-.5.4-1.2.9-1.7a12.3 12.3 0 0 1 2.4-2 15.3 15.3 0 0 1 2.5-1.1 11.4 11.4 0 0 1 1.2-.4 6.7 6.7 0 0 1 .7-.2 1.4 1.4 0 0 1-.5-.4 11 11 0 0 0-3-2 14 14 0 0 0-6.7-1.6c-.2 0 0-.1 0-.1a17.2 17.2 0 0 1 3 0 14 14 0 0 1 2.7.6 13.1 13.1 0 0 1 4 2 6.2 6.2 0 0 1 .9.9 7 7 0 0 1 3-2.5 17.2 17.2 0 0 1 6.4-1.8c.1 0 0 0 0 0l-2.8 1a18.8 18.8 0 0 0-2.7 1.2c-1.3.7-2.6 1.7-3 2.7 0 .2-.2.3-.4.3a.3.3 0 0 1 0 .1 7.6 7.6 0 0 1 2 .2 14.4 14.4 0 0 1 2.6.7 9 9 0 0 1 2.5 1.3 6.7 6.7 0 0 1 1 1.2 2.8 2.8 0 0 1 .6 1.2s-.1 0-.2 0Z" opacity=".1"/><path fill="#e0e0e0" d="M140 303.1a4.9 4.9 0 0 1-4.4 0c-1.3-.6-1.3-1.8-.1-2.5a5 5 0 0 1 4.4 0c1.3.7 1.3 1.8.1 2.5Z"/><path d="M113.6 326.5a10.6 10.6 0 0 0-4.6-3.4 12.4 12.4 0 0 0-2.1-.4 9.4 9.4 0 0 1-2-.3.6.6 0 0 1-.2-.2 13 13 0 0 0-4.5 2 17.4 17.4 0 0 0-2 1.3A18.8 18.8 0 0 1 97 327h-.5c0-.6.5-1.3 1-1.8a12.3 12.3 0 0 1 2.4-1.9 15.3 15.3 0 0 1 2.5-1.2 11.4 11.4 0 0 1 1.2-.4l.7-.2a1.3 1.3 0 0 1-.5-.3 10.8 10.8 0 0 0-3-2 14 14 0 0 0-6.7-1.7c-.1 0 0-.1 0-.1a17.1 17.1 0 0 1 3 0 14.7 14.7 0 0 1 2.7.6 13.3 13.3 0 0 1 4 2 6.8 6.8 0 0 1 1 .8 7.2 7.2 0 0 1 3-2.5 17.6 17.6 0 0 1 6.3-1.8c.2 0 .1 0 0 0l-2.7 1a20 20 0 0 0-2.8 1.2c-1.3.7-2.6 1.7-2.9 2.7a.5.5 0 0 1-.4.3.2.2 0 0 1 0 .2 8.5 8.5 0 0 1 2 .1 14.7 14.7 0 0 1 2.5.7 9 9 0 0 1 2.5 1.4 6 6 0 0 1 1 1.1 2.8 2.8 0 0 1 .6 1.3s-.1.1-.2 0Z" opacity=".1"/><path fill="#e0e0e0" d="M107 322.3a5 5 0 0 1-4.5 0c-1.3-.7-1.3-1.9-.1-2.6a5 5 0 0 1 4.4 0c1.3.8 1.3 1.9.1 2.6Z"/><path d="M178.1 325.5a10.6 10.6 0 0 0-4.6-3.4 12.3 12.3 0 0 0-2.1-.4 10.2 10.2 0 0 1-2-.3.6.6 0 0 1-.2-.2 12.9 12.9 0 0 0-4.5 2 15.1 15.1 0 0 0-2 1.3 18.8 18.8 0 0 1-1.3 1.3c0 .1-.4.2-.4 0-.2-.5.4-1.2.9-1.7a12.1 12.1 0 0 1 2.4-1.9 15.6 15.6 0 0 1 2.5-1.2 10.9 10.9 0 0 1 1.2-.4 6 6 0 0 1 .7-.2 1.4 1.4 0 0 1-.5-.4 10.8 10.8 0 0 0-3-2 14 14 0 0 0-6.8-1.6h.1a17.2 17.2 0 0 1 2.9 0 13.8 13.8 0 0 1 2.7.5 13.2 13.2 0 0 1 4.1 2 6.1 6.1 0 0 1 1 .9 7 7 0 0 1 3-2.5 17.1 17.1 0 0 1 6.3-1.8c.1 0 0 0 0 0l-2.8 1a19.8 19.8 0 0 0-2.7 1.2c-1.3.7-2.6 1.7-2.9 2.7a.5.5 0 0 1-.5.3.3.3 0 0 1 0 .2 7.5 7.5 0 0 1 2 .1 14.5 14.5 0 0 1 2.6.7 8.9 8.9 0 0 1 2.5 1.4 6.4 6.4 0 0 1 1 1.1 2.7 2.7 0 0 1 .6 1.3s-.1 0-.2 0Z" opacity=".1"/><path fill="#e0e0e0" d="M171.4 321.3a4.9 4.9 0 0 1-4.4 0c-1.2-.7-1.3-1.9 0-2.6a5 5 0 0 1 4.3 0c1.3.7 1.3 1.9.1 2.6Z"/><path d="M145 344.6a10.6 10.6 0 0 0-4.6-3.3 12.3 12.3 0 0 0-2.1-.5 9.6 9.6 0 0 1-2-.3.5.5 0 0 1-.2-.2 13 13 0 0 0-4.5 2 17.3 17.3 0 0 0-2 1.4l-1.3 1.3h-.5c-.1-.6.5-1.2 1-1.8a12.7 12.7 0 0 1 2.4-1.9 15.6 15.6 0 0 1 2.5-1.2 10.9 10.9 0 0 1 1.2-.4l.7-.1a1.3 1.3 0 0 1-.5-.4 10.8 10.8 0 0 0-3-2 14 14 0 0 0-6.8-1.7c-.1 0 0 0 0 0a17.2 17.2 0 0 1 3 0 14.6 14.6 0 0 1 2.7.5 13.4 13.4 0 0 1 4 2 7.5 7.5 0 0 1 1 .8 7 7 0 0 1 3-2.4 17.5 17.5 0 0 1 6.4-1.8c.1 0 0 0 0 0l-2.8 1a20.7 20.7 0 0 0-2.7 1.1c-1.3.8-2.6 1.8-3 2.8a.5.5 0 0 1-.4.3.2.2 0 0 1 0 .1 8.5 8.5 0 0 1 2 .2 14.5 14.5 0 0 1 2.6.7 8.9 8.9 0 0 1 2.5 1.3 6.3 6.3 0 0 1 1 1.2 2.8 2.8 0 0 1 .6 1.2s-.2.1-.2 0Z" opacity=".1"/><path fill="#e0e0e0" d="M138.3 340.4a5 5 0 0 1-4.4 0c-1.3-.7-1.3-1.8-.1-2.5a5 5 0 0 1 4.4 0c1.2.7 1.3 1.8 0 2.5Z"/><path d="M211.4 342.5a10.6 10.6 0 0 0-4.7-3.3 12.3 12.3 0 0 0-2-.5 9.6 9.6 0 0 1-2-.3.5.5 0 0 1-.3-.2 12.9 12.9 0 0 0-4.4 2 15 15 0 0 0-2 1.4l-1.3 1.3h-.5c-.1-.6.4-1.2 1-1.7a13.1 13.1 0 0 1 2.4-2 15.6 15.6 0 0 1 2.5-1.2 11.6 11.6 0 0 1 1.2-.4 6.6 6.6 0 0 1 .6-.1 1.5 1.5 0 0 1-.5-.4 10.6 10.6 0 0 0-3-2 14 14 0 0 0-6.7-1.6c-.1 0 0-.1 0-.1a17.2 17.2 0 0 1 3 0 13.7 13.7 0 0 1 2.7.6 13.2 13.2 0 0 1 4 2 6.7 6.7 0 0 1 1 .8 7 7 0 0 1 3-2.4 17.5 17.5 0 0 1 6.4-1.8l-2.8 1a19.4 19.4 0 0 0-2.7 1.1c-1.4.8-2.6 1.7-3 2.8a.5.5 0 0 1-.4.3.3.3 0 0 1 0 .1 7.5 7.5 0 0 1 2 .2 13.7 13.7 0 0 1 2.5.7 8.6 8.6 0 0 1 2.5 1.3 6 6 0 0 1 1.1 1.2 2.7 2.7 0 0 1 .5 1.2s0 0-.1 0Z" opacity=".1"/><path fill="#e0e0e0" d="M204.7 338.3a4.9 4.9 0 0 1-4.4 0c-1.3-.7-1.3-1.8-.1-2.5a4.9 4.9 0 0 1 4.4 0c1.2.7 1.3 1.8 0 2.5Z"/><path d="M178.3 361.6a10.5 10.5 0 0 0-4.7-3.3 12.3 12.3 0 0 0-2-.5 10.3 10.3 0 0 1-2-.2.6.6 0 0 1-.3-.3 13.2 13.2 0 0 0-4.5 2 16 16 0 0 0-1.9 1.4c-.5.4-.8.9-1.4 1.3 0 0-.4.1-.4 0-.2-.6.4-1.2.9-1.7a12.7 12.7 0 0 1 2.4-2 15.6 15.6 0 0 1 2.5-1.2 11.6 11.6 0 0 1 1.2-.4 6.6 6.6 0 0 1 .7-.1 1.4 1.4 0 0 1-.5-.4 10.9 10.9 0 0 0-3-2 14 14 0 0 0-6.7-1.6c-.1 0 0-.1 0-.1a17.2 17.2 0 0 1 3 0 13.7 13.7 0 0 1 2.7.6 13.4 13.4 0 0 1 4 2 6.8 6.8 0 0 1 1 .8 7 7 0 0 1 3-2.4 17.1 17.1 0 0 1 6.4-1.8c-1 .3-2 .6-2.8 1a19.4 19.4 0 0 0-2.7 1.1c-1.4.8-2.6 1.7-3 2.8a.5.5 0 0 1-.4.3.3.3 0 0 1 0 .1 7.5 7.5 0 0 1 2 .2 14.5 14.5 0 0 1 2.5.6 8.9 8.9 0 0 1 2.5 1.4 6.4 6.4 0 0 1 1.1 1.2 2.7 2.7 0 0 1 .5 1.2s-.1 0-.2 0Z" opacity=".1"/><path fill="#e0e0e0" d="M171.6 357.4a5 5 0 0 1-4.5 0c-1.2-.6-1.3-1.8 0-2.5a5 5 0 0 1 4.3 0c1.3.7 1.3 1.8.2 2.5Z"/><path d="M30.8 256.4c2-.5 4-1 5.5-2.4a6.9 6.9 0 0 0 1-1.3 4.7 4.7 0 0 1 1-1.3.7.7 0 0 1 .3-.2 7.5 7.5 0 0 0-1.4-3.7 13.4 13.4 0 0 0-1.4-1.8c-.4-.5-1-.9-1.3-1.4l.1-.3a3.6 3.6 0 0 1 2 1.1 10.8 10.8 0 0 1 1.9 2.3 9 9 0 0 1 1 2.2 4.8 4.8 0 0 1 .2 1 3.1 3.1 0 0 1 0 .5 1.5 1.5 0 0 1 .6-.3 12.3 12.3 0 0 0 3.4-1.5 8.4 8.4 0 0 0 3.8-4.4h.1a7.5 7.5 0 0 1-.8 2.1 7.8 7.8 0 0 1-1.3 1.9 11.7 11.7 0 0 1-3.7 2.3 8.1 8.1 0 0 1-1.3.4 6.5 6.5 0 0 1 2.4 2.9 8.3 8.3 0 0 1 .8 5c0 .2-.1 0-.1 0a18.8 18.8 0 0 0-.5-2.2 11.1 11.1 0 0 0-.9-2.3 6 6 0 0 0-2.8-2.8.3.3 0 0 1-.2-.4.8.8 0 0 1-.3 0 3.6 3.6 0 0 1-.7 1.3 8.9 8.9 0 0 1-1.5 1.7 8 8 0 0 1-2.4 1.4 9.6 9.6 0 0 1-1.7.4 6 6 0 0 1-1.8 0v-.2Z" opacity=".1"/><path fill="#e0e0e0" d="M37.9 252.8a2.6 2.6 0 1 1 3.3.6 2.4 2.4 0 0 1-3.3-.6Z"/><path d="M37.9 252.8a2.6 2.6 0 1 1 3.3.6 2.4 2.4 0 0 1-3.3-.6ZM84.6 266.2c2-.5 4-1 5.5-2.4a6.5 6.5 0 0 0 1.1-1.4 5 5 0 0 1 .8-1.3.8.8 0 0 1 .4-.1 7.5 7.5 0 0 0-1.4-3.8 13.4 13.4 0 0 0-1.3-1.8 17.3 17.3 0 0 1-1.4-1.3c0-.1 0-.4.2-.4a3.6 3.6 0 0 1 2 1.2 11.5 11.5 0 0 1 1.8 2.3 9.8 9.8 0 0 1 1 2.1 5.5 5.5 0 0 1 .2 1 3.1 3.1 0 0 1 0 .5 1.7 1.7 0 0 1 .7-.2 12 12 0 0 0 3.3-1.6 8.4 8.4 0 0 0 3.8-4.4l.1.1a8 8 0 0 1-.8 2 7.8 7.8 0 0 1-1.4 1.8 11.6 11.6 0 0 1-3.6 2.4 8.1 8.1 0 0 1-1.3.4 6.4 6.4 0 0 1 2.4 2.8 8.3 8.3 0 0 1 .7 5.1c0 .1 0 0 0 0a18.8 18.8 0 0 0-.5-2.2 11.1 11.1 0 0 0-.9-2.3 6 6 0 0 0-2.8-2.9c-.2 0-.3-.2-.2-.4a.8.8 0 0 1-.3 0 3.6 3.6 0 0 1-.7 1.4 8.9 8.9 0 0 1-1.5 1.6 8 8 0 0 1-2.4 1.4 9.6 9.6 0 0 1-1.7.5 6 6 0 0 1-1.8 0v-.1Z" opacity=".1"/><path fill="#e0e0e0" d="M91.7 262.5a2.6 2.6 0 1 1 3.3.7 2.4 2.4 0 0 1-3.3-.7Z"/><path d="M91.7 262.5a2.6 2.6 0 1 1 3.3.7 2.4 2.4 0 0 1-3.3-.7ZM49.3 286.9c2-.6 4-1 5.5-2.4a6.5 6.5 0 0 0 1.1-1.4 4.8 4.8 0 0 1 .9-1.3.8.8 0 0 1 .4-.1 7.5 7.5 0 0 0-1.5-3.8 12.7 12.7 0 0 0-1.3-1.8l-1.4-1.3c0-.1 0-.4.2-.4a3.6 3.6 0 0 1 2 1.2 11 11 0 0 1 1.8 2.3 9.7 9.7 0 0 1 1 2.1 5.4 5.4 0 0 1 .2 1 3 3 0 0 1 0 .5 1.6 1.6 0 0 1 .6-.2 11.7 11.7 0 0 0 3.4-1.6 8.3 8.3 0 0 0 3.8-4.4l.1.1a8.9 8.9 0 0 1-2.1 3.9 11.6 11.6 0 0 1-3.7 2.3 8.2 8.2 0 0 1-1.3.5 6.4 6.4 0 0 1 2.5 2.8 8.3 8.3 0 0 1 .7 5c0 .2 0 0-.1 0a18.6 18.6 0 0 0-.4-2.1 11.1 11.1 0 0 0-1-2.3 6 6 0 0 0-2.7-3 .3.3 0 0 1-.3-.3.4.4 0 0 1-.2 0 3.6 3.6 0 0 1-.7 1.4 8.6 8.6 0 0 1-1.5 1.6 8.2 8.2 0 0 1-2.4 1.4 9.6 9.6 0 0 1-1.8.5 6 6 0 0 1-1.7 0c-.1-.1-.1-.2 0-.2Z" opacity=".1"/><path fill="#e0e0e0" d="M56.4 283.2a2.6 2.6 0 1 1 3.3.7 2.4 2.4 0 0 1-3.3-.7Z"/><path d="M56.4 283.2a2.6 2.6 0 1 1 3.3.7 2.4 2.4 0 0 1-3.3-.7Z" opacity=".1"/><path fill="#e0e0e0" d="M216 455.7h1.3a16 16 0 0 1 3.3.7c2.5.6 5.2-.3 7.6-1l7-2.4c2.6-.9 6.8-3 9.5-2.8 2.2.2 3 .8 5.5 2.4 1.8 1 8.3 5.7 15.1 10.5 7.3 5 16 9.8 25.2 9.5 7.9-.3 16.2-6.6 22-12.6 5.5 2.9 14.3-3.6 22-8.6 11.7-7.5 14.9-10.2 23-15 7-4.1 11-6.3 15.4-8.7a30.5 30.5 0 0 1 10.6-2.8l9-.4c3.6-.2 5.6-1.3 6.4-2.8 1.4-2.5-2.5-4.3-3.7-4.8a29.5 29.5 0 0 0-6.2-1.8 48.6 48.6 0 0 0-17.2-.6 89 89 0 0 0-16.8 4.7c-10 3.5-19.5 8.4-29.6 11.7-5 1.6-10.5 2.8-15.3.8-5.5-2.3-8.7-8.2-13.8-11.2-6-3.7-13.6-3-20.5-1.8a125.5 125.5 0 0 0-18.3 4.2 68.1 68.1 0 0 0-8.7 3.5c-1.4.6-2.8 1.4-4.1 2.1l-3.8 1.8c-4 2.1-7.4 5.4-11.3 7.9-8 5-18.2 5.3-25.8 11.4-1 .8-1.7 1.5-1 3a6.5 6.5 0 0 0 4 3 15.8 15.8 0 0 0 6.8.4l2.5-.3Z"/><path fill="#455a64" d="M244.8 416.6c-2.1 8.6-1.5 19.7 10.6 31a98.9 98.9 0 0 0 25.8 19c4.6 2.1 11.7 3.4 22.2-4.2a53 53 0 0 0 12.5-12.5l-29-45.4Z"/><path fill="#37474f" d="M287.3 417.6a19 19 0 0 1-7 12c-3.2-1-8-2.8-16.5-.2 9.6-.7 15.4 2 15.4 2s8 12.5 16.5 18.2c5.4 3.7 11 6.1 14.8 6.7a47 47 0 0 0 5.3-6.4l-7-11.2-4.2-4.5Z"/><path fill="#ffbda7" d="M283 431.1c5.8 7.5 17.4 18.6 23.8 21.6s10 .9 17.3-2.4c5.5-2.4 24.8-15.3 33.5-20.3s12-7 17.7-8 11-1 15.1-3.7.3-6.8-5.6-7.2-10.2-.1-16.2-2.2-8.9-.8-10 .7-1 4.9-5 6.9-16.3 3.8-22.1 6-14 8.6-14 8.6c-8.6-8-15.7-19.1-30-27.8 3 13.3 1.6 23.3-4.5 27.8Z"/><path fill="#455a64" d="M287.5 403.3c3.1 1.3 9.7 6.5 18.2 14.3 9.1 8.3 12.4 10.5 12.4 10.5a35.4 35.4 0 0 1 5.8-3.5 96.5 96.5 0 0 1 20.8-5.6c6.4 1.9 8.7 9 7.8 14-3.8 2.4-17.3 11.8-25.1 16.4s-13.3 6.2-18.5 4.7-14.3-7.4-19.6-13.6c-5.6-6.6-7.3-9.8-7.3-9.8a16.4 16.4 0 0 0 5.3-13 100.2 100.2 0 0 1 .2-14.4Z"/><path fill="#263238" d="M358.2 407c.4-2.1 1.3-2.4 4-2.5s7 1.7 10 2.5 7.3-.3 11.2 0 9.8 1 12.9 4.5 2.3 5.9 1 7.3Z"/><path fill="#37474f" d="m355.5 413.8-.3.8a.8.8 0 0 0 0 .6c.1.3.4.3.7.3a19.1 19.1 0 0 1 4.8 1.1l2.7 1.2a7.8 7.8 0 0 0 1.5.5h1.4a.8.8 0 0 1 .4.2.7.7 0 0 1 .2.5c-.1.8-.8 1.3-1 2a2.4 2.4 0 0 0-.2.9 4.3 4.3 0 0 0 1.3 2.6 2 2 0 0 0 1.6.8 2.5 2.5 0 0 0 .8-.3 18 18 0 0 1 3.6-1.7 38.8 38.8 0 0 1 3.8-.8c3.4-.6 6.7-.8 10-1a53 53 0 0 0 7.4-.8 4 4 0 0 0 3.2-2.6c.4-1.9-.6-3.8-2-5a17.5 17.5 0 0 0-12.3-4.8c-6.5-.2-7.9 1.3-14.3-1-5.7-2-8.9-1.5-10.2-.5a5.6 5.6 0 0 0-2 3.3c-.2 1.2-.7 2.4-1.1 3.7Z"/><path fill="#fafafa" d="M377.1 422.2a3.5 3.5 0 0 1-.6-1.1 5 5 0 0 1-.5-1.5 9 9 0 0 1 0-1.5 2.3 2.3 0 0 0 0-1.1.4.4 0 0 0-.7-.2 1.2 1.2 0 0 0-.3.6 5.6 5.6 0 0 0 .1 3 6 6 0 0 0 .9 2c.2.3.3.5.6.6a1.4 1.4 0 0 0 1-.2.6.6 0 0 0 .2 0 .2.2 0 0 0 0-.3l-.2-.1a1 1 0 0 1-.5-.2ZM373.2 423a3.6 3.6 0 0 1-.7-1.2 5.4 5.4 0 0 1-.4-1.5 8.2 8.2 0 0 1 0-1.5 2.4 2.4 0 0 0 0-1 .4.4 0 0 0-.8-.3 1.2 1.2 0 0 0-.3.6 5.7 5.7 0 0 0 .1 3 6.4 6.4 0 0 0 1 2c.1.3.2.5.6.6a1.4 1.4 0 0 0 1-.2.5.5 0 0 0 .1 0 .2.2 0 0 0 0-.3l-.2-.1a.9.9 0 0 1-.4-.2ZM381.2 421.7a3.6 3.6 0 0 1-.7-1.1 4.8 4.8 0 0 1-.4-1.5 8.1 8.1 0 0 1 0-1.6 2.5 2.5 0 0 0 0-1 .4.4 0 0 0-.8-.2 1.2 1.2 0 0 0-.3.6 5.6 5.6 0 0 0 .1 3 6.2 6.2 0 0 0 1 2c.1.3.2.5.6.6a1.5 1.5 0 0 0 1-.2.6.6 0 0 0 .1-.1.2.2 0 0 0 0-.2.5.5 0 0 0-.2-.2 1 1 0 0 1-.4-.1ZM384.6 421.4a3.6 3.6 0 0 1-.7-1.1 4.8 4.8 0 0 1-.4-1.5 8.2 8.2 0 0 1 0-1.6 2.3 2.3 0 0 0 0-1 .4.4 0 0 0-.8-.2 1.2 1.2 0 0 0-.3.6 5.5 5.5 0 0 0 .1 3 6.4 6.4 0 0 0 1 2c.1.3.2.5.6.6a1.4 1.4 0 0 0 1-.2.5.5 0 0 0 .1-.1.2.2 0 0 0 0-.2l-.2-.2a1 1 0 0 1-.4-.1ZM387.4 421.4c-2.1-2.8-4-9.8-.2-12.7 3 .2 8 3 9.6 5.3s1.4 5-1 6.5-8.4.9-8.4.9Z"/><path fill="#ffbda7" d="M275.5 356.6c8.7 0 11.9 2.7 15.4 10.8 3 7 6.3 19 8 26.5 1.5 6.1-6.2 15.4-9.1 13.7s-8.6-16.8-9-22.2-5.3-28.8-5.3-28.8Z"/><path fill="#d8b4a1" d="M291.9 406s-2.2 10.4-17.7 15.1-30.3-.2-30.3-.2c.8-7 1.5-11 2.5-16.7a31.8 31.8 0 0 0-.5-13.9 213 213 0 0 1-4.1-16.7c-.8-3.5-3.3-13 3.1-14.9l9.8-2.4 15-.1a39.2 39.2 0 0 1 5.8.4c3.2.6 6.2 4.3 13 14.3 3.3 4.9 5.8 13.5-2 19.1l.8 8.9a68.4 68.4 0 0 1 4.6 7Z"/><path d="M275.6 387.7a10.3 10.3 0 0 1-10 5.1 10.9 10.9 0 0 1-9-6s0 7.6 9 7.9 10-7 10-7Z" opacity=".2"/><path fill="#ffbda7" d="M244.6 358.8c-9.7 1.8-11.7 8.5-13.3 15.7s-3.4 26.5-4.6 33.5c-1.5 9.5-2.7 28.6-4.2 30s-9.4 3.8-11.5 5.4a58 58 0 0 0-6.1 5.8c-.7.8-.8 2.4 2.6 3.4 3.7 1.1 5.3 1.6 8.3-.2l4.2-2.5a15.3 15.3 0 0 1 5.8-2c1.3.2-.8 1.9-2.3 3-1.2.9-2 2.4-1.3 3.4.5.9 3.5-1 5.7-1.9a10 10 0 0 0 5.7-7.4c.3-3.7 1-6.4 2.2-12.8s4.2-15.5 5-21.3c1.3-8.1 6.6-28.5 6.6-28.5a36.5 36.5 0 0 0-2.8-23.6Z"/><path fill="#263238" d="M285.9 319.8c-1.8-3-5.1-4.1-7-3.3-1.7-2.5-5-4-8-4.4-11-1.4-15 3.8-15.7 5.8-5.3.4-9.6 8-7.1 19 1 4.8 6.3 10.8 6.6 13.3l6.7-1.2a12.5 12.5 0 0 1 8.7-9.9 41.4 41.4 0 0 0 13.5-5.6 11.3 11.3 0 0 0 2.3-13.8Z"/><path fill="#263238" d="M254.5 309.9c-3 .2-4.9 1.6-5.6 4.4a8.6 8.6 0 0 0-7.6 1.6 6.4 6.4 0 0 0-2 5c0 1.8.8 2.8 1.8 4a4.2 4.2 0 0 0-2.6 5c.2 1.3 4.6 6.1.8 6.3 1.7 1.3 4.6.4 4.5-1.9a5.2 5.2 0 0 0 4.7 5.6 8 8 0 0 0 8.9-5.5l3.2-20.4c-.6-2.7-3.2-4.3-6-4.1Z"/><path fill="#ffbda7" d="M284 328.2a30.3 30.3 0 0 1 .2 3.7 58.7 58.7 0 0 1-.2 7.4c-1 8.7-3.8 11.3-6.2 12.2a13.3 13.3 0 0 1-7.5.2v5.3s6 6.4-1.2 8a12.6 12.6 0 0 1-10.4-2.7 14.6 14.6 0 0 1-4-5.5v-12.2a4.5 4.5 0 0 1-5.4-1.6c-2.2-2.7-2.4-6-.3-8s5.8-1.5 7.5 1.5c1.1 2.2 2.3.7 2.4-1.8s2.1-3.2 3-4.4c3-4.2 1.2-5.6 4-8 1.5-1.3 5.6-1.6 8.5.9 3.8-2.9 8.5-1.2 9.5 5Z"/><path fill="#263238" d="m279.4 328.4 2.4 2.3a1.6 1.6 0 0 1-2.3 0 1.7 1.7 0 0 1-.1-2.3ZM265.4 331.5l2.6-2a1.6 1.6 0 0 1-.2 2.2 1.7 1.7 0 0 1-2.4-.2Z"/><path fill="#f0997a" d="m273.4 331.2 1.2 10 5.1-2-6.3-8zM270.3 351.7c-6.6-1.8-10.9-4.8-12-7.5a6.9 6.9 0 0 0 2.8 5.6 33 33 0 0 0 9.2 3.7Z"/><circle cx="269" cy="334.4" r="1.3" fill="#263238"/><path fill="#b16668" d="M272.7 343.8a.8.8 0 0 1-1.5 0 .8.8 0 1 1 1.5 0Z"/><circle cx="279.3" cy="333.6" r="1.3" fill="#263238"/><path fill="#ffbda7" d="M263.5 418.2a13.3 13.3 0 0 1-2-.6 3 3 0 0 1-1.4-1.2 1 1 0 0 1-.1-.8 1 1 0 0 1 .8-.5 3.2 3.2 0 0 1 1 .1c2.4.5 4.8-.2 7.2 0a13.8 13.8 0 0 0 3.2.4 7.6 7.6 0 0 0 2.8-1 32.3 32.3 0 0 0 4.1-3.3l3.9-3.8 6.2-6 9.8-7.6c3 11.9 3 12.8 0 16.5-3.2 4-15.3 13-21.7 15.9s-12.7 4.5-18.2 3.9-6.3-5.5-7.5-6.5-2.9-5.3.4-4.4a25.7 25.7 0 0 0 6.4.9 11.7 11.7 0 0 0 6-1.1.6.6 0 0 0 .3-.4c.2-.5-1-.4-1.2-.5Z"/><path fill="#f0997a" d="M289.1 401.5a9.3 9.3 0 0 1 8-2.4c-1.4-1.2-5.2-1.6-9 .8Z"/><path fill="#d8b4a1" d="M307.7 314.1a10.7 10.7 0 0 1 2.3 2 8.2 8.2 0 0 1 1.4 2.5 6.4 6.4 0 0 1 .4 2.7 5.6 5.6 0 0 1-1 2.7 5.8 5.8 0 0 1-1.6 1.7 7.2 7.2 0 0 1-1.8.9 10.6 10.6 0 0 1-2 .3l-1.8.3a9.2 9.2 0 0 0-1.6.3 2.7 2.7 0 0 0-1.2.8 1.2 1.2 0 0 1-.6.4.8.8 0 0 1-.7-.1l-2-1.4a1 1 0 0 1-.4-.6.7.7 0 0 1 .1-.6 5.6 5.6 0 0 1 1.7-1.6 7.9 7.9 0 0 1 1.9-.8 10.3 10.3 0 0 1 2-.4l1.8-.2a7 7 0 0 0 1.5-.3 2 2 0 0 0 1-.8 2.5 2.5 0 0 0 .3-2.3 4.4 4.4 0 0 0-1.8-2.2 4.3 4.3 0 0 0-5 0 2.1 2.1 0 0 1-.5.3.9.9 0 0 1-.6-.1l-2.2-1.5a.7.7 0 0 1-.4-.4.7.7 0 0 1 .2-.6 5 5 0 0 1 1.8-1.6 7.8 7.8 0 0 1 2.7-.8 9.4 9.4 0 0 1 3 .2 8.5 8.5 0 0 1 3.1 1.2Zm-9 16.2a.9.9 0 0 1 .3.5.8.8 0 0 1-.1.7l-1.6 2.4a.9.9 0 0 1-1.2.2l-2.4-1.5a.8.8 0 0 1-.3-.6.8.8 0 0 1 .1-.6l1.6-2.4a.9.9 0 0 1 .5-.4.8.8 0 0 1 .7.1ZM210.6 352.3a8.3 8.3 0 0 1-2.3.2 6.4 6.4 0 0 1-2.3-.5 5 5 0 0 1-1.7-1.2 4.5 4.5 0 0 1-1-2 4.8 4.8 0 0 1-.2-1.8 5.6 5.6 0 0 1 .5-1.5 8.5 8.5 0 0 1 .7-1.3l.9-1.2a7 7 0 0 0 .7-1.2 2.1 2.1 0 0 0 .2-1.1 1 1 0 0 1 0-.5.6.6 0 0 1 .5-.3l1.9-.5a.7.7 0 0 1 .5 0 .6.6 0 0 1 .3.5 4.4 4.4 0 0 1 0 1.8 6.5 6.5 0 0 1-.5 1.5 8.5 8.5 0 0 1-.9 1.4l-.8 1.1a6 6 0 0 0-.6 1.1 1.6 1.6 0 0 0 0 1 2 2 0 0 0 1 1.4 3.5 3.5 0 0 0 2.4 0 3.4 3.4 0 0 0 2.5-2.8 1.4 1.4 0 0 1 .2-.5.7.7 0 0 1 .4-.3l2-.5a.6.6 0 0 1 .5 0 .5.5 0 0 1 .2.4 4 4 0 0 1 0 2 6.2 6.2 0 0 1-1 2 7.5 7.5 0 0 1-1.8 1.7 6.7 6.7 0 0 1-2.3 1Zm-4.5-14a.7.7 0 0 1-.5 0 .7.7 0 0 1-.4-.4l-.5-2.2a.7.7 0 0 1 0-.5.6.6 0 0 1 .5-.4l2.1-.5a.6.6 0 0 1 .6 0 .7.7 0 0 1 .3.5l.5 2.2a.7.7 0 0 1 0 .5.7.7 0 0 1-.5.3ZM304.2 340.9a7.2 7.2 0 0 1 1.8 1 5.4 5.4 0 0 1 1.4 1.4 4.5 4.5 0 0 1 .7 1.8 4 4 0 0 1-.2 2 4 4 0 0 1-.8 1.3 4.7 4.7 0 0 1-1.1 1 7.6 7.6 0 0 1-1.2.5l-1.2.5a7.2 7.2 0 0 0-1 .4 1.8 1.8 0 0 0-.7.8 1 1 0 0 1-.4.3.5.5 0 0 1-.4 0l-1.6-.6a.6.6 0 0 1-.4-.3.5.5 0 0 1 0-.5 4.2 4.2 0 0 1 .9-1.3 5.8 5.8 0 0 1 1.1-.8 7.3 7.3 0 0 1 1.3-.6l1.2-.4a5.4 5.4 0 0 0 1-.5 1.5 1.5 0 0 0 .6-.7 1.7 1.7 0 0 0-.2-1.6 3 3 0 0 0-1.7-1.2 3 3 0 0 0-3.2.9 1.3 1.3 0 0 1-.4.3.6.6 0 0 1-.4 0l-1.7-.7a.5.5 0 0 1-.3-.2.5.5 0 0 1 0-.4 3.5 3.5 0 0 1 1-1.3 5.5 5.5 0 0 1 1.7-1 6.9 6.9 0 0 1 2-.4 5.8 5.8 0 0 1 2.2.3Zm-3.5 12.3a.6.6 0 0 1 .3.3.6.6 0 0 1 0 .5l-.6 1.8a.6.6 0 0 1-.4.4.6.6 0 0 1-.4 0l-1.8-.7a.6.6 0 0 1-.4-.3.6.6 0 0 1 0-.5l.7-1.8a.6.6 0 0 1 .3-.4.6.6 0 0 1 .5 0Z"/><path d="M304.2 340.9a7.2 7.2 0 0 1 1.8 1 5.4 5.4 0 0 1 1.4 1.4 4.5 4.5 0 0 1 .7 1.8 4 4 0 0 1-.2 2 4 4 0 0 1-.8 1.3 4.7 4.7 0 0 1-1.1 1 7.6 7.6 0 0 1-1.2.5l-1.2.5a7.2 7.2 0 0 0-1 .4 1.8 1.8 0 0 0-.7.8 1 1 0 0 1-.4.3.5.5 0 0 1-.4 0l-1.6-.6a.6.6 0 0 1-.4-.3.5.5 0 0 1 0-.5 4.2 4.2 0 0 1 .9-1.3 5.8 5.8 0 0 1 1.1-.8 7.3 7.3 0 0 1 1.3-.6l1.2-.4a5.4 5.4 0 0 0 1-.5 1.5 1.5 0 0 0 .6-.7 1.7 1.7 0 0 0-.2-1.6 3 3 0 0 0-1.7-1.2 3 3 0 0 0-3.2.9 1.3 1.3 0 0 1-.4.3.6.6 0 0 1-.4 0l-1.7-.7a.5.5 0 0 1-.3-.2.5.5 0 0 1 0-.4 3.5 3.5 0 0 1 1-1.3 5.5 5.5 0 0 1 1.7-1 6.9 6.9 0 0 1 2-.4 5.8 5.8 0 0 1 2.2.3Zm-3.5 12.3a.6.6 0 0 1 .3.3.6.6 0 0 1 0 .5l-.6 1.8a.6.6 0 0 1-.4.4.6.6 0 0 1-.4 0l-1.8-.7a.6.6 0 0 1-.4-.3.6.6 0 0 1 0-.5l.7-1.8a.6.6 0 0 1 .3-.4.6.6 0 0 1 .5 0Z" opacity=".2"/><path fill="#d8b4a1" d="M320.1 344.3a.7.7 0 0 1 .3 1l-1 2a.7.7 0 0 1-.5.4.7.7 0 0 1-.6 0l-2-1a.7.7 0 0 1-.3-.5.7.7 0 0 1 0-.6l1-2a.7.7 0 0 1 .5-.4.7.7 0 0 1 .6 0Zm6-13.9a8.6 8.6 0 0 1 2 1.5 6.7 6.7 0 0 1 1.5 1.9 5.3 5.3 0 0 1 .5 2.1 5.1 5.1 0 0 1-1.7 3.8 5.3 5.3 0 0 1-1.5.9 9.4 9.4 0 0 1-1.5.4l-1.5.4a8 8 0 0 0-1.3.4 2.2 2.2 0 0 0-1 .7 1 1 0 0 1-.4.4.6.6 0 0 1-.5 0l-1.8-1a.7.7 0 0 1-.3-.4.6.6 0 0 1 0-.5 5 5 0 0 1 1.3-1.5 6.5 6.5 0 0 1 1.4-.8 10.2 10.2 0 0 1 1.6-.4l1.5-.3a6.6 6.6 0 0 0 1.2-.5 1.7 1.7 0 0 0 .8-.7 2 2 0 0 0 0-1.9 3.6 3.6 0 0 0-1.7-1.6 3.5 3.5 0 0 0-4 .5 1.5 1.5 0 0 1-.5.2.7.7 0 0 1-.5 0l-1.9-1a.6.6 0 0 1-.3-.4.6.6 0 0 1 0-.5 4.2 4.2 0 0 1 1.5-1.4 6.6 6.6 0 0 1 2-.9 7.7 7.7 0 0 1 2.6-.1 7 7 0 0 1 2.6.7Z"/><path fill="#fff" d="M320.1 344.3a.7.7 0 0 1 .3 1l-1 2a.7.7 0 0 1-.5.4.7.7 0 0 1-.6 0l-2-1a.7.7 0 0 1-.3-.5.7.7 0 0 1 0-.6l1-2a.7.7 0 0 1 .5-.4.7.7 0 0 1 .6 0Zm6-13.9a8.6 8.6 0 0 1 2 1.5 6.7 6.7 0 0 1 1.5 1.9 5.3 5.3 0 0 1 .5 2.1 5.1 5.1 0 0 1-1.7 3.8 5.3 5.3 0 0 1-1.5.9 9.4 9.4 0 0 1-1.5.4l-1.5.4a8 8 0 0 0-1.3.4 2.2 2.2 0 0 0-1 .7 1 1 0 0 1-.4.4.6.6 0 0 1-.5 0l-1.8-1a.7.7 0 0 1-.3-.4.6.6 0 0 1 0-.5 5 5 0 0 1 1.3-1.5 6.5 6.5 0 0 1 1.4-.8 10.2 10.2 0 0 1 1.6-.4l1.5-.3a6.6 6.6 0 0 0 1.2-.5 1.7 1.7 0 0 0 .8-.7 2 2 0 0 0 0-1.9 3.6 3.6 0 0 0-1.7-1.6 3.5 3.5 0 0 0-4 .5 1.5 1.5 0 0 1-.5.2.7.7 0 0 1-.5 0l-1.9-1a.6.6 0 0 1-.3-.4.6.6 0 0 1 0-.5 4.2 4.2 0 0 1 1.5-1.4 6.6 6.6 0 0 1 2-.9 7.7 7.7 0 0 1 2.6-.1 7 7 0 0 1 2.6.7Z" opacity=".3"/><path fill="#d8b4a1" d="M235 357.5a6.9 6.9 0 0 1-2 .5 5.3 5.3 0 0 1-2-.2 4.4 4.4 0 0 1-1.7-1 4 4 0 0 1-1-1.6 4 4 0 0 1-.3-1.5 4.6 4.6 0 0 1 .3-1.3 7.4 7.4 0 0 1 .5-1.3l.7-1a5.8 5.8 0 0 0 .4-1 1.8 1.8 0 0 0 .1-1 1 1 0 0 1 0-.5.6.6 0 0 1 .3-.3l1.6-.6a.6.6 0 0 1 .5 0 .5.5 0 0 1 .3.3 3.8 3.8 0 0 1 .1 1.6 5.2 5.2 0 0 1-.3 1.4 7.1 7.1 0 0 1-.6 1.2l-.6 1a4.7 4.7 0 0 0-.4 1 1.4 1.4 0 0 0 0 1 1.7 1.7 0 0 0 1 1 3 3 0 0 0 2-.1 2.9 2.9 0 0 0 2-2.7 1.1 1.1 0 0 1 .1-.4.6.6 0 0 1 .4-.3l1.6-.6a.5.5 0 0 1 .7.3 3.4 3.4 0 0 1 0 1.6 5.4 5.4 0 0 1-.6 1.8 6.6 6.6 0 0 1-1.3 1.6 5.6 5.6 0 0 1-1.9 1.1Zm-5.2-11.4a.6.6 0 0 1-.4 0 .6.6 0 0 1-.3-.4l-.7-1.8a.6.6 0 0 1 0-.5.5.5 0 0 1 .3-.3l1.8-.6a.6.6 0 0 1 .5 0 .5.5 0 0 1 .3.3l.6 1.8a.6.6 0 0 1 0 .5.6.6 0 0 1-.3.3Z"/><path d="M235 357.5a6.9 6.9 0 0 1-2 .5 5.3 5.3 0 0 1-2-.2 4.4 4.4 0 0 1-1.7-1 4 4 0 0 1-1-1.6 4 4 0 0 1-.3-1.5 4.6 4.6 0 0 1 .3-1.3 7.4 7.4 0 0 1 .5-1.3l.7-1a5.8 5.8 0 0 0 .4-1 1.8 1.8 0 0 0 .1-1 1 1 0 0 1 0-.5.6.6 0 0 1 .3-.3l1.6-.6a.6.6 0 0 1 .5 0 .5.5 0 0 1 .3.3 3.8 3.8 0 0 1 .1 1.6 5.2 5.2 0 0 1-.3 1.4 7.1 7.1 0 0 1-.6 1.2l-.6 1a4.7 4.7 0 0 0-.4 1 1.4 1.4 0 0 0 0 1 1.7 1.7 0 0 0 1 1 3 3 0 0 0 2-.1 2.9 2.9 0 0 0 2-2.7 1.1 1.1 0 0 1 .1-.4.6.6 0 0 1 .4-.3l1.6-.6a.5.5 0 0 1 .7.3 3.4 3.4 0 0 1 0 1.6 5.4 5.4 0 0 1-.6 1.8 6.6 6.6 0 0 1-1.3 1.6 5.6 5.6 0 0 1-1.9 1.1Zm-5.2-11.4a.6.6 0 0 1-.4 0 .6.6 0 0 1-.3-.4l-.7-1.8a.6.6 0 0 1 0-.5.5.5 0 0 1 .3-.3l1.8-.6a.6.6 0 0 1 .5 0 .5.5 0 0 1 .3.3l.6 1.8a.6.6 0 0 1 0 .5.6.6 0 0 1-.3.3Z" opacity=".2"/><path fill="#d8b4a1" d="M225.8 317.8a.8.8 0 0 1-.5-.4.7.7 0 0 1 0-.5l.5-2.5a.7.7 0 0 1 .4-.5.7.7 0 0 1 .6 0l2.4.5a.8.8 0 0 1 .5.4.8.8 0 0 1 0 .6l-.6 2.4a.8.8 0 0 1-.3.5.7.7 0 0 1-.6 0Zm-2.8 16.1a9.4 9.4 0 0 1-2.5-1 6.8 6.8 0 0 1-1.9-1.6 5.6 5.6 0 0 1-1.1-2.1 5.6 5.6 0 0 1 .8-4.4 5.8 5.8 0 0 1 1.3-1.3 9.8 9.8 0 0 1 1.5-1l1.4-.6a8.7 8.7 0 0 0 1.3-.8 2.3 2.3 0 0 0 .8-1 1 1 0 0 1 .4-.5.7.7 0 0 1 .5 0l2.1.4a.8.8 0 0 1 .5.4.6.6 0 0 1 .1.6 5.1 5.1 0 0 1-1 1.8 6.8 6.8 0 0 1-1.3 1.2 9.3 9.3 0 0 1-1.5.9l-1.5.7a6.1 6.1 0 0 0-1.1.8 1.8 1.8 0 0 0-.6 1 2.2 2.2 0 0 0 .4 2 3.8 3.8 0 0 0 2.2 1.2 3.8 3.8 0 0 0 4.1-1.5 1.8 1.8 0 0 1 .4-.4.7.7 0 0 1 .6 0l2.2.6a.6.6 0 0 1 .4.3.6.6 0 0 1 .1.5 4.5 4.5 0 0 1-1 1.8 7.3 7.3 0 0 1-2 1.5 8.6 8.6 0 0 1-2.7.8 7.6 7.6 0 0 1-2.9-.3Z"/><path fill="#fff" d="M225.8 317.8a.8.8 0 0 1-.5-.4.7.7 0 0 1 0-.5l.5-2.5a.7.7 0 0 1 .4-.5.7.7 0 0 1 .6 0l2.4.5a.8.8 0 0 1 .5.4.8.8 0 0 1 0 .6l-.6 2.4a.8.8 0 0 1-.3.5.7.7 0 0 1-.6 0Zm-2.8 16.1a9.4 9.4 0 0 1-2.5-1 6.8 6.8 0 0 1-1.9-1.6 5.6 5.6 0 0 1-1.1-2.1 5.6 5.6 0 0 1 .8-4.4 5.8 5.8 0 0 1 1.3-1.3 9.8 9.8 0 0 1 1.5-1l1.4-.6a8.7 8.7 0 0 0 1.3-.8 2.3 2.3 0 0 0 .8-1 1 1 0 0 1 .4-.5.7.7 0 0 1 .5 0l2.1.4a.8.8 0 0 1 .5.4.6.6 0 0 1 .1.6 5.1 5.1 0 0 1-1 1.8 6.8 6.8 0 0 1-1.3 1.2 9.3 9.3 0 0 1-1.5.9l-1.5.7a6.1 6.1 0 0 0-1.1.8 1.8 1.8 0 0 0-.6 1 2.2 2.2 0 0 0 .4 2 3.8 3.8 0 0 0 2.2 1.2 3.8 3.8 0 0 0 4.1-1.5 1.8 1.8 0 0 1 .4-.4.7.7 0 0 1 .6 0l2.2.6a.6.6 0 0 1 .4.3.6.6 0 0 1 .1.5 4.5 4.5 0 0 1-1 1.8 7.3 7.3 0 0 1-2 1.5 8.6 8.6 0 0 1-2.7.8 7.6 7.6 0 0 1-2.9-.3Z" opacity=".3"/><path fill="#e0e0e0" d="M372.9 365.4c-4.7 5.3-.3 12.6 6.6 13.6 12.5 2 23.3-2.4 35-5a24.7 24.7 0 0 1 15.5.6c4 1.8 7 5.1 9.7 8.4s5.6 6.7 9.4 8.8 9 2.6 12.4 0 4.3-7 4.3-11c0-14.7-9.7-27.5-24-33.1-10.4-4-20.6-3.4-34.5-.2a68 68 0 0 0-34.4 18Z"/><path fill="#ffbda7" d="m430.3 311.8 20.5-2.6c.5 16 .2 25.2 1.6 36.4.3 2 2 16.5 1.8 20.9-.2 6.6-8.3 6.9-9.4 3s-4.6-20.2-5-22c-1-7-4.3-18.7-8-31.1l-1.5-4.6Z"/><path fill="#263238" d="M441.7 371.7c0 5.7 1.3 8.1 3 10a7.4 7.4 0 0 0 7.4 2.2c2.7-.8 6-3.2 6.6-6.6s.1-5.8-.7-9.3Z"/><path fill="#37474f" d="M452.3 344.2c1.1 0 1 5.5 2 10.6 1 5.4 2.8 7.6 3.6 12.1 1 5.2.8 7.5-1 10.7s-8.2 6.5-11.7 2.2c-2.9-3.5-3.6-7-3.8-12.3a111.5 111.5 0 0 0-1.1-13.4c-.7-4.4-1.6-7.6-.6-8l.3 1.8c0 .6.3 2.5.9 2.5a8 8 0 0 0 0-1.5 1.6 1.6 0 0 1 .2-1.2 2.1 2.1 0 0 1 1.2-.6c1-.3 4.2-.6 5.3-.8.6 0 1.8-.4 2.3-.4a4.5 4.5 0 0 1 1.4.1 1 1 0 0 1 .7.5 1.7 1.7 0 0 1 0 .6 4.1 4.1 0 0 0 .3 1c0 .2.1.4.3.3a.3.3 0 0 0 .1-.3c0-.6 0-1-.2-1.8v-1.1l-.2-1Z"/><path fill="#fafafa" d="M458.3 370a11 11 0 0 1-1 8c-1.7 3.2-8.1 6.7-12.4 2.1a13.2 13.2 0 0 1-3-7.4c1.8-3.5 13.2-5.6 16.4-2.8Z"/><path fill="#f0f0f0" d="M444.9 367.3a.3.3 0 0 0 .1 0 13.8 13.8 0 0 1 9.6-1.4.4.4 0 0 0 .4-.4.5.5 0 0 0-.3-.6 14.3 14.3 0 0 0-10.1 1.5.5.5 0 0 0-.1.6.4.4 0 0 0 .4.3ZM454.1 362a.4.4 0 0 0 .3-.3.5.5 0 0 0-.3-.6 12.5 12.5 0 0 0-10 1.4.5.5 0 0 0-.2.6.4.4 0 0 0 .6.2s4.7-3 9.4-1.3a.4.4 0 0 0 .2 0ZM453.6 358.4a.4.4 0 0 0 .4-.3.5.5 0 0 0-.3-.6 11.3 11.3 0 0 0-10.3 1.3.5.5 0 0 0-.1.7.4.4 0 0 0 .6.1 10.8 10.8 0 0 1 9.6-1.2.4.4 0 0 0 .1 0Z"/><path fill="#ebebeb" d="M453.1 354.4a.4.4 0 0 0 .3-.3.5.5 0 0 0-.2-.6c-5.4-2.2-10.2 1.3-10.4 1.5a.5.5 0 0 0-.1.6.4.4 0 0 0 .6.2s4.7-3.4 9.6-1.4a.4.4 0 0 0 .2 0Z"/><path fill="#ffbda7" d="M386.4 361.1c4.4-4 7.8-7 11-11.9a8.2 8.2 0 0 0 1.2-3.3c.2-1.4-.1-6.8-.3-10.9l-1-18.2 17.7.9c-1.3 9.9-3.3 21.8-4 27.2v.8a32.6 32.6 0 0 0 0 4.2 7.2 7.2 0 0 1-3 4.3c-1.1 1-2.4 1.7-3.6 2.6-1.9 1.4-3.5 3.1-5.3 4.6a15 15 0 0 1-11.2 4 4.3 4.3 0 0 1-1.8-.6 2 2 0 0 1-1-1.5 3 3 0 0 1 1.3-2.2Z"/><path fill="#455a64" d="m420.6 261.3-4 21.4 1 7.2c.5 4.9-.6 14.3-1.5 21.6-1 7.8-2.4 17-2.4 17-3.8 2.8-14.4 1.7-16-.3 0 0-.8-13.6-1.8-27-1.3-16.6-1.9-21.5-1.3-40.7.4-12.2 1.2-33.7 8.1-55.4 6.2 4.6 24.3 5.6 32 0 0 0 5.8 4.7 11.2 16.5 4 8.8 2 19.8 1.4 35.3-.7 18.1.4 37 .4 37a39.3 39.3 0 0 1 3.4 14.3c.4 10.3.3 22.7.3 22.7-2 2.8-11.4 4.5-15.5 2.2 0 0-6.1-21.1-7.1-26.4l-3.3-17.7c-1.2-7.6-5-27.7-5-27.7Z"/><path fill="#37474f" d="m420.6 261.3-3.4-24.2s-9.4-.6-14.2-6.8c0 0 .3 7.7 11.2 9.8l4.6 21.5-2.2 21.1Z"/><path fill="#263238" d="M412.6 356.9a4.7 4.7 0 0 1-.3 1.6c-.4.9-3.8 2.6-5 3.2a7.7 7.7 0 0 0-4 4 13.1 13.1 0 0 1-6.8 6 20.9 20.9 0 0 1-12.4 1c-5.2-1-5.5-4.2-5.5-4.2s-.3-2.9 1-3.3l33-8.3Z"/><path fill="#37474f" d="M412 345.7c0 1.3-.2 2.5-.1 3.8a22.4 22.4 0 0 0 .8 3.8 7 7 0 0 1 .3 1.9 2.5 2.5 0 0 1-.4 1.6c-2.8 2.7-7.1 3.3-9.2 6.2s-4.2 6.4-11 7.6-11.9-1-13.1-3 0-3.8 4.4-6c4.6-2.4 10.8-9.7 10.9-9.7a30.3 30.3 0 0 0 2.3-3.3 8.7 8.7 0 0 0 1-1.6 8 8 0 0 0 .4-2.8 1 1 0 0 1 .2-.7.9.9 0 0 1 .6-.1 18.6 18.6 0 0 1 3.5.3 4.3 4.3 0 0 1 1.8.7 3.7 3.7 0 0 1 1 1.4 25 25 0 0 1 1.1 2.5 2 2 0 0 0 .4.6 1.4 1.4 0 0 0 1.6.2 3 3 0 0 0 1.2-1.3 9.2 9.2 0 0 1 .8-1.6 3.6 3.6 0 0 1 .6-.6v-.7a1.4 1.4 0 0 1 .4 0 .7.7 0 0 1 .3.3 1.2 1.2 0 0 1 .1.5Z"/><path fill="#fafafa" d="M396.8 369.1a8.6 8.6 0 0 0-4.8-7.5c-5-2.7-8.2-1-9.8 0-1.9 1.3-4.6 4-3 6.1 1.7 2.3 4.5 3.4 9.7 3.6s8-2.2 8-2.2ZM404.2 353.4a.6.6 0 0 1-.5-.2c-.6-.9-4.2-4-7.8-3-.2-.4.1-.9.9-1.3 3.7-.3 7.2 2.7 7.9 3.7a.5.5 0 0 1-.2.7.6.6 0 0 1-.3.1ZM393.8 352.8a1.8 1.8 0 0 1 1-1.2 10.8 10.8 0 0 1 7.5 3.7.6.6 0 0 1-.2.7.6.6 0 0 1-.4.1.6.6 0 0 1-.4-.2c-.6-.8-4-3.8-7.5-3ZM388 358.5a3.3 3.3 0 0 1 1.6-1.5c3.7-.1 7.1 2.7 7.8 3.7a.6.6 0 0 1-.2.8.7.7 0 0 1-.3 0 .6.6 0 0 1-.5-.2c-.6-.9-4.6-4.3-8.4-2.8ZM399.3 358.9a.6.6 0 0 1-.5-.3c-.5-.8-4-3.9-7.6-3a2 2 0 0 1 1.2-1.3 10.7 10.7 0 0 1 7.4 3.7.6.6 0 0 1-.1.8.7.7 0 0 1-.4 0Z"/><path fill="#ffbda7" d="M408.7 163c-3-.4-9.1.3-14 2l-24.2 8.3s-11.7 13.5-8 14.7c1.6.5 9.4.3 20.5-2.5a359 359 0 0 1 18.7-4.4c0 .3 7-18 7-18Z"/><path fill="#f0997a" d="M381.7 174.4a27.9 27.9 0 0 1-11 10.3l5.1-13.3 11-3.7c-1.8 2.3-3.8 4.8-5.1 6.7Z"/><path fill="#ffbda7" d="M392.8 154.8c.8-1.3 1.9-2.7 2.3-3.6.9-1.5.8-3.6.7-5.3v-2.4a12.4 12.4 0 0 1 .2-2.8 7.4 7.4 0 0 1 1.6-3.3c.2-.2 2.2.2 2.8 0 1.2-.2 1.5-1 .6-1.3a14.4 14.4 0 0 0-4-.8c-.9 0-3.5 3.3-3.5 3.3s1.4-2.8 1.9-3.5 2.4-.6 3.5-.8c1.8-.3 2.4-1.7 1.8-1.9a18.6 18.6 0 0 0-5.3-.1 3.4 3.4 0 0 0-3.1 1.8 27 27 0 0 0-1.8 3s1-4.6 1.3-5.5l2-.5c1-.3 2.2-.8 2.4-1.8 0 0 .5-1-1.3-.8a42.2 42.2 0 0 0-5.2.8c-.6.2-1.1 1.3-1.7 3.5a72.5 72.5 0 0 0-1.9 9.5 30 30 0 0 1-1.5 7.2c-1.8 5.4-15 12.7-21.8 21.3a16.3 16.3 0 0 0-4 10.1c-.4 5.5 2.3 7.8 5.3 7a26 26 0 0 0 13.5-10.1c6.2-9.4 11.9-18.6 15.2-23Z"/><path fill="#d8b4a1" d="m425.3 163.4 10.3 1 11 16c1 4-3.3 5.3-4 11.4-.6 4-1.5 12.2-.6 16.2 1.3 6 3.9 8.6 5.3 15.4-5.5 4.8-16.5 7.5-29 6.6-15.2-1.1-20.3-7.2-20.3-7.2 1.2-5.9 2.8-12.4 4-16.8l-.6-9.6s-9.2-3.8-4.6-16c3-7.8 11.9-17.3 11.9-17.3h2.6s8.9-.2 14 .3Z"/><path d="M413.3 194.2a10 10 0 0 0 9.4 5.3 10.6 10.6 0 0 0 9-5.6s-.2 7.3-9 7.3-9.4-7-9.4-7Z" opacity=".2"/><path fill="#f0997a" d="M446.1 152c-.2-1 1-4 1-5.7s-1-4.8-.6-6.9-.2-2.7-.8-2.4a5.5 5.5 0 0 0-2.3 3.7c0 1.7 2.7 11.3 2.7 11.3Z"/><path fill="#263238" d="M395.8 126.7c1.8-3 5.1-4 7.1-3.3 1.6-2.4 5-4 8-4.3 11-1.3 15 4 15.7 6 5.3.5 9.8 9.6 6.4 18.8-1.7 4.6-5.6 10-5.9 12.6l-7-.4a12.5 12.5 0 0 0-8.7-9.9c-7.8-2.6-12.2-4.2-13.4-5.7a11.3 11.3 0 0 1-2.2-13.8Z"/><path fill="#263238" d="M427.2 117c3 .3 5 1.7 5.7 4.5a8.6 8.6 0 0 1 7.6 1.7 6.4 6.4 0 0 1 2 5c0 1.8-1 2.8-2 4a4.2 4.2 0 0 1 2.7 5c-.3 1.3-4.7 6-1 6.2-1.6 1.3-4.5.5-4.4-1.9a5.2 5.2 0 0 1-4.8 5.6 8 8 0 0 1-8.8-5.6l-3-20.5c.6-2.6 3.1-4.1 6-4Z"/><path fill="#ffbda7" d="M397.7 135.1a28.4 28.4 0 0 0-.3 3.7 56.8 56.8 0 0 0 .2 7.4c.8 8.7 5 11.4 7.4 12.4a9.8 9.8 0 0 0 6.3 0l1.3 5.8s-6.6 7.3 3.2 6.8c9.4-.5 12.5-7.3 12.5-7.3l-2.2-13.5s2.5 1.6 4.8-1c2.2-2.5 3-6.2.8-8.2s-5.4-1.9-6.6 1.4c-.9 2.5-2.8 2.6-2.8.1 0-3.4-1.7-4-2.6-5.3-3-4.2-1.1-5.6-3.9-8-1.5-1.4-5.6-1.7-8.6.8-3.7-3-8.5-1.3-9.5 5Z"/><path fill="#f0997a" d="m407.8 138.3-.4 8.9-4.6-1.4 5-7.5zM411.3 158.7c6.6-1.8 10.8-4.6 11.8-7.4a6.9 6.9 0 0 1-2.8 5.6c-3 2.2-8.6 3.8-8.6 3.8Z"/><path fill="#b16668" d="M407.4 152.7a.8.8 0 0 0 .8.3 2.3 2.3 0 0 0 1.2-.6 3.7 3.7 0 0 1 1.2-.8 3 3 0 0 1 1-.1 3 3 0 0 0 1.1-.1 1 1 0 0 0 .7-.8 1.5 1.5 0 0 0-.7-1.3 4 4 0 0 0-4-.3 2.8 2.8 0 0 0-1 1 3 3 0 0 0-.5 1.2 2.4 2.4 0 0 0 .2 1.5Z"/><path fill="#b16668" d="M413.4 150.4a1 1 0 0 1-.7 1.1c-.7.4-1.6.1-2 .2a8.1 8.1 0 0 0-1.6 1l.1-1.1 2.8-1.4Z"/><path fill="#f0997a" d="M409 152.7a3.4 3.4 0 0 1 3-3.3 3.9 3.9 0 0 1 .8 0 1.6 1.6 0 0 1 .6 1.2 1 1 0 0 1-.7.8 3 3 0 0 1-1 0 3 3 0 0 0-1.1.2 3.6 3.6 0 0 0-1.2.8Z"/><path fill="#263238" d="m403.4 137.9-3.2-.9a1.7 1.7 0 0 0 3.2.9ZM413.7 135.3l-3 1.6a1.7 1.7 0 0 0 3-1.6ZM400.4 141.4c0 .8.7 1 1.5 1s1.3-.2 1.2-1a1.4 1.4 0 1 0-2.7 0ZM411.3 140.8c.2.8 1 .7 1.7.5s1.1-.6.9-1.3a1.4 1.4 0 1 0-2.6.8Z"/><path fill="#ffbda7" d="M435.6 164.5c4.3.1 8 2.2 14.5 6l16.2 10 4.5 12.2-2.7 2.8c-4.7.4-11.8-2.5-20.2-6.2-2.6-1.2-3.3-2.8-5.5.5-3 6.4-13.2-16.8-6.8-25.3Z"/><path fill="#f0997a" d="m447.9 169.2 9.2 20.2c-4.2-1-14.7-18.3-18.2-24.4 2.6.7 5.3 2.1 9 4.2Z"/><path fill="#ffbda7" d="M437.4 158.2c-.8-1.3-2-3-2.4-3.9-.8-1.7-.6-3.9-.4-5.8v-2.6a14.6 14.6 0 0 0 0-3 8.1 8.1 0 0 0-1.5-3.6c-.3-.3-2.4 0-3.1-.2-1.2-.3-1.5-1.1-.6-1.4a15.7 15.7 0 0 1 4.3-.7c1 0 3.7 3.7 3.7 3.7s-1.4-3-1.9-3.8-2.6-.8-3.7-1.1c-1.9-.4-2.6-2-1.9-2a20.3 20.3 0 0 1 5.8 0 3.7 3.7 0 0 1 3.2 2.1 29.6 29.6 0 0 1 1.8 3.5s-.8-5.2-1-6.1l-2.4-.7c-1-.3-2.2-.9-2.4-2 0 0-.4-1.1 1.4-.8a48.4 48.4 0 0 1 5.7 1c.6.4 1.1 1.6 1.6 4a79.3 79.3 0 0 1 1.5 10.3 32.5 32.5 0 0 0 1.3 7.9c1.6 5.8 15.6 14.4 22.4 24a17.6 17.6 0 0 1 3.9 11c0 6-3 8.4-6.2 7.3a28.1 28.1 0 0 1-14-11.6c-6-10.3-11.8-20.5-15.1-25.5Z"/><path fill="#d8b4a1" d="m347.7 135.3 12 5.1 2.4-3.4 5.2 5.2 1.7-3.3 7.3 5-8.2-11.5-1.9 3.7-5.5-7.7-3.2 4.9-5.4-6.7-4.4 8.7z"/><path fill="#fff" d="m347.7 135.3 12 5.1 2.4-3.4 5.2 5.2 1.7-3.3 7.3 5-8.2-11.5-1.9 3.7-5.5-7.7-3.2 4.9-5.4-6.7-4.4 8.7z" opacity=".3"/><path fill="#d8b4a1" d="m366.9 153.6.5-4.5 8.7-1.5-12-2.2-.7 3.6-9.3-1.6.8 7.3 12-1.1z"/><path fill="#fff" d="m366.9 153.6.5-4.5 8.7-1.5-12-2.2-.7 3.6-9.3-1.6.8 7.3 12-1.1z" opacity=".3"/><path fill="#d8b4a1" d="m368.5 129.1 4.5-.2 5.4 11.7-1.6-15.5h-4.1l-1.2-9.2-7.1 3.1 4.1 10.1z"/><path fill="#fff" d="m368.5 129.1 4.5-.2 5.4 11.7-1.6-15.5h-4.1l-1.2-9.2-7.1 3.1 4.1 10.1z" opacity=".3"/><path fill="#d8b4a1" d="m384.9 90.8 14.6 10.6-4.7 4.1 11.9 8.3-19.5-7.5 6-4.9-8.3-10.6z"/><path fill="#fff" d="m384.9 90.8 14.6 10.6-4.7 4.1 11.9 8.3-19.5-7.5 6-4.9-8.3-10.6z" opacity=".7"/><path fill="#d8b4a1" d="m402.2 69.9 10.6 24.5-6.7.9 3.2 13.8-9.5-17.8 6.9-1.8-4.5-19.6zM483.2 137.5l-17.1-5.8-.6 6.2-13.6-4.9 17.3 11.6.5-7.8 13.5.7zM490.2 111.3l-26 5.5 3 6-13.1 5.4 20.1-2.6-2.6-6.7 18.6-7.6z"/><path fill="#fff" d="m490.2 111.3-26 5.5 3 6-13.1 5.4 20.1-2.6-2.6-6.7 18.6-7.6z" opacity=".7"/><path fill="#455a64" d="M455.1 96.7a19.9 19.9 0 0 0-7.5-4c-2.3-.8-4.6-1.5-7-2.1-4.3-1-9.3-1.7-13.5.3a4.5 4.5 0 0 0-2.4 2.2 3.6 3.6 0 0 0 .4 3c1.2 2.3 3.6 3.6 5.9 4.5a54.2 54.2 0 0 0 8.1 2.2 79.8 79.8 0 0 0 8.1 1.2 56 56 0 0 0 8 .4 18.5 18.5 0 0 0 4-.6c.8-.2 2-.6 1.6-1.7a3.6 3.6 0 0 0-1-1.2 17 17 0 0 0-1.6-1.3 21.6 21.6 0 0 0-3.3-2A33.8 33.8 0 0 0 447 95a50.6 50.6 0 0 0-15.5-1.2 22.4 22.4 0 0 0-7.3 1.8c-2 1-4.6 2.7-4.2 5a5.2 5.2 0 0 0 1.6 2.7 15.8 15.8 0 0 0 3 2.4 25.3 25.3 0 0 0 7.4 2.8 60.9 60.9 0 0 0 7.8 1.2 35.1 35.1 0 0 0 7.2.1 21.5 21.5 0 0 0 3.5-.6 17.4 17.4 0 0 0 1.8-.6 3.2 3.2 0 0 0 1.5-1c.7-1-.3-2-1-2.6a10.4 10.4 0 0 0-3.3-2 40.8 40.8 0 0 0-7.4-2 36.8 36.8 0 0 0-7.5-.7 29 29 0 0 0-3.8.4 7.1 7.1 0 0 0-3.3 1c-2.2 1.7-.3 4.3 1.1 5.7a15 15 0 0 0 7 3.2 35.5 35.5 0 0 0 7.5.9 19.8 19.8 0 0 0 7-1.1c.5-.2 1-.3 1.2-.8a1.3 1.3 0 0 0-.3-1.2 4.7 4.7 0 0 0-3-1.6 18.9 18.9 0 0 0-4-.2 32.7 32.7 0 0 0-4 .4 19.2 19.2 0 0 0-3.7.9 7.4 7.4 0 0 0-3 1.8c-1.8 2 1.5 4 3.2 4.5a15.2 15.2 0 0 0 3.7.5 22.2 22.2 0 0 0 3.7 0 13.8 13.8 0 0 0 3.4-1c1-.3 2.2-.8 2.4-2s-.7-1.7-1.6-2.1a6.7 6.7 0 0 0-3.7-.7c-1.7.2-4 1.6-3.6 3.6s3.1 3.2 5 3.1c1 0 2.4-.2 3-1s-.2-1.8-1-2.1a2.6 2.6 0 0 0-2.8.4 2.8 2.8 0 0 0-.7 2.6 3 3 0 0 0 4.4 2c.4-.1 0-.8-.3-.6a2.6 2.6 0 0 1-2.9-.3 2.1 2.1 0 0 1-.4-2.8 2 2 0 0 1 2.8-.5c1.4 1-1.4 1.6-2 1.6a5.5 5.5 0 0 1-3-.7c-.8-.5-1.7-1.3-1.4-2.4.5-1.9 3-2.3 4.7-2a4.2 4.2 0 0 1 2.7 1.2c.7 1-1.3 1.7-2 2a16.2 16.2 0 0 1-6 .9c-2.3 0-4.9-.2-6.6-1.8a1.8 1.8 0 0 1-.8-1.2c0-.6.6-1 1-1.3a10.7 10.7 0 0 1 3-1.3 27.6 27.6 0 0 1 6.7-1 20.6 20.6 0 0 1 3.5.2 6.3 6.3 0 0 1 1.5.4 3.7 3.7 0 0 1 .8.4c.1.1.6.5.6.7 0 .4-1.2.6-1.5.7a14.3 14.3 0 0 1-1.6.5 19 19 0 0 1-3 .3 32.2 32.2 0 0 1-6.3-.3 22.3 22.3 0 0 1-6.6-1.8 10.7 10.7 0 0 1-2.9-2 4.3 4.3 0 0 1-1.5-2.6c0-1.2 1.3-1.8 2.3-2a20 20 0 0 1 3.1-.6 32.6 32.6 0 0 1 6.5.1 44.4 44.4 0 0 1 6.1 1.1 19 19 0 0 1 6.5 2.5 6 6 0 0 1 1.3 1.2c.1.2.3.5.2.8s-.6.4-.9.6a17.6 17.6 0 0 1-3 1 24.8 24.8 0 0 1-6 .5 52.7 52.7 0 0 1-6.3-.5 47.6 47.6 0 0 1-6.8-1.4 21.1 21.1 0 0 1-6.2-2.8c-1.5-1-4-2.9-3.1-4.9a6 6 0 0 1 2.3-2.3 13.2 13.2 0 0 1 3-1.4 26.6 26.6 0 0 1 6.4-1.2 51.2 51.2 0 0 1 13.2 1c4.5.8 9.1 2.3 12.7 5.2a11.2 11.2 0 0 1 1.3 1.2c.6.6-.2.8-.8 1a16.6 16.6 0 0 1-3.3.5 45.9 45.9 0 0 1-6.8-.1 79.6 79.6 0 0 1-13.7-2.3 24.8 24.8 0 0 1-6.8-2.5c-1.6-1-4-3-3-5.2.8-1.8 3.5-2.4 5.3-2.7a20.5 20.5 0 0 1 5.7 0 40.5 40.5 0 0 1 6.2 1.2 79 79 0 0 1 6.3 2 18 18 0 0 1 6 3.2c0 .1.3-.3.1-.4Z"/><path fill="#e6e6e6" d="M204.4 260.8c-19.4 10.9-19.4 28.4 0 39.2s51 10.9 70.3 0 19.5-28.3 0-39.2-50.9-10.8-70.3 0Z"/><path fill="#ffbda7" d="M277.7 275.7h-.1c-4.2-4.1-7.5-7.2-10.6-12.2a10 10 0 0 1-1.5-3.7c-.1-1.3.4-6.1.7-10.5l2-24.6 1.4-16c.2-2.7.6-12.8.6-15.4-.3-19.1-1.3-53.2-2.6-64.3l-41.9 4.4a75.8 75.8 0 0 0-4.9 32.3c.4 11.5-.3 40.8-.3 40.8a30 30 0 0 0-6.6 16.7c-.7 8.6-2.4 34.8-3.2 38l-.4 1.1c-2.5 2-2.1 5.9-2 8 .5 5.5.7 9.6 1.7 14.2.5 2.4.6 3.6 2.8 5 1.2.7 4.7 1.2 5.8-.2a7 7 0 0 1-1-2 9.7 9.7 0 0 1-.5-2.6c0-1.6-.2-3.7-.1-5.3 0-4.8 1-5.6 3-11.2 2.8-7.9 17.6-48.4 20.3-59.5s3.3-27.8 6.3-43l4 30.8a92.3 92.3 0 0 0-1.8 14.7c-.1 6.8 3.6 35.8 4.6 47.6v.8a31.6 31.6 0 0 1 0 4.2 7.2 7.2 0 0 0 2.8 4.4c1.2 1 2.5 1.8 3.7 2.7 1.8 1.4 3.3 3.2 5.1 4.8 3 2.7 7 4.7 11.1 4.2a4 4 0 0 0 1.8-.5 2 2 0 0 0 1-1.5 3 3 0 0 0-1.2-2.2Z"/><path fill="#455a64" d="m244.7 187.2 1.6-12.2 3.4 21.5-1.2 7.1c-.6 4.9.1 16.3.8 22.8l1.4 13.4c7.8 4 16.8.8 16.8.8l2.3-25c1.7-16.6 1.4-21.7 1.4-40.9 0-12.2.8-33.5-5.5-55.4-6.3 4.4-24.5 5-32-1 0 0-4.9 5.2-10.6 16.8-4.2 8.7-3.6 19.2-3.5 34.7.2 18.1 0 36.1 0 36.1s-4.7 6.3-5.8 13.4a158.3 158.3 0 0 0-1.7 21.3s4.2 6.6 15.6 6.9l9.9-27.4a123.5 123.5 0 0 0 4.8-17.9c1.5-7.6 2-12.8 2.3-15Z"/><path fill="#37474f" d="m246.3 175 4.1-24.1s9.4-.4 14.4-6.4c0 0-.6 7.7-11.6 9.4l-5.2 21.4 1.6 21.2Z"/><path fill="#263238" d="M251.6 270.7a5 5 0 0 0 .2 1.6c.4 1 3.7 2.7 5 3.4a7.7 7.7 0 0 1 3.9 4.1 13.1 13.1 0 0 0 6.6 6.1 21 21 0 0 0 12.4 1.4c5.2-.9 5.6-4 5.6-4s.3-2.8-1-3.3-32.7-9.3-32.7-9.3Z"/><path fill="#37474f" d="M252.6 259.6c-.2 1.2 0 2.5 0 3.8a23.1 23.1 0 0 1-1 3.7 7 7 0 0 0-.3 2c0 .4 0 1.2.3 1.6 2.7 2.8 7 3.5 9 6.4s4 6.5 10.8 7.9 12-.7 13.2-2.6.1-3.8-4.2-6.2a50.4 50.4 0 0 1-10.6-10 31.4 31.4 0 0 1-2.3-3.3 9.7 9.7 0 0 1-1-1.6 8.4 8.4 0 0 1-.2-2.8 1 1 0 0 0-.2-.8.8.8 0 0 0-.6-.1 18.6 18.6 0 0 0-3.5.3 4.2 4.2 0 0 0-1.8.6 3.9 3.9 0 0 0-1.1 1.3 25 25 0 0 0-1.2 2.5 2.2 2.2 0 0 1-.3.6 1.4 1.4 0 0 1-1.6.1 3.2 3.2 0 0 1-1.2-1.3 10 10 0 0 0-.7-1.6 5 5 0 0 0-.7-.6v-.8a1.3 1.3 0 0 0-.3 0 .6.6 0 0 0-.4.3 1.4 1.4 0 0 0-.1.6Z"/><path fill="#fafafa" d="M267 283.4a8.6 8.6 0 0 1 5-7.3c5.2-2.6 8.3-.9 9.8.2 1.9 1.4 4.5 4.2 2.9 6.2-1.8 2.2-4.6 3.2-9.8 3.2s-7.9-2.3-7.9-2.3ZM260.1 267.5a.6.6 0 0 0 .5-.2c.6-.8 4.3-3.8 7.9-2.8.2-.4-.1-.8-.8-1.3-3.8-.4-7.4 2.5-8 3.4a.5.5 0 0 0 .1.8.6.6 0 0 0 .3.1ZM270.5 267.2a1.8 1.8 0 0 0-1-1.3 10.7 10.7 0 0 0-7.5 3.5.6.6 0 0 0 .1.8.6.6 0 0 0 .4 0 .6.6 0 0 0 .5-.2c.5-.7 4-3.6 7.5-2.8ZM276.1 273a3.2 3.2 0 0 0-1.6-1.5c-3.7-.2-7.1 2.5-7.8 3.5a.6.6 0 0 0 .1.8.7.7 0 0 0 .4 0 .6.6 0 0 0 .4-.2c.6-.8 4.8-4.1 8.5-2.5ZM264.8 273a.6.6 0 0 0 .5-.2c.6-.8 4.2-3.7 7.8-2.8a2 2 0 0 0-1.2-1.3 10.7 10.7 0 0 0-7.6 3.5.5.5 0 0 0 .2.8.6.6 0 0 0 .3 0Z"/><path fill="#263238" d="M203.4 268c-1.1.6-1.4 2-.9 3.4s2.1 3.8 2.8 6a31 31 0 0 1 .8 8.6c0 3.4.4 6.6 3.6 9s6.9 2.6 10.7 2.2 6.7-1 6.5-3.2Z"/><path fill="#37474f" d="M209.2 262c.4-.9.9-1.4 1.5-.9a5 5 0 0 1-.5 1.2c-.3.6.8 2.2 1 2.8a11.7 11.7 0 0 1 .4 3.4 1.4 1.4 0 0 0 .1.8c.4.5 1.2.3 1.6-.2l1-1.5a2.6 2.6 0 0 1 2-.7 20 20 0 0 1 3.6.5 1 1 0 0 1 .4.1c.3.3.3.8.2 1.2a25.9 25.9 0 0 0-.3 7.3 65.2 65.2 0 0 0 1.2 7.6 12.3 12.3 0 0 0 .7 2.5 6.9 6.9 0 0 0 1.5 2.2c.6.6 1.5 1 2 1.8a2.6 2.6 0 0 1-.3 2.6 3.9 3.9 0 0 1-2.6 1.5l-3.3.9a15.4 15.4 0 0 1-7.4-1 9 9 0 0 1-3.5-2.5c-1.9-3-1.6-6.4-1.7-9-.1-5.3-1.5-7.4-2.7-10.3a9.2 9.2 0 0 1-.7-4.2c.8-2.4 2.6-2.8 4.3-4.3a5.8 5.8 0 0 0 1.5-1.8Z"/><path fill="#fafafa" d="M211.3 273.6a.6.6 0 0 0 .5 0c.8-.6 5.3-2 8.3.1a1 1 0 0 0 0-1.5c-3.4-1.6-8-.3-9 .4a.6.6 0 0 0-.1.8.7.7 0 0 0 .3.2ZM220.3 276.9c.1-.6.2-1.2-.1-1.4a9.3 9.3 0 0 0-8.7.5.6.6 0 0 0-.1.8.6.6 0 0 0 .3.2.6.6 0 0 0 .5 0c.8-.6 5-2 8-.1ZM221.3 283.4a2 2 0 0 0-.2-1.3c-3.4-1.5-7.2 0-8.2.7a.6.6 0 0 0 0 .8.7.7 0 0 0 .2.2.6.6 0 0 0 .5 0c.9-.6 6-1.8 7.8-.4ZM212.6 280.4a.6.6 0 0 0 .5 0c.8-.6 5.9-2 7.6-.4 0-.6.3-.8-.2-1.3a10.2 10.2 0 0 0-8 .7.6.6 0 0 0-.2.8.6.6 0 0 0 .3.2ZM208 290.6c.5-2.4 7.5-6 14-5a12.2 12.2 0 0 1 4.7 4.1 4.2 4.2 0 0 1 .1 4.2c-.5 1-5.5 2.5-11.6 1.6s-7.2-4.9-7.2-4.9Z"/><path fill="#ffbda7" d="M257.2 81.6c4 .4 9.4 1.6 13.1 9.2 4.8 9.7 11.2 22.9 12.1 34.2.5 5.9-9.5-1.5-9.5-1.5l-8.5-14Z"/><path fill="#f0997a" d="M275 111.4a28.3 28.3 0 0 1-4.1-5.5c2.2-5.3-1.7-11.1-6.2-15l-3.4 6.9 3 11.7 8.6 14s9 6.7 9.5 2.2v-.7l-.4-3c-.9-5.1-5-8.7-7-10.6Z"/><path fill="#d8b4a1" d="M265.8 111.5a16455.3 16455.3 0 0 1 4.3 27.2c-9.4 9.2-44.7 6.6-49.3.1 2-8.7 5.3-15 5.1-18.2l-1.3-16.6s4.3-7.7 3.5-20.2c0 0 9-3.3 16.6-3.3a64.6 64.6 0 0 1 12.5 1c2 2 5 6 8.6 11 4.2 6.3 6 13.8 0 19Z"/><path fill="#ffbda7" d="M254.7 90.8a19.7 19.7 0 0 0 3.2 2.2 12.3 12.3 0 0 1 2.7 1.6 14.4 14.4 0 0 1 4.2 5.6c2 4.9 5 7.8 7.8 10.6s7.7 5.8 9.2 11.3c1 3.7.8 7.5-1.4 9.3-1 .8-5.8-.5-9.2-3.5-4.4-4-9.2-14.5-10.7-17-1.2-2-3.3-3-4.6-5a13 13 0 0 1-2.3-6.3v-3.8a22.9 22.9 0 0 1-.5-4.3 1.8 1.8 0 0 1 .2-.8.7.7 0 0 1 .7-.3 1.1 1.1 0 0 1 .4.2Z"/><path fill="#f0997a" d="M263.1 102.5a15.8 15.8 0 0 0-1.4-4.7c-.4-.7-1-.9-1.5-1.4s-.6-1-1-1.4a4 4 0 0 0-1.7-.8 3.2 3.2 0 0 1-1.5-1c-.4-.5-.9-1-1.4-.8a1 1 0 0 0-.8.8 3.4 3.4 0 0 0 0 1 59.6 59.6 0 0 1 0 6.5v.6a13 13 0 0 0 2 4.7c1.4 1.8 3.5 3 4.7 5l.8 1.5a33 33 0 0 0 1.4-5 15.2 15.2 0 0 0 .4-5Z"/><path fill="#ffbda7" d="M228 83.8c-4.8 1.4-9.9 4.5-8.4 14.3 1.3 9.2 8.1 31.6 9.6 34.6 2.2 4.8 5.2 7.9 8.3 8.6a6.6 6.6 0 0 0 5.2-1.2c6.3-4.4 12.2-17.5 14.7-22.9a42.5 42.5 0 0 0 3.5-10 14.1 14.1 0 0 0 .4-4.8 14.8 14.8 0 0 0-1.3-4.5c-.3-.7-1-.8-1.4-1.3s-.6-1-1-1.4a3.8 3.8 0 0 0-1.6-.7 3 3 0 0 1-1.4-1c-.4-.4-.9-.8-1.4-.7a1 1 0 0 0-.7.7 3 3 0 0 0 0 1 57 57 0 0 1 0 6.2 9.1 9.1 0 0 1-.8 3.8c-.1.2-.2.4-.5.5a.6.6 0 0 1-.5-.2 1.4 1.4 0 0 1-.3-.4l-1-2a4.9 4.9 0 0 0-2-2.1 2 2 0 0 0-1-.3 1 1 0 0 0-.8.5c-.2.4 0 .9.2 1.3a25.6 25.6 0 0 1 1.7 6.2c.2 1 .9 2.3 1.1 3.3.4 1.3-1 3.7-1.7 5a32.6 32.6 0 0 1-6 7.2l-4.6-17.8s.9-9.5-2.6-16.5c-2.2-4.6-5.6-5.4-5.6-5.4Z"/><path fill="#f0997a" d="M240.9 123.5c-3 1.4-5.6 4.2-6.2 5.8 0 0-.3-5.1 5.7-7.8Z"/><path fill="#263238" d="M266.9 44.5c-1.8-3-5.2-4-7.2-3.2-1.6-2.4-5-4-8-4.2-11-1.2-14.9 4.1-15.6 6.1-5.3.6-9 9.3-5.5 18.4 1.7 4.6 5.8 9.8 6.2 12.3l6.2.3a12.5 12.5 0 0 1 8.5-10c7.8-2.7 12.2-4.4 13.4-5.9a11.2 11.2 0 0 0 2-13.8Z"/><path fill="#263238" d="M235.3 35.2c-3 .3-4.9 1.7-5.5 4.5a8.7 8.7 0 0 0-7.6 1.8 6.4 6.4 0 0 0-2 5c.1 1.9 1 2.8 2 4a4.2 4.2 0 0 0-2.5 5c.3 1.3 4.7 6 1 6.3 1.6 1.2 4.5.4 4.4-2a5.2 5.2 0 0 0 4.8 5.5 8 8 0 0 0 8.8-5.7l2.8-20.5c-.7-2.6-3.3-4.1-6.2-3.9Z"/><path fill="#ffbda7" d="M265 53a28.1 28.1 0 0 1 .4 3.7 56.8 56.8 0 0 1 0 7.4c-.8 8.7-5 11.4-7.3 12.4a11.2 11.2 0 0 1-6.8 0l-.3 5s8.8 6.3 1.4 7.2a18.3 18.3 0 0 1-11.3-2.3c-4.4-2.7-5-4.1-5-4.1l.7-12.7s-1.9 1.8-5-1c-2.7-2.3-3.6-6.2-1.6-8.3s5.8-1.6 7.5 1.4c1.2 2.2 2.4.7 2.4-1.9s2-3.1 3-4.4c3-4.2 1-5.6 3.7-8 1.6-1.4 5.7-1.7 8.6.7 3.8-3 8.6-1.4 9.7 4.9Z"/><path fill="#263238" d="M251.6 59.1c0 .7-.5.7-1.2.8s-1.1.1-1.2-.5a1.2 1.2 0 0 1 1.1-1.3 1.2 1.2 0 0 1 1.3 1Z"/><path fill="#fafafa" d="M249 60a1.4 1.4 0 0 0-.3.7v.5a.3.3 0 0 0 0 .2.2.2 0 0 0 .2 0 .5.5 0 0 0 .1 0c.2-.3.4-.6.7-.7s.5 0 .6-.1v-.2h.5a1.1 1.1 0 0 0 .6 0 .7.7 0 0 0 .4-.5.2.2 0 0 0-.1-.2h-.3a2.7 2.7 0 0 1-1.3.3c-.5-.1-.8-.5-1.1 0Z"/><path fill="#263238" d="M261.6 59.6c-.3.7-.6.5-1.2.3s-1.3-.4-1.1-1a1.2 1.2 0 0 1 1.5-.7 1.1 1.1 0 0 1 .8 1.4Z"/><path fill="#fafafa" d="M259.3 59.3c-.4 0-.2.5 0 .6a.8.8 0 0 1 .4 0l.2.3a.6.6 0 0 0 .4.1h.4a1.2 1.2 0 0 1 .7.6 5.2 5.2 0 0 1 .7 1.6l.1.6a3 3 0 0 1 0 1 .8.8 0 0 0 0 .4.2.2 0 0 0 .3.2.2.2 0 0 0 .1-.2.7.7 0 0 0 0-.2 15.6 15.6 0 0 0-.8-3.8 1 1 0 0 0-.3-.4 1.2 1.2 0 0 0-.5-.2 3.2 3.2 0 0 1-1.4-.5 1 1 0 0 0-.3 0Z"/><path fill="#b16668" d="M253.9 67.5c-1.5-.4-3.4.3-3.4 1.2 0 .7.5 1 1.4 1a3.2 3.2 0 0 1 2.1.9 1 1 0 0 0 1.7-.6 2.3 2.3 0 0 0-1.8-2.5Z"/><path fill="#f0997a" d="M251.6 68.2a1.7 1.7 0 0 0-1 .1.8.8 0 0 0-.2.4c0 .7.6 1 1.5 1a4.1 4.1 0 0 1 1.1.3 1.7 1.7 0 0 0-1.4-1.8Z"/><path fill="#263238" d="m260.8 53.5 2.5 2.2a1.6 1.6 0 0 1-2.3.1 1.7 1.7 0 0 1-.2-2.3ZM246.2 56l2.5-2a1.6 1.6 0 0 1-.2 2.3 1.7 1.7 0 0 1-2.3-.3Z"/><path fill="#f0997a" d="m254.3 56 .6 10.1 5.2-1.7-5.8-8.4zM251.3 76.5c-6.6-1.6-10.4-4.3-11.5-7a6.9 6.9 0 0 0 2.9 5.5c3.1 2.2 8.5 3.5 8.5 3.5Z"/><path fill="#d8b4a1" d="M291 81.4a3.8 3.8 0 0 0-2-2.5 4 4 0 0 0-4 .5 13.3 13.3 0 0 1-1.7 1l-1.3.7 1.4 3-2.7.4v2.2l-.6-2.5 2-1-1.3-2.5 3.4-2.3a3.5 3.5 0 0 0-4.7-3.6 3.8 3.8 0 0 0-2.1 1.7c-1.5 2.6 0 5.4 1.1 8.2l1.2 2.8 3-.3c3-.5 6.3-.6 7.8-3.2a3.8 3.8 0 0 0 .4-2.6Z"/><path d="M291 81.4a3.8 3.8 0 0 0-2-2.5 4 4 0 0 0-4 .5 13.3 13.3 0 0 1-1.7 1l-1.3.7 1.4 3-2.7.4v2.2l-.6-2.5 2-1-1.3-2.5 3.4-2.3a3.5 3.5 0 0 0-4.7-3.6 3.8 3.8 0 0 0-2.1 1.7c-1.5 2.6 0 5.4 1.1 8.2l1.2 2.8 3-.3c3-.5 6.3-.6 7.8-3.2a3.8 3.8 0 0 0 .4-2.6Z" opacity=".3"/><path fill="#d8b4a1" d="M208.7 74a3.2 3.2 0 0 0-2.4 1 3.4 3.4 0 0 0-.4 3.4 10.2 10.2 0 0 1 .5 1.6l.2.8 3-.2-.2 2.3 1.6.4-2.2.1-.3-1.9-2.3.5-1.2-3.3a3 3 0 0 0-3.9 3.1 3.1 3.1 0 0 0 1 2c1.8 1.8 4.4 1 7 .8l2.4-.4.4-2.5c.2-2.6.8-5.2-1-7a3.1 3.1 0 0 0-2.2-.8ZM288.3 64a5.8 5.8 0 1 0 7.4-3.9 5.8 5.8 0 0 0-7.4 3.8Z"/><path fill="#fff" d="M288.3 64a5.8 5.8 0 1 0 7.4-3.9 5.8 5.8 0 0 0-7.4 3.8Z" opacity=".4"/><path fill="#455a64" d="M295.4 69a.3.3 0 0 1-.3-.2 2.4 2.4 0 0 0-1.6-1.6 2.3 2.3 0 0 0-2.3.3.3.3 0 0 1-.5-.4 3 3 0 0 1 3-.6 3 3 0 0 1 2.1 2.2.3.3 0 0 1-.3.4.4.4 0 0 1-.1 0ZM296 64.9a.7.7 0 1 0 1-.5.7.7 0 0 0-1 .5ZM291.4 63.5a.7.7 0 1 0 .8-.5.7.7 0 0 0-.8.5Z"/><path fill="#d8b4a1" d="M205 34a8.3 8.3 0 1 0 4.5-11 8.3 8.3 0 0 0-4.4 11Z"/><path fill="#fff" d="M205 34a8.3 8.3 0 1 0 4.5-11 8.3 8.3 0 0 0-4.4 11Z" opacity=".4"/><path fill="#455a64" d="M217.4 33a.5.5 0 0 1-.5 0 3.4 3.4 0 0 0-3.3-.2 3.3 3.3 0 0 0-2.2 2.5.5.5 0 1 1-1-.1 4.3 4.3 0 0 1 2.8-3.3 4.3 4.3 0 0 1 4.3.4.5.5 0 0 1 0 .7.7.7 0 0 1-.1 0ZM214.3 28a1 1 0 1 0 .5-1.4 1 1 0 0 0-.5 1.3ZM208 30.7a1 1 0 1 0 1.7-.7 1 1 0 1 0-1.7.7Z"/><path fill="#d8b4a1" d="m185.9 49.5 9.5 6.4 2.6-2.5 3.6 5.4 2.1-2.5 5.4 5.5-5.1-11.3-2.2 2.8-3.5-7.5-3.5 3.7-3.6-6.7-5.3 6.7zM201.3 67.9l1.3-3.7 7.8.5-9.8-4.4-1.3 2.9-7.6-3.3-.9 6.4 10.5 1.6z"/><g opacity=".3"><path fill="#fff" d="m185.9 49.5 9.5 6.4 2.6-2.5 3.6 5.4 2.1-2.5 5.4 5.5-5.1-11.3-2.2 2.8-3.5-7.5-3.5 3.7-3.6-6.7-5.3 6.7z" opacity=".7"/><path d="m201.3 67.9 1.3-3.7 7.8.5-9.8-4.4-1.3 2.9-7.6-3.3-.9 6.4 10.5 1.6z"/></g><path fill="#d8b4a1" d="m292.7 30.4-6.9 8.4-3.1-1.7-1.9 5.9-2.5-1.8-3.5 6.5 1.7-11.7 2.8 2 1.2-7.7 4.2 2.4 1.5-7 6.5 4.7zM283.5 51.1l-2.2-3-6.9 2.5 7.8-6.5 1.9 2.3 6.1-5 2.4 5.6-9.1 4.1z"/><g opacity=".3"><path d="m292.7 30.4-6.9 8.4-3.1-1.7-1.9 5.9-2.5-1.8-3.5 6.5 1.7-11.7 2.8 2 1.2-7.7 4.2 2.4 1.5-7 6.5 4.7z"/><path fill="#fff" d="m283.5 51.1-2.2-3-6.9 2.5 7.8-6.5 1.9 2.3 6.1-5 2.4 5.6-9.1 4.1z" opacity=".7"/></g><path d="M107.6 320.9a26.8 26.8 0 0 1 5.8-1.2 9.7 9.7 0 0 1 9.2 6.5c.6 1.9.7 4 1.5 5.8 1.6 3.2 5.4 4.5 8.4 6.6 2.2 1.5 4 3.7 6.1 5.5a20.3 20.3 0 0 0 11.2 5.2 12.9 12.9 0 0 0 11.1-4.3 7.3 7.3 0 0 1 2.1-2.1 5 5 0 0 1 2-.4c4.1-.2 9-.2 11.4-3.5s.7-8.6-2.4-11.5-7.2-4.6-10.6-7.3c-2.7-2.2-5-5-7.4-7.4a88.3 88.3 0 0 0-26-17.2c-9.1-4.3-19.8-8-25.2-17.3-4-7-3.3-15.6-6-23.1a32 32 0 0 0-4.4-7.9 28.8 28.8 0 0 0-10.1-8.9 17.8 17.8 0 0 0-13.2-1.3c-4.7 1.5-8.4 5.3-10.6 9.7s-3.1 9.3-3.6 14.2a83.5 83.5 0 0 0 4.6 37.8 31 31 0 0 0 16.2 18.1c9.1 4.3 20 6.5 30 4Z" opacity=".1"/><path fill="#ffbda7" d="M106.5 233.2c5.1 1.2 9.8 3.7 13.1 8.4s12.7 19.8 12.7 19.8l-11.8 5.7Z"/><path fill="#455a64" d="M64.3 272c1.5 15 4.5 25.2 12.8 34l36.3-25.4-.4-17.8Z"/><path fill="#d8b4a1" d="M76.7 232a75.1 75.1 0 0 1 10.4-1.6 75 75 0 0 1 19.5 2.8 49.2 49.2 0 0 1 8.2 12c3.4 6.8 5.3 11 4.5 14.4-1.8 7.2-7.3 7.2-7.3 7.2.2 4.8.1 8.4 0 11-3.8 3-12.2 4-21.7 5-7.7.8-17.2 6.7-20.3 13-4.3-7.9-5.7-20.8-6-26.2a60 60 0 0 1 1-18.4c3-14.2 8.2-18 11.7-19.2Z"/><path fill="#263238" d="M118.4 196.5c-1.6-3-5-4.3-7-3.6-1.4-2.6-4.8-4.3-7.7-4.8-11-1.9-15.1 3.2-16 5.1-5.3.2-9.9 7.6-7.9 18.7.9 4.9 5.8 11 6 13.6l6.8-1a12.5 12.5 0 0 1 9.2-9.4c7.9-2.2 12.4-3.6 13.7-5a11.2 11.2 0 0 0 2.9-13.6Z"/><path fill="#263238" d="M87.5 185.2c-3 0-5 1.3-5.8 4a8.6 8.6 0 0 0-7.7 1.4 6.4 6.4 0 0 0-2.3 5c0 1.7.8 2.7 1.7 4a4.2 4.2 0 0 0-2.9 4.9c.3 1.3 4.4 6.3.6 6.2 1.6 1.4 4.6.7 4.6-1.6a5.2 5.2 0 0 0 4.4 5.8 8 8 0 0 0 9.1-5.1l4.2-20.3c-.5-2.7-3-4.3-5.9-4.3Z"/><path fill="#ffbda7" d="M116 204.8a28.5 28.5 0 0 1 .1 3.7 58.6 58.6 0 0 1-.6 7.4c-1.3 8.7-4.2 11-6.7 12a13.4 13.4 0 0 1-7.5-.2l-.2 5.3s5.7 6.7-1.6 8a12.7 12.7 0 0 1-10.2-3.2 14.6 14.6 0 0 1-3.8-5.8l.5-12.2a4.4 4.4 0 0 1-5.3-1.8c-2-2.8-2.1-6.1 0-8s6-1.3 7.5 1.8c1 2.2 2.3.8 2.5-1.7s2.3-3 3.2-4.2c3.3-4 1.4-5.6 4.3-7.8 1.7-1.3 5.8-1.4 8.6 1.3 3.8-2.7 8.5-.8 9.2 5.4Z"/><path fill="#b16668" d="M104 220a1.5 1.5 0 0 0-.3-.6 2.5 2.5 0 0 0-.7-.4 1.5 1.5 0 0 0-1.4 0 .2.2 0 0 0-.1 0 .1.1 0 0 0 0 .2h.8a2.4 2.4 0 0 1 .6.4 1.8 1.8 0 0 1 .5.4l.3.4.2.2a.1.1 0 0 0 .1-.2 1.1 1.1 0 0 0 0-.4Z"/><path fill="#263238" d="m111.8 205 2.2 2.4a1.6 1.6 0 0 1-2.2 0 1.7 1.7 0 0 1 0-2.3ZM97 206.6l2.7-1.8a1.6 1.6 0 0 1-.4 2.2 1.7 1.7 0 0 1-2.3-.4Z"/><path fill="#f0997a" d="M105.1 207.2v10.1l5.2-1.4-5.2-8.7zM101.3 227.7c-6.5-2.2-10.6-5.3-11.5-8.1a6.9 6.9 0 0 0 2.4 5.7c3 2.4 9 4.2 9 4.2Z"/><path fill="#263238" d="M101.9 208.8c-.1-.8-.6.4-1.5.6s-2-.8-1.8 0a1.6 1.6 0 0 0 1.9 1 1.5 1.5 0 0 0 1.4-1.6ZM109.7 209.2c.2-.8.5.5 1.4.7s2-.5 1.8.3a1.6 1.6 0 0 1-2 .8 1.5 1.5 0 0 1-1.2-1.8Z"/><path fill="#ffbda7" d="M176 329.8a3.4 3.4 0 0 1-1.2 2 9 9 0 0 1-5.4 1.8 18.1 18.1 0 0 1-5.5-.3 10.3 10.3 0 0 1-4.7-2.5 22.9 22.9 0 0 1-2.7-3.5 11 11 0 0 0-2.2-2.5 13.5 13.5 0 0 0-1.3-.7l-1.5-1a12 12 0 0 1-3.5-2.5c-1.7-2-1.3-4.7-1.3-7v-1.8l-.2-.9c-.7-4.5-4.8-19-5.7-21.8l16.3-1.8c.1 5.4.6 16.7 1.1 20.5a18.2 18.2 0 0 0 1 4.5 24 24 0 0 0 4.6 6.6 40.9 40.9 0 0 0 3.9 3.7 13.4 13.4 0 0 0 2 1.4 43 43 0 0 1 4.5 2.4 4 4 0 0 1 1.8 3.4Z"/><path fill="#263238" d="M146.2 321.8a4.9 4.9 0 0 0 .2 1.6c.4.9 3.8 2.6 5.1 3.2a7.7 7.7 0 0 1 4 4 13.2 13.2 0 0 0 7 5.9 21 21 0 0 0 12.3.9c5.2-1 5.5-4.1 5.5-4.1s.2-3-1.1-3.3l-33-8.2Z"/><path fill="#37474f" d="M146.5 310.6c-.6 0-.8.3-.7 1a29.7 29.7 0 0 1 .2 4.1c0 1.5-.5 4.3.2 6.1 2.8 2.7 7 3.3 9.2 6.1s4.2 6.4 11 7.6 12-1.2 13.1-3.1 0-3.8-4.4-6c-4.7-2.4-11-9.6-11-9.6a30.3 30.3 0 0 1-2.4-3.3 25 25 0 0 1-1.5-3.6 3 3 0 0 0-1.1-1.5 3 3 0 0 0-1.8-.1 12.8 12.8 0 0 0-3 .5 4.4 4.4 0 0 0-2.3 1.7 19.5 19.5 0 0 1-1 1.8 2.5 2.5 0 0 1-2.5.9 3 3 0 0 1-1.9-1.6Z"/><path fill="#fafafa" d="M162 334a8.6 8.6 0 0 1 4.8-7.6c5-2.7 8.2-1.1 9.8 0 1.9 1.2 4.6 4 3 6-1.6 2.3-4.4 3.4-9.6 3.6s-8-2-8-2ZM154.6 318.3a.6.6 0 0 0 .4-.3c.6-.8 4.2-4 7.8-3 .2-.5-.1-.9-.9-1.3-3.8-.2-7.2 2.7-7.9 3.7a.6.6 0 0 0 .2.8.7.7 0 0 0 .4 0ZM165 317.6a1.8 1.8 0 0 0-1-1.2 10.8 10.8 0 0 0-7.5 3.7.6.6 0 0 0 .2.8.7.7 0 0 0 .3 0 .6.6 0 0 0 .5-.2c.5-.8 4-3.7 7.5-3ZM170.8 323.3a3.3 3.3 0 0 0-1.7-1.5c-3.7-.1-7 2.7-7.7 3.7a.6.6 0 0 0 .1.8.6.6 0 0 0 .4.1.6.6 0 0 0 .5-.3c.5-.8 4.6-4.3 8.3-2.8ZM159.4 323.7a.6.6 0 0 0 .5-.3c.6-.8 4.1-3.8 7.7-3a2 2 0 0 0-1.2-1.3 10.8 10.8 0 0 0-7.5 3.7.6.6 0 0 0 .2.8.6.6 0 0 0 .3.1Z"/><path fill="#37474f" d="M97.1 297.3c6.7 10.6 20.8 11.2 29.2 6.5 15-8.2 25.9-44.2 24.3-52.8s-11.3-13.5-25.6.4c-7.8 7.5-12 15-17.4 25.1-2.6 1.2-11.1 6.9-13.1 13a22.7 22.7 0 0 0 2.6 7.8Z"/><path fill="#263238" d="M136.7 253.8a73.8 73.8 0 0 0-10.3 27.9 44.4 44.4 0 0 1-7.7 16.4 14.5 14.5 0 0 1-19.2 2.3c7.1 7.7 19.4 7.5 26.8 3.4 9.7-5.3 17.8-23.1 21.8-37.4Z"/><path fill="#37474f" d="M144.4 243.1c4.8 1.3 9.5 7 11.1 24 1.5 15.4 2.1 24.2 2.1 24.2a22.8 22.8 0 0 1-15.3 3.3s-2-5.7-4.4-14-4.2-16.8-1.8-24.8a27 27 0 0 1 8.3-12.7Z"/><path fill="#ffbda7" d="M158.9 338.6a3.4 3.4 0 0 1-1.3 2 9 9 0 0 1-5.3 1.8 18.1 18.1 0 0 1-5.5-.4 10.2 10.2 0 0 1-4.8-2.5 22.8 22.8 0 0 1-2.6-3.4 11.1 11.1 0 0 0-2.2-2.5 11.7 11.7 0 0 0-1.3-.8l-1.5-1a12.5 12.5 0 0 1-3.6-2.4c-1.6-2-1.3-4.7-1.3-7v-1.8l-.1-1c-.7-4.4-4.9-19-5.7-21.7l16.2-1.9c.2 5.4.7 16.8 1.2 20.6a17.8 17.8 0 0 0 1 4.5 23.9 23.9 0 0 0 4.5 6.6 39.6 39.6 0 0 0 3.9 3.7 13 13 0 0 0 2.1 1.3 43 43 0 0 1 4.4 2.4 4 4 0 0 1 1.9 3.5Z"/><path fill="#263238" d="M129 330.6a4.8 4.8 0 0 0 .3 1.6c.4.9 3.8 2.6 5 3.2a7.6 7.6 0 0 1 4 4 13.2 13.2 0 0 0 7 5.8 20.9 20.9 0 0 0 12.4 1c5.1-1.1 5.4-4.2 5.4-4.2s.2-2.8-1-3.2l-33.1-8.2Z"/><path fill="#37474f" d="M129.3 319.3c-.6 0-.7.4-.6 1a29.8 29.8 0 0 1 .2 4.2c-.1 1.5-.6 4.3 0 6.1 2.9 2.7 7.2 3.3 9.4 6.1s4.1 6.4 11 7.5 11.9-1.1 13-3 0-3.8-4.3-6c-4.7-2.4-11-9.7-11-9.7a31.3 31.3 0 0 1-2.4-3.2 28.2 28.2 0 0 1-1.6-3.7 3 3 0 0 0-1-1.4 3 3 0 0 0-1.8-.2 12.8 12.8 0 0 0-2.9.5 4.4 4.4 0 0 0-2.3 1.7 21 21 0 0 1-1 1.9 2.5 2.5 0 0 1-2.6.8 3 3 0 0 1-1.9-1.6Z"/><path fill="#fafafa" d="M144.8 342.7a8.6 8.6 0 0 1 4.8-7.5c5-2.8 8.2-1.2 9.8 0 2 1.2 4.7 4 3 6-1.6 2.3-4.3 3.4-9.6 3.6s-8-2.1-8-2.1ZM137.4 327a.6.6 0 0 0 .4-.2c.6-.8 4.2-4 7.8-3 .2-.5 0-.9-.8-1.3-3.8-.2-7.3 2.7-8 3.7a.6.6 0 0 0 .2.8.6.6 0 0 0 .4 0ZM147.8 326.4a1.8 1.8 0 0 0-1-1.2 10.7 10.7 0 0 0-7.4 3.7.6.6 0 0 0 .1.8.6.6 0 0 0 .4 0 .6.6 0 0 0 .4-.2c.5-.8 4-3.8 7.5-3.1ZM153.6 332a3.2 3.2 0 0 0-1.7-1.4c-3.7-.2-7 2.7-7.7 3.7a.5.5 0 0 0 .2.8.6.6 0 0 0 .3 0 .6.6 0 0 0 .5-.2c.6-.9 4.6-4.3 8.4-2.8ZM142.3 332.5a.6.6 0 0 0 .4-.3c.6-.8 4.1-3.9 7.7-3a2 2 0 0 0-1.2-1.3 10.7 10.7 0 0 0-7.4 3.7.5.5 0 0 0 .1.8.6.6 0 0 0 .4 0Z"/><path fill="#455a64" d="M78.2 307.2c11.4 9.4 22.5 10 31 5.4 14.8-8.2 26-46.3 24.4-55s-10.8-10.5-25.2 3.4a141 141 0 0 0-20.5 25.4C85.3 287.6 75 295 73 301.2a35 35 0 0 0 5.1 6Z"/><path fill="#37474f" d="M119.6 262.6c-2.7 3.2-4.9 20.5-4.7 30 .2 8-3 15-12.5 18.2a28.2 28.2 0 0 1-20.6-1c9.3 6.8 19.9 6.9 27.3 2.7 9.7-5.3 17.8-23.1 21.8-37.4Z"/><path fill="#455a64" d="M128.3 251c4.7 1.3 9.6 7 10.5 22.3l1.6 26.7a22.8 22.8 0 0 1-15.3 3.4s-2-5.7-4.3-14-4.2-16.8-2-24.8 9.5-13.5 9.5-13.5Z"/><path fill="#ffbda7" d="m145.7 259-.8.2a1.8 1.8 0 0 0-1.2.7 1.2 1.2 0 0 0 .1 1.2 2.8 2.8 0 0 0 1 .9 3.4 3.4 0 0 1 .8.5c.7.7.6 1.8 1.3 2.5.5.4 1.2.5 1.8.8a1 1 0 0 1 .4.3c.3.5 0 1.1 0 1.7a1.4 1.4 0 0 0 .8.7l1 .5a11.1 11.1 0 0 1 1.2.8 2.7 2.7 0 0 0 1.2.3 4.2 4.2 0 0 0 3.8-1.6 8.7 8.7 0 0 0 1.2-4.2 14.5 14.5 0 0 0-.3-3.9 22.3 22.3 0 0 0-2.5-6.7 25.5 25.5 0 0 0-2-3c-.8-1-1.6-1.8-2.3-1.5a16 16 0 0 1 .7 1.4l1.5 4c.5 1.3.3 1.7-.9 2.3a17.2 17.2 0 0 1-4.3 1.5l-1.4.3c-.4 0-.8.2-1.1.3Z"/><path fill="#f0997a" d="M148 258.4a11.6 11.6 0 0 1-1.3.4l-1 .2h-.4a3.7 3.7 0 0 0-.4.3l-.3.2-1 .7a1.3 1.3 0 0 0 .2 1 2.8 2.8 0 0 0 1 .8 3.4 3.4 0 0 1 .8.5c.7.7.6 1.9 1.3 2.5a1.8 1.8 0 0 0 .5.3 3 3 0 0 0 0-1.6 4 4 0 0 1-.4-1.2 3.2 3.2 0 0 1 .5-1.3l.7-1.2a2 2 0 0 0 .4-.7.7.7 0 0 0-.3-.7 1 1 0 0 0-.3-.2Z"/><path fill="#ffbda7" d="M76.7 232c-7.7 1.4-10.8 6.5-10.2 13.9s13.2 33.1 16.4 37.4 3.4 7 11.9 4.7c12.3-3.4 18.3-6.4 23.4-8s6-2 10.8-2.3a34.6 34.6 0 0 0 9.1-1.9 16.2 16.2 0 0 0 3.9-1.9 4.6 4.6 0 0 0 1.3-1.3 9.8 9.8 0 0 0 .5-1.8 2 2 0 0 0 1.3-1.2 4.7 4.7 0 0 0 .3-1.7 1.8 1.8 0 0 1 .1-.7 2.5 2.5 0 0 1 .6-.6 3 3 0 0 0 .6-3 3.8 3.8 0 0 1-.4-1.2 3 3 0 0 1 .5-1.2l.7-1.2a2.3 2.3 0 0 0 .4-.8.7.7 0 0 0-.3-.7 1 1 0 0 0-.3-.1 4.5 4.5 0 0 0-3 .9l-.3.2c-.6.4-3.1 2-3.8 2.3a27.2 27.2 0 0 1-5.9 1.8c-.5.2-1.8.4-2.2-.1s0-1.6.2-2.1c.6-1.1 1.3-2.1 1.8-3.3a4.2 4.2 0 0 0 .2-3.6.8.8 0 0 0-.2-.3c-.3-.2-.8.2-1 .5a14 14 0 0 1-2.2 2 50.4 50.4 0 0 0-4.3 3 26.5 26.5 0 0 0-3 3.5c-2.3 3.1-6.1 4.8-9.8 5.5-9 1.8-18.8 4-18.8 4L86 249s-3.3-13.9-9.3-17Z"/><path fill="#37474f" d="M72 136h4.2a17.3 17.3 0 0 1 33-4h4.1a10.8 10.8 0 0 1 10.8 10.8v2.4h2.3a5.8 5.8 0 1 1 0 11.6H72a10.4 10.4 0 1 1 0-20.9Z"/><path fill="#455a64" d="M35.4 164.2h2.5a10.6 10.6 0 0 1 20.3-2.4h2.6a6.6 6.6 0 0 1 6.6 6.6v1.5h1.4a3.5 3.5 0 1 1 0 7.1H35.4a6.4 6.4 0 1 1 0-12.8Z"/><path fill="#d8b4a1" d="M90.3 138.2h8.1l-6.6 10.2h4.8l-11.9 14.7 4.3-11h-4.8l6.1-13.9z"/><path fill="#fff" d="M90.3 138.2h8.1l-6.6 10.2h4.8l-11.9 14.7 4.3-11h-4.8l6.1-13.9z" opacity=".4"/><path fill="#d8b4a1" d="M102.1 152h6.6l-5.4 8.2h3.9l-9.7 12 3.6-8.9h-4l5-11.3z"/><path fill="#fff" d="M102.1 152h6.6l-5.4 8.2h3.9l-9.7 12 3.6-8.9h-4l5-11.3z" opacity=".4"/><path fill="#d8b4a1" d="M45.5 172h6.6l-5.3 8.3h3.8l-9.6 12 3.5-9h-3.9l4.9-11.3z"/><path fill="#fff" d="M45.5 172h6.6l-5.3 8.3h3.8l-9.6 12 3.5-9h-3.9l4.9-11.3z" opacity=".4"/></svg>