<svg xmlns="http://www.w3.org/2000/svg" viewBox="0 0 500 500"><path fill="#f5f5f5" d="M307.6 253.4h110.3V468H307.6z"/><path fill="#e0e0e0" d="M409.2 459.4v-55.3l-.2-140.7.3.2h-93.4l.2-.2v196l-.2-.2H384l18.6.1h6.5-25l-68.3.2h-.2V263h93.7V404.2l-.1 40.6v13.5l-.1 1.1Z"/><path fill="#e0e0e0" d="M405.9 295.2h6.6v32.9h-6.6zM405.9 399.4h6.6v32.9h-6.6zM334.8 388a.7.7 0 0 1 0-.3v-12.1l-.2-30.2.3.3h-8.2l.3-.3V370l-.1 17.9-.2-.1h8.2a3.3 3.3 0 0 1-.5 0h-1.6l-6 .1h-.2v-.1l-.1-18V345.6l.3-.3h8.4v.3l-.1 30.3v11.3a7.6 7.6 0 0 1-.3.8ZM393.6 423.4c0 .2-13.5.3-30.2.3s-30.2-.1-30.2-.3 13.5-.2 30.2-.2 30.3.1 30.3.3ZM393.6 430.5c0 .2-13.5.3-30.2.3s-30.2-.1-30.2-.3 13.5-.2 30.2-.2 30.3 0 30.3.2ZM393.6 437.6c0 .1-13.5.2-30.2.2s-30.2 0-30.2-.2 13.5-.3 30.2-.3 30.3.1 30.3.3ZM393.6 283c0 .1-13.5.3-30.2.3s-30.2-.2-30.2-.3 13.5-.3 30.2-.3 30.3.2 30.3.3ZM393.6 290c0 .2-13.5.3-30.2.3s-30.2 0-30.2-.2 13.5-.3 30.2-.3 30.3.1 30.3.3ZM393.6 297.1c0 .2-13.5.3-30.2.3s-30.2-.1-30.2-.3 13.5-.2 30.2-.2 30.3.1 30.3.2Z"/><path fill="#f5f5f5" d="M87.1 38.5h110.3v214.6H87.1z"/><path fill="#e0e0e0" d="M188.7 244.5V189.2l-.2-140.7.3.2H95.4l.3-.2-.1 196-.2-.2h68.2l18.6.1h6.5-25l-68.3.1h-.2V48.1H189v.2l-.1 141V243.4c0 .6-.2 1.1-.2 1.1Z"/><path fill="#e0e0e0" d="M185.4 80.3h6.6v32.9h-6.6zM185.4 184.6h6.6v32.9h-6.6zM114.3 173v-12.3l-.2-30.2.3.3h-8.2l.3-.3v24.6l-.1 17.9-.2-.2h8.2a4.8 4.8 0 0 1-.5 0h-1.6l-6 .2h-.3V130.5l.2-.2h8.4V160.9l-.2 9v2.3a6 6 0 0 1 0 .8ZM173.2 208.6c0 .1-13.6.2-30.3.2s-30.2-.1-30.2-.2 13.6-.3 30.2-.3 30.3.1 30.3.3ZM173.2 215.6c0 .2-13.6.3-30.3.3s-30.2-.1-30.2-.3 13.6-.2 30.2-.2 30.3 0 30.3.2ZM173.2 222.7c0 .1-13.6.3-30.3.3s-30.2-.2-30.2-.3 13.6-.3 30.2-.3 30.3.2 30.3.3ZM173.2 68.1c0 .1-13.6.3-30.3.3s-30.2-.2-30.2-.3 13.6-.3 30.2-.3 30.3.2 30.3.3ZM173.2 75.2c0 .1-13.6.2-30.3.2s-30.2 0-30.2-.2 13.6-.3 30.2-.3 30.3.1 30.3.3ZM173.2 82.2c0 .2-13.6.3-30.3.3s-30.2-.1-30.2-.3 13.6-.2 30.3-.2 30.2.1 30.2.2Z"/><path fill="#f5f5f5" d="M197.4 38.5h110.3v214.6H197.4z"/><path fill="#e0e0e0" d="M299 244.5V189.2l-.2-140.7.3.2h-93.4l.2-.2v196l-.2-.2h68.2l18.6.1h6.5-25l-68.3.1h-.2v-.1l-.1-196V48h93.8v.2l-.1 141V243.4l-.1 1.1Z"/><path fill="#e0e0e0" d="M295.6 80.3h6.6v32.9h-6.6zM295.6 184.6h6.6v32.9h-6.6zM224.6 173a.7.7 0 0 1 0-.2v-12.1l-.2-30.2.3.3h-8.3l.3-.3V155.1l-.1 17.9-.2-.2h8.2a4.9 4.9 0 0 1-.5 0h-1.6l-6 .2h-.2v-42.5l.2-.2h8.4v.2l-.1 30.4v11.3a8 8 0 0 1-.2.8ZM283.4 208.6c0 .1-13.5.2-30.2.2s-30.2-.1-30.2-.2 13.5-.3 30.2-.3 30.2.1 30.2.3ZM283.4 215.6c0 .2-13.5.3-30.2.3s-30.2-.1-30.2-.3 13.5-.2 30.2-.2 30.2 0 30.2.2ZM283.4 222.7c0 .1-13.5.3-30.2.3s-30.2-.2-30.2-.3 13.5-.3 30.2-.3 30.2.2 30.2.3ZM283.4 68.1c0 .1-13.5.3-30.2.3S223 68.2 223 68s13.5-.3 30.2-.3 30.2.2 30.2.3ZM283.4 75.2c0 .1-13.5.2-30.2.2s-30.2 0-30.2-.2 13.5-.3 30.2-.3 30.2.1 30.2.3ZM283.4 82.2c0 .2-13.5.3-30.2.3s-30.2-.1-30.2-.3 13.5-.2 30.2-.2 30.2.1 30.2.2Z"/><path fill="#f5f5f5" d="M307.6 38.5h110.3v214.6H307.6z"/><path fill="#e0e0e0" d="M409.2 244.5V189.2L409 48.5l.3.2h-93.4l.2-.2v196l-.2-.2H384l18.6.1h6.5-25l-68.3.1h-.2V48.1h93.7v141.2l-.1 40.5V243.4l-.1 1.1Z"/><path fill="#e0e0e0" d="M405.9 80.3h6.6v32.9h-6.6zM405.9 184.6h6.6v32.9h-6.6zM334.8 173a.7.7 0 0 1 0-.2v-12.1l-.2-30.2.3.3h-8.2l.3-.3V155.1l-.1 17.9-.2-.2h8.2a4.9 4.9 0 0 1-.5 0h-1.6l-6 .2h-.2l-.1-18v-24.4l.3-.3h8.4v.2l-.1 30.4v11.3a8 8 0 0 1-.3.8ZM393.6 208.6c0 .1-13.5.2-30.2.2s-30.2-.1-30.2-.2 13.5-.3 30.2-.3 30.3.1 30.3.3ZM393.6 215.6c0 .2-13.5.3-30.2.3s-30.2-.1-30.2-.3 13.5-.2 30.2-.2 30.3 0 30.3.2ZM393.6 222.7c0 .1-13.5.3-30.2.3s-30.2-.2-30.2-.3 13.5-.3 30.2-.3 30.3.2 30.3.3ZM393.6 68.1c0 .1-13.5.3-30.2.3s-30.2-.2-30.2-.3 13.5-.3 30.2-.3 30.3.2 30.3.3ZM393.6 75.2c0 .1-13.5.2-30.2.2s-30.2 0-30.2-.2 13.5-.3 30.2-.3 30.3.1 30.3.3ZM393.6 82.2c0 .2-13.5.3-30.2.3s-30.2-.1-30.2-.3 13.5-.2 30.2-.2 30.3.1 30.3.2Z"/><path fill="#f5f5f5" d="M87.1 253.4h110.3V468H87.1z"/><path fill="#e0e0e0" d="M188.7 459.4v-55.3l-.2-140.7.3.2H95.4l.3-.2-.1 196-.2-.2h68.2l18.6.1h6.5-25l-68.3.2h-.2V263H189v.3l-.1 140.9V458.3c0 .6-.2 1.1-.2 1.1Z"/><path fill="#e0e0e0" d="M185.4 295.2h6.6v32.9h-6.6zM185.4 399.4h6.6v32.9h-6.6zM114.3 388v-12.4l-.2-30.2.3.3h-8.2l.3-.3V370l-.1 17.9-.2-.1h8.2a3.2 3.2 0 0 1-.5 0h-1.6l-6 .1h-.3v-42.5l.2-.2h8.4V375.8l-.2 9v2.3a5.7 5.7 0 0 1 0 .8ZM173.2 423.4c0 .2-13.6.3-30.3.3s-30.2-.1-30.2-.3 13.6-.2 30.2-.2 30.3.1 30.3.3ZM173.2 430.5c0 .2-13.6.3-30.3.3s-30.2-.1-30.2-.3 13.6-.2 30.2-.2 30.3 0 30.3.2ZM173.2 437.6c0 .1-13.6.2-30.3.2s-30.2 0-30.2-.2 13.6-.3 30.2-.3 30.3.1 30.3.3ZM173.2 283c0 .1-13.6.3-30.3.3s-30.2-.2-30.2-.3 13.6-.3 30.2-.3 30.3.2 30.3.3ZM173.2 290c0 .2-13.6.3-30.3.3s-30.2 0-30.2-.2 13.6-.3 30.2-.3 30.3.1 30.3.3ZM173.2 297.1c0 .2-13.6.3-30.3.3s-30.2-.1-30.2-.3 13.6-.2 30.2-.2 30.3.1 30.3.2Z"/><path fill="#f5f5f5" d="M197.4 253.4h110.3V468H197.4z"/><path fill="#e0e0e0" d="M299 459.4v-55.3l-.2-140.7.3.2h-93.4l.2-.2v196l-.2-.2h68.2l18.6.1h6.5-25l-68.3.2h-.2v-.2l-.1-196v-.3h93.8v.3l-.1 140.9V458.3l-.1 1.1Z"/><path fill="#e0e0e0" d="M295.6 295.2h6.6v32.9h-6.6zM295.6 399.4h6.6v32.9h-6.6zM224.6 388a.7.7 0 0 1 0-.3v-12.1l-.2-30.2.3.3h-8.3l.3-.3V370l-.1 17.9-.2-.1h8.2a3.3 3.3 0 0 1-.5 0h-1.6l-6 .1h-.2v-42.6c0-.1-.4.3.2-.3h8.4v.3l-.1 30.4V387a7.6 7.6 0 0 1-.2 1ZM283.4 423.4c0 .2-13.5.3-30.2.3s-30.2-.1-30.2-.3 13.5-.2 30.2-.2 30.2.1 30.2.3ZM283.4 430.5c0 .2-13.5.3-30.2.3s-30.2-.1-30.2-.3 13.5-.2 30.2-.2 30.2 0 30.2.2ZM283.4 437.6c0 .1-13.5.2-30.2.2s-30.2 0-30.2-.2 13.5-.3 30.2-.3 30.2.1 30.2.3ZM283.4 283c0 .1-13.5.3-30.2.3S223 283 223 283s13.5-.3 30.2-.3 30.2.2 30.2.3ZM283.4 290c0 .2-13.5.3-30.2.3s-30.2 0-30.2-.2 13.5-.3 30.2-.3 30.2.1 30.2.3ZM283.4 297.1c0 .2-13.5.3-30.2.3s-30.2-.1-30.2-.3 13.5-.2 30.2-.2 30.2.1 30.2.2ZM261.2 123a2 2 0 0 1 .2-.5l.4-1.5a97.7 97.7 0 0 0 2.8-11.6 6.7 6.7 0 0 0 0-2.2 1.8 1.8 0 0 0-1.3-1.6 2.8 2.8 0 0 0-2.3.6 3.9 3.9 0 0 0-1.2 2.2 13.5 13.5 0 0 0-.3 2.7v.5l-.4-.3a11.8 11.8 0 0 1-2.3-2.6 16.3 16.3 0 0 0-2-2.4 5 5 0 0 0-2.4-1.3 2.5 2.5 0 0 0-2.5.7 2.8 2.8 0 0 0-.5 2.5c.3 1.7 1.7 2.9 2.8 4l3 3.4 4.3 4.8 1.2 1.4a3.3 3.3 0 0 1 .4.5 3.2 3.2 0 0 1-.5-.5l-1.2-1.2-4.5-4.7-3-3.3-1.8-2a5.8 5.8 0 0 1-1.2-2.4 3.3 3.3 0 0 1 .6-2.8 3 3 0 0 1 3-.9 5.6 5.6 0 0 1 2.7 1.4 15.4 15.4 0 0 1 2 2.5 11.3 11.3 0 0 0 2.2 2.5l-.4.2a14.3 14.3 0 0 1 .3-2.9 4.4 4.4 0 0 1 1.4-2.4 3.3 3.3 0 0 1 2.7-.7 2.3 2.3 0 0 1 1.7 2 7.2 7.2 0 0 1 0 2.4l-.5 2.2a86.1 86.1 0 0 1-3.1 10.8 3.5 3.5 0 0 1-.3.5ZM274 126.3s-4.8 1.8-10.7 3.7-10.9 3.4-11 3.3 4.8-1.8 10.8-3.8 10.9-3.4 10.9-3.3ZM260.9 141a19.3 19.3 0 0 1 2.2-3.9 19.5 19.5 0 0 1 2.6-3.5 19.3 19.3 0 0 1-2.2 3.8 19.5 19.5 0 0 1-2.6 3.6Z"/><path fill="#e0e0e0" d="M267.3 139.2a47.3 47.3 0 0 1-9.3-3.3 23.7 23.7 0 0 1 4.7 1.4 24.2 24.2 0 0 1 4.6 2ZM278.9 138.5a21 21 0 0 1-3 1.5 163.4 163.4 0 0 1-15.4 6 21.2 21.2 0 0 1-3.3.9 25.1 25.1 0 0 1 3.2-1.3l7.6-2.9 7.7-3a24 24 0 0 1 3.2-1.2ZM141.7 356.1c-.1 0 1.1-7.5 2.8-16.6s3.2-16.6 3.3-16.6-1.1 7.5-2.8 16.7-3.2 16.6-3.3 16.5ZM147.3 363.7c-.2 0 1.4-8.2 3.5-18.2s3.8-18.1 4-18-1.5 8.1-3.6 18.1-3.8 18.1-4 18.1ZM148.3 377.8c-.2 0 2.7-10.2 6.5-22.7s7-22.7 7-22.6-2.7 10.2-6.5 22.7-7 22.7-7 22.6ZM153.2 382.3c-.2 0 1.6-7.8 4-17.4s4.4-17.4 4.6-17.3-1.7 7.8-4 17.4-4.5 17.4-4.6 17.3Z"/><path fill="#e0e0e0" d="M158.2 370.7c-.1.1-5.9-7.1-12.9-16.1s-12.6-16.4-12.5-16.5 6 7.2 13 16.2 12.5 16.4 12.4 16.4ZM162.2 369.2c-.1.1-4.7-7-10.1-15.9s-9.8-16.1-9.7-16.2 4.7 7 10.1 16 9.8 16 9.7 16.1ZM165.3 361.1a11 11 0 0 1-1-1.4l-2.4-4.2a301.3 301.3 0 0 0-17.5-26.4l-2.8-3.8a10.1 10.1 0 0 1-1-1.5 12 12 0 0 1 1.2 1.3 184.4 184.4 0 0 1 12.2 16.7 224.9 224.9 0 0 1 10.5 17.7 10.7 10.7 0 0 1 .8 1.6ZM174.3 118.5l-.1.5-.4 1.6a19 19 0 0 1-2.9 5.4 21.4 21.4 0 0 1-7.5 6 20.6 20.6 0 0 1-5.8 2 17.2 17.2 0 0 1-6.8-.3 8.2 8.2 0 0 1-3.3-1.5 5.2 5.2 0 0 1-2.2-3.2 3 3 0 0 1 2.3-3.2 5.9 5.9 0 0 1 4 .9c5 3 7.3 10 5.3 16a13 13 0 0 1-6.2 7.4 14.8 14.8 0 0 1-10 1.6 11.6 11.6 0 0 1-8.3-6 7.3 7.3 0 0 1-.3-5.4 5.8 5.8 0 0 1 3.8-4 6.9 6.9 0 0 1 5.4.9 9.7 9.7 0 0 1 3.7 4 22.3 22.3 0 0 1 1.9 5l1.2 5c.6 3.3 1 6.8-.1 10a10.7 10.7 0 0 1-2.7 4.2 12.3 12.3 0 0 1-4.1 2.5 14.9 14.9 0 0 1-9.2.4 23 23 0 0 1-7.8-3.9c-2.2-1.7-4-4-4.2-6.8a6.8 6.8 0 0 1 .8-3.8 4.8 4.8 0 0 1 2.9-2.3 5.2 5.2 0 0 1 3.5.4 8.7 8.7 0 0 1 2.7 2 9.7 9.7 0 0 1 1.7 2.6 12.7 12.7 0 0 1 .9 2.8 14.4 14.4 0 0 1-1.9 9.5 13.5 13.5 0 0 1-4 4.5c-.4.1-.6.3-.9.5l-.6.3-.4.2a4.6 4.6 0 0 1 .4-.3l.6-.3.8-.5a13.6 13.6 0 0 0 4-4.5 14.2 14.2 0 0 0 1.7-9.3 12.3 12.3 0 0 0-.8-2.8 9.2 9.2 0 0 0-1.7-2.5 8.1 8.1 0 0 0-2.6-1.9 4.8 4.8 0 0 0-3.3-.3 4.5 4.5 0 0 0-2.6 2.1 6.4 6.4 0 0 0-.8 3.6c.2 2.6 2 4.8 4.1 6.5a22.2 22.2 0 0 0 7.7 3.7 14.4 14.4 0 0 0 8.8-.3 11.8 11.8 0 0 0 4-2.5 10.2 10.2 0 0 0 2.6-4c1-3 .7-6.5 0-9.8l-1.2-5a21.7 21.7 0 0 0-1.9-4.9 9.3 9.3 0 0 0-3.5-3.7 6.4 6.4 0 0 0-5-.8 5.3 5.3 0 0 0-3.4 3.6 6.7 6.7 0 0 0 .3 5 11.1 11.1 0 0 0 8 5.8 14.4 14.4 0 0 0 9.6-1.6 12.4 12.4 0 0 0 6-7 14.5 14.5 0 0 0 0-8.9 12.5 12.5 0 0 0-5-6.7 5.5 5.5 0 0 0-3.8-.8 2.5 2.5 0 0 0-2 2.8 4.8 4.8 0 0 0 2 2.9 7.7 7.7 0 0 0 3.2 1.5 17.2 17.2 0 0 0 6.7.2 21 21 0 0 0 5.7-1.8 21.5 21.5 0 0 0 7.4-6 19.5 19.5 0 0 0 3-5.2l.4-1.6.2-.5ZM174.3 163.9a17.6 17.6 0 0 1-3.4 2 25.5 25.5 0 0 1-10.4 2.2 23 23 0 0 1-3.5-.2 8.3 8.3 0 0 1-3.7-1.3 4.5 4.5 0 0 1-2-3.7 3.2 3.2 0 0 1 .9-2 4.3 4.3 0 0 1 2-1.3 4.7 4.7 0 0 1 2.4 0 5.2 5.2 0 0 1 2 1 8.3 8.3 0 0 1 2.6 4.2 13 13 0 0 1-1.3 9.8 12.5 12.5 0 0 1-8 6 11.8 11.8 0 0 1-4.8 0 7.5 7.5 0 0 1-4-2 4.3 4.3 0 0 1-1-4.4 3.7 3.7 0 0 1 1-1.8 3 3 0 0 1 2-.7 4.2 4.2 0 0 1 3.4 2 7.1 7.1 0 0 1 1 3.5 16.7 16.7 0 0 1-3 10 12.8 12.8 0 0 1-2.7 3 7.4 7.4 0 0 1 .7-.8 17 17 0 0 0 1.8-2.2 16.8 16.8 0 0 0 2.8-10 6.9 6.9 0 0 0-.9-3.3 3.8 3.8 0 0 0-3-1.8 2.5 2.5 0 0 0-1.7.6 3.3 3.3 0 0 0-1 1.6 3.9 3.9 0 0 0 .9 3.8 7 7 0 0 0 3.8 2 11.4 11.4 0 0 0 4.7-.1 12 12 0 0 0 7.6-5.7 12.5 12.5 0 0 0 1.2-9.4 8 8 0 0 0-2.3-4 4.7 4.7 0 0 0-2-1 4 4 0 0 0-2 .1 3.2 3.2 0 0 0-2.6 2.9 4 4 0 0 0 1.8 3.2 8 8 0 0 0 3.5 1.3 22.2 22.2 0 0 0 3.5.3 25.9 25.9 0 0 0 10.3-2.1 28.4 28.4 0 0 0 2.6-1.3l.6-.4ZM68.6 124.9a2 2 0 0 1 0-.2v-3.2l-.1-9.3.1.1-48.1.1.2-.2v12.7l-.2-.2h34.3l10.1.1h3.7H67.7l-2.7.2H55l-34.6.1h-.2V112.2l.3-.3 48 .1h.2v12.7l-.1.2ZM470 182.5a1.2 1.2 0 0 1 0-.2V179c0-2.2 0-5.3-.2-9.3l.2.1-48.1.1.2-.2v12.7l-.2-.2h34.3l10 .1h3.8-3.7l-10 .1-34.5.1h-.3v-12.8l.3-.2H470v.2l-.1 9.4v3.1a1.4 1.4 0 0 1 0 .2Z"/><path fill="#e0e0e0" d="M476.4 169.8V157l.1.2-29 .1.3-.3v12.8l-.2-.3 20.7.1 6 .1h2.2a4.8 4.8 0 0 1-.5 0h-7.6l-20.9.2h-.2v-13l.2-.2h29.2v.2l-.1 9.4v2.5a4.8 4.8 0 0 1-.2 1ZM78.3 398.1v-3.3l-.1-9.4.1.2H30.2l.2-.2v12.7l-.2-.2 34.3.1h13.8-3.7l-10 .1-34.5.1h-.2V385.3l.2-.3 48.1.1h.2v.2l-.1 9.4v3.1a.8.8 0 0 1 0 .3Z"/><path fill="#e0e0e0" d="M84.8 385.4a1.2 1.2 0 0 1 0-.2v-3.3l-.1-9.2.2.2h-29l.3-.2v12.7l-.2-.2h20.7l6 .1h2.2a3.2 3.2 0 0 1-.6 0h-1.5l-6 .1-20.9.1h-.2v-12.8l.2-.3 29 .1h.1v.2l-.1 9.4v2.5l-.1.8ZM7.7 278.6H54v12.2H7.7z"/><path fill="#ebebeb" d="M40.9 253.4h46.3v12.2H40.9z"/><path fill="#e0e0e0" d="M67.6 278.6a1.1 1.1 0 0 1 0-.3v-12l.1.2H21.4l.3-.2v12.2l-.2-.2h33l9.7.1h3.5H64.3l-9.7.1-33.1.1h-.2v-12.3l.2-.2 46.3.1h.1v12.2a1.4 1.4 0 0 1-.3.2Z"/><path fill="#ebebeb" d="M439.7 349h49.6v13.1h-49.6z"/><path fill="#e0e0e0" d="M468.3 376v-13.1.1l-49.5.1.2-.2V376l-.2-.3 35.3.2h14.3-3.7l-10.4.1-35.5.1h-.3V363l.3-.3 49.6.1h.2v.2l-.1 9.7v3.2a.8.8 0 0 1-.2.2Z"/><path fill="#263238" d="M467.2 468.4c0 .1-98.6.2-220.2.2s-220.2-.1-220.2-.3 98.6-.2 220.2-.2 220.2.1 220.2.3ZM84.6 441.2a3.4 3.4 0 0 1 .2-.5l.6-1.3a33.1 33.1 0 0 0 1.8-5.3 46.6 46.6 0 0 0-.2-20.4 107.4 107.4 0 0 0-3.7-13.7c-1.6-4.9-3.5-10-5-15.6a60.5 60.5 0 0 1-2.5-18c.2-6.3 2.1-12.6 4.2-19s4.2-12.4 4.8-18.6a28.5 28.5 0 0 0-3.4-17.3c-2.7-5-6.2-9.3-8.8-13.8a48.2 48.2 0 0 1-5.2-13.3A49.6 49.6 0 0 1 67 264a38.8 38.8 0 0 1 2.2-7.3 4 4 0 0 1-.1.5l-.5 1.4a53.5 53.5 0 0 0-1.3 5.5 50 50 0 0 0 .6 20.4 47.8 47.8 0 0 0 5.2 13.1c2.6 4.4 6 8.7 8.8 13.8a29.1 29.1 0 0 1 3.6 17.6c-.7 6.3-2.8 12.6-4.9 18.9s-3.9 12.5-4.1 18.8a60.2 60.2 0 0 0 2.4 17.7c1.5 5.6 3.3 10.7 4.9 15.6a108.4 108.4 0 0 1 3.7 13.8 47 47 0 0 1 0 20.5 30.7 30.7 0 0 1-2 5.3l-.7 1.3a3.9 3.9 0 0 1-.2.4Z"/><path fill="#d8b4a1" d="M76.2 302.1s-5.3-16.7 4.1-26.5a.6.6 0 0 1 1 .3c.5 2.8 1.1 11.2-5.1 26.3Z"/><path fill="#263238" d="M79.3 281.2a15.2 15.2 0 0 1-.4 3.1l-1.2 7.4-1.1 7.4a16.2 16.2 0 0 1-.6 3 13.5 13.5 0 0 1 .1-3.1 255.7 255.7 0 0 1 2.4-14.8 13.9 13.9 0 0 1 .8-3Z"/><path fill="#d8b4a1" d="M82.3 341.6s3.2-17.2 16-21.5a.6.6 0 0 1 .8.7c-.8 2.7-4.2 10.4-16.8 20.8Z"/><path fill="#263238" d="M94.8 324.5a16 16 0 0 1-1.7 2.6l-4.5 6-4.5 6a16.4 16.4 0 0 1-2 2.4 13 13 0 0 1 1.6-2.7 90.5 90.5 0 0 1 9-12 14 14 0 0 1 2.1-2.3Z"/><path fill="#d8b4a1" d="M78.8 384.8s-2-17.4 9.1-25.3a.6.6 0 0 1 1 .5c0 2.8-1 11.2-10 24.8Z"/><path fill="#263238" d="M85.9 364.8a16 16 0 0 1-1 3l-2.5 7-2.6 7a17.1 17.1 0 0 1-1.1 2.9 13 13 0 0 1 .7-3 116 116 0 0 1 5.1-14 14 14 0 0 1 1.4-2.9Z"/><path fill="#d8b4a1" d="M88.5 428.2s-1.3-17.4 10-24.9a.6.6 0 0 1 .9.6c-.1 2.8-1.4 11.1-10.9 24.3Z"/><path fill="#263238" d="M96.3 408.5a15.5 15.5 0 0 1-1 3l-2.8 6.9-2.8 6.9a16.2 16.2 0 0 1-1.3 2.8 13.1 13.1 0 0 1 .8-3l2.6-7 3-6.8a14.2 14.2 0 0 1 1.5-2.8Z"/><path fill="#d8b4a1" d="M68.6 287.5s-15.5-8.1-15.8-21.7a.6.6 0 0 1 1-.5c2.2 1.6 8.6 7.1 14.8 22.2Z"/><path fill="#263238" d="M56 270.5a15.6 15.6 0 0 1 2 2.4l4.4 6 4.4 6a15.5 15.5 0 0 1 1.7 2.6 13.7 13.7 0 0 1-2.1-2.3 109.9 109.9 0 0 1-8.8-12 14.6 14.6 0 0 1-1.6-2.7Z"/><path fill="#d8b4a1" d="M85.3 323.4s-16-7.2-17.1-20.7a.6.6 0 0 1 .9-.5c2.4 1.4 9 6.5 16.2 21.2Z"/><path fill="#263238" d="M71.7 307.2a14.6 14.6 0 0 1 2 2.3l4.8 5.7 4.8 5.8a17.8 17.8 0 0 1 1.9 2.4 12.2 12.2 0 0 1-2.3-2.1 104.4 104.4 0 0 1-9.5-11.5 14.3 14.3 0 0 1-1.7-2.6Z"/><path fill="#d8b4a1" d="M76.1 363.4s-11-13.6-5.8-26.2a.6.6 0 0 1 1 0c1.5 2.3 5.1 10 4.8 26.2Z"/><path fill="#263238" d="M71.4 342.8a15 15 0 0 1 .8 3l1.5 7.3c.5 2.8 1.2 5.2 1.7 7.3a17.5 17.5 0 0 1 .6 3 13.2 13.2 0 0 1-1-3 110.5 110.5 0 0 1-3.2-14.5 14 14 0 0 1-.4-3.1Z"/><path fill="#d8b4a1" d="M87 410.5s-15.9-7.4-16.8-21a.6.6 0 0 1 1-.5c2.3 1.5 8.9 6.8 15.8 21.5Z"/><path fill="#263238" d="M73.6 394a15.9 15.9 0 0 1 2 2.4l4.7 5.9L85 408a16.9 16.9 0 0 1 1.9 2.5 12.7 12.7 0 0 1-2.3-2.2 115.9 115.9 0 0 1-9.3-11.7 13.5 13.5 0 0 1-1.7-2.6ZM118.6 341.7v1.4l-.2 4.3-.8 15.2a58.7 58.7 0 0 1-8.7 20.2c-3.2 5-6.6 9.6-9.4 13.8a97 97 0 0 0-7 11.6 49.3 49.3 0 0 0-3.3 8.6l-.6 2.4a4.3 4.3 0 0 1-.3.9 5.2 5.2 0 0 1 .2-1l.4-2.4a45.3 45.3 0 0 1 3.1-8.6 91.6 91.6 0 0 1 7-11.8c2.9-4.3 6.2-8.8 9.3-13.8a59.8 59.8 0 0 0 8.7-20l1.1-15.1.3-4.3.1-1a1.5 1.5 0 0 1 0-.4Z"/><path fill="#d8b4a1" d="M109.1 381.5s6.8-16.2-1.7-26.8a.6.6 0 0 0-1 .2c-.8 2.7-2.2 11.1 2.7 26.6Z"/><path fill="#263238" d="M108 360.4a13.5 13.5 0 0 1 .4 3 144.4 144.4 0 0 1 1 15 13.4 13.4 0 0 1-.1 3 15.6 15.6 0 0 1-.3-3l-.5-7.5-.5-7.4a15.2 15.2 0 0 1 0-3.1Z"/><path d="M109.1 381.5s6.8-16.2-1.7-26.8a.6.6 0 0 0-1 .2c-.8 2.7-2.2 11.1 2.7 26.6Z" opacity=".3"/><path fill="#d8b4a1" d="M88.3 420.5s5.4-16.7-3.9-26.6a.6.6 0 0 0-1 .3c-.5 2.8-1.2 11.2 5 26.3Z"/><path fill="#263238" d="M85.4 399.5a13.9 13.9 0 0 1 .8 3l1.3 7.4.9 7.4a12.5 12.5 0 0 1 0 3.1 15.6 15.6 0 0 1-.5-3l-1-7.4-1.2-7.4a15.4 15.4 0 0 1-.3-3Z"/><path d="M88.3 420.5s5.4-16.7-3.9-26.6a.6.6 0 0 0-1 .3c-.5 2.8-1.2 11.2 5 26.3Z" opacity=".3"/><path fill="#d8b4a1" d="M117.7 361.7s14.3-10 12.9-23.5a.6.6 0 0 0-1-.4c-2 2-7.7 8.2-12 24Z"/><path d="M117.7 361.7s14.3-10 12.9-23.5a.6.6 0 0 0-1-.4c-2 2-7.7 8.2-12 24Z" opacity=".3"/><path fill="#263238" d="M128 343.3a14.4 14.4 0 0 1-1.2 2.8 139.9 139.9 0 0 1-7.1 13.2 13.4 13.4 0 0 1-1.9 2.5 16.4 16.4 0 0 1 1.5-2.8l3.5-6.5 3.6-6.6a14.2 14.2 0 0 1 1.6-2.6Z"/><path fill="#d8b4a1" d="M94.1 404s17.3-2.7 22-15.4a.6.6 0 0 0-.7-.8c-2.8.7-10.6 3.9-21.3 16.2Z"/><path d="M94.1 404s17.3-2.7 22-15.4a.6.6 0 0 0-.7-.8c-2.8.7-10.6 3.9-21.3 16.2Z" opacity=".3"/><path fill="#263238" d="M111.5 391.9a13.4 13.4 0 0 1-2.3 2 131.5 131.5 0 0 1-12.2 8.7 13.2 13.2 0 0 1-2.7 1.4 16.8 16.8 0 0 1 2.5-1.8l6-4.3 6.1-4.3a15.7 15.7 0 0 1 2.6-1.7Z"/><path fill="#455a64" d="m73.6 435.8 5 32.6 19.8-.1 6.7-32.5H73.6z"/><path fill="#263238" d="M102.2 448.4h-.2c-.2 0-.3.3-.5.4a7.3 7.3 0 0 1-2.2.6 8.3 8.3 0 0 1-3.7-.3 7.7 7.7 0 0 1-3.9-2.8 5.4 5.4 0 0 1-.9-2.8 3 3 0 0 1 1.4-2.8 3.2 3.2 0 0 1 3.3.3 4.8 4.8 0 0 1 1.9 3 12.6 12.6 0 0 1 .2 3.7 12 12 0 0 1-.8 3.7 8.4 8.4 0 0 1-2.3 3.3 6.5 6.5 0 0 1-3.8 1.6 7 7 0 0 1-4-1.1 12 12 0 0 1-3-2.7 6.5 6.5 0 0 1-1.5-3.6 4.2 4.2 0 0 1 1.4-3.4 3.2 3.2 0 0 1 3.5-.3 3.8 3.8 0 0 1 2 2.7 5 5 0 0 1-2.4 5.1 7 7 0 0 1-4.8.7 11.3 11.3 0 0 1-3.4-1.3 18 18 0 0 1-1.9-1.3 3.2 3.2 0 0 1-.6-.6 6.3 6.3 0 0 1 .7.5l2 1.2a11 11 0 0 0 3.3 1.2 6.7 6.7 0 0 0 4.5-.7 4.7 4.7 0 0 0 2.3-4.7 3.3 3.3 0 0 0-1.8-2.3 2.7 2.7 0 0 0-3 .2 3.6 3.6 0 0 0-1.2 3 6 6 0 0 0 1.4 3.2 11.3 11.3 0 0 0 2.8 2.6 6.6 6.6 0 0 0 3.7 1 5.8 5.8 0 0 0 3.4-1.4 7.7 7.7 0 0 0 2.2-3 11.6 11.6 0 0 0 .8-3.7 12.4 12.4 0 0 0-.2-3.5 4.4 4.4 0 0 0-1.7-2.7 2.7 2.7 0 0 0-2.8-.3 2.5 2.5 0 0 0-1.2 2.4 5 5 0 0 0 .8 2.5 7.3 7.3 0 0 0 3.7 2.8 8.2 8.2 0 0 0 3.5.4 9.4 9.4 0 0 0 3-.8Z"/><path fill="#d8b4a1" d="M208.8 400.2c4.3 5.8 4.8 13.4 5 20.6s.8 14.8 5 20.6c2 2.7 5 4.8 6.9 7.6a16.4 16.4 0 0 1 3 8.2 11 11 0 0 1-1.6 6.8c-2 3-5.9 4.3-9.4 4a17.8 17.8 0 0 1-9.5-4.8l2.1-3a6 6 0 0 0 11.2-3.3c0-3.7-3.3-6.4-5.8-9.2a29.9 29.9 0 0 1-7.6-16.4"/><path d="M208.8 400.2c4.3 5.8 4.8 13.4 5 20.6s.8 14.8 5 20.6c2 2.7 5 4.8 6.9 7.6a16.4 16.4 0 0 1 3 8.2 11 11 0 0 1-1.6 6.8c-2 3-5.9 4.3-9.4 4a17.8 17.8 0 0 1-9.5-4.8l2.1-3a6 6 0 0 0 11.2-3.3c0-3.7-3.3-6.4-5.8-9.2a29.9 29.9 0 0 1-7.6-16.4" opacity=".3"/><path fill="#d8b4a1" d="M197.8 468.2a13.3 13.3 0 0 0 13.3-13.5l-.7-46.3c0-3.8-.3-8-3-10.8-2-2-4.8-2.6-7.5-3.1-6.9-1.4-14-2-20.8-.3s-13.2 6.1-15.9 12.6c-3.2 7.9-.6 17.2-3.7 25.1-1.4 3.6-3.8 6.6-5.1 10.2-2.2 5.7-1.2 11.9 1.1 17.7a13.3 13.3 0 0 0 12.4 8.4Z"/><path fill="#263238" d="M193.6 394a2 2 0 0 1 .7-.4 3.5 3.5 0 0 1 2.4.3 5 5 0 0 1 2.5 2.7 15.8 15.8 0 0 1 1 4.8c.6 7.3 1.2 17.3 1.6 28.4l.6 15.6.2 6.9c0 2.2.2 4 0 6a14.3 14.3 0 0 1-.8 4.8 8.6 8.6 0 0 1-2.1 3 6.3 6.3 0 0 1-2 1.3 3.4 3.4 0 0 1-.8.2 7 7 0 0 0 2.6-1.5 8.7 8.7 0 0 0 2-3 14.1 14.1 0 0 0 .9-4.8l-.2-6-.3-6.8-.6-15.6c-.4-11-1-21.1-1.5-28.4a15.7 15.7 0 0 0-.9-4.7 4.8 4.8 0 0 0-2.3-2.7 3.6 3.6 0 0 0-2.2-.3l-.8.1ZM178.1 394.5s-1.4-3.7.8-5 8.7-2.7 9.9-1.2 1.5 5 1.5 5l-2-.1s-.6-3.2-1.9-3.2-6.2.6-6.6 1.4a5.5 5.5 0 0 0 0 2.6l-1.7.7"/><path d="m157 437 37.4.7v25.7h-36.7a23 23 0 0 1-4.5-14c0-8.7 3.7-12.4 3.7-12.4Z" opacity=".3"/><path fill="#263238" d="M193.6 446.2c0 .2-9 .3-20.2.3s-20.1-.1-20.1-.3 9-.2 20.1-.2 20.2 0 20.2.2Z"/><path fill="#263238" d="m192 446.4.5 1 .5 1.1a1.3 1.3 0 0 1 .2 1 .8.8 0 0 1-.3.4.8.8 0 0 1-.6.2 1 1 0 0 1-.8-.6 2.3 2.3 0 0 1-.2-.8 3.1 3.1 0 0 1 .1-1.4l.6-1-.2 1.2a3.4 3.4 0 0 0 0 1.1c0 .4.3 1 .6 1s.4-.4.2-.8a6.6 6.6 0 0 1-.4-1.2c-.3-.8-.3-1.2-.2-1.2ZM180.8 395.3a3.4 3.4 0 0 1 .7-.2l2.2-.4a20 20 0 0 1 3.6-.2 9.4 9.4 0 0 1 8.4 5.6 16 16 0 0 1 1.5 6.4 56.6 56.6 0 0 1-.3 7.3 68 68 0 0 0-.2 7.8c.2 5.3.8 10.3 1.4 14.9a118.2 118.2 0 0 1 1 12.3 52.4 52.4 0 0 1-.6 8.2l-.4 2.2a4.6 4.6 0 0 1-.2.8 3.8 3.8 0 0 1 .1-.8l.3-2.2a57.8 57.8 0 0 0 .4-8.2c0-3.5-.5-7.7-1-12.2s-1.3-9.7-1.5-15a66.7 66.7 0 0 1 .2-7.8 56.4 56.4 0 0 0 .4-7.3 15.7 15.7 0 0 0-1.5-6.2 9 9 0 0 0-8-5.5 19.6 19.6 0 0 0-3.5.1l-2.2.3a7.4 7.4 0 0 1-.8 0ZM425.2 225.3a79.8 79.8 0 0 0-13-30.4c-1.8-2.7-4-5.3-7.2-6a2.1 2.1 0 0 0-2.2.5c-.7 1 .3 2.2 1.1 3a37.2 37.2 0 0 1 9 15.7 71.9 71.9 0 0 1 2.5 18 6.2 6.2 0 0 0 .9 3.6c1.1 1.5 3.5 1.6 5.2.8a12.3 12.3 0 0 0 4-4"/><path fill="#455a64" d="M421.2 284.4c-3-15-6-30-6.2-45.1-.2-5.5.5-11.9 5-14.9 2.4-1.5 5.3-1.9 8-2.1s6-.4 8.4 1c2.8 1.4 4.4 4.5 5.5 7.5 2.4 6.5 3.6 13.6 7.2 19.5 3.4 5.7 8.8 10.2 10.8 16.5s.2 13.4-4 18.5-10.4 8.2-16.8 9.5c-4 .8-8.3.9-11.8-1.1-4-2.3-5.3-4.6-6-9.3"/><path fill="#263238" d="m440.8 294.4-.2.1a4.8 4.8 0 0 1-.6.1 7.8 7.8 0 0 1-2.4 0 10.9 10.9 0 0 1-6.9-5 16.5 16.5 0 0 1-2.1-5.5 32.9 32.9 0 0 1-.6-6.8c0-2.4.2-5 0-7.5a32 32 0 0 0-1-8l-2.5-7.6a50.6 50.6 0 0 1-1.8-7.3 44.3 44.3 0 0 1-.2-12.7 41.8 41.8 0 0 1 1.9-8.4l.8-2.2a4.7 4.7 0 0 1 .3-.7 6.1 6.1 0 0 1-.2.8l-.7 2.2a46 46 0 0 0-1.7 8.3 45.3 45.3 0 0 0 .3 12.6 50.5 50.5 0 0 0 1.8 7.3c.8 2.4 1.7 5 2.4 7.7a32.4 32.4 0 0 1 1.2 8l-.1 7.5a33.4 33.4 0 0 0 .5 6.7 16.2 16.2 0 0 0 2 5.4 10.8 10.8 0 0 0 6.7 5 9.7 9.7 0 0 0 3 0Z"/><path fill="#263238" d="M451.5 253a4.7 4.7 0 0 1-.5 1 9.3 9.3 0 0 1-.6 1 14.8 14.8 0 0 1-1 1.5 23 23 0 0 1-3 3.1 26.6 26.6 0 0 1-4.6 3 26.1 26.1 0 0 1-5 2 22.4 22.4 0 0 1-4.4.7 16.4 16.4 0 0 1-1.7 0 7.9 7.9 0 0 1-1.3 0 4 4 0 0 1-1-.3s1.5.1 4-.1a24.8 24.8 0 0 0 4.2-.8 28.3 28.3 0 0 0 5-2 27.1 27.1 0 0 0 4.4-3 24.2 24.2 0 0 0 3-3c1.7-1.8 2.4-3.2 2.5-3.1Z"/><path fill="#263238" d="M432 265s.6.2 1.2.9a2.3 2.3 0 0 1 .7 1.5 2 2 0 0 1-.3 1 1.4 1.4 0 0 1-1 .7 1.3 1.3 0 0 1-1-.4 2 2 0 0 1-.6-.8 2.3 2.3 0 0 1 .1-1.6c.4-.9.8-1.3.8-1.2a8.6 8.6 0 0 1-.4 1.3 2 2 0 0 0 0 1.3c.1.5.6 1 1.1.8a1.2 1.2 0 0 0 .8-1.1 2.1 2.1 0 0 0-.5-1.3l-.8-1.1Z"/><path fill="#d8b4a1" d="m415.2 434.4 1.4 34-40.5 2.2c0-4 22.2-13.3 22.2-13.3l-1.5-22.8Z"/><path fill="#fff" d="M409 454.7a1.8 1.8 0 0 1 1.3 2 1.6 1.6 0 0 1-1.9 1.3 1.9 1.9 0 0 1-1.3-2 1.6 1.6 0 0 1 2-1.2M416.6 468.4l-.3-3.5-38.7 3.5s-1.7.9-1.5 2.2Z" opacity=".6"/><path fill="#263238" d="M397.7 457.7c0 .2 1 .3 2 .9s1.6 1.4 1.8 1.4-.2-1.3-1.4-2-2.4-.4-2.4-.3ZM392.5 460c0 .2.9.5 1.6 1.4s1 1.7 1.2 1.7.2-1.2-.7-2.2-2-1.1-2-.9ZM390.5 465.2c.2 0 .4-1-.2-2.1s-1.5-1.5-1.6-1.4.6.8 1 1.7.6 1.8.8 1.8ZM397.7 452c.1.2 1-.1 2.1-.1s2 .3 2.1.1-.7-.9-2-.9-2.3.8-2.2.9ZM396.7 447a3.6 3.6 0 0 0 2-.1 8.7 8.7 0 0 0 2.1-.8 9.2 9.2 0 0 0 1.1-.7 2.6 2.6 0 0 0 .6-.6 1 1 0 0 0 0-1 1 1 0 0 0-.9-.5 2.4 2.4 0 0 0-.7.2 7.2 7.2 0 0 0-1.2.5 6.9 6.9 0 0 0-1.8 1.4c-1 1-1.2 1.7-1.1 1.8s.5-.7 1.4-1.5a7.8 7.8 0 0 1 1.7-1.1 6.4 6.4 0 0 1 1.2-.5h.9v.3a2 2 0 0 1-.4.4 10 10 0 0 1-1 .7 10.4 10.4 0 0 1-2 .9 13.6 13.6 0 0 0-1.9.6Z"/><path fill="#263238" d="M397 447.3a3.5 3.5 0 0 0 .4-2 7.2 7.2 0 0 0-.4-2.4 7.9 7.9 0 0 0-.6-1.3 1.7 1.7 0 0 0-1.3-1 1 1 0 0 0-.8.7 3.3 3.3 0 0 0-.2.8 5.2 5.2 0 0 0 0 1.4 5 5 0 0 0 1 2.1c1 1 1.8 1.3 1.8 1.2s-.7-.5-1.3-1.5a5 5 0 0 1-.8-2 4.6 4.6 0 0 1 0-1.2c0-.5.2-.8.4-.8s.5.3.7.7a7.3 7.3 0 0 1 .6 1 7.7 7.7 0 0 1 .5 2.2v2Z"/><path fill="#d8b4a1" d="m396 430.7 8.5 33-39 10.8c-.8-4 18.8-17.7 18.8-17.7l-6.3-22Z"/><path fill="#fff" d="M394.3 452a1.7 1.7 0 0 1 1.6 1.5 1.6 1.6 0 0 1-1.5 1.7 1.8 1.8 0 0 1-1.7-1.7c0-.9 1-1.7 1.7-1.6M404.5 463.6l-1-3.3-37 11.7s-1.5 1.3-1 2.5Z" opacity=".6"/><path fill="#263238" d="M383.9 457.3c0 .2 1 0 2.1.4s1.9 1 2 1-.4-1.2-1.8-1.7-2.4.1-2.3.3ZM379.3 460.6c0 .2.9.3 1.8 1s1.3 1.5 1.5 1.4 0-1.2-1.1-2-2.3-.6-2.2-.4ZM378.4 466.1c.2 0 .2-1-.6-2s-1.8-1.1-1.9-1 .7.7 1.4 1.5.9 1.5 1 1.5ZM382.7 451.7c0 .2.9-.3 2-.6s2 0 2-.3-.9-.6-2.2-.4-2 1.2-1.8 1.3ZM380.6 447a3.7 3.7 0 0 0 2-.6 9.1 9.1 0 0 0 1.8-1.2 10.5 10.5 0 0 0 1-1 3 3 0 0 0 .4-.6 1 1 0 0 0-.2-1 1 1 0 0 0-1-.3 2.3 2.3 0 0 0-.7.3 7 7 0 0 0-1 .8 7.3 7.3 0 0 0-1.5 1.7 3.6 3.6 0 0 0-.7 2l1-1.6a8.1 8.1 0 0 1 1.5-1.6 7 7 0 0 1 1-.6c.4-.3.8-.4 1-.2s0 .1 0 .2a2.1 2.1 0 0 1-.4.5 10.6 10.6 0 0 1-.9 1 11.3 11.3 0 0 1-1.7 1.2l-1.6 1Z"/><path fill="#263238" d="M381 447.2a3.4 3.4 0 0 0 0-2 7 7 0 0 0-1.8-3.4 1.7 1.7 0 0 0-1.5-.6 1 1 0 0 0-.7.8 3.6 3.6 0 0 0 0 .8 5.3 5.3 0 0 0 .4 1.3 5 5 0 0 0 1.4 2c1 .8 2 .8 2 .7s-.8-.3-1.7-1.2a4.9 4.9 0 0 1-1.1-1.7 4.2 4.2 0 0 1-.3-1.2c0-.5 0-.9.2-.9a1.2 1.2 0 0 1 .8.5 7.5 7.5 0 0 1 1.8 3l.4 2ZM392.6 132.5c-.3-1.9-2.5-4-4.2-5a12.8 12.8 0 0 0-5.5-1.4 27 27 0 0 0-24.7 13.4 10.3 10.3 0 0 0-1.6 5.8c.2 2 1.7 4 3.7 4.3a4.4 4.4 0 0 0 1.5 7.6c-.6 3 1.3 5.7 3.5 7.7a38.2 38.2 0 0 0 31.8 8.5c3.9-.6 7.8-1.7 10.6-4.3 4.2-3.8 5-10 5.2-15.6a2.5 2.5 0 0 0 3.3 1 3.4 3.4 0 0 0 1.6-3.3 5.5 5.5 0 0 0-1.7-3.4 6.2 6.2 0 0 0 2.5.1 2.1 2.1 0 0 0 1.7-1.7 2.4 2.4 0 0 0-1.3-2l-2.3-1c-2.8-1.6-3.5-5.2-5.1-8a12.2 12.2 0 0 0-19-2.7"/><path fill="#ffbe9d" d="M364.5 151.3c.3-7.5 8.4-15.2 16-14.6L405 141v4l-.7 50.5s-1.8 16.3-15.5 15.6c-12.4-.6-12-13.7-12-13.7l.2-7s-9.7-1.5-11.9-14c-1.1-6.3-1-16.6-.6-25Z"/><path fill="#263238" d="M367.8 160.6a1.6 1.6 0 0 0 1.6 1.6 1.6 1.6 0 0 0 1.6-1.5 1.6 1.6 0 0 0-1.6-1.6 1.6 1.6 0 0 0-1.6 1.5ZM366.8 157.1c.2.2 1.5-.7 3.2-.7s3 .8 3.2.6-.1-.5-.7-.9a4.4 4.4 0 0 0-2.5-.7 4.2 4.2 0 0 0-2.6.8c-.5.5-.7.8-.6 1ZM384.2 160.8a1.6 1.6 0 0 0 1.6 1.6 1.6 1.6 0 0 0 1.6-1.5 1.6 1.6 0 0 0-1.6-1.6 1.5 1.5 0 0 0-1.6 1.5ZM383.7 157.4c.2.2 1.4-.7 3.2-.8s3 .9 3.2.7-.1-.5-.7-1a4.4 4.4 0 0 0-2.6-.7 4.2 4.2 0 0 0-2.5.9c-.5.4-.7.8-.6.9ZM377.9 169.7a12.6 12.6 0 0 0-2.9-.4c-.4 0-.9 0-1-.3a1.6 1.6 0 0 1 .3-1.2l1.3-2.8c1.7-4.1 3-7.5 2.7-7.6s-1.7 3.3-3.4 7.4l-1.2 2.9a2 2 0 0 0-.2 1.4 1.1 1.1 0 0 0 .7.6 3.7 3.7 0 0 0 .8 0 14.3 14.3 0 0 0 2.9 0Z"/><path fill="#eb996e" d="M377 190.3a32.1 32.1 0 0 0 16.8-4.8s-4.2 8.9-16.9 7.9Z"/><path fill="#263238" d="M382.6 169.3c-.3 0-.3 1.8-1.9 3.2s-3.6 1.2-3.6 1.5.4.3 1.3.3a4.8 4.8 0 0 0 3-1 4.1 4.1 0 0 0 1.4-2.8c.1-.8-.1-1.3-.3-1.3ZM383.3 155.6c.3.5 2-.2 4-.5s3.8 0 4-.6c0-.3-.4-.8-1.2-1.2a5.8 5.8 0 0 0-3.2-.5 5.1 5.1 0 0 0-2.9 1.3c-.6.6-.9 1.2-.7 1.5ZM366.7 153.2c.3.7 2 .3 3.8.6s3.4.9 3.8.3c.2-.2 0-.9-.5-1.5a5 5 0 0 0-6.2-.7c-.7.5-1 1-.9 1.3Z"/><path fill="#eb996e" d="M388.5 166.8h.2a.2.2 0 0 0 0-.3h-.2v.3ZM385.7 167l.1-.4c0-.2 0-.3-.2-.3s0 .1 0 .3v.4ZM383 166.4l.2-.2c0-.1-.1-.3-.2-.2v.4ZM386.8 169.6l.2-.2.1-.3c-.1 0-.2 0-.3.2v.3ZM384.5 169v-.4c0-.1 0-.2-.2-.1s0 .1 0 .2l.2.2ZM369 167l.3-.2c0-.1.1-.3 0-.4s-.1 0-.3.2 0 .4 0 .4ZM367.2 167v-.4c0-.2-.2-.3-.3-.3v.4c0 .2.2.3.3.3ZM365.3 167.3v-.3c0-.2-.2-.3-.2-.2v.3c0 .2.1.3.2.2ZM368.5 170l.2-.1v-.3l-.2.1v.3ZM366.7 169.4V169.1s-.2 0-.2.2 0 .2.2.1ZM376.6 167.9v-.7l-.2.4c0 .2.1.3.2.3ZM372 166.8a.1.1 0 0 0 .2-.1.1.1 0 0 0 0-.1.1.1 0 0 0-.2 0v.2ZM377.5 165.2l.2-.2v-.3s-.2 0-.2.2v.3ZM380.7 167.5c.1 0 .2-.2.1-.3l-.1-.2-.1.2.1.3ZM377.8 160.9v-.5s-.2 0-.2.2.1.3.2.3Z"/><path fill="#ffbe9d" d="M404.1 159.8c.2-.1 9.6-2.7 9.2 6.8s-10 7.1-10 6.9l.8-13.7Z"/><path fill="#eb996e" d="m405.6 170 .4.3a1.6 1.6 0 0 0 1.2 0c1-.3 2-1.8 2.1-3.5a5.5 5.5 0 0 0-.3-2.4 2 2 0 0 0-1.2-1.4.8.8 0 0 0-1 .4l-.1.5s-.2-.2-.1-.6a1.1 1.1 0 0 1 .4-.5 1.3 1.3 0 0 1 .9-.2 2.4 2.4 0 0 1 1.7 1.5 5.8 5.8 0 0 1 .4 2.7c-.2 2-1.2 3.7-2.6 4a1.8 1.8 0 0 1-1.5-.3c-.3-.3-.4-.5-.3-.5Z"/><path fill="#263238" d="M364.4 141.6a11.4 11.4 0 0 1 7.3-5.2 33.4 33.4 0 0 1 9.2-.6l26 2.4.7 20.6-2.3 3.3-2 2.1c-2.5-.8-5.3-4.2-5.5-8.2a8.8 8.8 0 0 1-6.3-4.6 11.6 11.6 0 0 1-1-7.8 8.7 8.7 0 0 1-4.8 4.8 5.7 5.7 0 0 1-2.7.5 4.3 4.3 0 0 1-3.3-6 18.2 18.2 0 0 1-8.3 6c-2 .6-4.4.9-6-.4-2.1-1.5-2.2-4.7-1-7ZM371.5 311.2l-9 85.2 17.2 58.5 28.4-5.1-11-65 10.7-45.9s13.9-23.8 14.2-28.4-1.3-16.4-1.3-16.4Z"/><path fill="#263238" d="m413.6 326.2 2.2 61.8 1.6 62.4-17.4.9-11.4-66 14.3-44.1 10.7-15z"/><path fill="#455a64" d="M379.8 455a2.4 2.4 0 0 1 .4-.2l1.3-.2 5-1L405 450l-.2.2-9.6-50.7a786 786 0 0 1-2-10.9l14.5-49.9 5.3-9.3 1.4-2.5.4-.6.1-.2v.2l-.4.7-1.4 2.5-5.2 9.4-14.2 49.8 2 10.7 9.5 50.8v.2h-.1l-18.6 3.3-5 .9-1.4.2Z"/><path fill="#d8b4a1" d="m404.4 188-27.7 10.4s-6.4 16-6.6 21.7c-.3 6.4-2.3 92.5-2.3 92.5s57.3-17.4 57.3-21.6-4.5-7.4-4.5-7.4 4.2-2 2.4-8.8-4.6-39.7-4.6-39.7-.3-23.2-3-30.6-11-16.6-11-16.6Z"/><path fill="#d8b4a1" d="M358.6 231s22.8-21.6 26.8-25.2c4.8-4.3 13.2-10.9 19.6-4.1s6.3 13.9 4 19.9-31 28-31 28Z"/><path fill="#263238" d="M402.9 228.7a3.3 3.3 0 0 1-.4.4l-1.3 1.2-5 4.3-18 15.1-.2.1-.2-.1-19.4-18.6-.2-.2.2-.2 2.7-2.6a374.2 374.2 0 0 1 26.7-23 46.5 46.5 0 0 1 7.7-5.4 17.2 17.2 0 0 1 3.9-1.4 13.3 13.3 0 0 1 3.6-.2 11.6 11.6 0 0 1 5.6 1.8 7.9 7.9 0 0 1 2.5 2.6 4.8 4.8 0 0 1 .4.9 1.1 1.1 0 0 1 .2.3s-.2-.4-.7-1.1a8 8 0 0 0-2.5-2.5 11.6 11.6 0 0 0-5.5-1.7 12.6 12.6 0 0 0-3.5.3 16.4 16.4 0 0 0-3.8 1.4 47.3 47.3 0 0 0-7.6 5.3 364 364 0 0 0-26.6 23.1l-2.7 2.6v-.4l19.4 18.7h-.3c7.5-6.2 13.8-11.3 18.1-15l5.1-4.2 1.3-1.1a5.5 5.5 0 0 1 .5-.4Z"/><path d="M386 242.7a20.3 20.3 0 0 0 23-19.4 343.8 343.8 0 0 1-22.3 19" opacity=".3"/><path fill="#263238" d="m418.3 283.6-.4.3-1.2.7-4.6 2.3a134 134 0 0 1-32.3 10.7l-5 .9-1.5.2a3 3 0 0 1-.4 0 1.5 1.5 0 0 1 .4-.2l1.4-.3 5-1a157.8 157.8 0 0 0 16.4-4.4 161.3 161.3 0 0 0 15.8-6.2l4.6-2.2 1.3-.6a1.7 1.7 0 0 1 .5-.2Z"/><path d="M416.9 284c.7-.8-.8 2.1-1.5 3a20.4 20.4 0 0 1-6.1 4.4 107.3 107.3 0 0 1-15.9 6.3l-14.2 4.7a6.7 6.7 0 0 1-2 .4 2.2 2.2 0 0 1-1.8-.8 2.1 2.1 0 0 1-.1-2 5.2 5.2 0 0 1 1.1-1.7s36.3-9.6 40.5-14.3Z" opacity=".3"/><path fill="#fafafa" d="M389.3 240.2a4.3 4.3 0 0 1-.8-.8l-2-2.2c-1.5-1.9-3.8-4.5-6.3-7.3s-5-5.3-6.7-7l-2-2.1a4.8 4.8 0 0 1-.8-.8 3.9 3.9 0 0 1 .9.7 140.8 140.8 0 0 1 15.3 16.3l1.8 2.3a4.4 4.4 0 0 1 .6.9ZM404.1 226.8l-1.4-3.8a41.9 41.9 0 0 0-4.5-8.4 42.7 42.7 0 0 0-6.4-7.2l-3-2.5a4.4 4.4 0 0 1 .9.5 27 27 0 0 1 2.4 1.8 36.8 36.8 0 0 1 11 15.7 24.7 24.7 0 0 1 .9 2.8 4 4 0 0 1 .1 1ZM407.9 192.8a6.6 6.6 0 0 1-1.4.5l-3.7 1a144.9 144.9 0 0 0-23.9 9.5l-3.4 1.8a7.9 7.9 0 0 1-1.3.6 7.6 7.6 0 0 1 1.2-.8l3.4-1.9a115.4 115.4 0 0 1 23.9-9.5l3.8-1a8.2 8.2 0 0 1 1.4-.2ZM418.4 244.6a2.5 2.5 0 0 1-.4.3l-1.3.7a79.2 79.2 0 0 1-12.4 5.8 105.3 105.3 0 0 1-32.6 7h-1.4a2 2 0 0 1-.6 0 1.5 1.5 0 0 1 .5-.1l1.5-.2a124.5 124.5 0 0 0 32.5-7.2 123 123 0 0 0 12.4-5.5l1.4-.6a1.6 1.6 0 0 1 .4-.2ZM417.1 227.4l-.7.5-2 1.1a43.3 43.3 0 0 1-7 3 43.9 43.9 0 0 1-7.4 1.6l-2.3.2a2.9 2.9 0 0 1-.8 0 29.3 29.3 0 0 1 3-.5 57.2 57.2 0 0 0 7.4-1.8 60 60 0 0 0 7-2.8 27.5 27.5 0 0 1 2.8-1.3ZM416.1 211.6a12 12 0 0 1-4.6 1.6 6.1 6.1 0 0 1 2.2-1 6 6 0 0 1 2.4-.6ZM420 264a2.7 2.7 0 0 1-.5.3l-1.4.7-5.2 2.6a134.5 134.5 0 0 1-36.3 11c-2.4.4-4.4.6-5.7.7l-1.6.2a1.8 1.8 0 0 1-.5 0 2.4 2.4 0 0 1 .5-.1l1.6-.3 5.6-.9a152 152 0 0 0 36.3-11l5.2-2.3 1.4-.7a1.7 1.7 0 0 1 .5-.2ZM422.4 286a1.9 1.9 0 0 1-.5.3l-1.5.7a131 131 0 0 1-5.6 2.5 177 177 0 0 1-18.8 6.8 179.6 179.6 0 0 1-19.5 4.6l-6 .9-1.6.2a2.1 2.1 0 0 1-.6 0 3 3 0 0 1 .6-.1l1.6-.3 6-1.1a222.4 222.4 0 0 0 38.3-11.4l5.6-2.3 1.5-.7a3 3 0 0 1 .5-.1Z"/><path fill="#ffbe9d" d="m375.6 247.5-15.2-14.6-40 41.6a28 28 0 0 0-4 4.4c-.8 1.5-9.8 13.8-9.8 13.8l-13.8 9.2s-.5 2.2 2.4 1.4 11.2-4.5 11.2-4.5-.5 5.7.3 6.8 3.7 3.7 5.2 2.9a5.6 5.6 0 0 0 2-1.5s2.2.8 3.3.3c1-.3.7-1 .6-1a1.9 1.9 0 0 0 2.2.7c1.4-.5 1.7-1.2 1-2.7a22.4 22.4 0 0 0-1.3-2.9l.5-3.3s5.7-6.5 6-8.2a35.6 35.6 0 0 1 1.1-3.8l3-2.6 33.5-27.4Z"/><path fill="#eb996e" d="M311.5 296.5a7 7 0 0 1-.3 1.7 13.3 13.3 0 0 0-.4 4.1 6 6 0 0 0 1.6 3.7 13.5 13.5 0 0 0 1.4 1 2.5 2.5 0 0 1-1.6-.8 5.8 5.8 0 0 1-2-3.8 11 11 0 0 1 .6-4.3 5 5 0 0 1 .7-1.6ZM315.8 296.7a6.4 6.4 0 0 1-.3 1.6 8.5 8.5 0 0 0-.3 3.7 4.3 4.3 0 0 0 .8 1.9 10.3 10.3 0 0 0 1.2 1.2 2.1 2.1 0 0 1 .7 1v.5a2.5 2.5 0 0 0-.9-1.3 7.5 7.5 0 0 1-1.4-1.1 4.5 4.5 0 0 1-1-2 7.6 7.6 0 0 1 .5-4 4.8 4.8 0 0 1 .7-1.5Z"/><path fill="#d8b4a1" d="M212.5 364.4h61.4v47.3h-61.4z"/><path fill="#263238" d="M212.5 399.3s-9.2 25.4-9.2 36c0 11-2.8 25 18.9 32.5l40.5.5a24.6 24.6 0 0 0 21.4-12.4 43.9 43.9 0 0 0 4-8.5c2.5-8.4 6.3-48.4 4.1-51.3s-79.7 3.2-79.7 3.2Z"/><path fill="#455a64" d="M245.5 400.3a1 1 0 0 1 0 .2 37.5 37.5 0 0 1 .9 4 258.5 258.5 0 0 1 3.8 34.6 15.7 15.7 0 0 1-.3 5.4 4.4 4.4 0 0 1-1.7 2.2 7.2 7.2 0 0 1-2.7 1c-2 .4-3.8.5-5.7.7l-11.2 1.2a5.3 5.3 0 0 1-4.7-2.5 5.8 5.8 0 0 1-.6-1.3l-.3-1.3-.5-2.4a143.7 143.7 0 0 0-5-17c-.8-2.4-1.6-4.5-2-6.5a17.5 17.5 0 0 1-.8-5 9.6 9.6 0 0 1 .7-3.3 6.3 6.3 0 0 1 .5-1 10.7 10.7 0 0 0-1 4.2 17.3 17.3 0 0 0 .8 5c.5 2 1.4 4 2.2 6.4a139.6 139.6 0 0 1 5 17l.6 2.5a6.3 6.3 0 0 0 .8 2.4 4.8 4.8 0 0 0 4.3 2.2l11.1-1.1c1.9-.2 3.8-.3 5.6-.7a6.7 6.7 0 0 0 2.5-1 3.9 3.9 0 0 0 1.5-2 15.3 15.3 0 0 0 .3-5.2 256.5 256.5 0 0 0-1.8-22.7c-.6-5-1.2-9-1.7-11.8l-.5-3.2-.1-.8a2 2 0 0 1 0-.3Z"/><path fill="#455a64" d="M249.7 435.7a7.9 7.9 0 0 1 .2-1.6l1-4.3a113.4 113.4 0 0 1 4.2-13.6l2.8-7.4a45.4 45.4 0 0 1 2.8-5.8 24 24 0 0 1 2.5-3.6l.8-.8.3-.3a10.5 10.5 0 0 1-1 1.3 28 28 0 0 0-2.3 3.6c-1.8 3.2-3.4 8-5.4 13.2a141.4 141.4 0 0 0-4.4 13.5l-1 4.2a11.8 11.8 0 0 1-.5 1.6ZM291.6 419a2 2 0 0 1-.3.5l-.8 1.4a135.7 135.7 0 0 1-9 12c-2.3 2.6-5 5.2-7.8 8-3.4 3-6.6 6-9.3 8.7l-.1.1h-.2l-10.4-4-3-1.2a5.3 5.3 0 0 1-1-.5 6.7 6.7 0 0 1 1.1.3l3 1 10.5 3.8h-.2l9.3-8.7a127.8 127.8 0 0 0 13.4-14.8l3.5-5 1-1.3a2.4 2.4 0 0 1 .3-.3Z"/><path fill="#d8b4a1" d="M238.3 453v1.4s-23.8 8.8-24.1 13.2l46.5 1.1-.3-15.5c-7 3-14.2 3.2-22.1-.1Z"/><path fill="#fff" d="M255.6 458a1.9 1.9 0 0 1 1.3 2.3 1.8 1.8 0 0 1-2.2 1.2 2 2 0 0 1-1.3-2.3 1.9 1.9 0 0 1 2.4-1M260.7 468.7V465l-44.6.3s-2.1.8-2 2.3Z" opacity=".6"/><path fill="#263238" d="M238 454.6c0 .2 1.2.3 2.3 1s1.7 1.8 2 1.7-.2-1.4-1.5-2.3-2.8-.6-2.7-.4ZM233.2 456.5c-.1.2.9.6 1.6 1.6s1 2 1.2 2 .4-1.3-.6-2.5-2.2-1.4-2.2-1.1ZM230.3 462.2c.1 0 .5-1 0-2.3s-1.7-1.8-1.8-1.6.6.9 1 2 .5 2 .8 2Z"/><path fill="#ffbe9d" d="m260.4 453.2 1.8-4.6-12.5-4.6-4.4 11.2s6.7 2.7 15.1-2Z"/><path fill="#ffbe9d" d="m229.3 445 7 23.2 16.3-4.8-5.4-21.6a2.7 2.7 0 0 0-1.2-1.7c-2-1-6.9-2.7-14.7.6a3.5 3.5 0 0 0-2 4.2Z"/><path fill="#d8b4a1" d="M233.4 460.7s14 5.3 17.8-3.4l2.4 3 13.3 23.4a3.5 3.5 0 0 1-.8 4.5 3.3 3.3 0 0 1-3.6.2c-6.1-3.3-28.3-15.8-28.8-18.1l-1.5-6.2a3.2 3.2 0 0 1 1.2-3.4Z"/><path fill="#fff" d="m265.5 488.5-32.3-20.4.3 1.4c.3 1.5 1 1.9 2 2.6 2.8 2.3 10 7 26.9 16.3a3.4 3.4 0 0 0 3.1.1ZM235.8 463.2a2 2 0 0 1 1.2 2.4 2 2 0 0 1-2.4 1.2 2.2 2.2 0 0 1-1.2-2.5 2 2 0 0 1 2.6-1" opacity=".6"/><path fill="#263238" d="M254.6 476.6c.2 0 .5-1.8 2.1-3.2s3.5-1.5 3.5-1.7-.5-.2-1.2-.1a5.3 5.3 0 0 0-2.7 1.2 5.2 5.2 0 0 0-1.6 2.6c-.2.7-.2 1.2 0 1.2ZM258 480.2c.2.1 1-1.2 2.4-2s3-1 3-1.3-1.6-.5-3.3.6-2.3 2.7-2.1 2.7ZM249 472.3c.2 0 1.3-2 3.5-3.5s4.5-2.2 4.5-2.4-2.5 0-4.9 1.8-3.3 4-3.1 4ZM246.4 464.8c.2.2 1.7-1 4-1.7s4.2-.6 4.2-.9-2-.6-4.4.2-4 2.3-3.8 2.4Z"/><path fill="#263238" d="M251.7 462.7a2.8 2.8 0 0 0-.5-1.2 8.7 8.7 0 0 0-2.3-2.5 3.8 3.8 0 0 0-2.3-1 1.3 1.3 0 0 0-1.2 1 2.2 2.2 0 0 0 .1 1.6 4.8 4.8 0 0 0 5.7 2.1 5.5 5.5 0 0 0 3.6-4.9 2 2 0 0 0-.6-1.4 1.3 1.3 0 0 0-1.5 0 4.6 4.6 0 0 0-1.5 1.9 9.5 9.5 0 0 0-1 3.3 3 3 0 0 0 0 1.2 15.2 15.2 0 0 1 1.4-4.3 4.4 4.4 0 0 1 1.4-1.6.7.7 0 0 1 .8 0 1.3 1.3 0 0 1 .3 1 4.9 4.9 0 0 1-3.2 4.2 4.1 4.1 0 0 1-4.8-1.8 1.6 1.6 0 0 1-.2-1 .7.7 0 0 1 .7-.6 3.4 3.4 0 0 1 2 .8 13 13 0 0 1 3 3.2Z"/><path fill="#d8b4a1" d="M265.9 356.3a14 14 0 0 1 8.4 3c3.7 3 12 14 12 14l-16 3.4-11-7.7ZM216 358.6c-1.4.5-9.3 2.9-12.2 11.3s-2.2 12.8-.3 17.8l16.6-13.6Z"/><path fill="#eb996e" d="M284.3 397.2c-.2 0-.3-.4-.5-.7s-.4-.4-.4-.6.5-.1.9.4 0 1 0 .9Z"/><path fill="#ffbe9d" d="M202.5 384.5s0 4.2 5 10.4 5 5.9 12.8 6.6 48-3.6 48-3.6l6-9.7-43.4-.5-11.8-13.6Z"/><path fill="#ffbe9d" d="M267.5 396.3s.2 2.8 4.7 3.2l8 .6s5 3.6 5.4 4.3.2 2.8 1 3.2c.7.3 2 .8 2.2-.8a20 20 0 0 0 0-4.2l-2.3-3.4-2.2-2.3 5.3 4.4v1.7a3 3 0 0 0 2 3l1-3.5v-2a3.3 3.3 0 0 0 1.1-2.7c-.1-1.6-2.7-5-2.7-5l-1-.8-.1-1.7-4.3-2.1-15.4.7Z"/><path fill="#ffbe9d" d="m267.2 375-41.3 1.8s-8.2-3.4-11.8-1.3c-1.6.8-5 3-5.5 4-.3.5.6 1.2.6 1.2s-4 1.9-5 2.7a3.9 3.9 0 0 0-1.3 3.4 2 2 0 0 0 2.5 1.3l.9-.3a15.3 15.3 0 0 0-3.2 3.4c-.7 1.3.5 2.7 2 2.5a11.9 11.9 0 0 0 3.7-1.4l-1.8 2.2a11.7 11.7 0 0 0-.6 2.5c0 .8 1.5 1.2 2.4 1.1s5.3-2.7 5.3-2.7l-1.6 2.1a3 3 0 0 0 0 2 2 2 0 0 0 2.4 1.4c1.1-.1 4.6-4.9 4.6-4.9s3-1.3 6.3-2.4 7.3-5.7 7.3-5.7l39.5 1.1 10.1-.6c2.5-.2 4.8-8.3 3-15.1v-.2c-6.3-2.9-12.2-3.5-17.3-.4Z"/><path fill="#eb996e" d="M209.4 392.2a6.9 6.9 0 0 1-2.2 1.3 5.2 5.2 0 0 1-2.8.5l-.5-.1a3 3 0 0 1-.3-.3 3.7 3.7 0 0 1-.6-.7 1.7 1.7 0 0 1 0-2l.7-.8a22.4 22.4 0 0 1 5.3-4.5 9.4 9.4 0 0 1 2.6-1.2s-1 .5-2.4 1.5a26.4 26.4 0 0 0-5.1 4.5l-.6.8c-.7.8.2 2.1 1 2.3a5.1 5.1 0 0 0 2.6-.4c1.4-.5 2.2-1 2.3-.9Z"/><path fill="#eb996e" d="M290 390.3a1 1 0 0 1-.3-.1l-.8-.4-3.2-1.5-8 .4a220.7 220.7 0 0 1-25.3-.2l-7.7-.5-4-.2a32 32 0 0 0-4-.2 7 7 0 0 0-4.3 1.6l-1.8 1.5a18 18 0 0 1-2 1.3 43 43 0 0 1-4 2 29.7 29.7 0 0 0-3.9 2 23.3 23.3 0 0 0-3 2.9c-.6.5-1 1-1.6 1.3a3 3 0 0 1-1.9 1 2.4 2.4 0 0 1-1.8-1 1.9 1.9 0 0 1-.4-2 15.6 15.6 0 0 1 2-3l.2.3a16.5 16.5 0 0 1-5.5 2.6 2.2 2.2 0 0 1-1.5-.2 2 2 0 0 1-.8-1.1 3 3 0 0 1 .5-2.4 24 24 0 0 1 5-4.2 14.4 14.4 0 0 1 1.6-.8 4.4 4.4 0 0 1 .5-.2 3 3 0 0 1-.5.3l-1.5.8a24.9 24.9 0 0 0-5 4.3 2.7 2.7 0 0 0-.3 2.1 1.7 1.7 0 0 0 .7 1 1.8 1.8 0 0 0 1.2 0 16.2 16.2 0 0 0 5.4-2.5l1.1-.7-.9 1a16 16 0 0 0-2 2.9 1.5 1.5 0 0 0 .4 1.5 2 2 0 0 0 1.5.7 2.5 2.5 0 0 0 1.6-.8l1.5-1.3a22.7 22.7 0 0 1 3.1-2.9 28 28 0 0 1 4-2 43.3 43.3 0 0 0 4-2 19.7 19.7 0 0 0 1.9-1.3l1.8-1.5a7.6 7.6 0 0 1 2-1.2 8.5 8.5 0 0 1 2.5-.5 32.6 32.6 0 0 1 4.1.2l4 .2 7.7.6 13.9.6s8-.1 11.3-.3l8.1-.3 3.2 1.6.8.4ZM205.6 388.3s-.2.1-.7.2a2.3 2.3 0 0 1-1.8-.9 2.3 2.3 0 0 1-.5-1.3 3.6 3.6 0 0 1 .2-1.5 3 3 0 0 1 1-1.5l1.6-1 5.5-2.9a12.7 12.7 0 0 1 2.4-1 12.5 12.5 0 0 1-2.2 1.4l-5.5 3-1.5 1a2.5 2.5 0 0 0-.9 1.2 3.3 3.3 0 0 0-.2 1.4 2 2 0 0 0 .4 1 2.1 2.1 0 0 0 1.5.9h.7ZM285.5 393l.4-.1a2 2 0 0 1 1.2.3 17.5 17.5 0 0 1 2.8 2.8 13 13 0 0 1 2.5 3.1c.4 1 .2 1.7.1 1.7a5.4 5.4 0 0 0-.5-1.5 18.3 18.3 0 0 0-2.4-3 30.9 30.9 0 0 0-2.7-2.8 3 3 0 0 0-1.4-.5Z"/><path fill="#eb996e" d="M287 390c0-.1 1 0 1.8.7s1.4 1.3 1.3 1.4-.8-.4-1.6-1-1.6-1-1.5-1.1Z"/><path fill="#263238" d="m218 374.7-1.5-6a23 23 0 0 1-.8-3.2c-1.4-6.6-5.4-30.1 8.5-32.6 0 0 9.9-10.1 21.6-6.3s20.8 13 21.7 22.2c.6 7.2.8 19 .8 23.9a2.4 2.4 0 0 1-2.2 2.4l-20.7 1.7h-19.2a53.8 53.8 0 0 0-8.1-2Z"/><path fill="#263238" d="M244.3 370.5a17.5 17.5 0 0 1 2.1 14.6c-.2.6-.2 1.6.4 1.8a1.2 1.2 0 0 0 1-.3 12 12 0 0 0 4.4-5c-.2 1.3 0 3 1.2 3.3a2.5 2.5 0 0 0 2-.9 23 23 0 0 0 4.5-5.6l.9 4.5a13.6 13.6 0 0 0 6-7 22 22 0 0 0 1.4-9.3c-.2-4.2-1.3-8.5-4.1-11.6a12.9 12.9 0 0 0-21.4 13.6"/><path fill="#455a64" d="M252.4 375a6.3 6.3 0 0 1-.1-1.3l-.3-3.6a54.5 54.5 0 0 0-7.2-22.3c-.7-1.3-1.4-2.3-1.9-3a7 7 0 0 1-.6-1.1 6.3 6.3 0 0 1 .8 1c.5.6 1.2 1.6 2 3a49.3 49.3 0 0 1 7.3 22.3 34.4 34.4 0 0 1 0 3.6 5.8 5.8 0 0 1 0 1.4ZM244.8 371a6.2 6.2 0 0 1-1.2-1.6 25.4 25.4 0 0 1-2.2-4.3 26.3 26.3 0 0 1-1.4-4.6 6 6 0 0 1-.2-2c.2 0 .7 3 2 6.4s3.1 6 3 6.1ZM223 358.4a3.3 3.3 0 0 1-.3-1 25.7 25.7 0 0 1-.6-2.8 18.3 18.3 0 0 1 .7-9.3 11.6 11.6 0 0 1 6.4-6.6 7.8 7.8 0 0 1 2.8-.5 3.4 3.4 0 0 1 1 0 12.2 12.2 0 0 0-3.7.8 11.6 11.6 0 0 0-6 6.5 19.1 19.1 0 0 0-1 9l.7 3.9ZM229.8 358.5a8.7 8.7 0 0 1-.6-2.5 23.1 23.1 0 0 1 1.4-12.6 8.7 8.7 0 0 1 1.2-2.3 37.3 37.3 0 0 0-2.3 8.5 37.7 37.7 0 0 0 .3 8.9ZM224 333.6a9.3 9.3 0 0 1 5 .1 9.2 9.2 0 0 1 4.5 2.4 36.3 36.3 0 0 0-4.6-1.9 36.6 36.6 0 0 0-4.8-.6ZM245 328.6l-2 .1a11.5 11.5 0 0 0-7.8 4.9l-1 1.6a4.6 4.6 0 0 1 .7-1.8 10.4 10.4 0 0 1 8-5 4.6 4.6 0 0 1 2.1.2ZM256.8 337.6c-.1 0-1-1-2.8-2a15 15 0 0 0-15.3-.2c-1.8 1-2.7 2-2.8 1.9s.2-.3.6-.7a12.4 12.4 0 0 1 2-1.5 14.6 14.6 0 0 1 15.7.2 12.5 12.5 0 0 1 2 1.6l.6.7Z"/><path fill="#455a64" d="m258.4 375 .7-1.9a24 24 0 0 0 1-5.3 38.9 38.9 0 0 0-.2-8 44.7 44.7 0 0 0-2.2-9.7 21.8 21.8 0 0 0-5.2-8.3 15.9 15.9 0 0 0-6.9-3.8 12.3 12.3 0 0 0-5.4-.2l-1.9.5a2 2 0 0 1 .5-.2 7.9 7.9 0 0 1 1.4-.5 12.1 12.1 0 0 1 5.5 0 16 16 0 0 1 7.1 3.9 21.8 21.8 0 0 1 5.4 8.4 43.7 43.7 0 0 1 2.2 9.7 35.9 35.9 0 0 1 .1 8.2 22 22 0 0 1-1.2 5.3l-.6 1.4a2 2 0 0 1-.3.5Z"/><path fill="#fafafa" d="m345.7 183.6-6.6-11.5a30.9 30.9 0 1 0-7.4 8.2Z"/><path fill="#263238" d="m345.7 183.6-14-3.1h-.2v-.2l.3.2a30.8 30.8 0 0 1-14.8 6.2 28 28 0 0 1-4.9.3l-2.6-.2-2.6-.4a31.1 31.1 0 0 1-19.3-12.4 30.8 30.8 0 0 1-5.2-12 31.5 31.5 0 0 1 .4-13.7 30.5 30.5 0 0 1 6.6-12.7 31 31 0 0 1 11.9-8.5A31.4 31.4 0 0 1 315 125a30.4 30.4 0 0 1 12.7 3.8 31.3 31.3 0 0 1 14.7 18 33.6 33.6 0 0 1 1.3 10 30.8 30.8 0 0 1-4.6 15.3v-.1l6.4 11.6-6.6-11.4v-.1a30.7 30.7 0 0 0 4.5-15.2 33.1 33.1 0 0 0-1.4-10 31 31 0 0 0-14.5-17.7 30 30 0 0 0-12.5-3.7 31.1 31.1 0 0 0-13.6 2.1 30.5 30.5 0 0 0-11.7 8.4 30 30 0 0 0-6.6 12.5 31.1 31.1 0 0 0-.3 13.5 30.5 30.5 0 0 0 5.1 11.8 30.8 30.8 0 0 0 19 12.2l2.6.4 2.5.1a27.4 27.4 0 0 0 4.8-.2 30.8 30.8 0 0 0 14.7-6l.8-.7-.6.8v-.2Z"/><path d="M297.8 156.7v4h-1.6v-3.5a1.3 1.3 0 0 0-1.4-1.5 1.7 1.7 0 0 0-1.7 1.9v3.1h-1.5v-8.9h1.5v3.7a2.4 2.4 0 0 1 2.3-1.2 2.3 2.3 0 0 1 2.4 2.4ZM303.4 160.8v-.8a2.5 2.5 0 0 1-2.1.8 2 2 0 0 1-2.3-2c0-1.1 1-1.9 2.5-1.9h1.8v-.2c0-.7-.4-1.1-1.4-1.1a3.7 3.7 0 0 0-2 .6l-.5-1.1a5.1 5.1 0 0 1 2.8-.8c1.7 0 2.7.8 2.7 2.3v4.2Zm0-2.3v-.6h-1.7c-.8 0-1.2.3-1.2.8s.5 1 1.2 1a1.6 1.6 0 0 0 1.6-1.2ZM313 156.7v4h-1.6v-3.5a1.3 1.3 0 0 0-1.4-1.5 1.7 1.7 0 0 0-1.7 1.9v3.1h-1.6v-8.9h1.6v3.7a2.4 2.4 0 0 1 2.3-1.2 2.3 2.3 0 0 1 2.4 2.4ZM318.5 160.8v-.8a2.5 2.5 0 0 1-2 .8 2 2 0 0 1-2.3-2c0-1.1.9-1.9 2.4-1.9h1.9v-.2c0-.7-.5-1.1-1.5-1.1a3.7 3.7 0 0 0-1.9.6l-.5-1.1a5.1 5.1 0 0 1 2.8-.8c1.7 0 2.6.8 2.6 2.3v4.2Zm0-2.3v-.6h-1.6c-.8 0-1.2.3-1.2.8s.4 1 1.1 1a1.6 1.6 0 0 0 1.7-1.2ZM328 156.7v4h-1.5v-3.5a1.3 1.3 0 0 0-1.4-1.5 1.7 1.7 0 0 0-1.7 1.9v3.1h-1.6v-8.9h1.6v3.7a2.4 2.4 0 0 1 2.3-1.2 2.2 2.2 0 0 1 2.4 2.4ZM333.6 160.8v-.8a2.5 2.5 0 0 1-2 .8 2 2 0 0 1-2.3-2c0-1.1.9-1.9 2.5-1.9h1.8v-.2c0-.7-.5-1.1-1.4-1.1a3.7 3.7 0 0 0-2 .6l-.5-1.1a5.2 5.2 0 0 1 2.8-.8c1.7 0 2.6.8 2.7 2.3v4.2Zm0-2.3v-.6H332c-.8 0-1.2.3-1.2.8s.4 1 1.1 1a1.6 1.6 0 0 0 1.7-1.2Z"/></svg>