<svg xmlns="http://www.w3.org/2000/svg" viewBox="0 0 500 500"><defs><clipPath id="a"><path fill="none" d="M385.9 87c-3.3-9-11.4-12.8-18.2-8.5a15.3 15.3 0 0 0-5 5.5c-5.3-11.7-16.7-15.5-25.4-8.5a22.9 22.9 0 0 0-6.6 9h-.6a15.5 15.5 0 0 0-7 1.7c-3.6-11.6-11.8-19.5-21.3-20.4-4.9-13.4-17-18.9-27-12.4a22.9 22.9 0 0 0-7.3 8c-7.9-17.3-24.8-23-37.8-12.6a34 34 0 0 0-9.8 13.4h-.9c-12.1 0-23 10-27.3 25l-1.1-.2c-3.3-9-11.4-12.8-18.2-8.4a15.2 15.2 0 0 0-5 5.4c-5.3-11.6-16.7-15.4-25.5-8.4a23 23 0 0 0-6.5 9h-.7c-10.8 0-19.6 11.8-19.6 26.2s8.9 26.1 19.7 26c5.5 0 10.6-3 14.3-8.2 4.5 6.5 11.9 7.7 17.5 3 5 7.3 13.7 7.8 19.2 1l.7-.8a13.6 13.6 0 0 0 12-3.3c11.4 15.1 29.9 15 41.3-.1l.5-.8c6.7 9.6 17.6 11.5 26 4.4 7.5 11 20.3 11.7 28.5 1.6l1-1.3c6.6 1.5 13.3-.6 18.7-5.7 6.6 11.5 19 13.6 27.6 4.8a23.6 23.6 0 0 0 2.3-2.8c4.5 6.5 11.9 7.8 17.5 3 5 7.4 13.6 7.9 19.2 1.1l.7-.9c9.2 2.1 18-6 19.6-18.4s-4.6-24-13.8-26a13.8 13.8 0 0 0-1.7-.4Z"/></clipPath></defs><path fill="#263238" d="M108.3 340.4s40.3 54.6 119.3 62.8 101.4-43.7 129.2-70S442 288 447.1 223.6s-29.3-97.4-77.8-96.7-63.4-10.6-104.2-33.3S155.8 79.2 123 112s-57.3 48.8-65 110.6 50.3 117.8 50.3 117.8Z"/><path fill="#fff" d="M108.3 340.4s40.3 54.6 119.3 62.8 101.4-43.7 129.2-70S442 288 447.1 223.6s-29.3-97.4-77.8-96.7-63.4-10.6-104.2-33.3S155.8 79.2 123 112s-57.3 48.8-65 110.6 50.3 117.8 50.3 117.8Z" opacity=".3"/><g fill="none" stroke="#263238" stroke-linecap="round" stroke-linejoin="round"><path d="M387.1 366.8h58.1M81.2 366.8h40"/></g><path fill="#d8b4a1" d="M84.4 319.8s-2-9-12.5-9-22.8 6.3-22.8 6.3 11.4 3.4 17.3 6 14.9 3.4 18-3.3ZM97.3 324.2c-.1 0-7-4.3-5.2-10.6s10.1-14 10.8-18.8c0 0 11.2 27.3-5.6 29.4ZM114 333.6s-3-6.3 3.5-11.1 26.3-5.4 26.3-5.4-8.3 5.9-11 10.3-13 11.8-18.8 6.2ZM127.5 302.4s-2.3-6.8 7-10 20-2.1 25.1-5c0 0-19.1 28.5-32 15ZM83.4 307.1s3.4-17.9-16.3-25.2c0 0 3.4 3.6 3 10.9S69.8 308 83.4 307Z"/><path d="M84.4 319.8s-2-9-12.5-9-22.8 6.3-22.8 6.3 11.4 3.4 17.3 6 14.9 3.4 18-3.3ZM97.3 324.2c-.1 0-7-4.3-5.2-10.6s10.1-14 10.8-18.8c0 0 11.2 27.3-5.6 29.4ZM114 333.6s-3-6.3 3.5-11.1 26.3-5.4 26.3-5.4-8.3 5.9-11 10.3-13 11.8-18.8 6.2ZM127.5 302.4s-2.3-6.8 7-10 20-2.1 25.1-5c0 0-19.1 28.5-32 15ZM83.4 307.1s3.4-17.9-16.3-25.2c0 0 3.4 3.6 3 10.9S69.8 308 83.4 307Z" opacity=".2"/><path fill="#263238" d="M88.7 345.8h28.2l-4.6 21.6H94l-5.3-21.6z"/><path fill="none" stroke="#263238" stroke-linecap="round" stroke-linejoin="round" d="m105.9 346.7 9-31 12.2-23.4M118.6 331.1l-9.8 5.4M81.3 301.7l18.2 45M99.5 317.1l-5.2 16.7M79.1 317.1l10.6 5.4M118.6 308.6l16.9-9.3"/><path fill="#263238" d="M385.9 87c-3.3-9-11.4-12.8-18.2-8.5a15.3 15.3 0 0 0-5 5.5c-5.3-11.7-16.7-15.5-25.4-8.5a22.9 22.9 0 0 0-6.6 9h-.6a15.5 15.5 0 0 0-7 1.7c-3.6-11.6-11.8-19.5-21.3-20.4-4.9-13.4-17-18.9-27-12.4a22.9 22.9 0 0 0-7.3 8c-7.9-17.3-24.8-23-37.8-12.6a34 34 0 0 0-9.8 13.4h-.9c-12.1 0-23 10-27.3 25l-1.1-.2c-3.3-9-11.4-12.8-18.2-8.4a15.2 15.2 0 0 0-5 5.4c-5.3-11.6-16.7-15.4-25.5-8.4a23 23 0 0 0-6.5 9h-.7c-10.8 0-19.6 11.8-19.6 26.2s8.9 26.1 19.7 26c5.5 0 10.6-3 14.3-8.2 4.5 6.5 11.9 7.7 17.5 3 5 7.3 13.7 7.8 19.2 1l.7-.8a13.6 13.6 0 0 0 12-3.3c11.4 15.1 29.9 15 41.3-.1l.5-.8c6.7 9.6 17.6 11.5 26 4.4 7.5 11 20.3 11.7 28.5 1.6l1-1.3c6.6 1.5 13.3-.6 18.7-5.7 6.6 11.5 19 13.6 27.6 4.8a23.6 23.6 0 0 0 2.3-2.8c4.5 6.5 11.9 7.8 17.5 3 5 7.4 13.6 7.9 19.2 1.1l.7-.9c9.2 2.1 18-6 19.6-18.4s-4.6-24-13.8-26a13.8 13.8 0 0 0-1.7-.4Z"/><g clip-path="url(#a)"><path fill="#fff" d="M385.9 87c-3.3-9-11.4-12.8-18.2-8.5a15.3 15.3 0 0 0-5 5.5c-5.3-11.7-16.7-15.5-25.4-8.5a22.9 22.9 0 0 0-6.6 9h-.6a15.5 15.5 0 0 0-7 1.7c-3.6-11.6-11.8-19.5-21.3-20.4-4.9-13.4-17-18.9-27-12.4a22.9 22.9 0 0 0-7.3 8c-7.9-17.3-24.8-23-37.8-12.6a34 34 0 0 0-9.8 13.4h-.9c-12.1 0-23 10-27.3 25l-1.1-.2c-3.3-9-11.4-12.8-18.2-8.4a15.2 15.2 0 0 0-5 5.4c-5.3-11.6-16.7-15.4-25.5-8.4a23 23 0 0 0-6.5 9h-.7c-10.8 0-19.6 11.8-19.6 26.2s8.9 26.1 19.7 26c5.5 0 10.6-3 14.3-8.2 4.5 6.5 11.9 7.7 17.5 3 5 7.3 13.7 7.8 19.2 1l.7-.8a13.6 13.6 0 0 0 12-3.3c11.4 15.1 29.9 15 41.3-.1l.5-.8c6.7 9.6 17.6 11.5 26 4.4 7.5 11 20.3 11.7 28.5 1.6l1-1.3c6.6 1.5 13.3-.6 18.7-5.7 6.6 11.5 19 13.6 27.6 4.8a23.6 23.6 0 0 0 2.3-2.8c4.5 6.5 11.9 7.8 17.5 3 5 7.4 13.6 7.9 19.2 1.1l.7-.9c9.2 2.1 18-6 19.6-18.4s-4.6-24-13.8-26a13.8 13.8 0 0 0-1.7-.4Z" opacity=".2" style="isolation:isolate"/></g><path fill="#d8b4a1" d="m184.3 109.4-5.9 21h8.5l-10.5 34.9 23-36.7-9.2-5.2 10.5-18.4-16.4 4.4z"/><path fill="#263238" d="M385.9 96.9c-3.3-9-11.4-12.8-18.2-8.4a15.5 15.5 0 0 0-5 5.5c-5.3-11.7-16.7-15.5-25.4-8.5a22.7 22.7 0 0 0-6.6 9h-.7a15.5 15.5 0 0 0-6.9 1.7c-3.6-11.6-11.9-19.5-21.3-20.4-4.9-13.4-17-19-27-12.4a22.9 22.9 0 0 0-7.4 8c-7.8-17.3-24.7-23-37.7-12.6a33.8 33.8 0 0 0-9.8 13.3h-.9c-12 0-22.9 10-27.2 25a10.7 10.7 0 0 1-1.1-.2c-3.3-9-11.5-12.7-18.2-8.3a15.5 15.5 0 0 0-5 5.4c-5.3-11.7-16.7-15.5-25.5-8.5a22.8 22.8 0 0 0-6.6 9h-.6c-6.5 0-12.7 4.3-16.3 11.5 6 12 18.3 15.1 27.3 7a22.8 22.8 0 0 0 3.3-3.7c4.5 6.5 11.9 7.7 17.4 3 5.1 7.3 13.7 7.8 19.3 1l.7-.8a13.6 13.6 0 0 0 12-3.3c11.4 15.1 29.9 15 41.2-.1l.6-.8c6.7 9.6 17.6 11.5 25.9 4.4 7.5 11 20.3 11.7 28.5 1.6l1-1.3a20 20 0 0 0 4.2.5 21.2 21.2 0 0 0 14.6-6.2c6.6 11.4 19 13.6 27.5 4.8a21.6 21.6 0 0 0 2.4-2.8c4.5 6.5 11.8 7.7 17.4 3 5 7.4 13.7 7.9 19.2 1.1l.7-1c6 1.4 12-1.5 15.8-7.5a16 16 0 0 0-11.6-8Z"/><path fill="#fff" d="M468.2 242c-3.9-2.2-5.7-.4-7.1-2.2s4-6.4-6.8-11c0 0-.8-10-15.5-10.5s-10.7 10-14.7 12.6-5-1.4-9 1-2.1 7.6-5.3 8.3-7.6-3.2-11.5-.7-4 4.7-5.7 4.7-5.4-1.5-7.6 0l-4.6 3.2H471s1-3.3-2.9-5.4Z" style="isolation:isolate"/><path d="M468.2 242c-3.9-2.2-5.7-.4-7.1-2.2s4-6.4-6.8-11c0 0-.8-10-15.5-10.5s-10.7 10-14.7 12.6-5-1.4-9 1-2.1 7.6-5.3 8.3-7.6-3.2-11.5-.7-4 4.7-5.7 4.7-5.4-1.5-7.6 0l-4.6 3.2H471s1-3.3-2.9-5.4Z" opacity=".2" style="isolation:isolate"/><path fill="#fff" d="M122 229c-4.2-2.3-6.2-.4-7.7-2.3s4.2-7-7.3-12c0 0-.8-10.7-16.6-11.1S78.9 214.3 74.6 217s-5.4-1.5-9.6 1.2-2.3 8-5.8 8.9-8-3.5-12.3-.8-4.2 5-6.2 5-5.7-1.6-8 0l-5 3.4H125s1.2-3.5-3.1-5.7Z" style="isolation:isolate"/><path d="M122 229c-4.2-2.3-6.2-.4-7.7-2.3s4.2-7-7.3-12c0 0-.8-10.7-16.6-11.1S78.9 214.3 74.6 217s-5.4-1.5-9.6 1.2-2.3 8-5.8 8.9-8-3.5-12.3-.8-4.2 5-6.2 5-5.7-1.6-8 0l-5 3.4H125s1.2-3.5-3.1-5.7Z" opacity=".2" style="isolation:isolate"/><path fill="#fff" d="M209.6 180.9h90.7l-4.7-3.3c-2.2-1.4-5.7 0-7.5 0s-1.8-2.1-5.7-4.6-8.3 1.4-11.5.7-1.5-5.7-5.4-8.2-5 1.4-9-1.1 0-13-14.7-12.6-15.4 10.4-15.4 10.4c-10.8 4.7-5.4 9.4-6.8 11.1s-3.3 0-7.2 2.2-2.8 5.4-2.8 5.4Z" style="isolation:isolate"/><path d="M209.6 180.9h90.7l-4.7-3.3c-2.2-1.4-5.7 0-7.5 0s-1.8-2.1-5.7-4.6-8.3 1.4-11.5.7-1.5-5.7-5.4-8.2-5 1.4-9-1.1 0-13-14.7-12.6-15.4 10.4-15.4 10.4c-10.8 4.7-5.4 9.4-6.8 11.1s-3.3 0-7.2 2.2-2.8 5.4-2.8 5.4Z" opacity=".2" style="isolation:isolate"/><g fill="none" stroke="#263238" stroke-linecap="round" stroke-linejoin="round"><path d="m146.2 121-4.4 30.3M193.5 140.9l-4.3 30.3M135.6 194.5l-2.9 19.5M160.6 169.2l-2.9 19.5M128.7 242.3l-4.4 30.4M336.4 152.5l-4.3 30.4M147.1 388l-2.5 16.9M324.1 126.6l-2.4 16.9M155.6 237.3l-2.5 16.8M255.9 328.3l-2.4 16.9M204.6 398.3l-2.5 16.9M327.3 250.9l-2.4 16.8M350.2 195.8l-2.5 16.9M110.1 172.4l-2.4 16.8M294.7 291.4l-2.4 16.8M334.1 302.3l-2.4 16.8M306.4 384.3l-2.4 16.9M260.8 134.3l-2.4 16.9M379.7 153.3l-2.4 16.8M369.5 224.1l-2.4 16.8M350.9 263.6l-2.5 16.8M296.3 149.5l-2.5 16.8M258.4 189l-2.5 16.8M218.3 216.5l-2.4 16.9M304.6 184.6l-2.4 16.8M303.2 228.8l-2.4 16.9M178.9 213.8l-2.4 16.9M205.8 184.6l-2.5 16.8M168 284.5l-2.4 16.9M210.5 309.9l-2.5 16.9M357 324.9l-5 35M398.7 184.4l-5 35M191.8 323.2l-5 35M141.3 340.6l-2.4 16.8"/></g><path fill="#d8b4a1" d="M282.6 455.5a224.4 224.4 0 0 0 22.7-3c21.9-4.2 45-11.7 60.7-28.2 18.5-19.4 22.4-50.2 12.4-74.6a66.3 66.3 0 0 0-44.2-39.2c-13.7-3.4-28.5-2-41.7-7-20.5-7.9-32.5-29.1-51-40.9s-43-12.8-63.3-4.3-36.3 25.8-44.8 46-10.1 43.1-6 64.7c4 22.4 13.3 43.7 32.3 57.4 16.2 11.6 40.4 24.2 59.2 26.9a286.7 286.7 0 0 0 63.7 2.2Z"/><path fill="#fff" d="M282.6 455.5a224.4 224.4 0 0 0 22.7-3c21.9-4.2 45-11.7 60.7-28.2 18.5-19.4 22.4-50.2 12.4-74.6a66.3 66.3 0 0 0-44.2-39.2c-13.7-3.4-28.5-2-41.7-7-20.5-7.9-32.5-29.1-51-40.9s-43-12.8-63.3-4.3-36.3 25.8-44.8 46-10.1 43.1-6 64.7c4 22.4 13.3 43.7 32.3 57.4 16.2 11.6 40.4 24.2 59.2 26.9a286.7 286.7 0 0 0 63.7 2.2Z" opacity=".5"/><path d="M248.6 344.6s33.8 18 35.2 8.7 34.1-35.5 34.1-35.5c-15.2 20.1-5.8 44.8-5.8 44.8 21.6-13.8 40.6-12.2 40.6-12.2-23.3 6-47.2 33.8-47.2 33.8l-46 14.8s-53.7-4.5-59.2-32-38-59.3-38-59.3l25.6 17.9c12.2-10.2-1.5-37.3-1.5-37.3 23.1 8.1 26 34 26 34Z" opacity=".1"/><path fill="none" stroke="#2e353a" stroke-linecap="round" stroke-linejoin="round" stroke-width="2" d="M151.7 303.8s43.7 11 56.8 57.5"/><path fill="none" stroke="#2e353a" stroke-linecap="round" stroke-linejoin="round" stroke-width="2" d="M180.1 284.6s30.8 12 21.8 60M292.8 379s28.5-33.6 68.8-28M293.8 366.8s4.3-46.5 35.8-54.4"/><path fill="#263238" d="M234.1 355.3s-11 .3-27-3.2-29.2-1-31.7 13 38.4 28.2 66.9 33.4 57 7.5 70.8 2 13.6-25.3 8.2-34.4-23.1-10.4-32.4-9-54.8-1.8-54.8-1.8Z"/><path fill="#263238" d="M290 404.1a287 287 0 0 1-47.8-5.1c-28.7-5.2-69.9-19.7-67.3-34 1-5.4 3.5-9.4 7.6-11.8 5.6-3.4 14.1-4 24.7-1.6 15.7 3.5 26.8 3.2 26.9 3.2.5 0 45.6 3 54.7 1.7 8.3-1.2 27.2-.4 33 9.3 3.3 5.7 5 15.9 1.7 24.4a18 18 0 0 1-10.2 10.7 65.9 65.9 0 0 1-23.2 3.3Zm-94.7-53c-5 0-9 1-12.2 2.9-3.9 2.3-6.3 6-7.2 11.2-2.3 13 37.1 27.5 66.5 32.9 19.3 3.5 54.2 8.4 70.5 2a17 17 0 0 0 9.6-10.2 30.1 30.1 0 0 0-1.7-23.6c-5.5-9.3-23.8-10-31.8-8.9-9.2 1.3-52.7-1.5-55-1.6a124.5 124.5 0 0 1-27.1-3.3 53.7 53.7 0 0 0-11.6-1.4ZM301.9 266.1c-.5-2.7-.8-5.5-1.2-8.3a122.5 122.5 0 0 0-3.3-18.2c-1.9-7.4-4.9-14.9-12.4-19a30.4 30.4 0 0 0-28.8.3 26 26 0 0 0-11 12.3c-2.3 5.5-.5 11.9-.2 17.6a74.7 74.7 0 0 1-2.6 22.7c10.5 5.8 38 17.6 60.6-1Z"/><path fill="#fff" d="M267.3 274.8s-17.6 2.1-25.9 4.1-11.2 4.7-14.2 9.9-7.4 24.3-11.7 32.3-12 10.2-13.3 18.7 6.1 11.4 11.7 12.4a109.7 109.7 0 0 0 12.6 1.3s9 19.4 26.7 20.9 30.7-9.7 38.7-13.9 8.5-13.6 8.8-24.6 7.3-35.6 5.5-42.4-4.7-8-16.8-13.7a51.7 51.7 0 0 0-22-5Z"/><path fill="#d8b4a1" d="M298.8 285.2s-5.5 6.2-5.9 12.5-1 42-1 42-8.4-23.6-11.7-28.1c0 0 8.7-16.3 9-31.4a20.8 20.8 0 0 1 9.6 5Z"/><path fill="#263238" d="M256.3 375a28.5 28.5 0 0 1-3.2-.1c-16.5-1.4-25.8-18.5-27-21a110 110 0 0 1-12.3-1.2c-5.1-1-13.6-3.8-12.1-13 .8-5.1 3.8-8 7-11a31 31 0 0 0 6.4-7.9c2.2-4.3 4.6-11.8 6.7-18.5 1.8-5.8 3.6-11.4 5-13.9 3-5 6-8 14.5-10 8.2-2 25.8-4.2 26-4.2 7.3-.5 16.6 2.5 22.4 5.2l1 .4c11.2 5.3 14.2 6.7 16 13.5 1 4-.7 13.4-2.6 23.4a143 143 0 0 0-2.9 19.2c-.2 10.1-.5 20.6-9 25-1.6.8-3.4 2-5.5 3.2a57.4 57.4 0 0 1-30.4 10.9Zm11-99.8c-.6.1-17.8 2.3-25.8 4.2-8.2 2-11 4.6-13.9 9.6-1.3 2.3-3 7.8-4.9 13.6-2 6.7-4.4 14.3-6.7 18.6a32.2 32.2 0 0 1-6.7 8.2c-3.2 3-6 5.7-6.7 10.4-1.2 8 5.5 10.9 11.4 12a108.5 108.5 0 0 0 12.4 1.1.5.5 0 0 1 .5.3c0 .2 9.2 19.3 26.3 20.7 13.8 1.1 24.8-5.7 32.8-10.6l5.5-3.3c7.5-3.8 8.3-12.4 8.6-24.1.1-4.8 1.5-12.2 2.9-19.4 1.8-9.4 3.6-19.2 2.6-23-1.8-6.4-4.4-7.6-15.5-12.8l-1-.5a50.4 50.4 0 0 0-21.7-5Z"/><path fill="#263238" d="M230.7 343.7a.3.3 0 0 1-.2 0 .5.5 0 0 1-.3-.6 80 80 0 0 0 5.4-15.4c0-2.3-1.2-4.7-2.5-7.4l-1.8-3.7c-1.8-4.3 2.4-11.1 3-12 .2-1.7 3.1-21.3 5.9-25a.6.6 0 0 1 .7 0 .5.5 0 0 1 .1.6c-2.7 3.5-5.7 24.4-5.7 24.6a.6.6 0 0 1 0 .2c0 .1-4.7 7.2-3 11.3l1.8 3.7c1.3 2.8 2.5 5.2 2.5 7.7 0 3.5-5.1 15.3-5.3 15.8a.5.5 0 0 1-.6.2Z"/><path fill="#fff" d="M226.5 347.1s6.3 3.4 11 4.4M232.9 354.4a22.7 22.7 0 0 0 6.3 1.2M227.3 349.6a34.3 34.3 0 0 0 11 4.6M257.8 271.9s-2.4 12.6-2.6 20.4 6.2 15.7 15.3 5.7 7.6-26.6 7.6-26.6a27.4 27.4 0 0 1-20.3.5Z"/><path fill="#d8b4a1" d="m259.2 284.8-.1-7.5-2.1-1.2-5.1.5-.8 3 8.1 5.2z"/><path fill="#263238" d="M258.3 288.3a.5.5 0 0 1-.5-.6c.7-3.6.2-10.3.2-10.3a.5.5 0 0 1 .5-.6.5.5 0 0 1 .6.5c0 .3.5 6.8-.3 10.6a.5.5 0 0 1-.5.4Z"/><path fill="#fff" d="M205 398.9s-5.4 2.6-15.4 3-18.1-4.6-13.5-8.5a24 24 0 0 1 18.1-5.2c6.4 1 16 3.2 16 3.2Z"/><path fill="#263238" d="M188.7 402.3c-6.7 0-12.8-2.3-14.2-5.4a3.3 3.3 0 0 1 1.2-4 24.4 24.4 0 0 1 18.6-5.3c6.4 1 16 3.2 16 3.3a.5.5 0 0 1 .4.3.4.4 0 0 1 0 .4l-5.4 7.5a.5.5 0 0 1-.2.1c-.2.1-5.6 2.7-15.5 3Zm2.5-14a23.6 23.6 0 0 0-14.7 5.4 2.3 2.3 0 0 0-1 2.9c1 2.5 6.8 5 14 4.7 9-.3 14.2-2.4 15-2.8l4.9-6.8c-2.4-.6-10-2.3-15.3-3a19.6 19.6 0 0 0-3-.3Zm13.7 10.6"/><path fill="#fff" d="m206.4 390.7 1.5.1c-3.3-.7-9.2-2-13.6-2.7a24 24 0 0 0-18.2 5.2c-2.4 2-1.4 4.2 1.4 6a6.2 6.2 0 0 1 4.3-6.6c6-2.6 18.5-2.6 24.6-2Z"/><path fill="#263238" d="M177.5 399.7a.7.7 0 0 1-.2 0c-1.9-1.2-3-2.4-3-3.8a3.5 3.5 0 0 1 1.4-3 24.4 24.4 0 0 1 18.6-5.3c4.5.7 10.5 2 13.7 2.7a.5.5 0 0 1 .4.6.6.6 0 0 1-.6.4 12.8 12.8 0 0 1-1.5-.1c-6.4-.7-18.5-.6-24.3 2a5.7 5.7 0 0 0-4 6 .5.5 0 0 1-.2.5.7.7 0 0 1-.3 0Zm13.7-11.3a23.6 23.6 0 0 0-14.7 5.3 2.6 2.6 0 0 0-1.2 2.2 3.7 3.7 0 0 0 1.7 2.3 6.7 6.7 0 0 1 4.6-6c5-2 13.5-2.5 19.8-2.3l-7.2-1.3a19.6 19.6 0 0 0-3-.2Z"/><path fill="#263238" d="M316.4 371.9s-10.7 14.6-21.4 20.4-59.5 6.6-69.4 6.6h-20.7V392s32.8-4.3 51-13.7 27.7-19.8 42-24 26.6 3 26.3 20.5"/><path fill="#263238" d="M225.6 399.3h-20.7a.5.5 0 0 1-.5-.5V392a.5.5 0 0 1 .4-.5c.4 0 33-4.3 50.8-13.6a189 189 0 0 0 19.3-11.8 83 83 0 0 1 22.8-12.2c7.1-2.2 13.8-1.5 18.8 2 5.5 3.6 8.4 10.4 8.2 19a.5.5 0 0 1-.5.4.5.5 0 0 1-.5-.5c.2-8.2-2.6-14.7-7.8-18.2-4.7-3.2-11-3.8-17.8-1.8-8.2 2.4-14.9 7-22.6 12.1a189 189 0 0 1-19.3 11.9c-17 8.8-46.6 13-50.7 13.7v5.9h20.1c.6 0 57.6-.1 69.2-6.5a84.7 84.7 0 0 0 21.2-20.3.6.6 0 0 1 .7-.1.5.5 0 0 1 .1.6c0 .2-10.8 14.8-21.5 20.7-11.9 6.4-69.2 6.5-69.7 6.5ZM198.6 358l-1.1-.1M198.6 358.5h-1.2a.5.5 0 0 1-.5-.6.5.5 0 0 1 .6-.5l1.2.1a.5.5 0 1 1 0 1Z"/><path fill="#fff" d="M298.9 400.1a107.2 107.2 0 0 1 16.4-3.9c7.4-1 13.5 0 15.6 4.3s.7 9.4-6.7 10.7-21-1.3-22.5-1.3a11.4 11.4 0 0 1-3.5-1Z"/><path fill="#263238" d="M319.1 412a113.2 113.2 0 0 1-14.8-1.3l-2.5-.4a12 12 0 0 1-3.8-1 .5.5 0 0 1-.3-.4l.7-8.8a.5.5 0 0 1 .3-.4 107.7 107.7 0 0 1 16.5-4c8.6-1 14.2.5 16.2 4.6a7.4 7.4 0 0 1 .1 7c-.8 1.6-2.8 3.6-7.2 4.4a30.6 30.6 0 0 1-5.2.3Zm-20.4-3.4a9.6 9.6 0 0 0 3 .8c1 0 1.9.2 2.7.3 4.6.7 14 2 19.7 1 3.2-.6 5.4-1.9 6.5-3.8a6.6 6.6 0 0 0-.2-6.2c-2.3-4.6-9.4-4.7-15-4a105.3 105.3 0 0 0-16 3.8Z"/><path fill="#fff" d="M322.3 396c2.3.8 6.6 3 5.8 8-1 6.9-10 6.9-16 6.9a6 6 0 0 0-1.3.2c4.4.4 9.7.7 13.4.1 7.5-1.3 8.9-6.5 6.8-10.7-1.5-2.8-4.6-4.2-8.7-4.5Z"/><path fill="#263238" d="M319.1 412a78.8 78.8 0 0 1-8.4-.5.5.5 0 0 1-.5-.5.5.5 0 0 1 .4-.5 6 6 0 0 1 1.5-.2c6 0 14.4 0 15.5-6.4.7-4.6-3.1-6.7-5.5-7.5a.5.5 0 0 1-.3-.6.5.5 0 0 1 .6-.3c4.6.3 7.6 2 9 4.7a7.5 7.5 0 0 1 .1 7.1c-.9 1.6-2.8 3.6-7.2 4.3a29.7 29.7 0 0 1-5.2.4Zm-.1-1a33.2 33.2 0 0 0 5-.3c3.3-.6 5.5-2 6.6-3.9a6.6 6.6 0 0 0-.2-6.2 7.5 7.5 0 0 0-5-3.7 7 7 0 0 1 3.3 7.1c-.8 4.9-5.1 6.5-9.7 7ZM194.6 350.8s-12.1-2-20 3.5-6.7 11.4.8 19.9 26.7 23.3 68.3 30.2 54.5 4.5 54.5 4.5l.7-8.8a90.2 90.2 0 0 1-49.8-14.6c-23.3-15.6-33.7-25.8-50.5-27.5"/><path fill="#263238" d="M291 409.8c-7.7 0-22.3-.9-47.3-5-44.1-7.2-62.7-23.6-68.7-30.3-4.7-5.4-6.6-9.4-6.2-13 .4-2.7 2.2-5.2 5.6-7.6 8-5.5 19.8-3.7 20.3-3.6a.5.5 0 0 1 .5.5.5.5 0 0 1-.6.4c-.1 0-12-1.8-19.5 3.5-3.2 2.2-4.9 4.5-5.2 7-.4 3.2 1.5 7 6 12.1 5.8 6.7 24.2 22.9 68 30 37 6.1 51.4 5 53.8 4.7l.7-7.9a92 92 0 0 1-49.6-14.7c-5.3-3.5-10-6.8-14-9.7-14-10-23.4-16.5-36.2-17.7a.5.5 0 0 1-.5-.6.5.5 0 0 1 .6-.4c13.1 1.3 22.5 7.9 36.7 17.9 4 3 8.8 6.2 14 9.7a90.6 90.6 0 0 0 49.5 14.5.5.5 0 0 1 .4.2.5.5 0 0 1 .1.4l-.7 8.7a.5.5 0 0 1-.4.5 46 46 0 0 1-7.3.4Z"/><path fill="#fff" d="M190.2 359a.5.5 0 0 1-.6-.3.5.5 0 0 1 .4-.6 31.5 31.5 0 0 1 4-.4.5.5 0 0 1 .5.4.5.5 0 0 1-.5.5 31.4 31.4 0 0 0-3.8.4ZM293.5 258.3c-6.5 3.2-7.5-3.2-7.4-7a.3.3 0 0 0 .1-.1c.5-1.8 0-10.5-5.5-14-4.9-3.1-11.3-5.8-17.3-5.8A13 13 0 0 0 253 237c-2.7 3.7-2.5 8-2.7 12.4s-.7 9 .2 13.3c1.3 5.8 7.2 17.9 14.3 17.9 6.5 0 18-8.9 22-14.1a7.2 7.2 0 0 0 2.4-1.3c1.5-1.1 4.4-3 4.2-6.9Z"/><path fill="#263238" d="M265 281c-7.8 0-13.7-12.8-14.9-18.2-.8-3.8-.6-7.9-.3-11.8v-1.7l.1-1.7c.2-3.7.3-7.6 2.7-11a13.5 13.5 0 0 1 10.7-5.8c5.3 0 11.8 2.2 17.7 5.9s6.2 12.6 5.7 14.5a.6.6 0 0 1-.1.2c0 2.2.3 5.8 2.3 6.9q1.6.8 4.3-.5a.6.6 0 0 1 .5 0 .5.5 0 0 1 .2.4c.3 3.8-2.4 5.9-4 7l-.3.3a7.4 7.4 0 0 1-2.4 1.3c-3.8 5-15.3 14.2-22.3 14.2Zm-1.7-49.2a12.4 12.4 0 0 0-9.8 5.4c-2.3 3.1-2.4 6.7-2.6 10.4v1.7l-.1 1.8c-.2 3.9-.5 7.7.3 11.5 1.4 6 7.3 17.4 13.8 17.4 6 0 17.4-8.4 21.5-13.8a.5.5 0 0 1 .3-.2 6.4 6.4 0 0 0 2.2-1.2l.4-.3c1.4-1 3.5-2.6 3.6-5.4a5.3 5.3 0 0 1-4.5 0c-2.4-1.3-3-5-2.9-7.8a.5.5 0 0 1 .2-.4c.4-1.6-.1-10-5.3-13.4a33.6 33.6 0 0 0-17-5.7Z"/><path fill="#263238" d="M247.7 253a.6.6 0 0 1-.4-.1.5.5 0 0 1 0-.7l2.6-1.7a.6.6 0 0 1 .8 0 .5.5 0 0 1-.1.7L248 253a.6.6 0 0 1-.3 0ZM256 234.3s7.5-4.2 10-.2 14.7 30 27.5 24.2 0-25-12.6-31.2-22.9-.9-24.9 7.2Z"/><path fill="#263238" d="M289.7 259.7c-9.9 0-18.5-15.5-22.4-22.5l-1.7-2.9a3.1 3.1 0 0 0-2-1.3c-3-.7-7.2 1.7-7.3 1.7a.6.6 0 0 1-.7-.1.5.5 0 0 1 0-.4 13.1 13.1 0 0 1 7.9-9 21.4 21.4 0 0 1 17.7 1.4c8.7 4.3 18.4 15.4 18.2 24a8.8 8.8 0 0 1-5.6 8.1 9.6 9.6 0 0 1-4.1 1Zm-27.3-27.8a6.5 6.5 0 0 1 1.4.1 4.2 4.2 0 0 1 2.7 1.8l1.7 3c4.3 7.7 14.5 26 25 21.1a7.8 7.8 0 0 0 5-7.3c.2-8.2-9.1-19-17.5-23-6-3-12-3.5-16.9-1.4a12.3 12.3 0 0 0-7 7.2 14.9 14.9 0 0 1 5.6-1.5ZM284 332.6a31.1 31.1 0 0 1-21.8-9.3.5.5 0 0 1 .2-.7.6.6 0 0 1 .7 0 30 30 0 0 0 20.9 9 .5.5 0 1 1 0 1Z"/><path fill="#2e353a" d="M259.5 256a7 7 0 0 1-4.9-1.8.6.6 0 0 1 0-1 .8.8 0 0 1 1 0c3 2.7 7 .8 7.2.7a.8.8 0 0 1 1 .2.6.6 0 0 1-.3 1 9.6 9.6 0 0 1-4 .8ZM275 257.1a8.1 8.1 0 0 1-4.5-1.4.6.6 0 0 1-.1-1 .8.8 0 0 1 1 0c.1 0 3.7 2.5 6.6 0a.8.8 0 0 1 1 0 .6.6 0 0 1 0 .9 5.8 5.8 0 0 1-4 1.5ZM266.8 266a5 5 0 0 1-3.4-1.6.6.6 0 0 1 0-1 .8.8 0 0 1 1 0c1.8 1.8 3.3 1 3.5 1a.8.8 0 0 1 1 .1.6.6 0 0 1-.2 1 4 4 0 0 1-1.9.4Z"/><path fill="#fff" d="M207.9 391.5a.7.7 0 0 1-.7-.6.7.7 0 0 1 .6-.7c.2 0 26.8-3.8 40.9-9.9 10.4-4.5 21.8-11.9 29.3-16.7l7-4.4a.8.8 0 0 1 1 .2.6.6 0 0 1-.3 1l-6.8 4.2c-7.6 5-19 12.4-29.6 17-14.3 6-41 9.8-41.3 10Z"/><path fill="#fff" d="M244.1 383a.9.9 0 0 1-.3 0c-5.6-2.6-10-6.6-14.4-10.4l-3.3-3a40.2 40.2 0 0 0-26.9-9.2.7.7 0 0 1-.7-.6.7.7 0 0 1 .7-.7 41.8 41.8 0 0 1 27.9 9.6l3.3 3c4.2 3.7 8.6 7.6 14 10a.6.6 0 0 1 .4 1 .7.7 0 0 1-.7.3Z"/><path fill="#2e353a" d="M257.2 250a.7.7 0 0 1-.7-.7.7.7 0 0 1 .6-.7 11.9 11.9 0 0 0 6-2.3.8.8 0 0 1 1 0 .6.6 0 0 1 0 1 13.4 13.4 0 0 1-6.9 2.6ZM278.7 250.8h-.1l-2.1-.3-2.2-.2a7.3 7.3 0 0 1-4.3-2 .6.6 0 0 1 .1-1 .8.8 0 0 1 1 .1 5.9 5.9 0 0 0 3.4 1.5l2.1.3 2.2.2a.7.7 0 0 1 .6.8.7.7 0 0 1-.7.6ZM272.3 271.5h-.1a26.3 26.3 0 0 0-8.9 0 .7.7 0 0 1-.8-.6.7.7 0 0 1 .6-.8 27.9 27.9 0 0 1 9.3.1.7.7 0 0 1 .6.8.7.7 0 0 1-.7.5Z"/><path fill="#263238" d="M267.5 317a23.4 23.4 0 0 1-5.5-.6 16.4 16.4 0 0 1-11-7.7c-6.7-11.7.6-31.3 1-32a.7.7 0 0 1 .8-.5.7.7 0 0 1 .5.8c0 .2-7.5 19.9-1 31a15 15 0 0 0 10 7c5.6 1.4 10.3.6 14.2-2 11.7-8.4 12-32.6 12-32.8a.7.7 0 0 1 1.4 0c0 1-.2 25-12.5 33.8a16.7 16.7 0 0 1-10 3Z"/><path fill="#fff" d="M291.8 344s-4.7-42.8-44.1-66.6c0 0 .9-10.8-2.6-11.8s-10 9.3-10 9.3-29.1 12.8-41.7 33.6c0 0-5.4-3.1-7.8.8-2.7 4.5 8.5 9.3 8.5 9.3s3.8 24.9 32 35.8"/><path fill="#2e353a" d="M226.1 355a1 1 0 0 1-.3 0 50.9 50.9 0 0 1-32.3-36c-1.6-.7-7.6-3.6-8.8-7a3.4 3.4 0 0 1 .3-3 4.5 4.5 0 0 1 2.9-2.2 8.6 8.6 0 0 1 5.2.8c12.2-19.5 38.9-32 41.5-33.2 1.3-2.1 7-10.5 10.7-9.5s3.3 9.6 3.1 12.2c39 23.8 44 66.5 44 66.9a.7.7 0 0 1-.6.7.7.7 0 0 1-.8-.6c0-.4-5-42.8-43.7-66.1a.6.6 0 0 1-.3-.6c.3-4.3 0-10.6-2.1-11.2s-6.6 5-9.2 9a.7.7 0 0 1-.3.3c-.3 0-29 12.9-41.4 33.3a.7.7 0 0 1-.4.3.8.8 0 0 1-.6 0s-2.6-1.6-4.8-1a3 3 0 0 0-2 1.4 2.2 2.2 0 0 0-.1 2c1.1 3.3 8.2 6.5 8.3 6.5a.7.7 0 0 1 .4.5c0 .3 5.2 25 32.6 35.6.4.2 0 .4-.1.7s-1 .2-1.2.2Z"/><path fill="#fff" d="m292.4 312-.5 27.8s-15.8 8-24.6 10.2a63.2 63.2 0 0 1-15 2.2c-.7 0-4.2-5.1-6-6.8s-3.5-1.8-6.9-3.3c-4.7-2.2-6.8-2.6-6.5-1.6s.5 2 3 3.2 4 2.2 4 2.2l.5 1s-6-.8-8.3-1.2-8.6-4.4-8.6-4.4-2.6-.2-.7 2.7 3.7 3.1 3.7 3.1a8.6 8.6 0 0 0 2.6 4.6 39.7 39.7 0 0 0 3.8 2.7s-5.1-1.2-4.6 0 3.8 1.7 7.8 3.4 13 2 18.1 2.7a139.2 139.2 0 0 0 27.8.5c10.7-1 26.7-7.5 29.6-9.8s1.1-26.7.3-32.3-2.4-16.1-3.5-21-5.3-11.7-8-13.2-7.5 3.2-8 27.3Z"/><path fill="#263238" d="M291.9 312c.3-15.7 2.6-25.8 6.4-27.6a2.5 2.5 0 0 1 2.4 0c2.9 1.5 7.2 8.6 8.2 13.4s2.7 15.6 3.5 21c.4 2.5 3 30.2-.4 32.9a90 90 0 0 1-30 9.8c-3.7.4-7.6.5-11.2.5a128.3 128.3 0 0 1-16.6-1l-5.6-.6c-4.6-.4-9.9-1-12.8-2.1-1.4-.7-2.8-1.1-4-1.5-2.1-.8-3.6-1.2-4-2.2a.7.7 0 0 1 .1-.9c.4-.4 1.5-.4 2.7-.2l-1.8-1.4a8.8 8.8 0 0 1-2.8-4.6 7 7 0 0 1-3.7-3.2c-.8-1.3-1-2.2-.5-2.8a2 2 0 0 1 1.8-.7.4.4 0 0 1 .2 0s6.1 4 8.4 4.4l7.2 1-3.8-2c-2.6-1.4-3-2.5-3.2-3.5a.8.8 0 0 1 .2-1c.4-.2 1.1-.7 7 2l3 1.2a10.7 10.7 0 0 1 4 2.2 36 36 0 0 1 3 3.6 20.5 20.5 0 0 0 2.8 3 64.4 64.4 0 0 0 14.8-2.1c8-2 22-9 24.1-10M229 354.3a9 9 0 0 0 3.4 1.5c1.2.4 2.5.8 4 1.5 2.7 1.1 7.9 1.6 12.4 2l5.6.6a138.7 138.7 0 0 0 27.6.5c10.4-1 26.4-7.4 29.4-9.6 2.5-1.9 1-24.8 0-32-.7-5.5-2.3-16-3.4-21s-5.4-11.5-7.8-12.8a1.4 1.4 0 0 0-1.3 0c-1.3.7-5.4 4.4-5.9 26.9l-.5 27.8a.4.4 0 0 1-.3.4c-.1 0-15.9 8-24.7 10.3a64.5 64.5 0 0 1-15 2.2c-.7 0-1.3-.7-3.6-3.5a37.6 37.6 0 0 0-3-3.5 9.8 9.8 0 0 0-3.6-2c-.9-.3-1.8-.6-3-1.2-4-1.8-5.4-2-5.8-2 .2 1 .5 1.7 2.6 2.8 2.4 1.2 4 2.2 4 2.2a.5.5 0 0 1 .3.2l.5 1a.5.5 0 0 1 0 .5.6.6 0 0 1-.5.2c-.2 0-6-.7-8.3-1.2s-7.7-3.8-8.6-4.4a1 1 0 0 0-.6.3c-.1.1-.2.6.5 1.7 1.7 2.7 3.3 2.9 3.3 2.9a.5.5 0 0 1 .4.4 8.3 8.3 0 0 0 2.5 4.3 37.4 37.4 0 0 0 3.7 2.7.5.5 0 0 1 .2.6.6.6 0 0 1-.6.2 14.4 14.4 0 0 0-4-.5Zm63-14.6"/><path fill="#263238" d="M237.6 352h-.1c-4.8-1-11-4.3-11.3-4.5a.5.5 0 0 1-.2-.6.6.6 0 0 1 .7-.2s6.4 3.4 11 4.3a.5.5 0 0 1 .5.6.5.5 0 0 1-.6.4ZM239.2 356.1a23 23 0 0 1-6.5-1.2.5.5 0 0 1-.3-.6.6.6 0 0 1 .7-.3 22.1 22.1 0 0 0 6 1.1.5.5 0 1 1 0 1ZM238.4 354.7h-.2A34.3 34.3 0 0 1 227 350a.5.5 0 0 1-.1-.7.6.6 0 0 1 .8 0 33.8 33.8 0 0 0 10.8 4.4.5.5 0 0 1 .4.6.5.5 0 0 1-.5.4Z"/><path fill="#fff" d="M220.3 324.2h-.3c1.1-4.7-1.2-5.7-1.2-5.7l-1.4-3.4c-2.8 5.5-11 13.2-11 13.2.4-4.3 5-8 .9-6.4s-12 12.8-12 12.8c-3.4 4.5-1.3 10.3 6.2 11.9s15.2-6.5 18.8-12.6 0-9.8 0-9.8Z"/><path fill="#2e353a" d="M203.5 347.4a9.8 9.8 0 0 1-2.1-.2c-3.9-.8-6.6-2.8-7.8-5.5a7.3 7.3 0 0 1 1.1-7.4c.3-.4 8-11.4 12.3-13 1-.4 2-.7 2.5-.2s.1 1.3-.6 2.6a19.2 19.2 0 0 0-1.1 2.3c2.5-2.6 7-7.4 9-11.2a.7.7 0 0 1 .4-.3.8.8 0 0 1 .5 0 3.3 3.3 0 0 1 1.7 2c.6 2-1.7 6.7-4 10a.8.8 0 0 1-1 .2.6.6 0 0 1-.2-.9c2.5-3.7 4.1-7.8 3.8-9a2.5 2.5 0 0 0-.4-.7 73 73 0 0 1-10.6 12.6.8.8 0 0 1-.8.1.6.6 0 0 1-.5-.6 13.2 13.2 0 0 1 2-5.2l.4-.8-.5.2a48.8 48.8 0 0 0-11.7 12.6 6.1 6.1 0 0 0-1 6.2c1 2.3 3.4 4 6.7 4.7 7 1.5 14.7-6.5 18-12.3s.2-9 .1-9a.6.6 0 0 1 0-.9.8.8 0 0 1 1 0c.3.2 4 4 .2 10.5-2.8 5-9.8 13.3-17.4 13.3Z"/><path fill="#2e353a" d="M217.6 330a.8.8 0 0 1-.2 0 .6.6 0 0 1-.4-1c3.6-6.5 1.9-10 1.8-10a.6.6 0 0 1-.2-.9.7.7 0 0 1 1-.2c.2.1 3 4-1.2 11.8a.7.7 0 0 1-.8.3ZM239.6 342.4a.7.7 0 0 1-.6-.3c-.1-.3-16-24.7-5.3-50.2a.7.7 0 0 1 1-.4.6.6 0 0 1 .3.8c-10.3 25 5.1 48.8 5.3 49a.6.6 0 0 1-.3 1 .8.8 0 0 1-.4 0ZM252.3 314a.8.8 0 0 1-.4-.1.6.6 0 0 1-.1-1 31 31 0 0 1 8.2-7 .8.8 0 0 1 1 .3.6.6 0 0 1-.2.9 29.1 29.1 0 0 0-7.9 6.7.8.8 0 0 1-.6.2ZM244.5 344.4a.7.7 0 0 1-.7-.6c0-.5-1.7-12.8 3.8-24.3a.7.7 0 0 1 1-.3.6.6 0 0 1 .3.8 46.1 46.1 0 0 0-3.6 23.6.7.7 0 0 1-.7.8Z"/><path fill="#fff" d="M293.7 255.3a14.4 14.4 0 0 1-9.5-3.9 31 31 0 0 1-6.5-9.3l-.4-.8a37.4 37.4 0 0 0-5.4-8.6 8.9 8.9 0 0 0-3-2.3 4.3 4.3 0 0 0-3.6 0 .7.7 0 0 1-1-.2.6.6 0 0 1 .3-1 6 6 0 0 1 4.8 0 10.2 10.2 0 0 1 3.6 2.7 39 39 0 0 1 5.6 9l.4.7c1.7 3.3 3.4 6.5 6.2 9 3 2.6 6.9 3.9 10.2 3.3a.7.7 0 0 1 .8.5.7.7 0 0 1-.5.8 11.3 11.3 0 0 1-2 .1ZM293.5 235.9a11.3 11.3 0 0 1-7.4-3.4l-2.2-2.2a23.2 23.2 0 0 0-4-3.5c-4-2.7-10-2.9-15.3-.4a.8.8 0 0 1-1-.3.6.6 0 0 1 .4-.9 17.7 17.7 0 0 1 16.7.5 24.6 24.6 0 0 1 4.3 3.8l2 2c1.5 1.4 4.3 3.5 7.3 3a.7.7 0 0 1 .8.6.7.7 0 0 1-.6.7 7.2 7.2 0 0 1-1 0ZM245.6 403.6a64.5 64.5 0 0 1-11.7-.9.7.7 0 0 1-.5-.8.7.7 0 0 1 .8-.5c.4.1 40.7 7.5 78-24.6a.8.8 0 0 1 1 0 .6.6 0 0 1 0 1 105 105 0 0 1-54 24.8 97.8 97.8 0 0 1-13.6 1Z"/><g stroke="#263238" stroke-linecap="round" stroke-linejoin="round"><path fill="#d8b4a1" d="M391.1 394.5s-.9-3.6-3.9-2.4-2.7 9.1-2.1 13.6 4.7 2.4 4.7 2.4v-2.7s-1.6 1.2-2.3-.4-.6-10 .1-9.8 2.3 2.7 2.3 2.7.5-.3 1.2-3.4Z"/><path fill="#d8b4a1" d="M389 395v19.8c0 2.3 5.3 4.2 11.8 4.2s12-2 12-4.2V395Z"/><path fill="#fff" d="M412.8 395c0 2-5.4 3.7-12 3.7S389 397 389 395s5.4-3.7 12-3.7 11.9 1.7 11.9 3.7Z"/><path fill="#fff" d="M411.2 395c0 1.8-4.6 3.2-10.3 3.2s-10.4-1.4-10.4-3.1 4.6-3.2 10.3-3.2 10.4 1.4 10.4 3.2Z"/><path fill="#263238" d="M392.9 397a28.5 28.5 0 0 0 16 0 28.5 28.5 0 0 0-16 0Z"/><path fill="none" d="M397.4 389.8s8.4-5 5.7-10.7-12-9.5-12-18.5c0-7.6 8.2-10.5 13.6-13.6"/><path fill="none" d="M405.1 389.7s4.7-3.1 4.7-8c0-3.3-3.5-5.5-8.2-10.8"/></g></svg>