<svg xmlns="http://www.w3.org/2000/svg" viewBox="0 0 500 500"><path fill="#f5f5f5" d="M300.2 462.3c-.2-1.8-1.1-3.7-2.8-4.5-2.9-1.4-6 1-8.9 2.5a31 31 0 0 1-20.6 2c-7-1.3-13.7-3.7-20.6-4.8-7-1.1-14.6-.7-20.5 3.2l2 17.5c2 1.5 4.2 2.9 6.7 3.3 2.5.4 5.4-.7 6.3-3 1-2.2 0-5 1.4-7 1.3-1.7 3.7-1.8 5.8-1.6 12.5 1.4 23.9 9.6 36.5 9 4-.1 8.3-1.4 10.8-4.5 1.6-2 2.4-4.3 3-6.7.6-1.7 1-3.5.9-5.4Z"/><g fill="#e0e0e0"><path d="M380.7 346.6a26.8 26.8 0 0 0-11.5-4c-1.8-.2-3.9-.1-5.4 1-.3.3-.6.6-.6 1 0 .3.3.5.6.7 4.6 3.6 11.7 4 17 1.3M380.4 346.3c-2.6-2-5.2-4.1-7.4-6.6-2.2-2.4-4-5.4-4.7-8.6-.2-1-.2-2 .4-2.9a29 29 0 0 1 11.7 18"/><path d="M380.7 346.5c-.5-3.2-.6-6.5.1-9.7.7-3.2 2.5-6.2 5.2-8 1 2.3.6 5-.1 7.6a37.2 37.2 0 0 1-5.2 10.8M386.5 357a17 17 0 0 0-9.2 4.6 17.5 17.5 0 0 0-5.3 9c3.4-.1 6.4-2.6 8.5-5.3 2.1-2.7 3.6-5.7 6-8.3M387.7 358.6c-2.8-7-1.8-15.4 2.7-21.5 2 7.1 1.2 15.2-2.7 21.5M395.4 367.8a16.6 16.6 0 0 0-15.7 9c-.2.4-.4.9-.1 1.2.2.3.6.4 1 .3 3.1-.2 5.9-2 8.1-4.1 2.3-2.2 4.3-4.6 6.8-6.5M395.2 367.3c-1.7-5.3-1.8-11-.3-16.4.6-2.1 1.5-4.3 3.5-5.3.1-.1.3-.2.5-.1.2 0 .3.2.3.4.7 1.4 1 3 .8 4.7l-.7 4.7c-.6 3-1 6-2.5 8.5l-1 2-.6 1.3M415.5 370.3c-1.5-5.8 0-12.7 3.7-17.4.2-.3.6-.7 1-.7.7.1.9 1 .8 1.6a31.3 31.3 0 0 1-5.5 16.5M417.3 371.5c7 1.8 15 0 20.7-4.2a16.8 16.8 0 0 0-11.2-1.4 16 16 0 0 0-9.5 5.6M418.8 367.7a24 24 0 0 1 18.8-10.8c-.8 3-3.3 5.3-6.1 6.8s-6 2-9 2.6c-1.2.2-2.9.5-3.7 1.4M415.9 349.2c1-3.6 2-7.2 2.4-11s-.3-7.6-2.2-10.9a24 24 0 0 0-.4 22.3M428.1 343c4.3-7.7 13-13.9 21.7-14.7a24.2 24.2 0 0 1-21.7 14.7M425.4 344.6c6.4 1 11.8 5 17.7 7.4 1.3.6 2.6 1 4 .8s2.7-1.1 3-2.4c.3-1.1-.2-2.3-1-3.1a8.7 8.7 0 0 0-3-1.8 32.2 32.2 0 0 0-20.1-1.1"/><path d="M421.8 349c1.4.4 1.9 1.1 3 2.1 3.9 3.3 8.5 5.7 13.4 7 .5 0 1.2 0 1.5-.4.2-.4-.1-.9-.4-1.2-2-2.6-5-4.4-8-5.5-3.2-1.2-5.9-2.5-9.6-2.2M417.6 322.1a25.4 25.4 0 0 0 19.5 6.6c.3 0 .6 0 .8-.3.5-.5 0-1.3-.6-1.8a22.4 22.4 0 0 0-19.7-4.5"/><path d="M422.5 320.3a27.1 27.1 0 0 1 24.3-4c-3 3-7.3 4.7-11.6 5.1-4.2.4-8.5 0-12.7-1M420.6 308c-.6-5.7-.2-10.2-.6-16 0-.4-.1-1-.6-1.1-.6-.3-1 .5-1.3 1a18.3 18.3 0 0 0 2.5 16"/><path d="M420.2 308.6c3.8-2.4 6.7-5.5 9.4-9.2 1.9-2.5 3.4-5.6 3-8.7a9 9 0 0 0-6.8 3.4 19 19 0 0 0-3.5 7c-.7 2.5-1.3 5-2.2 7.5M429.4 306a76.3 76.3 0 0 0 23.3-13.7c-2.8-1.1-6-.4-8.7.7a27.6 27.6 0 0 0-14.7 13M422.8 311.7c4.3.5 8.6.8 12.9.1a54.6 54.6 0 0 0 12.9-4.6c.1-.4 0-.8-.3-1-.3-.3-.7-.4-1-.5-4.3-1.2-8.9-.7-13 .7-4.3 1.5-7.7 3.1-11.5 5.3M398.3 322.3c-3-5.9-2.8-12.8-.3-18.9 1.8 2.7 2 6.2 1.7 9.4s-1.3 6.6-1.4 9.8M386.5 316.4c-7.3-.1-14.6 3-19.6 8.4 3.7.5 7.5-.4 10.8-2 3.3-1.6 6.2-4 9.2-6.2M378.7 313.8c-3.6-.3-7-.7-10.5.3-3.4 1-6.6 3.5-8 6.8 3.4.4 6.8-.5 9.8-1.9 3.1-1.4 5.9-3.3 8.7-5.2M390.3 314a33 33 0 0 0-10.2-5.2c-3.8-.9-8.1-.2-10.8 2.6 3 1.8 6.8 2 10.3 2 3.5 0 7.8 0 11.1 1.1M390.4 314a23.9 23.9 0 0 1-5.4-22.4 34.3 34.3 0 0 1 5.4 22.5M405.5 298.8l2.7-7.4c1-2.5 2-5 3.8-6.9 1.8-2 4.2-3.4 6.9-3.5-1.7 7.5-6.6 14-13.3 17.8M402.7 302c-1.7-2.4-3.7-5.6-6-7.4a10.1 10.1 0 0 0-8.2-2.1c2.9 5.1 8.4 8.8 14.2 9.4M403.3 299c-1.1-2.9-2.3-5.8-2.7-8.8s-.2-6.3 1.3-9c3 5.7 4 11.9 1.5 17.8M405.5 281.2c1.7-5.6 7-9.8 12.5-11.7.7-.2 1.4-.4 2.2-.3.7 0 1.5.6 1.6 1.3.2 1-.6 1.8-1.3 2.5a42.4 42.4 0 0 1-15 8.2M405.6 276.6a41 41 0 0 1 1.6-10.8c1.2-3.5 3.5-6.7 6.8-8.2.6 3.7-1 7.3-3 10.5s-4.3 6.2-5.5 9.7M405.5 279.1c-1.4-4.1-1.6-9.4-4-13-1.8-2.5-4.5-4.2-6-6.8-1 2.5-.7 5.3.3 7.8s2.8 4.6 4.6 6.5 3.4 3.4 5 5.5"/><path d="M405.5 400.6c-.1 0-.2-27.5-.2-61.5s0-61.4.2-61.4.2 27.5.2 61.4c0 34 0 61.5-.2 61.5Z"/><path d="m429.6 318.2-1 .4-3 1c-2.3.7-5.6 2-9.2 3.4-3.5 1.5-6.9 2.8-8.8 4.4-1 .8-1.5 1.7-1.8 2.3l-.3 1v-.2c0-.2 0-.5.2-.8.2-.7.8-1.6 1.7-2.5 1-.9 2.3-1.7 3.8-2.4a116 116 0 0 1 18.4-6.6Z"/><path d="m437.4 298.8-.2.3-1 .8c-.7.8-1.9 1.8-3.2 3l-11 9.8a166.7 166.7 0 0 0-13.5 13.5l-.8 1-.3.2.2-.3.7-1 3-3.4c2.5-2.8 6.1-6.5 10.4-10.3l11-9.7 3.5-2.9.9-.7.3-.3Z"/><path d="m417.4 316.6 1.7-4.7c.8-2.7 1.3-4.9 1.4-4.8 0 0-.2 2.2-1 4.9a33 33 0 0 1-2.1 4.6ZM405.5 333.3l-.6-.8-1.7-2.2-5.6-7.1-5.7-7.1-1.7-2.1c-.4-.5-.7-.8-.6-.9l.7.8a131 131 0 0 1 7.6 9 221.3 221.3 0 0 1 7.6 10.4Z"/><path d="M400.3 326.5a11.8 11.8 0 0 1-2.7-8.3h.1l-.1.5v-.5h.1c.1.7.2 2.3.8 4 .7 2.5 1.9 4.2 1.8 4.3ZM393.4 318s-.4-.6-1.5-1c-1-.4-2.6-.5-4.3-.3-1.7.1-3.2.4-4.3.7-1 .2-1.7.5-1.8.4l1.8-.7c1-.3 2.6-.7 4.3-.8 1.7-.2 3.4 0 4.4.5 1.1.4 1.5 1.1 1.5 1.1ZM391.8 315.8l-2.3-.8a24.4 24.4 0 0 0-12-1l-2.4.6.6-.3 1.8-.5a21 21 0 0 1 14.3 2ZM405.5 307a47 47 0 0 1-1.7-6c-.9-3.3-1.5-6-1.4-6 .1 0 .9 2.6 1.7 6 .9 3.3 1.5 6 1.4 6Z"/><path d="M405.6 307c-.1.1-.6-1.7-2-3.5-1.2-1.9-2.8-2.8-2.7-3l1 .6c.7.5 1.4 1.2 2.1 2.2 1.4 1.9 1.7 3.8 1.6 3.8ZM405.5 386l-.4-1.9a26 26 0 0 0-1.9-4.8 65.8 65.8 0 0 0-9.7-13.7l-6.1-7a50.1 50.1 0 0 1-6.6-11 18.6 18.6 0 0 1-.5-1.8l.7 1.7a51.8 51.8 0 0 0 6.7 10.8c1.8 2.2 4 4.5 6 7 4.5 5 8 10 9.8 14a24.3 24.3 0 0 1 2 6.6ZM427.3 361.4l-1.2.6a25 25 0 0 0-6.8 5.5 79.4 79.4 0 0 0-4.2 5c-2.9 3.5-5.6 6.7-7.2 9.2l-1.8 3.1-.6 1.1.1-.3.4-.9 1.7-3.1c1.6-2.6 4.2-5.8 7-9.4l4.3-5a31.3 31.3 0 0 1 7-5.3l1-.4.2-.1Z"/><path d="m427.7 369.4-2.4.3c-1.5.2-3.6.5-5.8 1.1a17 17 0 0 0-5 2.7c-1.2 1-1.8 1.7-1.9 1.6l.4-.5a9 9 0 0 1 1.3-1.3c1.1-1 3-2.1 5.1-2.8a26.5 26.5 0 0 1 8.3-1.1Z"/><path d="M413.4 374.3c-.2-.1 1-1.8 1.8-4 .7-2.2 1-4.2 1-4.2v1.3a13.4 13.4 0 0 1-2.8 6.9ZM434.3 340l-.4.2a45.5 45.5 0 0 1-3 1.4l-2.2 1.2-1.3.7-1.4.9-3 2a56 56 0 0 0-11.4 11.9l-2 3-.8 1.4-.7 1.4c-.5.8-.8 1.6-1.1 2.3a29.1 29.1 0 0 0-1.4 3l.4-1.2.8-1.9 1-2.4.7-1.3.8-1.5 2-3a53.5 53.5 0 0 1 11.5-12l3-2 1.4-.9 1.4-.7 2.3-1.2a19.3 19.3 0 0 1 3.4-1.3Z"/><path d="M417 351.5s.2-.6 1-1.4a6 6 0 0 1 3.8-1.4 10.5 10.5 0 0 1 5.6 1.5l-1.6-.5c-1-.3-2.4-.7-4-.6-1.5 0-2.8.6-3.6 1.2-.8.7-1 1.3-1.1 1.2ZM414.5 354.2c-.1 0 .9-1.5 1-3.5.3-2-.3-3.7-.2-3.7l.5 1a7.3 7.3 0 0 1-.6 5.3l-.7 1Z"/></g><path fill="#e0e0e0" d="M386.5 389.9a90.9 90.9 0 0 0 8.6 32h21.2a92.2 92.2 0 0 0 8.2-32h-38Z"/><path fill="#fafafa" d="m421 407-15.6.1c-8.6 0-15.5 0-15.5-.2s7-.2 15.5-.2 15.6.1 15.6.2ZM420.6 410.7c0 .1-6.6.2-14.7.2s-14.6 0-14.6-.2 6.5-.2 14.6-.2 14.7.1 14.7.2ZM395.5 396.8s.2 2.2.2 4.9-.1 4.9-.2 4.9-.2-2.2-.2-5 0-4.8.2-4.8Z"/><path fill="#fafafa" d="M406.8 396.8c.1 0 .2 2.3.2 5s0 5.1-.2 5.1-.2-2.2-.2-5 .1-5.1.2-5.1ZM417.5 396.7c.1 0 .2 2.3.2 5.2s0 5.1-.2 5.1-.2-2.3-.2-5.1 0-5.2.2-5.2Z"/><path fill="#fafafa" d="M423.8 396.8c0 .1-8.2.2-18.3.2s-18.3 0-18.3-.2 8.2-.2 18.3-.2 18.3 0 18.3.2Z"/><path fill="#e0e0e0" d="m462.1 248.4-.2-2.4-.7-7.1-2.6-28 .1.1-11 7h-.2l-18-45h.2l-10.2 56.7-.1.8-.2-.8-18-94.2h.4L385.4 260l-.3 1.8-.2-1.8-12-104.3.5.1-38.5 74-.2.4-.2-.3-12-15.2h.5L310 236.3l-.2.4-.2-.4-19.7-42h.5l-20.3 76-7 26.5-.3.9-.3-.8-25.6-78.3h.4l-45.3 65.4-.2.4-.2-.4-12.9-23.2h.5L169 284.1l-.2.5-.2-.5-23.1-45.4h.4l-18.8 39.7-.2.5-.2-.5-28.2-72.9h.4c-6 33.6-11.5 65-16.9 94l-.5 2.8-.6 2.7v.1l-.1.1h-.3v-.1c-.2-.1-.2-.3-.2-.4l-.3-.6-.3-1.3-.7-2.7-2.5-10.4A2255 2255 0 0 1 64.3 232h.3v65.2l-.2-.2L49 278.3h.2l-4.5 41.8-1.2 10.8-.4 3.7.3-3.7a5012.7 5012.7 0 0 1 5.6-52.6v-.3l.1.2 15.5 18.6h-.3v-66.4l.3 1.5A4850.5 4850.5 0 0 0 79.3 300l.7 2.7.4 1.3.2.6.1.3c.1 0 0 0 0 .1h-.1v-.2l.6-2.6.5-2.7c5.4-29 10.9-60.5 16.8-94.1l.1-.8.3.8 28.2 72.8h-.4l18.8-39.7.2-.4.2.4L169 284h-.4l10.3-23.2.2-.5.2.5 12.8 23.2h-.4c14.8-21.4 30-43.2 45.3-65.5l.3-.4.2.5 25.6 78.3h-.5l7.1-26.5 20.3-76 .2-.7.3.6 19.7 42h-.5l12.8-22 .2-.2.3.2 12 15.3h-.5l38.5-74 .4-.7v.8l12 104.2h-.4l16.3-124.4.1-1.2.2 1.2 18 94.2h-.3l10.2-56.7.1-.5.2.4 18 45h-.2l11.1-7h.1v.1l2.5 27.9a5483.4 5483.4 0 0 1 .9 9.5Z"/><path fill="#f5f5f5" d="M407.1 64c1.3-.8 2.7-1.4 4-1.8l1-4 6.7-.2 1 4c1.4.4 2.7 1 4 1.6l3.5-2.2L432 66l-2.1 3.5c.8 1.3 1.4 2.6 1.8 4l4 .9v6.7l-3.9 1c-.3 1.4-.9 2.8-1.6 4l2.2 3.5-4.6 4.9-3.5-2.2c-1.3.8-2.7 1.4-4 1.8l-1 4-6.7.1-1-4c-1.4-.3-2.7-.8-4-1.6l-3.5 2.3-4.8-4.7 2.1-3.5c-.8-1.3-1.4-2.6-1.8-4l-4-.9v-6.7l3.9-1c.3-1.4.9-2.8 1.6-4.1l-2.2-3.4 4.6-4.9 3.5 2.1Zm3.6 9a7.2 7.2 0 1 0 10.5 10 7.2 7.2 0 0 0-10.5-10ZM100.9 343.2c1.8-1.1 3.8-2 5.8-2.6l1.2-5.8 9.8-.1 1.4 5.7c2 .5 4 1.3 6 2.3l4.9-3.2 7 6.8-3 5c1 2 2 3.9 2.5 6l5.8 1.1.2 9.8-5.8 1.4c-.5 2-1.3 4-2.3 6l3.2 4.9-6.8 7-5-3c-1.9 1-3.9 2-5.9 2.5l-1.2 5.8-9.8.2-1.4-5.8c-2-.5-4-1.3-6-2.3l-4.9 3.2-7-6.8 3-5c-1-1.9-2-3.8-2.5-5.9l-5.8-1.2-.1-9.8 5.7-1.4c.5-2 1.3-4 2.3-6l-3.2-4.9 6.8-7 5 3Zm5.2 13a10.5 10.5 0 1 0 15 14.6 10.5 10.5 0 0 0-15-14.6ZM219.4 126.4c1.1-.7 2.4-1.2 3.6-1.5l.8-3.7h6l1 3.5c1.2.3 2.5.8 3.6 1.5l3.1-2 4.4 4.2-1.9 3.1c.7 1.2 1.2 2.4 1.6 3.7l3.6.7.1 6.1-3.6.9a15 15 0 0 1-1.4 3.7l2 3-4.2 4.4-3.2-1.9c-1.1.7-2.4 1.3-3.6 1.6l-.8 3.6-6 .1-1-3.5a15 15 0 0 1-3.6-1.5l-3.1 2-4.4-4.2 1.9-3.2c-.7-1.1-1.2-2.3-1.6-3.6l-3.6-.7-.1-6.1 3.6-1a15 15 0 0 1 1.4-3.6l-2-3.1 4.2-4.4 3.2 2Zm3.2 8.2a6.5 6.5 0 1 0 9.4 9 6.5 6.5 0 0 0-9.4-9Z"/><path fill="#263238" d="M466 422c0 .1-97.5.3-217.9.3s-218-.2-218-.3 97.7-.3 218-.3 218 .2 218 .3Z"/><path fill="#fff" d="m53 193.5 5.9-5a25.5 25.5 0 1 1 1.4 9l-7.2-4Z"/><path fill="#263238" d="m53 193.5.5.3 1.4.8 5.4 3 .1.2v-.2h-.2a25.5 25.5 0 0 0 10 13 25.3 25.3 0 0 0 32-3 25.2 25.2 0 0 0 7.5-22 25.3 25.3 0 0 0-13.6-19.2 25.7 25.7 0 0 0-28.8 3.7l-3 3.1c-.8 1.2-1.6 2.2-2.2 3.3a25.4 25.4 0 0 0-3.3 12 1212 1212 0 0 1-4.3 3.7l-1 1-.4.3.4-.3 1-1 4.4-3.6c.1-3.2.9-7.6 3.4-12l2.2-3.2c1-1 1.8-2.1 3-3a25.3 25.3 0 1 1 6.6 42c-1.4-.6-2.6-1.4-3.7-2a25.6 25.6 0 0 1-10-12.8l-.2-.6v.6h.1c-2.3-1.4-4.1-2.4-5.4-3l-1.4-.8-.5-.3Z"/><path fill="#263238" d="M89.6 189.2a3.1 3.1 0 1 0 6.3 0 3.1 3.1 0 0 0-6.3 0ZM80.2 189.2a3.1 3.1 0 1 0 6.3 0 3.1 3.1 0 0 0-6.3 0ZM70.8 189.2a3.1 3.1 0 1 0 6.3 0 3.1 3.1 0 0 0-6.3 0Z"/><path fill="#d8b4a1" d="m307 112.6 27-8v-2.9l-25.2-1.3-42.8 12.2h-74.4l-15.7 4.9v4h59.2l-39.5 11.3v3.9l24.7 1.6 56.9-16.8H356l7.2-4.4v-4.5H307z"/><path d="M195.6 136.7v-3.9l24.3 1.5.4 4-24.7-1.6z" opacity=".3"/><path d="m356 117.2 7.2-4.6v4.5l-7.2 4.4v-4.3zM277 117.5l-57.1 16.8.4 4 56.9-16.8-.2-4z" opacity=".5"/><path d="m277 117.5 79-.3v4.3h-78.8l-.2-4z" opacity=".3"/><path d="M175.9 121.5v-4l67.6 1.9-8.4 2.1h-59.2z" opacity=".5"/><path d="M334 101.7 296.3 112l10.7.6 27-8v-2.9z" opacity=".3"/><path fill="#263238" d="M218 129.6a1.7 1.7 0 0 1-3.4 0 1.7 1.7 0 0 1 3.4 0ZM351.5 112.6a1.7 1.7 0 0 1-3.3 0 1.7 1.7 0 0 1 3.3 0ZM316.8 100.9a1.7 1.7 0 0 1-3.3 0 1.7 1.7 0 0 1 3.3 0Z"/><circle cx="194.7" cy="114.1" r="1.7" fill="#263238"/><path fill="#ffbf9d" d="M241.5 119.9c2-7.3-2.7-29.3-3.1-30.6-.4-1.2 0-2.7 2-2.3s14.1 25 14.1 25 3.6 13.7 4.4 17.7c.9 4 2 8.8 7.2 9.5 5 .7 7.4-3.9 7.1-9.1-.2-4-2.6-20.7-3.4-24-.9-3.4-10.2-22.6-11.5-24.5-1.2-2 1.7-3.8 4.2-3.6 2.5.2 18.5 10.3 18.5 10.3s11 13.7 11.3 14.3c.5.7 1 3 4 9.4l14.4.6c-.7-4-4-13.4-4-13.4s1.6-4.2 2.2-8.2c.7-4-2.5-26-4-28s-34.1-18.9-34.1-18.9c-6-2.2-80.4-17.6-95.3-18.7-14.8-1-127.3 39.3-127.3 39.3-1.2.5-.7 19.9 4.1 33.7 4.8 13.9 22.9 34.4 22.9 34.4l96-63.8s10.2 10.5 19.5 13c9.2 2.5 26.7 5.9 26.7 5.9l9 22.8s1.8 8 2.4 12.5l12.7-3.3Z"/><path fill="#ff9a6c" d="m164.3 51.3.6 3A50.4 50.4 0 0 0 170 68l1.5 2.7-1.8-2.5a37.8 37.8 0 0 1-5.4-16.9ZM167.8 67.5s-2-1.8-3.8-4.6a16 16 0 0 1-2.4-5.5c.2 0 1.2 2.5 2.9 5.2 1.7 2.8 3.4 4.8 3.3 4.9ZM232 77.6l-.6-1.8a14.2 14.2 0 0 0-5.8-7c-1-.6-1.7-.8-1.7-1l1.9.7a11.8 11.8 0 0 1 6 7.2 5 5 0 0 1 .2 1.9ZM249 63.7s-.2-.9-.8-2.2c-.5-1.3-1.5-3-3.1-4.5a12.1 12.1 0 0 0-4.9-2.6L238 54s.9-.1 2.3.2a11.1 11.1 0 0 1 8.3 7.3c.5 1.4.5 2.3.4 2.3ZM265.7 55.7l-1.3-2.3a17 17 0 0 0-10.2-7l-2.6-.5h.7l2 .1a15.3 15.3 0 0 1 11.2 9l.2.7ZM261.3 78s-.7-.3-1.4-1.2c-.3-.4-.7-1-1.3-1.3-.6-.3-1.5-.3-1.7.3-.2.7.2 1.5.4 2.2l.5 1.8c.4 1.1.6 1.7.5 1.8l-.8-1.6a22.3 22.3 0 0 1-1-3c-.1-.4-.2-.8 0-1.3 0-.5.6-.9 1-.9.6 0 1 .1 1.3.3.8.4 1.1 1 1.4 1.5.6 1 1.1 1.3 1 1.4ZM306.6 99.2l-.3-.5a158.5 158.5 0 0 1-3.4-7 7803.4 7803.4 0 0 0-6.4-12.8l-.7-1.2-.4-.7-.4-.5c-.2-.4-.5-.7-.9-1a120.3 120.3 0 0 0-9.4-8.2l-7.1-5.7-4.9-3.6-1.3-1-.5-.4s.2 0 .5.3a99 99 0 0 1 6.4 4.4A286 286 0 0 1 293.5 74l1 1 1 1.2.4.6.3.6.7 1.2a197.4 197.4 0 0 1 6.3 13l2.6 5.5.7 1.6.2.5Z"/><path fill="#d8b4a1" d="M86.4 51.3 33.2 68s-.7 94.8 0 96l69.1-44.4-15.9-68.2Z"/><path fill="#263238" d="M219.7 449.1V446a2818.3 2818.3 0 0 0-.7-43c-.6-28.5-1.6-68-2.8-111.5a12226 12226 0 0 1-3-145.4v-11.6l.1 2.4a2818.3 2818.3 0 0 0 .7 43c.5 28.6 1.6 68 2.7 111.6a12215.5 12215.5 0 0 1 3 145.3v12.4ZM189.2 119.3c.2 0 .3 27.7.3 61.8s-.1 61.7-.3 61.7-.2-27.7-.2-61.7 0-61.7.2-61.7ZM339.6 326.6v-.6l.1-1.6.5-6.1.6-9.8.8-13a2703 2703 0 0 0 3-75 4554 4554 0 0 0 1.4-75.1l.2-22.8a1546.3 1546.3 0 0 0 .1-7.8v-.5l.1.5v30.6c0 19.2-.4 45.8-1.3 75.1a2300.8 2300.8 0 0 1-4 88l-.7 9.8-.6 6.1-.1 1.6v.6ZM302 450.8v-13.7l.1-16c0-6.3.2-13.4.4-21.3.7-31.5 2.2-75 4-123.1a10148 10148 0 0 0 4.8-144.4l.2-16 .1-10.2v-2.7a21.2 21.2 0 0 1 .1 0v12.8c0 4.4 0 9.8-.2 16 0 6.3-.2 13.5-.4 21.4-.7 31.5-2.2 75-4 123a10139.7 10139.7 0 0 0-4.7 144.5l-.3 16v10.2l-.1 2.6v1ZM261.3 214c-4 5.4-8.8 12-9 18.6 0 1.9.2 3.9-.8 5.6-1.2 2.3-4.3 3.2-5.3 5.6-.8 2.1.3 4.5.7 6.7.6 3-.2 6.2-1.3 9.1-1 3-2.2 5.9-2.4 9-.2 3 .9 6.5 3.5 8.2l13.4-3 9-52.5-7.8-7.3Z"/><path fill="#263238" d="M217.4 318.5a60 60 0 0 0-3.2 37.4c2.9 9.3 12.3 47.5 12.3 47.5s-2.7 22.7-5.4 38.6l-2.6 15.5 14.3 2.7S246 418 247 406.5c1-11.4-3.2-54-3.2-54l3.4-12.5-29.7-21.5Z"/><path fill="#263238" d="m234.2 447.9-4 15.7.4 13.3c0 1-.7 1.7-1.8 1.7-.5 0-1-.3-1.4-.8-2-2.9-9.2-13.6-8.8-14.7.4-1.3 3.1-16.8 3.1-16.8l12.5 1.6Z"/><path fill="#455a64" d="m228.8 478.6-10-16.6-.2.7c0 .6 0 1.2.3 1.7.8 1.5 3 5.4 8.5 13.4.3.5.9.8 1.4.8Z"/><path fill="#fff" d="M223.4 457.8c.4.3.4 1 0 1.3a1 1 0 0 1-1.4 0c-.4-.4-.4-1.2 0-1.5.4-.3 1.2-.2 1.5.2" opacity=".6"/><path fill="#fff" d="M226.7 470.8c0 .1.6-.6 1.7-.9 1-.2 2 .2 2 .1l-.5-.3a3 3 0 0 0-1.6-.1c-.6.1-1 .4-1.3.7-.3.3-.4.5-.3.5ZM227.4 473.2c0 .1.7-.3 1.6-.3.9 0 1.6.3 1.7.2 0-.1-.7-.6-1.7-.6s-1.7.6-1.6.7ZM225.1 467.6c0 .1 1-.5 2.5-.7 1.4-.2 2.5.2 2.6 0 0 0-1.2-.5-2.7-.3-1.5.2-2.5 1-2.4 1ZM226 462.7l2.2.2c1.2.3 2 .8 2.1.7 0-.1-.8-.8-2-1-1.4-.3-2.4 0-2.4.1Z"/><path fill="#455a64" d="M238.5 407.4c0 .1-2.2-.5-4.5-2a13 13 0 0 1-3.8-3.2s1.7 1.3 4 2.7c2.3 1.5 4.3 2.3 4.3 2.5ZM235.4 452.7l-2.4.3a21.4 21.4 0 0 1-11-2.8c-1.2-.7-1.9-1.3-1.8-1.3 0-.2 3 1.9 7.3 3 4.2 1 7.9.6 7.9.8ZM234.8 454.7a21.4 21.4 0 0 1-13.3-2.5c-1.3-.7-2-1.2-2-1.3.1-.1 3.1 2 7.4 3 4.2 1 7.9.6 7.9.8Z"/><g fill="#455a64"><path d="M220 449s-.9.2-2.4-.2c-.7-.2-1.6-.5-2.4-1-.5-.3-1-.6-1.3-1.1-.4-.5-.6-1.3-.1-1.9.2-.3.6-.4 1-.4l.8.2 1.5.6a8 8 0 0 1 2.1 1.7c1 1.2 1.4 2.1 1.3 2.1 0 0-.5-.8-1.5-1.8a8.9 8.9 0 0 0-3.5-2.1c-.5-.2-1-.3-1.3 0-.3.4-.2 1 0 1.3l1.2 1 2.3 1c1.4.5 2.4.5 2.4.6Z"/><path d="m220.6 448.8-.3-.7a11.7 11.7 0 0 1-.9-5l.2-1.9c0-.3.2-.7.5-1 .3-.3.9-.3 1.2-.1.7.5 1 1.1 1.1 1.7l.3 1.9c-.1 1.2-.5 2.2-.9 3a16.2 16.2 0 0 1-1.5 2.4l1.2-2.5a8 8 0 0 0 .7-3 5 5 0 0 0-.3-1.6c-.1-.6-.4-1.2-.9-1.5h-.6l-.3.8-.2 1.8.1 3 .6 2.7Z"/></g><path fill="#263238" d="M242.5 336.2s10.8 62.6 14.8 69.9c4 7.3 32.3 54.1 32.3 54.1l13.9-5.7s-14.3-34.7-23.2-48.4c-8.9-13.6-.4-32-1-46.3-.6-14.2-1.4-22.7-7.7-30.6-6.2-8-29 7-29 7Z"/><path fill="#263238" d="m286.7 447.2 5.2 15.3.4 13.4c0 1 .9 1.7 1.9 1.5.5 0 1-.4 1.3-.8a88 88 0 0 0 7.9-15.3c-.6-1.3-4.4-16.6-4.4-16.6l-12.3 2.5Z"/><path fill="#455a64" d="m294.4 477.6 8.8-17.2.2.6c.2.6.2 1.2 0 1.8-.8 1.4-2.7 5.5-7.6 14-.3.4-.9.7-1.4.8Z"/><path fill="#fff" d="M296 469.7s-.7-.6-1.8-.8c-1.1-.1-2 .4-2 .3l.5-.4c.4-.2 1-.3 1.6-.2.6 0 1 .3 1.3.6l.4.5ZM295.5 472.1c0 .1-.8-.2-1.7-.2-.9 0-1.6.4-1.6.3 0 0 .6-.6 1.6-.6s1.8.5 1.7.5ZM297.3 466.4s-1-.4-2.5-.5c-1.4-.1-2.5.3-2.6.2 0 0 1.1-.7 2.6-.6 1.6.1 2.6.8 2.5.9ZM296.2 461.6s-1 0-2.2.3c-1.2.3-2 1-2.1.8-.1 0 .7-.8 2-1.1 1.2-.4 2.3-.1 2.3 0Z"/><path fill="#455a64" d="M302 451.1c0 .1-.7.5-2 1l-4.9 2.3a37 37 0 0 1-7.1 2.6l2-1 5-2.1c3.8-1.7 7-2.9 7-2.8ZM300.5 448.5s-.4.9-1.5 1.9c-1.1 1-3 2-5 2.7a25.8 25.8 0 0 1-8.1 1l2.3-.4c1.4-.2 3.4-.4 5.6-1 2-.7 3.8-1.7 5-2.6 1-1 1.6-1.7 1.7-1.6Z"/><path fill="#263238" d="m301.2 450 .2-1.1.9-3c.4-1.2 1-2.7 2-4.2a13.9 13.9 0 0 1 2.7-3c.2-.2.4-.4.8-.4.3 0 .7 0 .8.4.4.5.3 1 .3 1.6l-.2 1.4-1 2.6a14 14 0 0 1-3.1 3.4 25.8 25.8 0 0 1-3.5 2.4l3.2-2.7c1-.8 2-2 3-3.4a9.1 9.1 0 0 0 1-3.8V439c-.3-.3-.7-.3-1 0a12.8 12.8 0 0 0-2.7 3c-1 1.4-1.5 2.8-2 4l-1.4 4Z"/><path fill="#263238" d="m301.1 450.1-.6-1-1-2.9-.5-2-.8-2.3a11.4 11.4 0 0 1-.2-4.2c0-.3.1-.6.3-.8.1-.2.4-.5.7-.5.4-.1.7 0 1 .3l.4.6a13.5 13.5 0 0 1 1 4 23.6 23.6 0 0 1-.4 8.9l.2-4.2a26 26 0 0 0-.8-7.1l-.5-1.3c-.2-.4-.5-.8-.8-.7-.3 0-.5.5-.6.9l-.1 1.4c0 .9 0 1.8.2 2.6l.7 2.3.6 2 .8 3 .4 1Z"/><path fill="#455a64" d="M271.4 397.8c.2 0 .1 2.5-1.4 5-1.6 2.6-3.7 3.9-3.8 3.7 0-.1 1.9-1.5 3.3-4 1.5-2.3 1.8-4.7 2-4.7Z"/><path fill="#d8b4a1" d="M231.5 252s-.7 2-3.4 14.5c-1.3 6 .3 16.1-2.1 22.8-1.2 3.1-11.8 18-12.2 20s6.8 19 11.5 22.1c4.7 3.2 18.6 7.4 27 4.3 8.5-3 15-8.7 18.5-7.7 3.4 1 .8-2.5.8-2.5l-2.8-6.4s1-1-.1-3l-1.5-2.9 11-28.4 6.2-20.7-5.9-5.5s-23-16.2-28.5-17.6l-18.5 11Z"/><path fill="#263238" d="M239.6 320.2c-.2 0-1.6-6.6-3.1-15-1.6-8.2-2.7-14.9-2.6-14.9.1 0 1.5 6.6 3 14.9 1.7 8.3 2.8 15 2.7 15ZM254 313.3l-1-.6c-.7-.3-1.5-1-2.5-1.7a40.8 40.8 0 0 1-14-19.3l1.8 3.7a47.4 47.4 0 0 0 12.4 15.3c2 1.6 3.3 2.5 3.2 2.6ZM251 291.6l2.1 3.4a88.4 88.4 0 0 0 11.6 15.2c1.7 1.7 2.8 2.8 2.7 2.9l-.8-.7-2.1-2a66.8 66.8 0 0 1-13.4-18.8Z"/><path d="M237.4 296c.2-.6-.4-1.2-1-1.2s-1 .7-1.1 1.3c-.2.5 0 1.1 0 1.7l1.7 7.7c1.3 5.9 2.9 12.2 7.5 16 2 1.6 4.5 2.7 7 2.3 2.6-.4 4.9-2.4 5-5 .2-2-1-4-2.5-5.3-1.5-1.4-3.4-2.3-5-3.5a41.2 41.2 0 0 1-10.3-13.2" opacity=".3"/><path fill="#d8b4a1" d="M192.2 232.4s8.7-8.6 10.1-9.4c2.7-1.5 4.7-.6 7.2.1 9.7 2.9 26.7 11 29.8 12.3C243 237 250 241 250 241l-19.4 25.5 1.1-13.4-26.4-14.1-8.8 8.8-11.3-8s4.6-5.1 7-7.4Z"/><path fill="#455a64" d="M185.2 239.8s3.5-4.2 9-1c5.5 3.1 2.9 9 2.9 9-8.8 1.3-9.2-4.3-12-8Z"/><path fill="#ae7461" d="m188.9 237.7-.3 4.9-2.1 3s-6.6 7.3-7.8 10-5 6.7-3.7 9c0 0 1 .3 1.8-1.1.9-1.4 2.8-4.5 3.2-4.8.3-.2 0 1-.2 1.4-.2.5-2.8 6-3.4 7.7-.4 1.2.7 1.6 1.3 1.3 1-.4 2.9-5 2.9-5s-3 8-2.6 8.8c.4.8.9 1.1 1.6.4.8-.8 2.7-5.7 3-6.6.4-1 1.4-3.5 1.8-3.8.4-.4 1-.6.8.1-.1.7-2.6 7.8-3 8.8-.5 1-.8 2.9.5 3 1.4 0 3-4.7 3.7-6.7.7-1.9 3-6 3-6s-1 2.9-.8 4.7c.1 1.8.5 2.7 1.5 2.2s1-1 1-2.4 2.9-7.4 3.2-9.8l.8-8.2v-2.8l2.5-2c0-4-4.8-7-8.8-6Z"/><path fill="#263238" d="M203 227.7c.1 0 1.5 2.3 2.1 5.5.6 3.3.1 6 0 6-.2 0 0-2.7-.5-5.9s-1.7-5.5-1.6-5.6ZM207.4 228.2s.8 2.5.2 5.6c-.5 3.2-2.1 5.3-2.2 5.2-.1 0 1.2-2.3 1.7-5.3.6-3 .1-5.5.3-5.5ZM230.1 241.8s.4.8.7 2.3a27.6 27.6 0 0 1 .1 11.2 8.6 8.6 0 0 1-.7 2.3c-.1 0 .8-3.5.7-8 0-4.3-1-7.7-.8-7.8Z"/><path fill="#6f4439" d="M182.4 260.7c.2 0-.8 1.6-1.7 3.7-1 2-1.5 3.8-1.7 3.7a10 10 0 0 1 1.2-4c1-2 2.1-3.5 2.3-3.4Z"/><g fill="#263238"><path d="M189.2 243.2s-1 0-2.6-.7a13.5 13.5 0 0 1-4-2.4c-.2-.2-.5-.4-.7-.8-.2-.2-.2-.8.2-1.1.3-.3.7-.3 1-.3l1 .1a7.3 7.3 0 0 1 4 2.4c.6.6 1 1.3 1.1 1.7l.2.7c-.1 0-.4-1-1.5-2.1a7.6 7.6 0 0 0-4-2.2c-.4 0-1.2-.2-1.5 0-.3.3 0 1 .5 1.3a15.7 15.7 0 0 0 3.8 2.4l2.5 1Z"/><path d="M189.3 243s-.1-1 .3-2.5a11.6 11.6 0 0 1 1.9-3.9l.6-.7c.3-.2.9-.2 1.2.2.5.6.3 1.3.2 1.8l-.6 1.6c-.5 1-1.2 1.7-1.7 2.2l-2 1.6 1.7-1.9c.5-.5 1.1-1.2 1.6-2.1l.5-1.5c0-.5.2-1-.1-1.4-.3-.3-.7 0-1 .5l-.9 1.3c-.5.9-.8 1.7-1 2.5-.6 1.4-.6 2.4-.7 2.4Z"/></g><path fill="#263238" d="M188 243.4s.4-.3 1.2-.4c.8-.1 1.8 0 3 .4 1 .3 2 1 2.4 1.5.6.6.8 1 .7 1-.1.2-1.2-1.4-3.3-2-1.1-.3-2-.6-2.8-.6l-1.1.1Z"/><path fill="#ae7461" d="M338.8 326.5s6.6 6 8 8.4 5.1 5.6 4.2 7.7c0 0-.9.4-1.8-.8-.8-1.1-3-3.8-3.3-4-.3-.1.1 1 .3 1.3.2.4 3.5 5 3.9 6.6.4 1.7 0 1.8-1 1.4s-3.2-4.4-3.2-4.4 3.5 7 3.2 7.8-.7 1.1-1.5.5c-.7-.6-2.9-4.9-3.3-5.7s-1.6-3-2-3.3c-.4-.2-1-.4-.7.2.2.7 3 6.8 3.6 7.8.5.9 1 2.5-.2 2.7-1.2.1-3.2-4-4-5.7-.8-1.7-3.3-5.1-3.3-5.1s1.2 2.4 1.2 4.1c0 1.7-.2 2.5-1.2 2.2-1-.3-1-.8-1.2-2.2-.1-1.3-3.3-6.4-3.7-8.6-.5-2.1-1.3-7.2-1.3-7.2l-.3-2.5-4.6-4.4s.2-6.3 6.7-6l1.2.3 2 6.4 2.3 2.6Z"/><path fill="#6f4439" d="M343.3 339c0-.1 1.4 1.2 2.6 3.2a10 10 0 0 1 1.7 3.8c-.2 0-1-1.7-2.1-3.6-1.2-1.9-2.3-3.3-2.2-3.4Z"/><path fill="#d8b4a1" d="M303 282.9c-3.4-3.6-17.9-20.2-18.6-20.8-.6-.5-6.5 9.8-6.5 9.8l-2.5 9.6c.5.6 25 18.5 25.2 20.2.1 1.4 24.1 24.1 27.5 28.4l10-9.3a937.7 937.7 0 0 0-35-37.9Z"/><path fill="#263238" d="m338.6 326.3-1.2-.3a6 6 0 0 0-3 .1c-1 .4-2 1-2.4 1.6l-.9 1s0-.6.6-1.2a5.3 5.3 0 0 1 5.8-1.9c.7.3 1.1.6 1.1.7Z"/><path fill="#263238" d="M337.2 325.4s-.3.3-1 .3c-.6 0-1.4-.5-2.3-1l-3.4-1.7c-.6-.3-1.3-.6-1.9-1.2-.6-.6-1-1.6-.5-2.5.3-.4.7-.7 1.2-.7.4 0 .9 0 1.3.2l1.8 1.3 2.8 2.6a10 10 0 0 1 1.4 2.1l.4.9c-.1 0-.6-1.2-2-2.7l-2.9-2.5c-.6-.4-1.1-1-1.8-1.2-.6-.3-1.4-.3-1.8.3-.3.6 0 1.4.5 1.8.5.5 1.1.9 1.8 1.2l3.2 1.8c1 .6 1.7 1 2.3 1h.9Z"/><path fill="#263238" d="m336.5 324.8-.6-1a13.7 13.7 0 0 1 .7-11.8l.6-.7a1 1 0 0 1 1 0c.6.2.8.8 1 1.3a11 11 0 0 1 .5 4.2c-.2 1.8-.6 3.4-1 4.6a33 33 0 0 1-1.8 4l1.4-4c.4-1.3.8-2.9.9-4.6a12.4 12.4 0 0 0-.5-4c-.2-.5-.4-1-.7-1.1-.3-.2-.7.1-.9.5a13.7 13.7 0 0 0-1.7 8.4c.4 2.7 1.2 4.1 1.1 4.2ZM310.8 289.7c-1-3.7-1.1-7.7-3-11-1.6-2.8-4.4-5-5-8.2-.6-3.9 2.3-7.6 2.2-11.6-.1-4.4-4-7.8-6-11.8-4.1-8.6-3-19.7-5-27.2L280 240l-6.4 15c19 11.5-4.7 30.4-2.6 46.6 8 3.6 19.5 6 28 4.3l-.9-5.7a6.2 6.2 0 0 0 4.2 3.3c2.6.5 5.3-.3 7.7-1.4 3-1.2 5.7-2.8 8.2-4.8-3.8-.2-6.4-4-7.4-7.7Z"/><path fill="#263238" d="M294.4 221.1a20 20 0 0 0-11-13.3c-3.3-1.5-4.9-1.5-7.5-1.9-2.6-.4-5.3 0-7.5 1.3a18.7 18.7 0 0 0-6.8 6.3 52.4 52.4 0 0 0-4.4 8.6c-1 3-1.5 6.3-.9 9.5l7 4.6c4 2 8 4 12.5 4.8 4.5.8 9.3.4 13-2.2 5.2-3.5 7.3-11.7 5.6-17.7Z"/><path fill="#ae7461" d="m287.8 218.1-8.2-8.3-2.7-.9c-5.9-2.5-12.8 2.1-14.9 6.8a92 92 0 0 0-6 16 11 11 0 0 0 4.6 12.1l-1 2.2-4-2.4-2.4 25.4 23-12-2.6-1.8 15.6-33.2a3 3 0 0 0-1.4-3.9Z"/><path fill="#6f4439" d="M268.6 235c0-.4 0-.8-.2-1.2a1.9 1.9 0 0 0-2-1c-.8 0-1.5.8-1.8 1.7a2.2 2.2 0 0 0 1.4 1.6c.4.2 1 .3 1.5 0 .4 0 .9-.5 1-1Z"/><path fill="#263238" d="M261.1 223.4c-.2.5 0 1.1.6 1.4a1 1 0 0 0 1.5-.5c.2-.6 0-1.2-.6-1.5a1 1 0 0 0-1.5.6ZM262.6 219.1c0 .2 1 0 2.2.4 1.1.4 1.7 1.3 1.9 1.2l-.2-.8a3 3 0 0 0-3.3-1.2c-.4.2-.6.4-.6.5ZM265.8 230.7l-1.7-1c-.2-.1-.5-.3-.5-.5s.3-.5.5-.7l1.7-1.9c2.3-2.6 4.1-4.8 4-5a39.8 39.8 0 0 0-6 6.6c-.2.2-.6.5-.6 1 0 .3.2.5.3.6l.5.3 1.8.7Z"/><path fill="#6f4439" d="M260.6 243.8s5.3 2.4 11.9 1.2c0 0-5 4.5-12.8.7l1-1.9Z"/><path fill="#263238" d="M263.7 216.8c0 .3 1 .5 2 1 1 .3 1.7 1 2 .8.1 0 .1-.4-.1-.8-.3-.4-.8-.9-1.4-1.2-.7-.3-1.4-.3-1.8-.3-.5.1-.7.3-.7.5ZM272.3 228c-.2.6-.8.9-1.4.7a1 1 0 0 1-.7-1.4 1 1 0 0 1 1.4-.6c.6.2.9.8.7 1.4ZM277.5 225.2c-.2.1-.7-.8-1.8-1.2-1.1-.5-2.2-.3-2.2-.5 0 0 .2-.3.6-.4a3 3 0 0 1 1.8.2 3 3 0 0 1 1.4 1.2l.2.7ZM278.4 221.5c-.3.1-1-.5-2.1-1-1-.4-2-.6-2-.9 0-.2.2-.3.6-.4.5-.1 1.2 0 1.9.3s1.2.8 1.4 1.2c.3.4.3.7.2.8Z"/><path fill="#ae7461" d="M282 234.6c.3-.6 1.5-1.8 2.1-1.7 1.7.4 4.5 1.6 3 5.6-2 5.5-7.2 2.3-7.1 2.2 0-.1 1.2-4 2-6.1Z"/><path fill="#6f4439" d="m282.3 239.3.2.2c.1.1.4.3.7.3.6 0 1.5-.8 1.9-1.8.2-.4.2-1 .2-1.4 0-.5-.2-.9-.4-1a.5.5 0 0 0-.7 0l-.2.3v-.4l.4-.2h.6c.4.2.7.8.7 1.3s0 1-.3 1.6c-.4 1.1-1.4 2-2.2 1.9-.5 0-.7-.3-.9-.5v-.3Z"/><path fill="#263238" d="m284.3 233-2 .9c-3.4-8.3-8.6-27.4-8.3-26.3 0 0 4.7.1 8.8 2.8 4 2.7 11.4 8.6 9 13.6-2.5 5.1-7.5 9-7.5 9ZM269.4 235l-2.6-.4c-1.4-.4-2.5-.4-2.6-.6 0-.1 1.3-.3 2.7 0 1.4.4 2.5.8 2.5 1Z"/></svg>