<svg xmlns="http://www.w3.org/2000/svg" viewBox="0 0 500 500"><path fill="#f5f5f5" d="M458.9 472.7c0 3.4-93.5 6.2-208.9 6.2S41.1 476 41.1 472.7s93.5-6 208.9-6 208.9 2.7 208.9 6Z"/><path fill="#263238" d="M436.3 209h-65.9v-62.3h66z"/><path fill="#fff" d="M436.3 209h-65.9v-62.3h66z" opacity=".5"/><path fill="#263238" d="M371.4 146.8h66.3l-3.2-5.8h-63.1v5.8z"/><rect width="65" height=".8" x="371.4" y="184.7" fill="#fff" rx=".4" ry=".4" transform="rotate(180 403.9 185.1)"/><path fill="#fff" d="M436.3 209h-66v-24h66z" opacity=".3"/><path fill="#d8b4a1" d="M427.2 163H422v-10.4h5.2z"/><path fill="#fff" d="m422 154.2 5.2 4.4v2.6l-5.2-4v-3Z" opacity=".2"/><path fill="#d8b4a1" d="M416.8 163h-5.2v-10.4h5.2z"/><path fill="#fff" d="M416.8 163h-5.2v-10.4h5.2z" opacity=".4"/><path fill="#fff" d="m411.6 154.2 5.2 4.4v2.6l-5.2-4v-3Z" opacity=".2"/><path fill="#d8b4a1" d="M406.4 163h-5.2v-10.4h5.2z"/><path fill="#fff" d="M406.4 163h-5.2v-10.4h5.2z" opacity=".4"/><path fill="#fff" d="m401.2 154.2 5.2 4.4v2.6l-5.2-4v-3Z" opacity=".2"/><path fill="#d8b4a1" d="M396 163H391v-10.4h5.2z"/><path fill="#fff" d="M396 163H391v-10.4h5.2z" opacity=".4"/><path fill="#fff" d="m390.8 154.2 5.2 4.4v2.6l-5.2-4v-3Z" opacity=".2"/><path fill="#fff" d="M427.8 163.8H421v-.8h6.7zM417.5 163.8h-6.7v-.8h6.7zM407.2 163.8h-6.7v-.8h6.7zM396.9 163.8h-6.7v-.8h6.7z"/><path fill="#d8b4a1" d="M385.9 163h-5.2v-10.4h5.2z"/><path fill="#fff" d="M385.9 163h-5.2v-10.4h5.2z" opacity=".4"/><path fill="#fff" d="m380.6 154.2 5.2 4.4v2.6l-5.2-4v-3Z" opacity=".2"/><path fill="#fff" d="M386.7 163.8H380v-.8h6.7z"/><path fill="#fff" d="M427.2 163H422v-10.4h5.2z" opacity=".4"/><path fill="#d8b4a1" d="M427.2 180.1H422v-10.4h5.2z"/><path fill="#fff" d="m422 171.4 5.2 4.4v2.6l-5.2-4v-3Z" opacity=".2"/><path fill="#d8b4a1" d="M416.8 180.1h-5.2v-10.4h5.2z"/><path fill="#fff" d="M416.8 180.1h-5.2v-10.4h5.2z" opacity=".4"/><path fill="#fff" d="m411.6 171.4 5.2 4.4v2.6l-5.2-4v-3Z" opacity=".2"/><path fill="#d8b4a1" d="M406.4 180.1h-5.2v-10.4h5.2z"/><path fill="#fff" d="M406.4 180.1h-5.2v-10.4h5.2z" opacity=".4"/><path fill="#fff" d="m401.2 171.4 5.2 4.4v2.6l-5.2-4v-3Z" opacity=".2"/><path fill="#d8b4a1" d="M396 180.1H391v-10.4h5.2z"/><path fill="#fff" d="M396 180.1H391v-10.4h5.2z" opacity=".4"/><path fill="#fff" d="m390.8 171.4 5.2 4.4v2.6l-5.2-4v-3Z" opacity=".2"/><path fill="#fff" d="M427.8 180.9H421v-.8h6.7zM417.5 180.9h-6.7v-.8h6.7zM407.2 180.9h-6.7v-.8h6.7zM396.9 180.9h-6.7v-.8h6.7z"/><path fill="#d8b4a1" d="M385.9 180.1h-5.2v-10.4h5.2z"/><path fill="#fff" d="M385.9 180.1h-5.2v-10.4h5.2z" opacity=".4"/><path fill="#fff" d="m380.6 171.4 5.2 4.4v2.6l-5.2-4v-3Z" opacity=".2"/><path fill="#fff" d="M386.7 180.9H380v-.8h6.7z"/><path fill="#fff" d="M427.2 180.1H422v-10.4h5.2z" opacity=".4"/><path fill="#d8b4a1" d="M427.2 201.2H422v-10.4h5.2z"/><path fill="#fff" d="m422 192.4 5.2 4.4v2.6l-5.2-4v-3Z" opacity=".2"/><path fill="#d8b4a1" d="M416.8 201.2h-5.2v-10.4h5.2z"/><path fill="#fff" d="M416.8 201.2h-5.2v-10.4h5.2z" opacity=".4"/><path fill="#fff" d="m411.6 192.4 5.2 4.4v2.6l-5.2-4v-3Z" opacity=".2"/><path fill="#d8b4a1" d="M406.4 201.2h-5.2v-10.4h5.2z"/><path fill="#fff" d="M406.4 201.2h-5.2v-10.4h5.2z" opacity=".4"/><path fill="#fff" d="m401.2 192.4 5.2 4.4v2.6l-5.2-4v-3Z" opacity=".2"/><path fill="#d8b4a1" d="M396 201.2H391v-10.4h5.2z"/><path fill="#fff" d="M396 201.2H391v-10.4h5.2z" opacity=".4"/><path fill="#fff" d="m390.8 192.4 5.2 4.4v2.6l-5.2-4v-3Z" opacity=".2"/><path fill="#fff" d="M427.8 201.9H421v-.8h6.7zM417.5 201.9h-6.7v-.8h6.7zM407.2 201.9h-6.7v-.8h6.7zM396.9 201.9h-6.7v-.8h6.7z"/><path fill="#d8b4a1" d="M385.9 201.2h-5.2v-10.4h5.2z"/><path fill="#fff" d="M385.9 201.2h-5.2v-10.4h5.2z" opacity=".4"/><path fill="#fff" d="m380.6 192.4 5.2 4.4v2.6l-5.2-4v-3Z" opacity=".2"/><path fill="#fff" d="M386.7 201.9H380v-.8h6.7z"/><path fill="#fff" d="M427.2 201.2H422v-10.4h5.2z" opacity=".4"/><path fill="#fff" d="M371.4 146.8h66.3l-3.2-5.8h-63.1v5.8z" opacity=".3"/><path d="M436.3 147.6h-65.9v-.9h66z" opacity=".2"/><path d="M390.2 208.8H386V141h4.2z" opacity=".1"/><path fill="#263238" d="M59.7 146.8h65.9V209H59.7z"/><path fill="#fff" d="M59.7 146.8h65.9V209H59.7z" opacity=".5"/><path fill="#263238" d="M124.7 146.8H58.4l3.2-5.8h63.1v5.8z"/><rect width="65" height=".8" x="59.7" y="184.7" fill="#fff" rx=".4" ry=".4"/><path fill="#fff" d="M59.8 185.1h65.9V209H59.8z" opacity=".3"/><path fill="#d8b4a1" d="M68.9 152.5h5.2v10.4h-5.2z"/><path fill="#fff" d="m74 154.2-5.1 4.4v2.6l5.2-4v-3Z" opacity=".2"/><path fill="#d8b4a1" d="M79.3 152.5h5.2v10.4h-5.2z"/><path fill="#fff" d="M79.3 152.5h5.2v10.4h-5.2z" opacity=".4"/><path fill="#fff" d="m84.5 154.2-5.2 4.4v2.6l5.2-4v-3Z" opacity=".2"/><path fill="#d8b4a1" d="M89.7 152.5h5.2v10.4h-5.2z"/><path fill="#fff" d="M89.7 152.5h5.2v10.4h-5.2z" opacity=".4"/><path fill="#fff" d="m94.8 154.2-5.1 4.4v2.6l5.1-4v-3Z" opacity=".2"/><path fill="#d8b4a1" d="M100 152.5h5.2v10.4H100z"/><path fill="#fff" d="M100 152.5h5.2v10.4H100z" opacity=".4"/><path fill="#fff" d="m105.2 154.2-5.2 4.4v2.6l5.2-4v-3Z" opacity=".2"/><path fill="#fff" d="M68.3 162.9H75v.8h-6.7zM78.6 162.9h6.7v.8h-6.7zM88.9 162.9h6.7v.8h-6.7zM99.2 162.9h6.7v.8h-6.7z"/><path fill="#d8b4a1" d="M110.3 152.5h5.2v10.4h-5.2z"/><path fill="#fff" d="M110.3 152.5h5.2v10.4h-5.2z" opacity=".4"/><path fill="#fff" d="m115.4 154.2-5.1 4.4v2.6l5.1-4v-3Z" opacity=".2"/><path fill="#fff" d="M109.4 162.9h6.7v.8h-6.7z"/><path fill="#fff" d="M68.9 152.5h5.2v10.4h-5.2z" opacity=".4"/><path fill="#d8b4a1" d="M68.9 169.7h5.2v10.4h-5.2z"/><path fill="#fff" d="m74 171.4-5.1 4.4v2.6l5.2-4v-3Z" opacity=".2"/><path fill="#d8b4a1" d="M79.3 169.7h5.2v10.4h-5.2z"/><path fill="#fff" d="M79.3 169.7h5.2v10.4h-5.2z" opacity=".4"/><path fill="#fff" d="m84.5 171.4-5.2 4.4v2.6l5.2-4v-3Z" opacity=".2"/><path fill="#d8b4a1" d="M89.7 169.7h5.2v10.4h-5.2z"/><path fill="#fff" d="M89.7 169.7h5.2v10.4h-5.2z" opacity=".4"/><path fill="#fff" d="m94.8 171.4-5.1 4.4v2.6l5.1-4v-3Z" opacity=".2"/><path fill="#d8b4a1" d="M100 169.7h5.2v10.4H100z"/><path fill="#fff" d="M100 169.7h5.2v10.4H100z" opacity=".4"/><path fill="#fff" d="m105.2 171.4-5.2 4.4v2.6l5.2-4v-3Z" opacity=".2"/><path fill="#fff" d="M68.3 180.1H75v.8h-6.7zM78.6 180.1h6.7v.8h-6.7zM88.9 180.1h6.7v.8h-6.7zM99.2 180.1h6.7v.8h-6.7z"/><path fill="#d8b4a1" d="M110.3 169.7h5.2v10.4h-5.2z"/><path fill="#fff" d="M110.3 169.7h5.2v10.4h-5.2z" opacity=".4"/><path fill="#fff" d="m115.4 171.4-5.1 4.4v2.6l5.1-4v-3Z" opacity=".2"/><path fill="#fff" d="M109.4 180.1h6.7v.8h-6.7z"/><path fill="#fff" d="M68.9 169.7h5.2v10.4h-5.2z" opacity=".4"/><path fill="#d8b4a1" d="M68.9 190.7h5.2v10.4h-5.2z"/><path fill="#fff" d="m74 192.4-5.1 4.4v2.6l5.2-4v-3Z" opacity=".2"/><path fill="#d8b4a1" d="M79.3 190.7h5.2v10.4h-5.2z"/><path fill="#fff" d="M79.3 190.7h5.2v10.4h-5.2z" opacity=".4"/><path fill="#fff" d="m84.5 192.4-5.2 4.4v2.6l5.2-4v-3Z" opacity=".2"/><path fill="#d8b4a1" d="M89.7 190.7h5.2v10.4h-5.2z"/><path fill="#fff" d="M89.7 190.7h5.2v10.4h-5.2z" opacity=".4"/><path fill="#fff" d="m94.8 192.4-5.1 4.4v2.6l5.1-4v-3Z" opacity=".2"/><path fill="#d8b4a1" d="M100 190.7h5.2v10.4H100z"/><path fill="#fff" d="M100 190.7h5.2v10.4H100z" opacity=".4"/><path fill="#fff" d="m105.2 192.4-5.2 4.4v2.6l5.2-4v-3Z" opacity=".2"/><path fill="#fff" d="M68.3 201.2H75v.8h-6.7zM78.6 201.2h6.7v.8h-6.7zM88.9 201.2h6.7v.8h-6.7zM99.2 201.2h6.7v.8h-6.7z"/><path fill="#d8b4a1" d="M110.3 190.7h5.2v10.4h-5.2z"/><path fill="#fff" d="M110.3 190.7h5.2v10.4h-5.2z" opacity=".4"/><path fill="#fff" d="m115.4 192.4-5.1 4.4v2.6l5.1-4v-3Z" opacity=".2"/><path fill="#fff" d="M109.4 201.2h6.7v.8h-6.7z"/><path fill="#fff" d="M68.9 190.7h5.2v10.4h-5.2z" opacity=".4"/><path fill="#fff" d="M124.7 146.8H58.4l3.2-5.8h63.1v5.8z" opacity=".3"/><path d="M59.7 146.8h65.9v.9H59.7z" opacity=".2"/><path fill="#263238" d="M204.3 114.2h88.2v85.9h-88.2z"/><path fill="#fff" d="M204.3 114.2h88.2v85.9h-88.2z" opacity=".5"/><path fill="#fff" d="M209.2 167.7h79.2v30.7h-79.2z" opacity=".3"/><path fill="#fff" d="M210 167.7h77.9v1.8H210z"/><path d="M213 198.4c.8 0 0-75.3 0-75.3l4.6-3.7h65l2.4 2.3v76.7h8.2v-85.6h-85s-1.4 87.9 0 86.6 4.7-1 4.7-1Z" opacity=".1"/><path fill="#263238" d="M110.1 124h90v84.9h-90z"/><path fill="#fff" d="M110.1 124h90v84.9h-90z" opacity=".5"/><path fill="#263238" d="M198.8 124h-90.5l4.4-7.9h86.1v7.9z"/><path fill="#fff" d="M110.6 175.9h87.7c.2 0 .5.2.5.5s-.3.5-.5.5h-87.7a.5.5 0 0 1-.5-.5c0-.3.2-.5.5-.5Z"/><path fill="#fff" d="M110.2 176.4h90V209h-90z" opacity=".3"/><path fill="#d8b4a1" d="M122.6 131.9h7.1v14.3h-7.1z"/><path fill="#fff" d="m129.7 134.2-7 6v3.5l7-5.5v-4Z" opacity=".2"/><path fill="#d8b4a1" d="M136.8 131.9h7.1v14.3h-7.1z"/><path fill="#fff" d="M136.8 131.9h7.1v14.3h-7.1z" opacity=".4"/><path fill="#fff" d="m143.9 134.2-7 6v3.5l7-5.5v-4Z" opacity=".2"/><path fill="#d8b4a1" d="M151 131.9h7.1v14.3H151z"/><path fill="#fff" d="M151 131.9h7.1v14.3H151z" opacity=".4"/><path fill="#fff" d="m158 134.2-7 6v3.5l7-5.5v-4Z" opacity=".2"/><path fill="#d8b4a1" d="M165.2 131.9h7.1v14.3h-7.1z"/><path fill="#fff" d="M165.2 131.9h7.1v14.3h-7.1z" opacity=".4"/><path fill="#fff" d="m172.3 134.2-7.1 6v3.5l7-5.5v-4Z" opacity=".2"/><path fill="#fff" d="M121.8 146.1h9.1v1.1h-9.1zM135.9 146.1h9.1v1.1h-9.1zM149.9 146.1h9.1v1.1h-9.1zM164 146.1h9.1v1.1H164z"/><path fill="#d8b4a1" d="M179.1 131.9h7.1v14.3h-7.1z"/><path fill="#fff" d="M179.1 131.9h7.1v14.3h-7.1z" opacity=".4"/><path fill="#fff" d="m186.2 134.2-7 6v3.5l7-5.5v-4Z" opacity=".2"/><path fill="#fff" d="M177.9 146.1h9.1v1.1h-9.1z"/><path fill="#fff" d="M122.6 131.9h7.1v14.3h-7.1z" opacity=".4"/><path fill="#d8b4a1" d="M122.6 155.3h7.1v14.3h-7.1z"/><path fill="#fff" d="m129.7 157.7-7 6v3.5l7-5.6v-4Z" opacity=".2"/><path fill="#d8b4a1" d="M136.8 155.3h7.1v14.3h-7.1z"/><path fill="#fff" d="M136.8 155.3h7.1v14.3h-7.1z" opacity=".4"/><path fill="#fff" d="m143.9 157.7-7 6v3.5l7-5.6v-4Z" opacity=".2"/><path fill="#d8b4a1" d="M151 155.3h7.1v14.3H151z"/><path fill="#fff" d="M151 155.3h7.1v14.3H151z" opacity=".4"/><path fill="#fff" d="m158 157.7-7 6v3.5l7-5.6v-4Z" opacity=".2"/><path fill="#d8b4a1" d="M165.2 155.3h7.1v14.3h-7.1z"/><path fill="#fff" d="M165.2 155.3h7.1v14.3h-7.1z" opacity=".4"/><path fill="#fff" d="m172.3 157.7-7.1 6v3.5l7-5.6v-4Z" opacity=".2"/><path fill="#fff" d="M121.8 169.6h9.1v1.1h-9.1zM135.9 169.6h9.1v1.1h-9.1zM149.9 169.6h9.1v1.1h-9.1zM164 169.6h9.1v1.1H164z"/><path fill="#d8b4a1" d="M179.1 155.3h7.1v14.3h-7.1z"/><path fill="#fff" d="M179.1 155.3h7.1v14.3h-7.1z" opacity=".4"/><path fill="#fff" d="m186.2 157.7-7 6v3.5l7-5.6v-4Z" opacity=".2"/><path fill="#fff" d="M177.9 169.6h9.1v1.1h-9.1z"/><path fill="#fff" d="M122.6 155.3h7.1v14.3h-7.1z" opacity=".4"/><path fill="#d8b4a1" d="M122.6 184.1h7.1v14.3h-7.1z"/><path fill="#fff" d="m129.7 186.4-7 6v3.5l7-5.5v-4Z" opacity=".2"/><path fill="#d8b4a1" d="M136.8 184.1h7.1v14.3h-7.1z"/><path fill="#fff" d="M136.8 184.1h7.1v14.3h-7.1z" opacity=".4"/><path fill="#fff" d="m143.9 186.4-7 6v3.5l7-5.5v-4Z" opacity=".2"/><path fill="#d8b4a1" d="M151 184.1h7.1v14.3H151z"/><path fill="#fff" d="M151 184.1h7.1v14.3H151z" opacity=".4"/><path fill="#fff" d="m158 186.4-7 6v3.5l7-5.5v-4Z" opacity=".2"/><path fill="#d8b4a1" d="M165.2 184.1h7.1v14.3h-7.1z"/><path fill="#fff" d="M165.2 184.1h7.1v14.3h-7.1z" opacity=".4"/><path fill="#fff" d="m172.3 186.4-7.1 6v3.5l7-5.5v-4Z" opacity=".2"/><path fill="#fff" d="M121.8 198.3h9.1v1.1h-9.1zM135.9 198.3h9.1v1.1h-9.1zM149.9 198.3h9.1v1.1h-9.1zM164 198.3h9.1v1.1H164z"/><path fill="#d8b4a1" d="M179.1 184.1h7.1v14.3h-7.1z"/><path fill="#fff" d="M179.1 184.1h7.1v14.3h-7.1z" opacity=".4"/><path fill="#fff" d="m186.2 186.4-7 6v3.5l7-5.5v-4Z" opacity=".2"/><path fill="#fff" d="M177.9 198.3h9.1v1.1h-9.1z"/><path fill="#fff" d="M122.6 184.1h7.1v14.3h-7.1z" opacity=".4"/><path fill="#fff" d="M198.8 124h-90.5l4.4-7.9h86.1v7.9z" opacity=".3"/><path d="M110.1 124h90v1.2h-90z" opacity=".2"/><path fill="#263238" d="M386.8 208.6h-90v-85h90z"/><path fill="#fff" d="M386.8 208.6h-90v-85h90z" opacity=".5"/><path fill="#263238" d="M298.2 123.6h90.4l-4.4-7.9h-86v7.9z"/><path fill="#fff" d="M386.3 176.5h-87.6a.5.5 0 0 1-.6-.5c0-.3.3-.5.6-.5h87.6c.3 0 .5.2.5.5s-.2.5-.5.5Z"/><path fill="#fff" d="M386.7 208.6h-90V176h90z" opacity=".3"/><path fill="#d8b4a1" d="M374.3 145.8h-7v-14.3h7z"/><path fill="#fff" d="m367.2 133.8 7.1 6v3.5l-7-5.5v-4Z" opacity=".2"/><path fill="#d8b4a1" d="M360 145.8h-7v-14.3h7z"/><path fill="#fff" d="M360 145.8h-7v-14.3h7z" opacity=".4"/><path fill="#fff" d="m353 133.8 7.1 6v3.5l-7-5.5v-4Z" opacity=".2"/><path fill="#d8b4a1" d="M345.9 145.8h-7.1v-14.3h7.1z"/><path fill="#fff" d="M345.9 145.8h-7.1v-14.3h7.1z" opacity=".4"/><path fill="#fff" d="m338.9 133.8 7 6v3.5l-7-5.5v-4Z" opacity=".2"/><path fill="#d8b4a1" d="M331.7 145.8h-7v-14.3h7z"/><path fill="#fff" d="M331.7 145.8h-7v-14.3h7z" opacity=".4"/><path fill="#fff" d="m324.7 133.8 7 6v3.5l-7-5.5v-4Z" opacity=".2"/><path fill="#fff" d="M375.1 146.8h-9v-1.1h9zM361.1 146.8H352v-1.1h9.1zM347 146.8h-9.1v-1.1h9zM333 146.8h-9.1v-1.1h9z"/><path fill="#d8b4a1" d="M317.9 145.8h-7.1v-14.3h7z"/><path fill="#fff" d="M317.9 145.8h-7.1v-14.3h7z" opacity=".4"/><path fill="#fff" d="m310.7 133.8 7.1 6v3.5l-7-5.5v-4Z" opacity=".2"/><path fill="#fff" d="M319 146.8h-9.1v-1.1h9z"/><path fill="#fff" d="M374.3 145.8h-7v-14.3h7z" opacity=".4"/><path fill="#d8b4a1" d="M374.3 169.2h-7V155h7z"/><path fill="#fff" d="m367.2 157.3 7.1 6v3.5l-7-5.6v-4Z" opacity=".2"/><path fill="#d8b4a1" d="M360 169.2h-7V155h7z"/><path fill="#fff" d="M360 169.2h-7V155h7z" opacity=".4"/><path fill="#fff" d="m353 157.3 7.1 6v3.5l-7-5.6v-4Z" opacity=".2"/><path fill="#d8b4a1" d="M345.9 169.2h-7.1V155h7.1z"/><path fill="#fff" d="M345.9 169.2h-7.1V155h7.1z" opacity=".4"/><path fill="#fff" d="m338.9 157.3 7 6v3.5l-7-5.6v-4Z" opacity=".2"/><path fill="#d8b4a1" d="M331.7 169.2h-7V155h7z"/><path fill="#fff" d="M331.7 169.2h-7V155h7z" opacity=".4"/><path fill="#fff" d="m324.7 157.3 7 6v3.5l-7-5.6v-4Z" opacity=".2"/><path fill="#fff" d="M375.1 170.2h-9V169h9zM361.1 170.2H352V169h9.1zM347 170.2h-9.1V169h9zM333 170.2h-9.1V169h9z"/><path fill="#d8b4a1" d="M317.9 169.2h-7.1V155h7z"/><path fill="#fff" d="M317.9 169.2h-7.1V155h7z" opacity=".4"/><path fill="#fff" d="m310.7 157.3 7.1 6v3.5l-7-5.6v-4Z" opacity=".2"/><path fill="#fff" d="M319 170.2h-9.1V169h9z"/><path fill="#fff" d="M374.3 169.2h-7V155h7z" opacity=".4"/><path fill="#d8b4a1" d="M374.3 198h-7v-14.4h7z"/><path fill="#fff" d="m367.2 186 7.1 6v3.5l-7-5.5v-4Z" opacity=".2"/><path fill="#d8b4a1" d="M360 198h-7v-14.4h7z"/><path fill="#fff" d="M360 198h-7v-14.4h7z" opacity=".4"/><path fill="#fff" d="m353 186 7.1 6v3.5l-7-5.5v-4Z" opacity=".2"/><path fill="#d8b4a1" d="M345.9 198h-7.1v-14.4h7.1z"/><path fill="#fff" d="M345.9 198h-7.1v-14.4h7.1z" opacity=".4"/><path fill="#fff" d="m338.9 186 7 6v3.5l-7-5.5v-4Z" opacity=".2"/><path fill="#d8b4a1" d="M331.7 198h-7v-14.4h7z"/><path fill="#fff" d="M331.7 198h-7v-14.4h7z" opacity=".4"/><path fill="#fff" d="m324.7 186 7 6v3.5l-7-5.5v-4Z" opacity=".2"/><path fill="#fff" d="M375.1 199h-9v-1.1h9zM361.1 199H352v-1.1h9.1zM347 199h-9.1v-1.1h9zM333 199h-9.1v-1.1h9z"/><path fill="#d8b4a1" d="M317.9 198h-7.1v-14.4h7z"/><path fill="#fff" d="M317.9 198h-7.1v-14.4h7z" opacity=".4"/><path fill="#fff" d="m310.7 186 7.1 6v3.5l-7-5.5v-4Z" opacity=".2"/><path fill="#fff" d="M319 199h-9.1v-1.1h9z"/><path fill="#fff" d="M374.3 198h-7v-14.4h7z" opacity=".4"/><path fill="#fff" d="M298.2 123.6h90.4l-4.4-7.9h-86v7.9z" opacity=".3"/><path d="M386.8 124.9h-90v-1.2h90z" opacity=".2"/><path fill="#d8b4a1" d="M222.2 130.9h7.7V151h-7.7z"/><path fill="#fff" d="M222.2 130.9h7.7V151h-7.7z" opacity=".4"/><path fill="#fff" d="m229.9 134.2-7.7 8.4v5l7.7-7.8v-5.6Z" opacity=".2"/><path fill="#d8b4a1" d="M237.6 130.9h7.7V151h-7.7z"/><path fill="#fff" d="M237.6 130.9h7.7V151h-7.7z" opacity=".4"/><path fill="#fff" d="m245.3 134.2-7.7 8.4v5l7.7-7.8v-5.6Z" opacity=".2"/><path fill="#d8b4a1" d="M253.1 130.9h7.7V151h-7.7z"/><path fill="#fff" d="M253.1 130.9h7.7V151h-7.7z" opacity=".4"/><path fill="#fff" d="m260.8 134.2-7.7 8.4v5l7.7-7.8v-5.6Z" opacity=".2"/><path fill="#d8b4a1" d="M268.5 130.9h7.7V151h-7.7z"/><path fill="#fff" d="M268.5 130.9h7.7V151h-7.7z" opacity=".4"/><path fill="#fff" d="m276.2 134.2-7.7 8.4v5l7.7-7.8v-5.6Z" opacity=".2"/><path fill="#fff" d="M221.3 151h9.9v1.1h-9.9zM236.6 151h9.9v1.1h-9.9zM251.9 151h9.9v1.1h-9.9zM267.2 151h9.9v1.1h-9.9z"/><g fill="#263238"><path d="M196.1 117.4v-3.2h16.8v3.2l-3.1 2h-11l-2.7-2zM198.8 119.4h11V202h-11z"/></g><g fill="#fff" opacity=".4"><path d="M196.1 117.4v-3.2h16.8v3.2l-3.1 2h-11l-2.7-2zM198.8 119.4h11V202h-11z"/></g><path d="M196.1 117.4h16.8l-3.1 2h-11l-2.7-2z" opacity=".2"/><rect width=".9" height="78.3" x="200.9" y="121.5" opacity=".2" rx=".5" ry=".5"/><rect width=".9" height="78.3" x="204" y="121.5" opacity=".2" rx=".5" ry=".5"/><rect width=".9" height="78.3" x="207.2" y="121.5" opacity=".2" rx=".5" ry=".5"/><g fill="#263238"><path d="M285.2 117.4v-3.2h16.9v3.2l-3.2 2h-11l-2.7-2zM287.9 119.4h11V202h-11z"/></g><g fill="#fff" opacity=".4"><path d="M285.2 117.4v-3.2h16.9v3.2l-3.2 2h-11l-2.7-2zM287.9 119.4h11V202h-11z"/></g><path d="M285.2 117.4h16.9l-3.2 2h-11l-2.7-2z" opacity=".2"/><rect width=".9" height="78.3" x="290" y="121.5" opacity=".2" rx=".5" ry=".5"/><rect width=".9" height="78.3" x="293.2" y="121.5" opacity=".2" rx=".5" ry=".5"/><rect width=".9" height="78.3" x="296.3" y="121.5" opacity=".2" rx=".5" ry=".5"/><g fill="#263238"><path d="M181.9 201.9h130.5v3.5H181.9zM187.2 198.4h120.3v3.5H187.2zM176.8 205.4h139.9v3.5H176.8z"/></g><path fill="#263238" d="M190.7 107.8c.6 0 58.9-27.8 58.9-27.8l58.5 27.8H190.7Z"/><path fill="#fff" d="m204.1 104.9 45.5-21.7 45.5 21.7h-91Z" opacity=".2"/><path fill="#fff" d="M190.7 107.8c.6 0 58.9-27.8 58.9-27.8l58.5 27.8H190.7Z" opacity=".3"/><path fill="#263238" d="M308.1 114.2H190.6v-6.4h117.5v6.4z"/><path fill="#fff" d="M308.1 114.2H190.6v-6.4h117.5v6.4z" opacity=".3"/><path d="M190.6 107.8h117.5v.8H190.6zM206.9 103.6c.5-.3 85.2-.1 85.2-.1l3 1.4h-91l2.8-1.3Z" opacity=".2"/><g fill="#fff" opacity=".3"><path d="M181.9 201.9h130.5v3.5H181.9zM187.2 198.4h120.3v3.5H187.2zM176.8 205.4h139.9v3.5H176.8z"/></g><path d="M187.2 201.1h120.3v.8H187.2zM181.9 204.6h130.5v.8H181.9zM176.8 208.2h139.8v.8H176.8z" opacity=".2"/><path fill="#263238" d="M222.5 174.4h55.4v24h-55.4z"/><path fill="#fff" d="M222.5 174.4h55.4v24h-55.4z" opacity=".5"/><path fill="#d8b4a1" d="M224 175.8h11.2v22.5H224z"/><path fill="#fff" d="M224 175.8h11.2v22.5H224z" opacity=".4"/><path fill="#d8b4a1" d="M265.1 175.8h11.6v22.5h-11.6zM236.7 175.8h12.7v22.5h-12.7z"/><path fill="#fff" d="M236.7 175.8h12.7v22.5h-12.7z" opacity=".4"/><path fill="#d8b4a1" d="M251 175.8h12.7v22.5H251z"/><path fill="#fff" d="M265.1 175.8h11.6v22.5h-11.6zM251 175.8h12.7v22.5H251z" opacity=".4"/><path fill="#263238" d="M236.3 178h27.5v.8h-27.5z"/><path fill="#fff" d="M236.3 178h27.5v.8h-27.5z" opacity=".5"/><path fill="#fff" d="M235.2 178s-11.2 8.2-11.2 8.4v5.7l11.2-8.4V178ZM235.2 186.4l-11.2 8.1v1.7l11.2-8.2v-1.2M276.7 178s-11.6 8.2-11.6 8.4v5.7l11.6-8.4V178ZM276.7 186.4l-11.6 8.1v1.7l11.6-8.2v-1.2M249.3 180.9l-12.6 7.5v4.9l12.6-7.9v-4.5zM263.7 184.1l-12.7 8.1v5l12.7-7.9v-5.2z" opacity=".2"/><path fill="#263238" d="M247.4 186h2v6.1h-2z"/><path fill="#fff" d="M247.4 186h2v6.1h-2z" opacity=".7"/><path fill="#263238" d="M251 186h2v6.1h-2z"/><path fill="#fff" d="M251 186h2v6.1h-2z" opacity=".7"/><path d="M105.9 141h4.2v67.9h-4.2z" opacity=".1"/><path fill="#d8b4a1" d="M54.9 174.6c-.7-.7-2-.7-2.6 0-2 2.2-5.3 6.2-4.1 7.7.4.5 2.7-.8 2.7-.8s.4 1.2.8 1.3c.6.2 2.3-1.6 2.3-1.6s1.4 1.7 2 1.6c.5 0 1.1-1.6 1.1-1.6s2 1.4 2.4.9c1.2-1.6-2.5-5.5-4.6-7.5Z"/><path d="M54.9 174.6c-.7-.7-2-.7-2.6 0-2 2.2-5.3 6.2-4.1 7.7.4.5 2.7-.8 2.7-.8s.4 1.2.8 1.3c.6.2 2.3-1.6 2.3-1.6s1.4 1.7 2 1.6c.5 0 1.1-1.6 1.1-1.6s2 1.4 2.4.9c1.2-1.6-2.5-5.5-4.6-7.5Z" opacity=".3"/><path fill="#263238" d="m53.3 182.8-.9 25.2h2.2l-.8-25.2h-.5z"/><path fill="#d8b4a1" d="M53.3 188.3s-12 11.9-9.2 15.4c.7 1 4.6-1.3 4.6-1.3s.7 2.2 1.3 2.3c1.2.3 4.1-2.8 4.1-2.8s2.4 3 3.5 2.8c.8-.1 1.9-2.8 1.9-2.8s3.5 2.4 4.1 1.5c2.8-3.7-10.3-15-10.3-15Z"/><path d="M53.3 188.3s-12 11.9-9.2 15.4c.7 1 4.6-1.3 4.6-1.3s.7 2.2 1.3 2.3c1.2.3 4.1-2.8 4.1-2.8s2.4 3 3.5 2.8c.8-.1 1.9-2.8 1.9-2.8s3.5 2.4 4.1 1.5c2.8-3.7-10.3-15-10.3-15Z" opacity=".3"/><path fill="#d8b4a1" d="M53.5 177.4s-8.5 8.4-6.6 11c.5.6 3.3-1 3.3-1s.5 1.5 1 1.6c.8.2 2.8-2 2.8-2s1.7 2.1 2.5 2c.6 0 1.3-2 1.3-2s2.5 1.7 3 1c2-2.5-7.4-10.6-7.4-10.6Z"/><path d="M53.5 177.4s-8.5 8.4-6.6 11c.5.6 3.3-1 3.3-1s.5 1.5 1 1.6c.8.2 2.8-2 2.8-2s1.7 2.1 2.5 2c.6 0 1.3-2 1.3-2s2.5 1.7 3 1c2-2.5-7.4-10.6-7.4-10.6Z" opacity=".3"/><path fill="#d8b4a1" d="M53.4 182s-10.4 10.3-8 13.4c.6.8 4-1.2 4-1.2s.6 1.9 1.1 2c1 .2 3.6-2.4 3.6-2.4s2 2.5 3 2.4c.7-.1 1.6-2.4 1.6-2.4s3 2 3.7 1.3c2.4-3.2-9-13.1-9-13.1Z"/><path d="M53.4 182s-10.4 10.3-8 13.4c.6.8 4-1.2 4-1.2s.6 1.9 1.1 2c1 .2 3.6-2.4 3.6-2.4s2 2.5 3 2.4c.7-.1 1.6-2.4 1.6-2.4s3 2 3.7 1.3c2.4-3.2-9-13.1-9-13.1Z" opacity=".3"/><path fill="#d8b4a1" d="M85 174.6c-.8-.7-2-.7-2.7 0-2 2.2-5.2 6.2-4 7.7.4.5 2.6-.8 2.6-.8s.4 1.2.8 1.3c.7.2 2.4-1.6 2.4-1.6s1.3 1.7 2 1.6c.5 0 1-1.6 1-1.6s2.1 1.4 2.5.9c1.2-1.6-2.5-5.5-4.6-7.5Z"/><path d="M85 174.6c-.8-.7-2-.7-2.7 0-2 2.2-5.2 6.2-4 7.7.4.5 2.6-.8 2.6-.8s.4 1.2.8 1.3c.7.2 2.4-1.6 2.4-1.6s1.3 1.7 2 1.6c.5 0 1-1.6 1-1.6s2.1 1.4 2.5.9c1.2-1.6-2.5-5.5-4.6-7.5Z" opacity=".3"/><path fill="#263238" d="m83.3 182.8-.8 25.2h2.2l-.8-25.2h-.6z"/><path fill="#d8b4a1" d="M83.4 188.3s-12 11.9-9.3 15.4c.8 1 4.7-1.3 4.7-1.3s.7 2.2 1.3 2.3c1.2.3 4-2.8 4-2.8s2.4 3 3.5 2.8c.9-.1 2-2.8 2-2.8s3.4 2.4 4.1 1.5c2.8-3.7-10.4-15-10.4-15Z"/><path d="M83.4 188.3s-12 11.9-9.3 15.4c.8 1 4.7-1.3 4.7-1.3s.7 2.2 1.3 2.3c1.2.3 4-2.8 4-2.8s2.4 3 3.5 2.8c.9-.1 2-2.8 2-2.8s3.4 2.4 4.1 1.5c2.8-3.7-10.4-15-10.4-15Z" opacity=".3"/><path fill="#d8b4a1" d="M83.5 177.4s-8.5 8.4-6.5 11c.5.6 3.3-1 3.3-1s.5 1.5 1 1.6c.8.2 2.8-2 2.8-2s1.7 2.1 2.4 2c.6 0 1.4-2 1.4-2s2.5 1.7 3 1c2-2.5-7.4-10.6-7.4-10.6Z"/><path d="M83.5 177.4s-8.5 8.4-6.5 11c.5.6 3.3-1 3.3-1s.5 1.5 1 1.6c.8.2 2.8-2 2.8-2s1.7 2.1 2.4 2c.6 0 1.4-2 1.4-2s2.5 1.7 3 1c2-2.5-7.4-10.6-7.4-10.6Z" opacity=".3"/><path fill="#d8b4a1" d="M83.4 182s-10.4 10.3-8 13.4c.6.8 4-1.2 4-1.2s.7 1.9 1.2 2c1 .2 3.5-2.4 3.5-2.4s2.1 2.5 3 2.4c.8-.1 1.7-2.4 1.7-2.4s3 2 3.6 1.3c2.4-3.2-9-13.1-9-13.1Z"/><path d="M83.4 182s-10.4 10.3-8 13.4c.6.8 4-1.2 4-1.2s.7 1.9 1.2 2c1 .2 3.5-2.4 3.5-2.4s2.1 2.5 3 2.4c.8-.1 1.7-2.4 1.7-2.4s3 2 3.6 1.3c2.4-3.2-9-13.1-9-13.1Z" opacity=".3"/><path fill="#263238" d="M69.9 174.1 68.8 208h2.9l-1.1-33.9h-.7z"/><path fill="#d8b4a1" d="M70 181.5s-16.2 16-12.5 20.8c1 1.2 6.2-1.8 6.2-1.8s1 2.9 1.8 3c1.6.4 5.5-3.6 5.5-3.6s3.2 3.9 4.7 3.7c1-.2 2.5-3.7 2.5-3.7s4.8 3 5.7 1.9c3.7-5-14-20.3-14-20.3Z"/><path fill="#d8b4a1" d="M70 173s-14 13.8-10.8 18c.9 1 5.4-1.6 5.4-1.6s.9 2.5 1.6 2.7c1.4.3 4.8-3.2 4.8-3.2s2.7 3.4 4 3.2c1-.2 2.3-3.2 2.3-3.2s4 2.7 4.9 1.6C85.4 186.3 70 173 70 173Z"/><path fill="#d8b4a1" d="M70.1 166.8s-11.4 11.3-8.8 14.7c.7.9 4.4-1.3 4.4-1.3s.7 2 1.3 2.2c1.2.2 3.9-2.6 3.9-2.6s2.3 2.7 3.3 2.6c.8-.1 1.8-2.6 1.8-2.6s3.4 2.2 4 1.3c2.7-3.4-9.9-14.3-9.9-14.3Z"/><path fill="#d8b4a1" d="M72 163c-1-1-2.5-1-3.4 0l-.1.1c-2.6 2.8-7 8.2-5.5 10.2.6.8 3.6-1 3.6-1s.6 1.7 1 1.8c1 .2 3.3-2.2 3.3-2.2s1.8 2.3 2.7 2.2c.6-.1 1.5-2.2 1.5-2.2s2.7 1.8 3.2 1.1c1.6-2-3.4-7.3-6.3-10ZM426.3 183.1c-.6-.6-1.5-.5-2 0-1.6 1.7-4.1 4.8-3.2 6 .3.4 2-.6 2-.6s.4 1 .7 1c.5.1 1.8-1.2 1.8-1.2s1 1.3 1.6 1.2c.3 0 .8-1.2.8-1.2s1.6 1 2 .6c.8-1.2-2-4.2-3.7-5.8Z"/><path d="M426.3 183.1c-.6-.6-1.5-.5-2 0-1.6 1.7-4.1 4.8-3.2 6 .3.4 2-.6 2-.6s.4 1 .7 1c.5.1 1.8-1.2 1.8-1.2s1 1.3 1.6 1.2c.3 0 .8-1.2.8-1.2s1.6 1 2 .6c.8-1.2-2-4.2-3.7-5.8Z" opacity=".3"/><path fill="#263238" d="m425 189.5-.6 19.6h1.7l-.7-19.6h-.4z"/><path fill="#d8b4a1" d="M425 193.8s-9.3 9.2-7.2 12c.6.8 3.6-1 3.6-1s.6 1.7 1.1 1.8c1 .2 3.2-2.2 3.2-2.2s1.8 2.3 2.7 2.2c.6-.1 1.5-2.2 1.5-2.2s2.7 1.8 3.2 1.2c2.2-2.9-8-11.8-8-11.8Z"/><path d="M425 193.8s-9.3 9.2-7.2 12c.6.8 3.6-1 3.6-1s.6 1.7 1.1 1.8c1 .2 3.2-2.2 3.2-2.2s1.8 2.3 2.7 2.2c.6-.1 1.5-2.2 1.5-2.2s2.7 1.8 3.2 1.2c2.2-2.9-8-11.8-8-11.8Z" opacity=".3"/><path fill="#d8b4a1" d="M425.2 185.3s-6.6 6.5-5.1 8.5c.4.5 2.5-.7 2.5-.7s.4 1.1.8 1.2c.6.2 2.2-1.5 2.2-1.5s1.3 1.6 2 1.5c.4 0 1-1.5 1-1.5s2 1.3 2.3.8c1.5-2-5.7-8.3-5.7-8.3Z"/><path d="M425.2 185.3s-6.6 6.5-5.1 8.5c.4.5 2.5-.7 2.5-.7s.4 1.1.8 1.2c.6.2 2.2-1.5 2.2-1.5s1.3 1.6 2 1.5c.4 0 1-1.5 1-1.5s2 1.3 2.3.8c1.5-2-5.7-8.3-5.7-8.3Z" opacity=".3"/><path fill="#d8b4a1" d="M425.1 188.8s-8.1 8-6.3 10.5c.5.6 3.2-.9 3.2-.9s.5 1.4.9 1.5c.8.2 2.8-1.8 2.8-1.8s1.6 2 2.3 1.8c.6 0 1.3-1.8 1.3-1.8s2.4 1.5 2.8 1c1.9-2.5-7-10.3-7-10.3Z"/><path d="M425.1 188.8s-8.1 8-6.3 10.5c.5.6 3.2-.9 3.2-.9s.5 1.4.9 1.5c.8.2 2.8-1.8 2.8-1.8s1.6 2 2.3 1.8c.6 0 1.3-1.8 1.3-1.8s2.4 1.5 2.8 1c1.9-2.5-7-10.3-7-10.3Z" opacity=".3"/><path fill="#d8b4a1" d="M449.7 183.1c-.5-.6-1.4-.5-2 0-1.5 1.7-4.1 4.8-3.2 6 .3.4 2-.6 2-.6s.4 1 .7 1c.5.1 1.8-1.2 1.8-1.2s1.1 1.3 1.6 1.2c.4 0 .9-1.2.9-1.2s1.6 1 1.9.6c.9-1.2-2-4.2-3.7-5.8Z"/><path d="M449.7 183.1c-.5-.6-1.4-.5-2 0-1.5 1.7-4.1 4.8-3.2 6 .3.4 2-.6 2-.6s.4 1 .7 1c.5.1 1.8-1.2 1.8-1.2s1.1 1.3 1.6 1.2c.4 0 .9-1.2.9-1.2s1.6 1 1.9.6c.9-1.2-2-4.2-3.7-5.8Z" opacity=".3"/><path fill="#263238" d="m448.5 189.5-.7 19.6h1.7l-.6-19.6h-.4z"/><path fill="#d8b4a1" d="M448.5 193.8s-9.3 9.2-7.2 12c.6.8 3.6-1 3.6-1s.6 1.7 1 1.8c1 .2 3.2-2.2 3.2-2.2s1.9 2.3 2.7 2.2c.7-.1 1.5-2.2 1.5-2.2s2.8 1.8 3.3 1.2c2.1-2.9-8.1-11.8-8.1-11.8Z"/><path d="M448.5 193.8s-9.3 9.2-7.2 12c.6.8 3.6-1 3.6-1s.6 1.7 1 1.8c1 .2 3.2-2.2 3.2-2.2s1.9 2.3 2.7 2.2c.7-.1 1.5-2.2 1.5-2.2s2.8 1.8 3.3 1.2c2.1-2.9-8.1-11.8-8.1-11.8Z" opacity=".3"/><path fill="#d8b4a1" d="M448.6 185.3s-6.6 6.5-5 8.5c.3.5 2.5-.7 2.5-.7s.4 1.1.7 1.2c.7.2 2.3-1.5 2.3-1.5s1.3 1.6 1.9 1.5c.4 0 1-1.5 1-1.5s2 1.3 2.3.8c1.6-2-5.7-8.3-5.7-8.3Z"/><path d="M448.6 185.3s-6.6 6.5-5 8.5c.3.5 2.5-.7 2.5-.7s.4 1.1.7 1.2c.7.2 2.3-1.5 2.3-1.5s1.3 1.6 1.9 1.5c.4 0 1-1.5 1-1.5s2 1.3 2.3.8c1.6-2-5.7-8.3-5.7-8.3Z" opacity=".3"/><path fill="#d8b4a1" d="M448.5 188.8s-8 8-6.2 10.5c.5.6 3.1-.9 3.1-.9s.5 1.4 1 1.5c.8.2 2.7-1.8 2.7-1.8s1.6 2 2.3 1.8c.6 0 1.3-1.8 1.3-1.8s2.4 1.5 2.9 1c1.8-2.5-7-10.3-7-10.3Z"/><path d="M448.5 188.8s-8 8-6.2 10.5c.5.6 3.1-.9 3.1-.9s.5 1.4 1 1.5c.8.2 2.7-1.8 2.7-1.8s1.6 2 2.3 1.8c.6 0 1.3-1.8 1.3-1.8s2.4 1.5 2.9 1c1.8-2.5-7-10.3-7-10.3Z" opacity=".3"/><path fill="#263238" d="m438 182.7-.9 26.4h2.3l-.9-26.4h-.5z"/><path fill="#d8b4a1" d="M438 188.5s-12.6 12.4-9.7 16.2c.8 1 4.8-1.4 4.8-1.4s.8 2.2 1.5 2.4c1.2.3 4.3-2.9 4.3-2.9s2.4 3 3.6 2.9c.9-.1 2-2.9 2-2.9s3.7 2.4 4.4 1.5c2.9-3.8-10.9-15.8-10.9-15.8Z"/><path fill="#d8b4a1" d="M438 181.8s-10.8 10.8-8.3 14c.6 1 4.2-1.1 4.2-1.1s.6 2 1.2 2c1.1.3 3.7-2.5 3.7-2.5s2.2 2.7 3.2 2.5c.7 0 1.7-2.5 1.7-2.5s3.2 2.1 3.8 1.3c2.6-3.3-9.4-13.7-9.4-13.7Z"/><path fill="#d8b4a1" d="M438.2 177s-9 8.8-6.9 11.5c.5.7 3.4-1 3.4-1s.6 1.6 1 1.7c1 .2 3-2 3-2s1.8 2.1 2.6 2c.7-.1 1.5-2 1.5-2s2.6 1.7 3 1c2.1-2.7-7.6-11.2-7.6-11.2Z"/><path fill="#d8b4a1" d="M439.7 174a2 2 0 0 0-2.8.1c-2 2.3-5.5 6.5-4.3 8 .5.6 2.8-.8 2.8-.8s.5 1.3.9 1.4c.7.2 2.4-1.7 2.4-1.7s1.5 1.8 2.1 1.7c.5 0 1.2-1.7 1.2-1.7s2.1 1.4 2.6.9c1.2-1.6-2.7-5.7-5-7.8ZM430.5 447a14 14 0 0 0-3.2-3.2c-1-.8-2.4-1.2-3.6-.7-1.5.7-2.2 2.5-2 4.2.2 1.6 1 3.6 1.9 5 4 5.8 7.6 11.1 13.7 15.4 0-7.2-3.2-14.5-6.8-20.6ZM450.6 448c-1.3-.7-3.9.4-5.1 1.3a19 19 0 0 0-5.5 6.5c-2 3.4-2.2 8.2-2.4 11.3 4.8-4 9.8-8 13.1-13.2a7 7 0 0 0 1.2-3c.1-1.1-.3-2.3-1.3-2.8Z"/><path fill="#263238" d="m438 470.8-.2-.2a47.2 47.2 0 0 0-6-15v-.3h.4a48 48 0 0 1 6.1 15.2s0 .2-.2.3Z"/><path fill="#263238" d="M437.4 467.8a.2.2 0 0 1-.2-.3c1.3-3.6 3.2-6.9 5.6-9.8.1-.1.3-.1.4 0v.3a32.1 32.1 0 0 0-5.5 9.7l-.3.1Z"/><path fill="#d8b4a1" d="M64.9 444.7a14 14 0 0 0-3.2-3.2c-1-.8-2.4-1.2-3.6-.7-1.5.6-2.3 2.5-2 4.1.2 1.7 1 3.7 1.9 5 4 5.9 7.6 11.2 13.7 15.5 0-7.2-3.2-14.5-6.8-20.7ZM85 445.7c-1.3-.7-3.9.4-5.1 1.3a19 19 0 0 0-5.5 6.5c-2 3.4-2.1 8.2-2.4 11.3 4.9-4 9.8-8 13.1-13.2a7 7 0 0 0 1.2-3c.1-1.1-.3-2.3-1.3-2.9Z"/><path fill="#263238" d="m72.5 468.4-.3-.1a47.4 47.4 0 0 0-6-15v-.3c.2-.1.3 0 .4 0 2.9 4.7 5 9.8 6.1 15.1 0 .2 0 .3-.2.3Z"/><path fill="#263238" d="M71.8 465.5a.2.2 0 0 1-.2-.3c1.3-3.6 3.2-6.9 5.6-9.8.1-.1.3-.1.4 0v.3a31.9 31.9 0 0 0-5.6 9.6c0 .1 0 .2-.2.2ZM381.8 265.6c2.5-19.9 2.7-40.1.6-60l14.5-2.3c5-3.1 11.4-.6 15.2 4.3a38.9 38.9 0 0 1 6.4 18c1.5 9.8 1.8 19.8 1 29.6-.5 4.1-1 8.4-3 12-2.6 5-7.6 7.9-12.5 8.9-5 1-10.1.4-15.1-.3-2.5-.3-5.2-.8-6.5-3.2-1.1-2-.9-4.6-.6-7Z"/><path fill="#ebb373" d="m374.2 449-9.3 2.5-10.8-22.9 14.1-3.8 6 24.2z"/><path fill="#263238" d="m362.8 447.5 3.4-.5c.8-.2 1.5.1 2 .6 2.4 2.4 3.8 1.2 5.5-1.7 1.3-.3 2 1.1 2 1.5l4 8.8a1.5 1.5 0 0 1-1 2.1l-11.2 1.8-15.6 2.4c-4.3.7-5.9-3.4-4.2-4.1a38 38 0 0 0 15-8.9c.3-.5-.2-.7.1-2Z"/><path fill="#d8b4a1" d="m358.3 451.4 3-.9c.2 0 .2-.2.2-.3h-.2c-.5-.2-5-1.5-6-.6-.1.2-.2.4-.1.6 0 .5.3.9.7 1 .8.4 1.6.4 2.4.2Zm2.4-1c-1.2.4-3.5 1-4.6.5-.3-.2-.5-.4-.5-.7v-.3c.6-.5 3.2 0 5 .5Z"/><path fill="#d8b4a1" d="M361.3 450.5h.2v-.2c0-.2-1.7-4.2-4-3.5-.5.1-.7.4-.7.7 0 1 3 2.7 4.4 3h.1Zm-3.5-3.5c1.5-.2 2.7 2.1 3.1 3-1.4-.5-3.6-1.9-3.6-2.6 0 0 0-.2.3-.3h.2Z"/><path fill="#d8b4a1" d="M364 452.1h-.1a3.9 3.9 0 0 0-3-1.4.2.2 0 0 1-.3-.2c0-.2.2-.3.3-.3 1.3 0 2.5.6 3.4 1.5v.4h-.2ZM362.2 454h-.2a3.8 3.8 0 0 0-3-1.4.2.2 0 0 1-.2-.2l.2-.3h.1c1.3 0 2.5.6 3.3 1.5v.4h-.2ZM359.8 455.8l-.2-.1a3.8 3.8 0 0 0-3-1.3.2.2 0 0 1-.2-.3l.2-.2h.1c1.3 0 2.5.5 3.3 1.5v.3h-.2Z"/><path d="m359.8 440.7 1.3 2.8L372 440l-.6-2.4-11.6 3.1z" opacity=".3"/><path fill="#ebb373" d="m377.2 461.4-9.4-2.1.6-25.2 14.4 2.9-5.6 24.4z"/><path fill="#263238" d="M366.8 456.1h3.4c.8 0 1.5.4 2 1 2 2.7 3.4 1.7 5.6-.8 1.3-.2 1.7 1.4 1.8 1.8l2.6 9.3a1.5 1.5 0 0 1-1.4 1.9h-27.2c-4.3 0-5.2-4.4-3.4-4.8a38 38 0 0 0 16.1-6.4c.5-.4 0-.7.5-2Z"/><path fill="#d8b4a1" d="M361.7 459.3c1 0 2.2-.2 3.2-.4.1 0 .2-.2.1-.3-.6-.3-4.8-2.3-6-1.6l-.2.6c0 .5.2 1 .6 1.2.7.4 1.5.6 2.3.5Zm2.5-.7c-1.2.2-3.6.6-4.5-.2-.3-.2-.4-.5-.4-.8v-.3c.7-.4 3.2.5 5 1.3Z"/><path fill="#d8b4a1" d="M364.9 458.9h.1v-.2c0-.2-1-4.4-3.3-4.1-.6 0-.7.3-.8.5-.1 1.2 2.6 3.3 3.9 3.8Zm-3-4c1.5 0 2.4 2.4 2.7 3.4-1.4-.7-3.4-2.5-3.3-3.2 0 0 0-.2.5-.2h.1Z"/><path fill="#d8b4a1" d="m367.3 460.9-.2-.1c-.6-1-1.6-1.7-2.7-1.8a.2.2 0 0 1-.2-.3c0-.1.1-.2.3-.2 1.2.2 2.4 1 3 2v.3h-.2ZM365.2 462.5l-.2-.1c-.6-1-1.6-1.7-2.7-1.8a.2.2 0 0 1-.2-.3c0-.1.1-.2.3-.2 1.2.2 2.4 1 3 2v.3h-.2ZM362.6 463.8l-.2-.1c-.6-1-1.7-1.6-2.8-1.8a.2.2 0 0 1-.2-.2c0-.2.2-.3.3-.3 1.3.2 2.4 1 3 2 .1.2.1.3 0 .4h-.1ZM327 368a769.3 769.3 0 0 1 24.6 55c2.7 7 6.3 15.6 8.2 20.8 6.5-.4 9.6-2.5 12.2-4.2-1.1-9.3-4.2-33.6-11.2-55a136 136 0 0 0-14.2-31.8c32.4-67.2 29-96.1 29-96.1l-32.4-.6s-6.7 25.4-12.6 51.5c-3 13.7-5.9 27.6-7.3 38.1v.1c-1 7.6.2 15.3 3.7 22.2Z"/><path d="M327 368a769.3 769.3 0 0 1 24.6 55c2.7 7 6.3 15.6 8.2 20.8 6.5-.4 9.6-2.5 12.2-4.2-1.1-9.3-4.2-33.6-11.2-55a136 136 0 0 0-14.2-31.8c32.4-67.2 29-96.1 29-96.1l-32.4-.6s-6.7 25.4-12.6 51.5c-3 13.7-5.9 27.6-7.3 38.1v.1c-1 7.6.2 15.3 3.7 22.2Z" opacity=".3"/><path d="M355.8 332.8c4.8-11.5 8.5-21.4 11.2-30-1.5-7-3.9-13-7.5-16.7 0 0-7 18.6-3.7 46.7ZM351.6 423c2.7 7 6.3 15.6 8.2 20.8 6.5-.4 9.6-2.5 12.2-4.2-1.1-9.3-4.2-33.6-11.2-55a443 443 0 0 0-9.2 38.4Z" opacity=".2"/><path fill="#d8b4a1" d="M355.4 256s7 61.5 11 92.2c4 32.2 2.6 83.6.3 104.5 2 1.1 9.2 2.7 13.2 1.7 0 0 21.4-64.2 10.6-102.2 17.6-75.4-3.2-96.1-3.2-96.1h-32Z"/><path d="M355.4 256s7 61.5 11 92.2c4 32.2 2.6 83.6.3 104.5 2 1.1 9.2 2.7 13.2 1.7 0 0 21.4-64.2 10.6-102.2 17.6-75.4-3.2-96.1-3.2-96.1h-32Z" opacity=".3"/><path fill="#263238" d="M388.4 216.2c4.7-12.5 7.1-19 4.3-27.6-2.8-8.7 8-52.1-24.3-53.1-7-.2-18.1-.1-20 22.4-1.7 22.6-13.1 16-8.8 29 4.2 13-18 21-11.7 35.6 6.3 14.6-13.3 18.7-8.5 26.4 2.7-.5 5.4-.8 8.2-1-.4-1.2-.3-3.2 1.8-6.1 3.8-5.3 9.4-11.5 6.7-19.5 0 0 5.6 3.7-.8 16.5a20 20 0 0 0-2.6 8.9c2.3 0 5 0 7.6.3-.4-1.6-.4-3.4.1-5 1.7-4.9 4.3-6.3 5-10.4 0 0 .9 6.4-1.2 9.6a7.5 7.5 0 0 0-.8 6.2c7 .9 13.8 3.2 19.8 7 18.2 11.6 28.2-4 28.2-4s-7.7-22.8-3-35.3Z"/><path fill="#d8b4a1" d="M347.3 190.8c-8.7 9.6-13.1 20-13.1 20l21 5s5.3-13.8 3.1-18.8c-2.2-5.3-5.6-10.4-11-6.2Z"/><path d="M346.1 199.7c-1 1.9-1.4 3-2 5a47 47 0 0 0-1.6 8.1l4 1-.4-14Z" opacity=".3"/><path fill="#d8b4a1" d="M344.3 243.4c1-6.5 1.5-26.1 1.1-30-1.3-13.7 1-20.4 1-20.4 1.2-3 4.2-4.4 9.6-6.2 4-1.3 8.8-2.4 8.8-2.4l12.4-.6s14.3 4.8 20.5 8.2l-4 22.2c-.5 1.3-6.7 18.7-7 20-1.7 6.8 4.7 24 4.3 27.8l-50.3 1.3 3.7-19.9Z"/><path fill="#d8b4a1" d="M397 191.8c4.8 1.6 9.9 17 9.9 17l-19.7 9.7s-2.8-13-1.3-19.3c1.3-5.3 5.1-9.5 11.2-7.4Z"/><path fill="#263238" d="M393.6 190s-8.5 11.8-8.2 20.6c.3 8.7 7.5 33.6 7.5 33.6l-3.5 3.9s-10.4-26.4-10.1-36c.3-9.6 8.7-24.4 8.7-24.4s2.4-1 5.5 2.3ZM356.8 186.6s-12 12.6-12.2 34.7c0 0-2.8-25 6.1-32.4 0 0 3.3-3.6 6-2.3Z"/><path d="M388.8 251.3s-4.8-.7-4.6-.5c.1.1-.3 14-.3 14h-38.7l.2-2.4 18-17 7.5-3.4 17.2 6.5.7 2.8Z" opacity=".3"/><path fill="#263238" d="M382.8 262.9h-38.6v-53.3h38.6z"/><path fill="#fff" d="M382.8 262.9h-38.6v-53.3h38.6z" opacity=".3"/><path fill="#263238" d="M372.4 258.8h-25.9a2.5 2.5 0 0 1-2.5-2.5v-37.2h28.4c1.4 0 2.5 1 2.5 2.4v34.8c0 1.4-1.1 2.5-2.5 2.5Z"/><path fill="#ebb373" d="M404 210c.3-.2 2.6 30.9-1.5 35.6-2.2 2.5-5 4.2-7.3 4.3-11.6 0-37.7-7.3-37.3-7.3.6 0 1.7-9.2 1.7-9.2l29.8 1.9-1.1-17.4 15.6-7.8Z"/><path fill="#ebb373" d="M363.5 235.5s-.5-3.6-3-5.4c-2.4-1.7-3.9-3.8-5.8-5-1.9-1.2-1 1.7-.2 3.1.8 1.5 1.7 3.1.5 3.5-1.2.4-11.8-1.5-13.4-.8-1.6.8 0 1.6 0 1.6s-2.5-.4-3 .6c0 .3 0 1 1.2 1.4 2.6.9 8.1 2.3 8.1 2.3l-8.3-1.5c-1.4 0-2.1.6-2.1 1.4 0 1.2 8.5 3.1 8.8 3.5 0 0-4.9-1.3-6-.2-1 1 2 2 5 2.4 2.5.3 7.5 1.6 10.2 1.7 3.3.1 5.5-.6 6.9-3.3 1.4-2.8 1-5.3 1-5.3Z"/><path d="M348.1 234.1a67.9 67.9 0 0 0-6.2-1.6h.1a68.5 68.5 0 0 1 6.2 1.6Z" opacity=".3"/><path d="M373.9 246.7c-.6-.1-5.1-2.8-4.7-3.5s6-3 4.7-4.4-6.6-1.3-9.9-.5c-3.3.7-20.7-7.5-20.8-7.5-.1 0-4.2.4-3.6.7.7.2 29.6 14 29.6 14l4.7 1.2Z" opacity=".3"/><path fill="#ebb373" d="M358 243.1s2.4-2.8 5.4-3c3-.3 5.3-1.3 7.6-1.3 2.2 0 0 2-1.4 2.8-1.5.8-3 1.8-2.3 2.7.8 1 11 4.8 11.9 6.3 1 1.5-1 1.4-1 1.4s2.5 1 2.4 2c0 .3-.6.9-1.8.6-2.6-.6-8-2.2-8-2.2.2 0 6.8 2.5 7.8 3 1.2.7 1.5 1.6 1 2.3-.5 1-8.8-1.8-9.3-1.6 0 0 4.9 1.4 5.2 2.9.3 1.4-2.8.7-5.4-.5-2.4-1-7.3-2.5-9.7-3.9-2.8-1.6-4.4-3.4-4.1-6.4.3-3.1 1.8-5 1.8-5Z"/><path d="M378 251.9a73.1 73.1 0 0 0-6-2.2 72.3 72.3 0 0 1 6 2.2Z" opacity=".3"/><path fill="#ebb373" d="M335.6 211.2s-14.9 23.7-11.4 27.9 34.6 12.7 34.6 12.7l3.9-9.6-22.8-12.5 4.3-8.4v-8l-8.6-2.1Z"/><rect width="28.6" height="2.1" x="345.1" y="219.8" fill="#fff" rx="1" ry="1" transform="rotate(-180 359.3 220.8)"/><path fill="#fff" d="M381.4 210.4h-36.7v.8h36.7v-.8Z"/><path fill="#ebb373" d="M363.6 184.4c1.4-1.4 1.7-2.4 1.5-4.4-.2-1.5-.7-3.1-1.3-4.6l2-2.2 10.7-9.9c-.6 6.9-2 17.4 3.2 21.4 0 0-12.8 9.2-13.5 9.3-.7.1-2.6-9.6-2.6-9.6Z"/><path d="M365 180.9c3-.7 7.2-2.6 7.9-6 .3-1.3.3-2.7.2-3.6l-8.7 5.4c.1 1.3.8 2.3.6 4.2Z" opacity=".2"/><path fill="#ebb373" d="M380.8 152.4c-1.5 10.5-1.9 14.9-7.5 20.1-8.5 7.9-20.9 4.5-22.5-6-1.5-9.3 1-24.8 11.5-28.7a13.5 13.5 0 0 1 18.4 14.6Z"/><path fill="#263238" d="M367.4 156c0 1-.6 1.8-1.3 1.8-.6 0-1.2-.7-1.2-1.7s.6-1.8 1.3-1.8c.7 0 1.2.7 1.2 1.7ZM369 152.8l-.3-.1a3.8 3.8 0 0 0-3.4-1.2c-.3.1-.5 0-.6-.3 0-.3.2-.6.4-.7.1 0 2.5-.5 4.3 1.5.2.2.2.5 0 .7l-.3.1ZM354 150.9a.5.5 0 0 1-.2-.3c-.1-.2 0-.5.3-.6a5.4 5.4 0 0 1 4.7 0c.3 0 .4.3.2.6-.2.2-.5.3-.7.2-.1 0-1.7-1-3.8 0l-.4.1Z"/><path fill="#d58745" d="M359.6 154.3s-1.8 3.9-3.8 6.2c-.3.4-.2 1 .3 1.3 1.3.5 2.8.1 2.8.1l.7-7.6Z"/><path fill="#263238" d="m366.6 154.3-2.4-.5s1.7 1.7 2.4.5ZM357.3 155.3c0 1-.6 1.8-1.2 1.9-.7 0-1.3-.8-1.3-1.7 0-1 .6-1.8 1.3-1.9.7 0 1.3.7 1.2 1.7Z"/><path fill="#263238" d="m356.4 153.6-2.4-.5s1.7 1.8 2.4.5ZM361 166.7h-.4c-.1 0-.2-.1-.2-.3s.1-.2.2-.2a5 5 0 0 0 4.6-2.4c0-.1.2-.2.3-.1.2 0 .2.2.1.3a5.5 5.5 0 0 1-4.6 2.7Z"/><path fill="#263238" d="M362.6 148c5.7 1.1 9.6 6.3 9.6 6.3-1-3.2 3-6.4 3-6.4-2.2 13.4 3.8 11.3 3.8 11.3l2.5-1s3.6-20.5-11.7-21.7c-15.3-1.2-19.4 16.3-19.4 16.3 1.4-1.5 3-2.7 4.7-3.7.8-2.9 3-5.3 6-6.6a9.4 9.4 0 0 0-3.9 5.7c1-.3 2.2-.5 3.3-.5.3-2 1.1-4 2.5-5.6-.7 2-.8 4-.4 5.9Z"/><path fill="#d8b4a1" d="M374.9 137c3.1 1.4 5.4 3.3 6.8 6.5 1.5 3.1 2.2 8.4.8 11.5l-4.4.3c.5-1.2.6-2.6.7-3.7.1-2 .3-4-.2-5.8a12 12 0 0 0-5-7 21.2 21.2 0 0 0-7.5-3.3c3.5 0 5.7 0 8.8 1.4Z"/><path fill="#ebb373" d="M383.5 161.1a8.4 8.4 0 0 1-5.2 3.7c-2.8.6-4-4-3-6.6 1-2.5 3.8-4 6.4-3.3 2.7.6 3.4 3.8 1.8 6.2Z"/><path d="m379 162.2-.3-.1c0-.2 0-.3.2-.3 1.5-.4 2.2-1.2 2.5-1.7a2 2 0 0 0 .2-1.6c-.3-.6-1-1.1-1.8-.8-.1 0-.3 0-.3-.2l.1-.3c1-.4 2.1.3 2.4 1.1.2.5.2 1.2-.2 2-.4.7-1.1 1.5-2.8 2Z" opacity=".2"/><path fill="#263238" d="m267.3 437 3.5 25.7 8.4.4 2.7-24.7-14.6-1.4z"/><path fill="#263238" d="M286.3 474.6h-18.7s-.4-.8 0-3l.3-1 .6-2.1 1.9-7.2s3.1-6.7 6.7-5c3.2 1.4 2.5 5.6 2.5 5.6s.3 2.5 2.7 4.6c1.5 1.3 3 2.4 3.7 4l.3 1v.2c.2.8.2 1.7 0 2.8Z"/><path fill="#fff" d="M267.6 471.7c-.4 2 0 2.9 0 2.9h18.7c.2-1.2.2-2.1 0-3h-18.7Z" opacity=".3"/><path fill="#d8b4a1" d="M278.8 463c-1-.9-2.4-.8-3.4.2-.2.2-.6-.2-.3-.4a3 3 0 0 1 4.1-.2c.3.2 0 .6-.4.4ZM279.4 464.7c-1-.8-2.5-.7-3.4.2-.3.3-.7-.1-.4-.4a3 3 0 0 1 4.2-.2c.2.2-.2.6-.4.4Z"/><path fill="#d8b4a1" d="M279.9 466.3c-1-.8-2.4-.7-3.4.2-.2.3-.6-.1-.4-.4a3 3 0 0 1 4.2-.2c.3.2-.1.6-.4.4Z"/><path fill="#263238" d="m232.2 435.4-3.5 25.7-8.3.4-2.7-24.8 14.5-1.3z"/><path fill="#263238" d="M213.2 473H232s.4-.8 0-3l-.3-1-.6-2.1-1.9-7.2s-3-6.7-6.7-5c-3.2 1.4-2.5 5.6-2.5 5.6s-.3 2.4-2.7 4.6c-1.5 1.3-3 2.4-3.7 4a5 5 0 0 0-.3 1v.2c-.2.8-.2 1.7 0 2.8Z"/><path fill="#fff" d="M231.9 470c.4 2.2 0 3 0 3h-18.7c-.2-1.2-.2-2.1 0-3h18.7Z" opacity=".3"/><path fill="#d8b4a1" d="M220.7 461.4c1-.9 2.4-.8 3.4.2.2.2.6-.2.4-.4a3 3 0 0 0-4.2-.2c-.3.2.1.6.4.4ZM220.2 463.1c1-.8 2.4-.7 3.3.2.3.3.7-.1.4-.4a3 3 0 0 0-4.1-.2c-.3.2 0 .6.4.4Z"/><path fill="#d8b4a1" d="M219.6 464.7c1-.8 2.5-.7 3.4.2.3.3.7-.1.4-.4a3 3 0 0 0-4.2-.2c-.2.2.2.6.4.4Z"/><path fill="#263238" d="m285.6 268.6-38.9 2.3-23.7-4s-1.7 27.1-3.7 91.7c-.4 14-4.2 97.7-4.2 97.7l21 2.1s10.3-86.8 12-94.3c.9-4.6 4.4-38.8 7.3-55.2 1.3 13.7 2.5 46.6 3.5 55.5 0 0 5.2 71.2 6 91.4l19.4-1c2.4-27.7 3.3-128.8 3.3-128.8 1.3-21.1-2-57.4-2-57.4Z"/><path fill="#d8b4a1" d="M275.4 183c4.4-1.2 7-.4 10.4-3.3 1-.9 1.2-3.2 1-4.5-.3-2.6-4-5.3-9.6-5.8-13-1.1-14.2-.7-27.3 0a51 51 0 0 0-9 2c-1.7.6-3.6 2.3-4 4-.3 1.7.7 3.7 2.4 4l1.6 8.7 34.5-5.1Z"/><path fill="#d8b4a1" d="M238.5 177.2c5.5-.3 26-1.3 48.4 3.2l1.1 85.5c0 7-1 8-1 8l.2 4.2c-23.5 9-50.5 8.4-65.4-.9.3 0 0-2.9 0-2.9s-2.3-2.3-1.5-9.5c2.6-24.2 8.2-63.3 12.2-85.1.1-.5 5.5-2.5 6-2.5Z"/><path d="M249.3 280.8c-17.6 0-27.9-6.2-28-6.3l.3-.4s11.3 6.8 30.4 6.1c21.1-.7 34.5-6.5 34.6-6.5l.2.5a105 105 0 0 1-37.5 6.6Z" opacity=".3"/><path d="m222 249.2-.8 6.3s14.7 3.7 31.1-2.3c16.5-5.9 18.4-10.4 18.4-10.4l16.2 6.4V240l-26.5-8.7-38.4 17.9Z" opacity=".4"/><path fill="#263238" d="M236.3 197.6h42.1v56.9h-42.1z"/><path d="m281.7 213.8-3.4-8.5v5.7l3.4 2.8zM233.3 211.9l.5-8.5 4 9.7-4.5-1.2z" opacity=".3"/><path fill="#d8b4a1" d="M238.4 177.2s-15.8 1.9-19.4 12.6c-2.6 7.9-11.6 48-8 52s6.4 6.5 13.1 7.4c6.7.9 39-16.1 39-16.1l-21-8.2-12.5 2.7 8.8-50.4Z"/><path fill="#d8b4a1" d="M226.2 181.4s60.6 103.5 60.6 103.1c0-.3 7.2-7.3 7.2-7.3L232 178.5s-4-.5-5.9 2.9Z"/><path d="M226.2 181.4s60.6 103.5 60.6 103.1c0-.3 7.2-7.3 7.2-7.3L232 178.5s-4-.5-5.9 2.9Z" opacity=".3"/><path fill="#895555" d="M263.9 217.2s9.8-7.2 13.9-6.4c4 1 4.7 5.2 4.7 5.2l.9 6.3-19.5-5.1Z"/><path d="M226.1 225.8a9.9 9.9 0 0 0-4 5.5c2.1-1.9 4.3-3.4 6.7-3.6l-2.7-1.9Z" opacity=".4"/><path d="m237.8 225.8 16.1 11.9 5.4-2.7-21.5-9.2zM253 239.7h.5v40.8h-.5zM265 179.4l7.2-10.4s-7.8-.6-10-.1l2.8 10.5ZM237 177.2s10.8 8.3 10.4 8.3-10.8-7.7-10.8-7.7l.4-.6ZM283.4 179.8a390 390 0 0 0-12.9 7.4l15-7-2-.5Z" opacity=".3"/><g fill="#fff"><path d="M257.5 188.2c-.8-1-2-1.8-3-2.4s-2.6-1.3-3.8-1c-.6 0-1.2.4-1.4 1s.1 1.1.5 1.5c.9.8 2.1 1 3.2 1.1 1.5.2 2.9.1 4.3.1.2 0 .2-.3 0-.3h-3c-1 0-2.2 0-3.2-.5-.5-.1-1-.5-1.4-1-.4-.7.1-1.4.9-1.6 1.1-.3 2.5.3 3.5.8 1.2.6 2.3 1.4 3 2.4.2.2.5 0 .3-.1Z"/><path d="M257.4 188.4c1.2.3 2.5.1 3.7-.2s2.6-.6 3.4-1.5.8-2.4-.6-2.6c-1.2-.2-2.4.5-3.3 1.2-1.2.8-2.3 1.8-3.4 2.8-.1.1 0 .3.2.2.8-.7 1.6-1.5 2.5-2.1s1.8-1.4 2.8-1.7c.5-.2 1.3-.3 1.8.1.6.5.3 1.4-.2 2-.8.7-2 1-3 1.3-1.3.3-2.6.5-3.9.2-.1 0-.2.3 0 .3Z"/><path d="M257.3 188.4c-.7 2-1 4.1-1.1 6.2 0 .2.3.2.3 0 0-2 .4-4.1 1-6.1.2-.2-.1-.3-.2 0ZM257.6 188.3c.2 2.8.6 5.6 1 8.3 0 .2.3.2.3 0-.4-2.8-.8-5.5-1-8.3 0-.2-.3-.2-.3 0Z"/></g><path fill="#d8b4a1" d="M285.8 180.4s4-1 8.3 7.4c4.2 8.4 11.7 41.4 11.8 47.4.2 7.6-3.4 11.6-10 11.6-11.8 0-58.1-21-58.1-21l7.9-13.3 37.5 9.7-3.8-26.8 6.4-15Z"/><path fill="#895555" d="M243.8 215.7s-6.5-3.3-10-3.8c-2.2-.3-5.7 4.2-8.2 7.7a5 5 0 0 0 1.3 6.9 12 12 0 0 0 1.9 1.2l9.4-1.8 5.6-10.2Z"/><path d="M283.2 222.3s7 2.5 9 6.7c0 0-.8-6.7-9.3-9.2l.3 2.4Z" opacity=".3"/><path fill="#d8b4a1" d="M289.4 275.8c.8.7 6.3-.7 7.8 1.4 1.4 2.1 16 40.8 11 43.9s-20.6 4.5-20.6 3.9l-2.1-45 3.9-4.2Z"/><path d="M289.4 275.8c.8.7 6.3-.7 7.8 1.4 1.4 2.1 16 40.8 11 43.9s-20.6 4.5-20.6 3.9l-2.1-45 3.9-4.2Z" opacity=".3"/><path d="M303.4 308.6a5 5 0 0 1-2.5-.7c-2.6-1.5-5.1-11.7-7.6-30.3l-.2-1.1c0-.1 0-.3.2-.3.1 0 .3 0 .3.2l.2 1.1c3.2 24.2 6 29.2 7.3 30 2.6 1.5 5.7-.3 6-.6l.2-.1.3.1-.2.4c-.5.3-2.1 1.2-4 1.2Z" opacity=".2"/><path fill="#895555" d="M265.1 179.4s-6 5.2-7.6 5.6c-2.2.5-8.8-6.6-8.8-6.6.7-3.3 1.7-11 1.1-14.9l16.4-11.3c-.4 1.5-1 10.2-2 20.7l1 6.5Z"/><path d="M258.6 166.3c-2 2.4-5.5 3.7-8.7 3.7v-1l.1-1.6v-1.8l-.1-.4-.1-.5 9.8-3.4c.8.6.7 3.2-1 5Z" opacity=".2"/><path fill="#895555" d="M272 142.3a14.7 14.7 0 0 0-17.8-17.7c-11 2.6-15 18.1-14.3 28 .9 11 13.2 18 22.6 11 6.2-4.5 7-10.8 9.4-21.3Z"/><path fill="#263238" d="M257.4 144c-.1 1-.8 1.8-1.5 1.8-.7-.1-1.2-1-1.1-2.1 0-1.1.7-2 1.4-1.9.8 0 1.3 1 1.2 2.1ZM246.6 144c-.1 1-.8 1.8-1.5 1.8-.7-.1-1.2-1-1.1-2.1 0-1.1.7-2 1.4-1.9.8 0 1.3 1 1.2 2.1Z"/><path fill="#773737" d="M249.2 142.6s-4 5.1-5.2 7.3c1.4 1.5 4 1 4 1l1.2-8.3Z"/><path fill="#263238" d="M259.6 139.1h-.6a4 4 0 0 0-3.5-1.2.5.5 0 0 1-.6-.4c-.1-.3 0-.6.3-.6.1 0 2.5-.6 4.5 1.4.3.2.3.5 0 .7l-.2.1ZM242.6 139l-.3-.1a.5.5 0 0 1 .1-.8c2.2-1.8 4.5-1 4.5-1 .3 0 .5.3.4.6 0 .3-.4.4-.6.4a4 4 0 0 0-3.6.8c-.2.2-.4.2-.5.1Z"/><path fill="#fff" d="M256 153.3c.3-2.9-7.4 1.6-7.4 1.6s.9 3.2 3.9 3c3.6-.4 3.4-4.6 3.4-4.6Z"/><path fill="#263238" d="M267.3 147.8s2.8-18-2.6-20-7.5 2.8-11.1 2c-3.7-.7-3-3.4-3-3.4-2.4 1-5 5-7.2 7.9 0 0 3.3-8 8-10 8.9-4 18.9-1.8 22.5 3.8 3.6 5.5 1.4 14.9 1.4 14.9-2.3 7-3.9 11-7.8 14.8l-.3-10Z"/><path fill="#895555" d="M274.9 150a10.5 10.5 0 0 1-5.8 5.6c-3.5 1.4-4.4-2.4-3.8-5.8.6-3.2 1.9-7 5.5-6.8 3.6.1 5.4 3.8 4 7Z"/><path d="M267.2 149.8a.3.3 0 0 1-.2-.3c.2-1 .6-2 1.3-2.7.5-.5 1.2-1.1 2.2-1.3 1-.1 1.9.3 2.3 1l-.1.4-.3-.1c-.3-.6-1.1-1-1.9-.8-.8.1-1.4.7-1.8 1.1-.6.7-1 1.6-1.2 2.5l-.3.2Z" opacity=".2"/><path fill="#263238" d="M268.9 131.8c-.2-2.3-1-4.6-2.9-6-.8-.7-1.9-1-2.9-1.4-2.7-1-.6-1.4-3.5-1.9H257c-2.2.3-6.3 1.5-8.3 2.4a27.8 27.8 0 0 1-10 2.3c-.7 0-1.4.1-1.6.6-.3.6.2 1.2.6 1.6 2.8 2.6 7 3.5 10.7 2.2-1.3 2-5.5 2-4 2.5 4.2 2 9.7 1.6 13.6-1.2-.2.6-.4 1.2-.3 1.8s.6 1.2 1.2 1.3c.5.1 1-.1 1.4-.4 1.4-1 2.2-2.7 3-4.3 1.4 2.5 2.4 11 4.2 13.2 5.2-4.1 1.6-10.4 1.5-12.7Z"/><path fill="#eec1bb" d="m160.3 224.2 5.4 31 9 31-6.8 7.8s-12.5-28.8-14.2-35.5c-1.6-6.7-4-30-4-30l10.6-4.3Z"/><path fill="#263238" d="M149.8 202.9s2.2.7 4.4 3.3a532 532 0 0 1 12.6 18.8l-16.4 7.6-.6-29.7Z"/><path fill="#fff" d="M149.8 202.9s2.2.7 4.4 3.3a532 532 0 0 1 12.6 18.8l-16.4 7.6-.6-29.7Z" opacity=".2"/><path d="M156.4 229.8s.3-4.8 0-8.4c-.3-3.6-2-7-2-7s3.4 4.2 4.3 7.7l1.6 6-3.9 1.7Z" opacity=".3"/><path fill="#263238" d="M142.1 274h37.3c2.7 0 4.9 2.2 4.9 4.9v27.5H142V274Z"/><path fill="#fff" d="M182.5 306.4h-4V278c0-1 .9-2 2-2a2 2 0 0 1 2 2v28.3Z"/><path fill="#eec1bb" d="M177.1 305.5s-2.2-5.8-3.8-6.4c-1.6-.6-1.3 1.8-1.3 1.8s-.5-2.6-1.6-2.6c-1.4 0-1.1 2.6-1.1 2.6s-.5-2.1-1.5-2c-1 0-1 3-1 3s-.5-1.5-1.2-1-.5 6.6.8 8.3c1.2 1.7 9 1.3 10.8.8.4-.2 1.2-.6 1.8-2.8a1 1 0 0 0-.6-1.1l-1.2-.4-.1-.2Z"/><path d="m171.9 301 1 4.5H173.2l-1-4.6-.2-.1-.1.1ZM169.2 301l.6 4.5s.1.1.2 0l-.6-4.5s0-.1-.1 0h-.1ZM166.8 302l.4 3.4h.2l-.4-3.4-.1-.1-.1.1Z" opacity=".2"/><path fill="#d8b4a1" d="M99.3 224.6c-4.8-1.3-10 1-13.4 4.6-3.3 3.7-5 8.6-5.7 13.5-.7 5-.6 10-.8 14.9-.3 4.8-.8 9.7-.1 14.5s3 9.7 7.1 12.2c3 1.9 6.7 2.3 10.3 2 3.5-.2 7-1 10.5-1.5 3.3-.5 7.1-.9 9.3-3.5 1.4-1.8 1.6-4.3 1.7-6.6.6-13-2.3-26-6.8-38.3-1-2.9-2.2-5.8-4.2-8.1-2-2.4-5-4-8.1-3.7"/><path d="M99.3 224.6c-4.8-1.3-10 1-13.4 4.6-3.3 3.7-5 8.6-5.7 13.5-.7 5-.6 10-.8 14.9-.3 4.8-.8 9.7-.1 14.5s3 9.7 7.1 12.2c3 1.9 6.7 2.3 10.3 2 3.5-.2 7-1 10.5-1.5 3.3-.5 7.1-.9 9.3-3.5 1.4-1.8 1.6-4.3 1.7-6.6.6-13-2.3-26-6.8-38.3-1-2.9-2.2-5.8-4.2-8.1-2-2.4-5-4-8.1-3.7" opacity=".3"/><path d="M86.4 284.5a13 13 0 0 0 3.4 1.5c2.2.5 4.3.6 6 .6h.9l2.6-.4 9.4-13.9H79.3c.7 4.8 3 9.7 7.1 12.2ZM84.7 271.7c-.2-21.8 0-21.9.2-22h.3l-.2.3h.2v21.7h-.5ZM85 250l-.2.1.2-.1Z" opacity=".3"/><path d="m110.6 243.8-2.7 7.8s-3 .7-5.4-4c-2.3-4.5-1.8-12.3-1.8-12.3l7.3-5.2 2.6 13.6Z" opacity=".2"/><path d="M111.4 254.7s-5.8 3.3-5.4 3.8c.4.5 1.5 4 1.9 4 .4 0 7-4 7-4l-3.5-3.8Z" opacity=".3"/><path fill="#eec1bb" d="m121.8 464 9.9-1.1 2-26.1-15.1 1.5 3.2 25.7z"/><path fill="#263238" d="M132.4 459.1H129c-.8 0-1.6.4-2 1-2 2.9-3.6 1.8-5.8-.8-1.5-.2-1.8 1.5-2 1.9l-2.6 9.6a1.5 1.5 0 0 0 1.5 2h28c4.5 0 5.4-4.6 3.6-5a39.1 39.1 0 0 1-16.7-6.6c-.5-.5 0-.8-.5-2Z"/><path fill="#d8b4a1" d="M140.1 461.9c.4-.3.6-.7.6-1.2 0-.2 0-.5-.3-.6-1.1-.8-5.5 1.3-6 1.5l-.2.1c0 .1 0 .2.2.3 1 .2 2.2.4 3.3.4a4 4 0 0 0 2.4-.5Zm0-1.5.2.3c0 .3-.2.6-.5.8-1 .8-3.4.5-4.7.2 1.8-.8 4.4-1.7 5-1.3Z"/><path fill="#d8b4a1" d="M134.5 462c1.4-.5 4.1-2.7 4-3.9 0-.2-.2-.5-.8-.6-2.4-.3-3.5 4.1-3.5 4.3v.2H134.6Zm3.1-4.1c.5 0 .5.2.5.3 0 .7-2 2.5-3.4 3.2.3-1 1.2-3.5 2.8-3.5h.1Z"/><path fill="#d8b4a1" d="M131.9 464h-.2a.2.2 0 0 1 0-.3 4.5 4.5 0 0 1 3.1-2c.2-.1.3 0 .3.1 0 .2 0 .3-.2.3a4 4 0 0 0-2.8 1.8l-.2.1ZM134 465.7a.2.2 0 0 1-.1-.4 4.5 4.5 0 0 1 3.1-2c.2 0 .3 0 .3.2 0 .1 0 .2-.2.3a4 4 0 0 0-2.8 1.8l-.2.1ZM136.8 467.1h-.1a.2.2 0 0 1-.1-.4 4.5 4.5 0 0 1 3.2-2c.1 0 .2 0 .3.2l-.2.3a4 4 0 0 0-2.9 1.8l-.2.1Z"/><path d="m132.8 451.5-.5 3.9h-11.6l-.3-2.6 12.4-1.3z" opacity=".3"/><path fill="#eec1bb" d="m157.7 464 9.9-1 2.1-26.1-15.1 1.4 3.1 25.7z"/><path fill="#263238" d="M168.6 459.1h-3.5c-.8 0-1.6.4-2 1-2 2.9-3.6 1.8-5.8-.8-1.5-.2-1.8 1.4-2 1.9l-2.6 9.6a1.5 1.5 0 0 0 1.5 2h28c4.5 0 5.4-4.6 3.6-5a39.1 39.1 0 0 1-16.7-6.7c-.5-.4 0-.7-.5-2Z"/><path fill="#d8b4a1" d="M176.3 461.9c.4-.3.6-.7.6-1.2 0-.3 0-.5-.3-.6-1-.8-5.5 1.3-6 1.5l-.1.1v.3c1.2.2 2.3.4 3.4.4a4 4 0 0 0 2.4-.5Zm0-1.5.2.3c0 .3-.2.6-.5.8-1 .8-3.4.4-4.7.2 1.8-.8 4.4-1.7 5-1.3Z"/><path fill="#d8b4a1" d="M170.7 462c1.4-.5 4.2-2.7 4-3.9 0-.2-.2-.5-.8-.6-2.4-.3-3.5 4-3.5 4.3v.2H170.8Zm3.1-4.1c.5 0 .5.2.5.2.1.7-2 2.6-3.4 3.3.3-1 1.2-3.5 2.8-3.5h.1Z"/><path fill="#d8b4a1" d="M168 464a.2.2 0 0 1-.1-.3 4.5 4.5 0 0 1 3.1-2c.2-.1.3 0 .3.1 0 .2 0 .3-.2.3a4 4 0 0 0-2.8 1.8l-.2.1ZM170.3 465.7h-.2a.2.2 0 0 1 0-.4 4.5 4.5 0 0 1 3.2-2s.2 0 .2.2 0 .2-.2.3a4 4 0 0 0-2.8 1.8l-.2.1ZM173 467h-.1a.2.2 0 0 1-.1-.3 4.5 4.5 0 0 1 3.2-2c.1 0 .2 0 .3.2l-.2.2a4 4 0 0 0-2.9 1.9h-.2Z"/><path d="m168.3 454.6-.2 2.2-11.3.4-.3-2.5 11.8-.1z" opacity=".3"/><path fill="#d8b4a1" d="M98.7 294.2c.9-26.8 14-35.7 14-35.7h41c1.6 6 3.7 16.6 5.6 23.5l19 83.2c.5 2 .8 4 1 6l-5 83.6-23.8.2c-1-2.4-1.1-54.3-4-77.8a551.3 551.3 0 0 1-9-34.4l.4 37.4 1.4 74.2-25.3-.3c-9-57.8-8.7-92.8-12-124.8-1.2-12-3.7-26-3.4-35.1Z"/><g fill="#eec1bb"><path d="M108.7 203.6c-.5.3-3.5 1-8 6.4-4 5-23 24.6-22.4 31.5.6 6.1 25.6 26 25.6 26l4.6-5.8-15.6-20 11.6-13 4.2-25.1Z"/><path d="M107.4 262.5s3.7-5.2 5.3-5.6c1.6-.3 8.8.6 9 1.6.1 1-1 1.2-1 1.2l1.8 2s0 .7-.8.8c0 0-.1 1.5-1 1.6-.8 0-4-1-4-1l2.7 1.8s.4.7-1.7.5c-2-.2-2.8-1.2-2.8-1.2s-4.8 4-7.1 4-4-.8-4-.8l3.6-4.9Z"/></g><path fill="#263238" d="M112.7 203s-5.5-1.6-10.8 3.3c-5 4.6-13.6 15-13.6 15l12.4 14 11.8-8.3.2-24Z"/><path fill="#fff" d="M112.7 203s-5.5-1.6-10.8 3.3c-5 4.6-13.6 15-13.6 15l12.4 14 11.8-8.3.2-24Z" opacity=".2"/><path fill="#263238" d="m145.2 201.3 4.6 1.6s6.6 14 6.6 20-2.8 37.1-2.8 37.1l-41-.8-2.3-14.3-3-19.5s6-11.2 3.5-21.5l2.4-1.3 32-1.3Z"/><path fill="#fff" d="m145.2 201.3 4.6 1.6s6.6 14 6.6 20-2.8 37.1-2.8 37.1l-41-.8-2.3-14.3-3-19.5s6-11.2 3.5-21.5l2.4-1.3 32-1.3Z" opacity=".2"/><path fill="#d8b4a1" d="M109 203s2-2.7 5-.8c3.8 2.4 8 40.4-2.6 52.5l-3.5-3s5.1-12.5 5-21c0-10-3.8-27.7-3.8-27.7Z"/><path d="M109 203s2-2.7 5-.8c3.8 2.4 8 40.4-2.6 52.5l-3.5-3s5.1-12.5 5-21c0-10-3.8-27.7-3.8-27.7ZM126 238a13.5 13.5 0 0 0 13.5-.7c1.8-1.3 3-3.5 3-5.7-4.2 4.5-10.5 7-16.6 6.4Z" opacity=".3"/><path fill="#263238" d="M110.8 165a42 42 0 0 0-1.5 11.6c-.1 4.5 1.5 8.6.4 13-1.4 5.2-4 9 2.2 12 1.6.6 6.7.3 8.4 0 6-.8 9.3 2.4 15.3 1.4 7.5-1.2 5.1 1.3 11.2-1.3 8-6.9 8.4-5.2 7.7-8.6.2-3.6 4.6-3.1 5-9 .4.4-4.4-4.4-5.1-7-.1-4.8 2.4-8 .3-16-1.3-4-5-9.1-9-10.7-9-3.5-18 2-18 2-8-.7-14.6 5-17 12.6Z"/><path fill="#eec1bb" d="M137 198c-1.2-1.3-1.5-2.3-1.3-4.2.2-1.5.6-3 1.2-4.6l-2-2-10.3-9.6c.5 6.6 2.3 17.3-2.7 21.2 0 0-4 2.8-6.7 3.6 1.7 1.3 16.1 15.4 26 14.2 9.1-1 7-12.3 5.4-14.9a31 31 0 0 1-9.5-3.7Z"/><path d="M135.7 194.6c-2.8-.6-6.9-2.5-7.6-5.7-.3-1.4-.3-2.7-.2-3.6l8.4 5.3c0 1.3-.8 2.2-.6 4Z" opacity=".2"/><path fill="#eec1bb" d="M120.5 167c1.4 10.1 1.7 14.4 7.2 19.5 8.3 7.7 20.3 4.4 21.9-5.8 1.5-9.1-1-24.1-11.2-28a13 13 0 0 0-18 14.3Z"/><path fill="#263238" d="M133.4 170.4c0 1 .6 1.8 1.3 1.8.6 0 1.2-.7 1.2-1.6 0-1-.6-1.8-1.3-1.8-.7 0-1.2.7-1.2 1.6ZM131.8 166.9c.2 0 .3 0 .4-.2a3.6 3.6 0 0 1 3.3-1c.2 0 .5-.2.5-.4 0-.3 0-.6-.4-.6 0 0-2.3-.6-4.1 1.3-.2.2-.2.5 0 .7l.3.2ZM146.6 164l.3-.2c0-.3 0-.6-.3-.7a5.2 5.2 0 0 0-4.6 0c-.3 0-.3.4-.2.6.1.2.5.3.7.2 0 0 1.6-.9 3.7 0l.4.1Z"/><path fill="#d8847c" d="M141 168.8s1.8 3.8 3.7 6c.3.5.2 1-.3 1.3-1.2.5-2.7.1-2.7.1l-.7-7.4Z"/><path fill="#263238" d="m134.2 168.8 2.3-.5s-1.6 1.7-2.3.5ZM143.2 169.8c0 1 .6 1.7 1.3 1.8.6 0 1.2-.7 1.1-1.7 0-1-.5-1.7-1.2-1.8-.7 0-1.2.7-1.2 1.7Z"/><path fill="#263238" d="m144.1 168.1 2.4-.4s-1.7 1.7-2.4.4ZM139.7 180.9c-1.8 0-3.6-1-4.6-2.7l.1-.3.4.1a4.8 4.8 0 0 0 4.4 2.4c.1 0 .3 0 .3.2 0 .1-.1.3-.3.3h-.3Z"/><path fill="#263238" d="M123.7 183.4c-9.9-6.4-9.6-31.1 8.2-32.6 17.7-1.4 17.8 20 17.8 20-3.1-19.8-20.5-12.7-20.5-12.7 3.4 7.8-3.5 13-3.5 13-2.5 5.4-2 12.3-2 12.3Z"/><path fill="#eec1bb" d="M117.8 175.4c1.3 2 3.3 3.3 5 3.6 2.8.6 4-3.8 3-6.5a5.4 5.4 0 0 0-6.3-3.2c-2.5.7-3.2 3.8-1.7 6.1Z"/><path d="M122.3 176.5h-.1c-1.7-.4-2.4-1.2-2.8-1.9-.4-.7-.4-1.5-.2-1.9.3-.8 1.4-1.5 2.4-1 0 0 .2.1.1.2l-.3.2c-.7-.3-1.5.2-1.7.8-.1.3-.1.9.2 1.5.3.6 1 1.3 2.4 1.6l.2.3c0 .2-.1.2-.2.2Z" opacity=".2"/><path fill="#d8b4a1" d="M121.8 184.5a3.5 3.5 0 1 1 .5 0 4 4 0 0 1-.5 0Zm0-6.8h-.5c-1.8.3-3 2-2.8 3.7a3.3 3.3 0 0 0 3.7 2.8 3.3 3.3 0 0 0 2.8-3.7 3.3 3.3 0 0 0-3.2-2.8Z"/><path fill="#d8b4a1" d="M118.6 200.3c-3.3-1-6-6.6-4.4-8.6 1.3-1.5 2.3-3.3 3-5.2.8-2 .8-4.3 0-6.4-.6-1.8-1.8-3.4-2.3-5.2a8 8 0 0 1 .7-6c1-2 3-3.4 4.9-4.6 1.9-1.2 4-2.2 5.6-3.8 3.1-3 1.4-7.2 0-8.1.2 2.2-.5 6-3.4 8.1l-5.6 3.8c-1.9 1.2-3.8 2.6-4.9 4.6a8 8 0 0 0-.7 6c.6 1.8 1.8 3.4 2.4 5.2.7 2 .7 4.4 0 6.4-.8 1.9-2 3.5-3 5.2-1 1.7-1.8 3.7-1.2 5.7 0 0 .2 2.6 5.2 4.3l3.7-1.4Z" opacity=".3"/><path fill="#d8b4a1" d="M127 153.4c-.2-.3 14-4.2 20 3 5.8 7.3 5.6 18.8 5.6 18.8s3.4-18.4-7.5-22.8c-10.8-4.5-18 1-18 1Z" opacity=".3"/></svg>