<svg xmlns="http://www.w3.org/2000/svg" viewBox="0 0 500 500"><path fill="#ebebeb" d="M0 382.4h500v.3H0zM416.8 398.5h33.1v.3h-33.1zM267.9 390.8h27.4v.3h-27.4zM396.6 389.2h19.2v.3h-19.2zM52.5 390.9h17.1v.3H52.5zM78.5 390.9h32.4v.3H78.5zM164.8 395.1h60.4v.3h-60.4zM237 337.8H44a5.7 5.7 0 0 1-5.8-5.7V60.7A5.7 5.7 0 0 1 44 55H237a5.7 5.7 0 0 1 5.7 5.7v271.4a5.7 5.7 0 0 1-5.7 5.7ZM44 55.2a5.5 5.5 0 0 0-5.5 5.5V332a5.5 5.5 0 0 0 5.4 5.4H237a5.5 5.5 0 0 0 5.5-5.4V60.7a5.5 5.5 0 0 0-5.5-5.5ZM453.3 337.8h-193a5.7 5.7 0 0 1-5.8-5.7V60.7a5.7 5.7 0 0 1 5.7-5.7h193.1a5.7 5.7 0 0 1 5.7 5.7V332a5.7 5.7 0 0 1-5.7 5.7Zm-193-282.6a5.5 5.5 0 0 0-5.6 5.5V332a5.5 5.5 0 0 0 5.5 5.4h193.1a5.5 5.5 0 0 0 5.5-5.4V60.7a5.5 5.5 0 0 0-5.5-5.5Z"/><path fill="#f5f5f5" d="M227.4 376.4H71.2V94.5h156.2z"/><path fill="#e0e0e0" d="M214.2 368.5H84.5a4.7 4.7 0 0 1-4.7-4.7V107.2a4.7 4.7 0 0 1 4.7-4.7h129.7a4.7 4.7 0 0 1 4.7 4.7v256.6a4.7 4.7 0 0 1-4.7 4.7ZM84.5 103.1a4.1 4.1 0 0 0-4 4.1v256.6a4.1 4.1 0 0 0 4 4.1h129.7a4.1 4.1 0 0 0 4.1-4V107.1a4.1 4.1 0 0 0-4.1-4Z"/><path fill="#f5f5f5" d="M71.3 382.4h17l4.8-5.9H71.3v5.9z"/><path fill="#e0e0e0" d="M212.7 382.4h-17l-4.8-5.9h21.8v5.9z"/><path fill="#f5f5f5" d="M227.5 382.4h-17l-4.8-5.9h21.8v5.9z"/><path fill="#e0e0e0" d="M56.1 94.6h15.2v287.8H56.1zM149.4 368.5a.3.3 0 0 1-.3-.3V102.8a.3.3 0 0 1 .3-.3.3.3 0 0 1 .3.3v265.4a.3.3 0 0 1-.3.3ZM140.7 252.1c-2.3 0-3-9.9-3-16.6s.8-16.6 3-16.6 3 10 3 16.6-.8 16.6-3 16.6Zm0-32.6c-1 0-2.5 6-2.5 16s1.4 16 2.5 16 2.4-6 2.4-16-1.4-16-2.4-16ZM158 252.1c-2.1 0-3-9.9-3-16.6s.9-16.6 3-16.6 3 10 3 16.6-.7 16.6-3 16.6Zm0-32.6c-1 0-2.3 6-2.3 16s1.4 16 2.4 16 2.4-6 2.4-16-1.4-16-2.4-16Z"/><path fill="#e6e6e6" d="M386.9 260.4H429v122h-42.1z"/><path fill="#f0f0f0" d="M421 382.4h8v-9.2h-16.4l8.4 9.2z"/><path fill="#e6e6e6" d="M245.7 260.4h26v122h-26z"/><path fill="#e0e0e0" d="M241.2 252h27.9v8.4h-27.9z"/><path fill="#f0f0f0" d="M264.8 260.4H429V380H264.8z"/><path fill="#f5f5f5" d="M261.8 252h171.7v8.4H261.8z"/><rect width="42.7" height="73.2" x="364.8" y="300.1" fill="#e6e6e6" rx="3" transform="rotate(-90 386.2 336.7)"/><rect width="42.7" height="73.2" x="286.2" y="300.1" fill="#e6e6e6" rx="3" transform="rotate(-90 307.6 336.7)"/><path fill="#e6e6e6" d="M422.8 367.4a3 3 0 0 1-3 3.1H274a3 3 0 0 1-3-3 3 3 0 0 1 3-3.1h145.7a3 3 0 0 1 3 3Z"/><path fill="#f0f0f0" d="M314.8 320.3h-14.5a26.6 26.6 0 0 1-16.6-5.5h47.8a26.6 26.6 0 0 1-16.7 5.5ZM394.1 320.3h-14.4a26.6 26.6 0 0 1-16.7-5.5h47.8a26.6 26.6 0 0 1-16.7 5.5Z"/><rect width="42.7" height="73.2" x="364.8" y="251.7" fill="#e6e6e6" rx="3" transform="rotate(-90 386.2 288.3)"/><rect width="42.7" height="73.2" x="286.2" y="251.7" fill="#e6e6e6" rx="3" transform="rotate(-90 307.6 288.3)"/><path fill="#f0f0f0" d="M314.8 271.9h-14.5a26.6 26.6 0 0 1-16.6-5.5h47.8a26.6 26.6 0 0 1-16.7 5.5ZM394.1 271.9h-14.4a26.6 26.6 0 0 1-16.7-5.5h47.8a26.6 26.6 0 0 1-16.7 5.5ZM272.8 382.4h-8v-9.2h16.3l-8.3 9.2zM342.8 226c0 8.8 15.2 16 34 16s34-7.2 34-16Z"/><path fill="#e0e0e0" d="M342.8 236.1c0 8.8 15.2 16 34 16s34-7.2 34-16Z"/><path fill="#e6e6e6" d="M276.6 77h142v133h-142z"/><path fill="#f5f5f5" d="M280.5 77h142v133h-142z"/><path fill="#fff" d="M415.5 83.6v120h-128v-120z"/><path fill="#e6e6e6" d="M415.6 83.6v119.9h-3v-120z"/><path fill="#f5f5f5" d="M283.4 176.6h136.2v8.8H283.4zM283.4 153.5h136.2v8.8H283.4z"/><ellipse cx="250" cy="416.2" fill="#f5f5f5" rx="193.9" ry="11.3"/><path fill="#263238" d="m287.9 267.7-52.6 110.8 1.4 14.5 65.7-62.3-11.5-.8 36.5-33.2a106 106 0 0 1-10.2-10.5c-9.3-11.2-14.4-24-18.4-37.5l2.7-.7a115.5 115.5 0 0 0-4.6-25.3l-20.2 47.6Z"/><path fill="#263238" d="m377 320.7-131.9 64-7-1.5v-.3L311 325l-11.6-1.8 40.4-30.7q4 4.5 8.4 8.6l10 9.3c3 2.8 5.5 5.6 9.8 6.7a28.6 28.6 0 0 1 9 3.6ZM376 326.8a13.4 13.4 0 0 0-2.8-2.5L244 385.9c14.6 2.9 30.8 4.5 45.5 3.5 46.1-5.5 70.3-22.4 85.5-47.9l4.7-2.9a3.8 3.8 0 0 0 1.2-6ZM152 322.7l-.5 10.9-20-14.5a174.6 174.6 0 0 0 11.2 27 100 100 0 0 0 82 55.5c5.3.5 13 0 21.9-1.4l-1.1-3.6Z"/><path fill="#d8b4a1" d="m183.8 136.2-6-46.9a54.8 54.8 0 0 0-11.8 16.1c-18 36.4-11.7 56.8 13.1 71.7l1 .6-10.5-49.4Z"/><path fill="#263238" d="m296.2 206.8 35.2-87.2v22.3l-35.2 64.9z"/><path fill="#d8b4a1" d="m341.6 271.8 45.8-59.7-4.8 17.2-41 42.5zM139.7 208.1l-20.4-45.3-2.1 11.3 22.5 34zM161.4 321.7l79.8 87.4-2.2-17-59.8-98.9.7 8.7-26.2-34.2 16.4 2.7-28.6-50.8A33.3 33.3 0 0 0 137 237c.5 26 1.4 54 5 77.9l17.3 17.4Z"/><path fill="#263238" d="m196.1 213.1 21.4 136.3 13.2-195.9-9.4 6.1-2.3-78.9c-13-.3-26.6 3.6-37.5 13.2l5.6 47-14.3-8.2 10 49.6a107.5 107.5 0 0 0 17.7 8.7l-1.1 2.8a128.7 128.7 0 0 0-14.5-.6l4.8 23.7Z"/><path fill="#263238" d="m156.1 262.6 23 36.3.2-8.8 50.4 103.3-1.5-43-33.7-129.8-6.2 4.1-5.1-27.7c-2.4.2-4.8.4-7.2.8a39.5 39.5 0 0 0-27.5 16l23.8 53Z"/><path fill="#d8b4a1" d="m265 167.5-10 30.6a124 124 0 0 0 29.5-4.2c-8.8-5.1-11.3-19.6-10.8-34.6l-8 13.4Z"/><path fill="#263238" d="m266.6 209.6-1.5-1c-8.8-4.8-17-9.2-25.2-12.9a14 14 0 0 1-1.7-4c4.9.8 9.7 1.2 14.2 1.5l13.2-31.5v5.5l9.6-13.3a138.9 138.9 0 0 1 6.4-26.7c7.3-20.4-8-34.5-15.8-32.6-4.8-12.1-21.4-20.7-39.5-21.3l-.6 72.5 9.6-6L221.5 342l7.3 50.8 47.7-113-11 3 18-48.5a48.2 48.2 0 0 0-16.9-24.7Z"/><path fill="#263238" d="M221.9 246.2c-8.7 17.8-6.1 28.1 5.3 36a62.5 62.5 0 0 0 44.5 8c-6.4-5-4.4-22.6-1.4-32.7s-4.2-16.8-7.7-15.8c-4.7-11.7-30.7-16-40.7 4.5Z"/><path fill="#fff" d="M221.9 246.2c-8.7 17.8-6.1 28.1 5.3 36a62.5 62.5 0 0 0 44.5 8c-6.4-5-4.4-22.6-1.4-32.7s-4.2-16.8-7.7-15.8c-4.7-11.7-30.7-16-40.7 4.5Z" opacity=".6"/><path fill="#b65b52" d="m269.6 307 .5 2 .5 2.2 1 4.2A173.3 173.3 0 0 0 277 332a62.8 62.8 0 0 0 3.4 7.4 37.8 37.8 0 0 0 2 3.3l1 1.5 1.3 1.4a58.3 58.3 0 0 0 5.6 5.8c2.1 2 4.4 3.7 6.7 5.5.6.5 1.2 1 1.8 1.3s1.2 1 1.8 1.4l3.6 2.5.2.2a4.3 4.3 0 0 1-3.4 7.7 57.3 57.3 0 0 1-9.6-3 66.2 66.2 0 0 1-9-4.5 54 54 0 0 1-8.5-6.2l-2-2-1.9-2a52.5 52.5 0 0 1-3.2-4.5 88 88 0 0 1-8.9-18.4 127.9 127.9 0 0 1-4-14.2l-.6-2.4-.5-2.6a8.6 8.6 0 0 1 16.8-3.4Z"/><path fill="#fff" d="M263.8 299.2c10 5.8 12.4 26.8 12.4 26.8-7.5.6-16.8 4-24.1 9 0 0-3.3-12.7-3-19 .2-6.6 9-20 14.7-16.8Z"/><path fill="#b55b52" d="m311.8 375.4 4-4a2.4 2.4 0 0 0-.1-3.5l-3-2.8a7.8 7.8 0 0 0-4.1-2l-9.7-1.5-2.7 5.4c4 4.2 6.9 5.4 6.9 5.4l5.7 3.4a2.4 2.4 0 0 0 3-.4Z"/><path fill="#d8b4a1" d="m251 359.1-34.5 6.4c-3.2 18.1 4.7 41.4 35.8 41.4 37.8 0 71.6-6.5 66.3-23.9-6.5-21-67.6-23.9-67.6-23.9Z"/><path fill="#d8b4a1" d="M199.9 365.5c-3.1 18.1 4.7 47.4 35.8 47.4 51 0 80.8.8 85-17S255.7 373 255.7 373s2.3-5.4-1.1-17.5c-33.7.6-54.8 10-54.8 10Z"/><path fill="#fff" d="M199.9 365.5c-3.1 18.1 4.7 47.4 35.8 47.4 51 0 80.8.8 85-17S255.7 373 255.7 373s2.3-5.4-1.1-17.5c-33.7.6-54.8 10-54.8 10Z" opacity=".1"/><path fill="#fff" d="M263.8 299.2c-12.3-7.2-22.1-12.3-38.6-11a19.2 19.2 0 0 0-17.3 16.2c-3.2 19.8-8.5 43-8 61.1 35 14.5 55.3 1.6 54.7-10-8.2-21.6 12.5-32.1 13.6-44.5.5-6.3-.3-9.4-4.4-11.8Z"/><path fill="#b55b52" d="M237.8 269.8c2 7.3-.9 14.3-2.8 19.6a165.6 165.6 0 0 1 13.3 22.7c10.8-8.3 6.8-16 6.8-16-6.6-4.2-4.5-10.8-1.6-15.4Z"/><path d="m248.3 272 5.2 8.7a21.8 21.8 0 0 0-1.8 3.4c-3.5.3-8.1-4.3-7.7-7.5.2-1.5 3.9-4 4.3-4.6Z" opacity=".2"/><path fill="#b55b52" d="M231.2 258.2c2.8 11 3.8 15.7 10.5 20.4 10 7 23 1.2 23.6-10.5.5-10.5-4.2-26.7-16-29.1a15.5 15.5 0 0 0-18 19.2Z"/><path fill="#263238" d="M259.7 242c.2 3.7-10.8 4.6-17 4.2-3.9-.3-7.3 2-6.8 5.5.6 3.3 3.5 5.4 5.8 4.6 2.3 7-7 14.4-15.3 9.1s6.4-42 33.3-23.4Z"/><path fill="#fff" d="M259.7 242c.2 3.7-10.8 4.6-17 4.2-3.9-.3-7.3 2-6.8 5.5.6 3.3 3.5 5.4 5.8 4.6 2.3 7-7 14.4-15.3 9.1s6.4-42 33.3-23.4Z" opacity=".6"/><path d="M248.2 257.6a3.6 3.6 0 0 0-3 .5 7.3 7.3 0 0 0 3-.5ZM248.2 258.4a3.2 3.2 0 0 0-2.5 1.1 6.5 6.5 0 0 0 2.5-1.1ZM256.3 269.4a3.2 3.2 0 0 0-2.8-.2 6.4 6.4 0 0 0 2.8.2ZM256.6 246.2s-5.7.3-8.5 2a45 45 0 0 0 8.5-2Z" opacity=".2"/><path fill="#263238" d="M249.6 257.8c.2.9.8.7 1.4.6s1-.1.7-1-.8-1.6-1.3-1.4-1 .9-.8 1.8ZM259.9 255.8c.1 1 .6.8 1.2.7s1-.2.9-1-.8-1.6-1.4-1.5-1 1-.8 1.8Z"/><path fill="#263238" d="m260.4 254 2-1s-.8 2-2 1Z"/><path fill="#a02724" d="M257 257a24.8 24.8 0 0 0 4.3 5.1c-1 1.4-3 1.2-3 1.2Z"/><path fill="#b55b52" d="M230.2 268.2a8.3 8.3 0 0 0 5.6 3c3 .2 3.8-2.6 2.5-5-1.1-2.3-4-5-6.7-4.1s-3.2 4-1.4 6.1Z"/><path fill="#263238" d="M249.4 250a.5.5 0 0 0-.4.4c-.3 2.5-3.2 4-3.2 4a.5.5 0 0 0-.2.7.5.5 0 0 0 .7.2c.1 0 3.4-1.8 3.8-4.8a.5.5 0 0 0-.5-.6ZM258.2 248.5a.5.5 0 0 0-.5.2.5.5 0 0 0 .2.8 5.4 5.4 0 0 0 4.9.4.5.5 0 1 0-.5-1 4.3 4.3 0 0 1-3.9-.4.5.5 0 0 0-.2 0ZM250.1 256l2-1s-.7 1.9-2 1Z"/><path fill="#b65b52" d="M228 299.9a716.5 716.5 0 0 0 4.9 24c.9 4 1.9 7.9 3 11.7a86.7 86.7 0 0 0 3.8 10.7l.6 1.2.5 1 .1.3.3.4a8.3 8.3 0 0 0 .6.8 31 31 0 0 0 3.6 3.6 94.5 94.5 0 0 0 9.3 7c6.7 4.5 14 8.7 21 12.8l.1.1a4.3 4.3 0 0 1-3.3 7.8 138.7 138.7 0 0 1-24.3-9.4 87 87 0 0 1-11.8-6.9 42.4 42.4 0 0 1-5.8-4.8l-1.4-1.6-.7-.8-.7-1-1.1-1.8-1-1.6a86.6 86.6 0 0 1-5.5-12.8 167.6 167.6 0 0 1-6.9-25.2l-2.3-12.9a8.6 8.6 0 0 1 16.9-2.8Z"/><path fill="#fff" d="M222.2 290.6c10.9 3.7 12.3 28 12.3 28-5.8-1.2-20 8-23 13.2 0 0-4.7-15.4-4.4-21.8.3-6.6 7-22.3 15.1-19.4Z"/><path fill="#b55b52" d="m282.5 388.2 4.6-3.7a2.5 2.5 0 0 0 .3-3.6l-2.7-3.3a8 8 0 0 0-4-2.6l-10-2.8-3.4 5.4c3.6 4.8 6.5 6.4 6.5 6.4l5.5 4.3a2.6 2.6 0 0 0 3.2 0Z"/><path fill="#263238" d="M252.6 266.9a10.3 10.3 0 0 0-1.7.4.3.3 0 0 0-.2.4.3.3 0 0 0 .4.2 8.4 8.4 0 0 1 7.5.8.3.3 0 0 0 .5-.1.3.3 0 0 0-.1-.4 8.7 8.7 0 0 0-6.4-1.3Z"/><path fill="#d8b4a1" d="M117.9 413.3h-16a6.8 6.8 0 0 1-6.9-6.8v-5.2a6.9 6.9 0 0 1 5.5-6.7 4 4 0 0 0 3-2.3 7.3 7.3 0 0 0 .3-1.6 2.2 2.2 0 0 0-.6-1.8l-.5-.5a2 2 0 0 1 1.4-3.5h11.5a2 2 0 0 1 1.4 3.5l-.5.5a2.4 2.4 0 0 0-.6 2 7 7 0 0 0 .3 1.3 4 4 0 0 0 3 2.3 6.9 6.9 0 0 1 5.5 6.7v5.3a6.8 6.8 0 0 1-6.8 6.8ZM104 386a1 1 0 0 0-.7 1.7l.5.6a3.2 3.2 0 0 1 1 2.6 8 8 0 0 1-.5 1.8 5 5 0 0 1-3.7 3 5.8 5.8 0 0 0-4.7 5.7v5.2a5.8 5.8 0 0 0 5.8 5.8h16a5.8 5.8 0 0 0 6-5.8v-5.2a5.8 5.8 0 0 0-4.7-5.8 5 5 0 0 1-3.8-2.9 7.5 7.5 0 0 1-.4-1.6 3.4 3.4 0 0 1 1-2.8l.4-.6a1 1 0 0 0-.7-1.7Z"/><path fill="#d8b4a1" d="M95.5 401.3v5.2a6.3 6.3 0 0 0 6.3 6.3h16a6.3 6.3 0 0 0 6.4-6.3v-5.2s-8 2-14.3 0-14.4 0-14.4 0Z" opacity=".2"/><path fill="#d8b4a1" d="m97.2 411.1-.3-1a69.8 69.8 0 0 1 25.9 0l-.2 1a68.5 68.5 0 0 0-25.4 0ZM109.9 390.1a19.1 19.1 0 0 1-6.5-1.1l.3-1a18 18 0 0 0 12.3 0l.3 1a19.1 19.1 0 0 1-6.4 1.1Z"/><path fill="#d8b4a1" d="M109 404.3h-1c.5-16.6-6.8-63.3-13-83.2l1-.3c6.2 20 13.5 66.8 13 83.5ZM109.8 402.4c-.3-10.5 1.3-38.1 8.6-57l1 .4a173.4 173.4 0 0 0-8.6 56.5Z"/><path fill="#d8b4a1" d="M104.6 348.7a47.9 47.9 0 0 0-30.4-15.6c4.7 8.8 19.5 15.1 30.4 15.6Z"/><path fill="#fff" d="M112.7 360.8c6-1.4 13-4.8 18.9-12.6-6.7-.1-15.1 6.4-19 12.6Z"/><path fill="#d8b4a1" d="M112.7 361.3a.5.5 0 0 1-.5-.8c4-6.3 12.6-13 19.4-12.8a.5.5 0 0 1 .4.2.5.5 0 0 1 0 .6 32.3 32.3 0 0 1-19.2 12.7Zm17.8-12.6c-5.9.5-13 5.9-16.7 11.3a31.1 31.1 0 0 0 16.7-11.3Z"/><path fill="#263238" d="M96.7 331.7a31 31 0 0 0 13.3-17.8c-6.1 2.1-11.8 10.9-13.3 17.8Z"/></svg>