<svg xmlns="http://www.w3.org/2000/svg" viewBox="0 0 500 500"><path fill="#d8b4a1" d="M19 309s15 82.8 91 122.7 170.6 22.3 247.4 10 128.5-70 127.4-139-62.2-75-105-143.8S336 64.3 262.4 33 88.7 54.4 46 147.3 19 309 19 309Z"/><path fill="#fff" d="M19 309s15 82.8 91 122.7 170.6 22.3 247.4 10 128.5-70 127.4-139-62.2-75-105-143.8S336 64.3 262.4 33 88.7 54.4 46 147.3 19 309 19 309Z" opacity=".7"/><path fill="#263238" stroke="#263238" stroke-linecap="round" stroke-linejoin="round" d="M98.5 212.8s15.4 36.2 22.1 54.6 6.2 24 6.2 24L74 289.5s-4.3-23.3 4.3-43.6a129.2 129.2 0 0 1 20.2-33.1Z"/><path fill="#fff" stroke="#263238" stroke-linecap="round" stroke-linejoin="round" d="M111.3 275.9c1.8 7 2.8 12 3.4 15.6L324.4 302l70 1 44.9.5s-58.5-34.9-68.7-48-9.7-24.8-14.6-32.1-25.8-24.4-29.2-33.6L323 179l-219.3 8.3s-18 12.1-9.3 42.3c0 0 11.7 24.3 17 46.2Z"/><path d="m118 291 265.8 1.7v10.6" opacity=".4"/><path fill="none" stroke="#263238" stroke-linecap="round" stroke-linejoin="round" d="M159.4 239.5a110.9 110.9 0 0 1 14 45.8"/><path d="m99.4 224.9 241.8-22.5-18.3-23.3-219.3 8.3-4.2 37.5z" opacity=".4"/><path fill="#263238" stroke="#263238" stroke-linecap="round" stroke-linejoin="round" d="M481.8 220.8c-19-43.4-41.7-47.2-41.7-47.2l-121.4 4.9a19.3 19.3 0 0 0-.2 2 49 49 0 0 0 .4 9.5c.1 16.5 2.6 57 22 73.2a55.6 55.6 0 0 0 41.7 12.6 14.9 14.9 0 0 1 1.2 5.1c.5 12.5.5 21.7.5 21.7l93.8 1s22.6-39.5 3.7-82.8Zm-150 4.9 2.3 3.8c10.6 17.5 28.2 32 42.1 41.5-18.4-4.2-44.7-15.4-44.4-45.3Z"/><path fill="none" stroke="#7d7d7d" stroke-linecap="round" stroke-linejoin="round" d="M347.7 199a154 154 0 0 0 68.3 47.3c55.1 17.9 69.1 14 69.1 14M333 178.8a121.3 121.3 0 0 0 8.1 12"/><path fill="none" stroke="#7d7d7d" stroke-linecap="round" stroke-linejoin="round" d="M465.7 253.3q4.9 1.7 10.1 3.1M389.6 181.9s11.6 43.4 64.1 66.7"/><path fill="#263238" stroke="#263238" stroke-linecap="round" stroke-linejoin="round" d="M53 221.8s-14 25.4-14 46.8a81.4 81.4 0 0 0 2 19.2l40.6 2c-6.3-23.5 4-54.2 31.8-74.3 31.7-23 40.4-29.8 40.4-29.8l-94.2 4s-7 4.4-19.7 25-7.3 53.8-7.3 53.8a110 110 0 0 1 6-25.7 51 51 0 0 1 14.3-21Z"/><path fill="none" stroke="#7d7d7d" stroke-linecap="round" stroke-linejoin="round" d="M92.2 233.9A80.9 80.9 0 0 0 79 282M52.5 261.6a60.5 60.5 0 0 0-1.4 12.7M101.5 193.5s-33.7 25-46 57.9"/><path fill="#263238" stroke="#263238" stroke-linecap="round" stroke-linejoin="round" d="M173.4 185.1s-.6 16.4-20.3 27.7-28.7 7-47.8 14.4-25 20.4-25 20.4 21-22.7 57.1-22.4 69.1-22 80.1-41.7ZM222.5 203.2s-5.3 7.6-5.3 12-.7 11.6-.7 11.6 7-3.6 19.7-11.6 31-24.8 46-27.4 28 3.3 33.1 6.6 8.7 6 8.7 6-8.7-16-23.4-20.3l-44.7 1.3s-17 2.4-33.4 21.8ZM216.2 212.2l-2.4 15.7s-4-5.4 2.4-15.7Z"/><path fill="#263238" stroke="#263238" stroke-linecap="round" stroke-linejoin="round" d="M156 231.5s-3.3-10.3-11.6-16.7-33.4-14.3-41-10.3-6.7 17-6.7 17 3-7.4 10-8.4 22 9.4 32 15 17.4 3.4 17.4 3.4ZM154.8 223.5l3.3 8.4s2.7-4.7-3.3-8.4Z"/><path fill="#d8b4a1" stroke="#263238" stroke-linecap="round" stroke-linejoin="round" d="M277.3 223.8a39.6 39.6 0 0 0-21.7 1.7 22.7 22.7 0 1 0 39.2 4.5c-4-1.6-7-4-17.5-6.2Z"/><circle cx="273.9" cy="238.9" r="14" fill="#263238" stroke="#263238" stroke-linecap="round" stroke-linejoin="round"/><circle cx="286.8" cy="239.8" r="5.6" fill="#fff"/><path fill="none" stroke="#263238" stroke-linecap="round" stroke-linejoin="round" d="M232.2 264.2a53.7 53.7 0 0 1 11.7-32.3c15.4-19.6 34.7-11.7 41.4-8.7s18.7 12.3 18.7 12.3l3 .4s-4.1 5-10.3 14c-7 10-11 16.3-34.4 17.7M233.2 266s1.3 8 3.3 5 3-3.8 3-3.8l6.4-.3"/><path fill="#263238" stroke="#263238" stroke-linecap="round" stroke-linejoin="round" d="M310.3 232.2c-2 .3-5.7-.7-5.7-.7s5-2.3 6.4-4 1.7-5.3 1.7-5.3-3 3.7-7 4.3-10.4-.6-10.4-.6 5.7-2.7 6.7-3.7 3-5.7 3-5.7-6.7 4.7-11.7 5.7-4.3-3-21.7-4.4-33.4 12-38.4 39.1c0 0 8-27.4 28-29.4s32 4.7 38 7l1.6.6a38.6 38.6 0 0 1-4.8 16.1c-3.6 6-6.5 8.7-7.8 9.8 3-2.3 13.6-10.5 16.2-20.5a22.6 22.6 0 0 0 .7-4.6 11 11 0 0 0 6-2 17.6 17.6 0 0 0 5.3-5.4s-4 3.4-6 3.7ZM288.1 261l-.8.6a7.3 7.3 0 0 0 .8-.6Z"/><path fill="none" stroke="#263238" stroke-linecap="round" stroke-linejoin="round" d="M238.9 237.9s5-16.4 18.3-21.7 26.4 0 26.4 0M168.7 270.5s-6.8-18-16.5-27.2-22.4-6.8-27.7 3-5.4 16.4-5.4 16.4 2.5 5.9 13.2 13.2 22.8 4.9 28.7 3"/><path fill="#d8b4a1" stroke="#263238" stroke-linecap="round" stroke-linejoin="round" d="M141.4 239a20.9 20.9 0 1 0 27.3 31.4c-8.8-21-21.7-28.9-27.3-31.5Z"/><path fill="#263238" stroke="#263238" stroke-linecap="round" stroke-linejoin="round" d="M151 245.1a12.5 12.5 0 1 0 14.7 19 62 62 0 0 0-14.8-19Z"/><path fill="#263238" stroke="#263238" stroke-linecap="round" stroke-linejoin="round" d="M142.5 236.5c-12.7-3-14.6 2.4-19 3.4a18.5 18.5 0 0 1-8.8-.5s.5 3.4 2.4 4.4a20.4 20.4 0 0 0 5 1.4s-4 2.5-7.4 2.5a12.3 12.3 0 0 1-5.8-1.5s2.9 4.4 4.8 5.4a9.5 9.5 0 0 0 5 .5s-1 2.9-6 2.9a18.7 18.7 0 0 1-7.7-1.5s6.3 4.4 8.7 5.8a10.2 10.2 0 0 0 3.2 1.2 13.7 13.7 0 0 1-4.3 1.7l-2.2.3s4.4 3.5 9.8 7a53.4 53.4 0 0 0 9.8 5s-7.8-5.6-10.6-11l-.3-.7 1-5.3c1.6-5.3 5.6-15.1 12.6-17.6 9.7-3.4 22.9 7.3 32.6 23.8 0 0-10.2-24.3-22.8-27.2Z"/><path fill="none" stroke="#263238" stroke-linecap="round" stroke-linejoin="round" d="M163 256.2s-7.2-14.3-14.6-21.3-17.8-4.4-21.4.3"/><path fill="#fff" d="M164 265.4a3.8 3.8 0 1 1-3.8-3.8 3.8 3.8 0 0 1 3.8 3.8Z"/><path d="m384.3 302.6-59.9-.6-209.7-10.5"/><path fill="none" stroke="#263238" stroke-linecap="round" stroke-linejoin="round" d="m25 287 308.2 15.3 154.6 2.1M27.7 190.8l443.6-18.5M27.3 135.4 474.6 119M28.8 67.2l448 5.8M33 345.3l358 1.4 96.7-2"/><path fill="#263238" d="M41.1 345s149.9 11.7 215.2 9 153.5-7.4 153.5-7.4L313 346H168.3Z"/><path fill="none" stroke="#263238" stroke-linecap="round" stroke-linejoin="round" d="M37 412s160.7 11.3 251.3 6L485 406.7"/><g stroke="#263238" stroke-linecap="round" stroke-linejoin="round"><path fill="#fff" d="M360 252s46.5 16.6 56.5 21.6 19 30 19 30l-85.8-1.1S327.8 274.7 360 252Z"/><path fill="#fff" d="M416.5 266s15 11.5 19.8 13.4 13.2 19.9 19 27.6 11.4 10.9 8.6 15-11 7.7-20.5 2.5-12.8-20.4-14.7-21.7-9.3-8-11-11.2-5.7-26-1.2-25.6Z"/><path fill="#d8b4a1" d="M458.1 310.8s-11.8-5.5-11.5-1 9.3 8 11.8 9 7.4 1.9 5.8-.7a29.4 29.4 0 0 0-6.1-7.3Z"/><path fill="#fff" d="M324.4 302a38.7 38.7 0 0 1-16.7-13.3c-7-10-9-12.5-15.7-7.7-5.5 3.9-3.3 15.1-2.3 19.2ZM394.7 254.4s2.6-5 7-5a15.2 15.2 0 0 1 13.5 7.6c3.2 5.8 1.3 16.3 5.1 31.4s1.3 23.3-3.2 30.7-10.2 16-13 17.6-7.4-.6-9-6-1-14.8 0-19.3 3.4-13.1 3.4-13.1a69 69 0 0 1-3.8-21.5s-3.5 0-3.5-6 2.6-14.8 3.5-16.4Z"/><path fill="#d8b4a1" d="M395 330.6c0-1.3-.6-5.8 3.3-9.3s6.7-5.1 9.2-3.5 7.4 3.5 5.8 6.7-5.1 9.6-7.7 11.2-10.2 3.9-10.6-5.1Z"/><path fill="#fff" d="M368.6 254.3s-1-12.7-11.3-12.7-14.4 2.6-15.4 7.7-9.6 29.4-8.3 35.5 11.5 35 12.2 40 10.9 11.6 17 5.8 2.2-17 2.2-21.8-2.2-24-2.2-24 4.2-3.7 4.5-15.6"/><path fill="none" d="M356.8 272.9a3.3 3.3 0 0 1 1.4 1.7M338 273.6s1.7-4.1 10.6-3.2a28.2 28.2 0 0 1 4.7.9"/><path fill="#d8b4a1" d="M348 328.9s-2.6-7-1.7-11.6 6.3-6.4 11.5-5.5 7.3 10.1 7 15.6-10.5 9.9-16.8 1.5Z"/><path fill="#fff" d="M394.7 252.8s-1-8.3-4.8-10.5-16-4.5-19.2-.7-1.6 23.4-2.5 31 2.9 18.6 2.9 24.7a212.8 212.8 0 0 0 2.2 25c1 5.7 3.2 8 7.4 8.6s9-.6 10.2-3.2 4.2-17 4.2-27.2 0-21.2.3-29.2a169 169 0 0 0-.7-18.5Z"/><path fill="none" d="M383.6 267.4a12.1 12.1 0 0 1 5 1.2M370.7 274.3s3.3-5.8 9.3-6.8"/><path fill="#d8b4a1" d="M374.9 327.4a27.5 27.5 0 0 1 0-7.8c.6-4.9 2-12.4 10.1-12.4s5.8 12.5 5.8 16.5-.3 5.8-3.7 7.2-11.3.9-12.2-3.4Z"/></g><g fill="#d8b4a1"><path d="M480.7 184.3c-.2-.6-2.8-6.8-10-16.5 2.8-4 11-17.2 8.4-29.3-3.1-14.5-9.7-18-18.8-27s-14.4-14.4-14.4-14.4-3.2 18.3-1.3 30.1 11.5 18.9 15 23.5a92.7 92.7 0 0 1 6.7 11.6 206.1 206.1 0 0 0-36.7-34 52.3 52.3 0 0 0 2-30.4c-4.2-17.7-14.5-24.2-23.5-33.5s-15-15-15-15 .3 33.3 3.5 44.6c2 7 13.8 18.8 22.6 27a315.6 315.6 0 0 0-25.4-15.7l-2.2-.8a48.3 48.3 0 0 0-6-3c-.5-4-2.7-17.7-10.4-30-9-14.5-20.2-18.9-32.3-23a74.5 74.5 0 0 1-20.8-11.6s-2.8 19.7 7 31.7S346 83 357.3 87.4A182 182 0 0 1 380 99a164.7 164.7 0 0 0-63-8.7 52.3 52.3 0 0 0-17.3-25c-14.3-11.2-26.4-10-39.2-11.7s-21.2-2.5-21.2-2.5 21 26 30.5 32.9c6 4.2 22.5 6.1 34.4 7a320.5 320.5 0 0 0-38.7 5.2 77.5 77.5 0 0 0-26.4-16.6c-16.2-5.8-27.7-2.2-39.7 2a74.5 74.5 0 0 1-23.5 4s10.1 17.1 25.3 20.4 22 .8 33.6-2.7a120.5 120.5 0 0 1 13.4-3.1c-6.8 1.6-13.2 3.4-19.4 5-10.4 2.8-20.3 5.4-30.3 7.3l-.3.1c-3.4-1.1-9.1-3.3-18.7-7.6-19-8.4-31.5-5.2-41.2-1.2s-40.5 14-40.5 14 17.6 18.1 42.7 16c20.2-1.7 48.3-13.7 58.2-18.3h.4c10-2 20-4.6 30.5-7.5a622 622 0 0 1 31.3-7.7 45.5 45.5 0 0 0-15.5 15.2c-8.2 13.5-12.2 24-15.3 30.6l-4 8.4s8.7-2.3 19.5-6.4 18.7-15.4 21.3-26.1c2.1-8.5.8-19 0-23a317.6 317.6 0 0 1 38.9-5.1 29.6 29.6 0 0 0-11.3 6 182.5 182.5 0 0 0-26.2 32.4 69.4 69.4 0 0 1-8.3 12.3s13 3 31.9-7.9c16.4-9.4 23.6-36.5 25.2-43.4a184 184 0 0 1 44.8 3.7 33.1 33.1 0 0 0-15.5 6.9c-13.6 10.7-19.2 24.3-24.6 32.4a74.6 74.6 0 0 1-12.1 14s25.7 3.4 44.9-8.8l2-1.5a58 58 0 0 0 24.5 9c18.8 2.8 41.2-14 46.7-18.4a205.7 205.7 0 0 1 34.8 32 33 33 0 0 0-18.4-5.5c-17.2 0-30 7.2-39.3 10.2a74 74 0 0 1-18.2 3.3s18 18.7 40.6 21c19.6 2 37.1-16.4 41.4-21.3 6.7 9.1 9.1 14.9 9.2 15ZM406 122c-11 .9-32 5.4-40.6 9l-.8.3a69.4 69.4 0 0 0 9-31c11 3.4 16.4 6.8 16.5 7l2.3.8c9 5 17.6 10.3 26.2 16.1A29.6 29.6 0 0 0 406 122ZM222.3 363.7c-7 1.4-15.1 4.3-22.7 16.2-3.3 5.2-5.6 8.5-7 10.5l-1 .4c-4.2 1.8-8.4 3.3-12.7 4.9a36.4 36.4 0 0 0 8.9-7c7.3-7.6 6.5-21 6.5-21a50.4 50.4 0 0 1-14.7 6.6c-8.3 2.1-16.1 4.5-23.1 13.8a52.8 52.8 0 0 0-8.4 18.8 216.6 216.6 0 0 0-21.6 10.3c6-4.8 12.8-11 14.4-15 2.8-7.5 4.7-30 4.7-30s-4.3 3.5-11 9.3S121 391 117 402.8a35.5 35.5 0 0 0-.4 20.2 143.2 143.2 0 0 0-25.4 19.6 50.1 50.1 0 0 1 4-5.7c2.7-2.9 9.5-7.2 11.5-15s.8-20.4.8-20.4l-10.5 9c-6.5 5.6-11.3 7.5-14.3 17.1-2.3 7.6 2 16.5 4 19.8a55 55 0 0 0-7.9 10.8l2.7 1.3a53.2 53.2 0 0 1 6.8-9.4c3.1 4 13.7 16.5 26.6 16.2 15.3-.3 28.5-12 28.5-12a50.6 50.6 0 0 1-12-3.2c-6.2-2.5-14.5-8-26-9a22.4 22.4 0 0 0-11.4 2 140.5 140.5 0 0 1 24.2-18.6c4 3.7 17.8 15.4 30.1 14.6 14.8-1 21-7.6 21-7.6a46.8 46.8 0 0 1-9.3-3.8c-5.6-2.9-19.5-7-27-8.3a18 18 0 0 0-6.7.3 215.2 215.2 0 0 1 22.1-10.8c1.3 2.8 4.4 8.7 8.5 12.5 5.5 5 14.2 8.4 21.8 6.6s13.4-3.7 13.4-3.7-1.2-.6-5.4-3.2-10.4-7-20.1-11.5a30.5 30.5 0 0 0-13-2.7c6.8-2.7 13.2-5 19.3-7a290 290 0 0 0 19.9-7.3l2-.9c8.6-1.5 26.6-5.1 37.7-11.3 15-8.2 18-25.1 18-25.1s-21.3 6-28.2 7.4Z"/><path d="m95.4 336.3 1.1-2c6-6.2 18.3-19.9 23.6-31.4 7-15.5-.5-30.9-.5-30.9s-13.4 17.4-18.2 22.7-9.6 12.4-8.6 26.4c.4 6.3.6 10.2.6 12.7l-.6 1c-2.3 3.8-4.7 7.6-7.3 11.4a36.2 36.2 0 0 0 3-11c1.3-10.4-7.3-20.8-7.3-20.8a50.5 50.5 0 0 1-7.8 14c-5.5 6.8-10.4 13.3-10.4 25a52.9 52.9 0 0 0 4.3 20 215.1 215.1 0 0 0-11.2 21.2c2-7.4 3.8-16.5 2.6-20.7-2.2-7.6-14-26.9-14-26.9s-1.4 5.4-3.2 14-5.4 16-1.5 27.7a35.5 35.5 0 0 0 11.6 16.5 142.8 142.8 0 0 0-8.8 30.8 49.3 49.3 0 0 1 0-7c.3-3.8 3.3-11.4.2-18.8s-11.5-16.9-11.5-16.9l-3.1 13.5c-2 8.5-4.6 12.8-1.2 22.2 2.7 7.5 11.3 12 14.8 13.6-.7 8.3 0 13 .2 13.3l3-.5a52.5 52.5 0 0 1-.2-11.7c4.9 1.5 20.8 5.3 31-2.6 12.2-9.5 15.8-26.7 15.8-26.7a50.6 50.6 0 0 1-11.6 4.6c-6.4 1.6-16.4 2-26.3 8.2a22.4 22.4 0 0 0-7.9 8.3 140.2 140.2 0 0 1 8.4-29.3c5.5.6 23.4 1.9 32.9-6.2 11.2-9.6 12.3-18.5 12.3-18.5a47.3 47.3 0 0 1-9.7 2.5c-6.3 1-20 5.9-26.6 9.3a18.5 18.5 0 0 0-5.3 4.4 214.6 214.6 0 0 1 11.4-22c2.6 1.5 8.6 4.5 14.2 5 7.4.9 16.4-1.6 21.5-7.5s8.6-11 8.6-11-1.3.3-6.3.7-12.6.6-23 2.7a30.5 30.5 0 0 0-12.1 5.5 403 403 0 0 1 11.4-17c4.2-6.1 8.1-11.8 11.7-17.8Z"/></g></svg>