<svg xmlns="http://www.w3.org/2000/svg" viewBox="0 0 500 500"><path fill="#ebebeb" d="M463.2 212H356.5s10.6-28.8 26.9-28.8 21.4 20 21.4 20 11-11 20-11 16.8 14.4 16.8 14.4 12.8-7.7 21.6 5.5ZM442 128.2h-49.8s11.1-16.1 20-16.1 11.3 10.7 11.3 10.7 6.2-5 12-4 6.6 9.4 6.6 9.4ZM133.1 143.1H36s13.3-29.7 27.5-31.6 21 22.1 21 22.1 9.2-8.4 16.4-8.4 12.8 11.1 12.8 11.1 14.5-7.6 19.4 6.8ZM203.5 67.1h-65.6s11.2-21.5 23.5-21.8S180 61.6 180 61.6s19-15.3 23.5 5.5ZM86 334.5s28.6 64-18.3 64S51 332.2 51 332.2 40.3 327.6 53 292s18.2-35.7 23.5-35.7c6.6 0 12.8 15.5 8.2 39.2 0 0 16.6 29.6 1.3 39.1Z"/><path fill="#a6a6a6" d="m63.5 440.8 4.5-96.3 4.6 96.3h-9.1z"/><path fill="#a6a6a6" d="M66.2 384.9 83.3 365l-13.4 22.6-3.7-2.7z"/><path fill="#dbdbdb" d="M407.9 341.3s-13.4-5.3-24 13.2c-11 19 2.7 31.5 13.6 24 0 0 8.5 17.9 25.5 13.6s19.8-17.8 19.8-17.8 15 1 15.5-10.2-10.6-21.3-10.6-21.3-.7-28-19-27.8-20.8 26.3-20.8 26.3Z"/><path fill="#a6a6a6" d="m420.3 440.8 3.9-83.5 3.8 83.5h-7.7z"/><path fill="#a6a6a6" d="m422.5 387.7-11.2-22.4 14.5 20.4-3.3 2z"/><path fill="#fff" d="M417.1 177.4v263.4H82.9V177.4l33-22.6v-50.9h-5.3V88.5h50.2v15.4h-5.2v23.7L250 62.9l167.1 114.5z"/><path fill="#d8b4a1" d="M417.1 177.4v263.4H82.9V177.4l33-22.6v-50.9h-5.3V88.5h50.2v15.4h-5.2v23.7L250 62.9l167.1 114.5z" opacity=".3"/><path fill="#fff" d="M82.9 176.4h334.3v2H82.9zM112.4 154.8l46.2-31.6 1 1.6-46 31.6zM115.9 103.9h39.8v2h-39.8zM250 156.6a29.6 29.6 0 1 1 29.6-29.6 29.6 29.6 0 0 1-29.6 29.6Zm0-57.2a27.6 27.6 0 1 0 27.6 27.6A27.6 27.6 0 0 0 250 99.4Z"/><path fill="#fff" d="M249 98.4h2v57.2h-2z"/><path fill="#fff" d="M221.4 126h57.2v2h-57.2zM386.6 410.7H367V402h19.6Zm-18.8-.7h18v-7.2h-18ZM397.1 420.8h-19.6V412h19.7Zm-18.8-.8h18.1v-7.2h-18.1ZM376.1 420.8h-19.6V412H376Zm-18.9-.8h18.2v-7.2h-18.2ZM133 420.8h-19.6V412H133Zm-18.9-.8h18.1v-7.2h-18ZM133 205.7h-19.6V197H133Zm-18.9-.8h18.2v-7.2H114ZM122.5 215.7h-19.7V207h19.7Zm-18.9-.7h18.1v-7.2h-18.1ZM397.1 205.7h-19.6V197h19.7Zm-18.8-.8h18.1v-7.2h-18.1ZM276.2 267.1h-19.6v-8.7h19.6Zm-18.9-.7h18.1v-7.2h-18ZM265.6 257H246v-8.7h19.6Zm-18.8-.7h18.1v-7.2h-18.1Z"/><path fill="#263238" d="m41.5 440.8 52.1-.2 52.1-.1 104.3-.2 104.3.2 52.1.1 52.2.2-52.2.2-52.1.1-104.3.2-104.3-.2-52.1-.1-52.1-.2z"/><path fill="#fff" d="M365.9 177.4h1v65.5h-1z"/><path fill="#d8b4a1" d="m339.8 268.6 2.2 4.7h48.9l2.1-4.7-20.8-14.4h-11.5l-20.9 14.4z"/><path d="m359.2 240.3 1.5 13.9h11.5l1.4-13.9h-14.4zM339.8 268.6l2.2 4.7h48.9l2.1-4.7h-53.2z" opacity=".1"/><path fill="#fff" d="M308.8 177.4h1v50.4h-1z"/><path fill="#d8b4a1" d="m282.7 253.5 2.2 4.7h48.9l2.1-4.7-20.8-14.5h-11.5l-20.9 14.5zM302.1 225.2l1.5 13.8h11.5l1.4-13.8h-14.4zM359.2 240.3l1.5 13.9h11.5l1.4-13.9h-14.4z"/><path d="m359.2 240.3 1.5 13.9h11.5l1.4-13.9h-14.4zM302.1 225.2l1.5 13.8h11.5l1.4-13.8h-14.4zM282.7 253.5l2.2 4.7h48.9l2.1-4.7h-53.2z" opacity=".1"/><path fill="#ad6359" d="M346.8 439.8c-3 1-86.7 1.5-89.9-.5-1.2-.7-2-13-2.5-27.7-.2-3.2-.3-6.4-.3-9.8l-10.7-44.6 56-.5 9.1 44.6-.2 9.8s32.2 14.2 35.5 16.7 5.9 11 3 12Z"/><path fill="#fff" d="M346.8 439.8c-3 1-86.7 1.5-89.9-.5-1.5-.9-2.3-18.7-2.8-37.5l54.4-.5-.2 9.8s32.2 14.1 35.5 16.7 5.9 11 3 12Z"/><path fill="#d8b4a1" d="M346.8 439.8c-3 1-86.7 1.5-89.9-.5-1.2-.7-2-13-2.5-27.7l54-.5s32.1 14.1 35.4 16.7 5.9 11 3 12Z"/><path fill="#263238" d="M345.5 436.4a2227 2227 0 0 0-84.5 1 2231.2 2231.2 0 0 0 84.5-1ZM338.4 424.8a11.3 11.3 0 0 0-8.4 3.5 10.9 10.9 0 0 0-3 7.5c0 .1 0 .1 0 0a13 13 0 0 1 11.4-10.8v-.2ZM313.8 412.5c-5.6 0-12.1 2-15.6 6.6-.1.2.1.4.3.3a78 78 0 0 1 15.4-6.2.3.3 0 0 0-.1-.7ZM318.1 414.1c-5.6 0-12 2-15.5 6.6-.2.2 0 .4.2.3a78 78 0 0 1 15.4-6.2.3.3 0 0 0 0-.7ZM322.5 415.8c-5.6 0-12.1 2-15.6 6.6-.1.2.1.4.3.3a77.2 77.2 0 0 1 15.4-6.2.3.3 0 0 0-.1-.7ZM326.8 417.5c-5.6 0-12 2-15.5 6.6-.2.2 0 .3.2.3a77.2 77.2 0 0 1 15.4-6.2.3.3 0 0 0 0-.7Z"/><path fill="#fff" d="M264.4 424c-6.2 0-6.2 9.9.1 9.8s6.3-10 0-9.8Z"/><path fill="#263238" d="M319.8 397.4c-2.9-2.3-6.5 0-8.2 2.5a29.5 29.5 0 0 0-5 14.4c0 .1 0 .2.2.2a.7.7 0 0 0 1 .4c4-2.8 8.6-5.3 11.6-9.2 1.7-2.3 3-6 .4-8.3Zm-6.9 12c-1.9 1.5-3.9 2.8-5.7 4.3 1-2.8 1.8-5.6 3-8.4a31.4 31.4 0 0 1 2-3.8c1.3-1.8 6.8-6.6 7.4-.5.3 3.4-4.4 6.7-6.6 8.4Z"/><path fill="#263238" d="M292.6 416.5c5 .7 10-.7 14.8-1.5a.7.7 0 0 0 .4-1 .1.1 0 0 0 0-.2 29.5 29.5 0 0 0-13.6-6.9c-3-.5-7.2.3-7.6 4-.4 3.4 3.2 5.2 6 5.6Zm-3.4-3.2c-3.8-4.8 3.4-5.2 5.6-4.7a31 31 0 0 1 4.1 1.3 84.5 84.5 0 0 1 8 3.8c-2.3.2-4.7.7-7 1-2.9.4-8.5 1.2-10.7-1.4Z"/><path fill="#455a64" d="M280.4 278.4c11.7 19.8 31.6 118.4 31.6 118.4l-61.6.6-18.3-68.3s-68.6 120.7-126.8 61l43.9-39.8s4.6.7 10-5c18.8-19.8 58-68.7 69.6-77.1 15-10.8 40.9-8 51.6 10.2Z"/><path fill="#263238" d="M225.3 302.1a55.6 55.6 0 0 0 1.4 6.7l1.6 7-.8-1.6c-.8-1.9-1.9-3.7-2.6-5.7a.1.1 0 0 0-.2 0c.7 2 1.2 4.2 2 6l1.3 2.8.8 1.4a7.7 7.7 0 0 0 .3.7l.9 3.2c.6 2.3 1.5 4.6 2.1 7l.2-.1-1.4-7c-.5-2.3-1-4.5-1.7-6.8l-1.9-6.7a57 57 0 0 0-1.9-6.9h-.1ZM306.5 386.3 296 386h-10.5c-7 0-14 0-21 .2-3.8 0-7.6.2-11.5.4v.3c7 .4 14 .3 21 .3l21-.2c3.8-.1 7.6-.1 11.5-.4v-.3Z"/><path fill="#ad6359" d="M416 276.4c1 2.9 1.4 86.6-.6 89.8-.8 1.2-13 2-27.7 2.5l-9.8.3c-21.7.5-44.8.6-44.8.6l-.4-56 44.8 1 9.8.2s14.2-32.1 16.7-35.4 11-6 12-3Z"/><path fill="#fff" d="M416 276.4c1 2.9 1.4 86.6-.6 89.8-1 1.5-18.7 2.3-37.5 2.8l-.4-54.5 9.8.2s14.2-32 16.7-35.4 11-5.9 12-3Z"/><path fill="#d8b4a1" d="M416 276.4c1 2.9 1.4 86.6-.6 89.8-.8 1.2-13 2-27.7 2.5l-.4-54s14.2-32.1 16.7-35.4 11-5.9 12-3Z"/><path fill="#263238" d="M412.7 277.6a2227.3 2227.3 0 0 0 .8 84.6 2231 2231 0 0 0-.8-84.6ZM401 284.7a11.3 11.3 0 0 0 3.5 8.4 11 11 0 0 0 7.6 3.1v-.1a13 13 0 0 1-10.9-11.4h-.1ZM388.7 309.3c0 5.6 2 12.1 6.6 15.6.1.1.3-.1.2-.3a77.1 77.1 0 0 1-6.1-15.4.3.3 0 0 0-.7 0ZM390.4 305c-.1 5.6 2 12.1 6.5 15.6.2.1.4-.1.3-.3a77.6 77.6 0 0 1-6.2-15.4.3.3 0 0 0-.6.1ZM392 300.6c0 5.6 2 12.1 6.6 15.6.1.1.3-.1.2-.3a77.1 77.1 0 0 1-6.1-15.4.3.3 0 0 0-.7.1ZM393.7 296.3c0 5.6 2 12 6.6 15.5.1.2.3 0 .2-.2a77.6 77.6 0 0 1-6.1-15.4.4.4 0 0 0-.7 0Z"/><path fill="#fff" d="M400 358.6c.1 6.4 10 6.3 9.9 0s-9.9-6.3-9.8 0Z"/><path fill="#263238" d="M373.7 303.3c-2.4 2.9 0 6.4 2.4 8.2a29.5 29.5 0 0 0 14.4 5 .1.1 0 0 0 .1-.2.7.7 0 0 0 .5-1c-2.8-4-5.3-8.6-9.2-11.6-2.3-1.8-6-3.1-8.2-.4Zm12 6.8c1.4 2 2.7 4 4.2 5.8a89 89 0 0 1-8.4-3.1 32.3 32.3 0 0 1-3.8-2c-1.8-1.2-6.5-6.7-.4-7.3 3.3-.4 6.6 4.3 8.3 6.6Z"/><path fill="#263238" d="M392.6 330.4c.8-4.8-.7-9.9-1.4-14.7a.7.7 0 0 0-1-.4.1.1 0 0 0-.3 0 29.4 29.4 0 0 0-6.8 13.6c-.6 3 .2 7.1 4 7.6 3.4.4 5.1-3.2 5.5-6Zm-3.2 3.5c-4.7 3.8-5.2-3.5-4.7-5.6a31 31 0 0 1 1.3-4.1 87.1 87.1 0 0 1 3.9-8c.2 2.3.6 4.7 1 7 .3 2.9 1.2 8.5-1.4 10.7Z"/><path fill="#455a64" d="m369.3 311.9-.7 65.3s-136.6-4-139.8-1.5c-13 10.1-42 51.8-77.7 62.2-14.8 4.3-35.6 6-48.7-11a50.3 50.3 0 0 1-10.8-29.2l17-11.3s87.7-71.7 113.2-74.7c23.8-2.8 147.5.2 147.5.2Z"/><path fill="#263238" d="m123 375.1-7 5.2c-2.3 1.7-4.6 3.3-6.8 5.2s-4.2 3.8-6.3 5.9l-3 3a27.9 27.9 0 0 0-2.7 3.1c-.1.1 0 .2.1.2a32.9 32.9 0 0 0 3.2-2.7l3.2-2.8 6.4-5.5 6-5.7 6.9-5.8ZM359.2 316.4c-.4 3.4-.5 7-.7 10.4l-.6 10.5-.8 21c-.2 3.8-.3 7.6-.2 11.5h.3c.8-7 1-14 1.3-21l.8-21c.1-3.7.3-7.6.2-11.4 0-.2-.3-.2-.3 0ZM282.6 310a400.8 400.8 0 0 0-57.5.6 39.6 39.6 0 0 0-13.1 3.2 117.4 117.4 0 0 0-11.9 6.7q-12 7.3-23.7 15l-11.5 8-5.7 4.2c-1.9 1.4-3.7 2.6-5.4 4L151 354c-.1 0 0 .2 0 .1 7.8-5 15.4-10.3 23-15.4s15.6-10 23.5-14.9c4-2.4 7.8-4.8 11.8-7a38.3 38.3 0 0 1 6-2.8 33.8 33.8 0 0 1 6.7-1.4c4.6-.6 9.4-.9 14-1.1l14.5-.5 31.7-.5c.7 0 .8-.4.3-.4ZM351.8 369c-20-1.2-40-1.5-60.1-1.7s-40.1-.1-60.1.3c-2.2 0-4.5-.1-6.5.6a12.1 12.1 0 0 0-4.2 3.2l-9.5 9.9q-10 10-20.8 19.1c-13.2 11.2-27.8 22.8-45.3 25.5-8 1.2-16.6.5-24-2.9a45.4 45.4 0 0 1-18.1-17l-3.5-5.3a.1.1 0 0 0-.2.2c4.2 7 8.6 14.4 15.3 19.5a37.7 37.7 0 0 0 21.8 7.2c17.4.4 32.8-8.9 46-19.3 7.2-5.7 14.2-11.8 21-18.2l10.2-10 5-5.2a47 47 0 0 1 4.4-4.5c2-1.7 4.3-2 6.9-2l7.5-.1 15.4-.2h30.4q30.5.2 60.9.8l7.5.1Z"/><path fill="#263238" d="M307.4 375.5a2007 2007 0 0 0-51.4-1.1c-3.8 0-7.7.1-11.5.4-.2 0-.1.3 0 .3 7 .4 59.1 1 63 .7v-.3ZM96.3 335.5a49.3 49.3 0 0 0 9.9 5.5 50.1 50.1 0 0 1-5-25.6c3.6 13.4 12.8 27.8 16 28.3h.1a37.3 37.3 0 0 0 22.9-6 55.8 55.8 0 0 1-7.3-28.5c5.5 13 16 20.1 17.7 20 6.3-6.5 9.4-12.8 8.5-13.4-7-4.3-13.3-15.9-19-28.1-5.7-12.1-8.9-23.7-16.6-34.4-7-9.8-20.3-11-27.5-5.6-19 14.4-4 84.7.3 87.8Z"/><path fill="#263238" d="M97.3 246.8a13.2 13.2 0 0 0-4.2 3.8 32.2 32.2 0 0 0-3 4.8 54 54 0 0 0-3.7 10.7 84.7 84.7 0 0 0-2 22.5 134 134 0 0 0 2.9 22.4l1.2 5.5L90 322l1.6 5.4 1.9 5.3-1.5-5.4-1.4-5.5-1.2-5.4-1.2-5.6a145.1 145.1 0 0 1-2.5-22.2 89.5 89.5 0 0 1 1.7-22.3 55 55 0 0 1 3.3-10.7 31.4 31.4 0 0 1 2.7-4.8 18.3 18.3 0 0 1 1.8-2.2 9.2 9.2 0 0 1 2.1-1.8ZM159.8 313.7a96.8 96.8 0 0 1-6.1-7.6 121.9 121.9 0 0 1-10.3-16.5l-4.2-8.8c-2.9-5.8-5.8-11.7-9-17.4a113 113 0 0 0-5.2-8.3 41.9 41.9 0 0 0-3-3.8 12 12 0 0 0-3.7-3.1 12.9 12.9 0 0 1 3.5 3.3 44.3 44.3 0 0 1 2.7 4c1.8 2.7 3.4 5.5 4.9 8.4 3 5.8 5.9 11.6 8.7 17.5l4.3 8.8a86.4 86.4 0 0 0 5 8.4 93.9 93.9 0 0 0 12.4 15Z"/><path fill="#ad6359" d="M117.4 314.3c13.6-5.1 50.4-25 59.6-42.8 5-9.9 20.7-55.5 21.5-65.2 1-11.3-40.4-5-41 1.6-1.7 18-7.2 46.4-11.6 55-2 3.9-20.3 21.4-37.6 41.8-6.5 7.8.4 12.8 9.1 9.6Z"/><path fill="#ad6359" d="M198.3 208.2c1.8-10.1-5.4-28.4-9.6-30-2.9-1-18-.7-25-.5s-8.2 2.2-8 4.6 14.8 2.4 14.8 2.4-19.7-5-24.6-5.7-16.4-3.3-18 .8c-.6 2 2.6 3.7 2.6 3.7s-4.8-1.3-5.5 1.1c-.8 2.7 3 4.1 3 4.1s-3-.5-3 1.7c0 4.9 18.7 6.7 18.7 6.7s-14.5-6.5-14.8-2.5c-.4 5.6 23.6 9.3 26.7 11.7a20.5 20.5 0 0 1 5 5.8Z"/><path fill="#263238" d="M155.7 181a2.1 2.1 0 0 0 .8 2 6 6 0 0 0 1.7 1 23.8 23.8 0 0 0 4 1.2l8.4 1.6a34.5 34.5 0 0 1-8.6-.7 15.8 15.8 0 0 1-4.2-1.4 5.4 5.4 0 0 1-1.7-1.4 2.3 2.3 0 0 1-.4-2.2ZM130.4 183.4l6 1.5 6 1.6 6 1.6 6 1.7a45.6 45.6 0 0 1-6.1-1 87 87 0 0 1-12-3.2c-1.8-.7-4-1.3-5.9-2.2ZM149.8 194.8a37 37 0 0 1-5.7-.6 53.3 53.3 0 0 1-5.5-1.3 51.1 51.1 0 0 1-5.4-1.8 40.3 40.3 0 0 1-5.2-2.4l5.4 1.7 5.4 1.6 5.5 1.5 5.5 1.3ZM147 199.5a38 38 0 0 1-17.4-5.3c3 1 5.8 2 8.7 2.8l8.8 2.5Z"/><path fill="#d8b4a1" d="m153.3 220.5 44.8 1.2s-12.5 45.7-23.8 57.6-37 29.3-53 34.4-22.8.3-10-14.4 32.2-34 33.7-36.7 8.3-42 8.3-42Z"/><path fill="#d8b4a1" d="M198 221.7s-12.4 45.7-23.7 57.6-37 29.3-53 34.4c-15.6 5-22.4.5-11-13.3l.3-.4.7-.7c12.7-14.7 32.2-34 33.7-36.7s8.2-42 8.2-42Z"/><path fill="#fff" d="M172 269.7a3 3 0 0 1 1.6-.1 1.5 1.5 0 0 1 1 1.4 1.2 1.2 0 0 0 1 1.1l.8.2a2.7 2.7 0 0 1-1.5 0 1.5 1.5 0 0 1-.9-1.3 1.1 1.1 0 0 0-.6-1 1.4 1.4 0 0 0-.6-.2 6.3 6.3 0 0 1-.8-.1Zm14-36a1.5 1.5 0 0 1 .7.2 1.2 1.2 0 0 1 .5 1 1.5 1.5 0 0 0 1 1.3 2.6 2.6 0 0 0 1.5 0l-.8-.2a1.2 1.2 0 0 1-.6-.2 1.2 1.2 0 0 1-.5-1 1.5 1.5 0 0 0-1-1.3 3 3 0 0 0-1.5 0 6.4 6.4 0 0 0 .8.1ZM162.5 250a1.3 1.3 0 0 1 .6.2 1.1 1.1 0 0 1 .6 1 1.5 1.5 0 0 0 .9 1.4 2.6 2.6 0 0 0 1.5 0 6.7 6.7 0 0 0-.7-.2 1.3 1.3 0 0 1-.6-.2 1.2 1.2 0 0 1-.5-1 1.5 1.5 0 0 0-1-1.4 2.9 2.9 0 0 0-1.6.1h.8Zm13.8-26.9a1.5 1.5 0 0 1 .6.2 1.1 1.1 0 0 1 .6 1 1.5 1.5 0 0 0 1 1.4 2.7 2.7 0 0 0 1.4 0l-.7-.2a1.2 1.2 0 0 1-1.1-1.2 1.5 1.5 0 0 0-1-1.4 2.9 2.9 0 0 0-1.5.1 5.9 5.9 0 0 0 .8 0Zm-21.7 2.2a1.4 1.4 0 0 1 .6.1 1.2 1.2 0 0 1 .6 1 1.5 1.5 0 0 0 .9 1.4 2.7 2.7 0 0 0 1.5 0l-.7-.2a1.2 1.2 0 0 1-.6-.2 1.1 1.1 0 0 1-.6-1 1.5 1.5 0 0 0-1-1.3 3 3 0 0 0-1.5 0 6.7 6.7 0 0 0 .8.1Zm-43 75a1.2 1.2 0 0 1-.6-.1 1 1 0 0 1-.3-.2l-.3.4a1.4 1.4 0 0 0 .4.2 2.7 2.7 0 0 0 1.5 0c-.2-.2-.4-.2-.7-.3Zm37.4-27a1.2 1.2 0 0 1 .7.3 1.1 1.1 0 0 1 .5 1 1.5 1.5 0 0 0 1 1.3 2.7 2.7 0 0 0 1.5 0l-.8-.2a1.2 1.2 0 0 1-1.1-1.2 1.5 1.5 0 0 0-1-1.3 2.8 2.8 0 0 0-1.5 0l.8.1Zm-11.4 24.8a1.2 1.2 0 0 1 .6.1 1.1 1.1 0 0 1 .6 1 1.5 1.5 0 0 0 .9 1.4 2.7 2.7 0 0 0 1.5 0l-.7-.2a1.2 1.2 0 0 1-1.1-1.2 1.5 1.5 0 0 0-1-1.3 2.8 2.8 0 0 0-1.6 0l.9.1Zm-27 14a1.2 1.2 0 0 1-.6.3 1.2 1.2 0 0 1-1-.3 1.5 1.5 0 0 0-1.6-.3c-.6.2-.8.7-1 1l.6-.3a1.2 1.2 0 0 1 1.6 0 1.5 1.5 0 0 0 1.6.3 2.9 2.9 0 0 0 1-1.2l-.5.4Zm53.5-46.4a1.2 1.2 0 0 1-.5.3 1.2 1.2 0 0 1-1.1-.3 1.5 1.5 0 0 0-1.6-.3c-.6.2-.8.7-1 1.1l.5-.4a1.3 1.3 0 0 1 .6-.3 1.2 1.2 0 0 1 1 .3 1.5 1.5 0 0 0 1.7.3 3 3 0 0 0 1-1.1l-.5.3Zm-9-21.5a1.4 1.4 0 0 1-.6.3 1.1 1.1 0 0 1-1-.2 1.5 1.5 0 0 0-1.7-.4 2.6 2.6 0 0 0-1 1.2l.6-.5a1.2 1.2 0 0 1 1.7 0 1.5 1.5 0 0 0 1.6.3c.6-.3.7-.7 1-1.1l-.5.3Zm23.2-.6a1.3 1.3 0 0 1-.6.3 1.1 1.1 0 0 1-1-.3 1.5 1.5 0 0 0-1.7-.3c-.6.2-.8.7-1 1.1l.6-.4a1.2 1.2 0 0 1 1.7 0 1.5 1.5 0 0 0 1.6.3c.5-.3.7-.8 1-1.2l-.6.4Zm-25.6 47.8a1.4 1.4 0 0 1-.6.3 1.2 1.2 0 0 1-1-.3 1.5 1.5 0 0 0-1.7-.3 2.6 2.6 0 0 0-1 1.1l.6-.4a1.2 1.2 0 0 1 .6-.3 1.2 1.2 0 0 1 1 .3 1.5 1.5 0 0 0 1.7.3 3 3 0 0 0 1-1.1l-.6.4Zm-29 11.8a1.2 1.2 0 0 1-.2.6 1.1 1.1 0 0 1-1 .6 1.5 1.5 0 0 0-1.4.9 2.6 2.6 0 0 0 0 1.5c.2-.2.2-.5.2-.7a1.3 1.3 0 0 1 .2-.6 1.2 1.2 0 0 1 1-.6 1.4 1.4 0 0 0 1.4-1 2.8 2.8 0 0 0-.1-1.5l-.1.8Zm27.3-44.8a1.5 1.5 0 0 1-.2.7 1.2 1.2 0 0 1-1 .5 1.5 1.5 0 0 0-1.3 1 2.7 2.7 0 0 0 0 1.5l.2-.8a1.2 1.2 0 0 1 .2-.6 1.2 1.2 0 0 1 1-.5 1.5 1.5 0 0 0 1.3-1 3 3 0 0 0 0-1.6 6.4 6.4 0 0 0-.2.8Zm12.2 21.3a1.2 1.2 0 0 1-.2.7 1.1 1.1 0 0 1-1 .5 1.5 1.5 0 0 0-1.3 1 2.5 2.5 0 0 0 0 1.5l.2-.8a1.2 1.2 0 0 1 1.1-1 1.4 1.4 0 0 0 1.4-1 2.8 2.8 0 0 0 0-1.6l-.2.8Zm5.6-46.5a1.2 1.2 0 0 1-.2.7 1.2 1.2 0 0 1-1 .5 1.5 1.5 0 0 0-1.3 1 2.6 2.6 0 0 0 0 1.5l.2-.8a1.2 1.2 0 0 1 1.1-1 1.5 1.5 0 0 0 1.4-1 2.8 2.8 0 0 0 0-1.6l-.2.8ZM140.2 282a1.3 1.3 0 0 1-.2.6 1.1 1.1 0 0 1-1 .6 1.5 1.5 0 0 0-1.4.9 2.6 2.6 0 0 0 0 1.5 6.3 6.3 0 0 0 .2-.7 1.3 1.3 0 0 1 .2-.6 1.2 1.2 0 0 1 1-.5 1.5 1.5 0 0 0 1.3-1 3 3 0 0 0 0-1.6l-.1.8Zm42.3-27.2a1.2 1.2 0 0 1-.2.6 1.1 1.1 0 0 1-1 .5 1.5 1.5 0 0 0-1.3 1 2.6 2.6 0 0 0 0 1.5l.2-.7a1.3 1.3 0 0 1 .1-.6 1.2 1.2 0 0 1 1-.6 1.5 1.5 0 0 0 1.4-1 2.8 2.8 0 0 0 0-1.5l-.2.8Zm-57 38.2a1.2 1.2 0 0 1 .6-.3 1.2 1.2 0 0 1 1 .3 1.5 1.5 0 0 0 1.7.3c.5-.2.7-.7 1-1.1l-.6.4a1.3 1.3 0 0 1-.6.3 1.2 1.2 0 0 1-1-.3 1.5 1.5 0 0 0-1.7-.3 2.9 2.9 0 0 0-1 1.1c.2 0 .4-.2.6-.4Z"/><path fill="#263238" d="M155.7 228.6c-.1 0-.2.1 0 .2 3 .3 6 .4 9 .5l9.3.4c6.2.1 12.5.4 18.7.2.2 0 .2-.4 0-.4-6.2-.5-12.4-.6-18.5-.8l-9.2-.2c-3.1 0-6.2-.2-9.3 0Z"/><path d="M140.8 304.5a103.6 103.6 0 0 1-19.5 9.2c-14.4 4.6-21.4 1.1-13-10.5Z" opacity=".1"/><path fill="#d8b4a1" d="M89.5 398.6c2.8.1 64.3-46.9 64.3-46.9L143 336.4s2-9-2-16.2c-5.3-9.5-28.8-21.3-30.5-21.8-7-2.4-12.7-.8-16.9 3.1-17.6 16.5-4 97-4 97Z"/><path fill="#fff" d="M120.2 319.9a2.8 2.8 0 0 1 1.6-.1 1.5 1.5 0 0 1 1 1.4 1.2 1.2 0 0 0 1.1 1.2h.7a2.7 2.7 0 0 1-1.5.2 1.5 1.5 0 0 1-.9-1.4 1.1 1.1 0 0 0-.6-1 1.2 1.2 0 0 0-.6-.2l-.8-.1Zm-11.6-21.1a1.3 1.3 0 0 1 .7.1 1.2 1.2 0 0 1 .5 1 1.5 1.5 0 0 0 1 1.4 2.6 2.6 0 0 0 1.5 0 6.3 6.3 0 0 0-.8-.2 1.3 1.3 0 0 1-.6-.2 1.1 1.1 0 0 1-.5-1 1.5 1.5 0 0 0-1-1.3 3 3 0 0 0-1.5 0l.7.2Zm-6.7 41.4a1.3 1.3 0 0 1 .6.2 1.1 1.1 0 0 1 .5 1 1.5 1.5 0 0 0 1 1.4 2.6 2.6 0 0 0 1.5-.1 6.3 6.3 0 0 0-.7-.1 1.3 1.3 0 0 1-.7-.2 1.1 1.1 0 0 1-.5-1 1.5 1.5 0 0 0-1-1.4 3 3 0 0 0-1.5 0l.8.2Zm14.6 20.4a1.5 1.5 0 0 1 .6.2 1.2 1.2 0 0 1 .6 1 1.5 1.5 0 0 0 .9 1.4 2.7 2.7 0 0 0 1.5 0l-.7-.2a1.2 1.2 0 0 1-1.2-1.2 1.5 1.5 0 0 0-1-1.4 2.9 2.9 0 0 0-1.5.1 5.9 5.9 0 0 0 .8.1ZM90.2 365a1.2 1.2 0 0 1 .7.2 1.1 1.1 0 0 1 .5 1 1.5 1.5 0 0 0 1 1.4 2.6 2.6 0 0 0 1.5-.1l-.8-.1A1.2 1.2 0 0 1 92 366a1.5 1.5 0 0 0-1-1.4 2.8 2.8 0 0 0-1.5.1l.7.2Zm0 28.9a1.3 1.3 0 0 1-.6-.2 1.2 1.2 0 0 1-.5-1 1.4 1.4 0 0 0-.7-1.2l.3 2a1.4 1.4 0 0 0 .7.6 2.6 2.6 0 0 0 1.6-.1l-.7-.1Zm38.3-53a1.4 1.4 0 0 1 .6.1 1.2 1.2 0 0 1 .6 1 1.5 1.5 0 0 0 .9 1.4 2.7 2.7 0 0 0 1.5 0l-.7-.2a1.2 1.2 0 0 1-1.1-1.2 1.5 1.5 0 0 0-1-1.4 3 3 0 0 0-1.6.1 6.3 6.3 0 0 0 .8 0Zm-38.3-24.3a1.3 1.3 0 0 1 .6.1 1.1 1.1 0 0 1 .6 1 1.5 1.5 0 0 0 .9 1.4 2.7 2.7 0 0 0 1.5 0 6.7 6.7 0 0 0-.7-.2 1.2 1.2 0 0 1-1.1-1.3 1.5 1.5 0 0 0-1-1.3 3 3 0 0 0-1.5 0 6.3 6.3 0 0 0 .7.2Zm20.4-4.5a1.2 1.2 0 0 1-.6.3 1.2 1.2 0 0 1-1-.2 1.5 1.5 0 0 0-1.7-.4c-.6.3-.8.8-1 1.1.2 0 .4-.2.6-.4a1.2 1.2 0 0 1 1.7 0 1.5 1.5 0 0 0 1.6.3 2.9 2.9 0 0 0 1-1.1c-.2 0-.4.2-.6.4Zm35 28h-.2c-.5.3-.8.8-1 1.2l.6-.4a1.1 1.1 0 0 1 .6-.3 1.3 1.3 0 0 1 .3 0ZM122 304.5a1.4 1.4 0 0 0-1 .9 2.6 2.6 0 0 0 0 1.5l.2-.7a1.3 1.3 0 0 1 .2-.6 1.2 1.2 0 0 1 1-.5 1.3 1.3 0 0 0 .4 0Zm-3.7 42.3a1.2 1.2 0 0 1-.2.6 1.1 1.1 0 0 1-1 .5 1.5 1.5 0 0 0-1.4 1 2.7 2.7 0 0 0 0 1.5l.2-.7a1.2 1.2 0 0 1 1.2-1.2 1.4 1.4 0 0 0 1.4-1 2.8 2.8 0 0 0-.1-1.5l-.1.7Zm-30.5 29.8-.1.8a1.2 1.2 0 0 1-.2.6 1.2 1.2 0 0 1-.8.5l.1.6a1.4 1.4 0 0 0 1.1-1 2.8 2.8 0 0 0 0-1.5Zm6.2-29a1.2 1.2 0 0 1-.1.7 1.1 1.1 0 0 1-1 .5 1.5 1.5 0 0 0-1.4 1 2.7 2.7 0 0 0 0 1.5l.2-.8a1.2 1.2 0 0 1 1.2-1 1.5 1.5 0 0 0 1.4-1 2.8 2.8 0 0 0-.1-1.6l-.1.8Zm4-44.9a1.3 1.3 0 0 1-.2.6 1.2 1.2 0 0 1-1 .6 1.5 1.5 0 0 0-1.4 1 2.5 2.5 0 0 0 0 1.4l.2-.7a1.2 1.2 0 0 1 1.3-1.1 1.5 1.5 0 0 0 1.4-1 2.9 2.9 0 0 0-.1-1.5l-.2.7Zm7.6 20.1a1.3 1.3 0 0 1-.2.7 1.2 1.2 0 0 1-1 .5 1.5 1.5 0 0 0-1.3 1 2.6 2.6 0 0 0 0 1.5 5.9 5.9 0 0 0 .2-.8 1.2 1.2 0 0 1 1.1-1.1 1.5 1.5 0 0 0 1.4-1 2.9 2.9 0 0 0 0-1.5l-.2.8Zm33.8 5.2a1.3 1.3 0 0 1-.1.6 1.1 1.1 0 0 1-1 .6 1.5 1.5 0 0 0-1.4 1 2.6 2.6 0 0 0 0 1.5 6.3 6.3 0 0 0 .2-.8 1.3 1.3 0 0 1 .2-.6 1.2 1.2 0 0 1 1-.5 1.5 1.5 0 0 0 1.3-1 3 3 0 0 0 0-1.5l-.2.8Zm-31.2 43.4a1.3 1.3 0 0 1-.2.6 1.2 1.2 0 0 1-1 .6 1.5 1.5 0 0 0-1.4 1 2.6 2.6 0 0 0 0 1.4l.2-.7a1.2 1.2 0 0 1 .2-.6 1.2 1.2 0 0 1 1-.5 1.5 1.5 0 0 0 1.3-1 3 3 0 0 0 0-1.5l-.1.7Zm41.1-18.5a1.2 1.2 0 0 1-.1.6 1.2 1.2 0 0 1-1 .6 1.5 1.5 0 0 0-1.4.9 2.5 2.5 0 0 0 0 1.5l.2-.7a1.2 1.2 0 0 1 1.2-1.2 1.4 1.4 0 0 0 1.3-1 2.8 2.8 0 0 0 0-1.5l-.2.8ZM134 312.7a5.4 5.4 0 0 0-.6.8l.7-.4a2.3 2.3 0 0 1 .2-.2Zm-19.2 19.8a1.4 1.4 0 0 1 .5-.3 1.1 1.1 0 0 1 1.1.3 1.5 1.5 0 0 0 1.6.3 2.6 2.6 0 0 0 1-1.1l-.6.4a1.3 1.3 0 0 1-.6.3 1.2 1.2 0 0 1-1-.3 1.5 1.5 0 0 0-1.7-.3c-.5.3-.7.7-1 1.1l.7-.4Zm-13.4 26.3a1.1 1.1 0 0 1 .6-.3 1.2 1.2 0 0 1 1 .3 1.5 1.5 0 0 0 1.7.3c.5-.2.7-.7 1-1.1l-.6.4a1.2 1.2 0 0 1-.6.3 1.2 1.2 0 0 1-1-.3 1.5 1.5 0 0 0-1.7-.3 3 3 0 0 0-1 1.1c.2 0 .4-.2.6-.4Zm31.6-2.7a1.4 1.4 0 0 1 .6-.3 1.1 1.1 0 0 1 1 .3 1.5 1.5 0 0 0 1.7.3c.5-.2.7-.7 1-1.1l-.7.4a1.2 1.2 0 0 1-.5.3 1.2 1.2 0 0 1-1.1-.3 1.5 1.5 0 0 0-1.6-.3c-.6.3-.8.7-1 1.1.2 0 .4-.3.6-.4Zm-10.1 18.7a1.5 1.5 0 0 0-1.6-.2 3 3 0 0 0-1 1l.6-.3a1.4 1.4 0 0 1 .6-.3 1.1 1.1 0 0 1 1 .3l.5-.4Zm-26.8 7.7a1.2 1.2 0 0 1 .5-.3 1.2 1.2 0 0 1 1.1.3 1.5 1.5 0 0 0 1.6.3c.6-.2.8-.7 1-1.1l-.6.4a1.1 1.1 0 0 1-.6.3 1.1 1.1 0 0 1-1-.3 1.5 1.5 0 0 0-1.7-.3 3 3 0 0 0-1 1.1l.7-.4Zm-5-49.4a1.4 1.4 0 0 1 .6-.3 1.2 1.2 0 0 1 1 .3 1.5 1.5 0 0 0 1.7.3c.6-.2.8-.7 1-1.1l-.6.4a1.3 1.3 0 0 1-.6.3 1.2 1.2 0 0 1-1-.3 1.5 1.5 0 0 0-1.7-.3c-.5.3-.7.7-1 1.1.3 0 .4-.2.6-.4Z"/><path fill="#ad6359" d="M100.4 299.8c.4 1.3 7.1 9.6 13.2 9 2-.2 1.4-11 1.4-11l.2-.8 2-11.3-15.6-8.9s-1.4 22.4-1.2 23Z"/><path fill="#263238" d="m117.1 285.6-2 11.4a23.1 23.1 0 0 1-14-12.6l.5-7.6 2 1Z"/><path fill="#ad6359" d="M129.8 262.8c7.9 18.6-2.4 25.4-6.4 27.1-3.6 1.6-16.2 6.4-26-11.3s-3.7-27.2 4.5-31.2 20-3.2 27.8 15.4Z"/><path fill="#263238" d="M97.7 279.7a8.4 8.4 0 0 0 2.8-7.8 21.7 21.7 0 0 0 6.8-9.2l-.3 5.3c11.8-5.6 13.2-16.1 13.2-16.1a22.1 22.1 0 0 1 7.5 6.4s-2-7.6-7.2-11.7a12.8 12.8 0 0 0-12.7-2.1 18.2 18.2 0 0 0-15.8 9.7c-5.8 11 5.7 25.5 5.7 25.5Z"/><path fill="#263238" d="M115.9 263.4a23.4 23.4 0 0 1-5.8 4 20.2 20.2 0 0 0 7.7-7.9 19.2 19.2 0 0 0 1.7-4.4 13.2 13.2 0 0 0 .4-5.2.1.1 0 0 1 .2 0 15.7 15.7 0 0 1 .3 5.1 14.1 14.1 0 0 1-1.7 4.9 16.4 16.4 0 0 1-2.8 3.6"/><path fill="#ad6359" d="M101 278.8s-6.2-4.6-8.5-2.3 3.8 10 7.4 10.2a3.4 3.4 0 0 0 3.8-3.1Z"/><path fill="#263238" d="M94.3 278.7c2.6.3 4.4 2 6 3.8a1.9 1.9 0 0 0-3 .4s0 .2.2.1a2.1 2.1 0 0 1 2.4 0 10.2 10.2 0 0 1 1.7 1.5c.1.1.5 0 .3-.3-.9-3-4.4-6.2-7.6-5.5ZM124 259.6l-1.3.2a2.3 2.3 0 0 1-1.5 0 .7.7 0 0 1-.3-.8 1.8 1.8 0 0 1 1.4-1 2.6 2.6 0 0 1 2 .2.8.8 0 0 1-.2 1.4ZM113 266.6a13 13 0 0 0 1-.8c.5-.3.9-.5 1-1a.7.7 0 0 0-.3-.8 1.8 1.8 0 0 0-1.8.3 2.6 2.6 0 0 0-1.1 1.5.8.8 0 0 0 1.1.8ZM117.4 269v.1c.6 1.3 1.1 2.8.2 3.7v.1c1.3-.8.6-2.8-.2-3.9Z"/><path fill="#263238" d="M115.7 268.2c-2 .8-.4 4.9 1.5 4.2s.3-4.8-1.5-4.2Z"/><path fill="#263238" d="M115 268.8c-.3.3-.5.9-.9 1.1a1.7 1.7 0 0 1-1.5-.3c.3.9 1 1.6 1.9 1.3s1-1.1.9-2c0-.1-.3-.3-.4-.1ZM124 266c0-.1.1 0 .1 0 .5 1.3 1.3 2.7 2.6 2.7-1.4.4-2.4-1.5-2.7-2.8Z"/><path fill="#263238" d="M124.6 264.1c2-1 3.8 3.1 2 4s-3.6-3.1-2-4Z"/><path fill="#263238" d="M125.6 264c.4 0 .9.3 1.3.2s.6-.8.7-1.3c.4.7.5 1.7-.1 2.1s-1.5 0-2-.6v-.4ZM120.4 280a2 2 0 0 0 1.3.4 3.6 3.6 0 0 0 1.3-.8 1.9 1.9 0 0 1-1.3 1.2 1.5 1.5 0 0 1-1.5-.7l.2-.1ZM124.6 272.4l1.4 2.7a20 20 0 0 0-4.8 3c-.4.2-.5 0-.2-.5a8.2 8.2 0 0 1 4-3c0-.2-1.8-2.7-1.6-2.7a8.1 8.1 0 0 1 2.2-.4c-2.1-3.8-4.8-7.2-6.9-11a.1.1 0 0 1 .2-.2c3.1 3.4 5.6 7.7 8 11.5.2.5-1.9.6-2.3.6Z"/><path fill="#263238" d="M124 276s-.5 2.2-1.7 3c-1.5.8-2.2-.5-.9-2a5 5 0 0 1 2.6-1Z"/><path fill="#ff99ba" d="M122.3 279a3.4 3.4 0 0 0 1.2-1.5c-.6-.3-1.5-.5-2.8 1 0 .7.6 1 1.6.5Z"/><path fill="#ad6359" d="M88 317.8c-7.5 37-5.5 96.7 4.8 102.7 12.8 7.6 46.6 15.7 64.3 17 5.4.4 16.7-33.4 9.4-36.2a2093 2093 0 0 0-49-16.8c-1.4-.2-8.3-37-11-59.6-3-25.2-15-23.7-18.4-7Z"/><path fill="#ad6359" d="M157.4 402.1s13.7-1.3 22.8-1.8c5-.2 13.7.1 17.5 1.6 5.7 2.3 28 15.4 25 20.9-2.8 5-20.6-8.8-20.6-8.8s19.1 12.3 14.7 17.6-22.4-12.8-22.4-12.8 19.4 13 14 17.9c-4.2 3.6-21.4-12-21.4-12s16.6 11.4 12.5 15.3c-4.5 4.3-21.3-9-21.3-9-12 8.2-21 7.2-27.4 5.7-1.6-.4 6.6-34.6 6.6-34.6Z"/><path fill="#263238" d="M195.8 409.4a90.5 90.5 0 0 1 13 9.2 46 46 0 0 1 7.3 7.5c-4.1-4.6-11.8-10.3-14-11.9l-6.3-4.7c-.1 0 0-.1 0-.1ZM190 417.1c3 1.9 5.8 3.6 8.6 5.6s5.2 4 7.8 6.2c.2.2 0 .3-.1.1-2.7-2-5.4-3.7-8.1-5.8a172 172 0 0 0-8.1-6ZM184 422.9a74.9 74.9 0 0 1 12.3 9.5c.2.2 0 .2-.2 0-4-3.2-7.2-5.8-12.3-9.4 0 0 0-.2.1-.1Z"/><path fill="#d8b4a1" d="M87.7 315.7c-4.6 16.4-7.8 97.7 2 104.7s53 20.4 53 20.4l19.2-43.2s-42-13.1-43.1-14.6-8.5-48.1-12.1-64-14.2-20.7-19-3.3Z"/><path fill="#fff" d="M110 387.7a3 3 0 0 1 1.6 0 1.5 1.5 0 0 1 1 1.3 1.1 1.1 0 0 0 .5 1 1.2 1.2 0 0 0 .6.2l.8.1a2.7 2.7 0 0 1-1.6 0 1.5 1.5 0 0 1-.9-1.3 1.2 1.2 0 0 0-.6-1 1.4 1.4 0 0 0-.6-.2 6.7 6.7 0 0 1-.7 0Zm-13.5 27.6a1.3 1.3 0 0 1 .6.1 1.1 1.1 0 0 1 .6 1 1.5 1.5 0 0 0 .9 1.4 2.6 2.6 0 0 0 1.5 0l-.7-.1a1.2 1.2 0 0 1-1.2-1.2 1.5 1.5 0 0 0-1-1.4 2.9 2.9 0 0 0-1.5.1h.8Zm28-3.4a1.3 1.3 0 0 1 .6.2 1.1 1.1 0 0 1 .6 1 1.5 1.5 0 0 0 .9 1.4 2.6 2.6 0 0 0 1.5 0 6.7 6.7 0 0 0-.7-.2 1.3 1.3 0 0 1-.6-.2 1.1 1.1 0 0 1-.6-1 1.5 1.5 0 0 0-1-1.4 2.9 2.9 0 0 0-1.5.1l.8.2Zm25-3a1.3 1.3 0 0 1 .7.2 1.2 1.2 0 0 1 .5 1 1.5 1.5 0 0 0 1 1.3 2.5 2.5 0 0 0 1.5 0l-.8-.2a1.2 1.2 0 0 1-1-1.2 1.5 1.5 0 0 0-1-1.3 2.9 2.9 0 0 0-1.6 0l.7.2Zm-47.7-68.7a1.3 1.3 0 0 1 .7.2 1.1 1.1 0 0 1 .5 1 1.5 1.5 0 0 0 1 1.4 2.6 2.6 0 0 0 1.5-.1 6.3 6.3 0 0 0-.7-.1 1.3 1.3 0 0 1-.7-.2 1.1 1.1 0 0 1-.5-1 1.5 1.5 0 0 0-1-1.4 3 3 0 0 0-1.5 0l.8.2ZM90.3 365a1.2 1.2 0 0 1 .7.2 1.1 1.1 0 0 1 .5 1 1.5 1.5 0 0 0 1 1.4 2.6 2.6 0 0 0 1.5-.1l-.8-.1A1.2 1.2 0 0 1 92 366a1.5 1.5 0 0 0-1-1.4 2.8 2.8 0 0 0-1.5.1l.7.2Zm-2.8 26.6a1.2 1.2 0 0 1 .6.1 1.1 1.1 0 0 1 .6 1 1.5 1.5 0 0 0 .9 1.4 2.6 2.6 0 0 0 1.5-.1l-.7-.1a1.3 1.3 0 0 1-.6-.2 1.2 1.2 0 0 1-.6-1 1.4 1.4 0 0 0-1-1.4 2.8 2.8 0 0 0-1.5.1l.8.1Zm2.8-75a1.3 1.3 0 0 1 .7.1 1.1 1.1 0 0 1 .5 1 1.5 1.5 0 0 0 1 1.4 2.7 2.7 0 0 0 1.5 0 6.7 6.7 0 0 0-.8-.2 1.2 1.2 0 0 1-1.1-1.3 1.5 1.5 0 0 0-1-1.3 3 3 0 0 0-1.5 0 6.3 6.3 0 0 0 .7.2Zm-2.4 60.8a1.2 1.2 0 0 1-.2.6 1.1 1.1 0 0 1-1 .6 1.5 1.5 0 0 0-1.4.9 2.6 2.6 0 0 0 .1 1.5l.1-.7a1.3 1.3 0 0 1 .2-.6 1.2 1.2 0 0 1 1-.6 1.4 1.4 0 0 0 1.4-1 2.8 2.8 0 0 0-.1-1.5l-.1.8Zm24.8 27.8a1.4 1.4 0 0 1-.2.6 1.2 1.2 0 0 1-1 .6 1.5 1.5 0 0 0-1.4 1 2.7 2.7 0 0 0 .1 1.5l.2-.8a1.2 1.2 0 0 1 1.1-1.1 1.5 1.5 0 0 0 1.4-1 2.9 2.9 0 0 0 0-1.5 6.3 6.3 0 0 0-.2.7Zm-18.4-57.5a1.2 1.2 0 0 1-.2.6 1.1 1.1 0 0 1-1 .5 1.5 1.5 0 0 0-1.4 1 2.7 2.7 0 0 0 0 1.5l.2-.7a1.2 1.2 0 0 1 1.2-1.2 1.5 1.5 0 0 0 1.4-1 2.8 2.8 0 0 0-.1-1.5l-.1.8Zm1.4-43v.1a2.5 2.5 0 0 0 0 1.6l.1-.8a1.1 1.1 0 0 1 .3-.6 1 1 0 0 1 .3-.3 5 5 0 0 0-.7 0Zm10.1 18.2a1.3 1.3 0 0 1-.2.6 1.2 1.2 0 0 1-1 .5 1.5 1.5 0 0 0-1.3 1 2.6 2.6 0 0 0 0 1.5 5.9 5.9 0 0 0 .2-.7 1.2 1.2 0 0 1 1.1-1.2 1.5 1.5 0 0 0 1.4-1 2.9 2.9 0 0 0 0-1.5l-.2.8Zm2.6 48.5a1.3 1.3 0 0 1-.2.7 1.2 1.2 0 0 1-1 .5 1.5 1.5 0 0 0-1.4 1 2.6 2.6 0 0 0 0 1.5l.2-.8a1.2 1.2 0 0 1 .2-.6 1.2 1.2 0 0 1 1-.5 1.5 1.5 0 0 0 1.3-1 3 3 0 0 0 0-1.5l-.1.7Zm-7.5 25.7a1.5 1.5 0 0 1-.2.6 1.2 1.2 0 0 1-1 .6 1.5 1.5 0 0 0-1.3 1 2.7 2.7 0 0 0 0 1.5l.2-.8a1.2 1.2 0 0 1 1.2-1.1 1.5 1.5 0 0 0 1.3-1 2.9 2.9 0 0 0 0-1.5 6.3 6.3 0 0 0-.2.7Zm23.1 28.4a1.5 1.5 0 0 1-.2.7 1.2 1.2 0 0 1-1 .5 1.5 1.5 0 0 0-1.3 1 2.7 2.7 0 0 0 0 1.5l.2-.7a1.2 1.2 0 0 1 .2-.7 1.2 1.2 0 0 1 1-.5 1.5 1.5 0 0 0 1.3-1 3 3 0 0 0 0-1.5 6.7 6.7 0 0 0-.2.8Zm5.5-38.4a2.7 2.7 0 0 0 0 1.5l.2-.8a1.2 1.2 0 0 1 .2-.6Zm7.5 15.7a1.3 1.3 0 0 1-.2.6 1.1 1.1 0 0 1-1 .6 1.5 1.5 0 0 0-1.4.9 2.6 2.6 0 0 0 0 1.5 6.3 6.3 0 0 0 .2-.7 1.3 1.3 0 0 1 .2-.6 1.1 1.1 0 0 1 1-.5 1.5 1.5 0 0 0 1.3-1 3 3 0 0 0 0-1.5l-.1.7Zm3 17.3a1.3 1.3 0 0 1-.3.6 1.2 1.2 0 0 1-1 .6 1.5 1.5 0 0 0-1.3.9 2.6 2.6 0 0 0 0 1.5 6.3 6.3 0 0 0 .1-.7 1.3 1.3 0 0 1 .2-.6 1.1 1.1 0 0 1 1-.5 1.5 1.5 0 0 0 1.4-1 3 3 0 0 0-.1-1.5v.7Zm-38.5-61.3a1.1 1.1 0 0 1 .6-.3 1.2 1.2 0 0 1 1 .3 1.5 1.5 0 0 0 1.7.3c.5-.2.7-.7 1-1.1l-.6.4a1.2 1.2 0 0 1-.6.3 1.2 1.2 0 0 1-1-.3 1.5 1.5 0 0 0-1.7-.3 3 3 0 0 0-1 1.1c.2 0 .4-.2.6-.4Zm20.5 39a1.4 1.4 0 0 1 .5-.2 1.1 1.1 0 0 1 1.1.2 1.5 1.5 0 0 0 1.6.4c.6-.3.8-.7 1-1.1l-.5.4a1.1 1.1 0 0 1-.6.3 1.2 1.2 0 0 1-1-.4 1.5 1.5 0 0 0-1.7-.2 2.8 2.8 0 0 0-1 1l.6-.3Zm22.4-2.4a1.4 1.4 0 0 1 .6-.3 1.1 1.1 0 0 1 1 .3 1.5 1.5 0 0 0 1.7.3c.5-.2.7-.7 1-1.1l-.6.4a1.2 1.2 0 0 1-.6.3 1.2 1.2 0 0 1-1-.3 1.5 1.5 0 0 0-1.7-.3c-.5.3-.7.7-1 1.1.2 0 .4-.3.6-.4Zm-7.5 40a1.2 1.2 0 0 1 .6-.4 1.2 1.2 0 0 1 1 .3 1.5 1.5 0 0 0 1.7.3c.5-.2.7-.7 1-1.1l-.6.4a1.1 1.1 0 0 1-.6.3 1.1 1.1 0 0 1-1-.3 1.5 1.5 0 0 0-1.7-.3 3 3 0 0 0-1 1.1l.6-.4Zm-25.3-50ZM96 382.5a1.2 1.2 0 0 1 .5-.3 1.2 1.2 0 0 1 1.1.3 1.5 1.5 0 0 0 1.6.3c.6-.2.8-.7 1-1.1l-.6.4a1.1 1.1 0 0 1-.6.3 1.1 1.1 0 0 1-1-.3 1.5 1.5 0 0 0-1.7-.3 3 3 0 0 0-1 1.1l.7-.4ZM87.3 408a1.2 1.2 0 0 1 .5-.3 1.1 1.1 0 0 1 1.1.3 1.5 1.5 0 0 0 1.6.3c.6-.2.8-.7 1-1.1l-.6.4a1.1 1.1 0 0 1-.6.3 1.2 1.2 0 0 1-1-.3 1.5 1.5 0 0 0-1.7-.3c-.5.2-.7.7-1 1.1l.7-.4Zm22.5 11.6a1.4 1.4 0 0 1 .6-.3 1.2 1.2 0 0 1 1 .3 1.5 1.5 0 0 0 1.7.3c.5-.2.7-.7 1-1l-.6.3a1.2 1.2 0 0 1-.6.3 1.2 1.2 0 0 1-1-.3 1.5 1.5 0 0 0-1.7-.3 2.8 2.8 0 0 0-1 1.2l.6-.5Zm-18.7-86.5a1.4 1.4 0 0 1 .6-.3 1.2 1.2 0 0 1 1 .3 1.5 1.5 0 0 0 1.7.3c.6-.2.8-.7 1-1.1l-.6.4a1.3 1.3 0 0 1-.6.3 1.2 1.2 0 0 1-1-.3 1.5 1.5 0 0 0-1.7-.3c-.5.3-.7.7-1 1.1.3 0 .4-.2.6-.4Z"/><path fill="#263238" d="M135.7 431.9s.1.2.2 0c1.5-2.5 2.7-5.3 4-8l3.8-8.6c2.5-5.7 5.1-11.4 7.3-17.2 0-.2-.3-.3-.4-.1-2.8 5.5-5.2 11.2-7.7 16.8l-3.7 8.4c-1.2 2.8-2.5 5.7-3.5 8.7ZM114.6 359.5l-3.1-17v-1.1a52.8 52.8 0 0 0-.3-6.6.2.2 0 0 0-.4 0l.1 5v.1l-.1-1-2.3-11.4a445.6 445.6 0 0 0 9.6 52.2h.1c-.8-6.8-2.3-13.5-3.6-20.2Z"/><path fill="#d8b4a1" d="M390.8 372.9c-9.3 12.5-19 27.1-21.4 42.9 0 .2.4.3.4 0a94.9 94.9 0 0 1 4.2-12.6c6.1-1.6 12.1-3 15.3-9a39 39 0 0 0 2.2-21.2c0-.4-.5-.4-.7-.1Z"/><path fill="#263238" d="M374 403.1a104 104 0 0 1 16.4-26.4 112 112 0 0 0-11.1 17.6c3-3.2 6.4-6 9.3-9.3a51.3 51.3 0 0 1-9.7 9.9l-3 5.6.7-.3-.9.4-1.4 2.7c0 .2-.3 0-.3-.2ZM377.1 399.9a54.5 54.5 0 0 0 7.2-4.8s.1 0 0 0a37.8 37.8 0 0 1-7 5 .1.1 0 0 1-.2-.2Z"/><path fill="#d8b4a1" d="M368.4 413.4c0 .2.3.2.3 0v-15.6c1.4-2.7 4.3-4.2 6.2-6.3a27.4 27.4 0 0 0 3.8-5.2A37.4 37.4 0 0 0 383 372c.5-5.6-1.6-23.9-4-23.3-1.1.4-5 9.5-6 12.5a86.4 86.4 0 0 0-3.8 15.2c-2 12.2-1.8 24.8-.8 37Z"/><path fill="#263238" d="M368.3 391c.3-6.5 1.8-13.2 3.2-19.5a65.6 65.6 0 0 1 7-19.4A72.9 72.9 0 0 0 373 367l.8-1c0-.2.3 0 .2 0a10 10 0 0 1-1.1 1.6c-1.2 5-2 10-2.8 15l.1-.2h.1c0 .2-.2.4-.3.5l-1 7.6c4.5-3.8 8.3-8.4 10.5-14-2.1 5.8-5.5 11-10.7 14.5 0 .7-.2 1.4-.3 2 0 .2-.2.1-.2 0v-1.8a.1.1 0 0 1 0-.1Z"/><path fill="#263238" d="M370.4 381.5a104.2 104.2 0 0 0 9.3-15.9s.1 0 0 0a51.8 51.8 0 0 1-9 16h-.3ZM375 364.4c1.5-2.6 3-5 4.3-7.6h.2a39 39 0 0 1-4.2 7.7.1.1 0 0 1-.3-.1ZM374.5 365.5Z"/><path fill="#d8b4a1" d="M364.8 398.4a52.5 52.5 0 0 1-1.2 10.3l.2 1a48.5 48.5 0 0 0 1.8-11.3.3.3 0 0 0 0-.4 75.6 75.6 0 0 0-1.1-15.4 49.2 49.2 0 0 0-11.8-25.9.5.5 0 0 0-.7.2c-2.7 6.8-1.8 15 .5 21.8a40 40 0 0 0 5.3 10.3c2.3 3.2 5.2 6 7 9.4Z"/><path fill="#263238" d="M353.5 359.9a73.3 73.3 0 0 1 11.2 34.5c0 .2-.3.2-.3 0l-.5-3.2a41.5 41.5 0 0 1-7.2-8.3 87.5 87.5 0 0 0 7 7.5q-.6-4-1.5-7.9l-.5-.6c-.1-.2 0-.3.1-.1l.2.1a93.5 93.5 0 0 0-3.3-10.4c-1.6-2-3.4-3.6-4.6-6h.1c1 1.3 1.9 2.7 3 3.9l1.3 1.4a81.6 81.6 0 0 0-5.2-10.8.1.1 0 1 1 .2-.1Z"/><path fill="#263238" d="M354.8 372.5c2 2.8 4.3 5.4 6.2 8.2 0 .1 0 .2-.1.1a42.1 42.1 0 0 1-6.3-8.2s.1-.2.2 0ZM361.3 381.4h.1v.1h-.2c0-.1 0-.2.1-.1Z"/><path fill="#d8b4a1" d="M343.6 379.6a31.3 31.3 0 0 0 6.7 15.6 16.7 16.7 0 0 0 5.4 4.2c2.3 1.2 4.8 2.5 7.2 3.4a47.8 47.8 0 0 1 2.5 9.1l.3-.8a46 46 0 0 0-21.3-32 .5.5 0 0 0-.8.5Z"/><path fill="#263238" d="M347.4 383.5s0-.2.1-.1a45.3 45.3 0 0 1 14.1 17.3c0 .2-.2.3-.3.2l-1.5-2.7c-2.6-.4-5-2.2-6.8-3.9 0 0 0-.1 0 0a15.3 15.3 0 0 0 3.2 2.2c1 .5 2.2.8 3.3 1.2l-3-4.2a29.6 29.6 0 0 1-7.5-4.3v-.1a73.3 73.3 0 0 0 7 3.7 63 63 0 0 0-5-5.8 69 69 0 0 1-2.5-1.5 9.6 9.6 0 0 1 2 1l-3-3ZM347.7 388.1a2.5 2.5 0 0 1 .4.3s0 .1 0 .1a3.3 3.3 0 0 1-.5-.3s0-.1 0 0Z"/><path fill="#37474f" d="M382.9 440.8h-30.3l2.5-27.5.5-6.1h24.3l.6 6.1 2.4 27.5z"/><path fill="#263238" d="M380.5 413.3h-25.4l.5-6.1h24.3l.6 6.1z"/><path fill="#37474f" d="M354.2 402.9h27.2v6h-27.2z"/></svg>