<svg xmlns="http://www.w3.org/2000/svg" viewBox="0 0 500 500"><path fill="#ebebeb" d="m98.6 242.2.1-2 122.8 2.8v2zM272.7 244.7l1.5-1.3 73.9 94.1-1.6 1.3zM150.6 91l1.7-1L232 211l-1.7 1.1zM98 379.1l126-111.4 1.3 1.5-126 111.4zM307.2 240.3h117v2h-117z"/><circle cx="145.5" cy="83.6" r="25.7" fill="#ebebeb" transform="rotate(-76.6 145.5 83.6)"/><path fill="#fff" d="M137.8 79.9a8.1 8.1 0 1 0 8-8.1 8.1 8.1 0 0 0-8 8Z"/><path fill="#fff" d="M131.9 102.2v3.3a25.9 25.9 0 0 0 7.6 3.3 26.4 26.4 0 0 0 20.3-3.3v-3.3a14 14 0 0 0-28 0Z"/><path fill="#ebebeb" d="M431.3 268.6c9.2-10.7 17.9-22.3 16.6-35.2-.8-8.3-6.6-16.6-16.6-16.6s-15.9 8.3-16.7 16.6c-1.3 12.9 7.4 24.5 16.6 35.2Zm-9.2-35a9.1 9.1 0 1 1 9.2 9.1 9.1 9.1 0 0 1-9.2-9.1Z"/><g fill="#ebebeb"><path d="M400 352.6a66.2 66.2 0 0 1 4.4 20.4h18v-1.9a50.2 50.2 0 0 0-1.3-7.1 55.6 55.6 0 0 0-4-11.1.4.4 0 0 0-.4-.3H400ZM400.5 398.2H417a.4.4 0 0 0 .4-.3 51.5 51.5 0 0 0 5-18.9 1.7 1.7 0 0 1 0-.2v-.5h-17.8c-.3 0-.3 0-.3.3l-.3 4.4a60.7 60.7 0 0 1-1.2 6.8 63.4 63.4 0 0 1-2.3 8.1ZM330.7 403.4l.1.3a49.8 49.8 0 0 0 4.8 6 45.6 45.6 0 0 0 6.8 6.4 49.1 49.1 0 0 0 16.2 8.1 51.2 51.2 0 0 0 6.9 1.5l.7.1h.4l.4-.2-.5-.3a53.1 53.1 0 0 1-13-12.7 59.1 59.1 0 0 1-5.4-9 .4.4 0 0 0-.4-.2h-17ZM347.3 373h23.3v-20.4h-18.2a.3.3 0 0 0-.3.3 56.7 56.7 0 0 0-3.8 12 61 61 0 0 0-.8 6.4l-.2 1.7ZM347.4 378.4l.1 1.5.4 3.4.7 4.6a55.6 55.6 0 0 0 3 10 .4.4 0 0 0 .5.3h18.6v-19.8ZM375.9 352.8v20.4h22.7v-1.6l-.5-3.4a100 100 0 0 0-.9-5.2 53.6 53.6 0 0 0-3.3-10 .4.4 0 0 0-.4-.2H376ZM375.9 378.7v19.5H394a.4.4 0 0 0 .4-.3 52.7 52.7 0 0 0 3.1-10.3l.8-5.4c.2-1.2.2-2.4.3-3.7H376c-.2 0-.3 0-.3.2ZM322.6 373.1h19a66.6 66.6 0 0 1 4.5-20.5h-17.8a.4.4 0 0 0-.4.3 49.7 49.7 0 0 0-4.4 12.8 53.7 53.7 0 0 0-.9 7.1v.3ZM322.6 378.3v1.3l.7 5.2a50 50 0 0 0 3.5 11.4l.8 1.8a.3.3 0 0 0 .3.2h17.7l-.6-1.8a63.4 63.4 0 0 1-3.2-16.2v-1.7c0-.1 0-.2-.3-.2h-19ZM331.2 347.4a.6.6 0 0 1 0 .1h17a.4.4 0 0 0 .4-.2A57.7 57.7 0 0 1 357 335a47 47 0 0 1 6.4-5.9l3.5-2.5.2-.2-.3-.1.1-.4a50 50 0 0 0-35.6 21.5ZM379.1 425.6a2.1 2.1 0 0 0 .5 0 46 46 0 0 0 5.4-1 49 49 0 0 0 19.6-10 46.3 46.3 0 0 0 6-6 49.2 49.2 0 0 0 3.6-5.1l.1-.2h-15.8a.4.4 0 0 0-.4.3 59.6 59.6 0 0 1-5.7 9.3 58.2 58.2 0 0 1-6.7 7.4 51 51 0 0 1-6.5 5.2ZM379.3 326.4l2.4 1.8a58.1 58.1 0 0 1 7.5 7 53.6 53.6 0 0 1 8 11.2c0 .3.2.6.3.8a.4.4 0 0 0 .3.2h16a49.5 49.5 0 0 0-34.3-21.4v.2ZM354.3 403.4A54.4 54.4 0 0 0 362 414a49.5 49.5 0 0 0 8.8 7.4v-17.9ZM375.9 403.5V421a51 51 0 0 0 15.8-17.5ZM354.8 347.4h15.8v-16.7a48.4 48.4 0 0 0-8.9 7.4 56 56 0 0 0-7 9.3ZM375.9 331.2v16.3H391a48 48 0 0 0-15.2-16.3Z"/></g><path fill="#ebebeb" d="M108.5 271H52v-56.6h56.6z"/><path fill="#dbdbdb" d="M105.7 268.2h-51v-51h51z"/><path fill="#c7c7c7" d="M63 229.3a4.8 4.8 0 1 0 3.8-3.7 4.8 4.8 0 0 0-3.8 3.8ZM68.9 255h36.9l-18.5-20.7L68.9 255z"/><path fill="#a6a6a6" d="M54.8 255h30.4L70 241.5 54.8 255zM54.8 255h51v13.2h-51z"/><path fill="#fff" d="M142 367v48h-6v11.9L124.2 415H60v-48h82z"/><path fill="#ebebeb" d="M142 367c.1 14.5.6 34.3.6 48.6H136l.7-.7v13.8l-1.2-1.3-11.9-11.8.6.3c-19.3 0-46.1.2-65.2 0v-1l.2-48v-.8l82.8.9Zm0 0c-20.4.3-61.6.7-82 .8l.8-.8.2 48-1-1 64.6.1.2.3 11.7 12-1.2.5v-12.6h6.7l-.6.6.6-48Z"/><path fill="#ebebeb" d="M85.9 391.2a4 4 0 1 1-4-3.9 4 4 0 0 1 4 4ZM105.3 391.2a3.9 3.9 0 1 1-3.9-3.9 4 4 0 0 1 4 4ZM124.8 391.2a4 4 0 1 1-3.9-3.9 4 4 0 0 1 4 4Z"/><circle cx="260.3" cy="241.3" r="46.9" fill="#ebebeb" transform="rotate(-45 260.3 241.3)"/><path fill="#d8b4a1" d="M454.8 366.1c-12.4 16.8-25.3 36.3-28.5 57.4a.3.3 0 0 0 .6 0 126.2 126.2 0 0 1 5.5-16.8c8.1-2.2 16-4 20.4-12.2 4.3-8.3 3.8-19.1 3-28.2-.1-.4-.8-.5-1-.2Z"/><path fill="#263238" d="M432.5 406.6a139.8 139.8 0 0 1 21.9-35.3 149 149 0 0 0-15 23.4c4.2-4.1 8.7-7.9 12.6-12.3a68.5 68.5 0 0 1-13 13.2l-4 7.5 1-.5-1.2.6-2 3.6c0 .3-.4 0-.3-.2ZM436.6 402.2a74 74 0 0 0 9.5-6.3c.1-.1.2 0 .1 0a49.9 49.9 0 0 1-9.4 6.5c-.2.1-.3-.1-.2-.2Z"/><path fill="#d8b4a1" d="M424.9 420.3a.2.2 0 0 0 .4 0l.1-20.8c1.8-3.6 5.6-5.6 8.3-8.5a37 37 0 0 0 5-6.9 49.6 49.6 0 0 0 5.7-19.1c.7-7.4-2.1-31.9-5.2-31-1.7.4-7 12.6-8.3 16.6a115.2 115.2 0 0 0-4.9 20.3c-2.6 16.3-2.4 33-1.1 49.4Z"/><path fill="#263238" d="M424.8 390.4c.4-8.7 2.4-17.6 4.2-26.1 2-9.2 4.4-17.8 9-26a.1.1 0 0 1 .3.1 96 96 0 0 0-7.3 20l1-1.5c.1-.1.5 0 .3.2a12.7 12.7 0 0 1-1.5 2.1c-1.6 6.5-2.8 13.3-3.8 20a2.8 2.8 0 0 1 .2-.3h.1c0 .3-.2.5-.4.7l-1.4 10.2c6-5.2 11.2-11.3 14.1-18.8a39 39 0 0 1-14.2 19.4l-.4 2.7c0 .2-.3.2-.3 0v-2.4a.2.2 0 0 1 .1-.3Z"/><path fill="#263238" d="M427.7 377.7a139.5 139.5 0 0 0 12.4-21.1 68.8 68.8 0 0 1-12.2 21.3.1.1 0 0 1-.2-.2ZM433.8 354.8c2-3.4 4-6.7 5.7-10.1.1-.1.2 0 .2 0A52.7 52.7 0 0 1 434 355a.2.2 0 0 1-.3-.2ZM433 356.3Z"/><path fill="#d8b4a1" d="M420.2 400.3a70.3 70.3 0 0 1-1.6 13.6l.2 1.5a65.1 65.1 0 0 0 2.4-15.2.5.5 0 0 0 0-.5 100.6 100.6 0 0 0-1.5-20.6 65.5 65.5 0 0 0-15.7-34.5.6.6 0 0 0-1 .2c-3.6 9.1-2.4 20 .7 29a53.1 53.1 0 0 0 7 13.9c3.1 4.3 7 8 9.5 12.6Z"/><path fill="#263238" d="M405 348.9a98 98 0 0 1 15 46c0 .2-.4.3-.5 0l-.6-4.3c-3.5-3.3-7-6.9-9.6-11h.2a115.2 115.2 0 0 0 9.2 10c-.6-3.6-1.3-7-2.1-10.5l-.7-.8c-.1-.2.1-.4.3-.3l.2.3a121.8 121.8 0 0 0-4.4-14c-2.2-2.6-4.6-4.8-6.1-7.9 1.3 1.7 2.5 3.5 4 5.1l1.7 2a109.1 109.1 0 0 0-6.9-14.5.2.2 0 0 1 .4-.1Z"/><path fill="#263238" d="M406.8 365.7c2.7 3.7 5.8 7.2 8.3 11 0 .1 0 .2-.2.1a55.2 55.2 0 0 1-8.1-11ZM415.5 377.5l.1.1-.1.1h-.1c-.1-.1 0-.3 0-.2Z"/><path fill="#d8b4a1" d="M391.9 375.1a42 42 0 0 0 8.8 20.9 22.2 22.2 0 0 0 7.3 5.6c3.1 1.5 6.4 3.3 9.6 4.6a62.8 62.8 0 0 1 3.4 12l.3-1c-2-17.8-13.6-33-28.3-42.8a.7.7 0 0 0-1.1.7Z"/><path fill="#263238" d="M397 380.4c-.1-.1 0-.3.1-.2a60.2 60.2 0 0 1 18.8 23.1c.1.3-.2.5-.3.2l-2.1-3.5c-3.4-.6-6.6-3-9-5.2-.1 0 0-.2 0-.1a20.4 20.4 0 0 0 4.3 3c1.4.7 2.9 1.1 4.3 1.7-1.3-2-2.6-3.9-4-5.7A39.3 39.3 0 0 1 399 388a.1.1 0 0 1 .1-.2 101 101 0 0 0 9.4 5 86.3 86.3 0 0 0-6.6-7.7 85 85 0 0 1-3.4-2 12.2 12.2 0 0 1 2.6 1.2l-4.1-4ZM397.3 386.5a4 4 0 0 1 .5.4v.1a4.3 4.3 0 0 1-.6-.3c-.1 0 0-.2 0-.2Z"/><path fill="#455a64" d="M444.3 456.8h-40.4l3.3-36.7.7-8.1h32.4l.7 8.1 3.3 36.7z"/><path fill="#263238" d="M441 420.1h-33.8l.7-8.1h32.4l.7 8.1z"/><path fill="#455a64" d="M405.9 406.3h36.3v8h-36.3z"/><path fill="#37474f" d="M315.7 456.8h-102l-2.5-9.7-2.7-10.7-.6-2.3-2-7.8-1.2-4.6-1.1-4.5-.3-1.1-.3-1.3-.4-1.5-.4-1.6-.8-2.8-1-4.1a73.6 73.6 0 0 0-1.1-4.5l-.5-1.8-1.7-6.6-.4-1.6-.6-2.5-.4-1.5a406 406 0 0 1-1.2-4.8l-.3-1.1-.7-2.5c0-.3 0-.6-.2-.8s-.1-.6-.2-.8l-.1-.6-.2-.7v-.3l-.3-.9h99.3l8.6 29.5 3.4 12 12 41.5Z"/><path fill="#263238" d="M230.4 456.8h-2.6l-11-47-2.5-11.5-.2-1a.1.1 0 0 1 .3-.1v.3L218 410q6.5 23.4 12.5 46.9Z"/><path fill="#263238" d="m288.6 373.8-4.3 22-3.6 18-6.2 30.6-.6 3.2-1 5.2-.8 4h-58.4l-2.5-9.7-2.7-10.7-.6-2.3-2-7.8-1.2-4.5-1.1-4.5-.3-1.2-.3-1.2-.4-1.6-.4-1.5-.8-3-1-4-.5-1.8-.6-2.7-.5-1.7-1.7-6.6-.4-1.6-.6-2.6-.4-1.5a406 406 0 0 1-1.2-4.8l-.3-1-.7-2.6c0-.3 0-.5-.2-.8s-.1-.6-.2-.8l-.1-.5-.2-.7v-.3l-.3-1Z"/><path fill="#37474f" d="M288.7 373.8a322 322 0 0 1-2.4 24.1 417.3 417.3 0 0 1-11.3 58.8H144s-1.6-10-1.4-13c1.2-16 10.6-70 10.6-70h116.3Z"/><path fill="#263238" d="M288.4 385.5a392.3 392.3 0 0 1-2 28.6 4.9 4.9 0 0 1-.1.6l-2.1 13.8c-.7 4.3-1.3 9-3.2 13a12.5 12.5 0 0 1-3 4 9 9 0 0 1-4 2 5 5 0 0 1-.8.2h-.3a.3.3 0 0 1 .2.2c0 1.6 0 3.1-.2 4.7a1.3 1.3 0 0 0 0 .1l-.7 4H270l1-4.4c.4-1.4 1-3 1.3-4.5a.4.4 0 0 1 .1-.1 6.8 6.8 0 0 1-6.6-4.1c-.7-2-.4-4-.1-6l1.2-8c.7-4.7 1.7-9.5 2.6-14.3l.3-2.2a656.9 656.9 0 0 1 6-30.4c0-.4.5-.2.4 0 0 .7 0 1.4-.2 2q-.5 5.6-1.3 11.1c-.6 4.3-1 8.7-1.7 13l-.6 4.4c-1 7.2-2 14.3-3.2 21.4-.6 3.3-2.7 9.2 2 10.2a4.8 4.8 0 0 0 3.3-.4 10 10 0 0 0 4.4-5.6c1.4-3.7 1.8-7.9 2.5-11.8q1.2-6.5 2.1-13l2.4-16.4 1.3-8.3.7-3.8c.1-.3.5-.2.5 0ZM175 419.6a65 65 0 0 0 15.7-2l7.1-2.2a18.5 18.5 0 0 0 6.4-3.2c3.6-3.1 5.3-8 6.8-12.4a117.7 117.7 0 0 0 4.2-15c0-.2.4-.1.4.1a58 58 0 0 1-2.2 17c-1.3 4.7-3 10-6.8 13.2-4 3.5-9.4 4.7-14.5 5.3a66.8 66.8 0 0 1-17.2-.2.3.3 0 0 1 0-.6ZM166 385c-.3 7.2-7.7 44.6-8.3 51.8-.3 4.6 1.5 20 1.5 20h-1.8s-1.4-13.7-1.2-20c.2-7.2 8.6-44.6 9.2-51.7a.3.3 0 0 1 .6-.1Z"/><path fill="#f7a9a0" d="M271.6 223.8c49.3 44.5 95 93.1 98.6 118 5 34.4-16.2 44-25.7 44-25.8.3-72.7-104.3-89-144.2-15.8-38.8 5.3-27.5 16.1-17.8Z"/><path fill="#c7c7c7" d="m346 295-54.8 29.8s-34.1-63-42-92.2 4-28.3 29.7-5.6 67.1 68 67.1 68Z"/><path fill="#d8b4a1" d="m346 295-54.8 29.8s-34.1-63-42-92.2 4-28.3 29.7-5.6 67.1 68 67.1 68Z"/><path d="M249.3 232.6c7.8 29.2 42 92.2 42 92.2l49.8-27.2-91.9-86.4c-3 2.4-3.2 9.3 0 21.4Z" opacity=".1"/><path fill="#263238" d="M334.8 286.6c-21.2 14.3-41.7 23.6-45.8 26-.2 0-.3-.3-.1-.4 4.1-2 26.6-16 45.7-26 .2-.1.4.2.1.4Z"/><path fill="#d8b4a1" d="m303.6 407-160.6.4s14-120.8 73-192.1c13.7-16.5 35.6-7.5 44.9 1.2 23.5 22.3 43.1 190 42.7 190.5Z"/><path fill="#fff" d="M249.3 209.1c-6.9 5-13.4 10.4-20.1 15.5-3.5 2.7-6.8 5.5-10.4 8-2.9 1.9-6.2 3.5-9.8 3.3a11.3 11.3 0 0 1-6.4-2.6l.4-.5a11.3 11.3 0 0 0 2.5 1.5c3.5 1.6 7.4.8 10.7-1 3.6-2 6.8-4.9 10.1-7.4l10.8-8.4c3.7-2.9 7.4-6 11.3-8.8l1 .4ZM225.5 292c3.6-5.1 5.3-12 3.1-18-2-5.2-6.8-8.7-12.2-10a24.7 24.7 0 0 0-16.7 2c-6.8 3.4-11.7 9.5-17.7 13.9a28.6 28.6 0 0 1-5.5 3.1l-.6 1.3c6.6-2.5 11.4-7.7 16.7-12.2a35.4 35.4 0 0 1 9.2-6 24.1 24.1 0 0 1 9-1.8c5.8 0 12.1 2.1 15.5 7.2 3.8 5.8 2.6 13.2-.8 18.8-8.8 14.3-28.3 13.4-42.8 13.6a84.7 84.7 0 0 0-14.9 1.4l-.4 1.2a90.8 90.8 0 0 1 17-1.5c14-.2 32 0 41.2-13Zm3.6-36a55.3 55.3 0 0 0 36.1-8.4 53.6 53.6 0 0 0 8-6.3l-.4-1a52 52 0 0 1-8.4 6.6 54 54 0 0 1-37.3 7.7c-10.7-1.8-20.3-8.4-30.6-11.3l-.7 1a93.6 93.6 0 0 1 13.1 5.2c6.5 2.9 13.1 5.6 20.2 6.5Zm-12 97.4a24.8 24.8 0 0 0 7.4-16.1 18 18 0 0 0-6-15c-5-4.2-12-4.4-18-2.5-6.8 2.3-12.2 7-17 12.5-5 5.9-9.5 12.6-15.7 17.4a28 28 0 0 1-15 6.3l-.3 1a24.3 24.3 0 0 0 8.1-2 45 45 0 0 0 16.7-13.5c5-5.9 9.5-12.5 16-16.9 5.5-3.8 13-6.3 19.8-4.2 6.2 2 9.9 7.8 10.3 14.2a23.3 23.3 0 0 1-6.3 17.3c-5 5.4-11.7 8.8-18.5 11.3a206.7 206.7 0 0 1-24.4 7c-8.7 2-19.3 3.9-26.6 9.5l-.3 1.6c7.3-6.2 18.6-8 27.7-10.2a200 200 0 0 0 24.3-7c6.5-2.5 13-5.7 17.9-10.7ZM207 379.8c-7-.4-13.1 4-17.1 9.4-4.2 5.7-6.6 12.3-10.4 18.1h1.1c1.6-2.4 3-5 4.2-7.5 3.4-6.6 7.2-14 14.1-17.4a15 15 0 0 1 10.7-1.2 11.6 11.6 0 0 1 7.2 6.7c2.6 6 1.6 12.9 2 19.3h1c-.3-5.3.2-10.6-1-15.8-1.3-6-5.3-11.1-11.8-11.6Zm72.8 23.2a52 52 0 0 1-2.1-20.5c.8-17.2 4.2-34.5 1.5-51.7a51.1 51.1 0 0 0-18.9-34.5c-5.7-4-13.4-6.6-19.9-2.8a18.8 18.8 0 0 0-8.4 16c0 8 3.7 15.4 7.6 22.2s8.3 13 12.2 19.6 7.2 13.5 8.7 21a48.3 48.3 0 0 1-.7 21.1 49.9 49.9 0 0 1-5.7 13.7h1.2l1.5-2.7a50.3 50.3 0 0 0 2.5-40c-5.3-14.5-15.9-26.2-22.4-40-3.4-7.2-5.5-15.6-2-23a15.6 15.6 0 0 1 6.6-7.4 14.4 14.4 0 0 1 11.3-.5c7 2.2 12.7 7.8 16.7 13.8a56.3 56.3 0 0 1 7.8 19.2c3.7 16.6.8 33.8-.4 50.6a76 76 0 0 0 .6 21.8 28 28 0 0 0 3 8.1h1.3a20.8 20.8 0 0 1-2-4Zm-17.4-123.8c3.3 6.8 10.1 10.5 16.9 13.2l7.5 3-.2-1c-4-1.6-8-3.1-11.8-5-6.5-3.3-13.2-9.2-13.1-17.1 0-7.3 6.7-12.5 13.4-13.8a22.3 22.3 0 0 1 3.2-.4l-.2-.9a20.4 20.4 0 0 0-12.4 4.8 14 14 0 0 0-3.3 17.2Z"/><path fill="#f7a9a0" d="M204.7 220.7c-46.8 35.9-95.5 96.8-96.2 132-.8 34.7 18.8 31.3 22 30.3 34.8-10.9 76.7-107.2 92.1-146.5 15.4-39-6.3-24.7-17.9-15.8Z"/><path fill="#d8b4a1" d="m129.6 290.7 54.3 30.8S219 259 227.4 230s-3.3-28.4-29.5-6.2-68.3 66.8-68.3 66.8Z"/><path fill="#263238" d="M141 282.5c20.9 14.7 41.2 24.3 45.3 26.8.1.1.3-.2.1-.3-4-2.2-26.3-16.6-45.2-26.8-.2-.2-.4.2-.2.3Z"/><path fill="#263238" d="M180.4 319.4a31.7 31.7 0 0 1 3.2 1.4c5.3-10.4 4.3-8 9.6-18.3l7.8-15.2c2.7-5.2 5.2-10.7 8.1-15.8a.1.1 0 0 1 .3 0c-1.7 5-4 9.9-6.3 14.7a143.9 143.9 0 0 1 5-7.1c0-.3.5 0 .4.2-1 1.6-2 3.3-2.8 5s-2 3.3-3 5-2 3-3 4.5l-.5.6-4.2 9a143.1 143.1 0 0 1-10.8 18.6 29.5 29.5 0 0 1-4-2.3c-.1-.1 0-.3.2-.3Z"/><path fill="#f7a9a0" d="M342.1 384.6c-16-2.4-25.2-32.3-43-79.8-3.2-8.4 38.4-56.2 44-48.5 7.1 9.7 26 63.4 27.8 78 3.8 28.8-10 53-28.8 50.3Z"/><path fill="#263238" d="M317.4 353c-3.7-7.9-7-15.8-10.2-23.8-3-8-6.4-16-8.1-24.4 2.5 8.2 6 16 9 24 2.8 7.1 6.8 17 9.3 24.1Z"/><path fill="#f7a9a0" d="M358 290.8c-2.3-16.4-6.9-39.2-12.7-44-6.1-5-28.4-21.7-34.8-24s-35-13-40.3-10c-4.2 2.4.7 13.5 14.4 18.8 12 4.7 18.1 9 21.5 10.5s12 12.9 9.7 17.9c-1.4 3-10 6.4-15.3 4s-6.6-13-12.7-18-17-4.4-17.5-1.5 2.9 4.3 8.4 14.2c3.5 6.3 3.8 21.6 11.8 32.5 4 5.5 11 20 11 20Z"/><path fill="#263238" d="M282 241.5a10.6 10.6 0 0 1-5.3-2.4 4 4 0 0 1-1.2-3.6 2 2 0 0 1 .5-1.3c.1 0 0-.2-.1 0a6.1 6.1 0 0 1-.5.6 2.8 2.8 0 0 0-.3.6 3.4 3.4 0 0 0-.2 1.3 4.4 4.4 0 0 0 1 2.7c1.5 1.9 3.9 2.3 6.1 2.3v-.2Z"/><path fill="#f7a9a0" d="M345.3 246.9c-5.2-8.2-18.4-22.9-31.6-28-8.9-3.4-39.5 11.5-38.6 17.4s6.1 5.9 13.8 5c2.9-.4 17.8-5.7 20.3-2.6a91.3 91.3 0 0 1 8.3 20Z"/><path fill="#263238" d="M275.9 234c3.7-6.3 12-9.6 20.3-12.2a71.3 71.3 0 0 0-20.4 12.2Z"/><path fill="#f7a9a0" d="M345.3 246.9c-5.2-8.2-18.4-22.9-31.6-28-8.9-3.4-33.1 15.7-32.2 21.5s8.4 6.4 16.7 3.5c2.7-1 11.7-7.3 14.2-4.1l12.6 15.6Z"/><path fill="#263238" d="M319.8 248.5c-.8-1.3-1-1.7-2-3l-2.6-3.7a11.6 11.6 0 0 0-2.8-2.9 6 6 0 0 0-3.7-.7c-2.8.2-5.4 2-7.9 3.5a24.7 24.7 0 0 1-12.7 3.6 8.6 8.6 0 0 1-3.4-1 5.2 5.2 0 0 1-2-1.6c-2-3.1.4-6.8 2.8-9.4a55.4 55.4 0 0 1 16.3-11.1l4.4-2a13 13 0 0 1 5.2-1.5c3 0 8 3 9.5 4 .1 0 .2-.1 0-.2-1.8-1.1-6.3-4.9-11.2-4.7a15.2 15.2 0 0 0-5 1.7q-2.6 1.1-5 2.4a67.8 67.8 0 0 0-9.3 5.5 29 29 0 0 0-7.6 7.1c-1.6 2.5-2.1 6-.5 8.7 1.3 2.2 4.1 2.7 5.4 2.9a14 14 0 0 0 3.9 0 60.4 60.4 0 0 0 8.3-2.4c2.6-1 5-2.9 7.7-3.7a5 5 0 0 1 4 .3 13.6 13.6 0 0 1 2.9 2.7 41.4 41.4 0 0 1 4.9 5.8c.4.4.8.3.4-.3Z"/><path fill="#f7a9a0" d="M349.2 254c-2-3.9-5.1-19.9-8.2-24.8s-17.2-21.8-23.7-21.1c-8.3 1 .3 15.8 4.6 22s3.6 16.6 3.6 16.6Z"/><path fill="#263238" d="M315.9 219.9a74.1 74.1 0 0 1 4.2 6.1 48 48 0 0 1 3.7 6.1 21.3 21.3 0 0 1 1.6 6.9l.2 3.4-.1 3.8c0 .1-.2.1-.2 0a54.5 54.5 0 0 0-.9-6.9 29.8 29.8 0 0 0-2-6.8c-2-4.3-4.8-8.2-6.8-12.5 0-.2.2-.3.3-.1ZM325.4 248.4c.2 5.9-2.5 11.5-5.4 16.6-2 3.3-4.7 6.2-6.7 9.5A37.6 37.6 0 0 0 308 291a34.1 34.1 0 0 1 7.8-21.7 49.2 49.2 0 0 0 6.2-9.8 30 30 0 0 0 3.4-11ZM266.4 225.5a75.3 75.3 0 0 1-1.1 7.6 37.4 37.4 0 0 1-1.8 6.7c-1.5 3.9-4.4 7.5-9 8.6a16.1 16.1 0 0 1-12.2-2.7c-3.8-2.4-6.7-6-9.4-9.4a88 88 0 0 1-4.7-6.5l-2.2-3.5-2-3.4c-.1-.1-.3 0-.2 0 1.4 2.7 5.8 11 7.3 13.2 2.7 3.8 5.6 7.7 9.5 10.5a18 18 0 0 0 13 3.5 13.3 13.3 0 0 0 10.2-8 27.2 27.2 0 0 0 2-7.8c.4-3 .6-5.9.7-8.8h-.1Z"/><path fill="#f7a9a0" d="M250.8 241c-9.9-.3-22-18.7-25.3-32-.2-.8 11.4-31.6 13.1-37.9.4-1.3 37.2 20.2 37.2 20.2s-7.4 12.2-10.3 23.3c-.2 1-5 26.7-14.7 26.4Z"/><path fill="#263238" d="M275.8 191.3s-7.4 12.2-10.3 23.3l-1 4.1a54.6 54.6 0 0 1-31.4-31.5 303 303 0 0 0 5.5-16c.4-1.4 37.2 20.1 37.2 20.1ZM226.6 155s-2.5 9.4-4.3 12.3-10.2 4-10.2 4 7.3 5.5 9.9 5.7 8.1-4.6 8.1-4.6-6.5 8.4-10 7.9c-2.2-.3 5 2 5 2a10.1 10.1 0 0 0 7.2-1c3.3-1.9-5.7-26.3-5.7-26.3Z"/><path fill="#f7a9a0" d="M240.3 127c-8.2 12.9-11.9 55.5-4.3 67.2 10.9 17.1 34.3 24.9 50.2 10.5 15.4-13.9 19.3-69.5 10.3-80.8-13.1-16.5-44.2-15.9-56.2 3.1Z"/><path fill="#263238" d="M271.7 155.9a34.5 34.5 0 0 1-3.8.1c-1.5 0-2.7.2-4-.6a2 2 0 0 1-.5-2.3c.8-1.7 2.6-2.1 4.4-2.3a7.2 7.2 0 0 1 5 1.4c1.4 1 .6 3.4-1.1 3.7ZM269.5 165l-.2.3c-.4 2.8-1.3 6-4 6.6-.1 0-.1.2 0 .2 3.2 0 4.4-4.3 4.2-7Z"/><path fill="#263238" d="M267.4 161.7c-4.5-1-6.3 8-2 9s5.8-8.1 2-9ZM286 167.8v.3c-.6 2.8-.8 6.2 1.6 7.6v.2c-3.1-1-2.8-5.5-1.7-8Z"/><path fill="#263238" d="M289 165.4c4.6.5 3.2 9.7-1 9.2s-2.9-9.7 1-9.2ZM293.5 160.7a35.2 35.2 0 0 1-3.5-1.7c-1.3-.6-2.4-1-3.2-2.4a2 2 0 0 1 .6-2.3c1.5-1 3.3-.7 5 0a7.2 7.2 0 0 1 3.7 3.5 2.1 2.1 0 0 1-2.6 2.9ZM262.4 188.1c.6.8 1 1.8 2.1 2.1a7.8 7.8 0 0 0 3.2-.1.1.1 0 0 1 0 .2 3.9 3.9 0 0 1-3.8.8 3 3 0 0 1-1.8-3h.3Z"/><path fill="#263238" d="M267 180.2a9.8 9.8 0 0 0 5.7 5.5 12.2 12.2 0 0 0 3.4.9 3 3 0 0 0 .7 0h.6a.7.7 0 0 0 .7-.5 2.6 2.6 0 0 0 0-.3v-.3c.5-2.1 1-5.5 1-5.5.6.6 4.3 3.2 4.5 2 1.3-9.5 2.7-20.1 2-29.9a.3.3 0 0 0-.6 0c-1.6 9.1-1.6 18.5-3 27.7-1.2-.8-3.2-2.1-4.3-2.3-.3 0-.7 6.5-1 7.5-3.8-.2-6.3-1.8-9.4-5-.1-.2-.4 0-.2.2Z"/><path fill="#263238" d="M231.2 160.5c7.7.4 19.1-21.8 19.1-21.8l-3 13.3s6.8-2.5 11.3-7.4a24 24 0 0 0 4.8-12.5s5 10.7 13.1 16c3 2 27.2 10 27.7 8.4a57 57 0 0 0-7.3-29.8c-5.4-7.1-13.8-15-30.1-14.4s-23.2 8.7-27.7 15.1-10.7 33-7.9 33.1Z"/><path fill="#f7a9a0" d="M240 164.7s-5.8-15.6-12.6-13.9-5 22.6 1.4 27a7.4 7.4 0 0 0 10.6-1.3Z"/><path fill="#263238" d="M228.1 156.8c-.1 0-.2.1 0 .2 4.3 3.3 5.7 8.5 6.3 13.7-1-2.2-2.7-3.7-5.6-2.6-.2 0-.1.3 0 .3a4.5 4.5 0 0 1 4.5 2.8 22.4 22.4 0 0 1 1.3 4.5c0 .5 1 .5.9 0a.5.5 0 0 1 0-.2c1.8-6.3-.8-16.3-7.4-18.7Z"/><path fill="#d8b4a1" d="M286 116.1a58.3 58.3 0 0 0-13.8-9.7c-5.8-2.8-25-7.6-30.9-5.3s-12.9 19.6-13.9 22.2-5 18.6-.6 24.3 13.9-20.8 25.8-26.6 33.5-4.9 33.5-4.9Z"/><path d="M286 116.2s-21.5-1.1-33.4 4.8-21.4 32.3-25.8 26.6c-2-2.5-2.4-5.4-2-9.9 3.8-7.4 11-18.4 20.3-24.6 8.7-5.9 20.5-6.3 32.1-3.9a67 67 0 0 1 8.9 7Z" opacity=".1"/><path fill="#d8b4a1" d="M223 164c3-7 16.5-23.6 27.8-32s35.6-7.3 38.7-6c7.4 3 9.2 6 10.6 5.8s-4.5-8.6-6.2-10.6-6.4-6.9-9.7-7.9-24.3-5.8-34.6.4-28.7 27-28.9 33.8c0 1.7 1.6 3.3 1.6 5.6-.1 3-.6 6.5-.4 8.7.1 1.8 1 2.8 1.2 2.2Z"/><path fill="#263238" d="M254.1 127.7a37.7 37.7 0 0 1-3.7-5.2 28.1 28.1 0 0 1-2.7-6 .1.1 0 1 0-.2.1 21 21 0 0 0 2.1 6.3 17.9 17.9 0 0 0 4.2 5.1c.2.2.5-.1.3-.3ZM225.4 156.9a17.3 17.3 0 0 0-.3-1.8 9.3 9.3 0 0 1-.1-2 16.6 16.6 0 0 0 .3-3.7 14.2 14.2 0 0 0-.8-3 5 5 0 0 1-.5-3.3.1.1 0 0 0-.2 0c-.7 2.1.2 4.1.5 6.3.3 1.3-.2 2.6-.2 4a5.8 5.8 0 0 0 .9 3.6l.4-.1ZM230.4 150a31 31 0 0 1-1.2-3 24.7 24.7 0 0 1-.6-3.3l-.4-3.1-.5-3.8h-.3v4a25.4 25.4 0 0 0 .4 3.3 17.1 17.1 0 0 0 .8 3.1 8 8 0 0 0 1.7 2.8ZM235.3 143.9a21.3 21.3 0 0 1-2.4-5.7 100.6 100.6 0 0 1-1.5-5.9 25.5 25.5 0 0 0 .6 6.3 13.2 13.2 0 0 0 1 2.8 14.4 14.4 0 0 0 2 2.6c.2.1.4 0 .3-.1ZM240.3 138.2a7.4 7.4 0 0 1-1.2-2.5l-1-3-.9-3a7.3 7.3 0 0 1-.4-3 .1.1 0 0 0-.3 0 7.7 7.7 0 0 0 0 3 20 20 0 0 0 .6 3.3 27.4 27.4 0 0 0 1.2 3.2 4.8 4.8 0 0 0 1.8 2.3c.2 0 .4-.2.2-.3ZM245.2 130.4a37.5 37.5 0 0 1-2.3-5.3l-1-3a.1.1 0 1 0-.2 0 18.2 18.2 0 0 0 .4 3 21 21 0 0 0 1 3 22.1 22.1 0 0 0 1.2 2.6 8 8 0 0 0 1.8 2.4.2.2 0 0 0 .3-.2 15.3 15.3 0 0 0-1.2-2.5ZM261 125.5l-1.4-3.3a32.2 32.2 0 0 0-1.8-3.1 31.6 31.6 0 0 0-4.2-5.6c-.1 0-.3 0-.2.2 2.4 4 5 7.9 7.3 11.9a.1.1 0 0 0 .2-.1ZM267.3 120.8a15.9 15.9 0 0 0-1.7-3 34 34 0 0 0-5-5.5c-.1 0-.3 0-.2.2 1.5 1.8 3 3.6 4.3 5.6a32 32 0 0 1 1.8 2.9l1.4 3.2a.1.1 0 0 0 .1 0 8.8 8.8 0 0 0-.7-3.4ZM274.1 120a16.4 16.4 0 0 0-1.5-3 19.2 19.2 0 0 0-4.1-4.8c-.1 0-.3.1-.2.2a37 37 0 0 1 3.7 5.2l1.6 2.8c.6.9.8 2 1.4 2.9h.1a17.1 17.1 0 0 0-1-3.3ZM279.6 118l-1.8-2.6a9.6 9.6 0 0 0-2-2.2 192.2 192.2 0 0 1 3 5.2 25.2 25.2 0 0 1 2 5h.2a9.6 9.6 0 0 0-1.4-5.5ZM285.3 118.5a15.7 15.7 0 0 0-3.8-4.5s-.2 0-.1.2a19.2 19.2 0 0 1 3.2 4.7 26.2 26.2 0 0 1 2 5.3c0 .1.2.1.2 0a12.8 12.8 0 0 0-1.5-5.7ZM291.2 124a9.5 9.5 0 0 0-.2-1.2 12.2 12.2 0 0 0-1-2.5 26.7 26.7 0 0 0-3-4.4c0-.2-.3 0-.2.1a21.5 21.5 0 0 1 2.8 4.5 17.4 17.4 0 0 1 .8 2.4l.3 1.2a6 6 0 0 0 .3 1.2.1.1 0 0 0 .2 0 3.6 3.6 0 0 0 0-1.2ZM295.4 125.9a17.7 17.7 0 0 0-.8-2 18.4 18.4 0 0 0-1-2l-1.2-1.9a.1.1 0 1 0-.2.2 12.4 12.4 0 0 1 1 2l.9 2 .8 1.9.8 2a.1.1 0 0 0 .2-.1 9.3 9.3 0 0 0-.5-2.1Z"/><path fill="#37474f" d="m274 248.3-24.1 70.6c-1 2 0 3.9 2 4l37.3 3.1a6 6 0 0 0 5.5-3.4l24-70.6c1-2 0-3.9-2-4l-37.2-3a6 6 0 0 0-5.5 3.3Z"/><path fill="#455a64" d="m278.4 248.6-24 70.6c-1 2 0 3.9 2 4l37.2 3.1a6 6 0 0 0 5.4-3.4l24.1-70.6c1-2.1 0-4-2-4l-37.2-3.1a6 6 0 0 0-5.5 3.4Z"/><path fill="#263238" d="M288.4 252.7a3.2 3.2 0 1 1-2.9-3.4 3.2 3.2 0 0 1 2.9 3.4Z"/><path fill="#f7a9a0" d="M121.6 382c14.8 5 36.1-3.1 92.4-29.6 7.7-3.7-3.4-65.5-11.9-62-10.7 4.3-51.3 23.7-54.1 25.5-23.6 15.1-36.5 62.7-26.4 66.2Z"/><path fill="#f7a9a0" d="M181.2 304.4s17.8-17 30-23c16.2-8.1 33.6-8.4 40.8-8 15.2.7 51.5 12.8 49.8 23.8-1.5 10-38-4.2-38-4.2s39.6 8.4 35.6 20.1-45.4-7.3-45.4-7.3 40.5 9.5 34.4 21c-4.6 8.6-43-6.5-43-6.5s34.7 8.5 30.4 17.6c-4.8 10-41.2-1.7-41.2-1.7a56.9 56.9 0 0 1-42.2 26.8c-2.9.3-11.2-58.6-11.2-58.6Z"/><path fill="#263238" d="M250.3 289.1c4.7.8 9.5 1.6 14 2.9s9.2 2.6 13.7 4.3c10.9 4 17.1 8.3 16.7 8-9.7-5.2-26.1-9.9-30.7-11s-9.1-2.8-13.7-4c-.1 0 0-.2 0-.2ZM245.6 305.6c6 1.3 11.9 2.4 17.8 4s11.2 3.5 17 5.5c.4.1.2.3-.3.2-5.8-1.7-11.3-2.9-17.1-4.6s-11.6-3.5-17.4-5c-.1 0 0 0 0 0ZM239 319c9.2 1.6 18 4.8 26.7 8.2.4.2 0 .4-.4.2-8.8-2.8-15.7-5.2-26.4-8-.2 0-.1-.4.1-.3ZM163.6 308.2c-4.2 2.2-8.5 4.5-12.6 7s-8.2 4.8-11.4 8.4a92.4 92.4 0 0 0-12.2 17.6 64.2 64.2 0 0 0-3 6.5 73.2 73.2 0 0 1 15.8-26c6.8-6 15.2-9.8 23.4-13.6Z"/><path fill="#fff" d="M256 38.2v50.1h7v12.1l12.2-12.1h66.7V38.2H256z"/><path fill="#263238" d="m256 38.2.1 25.1.2 25-.3-.3h7.3v12.4l-.5-.2L274.9 88l.1-.1h.2l66.7-.1-.5.5.1-50.1.4.3-86-.3Zm0 0c21.4-.2 64.5-.4 85.9-.4h.3v.4l.2 50v.6h-.5l-66.7-.1.2-.2-12.1 12.2-.6.5V88.3l.3.3h-7.3l.3-50.4Z"/><path fill="#263238" d="M315.2 63.2a4 4 0 1 0 4-4 4 4 0 0 0-4 4ZM294.9 63.2a4 4 0 1 0 4-4 4 4 0 0 0-4 4ZM274.6 63.2a4 4 0 1 0 4-4 4 4 0 0 0-4 4Z"/><path fill="#fff" d="M229.4 199.9V250h-7.1v12.2L210.2 250h-86.7v-50.1h105.9z"/><path fill="#263238" d="M229.4 199.9c0 15 .3 35.6.2 50.4h-7.2l.3-.3v12.9l-.6-.5-12.2-12.2c-12.8.4-51.4.1-64.7.3H123v-.5l.1-50.1v-.4h.4c26.4 0 79.5.2 105.8.4Zm0 0c-26.4.2-79.5.3-106 .4l.5-.4.1 50.1-.5-.5H167c.5.1 43.2 0 43.6.2l12.1 12.2-.6.2v-12.4h7.3l-.3.3.1-25 .2-25.1Z"/><path fill="#a6a6a6" d="M134.3 210.2h50.5v2.6h-50.5z"/><path fill="#ebebeb" d="M134.3 219.7c26.5-.7 54.5-.7 81 0-26.5.7-54.5.7-81 0ZM134.3 226.5c27.1-.7 57.1-.7 84.2 0-27 .7-57 .7-84.2 0ZM134.3 233.3c21.8-.7 43.9-.7 65.7 0-21.8.7-43.8.7-65.7 0ZM134.3 240.1c21.8-.6 43.9-.6 65.7 0-21.8.7-43.8.7-65.7 0Z"/><path fill="#fff" d="M307.5 102.8v54.1h7.5V170l13.2-13.1h104.4v-54.1H307.5z"/><path fill="#263238" d="m307.4 102.8.2 27.1.1 27-.3-.3h8V170l-.6-.2 13-13.1.2-.1h.1c30.8-.1 74.1-.2 104.5-.1l-.5.4v-54l.5.3c-31.2 0-94-.2-125.2-.4Zm0 0 125.2-.4h.4v55h-.4l-104.4-.1.3-.1-13.2 13-.6.6v-13.9l.3.3h-7.8c-.1-15.9.2-38.4.3-54.4Z"/><path fill="#455a64" d="M317.1 114.3h30.8v30.8h-30.8z"/><path fill="#fff" d="M328.1 135.3v-11.1l11.4 5.5-11.4 5.6z"/><path fill="#a6a6a6" d="M357.6 114.3h56.1v2.6h-56.1z"/><path fill="#ebebeb" d="M357.6 123.8c20.2-.6 40.7-.6 61 0-20.3.7-40.7.7-61 0ZM357.6 130.6c21.3-.6 42.8-.6 64.2 0-21.4.7-42.9.7-64.2 0ZM357.6 137.4c15.2-.6 30.5-.6 45.7 0-15.2.7-30.5.7-45.7 0ZM357.6 144.3c15.2-.7 30.5-.7 45.7 0-15.2.6-30.5.6-45.7 0Z"/><path fill="#fff" d="M200.6 121.4v54.1H193v13.1l-13.2-13.1H75.4v-54.1h125.2z"/><path fill="#263238" d="M200.6 121.4c0 16.1.3 38.5.2 54.4H193l.3-.3v13.9l-.6-.6-13.1-13h.2c-30.8 0-74 .2-104.4.1H75V121h.4c31.2 0 94 .2 125.1.4Zm0 0c-31.2.2-94 .3-125.2.4l.4-.4v54.1l-.4-.5 104.4.1h.2l.1.1 13.1 13.2-.6.2v-13.4H200.5l-.2.3v-27l.2-27.1Z"/><path fill="#d8b4a1" d="M86.2 132.9H117v30.8H86.2z"/><path fill="#fff" d="M90.3 142.6a3.6 3.6 0 1 0 2.8-2.8 3.6 3.6 0 0 0-2.8 2.8ZM94.7 163.8H117l-11.1-13.6-11.2 13.6z" opacity=".2"/><path fill="#d8b4a1" d="M86.2 163.8h18.4l-9.2-8.9-9.2 8.9z"/><path fill="#fff" d="M86.2 163.8h18.4l-9.2-8.9-9.2 8.9z" opacity=".5"/><path fill="#a6a6a6" d="M126.6 132.9h56.1v2.6h-56.1z"/><path fill="#ebebeb" d="M126.6 142.4c20.3-.6 40.7-.6 61 0-20.3.7-40.7.7-61 0ZM126.6 149.2c21.4-.6 43-.6 64.3 0-21.4.7-42.9.7-64.3 0ZM126.6 156c15.2-.6 30.6-.6 45.8 0-15.3.7-30.6.7-45.8 0ZM126.6 162.9c15.2-.7 30.6-.7 45.8 0-15.3.6-30.6.6-45.8 0Z"/><path fill="#fff" d="M317.5 174.5v54.1h7.6v13.1l13.1-13.1h30.5v-54.1h-51.2z"/><path fill="#263238" d="m317.5 174.4.3 54.1-.3-.2H325.4v13.4l-.6-.3 13.1-13.1.1-.1 30.7-.1-.5.5.1-54.1.4.4-51.2-.4Zm0 0c13 0 38.6-.3 51.6-.4v55h-30.9l.3-.1-13.2 13-.6.7v-14l.3.3H317.1v-.3l.3-54.1Z"/><path fill="#d8b4a1" d="M327.2 186H358v30.8h-30.8z"/><path fill="#fff" d="M335.2 198.2a7.2 7.2 0 1 0 7.2-7.2 7.2 7.2 0 0 0-7.2 7.2Z"/><path fill="#fff" d="M354.8 216.8H330a12.4 12.4 0 0 1 24.7 0ZM216.9 46.7v54.1h-7.6v13.1l-13.1-13.1h-30.5V46.7h51.2z"/><path fill="#263238" d="m217 46.7.2 54v.4H209.3l.3-.3v14l-.6-.7-13.1-13 .3.1h-31v-.4l.1-54.5c13 0 38.7.2 51.6.4Zm0 0-51.3.4.4-.4v54l-.4-.4h30.7l.1.2 13 13.1-.5.3v-13.4H216.9c-.8 1.8.3-54.2 0-53.8Z"/><path fill="#455a64" d="M207.2 89h-30.8V58.2h30.8z"/><path fill="#fff" d="M198.3 70c-.3-3.2-2.6-6.4-6.5-6.4s-6.1 3.2-6.4 6.4c-.5 5 2.8 9.5 6.4 13.6 3.6-4 7-8.6 6.5-13.6Zm-6.5 3.6a3.5 3.5 0 1 1 3.6-3.5 3.5 3.5 0 0 1-3.6 3.5Z"/><path fill="#263238" d="M447.6 456.8c-126.6.6-268.6.6-395.2 0 126.6-.6 268.6-.6 395.2 0Z"/></svg>