<svg xmlns="http://www.w3.org/2000/svg" viewBox="0 0 500 500"><path fill="#ebebeb" d="M67.8 51H103v11.2H67.8zM159.2 275.5h35.2v11.2h-35.2zM83.3 37l-26.4.3h-8.7l.4-.4V48l-.5-.5 26.4.1 8.8.1-.3.3.3-11.2Zm0 0 .2 11.1v.3h-.2l-17.6.2h-18V36.5H57l26.3.4ZM368.5 342.2l-26.5.4h-8.7l.5-.4v11.2l-.5-.5c5.8 0 20.7 0 26.3.2h8.8l-.2.3.2-11.2Zm0 0 .2 11.2v.3h-.2l-17.6.2h-18.1v-12.1h9.4l26.3.4ZM348.9 328.1l-26.5.4h-8.7l.5-.4v11.2l-.5-.5c5.8 0 20.7 0 26.3.2h8.8l-.2.3.2-11.2Zm0 0 .2 11.2v.2h-.3l-17.5.2-17.6.1h-.5v-12.1h9.3l26.3.4ZM294.1 342.2h35.2v11.2h-35.2zM416.7 36.9h35.2v11.2h-35.2zM397.1 428.9h35.2v11.2h-35.2zM451.8 414.8l-26.4.4h-8.7l.4-.5V426l-.5-.5 26.4.2h8.8l-.2.3.2-11.2Zm0 0 .3 11.2v.2h-.3l-17.5.2h-18.1v-12.1h9.4l26.2.5ZM103 428.9l-26.5.4h-8.7l.4-.4V440l-.5-.5 26.4.1 8.8.1-.2.3.2-11.2Zm0 0 .2 11.2v.2h-.3l-17.5.2H67.3v-12.1h9.3l26.3.4Z"/><path fill="#dbdbdb" d="M379.8 68.7h72v47h-72z"/><path fill="#ebebeb" d="M379.8 118.4h72v47h-72z"/><path fill="#fff" d="M386.9 127.5h7v7h-7z"/><path fill="#c7c7c7" d="M395.4 127.5h7v7h-7z"/><path fill="#fff" d="M403.9 127.5h7v7h-7zM412.3 127.5h7v7h-7zM420.8 127.5h7v7h-7zM429.3 127.5h7v7h-7zM437.7 127.5h7v7h-7zM386.9 136h7v7h-7zM395.4 136h7v7h-7zM403.9 136h7v7h-7zM412.3 136h7v7h-7z"/><path fill="#c7c7c7" d="M420.8 136h7v7h-7z"/><path fill="#fff" d="M429.3 136h7v7h-7zM437.7 136h7v7h-7zM386.9 144.5h7v7h-7zM395.4 144.5h7v7h-7zM403.9 144.5h7v7h-7zM412.3 144.5h7v7h-7zM420.8 144.5h7v7h-7zM429.3 144.5h7v7h-7zM437.7 144.5h7v7h-7zM386.9 153.1h7v7h-7zM395.4 153.1h7v7h-7z"/><path fill="#c7c7c7" d="M403.9 153.1h7v7h-7z"/><path fill="#fff" d="M412.3 153.1h7v7h-7zM420.8 153.1h7v7h-7zM429.3 153.1h7v7h-7zM437.7 153.1h7v7h-7z"/><path fill="#c7c7c7" d="M382.6 113.5h2.7v7.2h-2.7zM389 113.5h2.7v7.2H389zM395.4 113.5h2.7v7.2h-2.7zM401.7 113.5h2.7v7.2h-2.7zM408.1 113.5h2.7v7.2h-2.7zM414.5 113.5h2.7v7.2h-2.7zM420.8 113.5h2.7v7.2h-2.7zM427.2 113.5h2.7v7.2h-2.7zM433.6 113.5h2.7v7.2h-2.7zM439.9 113.5h2.7v7.2h-2.7zM446.3 113.5h2.7v7.2h-2.7z"/><path fill="#263238" d="M417 73.5a1.1 1.1 0 0 1-2.3 0 1.1 1.1 0 1 1 2.3 0Z"/><path fill="#dbdbdb" d="M264.9 283.5v185.3H374V283.5Zm99.2 114h-89.3v-47H364Zm0-58.3h-89.3v-47H364Z"/><path fill="#ebebeb" d="M374 283.5h49.4v185.2H374zM274.8 292.2H296v47h-21.2zM364.3 452.2h-89.2v-45.3h89.2Zm-88.7-.5h88.2v-44.3h-88.2Z"/><path fill="#ebebeb" d="M310.9 419.7h17.6v6.4h-17.6zM274.8 350.4H296v47h-21.2z"/><path fill="#a6a6a6" d="M351.9 354v43.4h-15V354z"/><path fill="#dbdbdb" d="M351.9 381.1v9.3H337v-9.3zM351.8 368v5.5H337V368z"/><path fill="#ebebeb" d="M300.8 303h37.7v36.3h-37.7z"/><path fill="#c7c7c7" d="M338.6 303h14.3v36.3h-14.3zM300.8 321.1h37.8l-29.5.9-8.3-.9zM338.6 334.9h-37.8l29.5.9 8.3-.9zM300.8 311h23.9l-21.2.7-2.7-.7zM338.6 329.5h-24l21.3.8 2.7-.8zM309.9 306.9h26.9l-4.5.5-22.4-.5zM304.5 325h26.9l-4.4.5-22.5-.5z"/><path fill="#ebebeb" d="M321.1 314.4h17.5l3.1 1.3-20.6-1.3zM296 314.4h17.5l3.1 1.3-20.6-1.3zM318.4 330.7H301l-3.2 1.2 20.6-1.2z"/><path fill="#c7c7c7" d="M338.6 326.6h14l3.1 1.2-17.1-1.2zM343.5 321.1h10.8l-1.4-1-9.4 1z"/><path fill="#ebebeb" d="M351.9 351.2h12.2v46.2h-12.2z"/><path fill="#fff" d="M358 360.3a2.5 2.5 0 1 1 2.5-2.5 2.5 2.5 0 0 1-2.5 2.5Z"/><path fill="#a6a6a6" d="M358 359.2a1.5 1.5 0 1 1 1.4-1.4 1.5 1.5 0 0 1-1.4 1.4Z"/><path fill="#fff" d="M364.1 379v11.3h-12.2v-11.4z"/><path fill="#c7c7c7" d="M290.7 387.9h46.2v9.6h-46.2z"/><path fill="#fff" d="M327.8 392.7a2.5 2.5 0 1 1 2.6 2.5 2.5 2.5 0 0 1-2.6-2.5Z"/><path fill="#a6a6a6" d="M329 392.7a1.5 1.5 0 1 1 1.4 1.5 1.4 1.4 0 0 1-1.5-1.5Z"/><path fill="#fff" d="M309.2 397.5H298v-9.6h11.3z"/><path fill="#dbdbdb" d="m181.9 361.5 2.5 15.2 17.1 92.5h2.8l-12.5-92.5-1.8-15.2h-8.1z"/><path fill="#c7c7c7" d="M190 361.5h-8.1l2.5 15.2h7.4l-1.8-15.2z"/><path fill="#dbdbdb" d="M128 469.2h2.8l17.1-92.5 2.6-15.2h-8.2l-1.8 15.2-12.5 92.5z"/><path fill="#c7c7c7" d="m142.3 361.5-1.8 15.2h7.4l2.6-15.2h-8.2z"/><path fill="#dbdbdb" d="M76.7 469.2h2.7l17.2-92.5 2.5-15.2H91l-1.9 15.2-12.4 92.5z"/><path fill="#c7c7c7" d="M89.1 376.7h7.5l2.5-15.2H91l-1.9 15.2z"/><path fill="#dbdbdb" d="M81 368.6h125.6v-10.1l-47-3.1-15.8-91.1h-58L81 368.6z"/><path fill="#c7c7c7" d="M81 368.6h6.9l4.4-104.3h-6.5L81 368.6z"/><path fill="#263238" d="M455.5 469.2c-131.7.6-279.3.6-411 0 131.7-.6 279.3-.6 411 0Z"/><path fill="#d8b4a1" d="M83.3 58.2h333.5v12.4H83.3z"/><path d="M83.3 58.2h333.5v12.4H83.3z" opacity=".3"/><path fill="#fff" d="M89.8 70.6h320.4v185.9H89.8z"/><path fill="#263238" d="m410.2 70.6.2 186.1-320.6.2h-.4v-.4l.1-186.1 320.7.2Zm0 0s-321.5.7-320.1 0v186l-.3-.5c0 .2 321.3-.1 320.2.4l.2-185.9Z"/><path fill="#dbdbdb" d="M410.2 70.6v7.3L89.8 74.3v-3.7h320.4z"/><path fill="#d8b4a1" d="M154.8 130.6h47.6v21.1h-47.6zM202.5 130.6h47.6v21.1h-47.6zM250.1 130.6h47.6v21.1h-47.6z" opacity=".9"/><path fill="#d8b4a1" d="M297.8 130.6h47.6v21.1h-47.6z" opacity=".3"/><path fill="#d8b4a1" d="M154.8 151.7h47.6v21.1h-47.6z" opacity=".9"/><path fill="#d8b4a1" d="M202.5 151.7h47.6v21.1h-47.6zM250.1 151.7h47.6v21.1h-47.6z" opacity=".6"/><path fill="#d8b4a1" d="M297.8 151.7h47.6v21.1h-47.6z" opacity=".3"/><path fill="#d8b4a1" d="M154.8 172.7h47.6v21.1h-47.6zM202.5 172.7h47.6v21.1h-47.6z" opacity=".6"/><path fill="#d8b4a1" d="M250.1 172.7h47.6v21.1h-47.6z" opacity=".3"/><path fill="#d8b4a1" d="M154.8 193.7h47.6v21.1h-47.6z" opacity=".6"/><path fill="#d8b4a1" d="M202.5 193.7h47.6v21.1h-47.6zM154.8 214.8h47.6v21.1h-47.6zM345.4 130.6H393v21.1h-47.6z" opacity=".3"/><path fill="#263238" d="M393 235.7c0-.1-286.3.5-286 0 .2-.2-.6-134 .2-133.8l286 .2-.2 133.6Zm0 0V102.2c.5.2-285.9.1-285.8.2.5-1.6.1 133.7.2 133.3-1.1-.4 286 .1 285.7 0Z"/><path fill="#263238" d="M107 130.6c89.6-.3 196.4-.3 286 0-89.6.3-196.4.3-286 0ZM107 151.7c89.6-.3 196.4-.3 286 0-89.6.2-196.4.2-286 0ZM107 172.7c89.6-.3 196.4-.3 286 0-89.6.3-196.4.3-286 0ZM107 193.7c89.6-.2 196.4-.2 286 0-89.6.3-196.4.3-286 0ZM107 214.8c89.6-.3 196.4-.3 286 0-89.6.3-196.4.3-286 0Z"/><path fill="#263238" d="M154.8 102.2c.3 42.8.3 90.7 0 133.5-.3-42.8-.3-90.7 0-133.5ZM202.5 102.2c.3 42.8.3 90.7 0 133.5-.3-42.8-.3-90.7 0-133.5ZM250.1 102.2c.3 42.8.3 90.7 0 133.5-.3-42.8-.3-90.7 0-133.5ZM297.8 102.2c.2 42.8.3 90.7 0 133.5-.4-42.8-.4-90.7 0-133.5ZM345.4 102.2c.3 42.8.3 90.7 0 133.5-.3-42.8-.3-90.7 0-133.5ZM393 102.2c.3 42.8.3 90.7 0 133.5-.3-42.8-.3-90.7 0-133.5Z"/><path fill="#263238" d="M297.8 102.2c.2 42.8.3 90.7 0 133.5-.4-42.8-.4-90.7 0-133.5Z"/><path d="m175 115-1.4 3.2h-.1l-.7-1.7-.7 1.7h-.2l-1.4-3.1a.3.3 0 0 1 .2-.4.3.3 0 0 1 .4.2l1 2.4.7-1.6a.3.3 0 0 1 .2-.2.3.3 0 0 1 .3.2l.7 1.6 1-2.4a.3.3 0 0 1 .4-.2.3.3 0 0 1-.5.4ZM175.3 117a1.3 1.3 0 0 1 1.3-1.3 1.3 1.3 0 0 1 1.3 1.2.2.2 0 0 1-.3.3h-1.7a.8.8 0 0 0 .2.3.9.9 0 0 0 1 .1.3.3 0 0 1 .4 0 .3.3 0 0 1 0 .4 1.3 1.3 0 0 1-1 .3 1.3 1.3 0 0 1-1.2-1.3Zm.6-.3h1.5a.9.9 0 0 0-.8-.5.8.8 0 0 0-.7.6ZM178.5 117a1.3 1.3 0 0 1 1.3-1.3 1.3 1.3 0 0 1 1.3 1.2.3.3 0 0 1-.3.3h-1.7a.7.7 0 0 0 .2.3.8.8 0 0 0 .5.3.8.8 0 0 0 .6-.2.3.3 0 0 1 .4 0 .3.3 0 0 1 0 .4 1.4 1.4 0 0 1-1 .3 1.3 1.3 0 0 1-1.3-1.3Zm.6-.3h1.5a.9.9 0 0 0-.8-.5.8.8 0 0 0-.7.6ZM182 118v-3a.3.3 0 1 1 .5 0v1.8l1.1-1.1a.3.3 0 0 1 .4.4l-.8.8.9 1a.3.3 0 0 1-.3.5.3.3 0 0 1-.2-.1l-.8-1-.3.3v.5a.3.3 0 0 1-.6 0ZM187.5 115v3a.3.3 0 0 1-.3.4.3.3 0 0 1-.3-.3v-2.6h-.2a.3.3 0 0 1-.2 0 .3.3 0 0 1-.2 0 .3.3 0 0 1 0-.5l.7-.4h.2ZM125.5 139v3.1a.3.3 0 0 1-.3.3.3.3 0 0 1-.3-.3v-2.6l-.2.1a.2.2 0 0 1-.2 0 .3.3 0 0 1-.2 0 .3.3 0 0 1 0-.5l.7-.4h.3ZM126.2 140.6a2.3 2.3 0 0 1 .3-1.3 1.1 1.1 0 0 1 2 0 2.3 2.3 0 0 1 .4 1.3 2.3 2.3 0 0 1-.4 1.3 1.1 1.1 0 0 1-2 0 2.3 2.3 0 0 1-.3-1.3Zm2 0a1.8 1.8 0 0 0-.2-1 .6.6 0 0 0-.5-.3.6.6 0 0 0-.5.3 2 2 0 0 0 0 1.9.7.7 0 0 0 .5.3.6.6 0 0 0 .5-.3 1.8 1.8 0 0 0 .3-1ZM130 140.6a2.3 2.3 0 0 1 .3-1.3 1.2 1.2 0 0 1 1-.6 1.2 1.2 0 0 1 1 .6 2.3 2.3 0 0 1 .4 1.3 2.3 2.3 0 0 1-.4 1.3 1.2 1.2 0 0 1-1 .6 1.2 1.2 0 0 1-1-.6 2.4 2.4 0 0 1-.4-1.3Zm2 0a1.8 1.8 0 0 0-.2-1 .6.6 0 0 0-.5-.3.6.6 0 0 0-.5.3 1.9 1.9 0 0 0 0 1.9.7.7 0 0 0 .5.3.6.6 0 0 0 .5-.3 1.8 1.8 0 0 0 .2-1ZM133.7 139.7a.9.9 0 0 1 .8-1 .9.9 0 0 1 .9 1 .9.9 0 0 1-.9 1 .9.9 0 0 1-.8-1Zm1.2 0c0-.3-.1-.6-.4-.6s-.4.3-.4.5c0 .3.2.6.4.6s.4-.3.4-.5Zm-.6 2.4 2.4-3.3a.2.2 0 0 1 .2-.1.2.2 0 0 1 .2.2.3.3 0 0 1 0 .1l-2.4 3.4a.2.2 0 0 1-.2 0 .2.2 0 0 1-.2-.1.3.3 0 0 1 0-.2Zm1.6-.5a.9.9 0 1 1 1.8 0 .9.9 0 0 1-1 1 .9.9 0 0 1-.8-1Zm1.3 0c0-.4-.2-.6-.4-.6s-.4.2-.4.5.1.6.4.6.4-.3.4-.5ZM125.5 160.2v3a.3.3 0 0 1-.3.4.3.3 0 0 1-.3-.3v-2.6l-.2.1a.3.3 0 0 1-.2 0 .3.3 0 0 1-.2-.2.3.3 0 0 1 0-.3l.7-.4h.3ZM126.2 161.7a2.2 2.2 0 0 1 .3-1.2 1.1 1.1 0 0 1 2 0 2.2 2.2 0 0 1 .4 1.2 2.3 2.3 0 0 1-.4 1.3 1.1 1.1 0 0 1-2 0 2.3 2.3 0 0 1-.3-1.3Zm2 0a1.7 1.7 0 0 0-.2-1 .6.6 0 0 0-.5-.2.6.6 0 0 0-.5.3 1.7 1.7 0 0 0-.3 1 1.7 1.7 0 0 0 .3.9.7.7 0 0 0 .5.3.6.6 0 0 0 .5-.3 1.7 1.7 0 0 0 .3-1ZM130 161.7a2.3 2.3 0 0 1 .3-1.2 1.2 1.2 0 0 1 1-.6 1.2 1.2 0 0 1 1 .6 2.2 2.2 0 0 1 .4 1.2 2.3 2.3 0 0 1-.4 1.3 1.2 1.2 0 0 1-1 .6 1.2 1.2 0 0 1-1-.6 2.3 2.3 0 0 1-.4-1.3Zm2 0a1.7 1.7 0 0 0-.2-1 .6.6 0 0 0-.5-.2.6.6 0 0 0-.5.3 1.7 1.7 0 0 0-.3 1 1.7 1.7 0 0 0 .3.9.7.7 0 0 0 .5.3.6.6 0 0 0 .5-.3 1.7 1.7 0 0 0 .2-1ZM133.7 160.8a.9.9 0 0 1 .8-1 .9.9 0 0 1 .9 1 .9.9 0 1 1-1.8 0Zm1.2 0c0-.3-.1-.6-.4-.6s-.4.3-.4.6.2.5.4.5.4-.2.4-.5Zm-.6 2.5 2.4-3.4a.2.2 0 0 1 .2 0 .2.2 0 0 1 .2.1.3.3 0 0 1 0 .2l-2.4 3.3a.2.2 0 0 1-.2.1.2.2 0 0 1-.2-.2.3.3 0 0 1 0-.1Zm1.6-.6a.9.9 0 1 1 1.8 0 .9.9 0 0 1-1 1 .9.9 0 0 1-.8-1Zm1.3 0c0-.3-.2-.5-.4-.5s-.4.2-.4.5.1.5.4.5.4-.2.4-.5ZM123.3 182.3a1.3 1.3 0 0 1 2.6-.2v.4a3 3 0 0 1-.2 1 1.8 1.8 0 0 1-.7 1 1.5 1.5 0 0 1-.8.2.3.3 0 0 1-.3-.3.3.3 0 0 1 .3-.3 1 1 0 0 0 .5-.1 1.3 1.3 0 0 0 .4-.4v-.1a1.2 1.2 0 0 1-.5 0 1.3 1.3 0 0 1-1.3-1.2Zm.6 0a.7.7 0 1 0 1.4 0 .7.7 0 0 0-1.4 0ZM126.8 182.3a1.3 1.3 0 0 1 2.5-.2v.4a3.2 3.2 0 0 1-.1 1 1.9 1.9 0 0 1-.7 1 1.5 1.5 0 0 1-.8.2.3.3 0 0 1-.3-.3.3.3 0 0 1 .2-.3 1 1 0 0 0 .5-.1 1 1 0 0 0 .4-.4v-.1a1.3 1.3 0 0 1-.5 0 1.3 1.3 0 0 1-1.2-1.2Zm.6 0a.7.7 0 1 0 1.3 0 .7.7 0 1 0-1.3 0ZM130.6 184a.4.4 0 1 1-.4.4.4.4 0 0 1 .4-.4ZM131.3 182.3a1.3 1.3 0 0 1 2.6-.2v.4a3.2 3.2 0 0 1-.2 1 1.9 1.9 0 0 1-.7 1 1.5 1.5 0 0 1-.8.2.3.3 0 0 1-.3-.3.3.3 0 0 1 .3-.3 1 1 0 0 0 .5-.1 1 1 0 0 0 .4-.4.8.8 0 0 0 0-.1 1.3 1.3 0 0 1-.5 0 1.3 1.3 0 0 1-1.3-1.2Zm.6 0a.7.7 0 0 0 .7.7.7.7 0 1 0-.7-.7ZM134.7 182a.9.9 0 0 1 .9-1 .9.9 0 0 1 .8 1 .9.9 0 1 1-1.7 0Zm1.3 0c0-.4-.2-.6-.4-.6s-.4.2-.4.5.1.5.4.5.4-.2.4-.5Zm-.7 2.4 2.4-3.3a.2.2 0 0 1 .2-.1.2.2 0 0 1 .2.2.2.2 0 0 1 0 .1l-2.4 3.3a.2.2 0 0 1-.2.1.2.2 0 0 1-.2-.2.3.3 0 0 1 0-.1Zm1.6-.6a.9.9 0 1 1 1.8 0 .9.9 0 0 1-.9 1 .9.9 0 0 1-.9-1Zm1.3 0c0-.3-.1-.5-.4-.5s-.4.2-.4.5.2.5.4.5.4-.2.4-.5ZM125.5 202.4v3.2a.3.3 0 0 1-.3.3.3.3 0 0 1-.3-.3V203l-.2.1a.2.2 0 0 1-.2 0 .3.3 0 0 1-.2 0 .3.3 0 0 1 0-.5l.7-.4h.3ZM126.2 204a2.3 2.3 0 0 1 .3-1.3 1.1 1.1 0 0 1 2 0 2.3 2.3 0 0 1 .4 1.3 2.3 2.3 0 0 1-.4 1.3 1.1 1.1 0 0 1-2 0 2.3 2.3 0 0 1-.3-1.3Zm2 0a1.8 1.8 0 0 0-.2-1 .6.6 0 0 0-.5-.3.6.6 0 0 0-.5.4 2 2 0 0 0 0 1.8.7.7 0 0 0 .5.4.6.6 0 0 0 .5-.4 1.8 1.8 0 0 0 .3-.9ZM130 204a2.3 2.3 0 0 1 .3-1.3 1.2 1.2 0 0 1 1-.6 1.2 1.2 0 0 1 1 .6 2.3 2.3 0 0 1 .4 1.3 2.3 2.3 0 0 1-.4 1.3 1.2 1.2 0 0 1-1 .6 1.2 1.2 0 0 1-1-.6 2.4 2.4 0 0 1-.4-1.3Zm2 0a1.8 1.8 0 0 0-.2-1 .6.6 0 0 0-.5-.3.6.6 0 0 0-.5.4 1.9 1.9 0 0 0 0 1.8.7.7 0 0 0 .5.4.6.6 0 0 0 .5-.4 1.8 1.8 0 0 0 .2-.9ZM133.7 203a.9.9 0 0 1 .8-1 .9.9 0 0 1 .9 1 .9.9 0 0 1-.9 1 .9.9 0 0 1-.8-1Zm1.2 0c0-.2-.1-.5-.4-.5s-.4.3-.4.6.2.5.4.5.4-.3.4-.5Zm-.6 2.5 2.4-3.3a.2.2 0 0 1 .2 0 .2.2 0 0 1 .2.1.3.3 0 0 1 0 .2l-2.4 3.3a.2.2 0 0 1-.2 0 .2.2 0 0 1-.2-.1.3.3 0 0 1 0-.2Zm1.6-.5a.9.9 0 1 1 1.8 0 .9.9 0 0 1-1 1 .9.9 0 0 1-.8-1Zm1.3 0c0-.3-.2-.6-.4-.6s-.4.3-.4.5c0 .3.1.6.4.6s.4-.3.4-.5ZM125.6 224.6a1.3 1.3 0 0 1 2.6-.2v.3a3 3 0 0 1-.2 1.1 1.9 1.9 0 0 1-.7 1 1.5 1.5 0 0 1-.8.2.3.3 0 0 1 0-.6 1 1 0 0 0 .5-.2 1.1 1.1 0 0 0 .4-.3v-.2a1.2 1.2 0 0 1-.5.1 1.3 1.3 0 0 1-1.3-1.2Zm.6 0a.7.7 0 1 0 1.4 0 .7.7 0 0 0-1.4 0ZM129 224.6a1.3 1.3 0 0 1 2.6-.2v.3a3.2 3.2 0 0 1-.2 1.1 2 2 0 0 1-.7 1 1.5 1.5 0 0 1-.7.2.3.3 0 0 1 0-.6 1 1 0 0 0 .8-.5s0-.1 0-.2a1.3 1.3 0 0 1-.4.1 1.3 1.3 0 0 1-1.3-1.2Zm.6 0a.7.7 0 1 0 1.4 0 .7.7 0 0 0-1.4 0ZM132.4 224.2a.9.9 0 0 1 .9-1 .9.9 0 0 1 .8 1 .9.9 0 1 1-1.7 0Zm1.3 0c0-.3-.2-.5-.4-.5s-.4.2-.4.5.1.5.4.5.4-.2.4-.5Zm-.7 2.5 2.5-3.4a.2.2 0 0 1 .1 0 .2.2 0 0 1 .2.2l-2.4 3.4a.2.2 0 0 1-.2.1.2.2 0 0 1-.2-.2.2.2 0 0 1 0-.1Zm1.7-.6a.9.9 0 1 1 1.7 0 1 1 0 0 1-.9 1 .9.9 0 0 1-.8-1Zm1.2 0c0-.3-.1-.5-.4-.5s-.4.2-.4.5.2.5.4.5.4-.2.4-.5ZM221.8 115l-1.3 3.2h-.1l-.7-1.7-.7 1.7h-.1l-1.4-3.1a.3.3 0 0 1 .5-.2l1 2.4.7-1.6a.3.3 0 0 1 .3-.2.3.3 0 0 1 .3.2l.7 1.6 1-2.4a.3.3 0 0 1 .5.2ZM222.2 117a1.3 1.3 0 0 1 1.3-1.3 1.3 1.3 0 0 1 1.3 1.2v.1a.3.3 0 0 1-.3.2h-1.7a.8.8 0 0 0 .2.4.9.9 0 0 0 .5.2.9.9 0 0 0 .5-.1.3.3 0 0 1 .4 0 .2.2 0 0 1 0 .3 1.3 1.3 0 0 1-1 .4 1.3 1.3 0 0 1-1.2-1.4Zm.6-.3h1.5a.9.9 0 0 0-.8-.5.7.7 0 0 0-.7.6ZM225.4 117a1.3 1.3 0 0 1 1.3-1.3 1.3 1.3 0 0 1 1.3 1.2.2.2 0 0 1-.3.3H226a.7.7 0 0 0 .2.3.8.8 0 0 0 .5.3.8.8 0 0 0 .5-.2.3.3 0 0 1 .4 0 .3.3 0 0 1 0 .4 1.3 1.3 0 0 1-1 .3 1.3 1.3 0 0 1-1.2-1.3Zm.6-.3h1.5a.9.9 0 0 0-.8-.5.8.8 0 0 0-.7.6ZM228.8 118v-3a.3.3 0 0 1 .3-.4.3.3 0 0 1 .3.3v1.9l1.1-1.1a.3.3 0 0 1 .4 0 .3.3 0 0 1 0 .4l-.8.8.9 1a.3.3 0 0 1 0 .4.3.3 0 0 1-.5 0l-.7-1-.3.4v.4a.3.3 0 0 1-.3.3.3.3 0 0 1-.3-.3ZM235.7 118a.3.3 0 0 1-.3.4h-2a.3.3 0 0 1-.1-.1.3.3 0 0 1 0-.5l1.5-1.4a.7.7 0 0 0 .3-.5.7.7 0 0 0-.2-.4.6.6 0 0 0-.5-.3.7.7 0 0 0-.5.2l-.2.2a.3.3 0 1 1-.3-.5l.1-.1a1.3 1.3 0 0 1 .9-.4 1.3 1.3 0 0 1 1 .5 1.3 1.3 0 0 1 .3.8 1.3 1.3 0 0 1-.4 1l-1 .9h1.1a.3.3 0 0 1 .3.3ZM269.3 115l-1.3 3.2h-.1l-.8-1.7-.7 1.7h-.1l-1.4-3.1a.3.3 0 0 1 .2-.4.3.3 0 0 1 .4.2l1 2.4.6-1.6a.3.3 0 0 1 .3-.2.3.3 0 0 1 .3.2l.7 1.6 1-2.4a.3.3 0 0 1 .4-.2.3.3 0 0 1-.5.4ZM269.7 117a1.3 1.3 0 0 1 1.3-1.3 1.3 1.3 0 0 1 1.3 1.2v.1a.3.3 0 0 1-.3.2h-1.7a.8.8 0 0 0 .2.4.9.9 0 0 0 1 0 .3.3 0 0 1 .5 0 .3.3 0 0 1 0 .4 1.3 1.3 0 0 1-1 .4 1.3 1.3 0 0 1-1.3-1.4Zm.6-.3h1.5a.9.9 0 0 0-.8-.5.8.8 0 0 0-.7.6ZM273 117a1.3 1.3 0 0 1 1.3-1.3 1.3 1.3 0 0 1 1.3 1.2.3.3 0 0 1-.3.3h-1.7a.7.7 0 0 0 .2.3.8.8 0 0 0 .5.3.8.8 0 0 0 .6-.2.3.3 0 0 1 .4 0 .3.3 0 0 1 0 .4 1.4 1.4 0 0 1-1 .3 1.3 1.3 0 0 1-1.3-1.3Zm.6-.3h1.4a.9.9 0 0 0-.8-.5.8.8 0 0 0-.7.6ZM276.4 118v-3a.3.3 0 0 1 .3-.4.3.3 0 0 1 .3.3v1.9l1-1.1a.3.3 0 0 1 .5.4l-.8.8.8 1a.3.3 0 0 1-.2.5.3.3 0 0 1-.3-.1l-.7-1-.3.3v.5a.3.3 0 0 1-.3.3.3.3 0 0 1-.3-.3ZM282.8 116.1a1.3 1.3 0 0 1 0 1.9 1.4 1.4 0 0 1-1 .4 1.3 1.3 0 0 1-.8-.4.3.3 0 0 1 0-.4.3.3 0 0 1 .4 0 .7.7 0 0 0 1 0 .7.7 0 0 0 0-1 .7.7 0 0 0-.5-.2.3.3 0 0 1-.2-.1.3.3 0 0 1 0-.5l.5-.5h-.8a.3.3 0 1 1 0-.6h1.5a.3.3 0 0 1 .4.3.3.3 0 0 1 0 .1h-.1l-.7.8a1.4 1.4 0 0 1 .3.2ZM316.8 115l-1.3 3.2h-.2l-.7-1.7-.7 1.7h-.2l-1.4-3.1a.3.3 0 0 1 .2-.4.3.3 0 0 1 .4.2l1 2.4.6-1.6a.3.3 0 0 1 .3-.2.3.3 0 0 1 .3.2l.7 1.6 1-2.4a.3.3 0 0 1 .5.2ZM317.1 117a1.3 1.3 0 0 1 1.3-1.3 1.3 1.3 0 0 1 1.3 1.2.2.2 0 0 1-.2.3h-1.7a.7.7 0 0 0 .1.3.8.8 0 0 0 .6.3.8.8 0 0 0 .5-.2.3.3 0 0 1 .4 0 .3.3 0 0 1 0 .4 1.3 1.3 0 0 1-1 .3 1.3 1.3 0 0 1-1.3-1.3Zm.6-.3h1.5a.9.9 0 0 0-.8-.5.8.8 0 0 0-.7.6ZM320.4 117a1.3 1.3 0 0 1 1.3-1.3 1.3 1.3 0 0 1 1.3 1.2v.1a.3.3 0 0 1-.3.2H321a.8.8 0 0 0 .2.4.9.9 0 0 0 .5.2.9.9 0 0 0 .6-.1.3.3 0 0 1 .3 0 .2.2 0 0 1 0 .3 1.3 1.3 0 0 1-2.2-1Zm.6-.3h1.5a.9.9 0 0 0-.8-.5.7.7 0 0 0-.7.6ZM323.8 118v-3a.3.3 0 1 1 .6 0v1.8l1-1.1a.3.3 0 0 1 .5 0 .3.3 0 0 1 0 .4l-.8.8.8 1a.3.3 0 0 1 0 .4.3.3 0 0 1-.2 0 .3.3 0 0 1-.2 0l-.8-1-.3.3v.5a.3.3 0 0 1-.6 0ZM331 117.4a.3.3 0 0 1-.2.3v.4a.3.3 0 0 1-.4.3.3.3 0 0 1-.3-.3v-.4h-1.6a.2.2 0 0 1-.2-.1.3.3 0 0 1 0-.4l2-2.4h.2v2.2a.3.3 0 0 1 .6.4Zm-.9-1.6-1 1.3h1ZM365.1 115l-1.3 3.2h-.2l-.7-1.7-.7 1.7h-.2l-1.3-3.1a.3.3 0 0 1 .5-.2l1 2.4.7-1.6a.3.3 0 0 1 .3-.2.3.3 0 0 1 .3.2l.6 1.6 1-2.4a.3.3 0 0 1 .4-.2.3.3 0 0 1-.4.4ZM365.5 117a1.3 1.3 0 0 1 1.3-1.3 1.3 1.3 0 0 1 1.3 1.2.2.2 0 0 1-.3.3h-1.7a.7.7 0 0 0 .2.3.8.8 0 0 0 .5.3.8.8 0 0 0 .6-.2.3.3 0 0 1 .4 0 .3.3 0 0 1 0 .4 1.3 1.3 0 0 1-1 .3 1.3 1.3 0 0 1-1.3-1.3Zm.6-.3h1.5a.9.9 0 0 0-.8-.5.8.8 0 0 0-.7.6ZM368.7 117a1.3 1.3 0 0 1 1.3-1.3 1.3 1.3 0 0 1 1.3 1.2.3.3 0 0 1-.3.3h-1.6a.7.7 0 0 0 .1.3.8.8 0 0 0 .6.3.8.8 0 0 0 .5-.2.3.3 0 0 1 .4 0 .3.3 0 0 1 0 .4 1.4 1.4 0 0 1-1 .3 1.3 1.3 0 0 1-1.3-1.3Zm.6-.3h1.5a.9.9 0 0 0-.8-.5.7.7 0 0 0-.7.6ZM372.2 118v-3a.3.3 0 1 1 .6 0v1.8l1-1.1a.3.3 0 0 1 .5.4l-.8.8.8 1a.3.3 0 0 1 0 .4.3.3 0 0 1-.2 0 .3.3 0 0 1-.2 0l-.8-1-.3.3v.5a.3.3 0 0 1-.6 0ZM378.5 116.1a1.3 1.3 0 0 1-.9 2.3 1.3 1.3 0 0 1-.9-.4.3.3 0 0 1 0-.5.3.3 0 0 1 .4 0 .7.7 0 0 0 .5.3.7.7 0 0 0 .5-.3.7.7 0 0 0 .2-.5.7.7 0 0 0-.2-.5.7.7 0 0 0-.5-.2.7.7 0 0 0-.5.2.3.3 0 0 1-.4 0 .2.2 0 0 1 0-.1V115a.3.3 0 0 1 .2-.2.3.3 0 0 1 .2 0h1.5a.3.3 0 0 1 .3.3.3.3 0 0 1-.3.3h-1.3v.5a1.5 1.5 0 0 1 .3 0 1.3 1.3 0 0 1 1 .2ZM127.5 111.4l-1.3 3v.1h-.2l-.7-1.7-.7 1.7h-.2l-1.3-3.1a.3.3 0 0 1 .5-.3l1 2.5.7-1.6a.3.3 0 0 1 .3-.2.3.3 0 0 1 .3.2l.6 1.6 1-2.5a.3.3 0 0 1 .6.3ZM128 113.3a1.3 1.3 0 0 1 1.2-1.3 1.3 1.3 0 0 1 1.3 1.2.3.3 0 0 1-.3.3h-1.7a.7.7 0 0 0 .2.3.8.8 0 0 0 .5.3.9.9 0 0 0 .6-.1.3.3 0 0 1 .4 0 .2.2 0 0 1 0 .3 1.3 1.3 0 0 1-2.3-1Zm.5-.2h1.5a.9.9 0 0 0-.8-.6.7.7 0 0 0-.7.5ZM131.2 113.3a1.3 1.3 0 0 1 1.3-1.3 1.3 1.3 0 0 1 1.2 1.2.2.2 0 0 1-.2.3h-1.7a.7.7 0 0 0 .1.3.8.8 0 0 0 .6.3.8.8 0 0 0 .5-.1.3.3 0 0 1 .4 0 .3.3 0 0 1 0 .3 1.3 1.3 0 0 1-2.3-1Zm.5-.2h1.5a.9.9 0 0 0-.7-.6.8.8 0 0 0-.8.5ZM134.6 114.3v-3a.3.3 0 0 1 .3-.4.3.3 0 0 1 .3.3v1.8l1-1a.3.3 0 0 1 .5 0 .3.3 0 0 1 0 .4l-.8.8.8 1a.3.3 0 0 1 0 .4.3.3 0 0 1-.4 0l-.8-1-.3.3v.5a.3.3 0 0 1-.3.3.3.3 0 0 1-.3-.4ZM137.4 113.9a.3.3 0 0 1 .4 0 1 1 0 0 0 .6.2.8.8 0 0 0 .4 0 .2.2 0 0 0 0-.2.2.2 0 0 0 0-.1 1.1 1.1 0 0 0-.4-.2 3 3 0 0 1-.5-.1 1 1 0 0 1-.4-.3.6.6 0 0 1 0-.3.8.8 0 0 1 .2-.6 1.1 1.1 0 0 1 .7-.2 1.3 1.3 0 0 1 .8.3.3.3 0 0 1 0 .4.3.3 0 0 1-.3 0 1 1 0 0 0-.5-.2.6.6 0 0 0-.3.1.2.2 0 0 0-.1.2 1 1 0 0 0 .5 0 2 2 0 0 1 .4.3.8.8 0 0 1 .4.3.6.6 0 0 1 .1.3.8.8 0 0 1-.3.6 1.2 1.2 0 0 1-.7.2 1.6 1.6 0 0 1-1-.3.3.3 0 0 1 0-.4ZM122.8 121.7a.3.3 0 0 1 .3-.3v-2.7a.3.3 0 0 1 .3-.3.3.3 0 0 1 .3.3v2.7a.6.6 0 0 1-.6.6.3.3 0 0 1-.3-.3Zm.3-4v-.1a.3.3 0 1 1 .6 0 .3.3 0 1 1-.6 0ZM124.9 120.6a1.3 1.3 0 0 1-.4-.9 1.4 1.4 0 0 1 .4-1 1.2 1.2 0 0 1 .9-.3 1.2 1.2 0 0 1 .9.4 1.3 1.3 0 0 1 .3.9 1.3 1.3 0 0 1-.3 1 1.2 1.2 0 0 1-1 .3 1.2 1.2 0 0 1-.8-.4Zm.2-.9a.9.9 0 0 0 .2.6.7.7 0 0 0 .5.2.7.7 0 0 0 .5-.2.8.8 0 0 0 0-1.2.8.8 0 0 0-.5-.2.8.8 0 0 0-.5.2.9.9 0 0 0-.2.6ZM128.5 117.7a.3.3 0 0 1-.2.3.3.3 0 0 1-.3-.3v-.1a.3.3 0 0 1 .2-.3.3.3 0 0 1 .3.3Zm0 1v2a.3.3 0 0 1-.2.4.3.3 0 0 1-.3-.3v-2.1a.3.3 0 0 1 .2-.3.3.3 0 0 1 .3.3ZM131.7 119.5v1.2a.3.3 0 0 1-.3.3.3.3 0 0 1-.3-.3v-1.2a.5.5 0 1 0-1 0v1.2a.3.3 0 0 1-.4.3.3.3 0 0 1-.2-.3v-2a.3.3 0 0 1 .2-.3.3.3 0 0 1 .3.1 1 1 0 0 1 .6-.1 1.1 1.1 0 0 1 1 1ZM132.5 119.7a1.3 1.3 0 0 1 1.3-1.3 1.3 1.3 0 0 1 1.3 1.2.3.3 0 0 1-.3.2h-1.7a.6.6 0 0 0 .2.3.8.8 0 0 0 .5.3.8.8 0 0 0 .6-.1.3.3 0 0 1 .4 0 .3.3 0 0 1 0 .3 1.4 1.4 0 0 1-1 .4 1.3 1.3 0 0 1-1.3-1.3Zm.6-.3h1.5a.8.8 0 0 0-.8-.5.7.7 0 0 0-.7.5ZM138.3 120.7a.3.3 0 0 1-.5 0 1.3 1.3 0 0 1-.7.3 1.3 1.3 0 0 1 0-2.6 1.3 1.3 0 0 1 .7.2v-1a.3.3 0 0 1 .5 0v2Zm-1.2-1.8a.7.7 0 0 0-.5.3.8.8 0 0 0-.2.5.7.7 0 0 0 .2.5.7.7 0 0 0 .5.2.7.7 0 0 0 .5-.2.7.7 0 0 0 .2-.5.8.8 0 0 0-.2-.5.7.7 0 0 0-.5-.3Z"/><path fill="#263238" d="M168 141.1q10.7-.5 21.4 0-10.7.5-21.4 0ZM215.6 141.1q10.7-.5 21.4 0-10.7.5-21.4 0ZM263.2 141.1q10.7-.5 21.4 0-10.7.5-21.4 0ZM310.9 141.1q10.7-.5 21.4 0-10.7.5-21.4 0ZM168 162.2q10.7-.5 21.4 0-10.7.5-21.4 0ZM215.6 162.2q10.7-.5 21.4 0-10.7.5-21.4 0ZM263.2 162.2q10.7-.5 21.4 0-10.7.5-21.4 0ZM310.9 162.2q10.7-.5 21.4 0-10.7.5-21.4 0ZM168 183.2q10.7-.5 21.4 0-10.7.5-21.4 0ZM215.6 183.2q10.7-.5 21.4 0-10.7.5-21.4 0ZM263.2 183.2q10.7-.5 21.4 0-10.7.5-21.4 0ZM168 204.3q10.7-.5 21.4 0-10.7.5-21.4 0ZM215.6 204.3q10.7-.5 21.4 0-10.7.5-21.4 0ZM263.2 204.3q10.7-.5 21.4 0-10.7.5-21.4 0ZM168 225.3q10.7-.5 21.4 0-10.7.5-21.4 0ZM358.5 141.1q10.7-.5 21.4 0-10.7.5-21.4 0Z"/><path fill="#d8b4a1" d="M409.3 295.7s25-3.5 19.1-33.6c0 0-27.9 6.2-19.1 33.6Z"/><path d="M409.3 295.7s25-3.5 19.1-33.6c0 0-27.9 6.2-19.1 33.6Z" opacity=".1"/><path fill="#263238" d="M410.6 289.4a47.5 47.5 0 0 1 1.6-4.5l.1-.6.1-1.2.2-2.7a122 122 0 0 0 .4-5.4v5.4q0 1.4-.2 2.7v.6a53.5 53.5 0 0 1 5-8.5q1.3-1.8 2.8-3.5l3-3.3c0-.1.2 0 .1 0a44.9 44.9 0 0 0-4.8 6.5c-.7 1.1-1.5 2.3-2.1 3.5l.2-.1.9-.4 2-.7 4-1.5s.1 0 0 .1l-4 1.6-1.8.9-1 .4a3.3 3.3 0 0 1-.7.2l-1.5 2.7a64.8 64.8 0 0 0-3 7.2l-.2.5a15.8 15.8 0 0 1 2-1l2.6-1.1a71 71 0 0 0 5.2-2.6v.1l-5 2.9c-1 .5-1.8 1-2.7 1.3a8.3 8.3 0 0 1-2.3 1 29.5 29.5 0 0 0-1.7 7l-.3 10.3c-.3-3-.5-6.2-.5-9.3a27 27 0 0 1 1.6-8.5Z"/><path fill="#263238" d="M414.4 271.7a29.5 29.5 0 0 1 .2 5.3l-.4-5.3s.2-.1.2 0ZM421.5 273.2a19.5 19.5 0 0 0 3.2-1.6c.1 0 .2.1.1.2a12.3 12.3 0 0 1-3.2 1.5c-.1 0-.1 0 0-.1ZM408.5 343.5v-8.3l.4-27.4.5-21.8a.1.1 0 0 1 0-.1v-6l.2-.1h.1v6a.1.1 0 0 1 0 .2c.4 12.9.8 25.8.8 38.8v7.9q.2 12.6.1 25.3V385c0 .4-.5.6-1 .6s-1.2-.2-1.2-.6v-41.6Z"/><path fill="#d8b4a1" d="M419 335.1s12-8.9 23.3-2.9 13.2 29.2 13.2 29.2-16.8 2.4-27.3-7.6C418.1 344 419 335 419 335Z"/><path fill="#263238" d="M415.6 335.7a14.4 14.4 0 0 1 7-1 10.4 10.4 0 0 1 1.5 0l1.6-.2 3.5-.3 7.2-.5v.1l-7 .9-3.7.3-.8.1 1 .3a28.7 28.7 0 0 1 5.5 2.2l2.8.6 4.4 1.2c3 .7 5.8 1.6 8.7 2.4v.2l-8.7-2-4.2-1-1.1-.3a35.3 35.3 0 0 1 8.5 7.4 46.4 46.4 0 0 1 6 9.4s-.2.1-.2 0a45.9 45.9 0 0 0-7.2-9.4l.2.5.7 2.1 1.3 4.3s-.1.1-.2 0a225.7 225.7 0 0 1-2.2-6.2l-.3-1-.1-.3a41.7 41.7 0 0 0-4.3-3.7 32.4 32.4 0 0 0-6.4-3.6l.2.6c0 .6.2 1.1.3 1.6l.7 3.5c.5 2.3.7 4.6 1.2 7h-.2l-1.7-7-.8-3.6-.3-1.6-.2-1-.7-.2a19 19 0 0 0-10-1.4 9.8 9.8 0 0 0-7.2 5.9c-.1.3-.5.1-.5-.2.7-2.9 3.1-5 5.7-6.1Z"/><path fill="#263238" d="m434 345.6 1 4.5a33.6 33.6 0 0 1 .8 4.4c0 .1 0 .1 0 0a35.7 35.7 0 0 1-1-4.4l-1-4.5h.2ZM445.6 349.4c1.5.8 3 1.7 4.6 2.3.1 0 0 .2 0 .1-1.6-.7-3.2-1.4-4.6-2.3 0 0 0-.1 0 0Z"/><path fill="#d8b4a1" d="M416.2 318.8s14.7 1 21.5-8.7 5.3-23.5 5.3-23.5-15.4 1.8-21.5 8.8-5.3 23.4-5.3 23.4Z"/><path fill="#263238" d="M409.3 333.3c.5-1.6 1.2-3.2 1.8-4.7l1.8-4.4a93.4 93.4 0 0 1 4.4-8.6c1-1.8 2.1-3.5 3.3-5.2v-.8l.3-1.4.4-2.8 1.1-6c0-.1.2-.1.2 0l-.8 6-.4 3-.2 1a104.6 104.6 0 0 1 7.3-9.4l1-1.2.2-.4.3-.8.6-1.7a39.2 39.2 0 0 0 1.3-3.5l-1 3.6-.6 1.7-.1.2a216.1 216.1 0 0 1 6-5.8 103.9 103.9 0 0 0-10.5 12.7 10 10 0 0 1 1.1-.2c1.1-.3 2.3-.4 3.4-.6l7.2-1v.2c-2.3.4-4.6 1-6.8 1.5l-3.2.6a20.4 20.4 0 0 0-2.6.8l-.7 1a135 135 0 0 0-3.1 4.7l1.5-.3 3.4-.6a108 108 0 0 0 6.6-1c-2.2.5-4.4 1-6.6 1.7l-3.3.7-1.6.4a4.7 4.7 0 0 1-.7.1q-3.2 5.2-6 10.7l-2.3 4.8-2.2 5c0 .5-.6.3-.5 0Z"/><path fill="#263238" d="M424.3 299.6a194.6 194.6 0 0 1 1-4.2l-.7 4.1a37.9 37.9 0 0 1-.9 4.1 28 28 0 0 1 .6-4ZM432.9 299.1l2-.8 1.2-.5.6-.2a2.6 2.6 0 0 0 .6-.3c.1 0 .2.1 0 .2a2.4 2.4 0 0 0-.6.2l-.5.3-1 .4a21.3 21.3 0 0 1-2.3.9v-.2Z"/><path fill="#d8b4a1" d="M401.2 307.3s-8.9-16.6-22.4-19.2-21.7 11.3-21.7 11.3 9.8 12.6 22.2 14.8 21.9-7 21.9-7Z"/><path fill="#263238" d="M369.8 295.5a36.5 36.5 0 0 1 10.6.2l-.6-.3-3-1.6c-2.1-1-4.2-2.2-6.4-3v-.2l6.5 2.8 3.1 1.5 2 1.1a37.3 37.3 0 0 1 8.7 2.9L389 297c-1.3-1.4-2.5-2.8-3.9-4l.1-.2c1.5 1.3 3 2.5 4.3 3.8a40.2 40.2 0 0 1 2.8 3 35.6 35.6 0 0 1 18.1 24.5c0 .1 0 .2-.1 0a40.6 40.6 0 0 0-10-16.7 39 39 0 0 0-18-10.5 39.8 39.8 0 0 0-12.5-1.1.1.1 0 0 1 0-.3Z"/><path d="M357 299.4s10 12.6 22.3 14.8a26.7 26.7 0 0 0 20.4-5.7l.7-1s-6.4-5.5-18.5-8.6-24.8.5-24.8.5Z" opacity=".1"/><path fill="#263238" d="M377.6 289.6a34.4 34.4 0 0 1 3 2 19 19 0 0 1 2.6 2.4v.1l-2.8-2.3a31.4 31.4 0 0 0-2.9-2l.1-.2ZM370.2 292.4l1.5.6 1.5.7c.1 0 0 .2 0 .1l-1.5-.6-1.5-.6c-.1 0 0-.2 0-.2Z"/><path fill="#d8b4a1" d="M403 328.1s-2.4 16.5-14.7 22.2-27.5 0-27.5 0 6-35.6 42.2-22.2Z"/><path fill="#263238" d="m369.3 339.6 3.4-.5 1.7-.3.9-.2 1-1a50.2 50.2 0 0 1 7.5-5.4 43 43 0 0 1 4.5-2.3h-.2l-4 .1-8.2.4c-.1 0 0-.1 0-.1l8.1-.8 4-.3 2-.2h.6l2-.8a19.3 19.3 0 0 1 10.6-.6c3 .8 6.2 2.9 7 6.1 0 .2-.2.2-.2.1-1.2-2.7-4.2-4.1-7-4.7a16.4 16.4 0 0 0-5.6 0 12.9 12.9 0 0 1-.6 2.4l-1 3.5-2.2 6.9h-.1l1.6-7 .8-3.4a19.3 19.3 0 0 1 .7-2.3 29.4 29.4 0 0 0-3.2.8 45.9 45.9 0 0 0-5.6 2 46.9 46.9 0 0 1-2 7.8 2.6 2.6 0 0 1 0-.3l.8-4 .7-3.2c-1.5.7-3 1.4-4.5 2.3l-.1 1a54.7 54.7 0 0 1-1.1 5.4 58.7 58.7 0 0 1-2.2 7.2v.2l-.2-.1 1.8-7.3.8-3.7.3-1.8.1-.6a49 49 0 0 0-4.8 3.3 51.1 51.1 0 0 0-7.4 6.7s-.2 0-.1-.2a48.2 48.2 0 0 1 4.8-5.5h-.2c-.6 0-1.1.2-1.7.3l-3.5.4v-.3Z"/><path fill="#263238" d="M378 345.2a3 3 0 0 1 0-.4l.2-.6a72.2 72.2 0 0 0 .8-3.3 13.3 13.3 0 0 1-1 4.3ZM388.4 345v-.1l1-4.4.5-2.3.2-1.3a3.5 3.5 0 0 1 .3-1h.1a7.3 7.3 0 0 1-.3 2.2l-.5 2.4a79.4 79.4 0 0 1-1.4 4.8v-.4ZM370.4 334.9l6.8-1c.1 0 .2.2 0 .2l-6.8 1v-.2Z"/><path fill="#d8b4a1" d="M409.3 289.6s7.6-33.2-28-46.7c0 0-10 43.7 28 46.7Z"/><path fill="#263238" d="m401.6 270.7-.4-.2-2-1.1-4.1-2.3c-2.7-1.6-5.4-3.2-8.2-4.6l.1-.2 8.3 4.4 4.1 2.1 1.7 1a79 79 0 0 0-9.9-14.9.1.1 0 0 1 .2-.1 56.5 56.5 0 0 1 8.2 10v-7.6c0-.1.1-.1.1 0 0 1.6.3 3.2.4 4.7v3.8l2.2 3.6a62 62 0 0 1 3.2 6.7v-2.5l.5-5.5h.2v5.5l-.2 2.7v1a60.6 60.6 0 0 1 2.7 9.1 99.2 99.2 0 0 1 1.3 10 54.9 54.9 0 0 0-1.9-8.9l-1.4-4.7-4.3-2.3-4.5-2.5c-3-1.6-6-3.3-9-4.7-.1 0 0-.2 0-.1 3.2 1.4 6.3 2.7 9.4 4.2l4.5 2.5c1.2.7 2.5 1.4 3.6 2.2l-1-3.1a88.3 88.3 0 0 0-3.8-8.2Z"/><path fill="#263238" d="M404.6 263.1h.2l-.4 5.7h-.2c0-1.9.3-3.8.4-5.7ZM387.5 269.5c2.2.9 4.5 1.7 6.7 2.7l-6.7-2.6c-.1 0 0-.2 0-.1ZM384.1 254.2a59.4 59.4 0 0 1 6.4 3.4s0 .2-.1.1a110.4 110.4 0 0 0-6.3-3.5Z"/><path fill="#455a64" d="M436 415.6h-51.3v-54.2H436z"/><path fill="#263238" d="M437 380.5h2.6v88.7H437zM381.4 380.5h2.6v88.7h-2.6zM407.8 380.5h2.6v88.7h-2.6z"/><path fill="#263238" d="M438.3 419.6h-55.6V412h55.6z"/><path fill="#eb9481" d="M177.8 470.7c-2.3.8-66.5.6-69-1-.8-.6-1.4-10-1.7-21.2l-.1-7.5-.1-9.1.1-25.2h41.8V441l-.2 7.5s24.5 11.1 27 13 4.4 8.5 2.2 9.2Z"/><path fill="#263238" d="M177.8 470.7c-2.3.8-66.5.6-69-1a73 73 0 0 1-1.6-19c5.1 2.5 49.5 11.6 60 11.7 10 0-6-8-8.5-9.3 7 3.3 15.5 7.3 16.9 8.4 2.4 2 4.4 8.5 2.2 9.2ZM84.4 215l23.4 118.1c.4 1.9-4.2 108.6-4.2 108.6h48s0-94.3-2-110.5S122.8 215 122.8 215Z"/><path fill="#37474f" d="m84.4 215 17.6 88.7 20.8-88.7Z"/><path fill="#455a64" d="M143.6 429.9c-.7-26.6-1.3-70.2-2-96.7-2.8-15.3-7.4-37.4-10.3-52.7l-4-21.2a2278 2278 0 0 1 15.2 73.8c.9 32.3 1 64.5 1 96.8Z"/><path fill="#eb9481" d="M122.6 471.2c-2.2.7-66.4-.1-68.9-1.7a87 87 0 0 1-1.5-21.3l1.6-41.6 40.4.2-.6 41.8S118 460 120.5 462s4.3 8.5 2.1 9.2Z"/><path fill="#263238" d="M122.6 471.2c-2.3.7-66.4-.1-68.9-1.7-.8-.5-1.2-8-1.4-17.5 9.3 2.8 49 10 58.7 9.8 8.9 0-2.7-6.1-7.3-8.4 7 3.4 15.4 7.4 16.8 8.6 2.5 2 4.4 8.5 2.1 9.2ZM97 442.5H48s9.3-72 10-84.2c.4-6.2 4.3-73.2 8-103a56.8 56.8 0 0 1 5.8-40.3h51s-.8 22-6.6 36.7a89.7 89.7 0 0 0-13.3 5.9s-2.6 91.6-3.4 107.3c-1 20-2.7 77.6-2.7 77.6Z"/><path fill="#455a64" d="M90 436.9c1-29.3 3.7-69.7 4.8-99.1.5-23.9 1.3-53.3 2.1-77.2-.2 24-.7 53.3-1.2 77.2-1 29.5-3.9 69.8-5.7 99Z"/><path fill="#263238" d="M117.3 125c-6.3 7.6-1.5 14.2-4.3 16.7-7.2 6.6-2.2 9-4.1 11.3-1.6 2-7.8 3.6-5.6 10.6h28.5c.9-4.8-3.8-7.3-4.1-10.6s3.6-6.6-2.7-13.6c-4-4.6-4.7-18.2-7.7-14.5Z"/><path fill="#263238" d="M116.5 120.1s3.8 1.3 4.8 3.8c1.7 4.2.7 11.2.7 11.2Z"/><path fill="#eb9481" d="M100.8 164.4c1.8 12.6 18.4 45.2 27.3 49.6 6.4 3.1 36.8-5.3 45.6-9 8.4-3.6-6-29.3-11-27.5-7.3 2.5-24.5 11.3-27.2 10.6-2-.4-10.7-10.2-23.6-27-7.2-9.4-12.2-4.2-11 3.3Z"/><path fill="#eb9481" d="M174.3 171.2c4.5-.5 9.7-1.5 14.3-.3s7 8.1 6.7 10-4.7 12.2-9.4 11.1.1-8.8.2-9.8.1-2.3-.8-2.4-17.9 3.7-17.9 3.7Z"/><path fill="#eb9481" d="M174.5 171.9c.2 0 13.8-2 18.4-.8s7.1 8.1 6.7 9.9-4.7 12.3-9.3 11.3 0-8.9.1-9.9.2-2.3-.7-2.4-18 3.7-18 3.7Z"/><path fill="#263238" d="M188.8 191.3a5.8 5.8 0 0 1-.1-3 10 10 0 0 1 .8-2.9 15.8 15.8 0 0 0 1.2-2.4 5.3 5.3 0 0 0 0-2.6c-.3-.7-1-.7-1.7-.6a26 26 0 0 0-2.8.5l-3 .8a24.5 24.5 0 0 0-3 .9v.1a23.4 23.4 0 0 0 2.7-.5l2.9-.6 2.7-.6a2.8 2.8 0 0 1 1.3 0c.4 0 .3 1 .4 1.3a4.5 4.5 0 0 1-.8 2.5 13.6 13.6 0 0 0-1 2.4 6.9 6.9 0 0 0-.4 2.5 10 10 0 0 0 .6 2.2c.1.2.3 0 .2 0Z"/><path fill="#eb9481" d="m157 180.7 18.7-10.5c6.5-3.4 31.3-7.5 34.5-7s2.9 7-14 10.2c-9 1.7-11.4 6-11.9 8.6s1 8 5.3 8.9 8.6-4.8 12.7-4.6-.1 6.9-4 10.5a27.2 27.2 0 0 1-13.6 6.4c-4.1.5-16.8 2.8-16.8 2.8Z"/><path fill="#263238" d="M195.6 189c-2 1-4.1 2.2-6.3 1.8s-3.3-2.2-4-4.3a8.4 8.4 0 0 1 .2-6.2 10.4 10.4 0 0 1 4.1-4.2 25.2 25.2 0 0 1 6.8-2.5c.1 0 0-.2 0-.2-2.3.4-9 1.5-11.5 6.7a8.6 8.6 0 0 0-.2 6.4c.5 2 1.6 4 3.6 4.6 2.5.8 5.2-.8 7.4-2 .1 0 0-.1 0 0Z"/><path fill="#d8b4a1" d="m162 177.7 3.6 33.6s-30.6 7.5-38.3 3.3-23-33-27-49.3c-2.3-9.9 4.3-14.6 12.7-4.4 8.7 10.5 21 25.2 22 25.8s27-9 27-9Z"/><path d="M100.3 165.3c4 16.3 19.3 45.1 27 49.3 2.3 1.3 6.8 1.5 12 1.1l-31.7-59.6-.9-.4a3.8 3.8 0 0 0-.4-.1 5.5 5.5 0 0 0-1-.3 3.2 3.2 0 0 0-.4 0h-.5a4.2 4.2 0 0 0-1.9.4 3.4 3.4 0 0 0-.7.5c-1.8 1.5-2.5 4.8-1.5 9.1Z" opacity=".1"/><path fill="#263238" d="M158.2 210.1c.1-1.1 0-2.3-.1-3.4l-.2-3.4-.7-6.6-.7-6.5c-.3-2.1-.4-4.6-.8-6.9h-.1c0 2.3.3 4.6.4 6.9l.6 6.7.6 6.7.4 3.3a32.6 32.6 0 0 0 .5 3.3h.1Z"/><path fill="#ebebeb" d="M124.7 219.7s-39.4 1.7-56.2-.3c0 0 11.5-48.3 23.7-61.3 5.5-5.9 11-5 15.5-1.2 1.1 1 15.3 19 16.5 25.3 1.1 5.5-3.4 11.7-3.4 11.7Z"/><path fill="#455a64" d="m103.6 169.1 2.1-4.4 3.5 3.4-.6 3.2-3.4.4-1.6-2.6zM105.2 171.7l.9 32.8 7.3 14.5 4.9-14.5-9.7-33.2-3.4.4z"/><path fill="#d8b4a1" d="M107.3 156.3s6 16.4 6.4 20.6-1.5 20-1.5 20-9.3-16.6-11.5-22c-3.5-8.4-4.3-20-4.3-20s-3.4 1.6-8 7.8c-6 8.4-17 39.8-20.7 57.2l41.6 6 4.1-6.8 2.9 6.8 9.8-5.5-5.3-26.4s5.2-5.7 3-13.2c-2.4-8.4-16.5-24.5-16.5-24.5Z"/><path fill="#263238" d="M112.2 196.9a160.6 160.6 0 0 1 1.2 22.1 159 159 0 0 1-1.2-22.1ZM108.5 201.7a1 1 0 1 0 1.8 0 1 1 0 0 0-1.8 0Zm0 0a1.3 1.3 0 0 1 2.6 0 1.3 1.3 0 0 1-2.6 0ZM108.8 208.5a1 1 0 0 0 1.8 0 1 1 0 0 0-1.8 0Zm0 0a1.3 1.3 0 0 1 2.6 0 1.3 1.3 0 0 1-2.6 0ZM109.2 215.4a1 1 0 0 0 1.8 0 1 1 0 1 0-1.8 0Zm0 0a1.3 1.3 0 1 1 2.5 0 1.3 1.3 0 0 1-2.5 0Z"/><path fill="#000102" d="m95.2 203.1-14.7-2.6-.4 1.9 14.7 2.6.4-1.9z" opacity=".1"/><path fill="#263238" d="M119.1 172c0-.2.1-.3.2-.2a41.8 41.8 0 0 1 2.7 4.3l-1-2.8a23.4 23.4 0 0 1 1.4 3.7c1.9 3.7 3 7.7 1.8 12a10.9 10.9 0 0 1-1.9 3.7 8.5 8.5 0 0 0-1 1.6l.5 3 2.3 10.9 1.2 6a59.2 59.2 0 0 1 1 6h-.1a93.6 93.6 0 0 1-2.5-10.6l-2.1-10.6a44 44 0 0 1-.9-5l1-1.4a10.2 10.2 0 0 0 1-1.8 14.2 14.2 0 0 0 1-8.8 29.5 29.5 0 0 0-4.6-10ZM114.3 195.5a43.1 43.1 0 0 0-6.3 1l-3 .9-1.5.4a7 7 0 0 1-1.7.3v.1a11.6 11.6 0 0 0 1.6 0 10.9 10.9 0 0 0 1.5-.3l3.1-.8a89.4 89.4 0 0 1 6.3-1.6ZM119.5 197.3a44 44 0 0 0-5.2-.2l-2.7.1-1.2.2-1.4.2v.1H114.3a153.2 153.2 0 0 1 5.2-.3Z"/><path fill="#263238" d="m115.7 242.3 36.6 2.7 10.8-51.3-36.6-2.7-10.8 51.3z"/><path fill="#455a64" d="m117.5 242.4 36.6 2.8 10.8-51.4-36.6-2.7-10.8 51.3z"/><path fill="#fff" d="M146.2 216.2a4 4 0 0 1-4.1 3.3 3.2 3.2 0 0 1-3-3.8 4 4 0 0 1 4-3.3 3.2 3.2 0 0 1 3 3.8Z"/><path fill="#eb9481" d="M91.3 159c-11.3 12.1-37.4 44.6-32 52.2 9 12.6 32.6 25 40.1 28 3.2 1.3 17.3-21.7 14.4-24-3.6-2.7-27.6-13-27.3-15.3.2-1.3 4.8-14.8 8.7-28.3 4.5-15.7 0-16.8-4-12.7Z"/><path fill="#eb9481" d="M101.8 212.4s10.4-2 17.3-3c3.8-.6 10.5-1 13.5 0 4.4 1.2 22.4 9.5 20.5 14-1.8 4-16.3-5.2-16.3-5.2s15.4 7.9 12.5 12.3-18-8-18-8 15.7 8.4 11.9 12.4c-2.9 3-17.1-7.4-17.1-7.4s13.4 7.3 10.6 10.6c-3.1 3.6-16.8-5.3-16.8-5.3-8.6 7.2-15.6 7.8-20.5 6.4-1.2-.3 2.4-26.8 2.4-26.8Z"/><path fill="#263238" d="M132.4 215.5c11.8 5 16 11 16 10.9-3.5-3.3-9.8-7-11.5-8l-4.5-2.8c-.1 0 0 0 0 0ZM127.8 221.4a43.7 43.7 0 0 1 13.4 7.8 715.6 715.6 0 0 0-13.3-7.8ZM123.6 226.3a32.3 32.3 0 0 1 10.1 6.3c.2.1 0 .2-.1 0l-10-6.2c-.1 0 0-.2 0-.1Z"/><path fill="#d8b4a1" d="m99.7 207.1-15.3 26.5s-25.8-15.3-26.8-25.4 26.6-42.8 31.8-48.1c1.5-1.5 5.4-4.8 7.1-4.2 2 .6 1.5 3.5.7 10.2-1 8.9-10.1 32.7-9.7 33.8s12.2 7.2 12.2 7.2Z"/><path fill="#263238" d="m79.8 228.7 2-2.9 1.7-2.9 3.4-5.7 3.3-5.7c1.1-1.9 2.4-3.9 3.4-6h-.2c-1.3 1.8-2.4 3.8-3.6 5.8l-3.5 5.7-3.5 5.8-1.6 2.9c-.6 1-1.1 1.9-1.5 2.9 0 .1 0 .2.1 0ZM87.1 199.8a14.7 14.7 0 0 1 .9-3c.7-2.2 3.2-10.4 4-12.5.8-2.4 1.6-4.8 2.6-7.2 0 0 .1 0 0 0-.3 1.5-1 3.4-1.5 5.4l.4-.6a13.1 13.1 0 0 0 1.2-2 16.2 16.2 0 0 1-1 2c-.1.4-.3.7-.6 1l-.4.6-5 15.9c0 .2 10 6.2 12.2 7.6l-.5.7h-.1a2 2 0 0 1 .2-.5 81.3 81.3 0 0 1-12.4-7.4Z"/><path fill="#eb9481" d="M96.8 158c.3 1 4.6 6.4 9.3 6 1.6-.1 2.1-7.5 2.1-7.5l.1-.6 1.6-8.8-10.6-6.1-1.5-.8-.6 5.5v.9l-.1 1.4-.1 1v1.2a58.5 58.5 0 0 0-.2 7.9Z"/><path fill="#263238" d="M97.2 145.7a18 18 0 0 0 11.1 10.2l1.6-8.8-10.6-6.1-1.5-.8-.6 5.5Z"/><path fill="#ebebeb" d="m108.4 156.1-3 7-8.7-9.1-2.6 2.9s8.5 14.4 8.5 13.8l3-6.1 4.2 4.3-.2-10.7Z"/><path fill="#263238" d="M110 163.6c0-1.7 0-3.5-.3-5.3-.5 1.7 0 8.5 0 10.1l-4-3.8c-.6 1-2.9 5.4-3 5.9-1.3-2.3-6.5-10.7-8-12.9h-.2c1.2 2.5 8 13.8 8.1 13.7a70 70 0 0 0 3.2-6.4c.6.8 4.4 4.9 4.4 4.6a56.7 56.7 0 0 0-.2-5.9Z"/><path fill="#eb9481" d="M123 134.2c1.5 15.7-7.8 18.3-11.2 18.6-3 .3-13.5.8-16.6-14.6s3.9-21.1 10.9-22.1 15.6 2.4 17 18.1Z"/><path fill="#263238" d="M119.4 131.3a9.6 9.6 0 0 1-1-.2 1.7 1.7 0 0 1-1-.4.5.5 0 0 1 0-.7 1.4 1.4 0 0 1 1.3-.4 2 2 0 0 1 1.3.7.6.6 0 0 1-.6 1ZM108.5 131.6l1-.2a1.7 1.7 0 0 0 1-.5.6.6 0 0 0 0-.7 1.4 1.4 0 0 0-1.4-.3 2 2 0 0 0-1.2.8.6.6 0 0 0 .5 1ZM111 135.4v.1c0 1 0 2.3-1 2.7 1.2-.1 1.3-1.8 1-2.8Z"/><path fill="#263238" d="M110 134.3c-1.7 0-1.7 3.5 0 3.5s1.5-3.4 0-3.5Z"/><path fill="#263238" d="M109.4 134.5c-.3.2-.6.6-1 .6s-.8-.3-1-.6c0 .6.2 1.3 1 1.4s1-.5 1.2-1.2c0 0-.1-.3-.2-.2ZM117.4 135l.1.1c0 1 .1 2.3 1.1 2.7-1.2-.1-1.4-1.8-1.2-2.8Z"/><path fill="#263238" d="M118.4 133.9c1.7-.2 1.9 3.3.3 3.4s-1.8-3.3-.3-3.4Z"/><path fill="#263238" d="M119.1 134c.3.3.6.6 1 .6s.6-.4.8-.8c0 .7-.1 1.4-.7 1.6s-1-.4-1.2-1.1c0-.1 0-.3.1-.2ZM111.5 144.3c.3.3.5.6.9.7a2.8 2.8 0 0 0 1.1-.2 1.4 1.4 0 0 1-1.4.6 1.1 1.1 0 0 1-.7-1h.1ZM116.3 140.4l.2 2.3c0 .1-.2.2-.5.2a3.6 3.6 0 0 1-3.4-1.4v-.1a5.4 5.4 0 0 0 3.3 1c.1-.3-.4-2.8-.3-2.8a6.7 6.7 0 0 1 1.8.4c-.3-3.3-1.2-6.6-1.4-10a.1.1 0 0 1 .2 0 53.9 53.9 0 0 1 2 10.7c0 .4-1.6-.2-2-.3Z"/><path fill="#263238" d="M115.7 142.7a4 4 0 0 1-1.7 1.3 1.8 1.8 0 0 1-1.1 0c-.9-.2-.9-1-.7-1.5a4.5 4.5 0 0 1 .4-1 5.3 5.3 0 0 0 3.1 1.2Z"/><path fill="#ff9cbd" d="M114 144a1.8 1.8 0 0 1-1.1 0c-.9-.2-.9-1-.7-1.5a2 2 0 0 1 1.8 1.5Z"/><path fill="#263238" d="M109 115.8c-7.5-.7-13.8.7-17 4.4-6.5 7.5-3.3 20.8-6.1 23.2-7.5 6.3-2.5 8.8-4.5 11.1-1.7 2-8 3.4-6 10.5l28.6.8c1-4.7-3.6-7.4-3.9-10.7s3.9-6.5-2.2-13.7c-3.9-4.7 11.1-25.6 11.1-25.6Z"/><path fill="#263238" d="M94.7 137.8c1.8.1 6 .4 8.6-1.8 1.5-1.2 2.8-3.2 3.5-7 1.4-6.4 5.9-10.6 12.7-6.8 0 0 1.4-5.8-2.6-8.2s-8.2 1.4-8.2 1.4-9-.9-13.7 5.9-.3 16.5-.3 16.5Z"/><path fill="#eb9481" d="M96.2 144a3.7 3.7 0 0 0 .7.2 2.3 2.3 0 0 0 .8 0 2 2 0 0 0 .9-.3 2.3 2.3 0 0 0 .6-.5 3 3 0 0 0 .6-.9l-1-4.2s-3.4-4.9-5.6-3.7.4 8.4 3 9.4Z"/><path fill="#263238" d="M94 136.7c1.8.8 2.8 2.5 3.5 4.3a1.5 1.5 0 0 0-2.2-.4 1.6 1.6 0 0 1 1.8.6 7.6 7.6 0 0 1 .9 1.5c0 .2.4 0 .3-.1 0-2.4-1.8-5.7-4.3-5.9Z"/><path fill="#fff" d="M96.4 143.3a.7.7 0 0 0 .9.6.7.7 0 0 0 .5-.9.7.7 0 0 0-.8-.5.7.7 0 0 0-.6.8ZM94.9 142.3a.5.5 0 0 0 .6.3.5.5 0 1 0-.6-.3ZM44.7 110a21.6 21.6 0 0 0 36.1 13.6l10.8 1.6-5.4-9.3a21.6 21.6 0 1 0-41.5-6Z"/><path fill="#263238" d="M51.1 92a21.9 21.9 0 0 1 35.5 24v-.4L92 125l.4.7-.8-.1-10.8-1.7h.3a21.8 21.8 0 0 1-10.7 5.2 20 20 0 0 1-3 .3 23.1 23.1 0 0 1-3 0 22 22 0 0 1-11-4.3 23.4 23.4 0 0 1-2.4-2 21.8 21.8 0 0 1 .1-31Zm-2 28.9a24.4 24.4 0 0 0 2 2.2 23 23 0 0 0 2.2 1.9 20.1 20.1 0 0 0 5.3 2.8 21.2 21.2 0 0 0 5.7 1.3 20.9 20.9 0 0 0 3 0 19.4 19.4 0 0 0 3-.4 21.3 21.3 0 0 0 10.3-5.3l.1-.1h.2l10.8 1.5-.4.6L86 116l-.1-.1v-.2a21.7 21.7 0 0 0 1.6-9.5 21.4 21.4 0 0 0-2.8-9.1 22.4 22.4 0 0 0-6.4-7 21.6 21.6 0 0 0-18.6-2.9 21.4 21.4 0 0 0-10.5 33.6Z"/><path fill="#263238" d="M77.3 107.7a2 2 0 1 1-2-2 2 2 0 0 1 2 2ZM67.8 107.7a2 2 0 1 1-2-2 2 2 0 0 1 2 2ZM58.2 107.7a2 2 0 1 1-2-2 2 2 0 0 1 2 2Z"/></svg>