<svg xmlns="http://www.w3.org/2000/svg" viewBox="0 0 500 500"><path fill="#37474f" d="M488.6 246.7a284.7 284.7 0 0 0-55.4-137c-98.6-125.3-296.6-125-390.8 32.4C15.8 186.6-1 285.3 18.8 358.4c25.3 93.5 124.9 129.9 235.6 129 103.5-.8 184.8-45.8 215.3-108 19-38.8 24-79 18.9-132.7Z"/><path fill="#263238" d="M42.4 142.1C15.8 186.6-1 285.3 18.8 358.4a148.5 148.5 0 0 0 19.9 44l110-63.5 93.7-54 220-127.1c-9.1-19-19.5-35.6-29.2-48C334.6-15.6 136.6-15.4 42.4 142Z"/><g fill="#455a64"><path d="M408.2 58a14.4 14.4 0 0 0-3.7-.4c-1.2-.1-1.6-.3-1.8-.5-2.9-3-7.7-3.2-10.6-2.3-.7-2.2-4.2-4-8-3.4.1-2.8-4.6-5.8-8.9-6.5-4-.6-7.7-.3-10 1.7-2.5-3.7-12.3-4.7-17.6-2.8-3 1.1-5.7 2.3-7 4.4a7 7 0 0 0-1 4.1c-2.2-1.3-6.3-1.7-9-.9-3 .9-3.3 2.5-3.4 4.3a13.9 13.9 0 0 0-5.5-.1c-1.9.4-3 1.5-2.7 2.4-1.5 0-5 .8-4.6 2s4.5 1.2 6 1.1a36.4 36.4 0 0 0 4.2-.5 8.7 8.7 0 0 0 2.2.3c2.6 0 3.7-.8 4.1-1.5 1.3 2 5.7 3.5 8.9 4 6 1.2 14.4.5 18-2.8a5.6 5.6 0 0 0 1.8 1.6A12.5 12.5 0 0 0 365 64c2.4.2 9 .4 10.8-2.5 1.4 2 7.2 2.8 11.6 2.3a22.8 22.8 0 0 0 5-1.1c1.2-.4 1.9-.8 2.9-1.3a3 3 0 0 1 2.4-.1 19.3 19.3 0 0 0 9.7 0c2.5-.8 3-2.3.7-3.1ZM226.6 415.3a17.9 17.9 0 0 0-4.7-.6c-1.5-.1-2-.3-2.3-.6-3.6-4-9.8-4.1-13.4-3-.9-2.7-5.3-5-10.1-4.3.1-3.5-5.9-7.3-11.3-8.2-5.2-.8-9.8-.5-12.7 2.1-3.2-4.6-15.6-6-22.4-3.5-3.8 1.4-7.1 2.9-8.7 5.5a8.8 8.8 0 0 0-1.5 5.3 16 16 0 0 0-11.4-1.2c-3.8 1.1-4 3.2-4.2 5.4a17.4 17.4 0 0 0-7 0c-2.3.5-3.7 1.8-3.3 3-2-.1-6.4 1-5.9 2.5.6 1.7 5.7 1.5 7.6 1.5a48 48 0 0 0 5.4-.7 11 11 0 0 0 2.8.4c3.2 0 4.6-1 5.1-2 1.6 2.6 7.3 4.5 11.3 5.2 7.5 1.5 18.2.6 22.9-3.6a7 7 0 0 0 2.2 2 15.8 15.8 0 0 0 7 2.1c3.1.2 11.4.5 13.8-3.2 1.6 2.5 9 3.6 14.7 3a29 29 0 0 0 6.3-1.4c1.4-.5 2.3-1 3.6-1.6a3.9 3.9 0 0 1 3-.2c4 .9 8.4 1.2 12.4 0 3.1-1 3.8-2.9.8-3.9ZM337.9 85.8a8.2 8.2 0 0 0-2.4-.4c-.7 0-1-.1-1.1-.3a6.4 6.4 0 0 0-6.8-1.6c-.4-1.5-2.7-2.8-5-2.4 0-1.9-3-4-5.8-4.5s-4.9-.2-6.4 1.2c-1.5-2.6-7.8-3.3-11.2-2-2 .8-3.6 1.6-4.4 3a5.1 5.1 0 0 0-.7 3 7.4 7.4 0 0 0-5.8-.7c-1.9.6-2 1.8-2.1 3a8 8 0 0 0-3.5 0c-1.2.3-1.8 1-1.7 1.7-1 0-3.2.6-3 1.4s3 .8 3.9.8a20.2 20.2 0 0 0 2.7-.4 5.4 5.4 0 0 0 1.4.3c1.6 0 2.3-.6 2.6-1.1.8 1.4 3.6 2.4 5.7 2.8 3.8.8 9.1.3 11.5-2a3.6 3.6 0 0 0 1.1 1.2 7.5 7.5 0 0 0 3.5 1.1c1.6.1 5.8.3 7-1.7.8 1.3 4.5 2 7.3 1.6a13.4 13.4 0 0 0 3.2-.8l1.8-.9a1.8 1.8 0 0 1 1.6 0 11.2 11.2 0 0 0 6.2 0c1.5-.7 1.9-1.8.4-2.3ZM278.4 445.3a10.3 10.3 0 0 0-2.9-.4c-1 0-1.2-.2-1.4-.4-2.3-2.6-6-2.7-8.2-2-.6-1.8-3.3-3.4-6.2-2.8 0-2.4-3.6-5-7-5.5s-6-.3-7.7 1.4c-2-3.1-9.6-4-13.7-2.4-2.4 1-4.4 2-5.4 3.7a6.3 6.3 0 0 0-1 3.6c-1.5-1.2-4.7-1.5-7-.8-2.2.7-2.4 2.1-2.5 3.6a10 10 0 0 0-4.2 0c-1.5.3-2.3 1.2-2.1 2-1.2 0-4 .6-3.6 1.6s3.5 1 4.6 1a26.4 26.4 0 0 0 3.3-.4 6.3 6.3 0 0 0 1.7.3c2 0 2.9-.8 3.2-1.4 1 1.7 4.5 3 7 3.5 4.5 1 11 .4 14-2.4a4.5 4.5 0 0 0 1.3 1.3 9 9 0 0 0 4.3 1.4c1.9.2 7 .4 8.4-2 1 1.6 5.6 2.3 9 2a17 17 0 0 0 3.9-1l2.2-1.1a2.2 2.2 0 0 1 1.9-.1 13.7 13.7 0 0 0 7.5 0c2-.7 2.4-2 .6-2.7Z"/></g><path fill="#d8b4a1" d="M59 265.4a1.4 1.4 0 1 1-1.5-1.4 1.4 1.4 0 0 1 1.4 1.4Z"/><path fill="#fff" d="M59 265.4a1.4 1.4 0 1 1-1.5-1.4 1.4 1.4 0 0 1 1.4 1.4Z" opacity=".7"/><path fill="#d8b4a1" d="M435.8 144.9a1.5 1.5 0 1 1-1.1 1.8 1.5 1.5 0 0 1 1-1.8Z"/><path fill="#fff" d="M435.8 144.9a1.5 1.5 0 1 1-1.1 1.8 1.5 1.5 0 0 1 1-1.8Z" opacity=".7"/><path fill="#d8b4a1" d="M100.6 106a1.4 1.4 0 1 1-1.8-.5 1.4 1.4 0 0 1 1.8.6Z"/><path fill="#fff" d="M100.6 106a1.4 1.4 0 1 1-1.8-.5 1.4 1.4 0 0 1 1.8.6Z" opacity=".7"/><path fill="#d8b4a1" d="M177.7 52.7a2 2 0 1 1-1.5 2.5 2 2 0 0 1 1.5-2.5Z"/><path fill="#fff" d="M177.7 52.7a2 2 0 1 1-1.5 2.5 2 2 0 0 1 1.5-2.5Z" opacity=".7"/><path fill="#d8b4a1" d="M33.9 314a2.4 2.4 0 1 0 3.1 1.2 2.3 2.3 0 0 0-3.1-1.1Z"/><path fill="#fff" d="M33.9 314a2.4 2.4 0 1 0 3.1 1.2 2.3 2.3 0 0 0-3.1-1.1Z" opacity=".7"/><path fill="#d8b4a1" d="M371.4 91.2a1.7 1.7 0 1 0 2.4-.8 1.7 1.7 0 0 0-2.4.8Z"/><path fill="#fff" d="M371.4 91.2a1.7 1.7 0 1 0 2.4-.8 1.7 1.7 0 0 0-2.4.8Z" opacity=".7"/><path fill="#d8b4a1" d="M230.9 126.8a1.6 1.6 0 1 0 2.1-.7 1.6 1.6 0 0 0-2.1.7Z"/><path fill="#fff" d="M230.9 126.8a1.6 1.6 0 1 0 2.1-.7 1.6 1.6 0 0 0-2.1.7Z" opacity=".7"/><path fill="#d8b4a1" d="M257.6 168.2a.9.9 0 1 1-.9-.9.9.9 0 0 1 .9.9Z"/><path fill="#fff" d="M257.6 168.2a.9.9 0 1 1-.9-.9.9.9 0 0 1 .9.9Z" opacity=".8"/><path fill="#d8b4a1" d="M364.7 95.8a1 1 0 1 1-.7 1.2 1 1 0 0 1 .7-1.2Z"/><path fill="#fff" d="M364.7 95.8a1 1 0 1 1-.7 1.2 1 1 0 0 1 .7-1.2Z" opacity=".8"/><path fill="#d8b4a1" d="M253 239.9a1.2 1.2 0 0 1 1.4.8 1.2 1.2 0 0 1-.8 1.5 1.2 1.2 0 0 1-1.5-.9 1.2 1.2 0 0 1 .9-1.4Z"/><path fill="#fff" d="M253 239.9a1.2 1.2 0 0 1 1.4.8 1.2 1.2 0 0 1-.8 1.5 1.2 1.2 0 0 1-1.5-.9 1.2 1.2 0 0 1 .9-1.4Z" opacity=".7"/><path fill="#d8b4a1" d="M247.9 239.1a.6.6 0 1 1 .3 1.2.6.6 0 0 1-.8-.5.6.6 0 0 1 .5-.7Z"/><path fill="#fff" d="M247.9 239.1a.6.6 0 1 1 .3 1.2.6.6 0 0 1-.8-.5.6.6 0 0 1 .5-.7Z" opacity=".8"/><path fill="#d8b4a1" d="M168.9 51.4a1 1 0 0 1 1.2.8 1 1 0 1 1-1.2-.8Z"/><path fill="#fff" d="M168.9 51.4a1 1 0 0 1 1.2.8 1 1 0 1 1-1.2-.8Z" opacity=".8"/><path fill="#d8b4a1" d="M267.8 37.4a1.4 1.4 0 1 1-1.6 1.3 1.4 1.4 0 0 1 1.6-1.3Z"/><path fill="#fff" d="M267.8 37.4a1.4 1.4 0 1 1-1.6 1.3 1.4 1.4 0 0 1 1.6-1.3Z" opacity=".8"/><path fill="#d8b4a1" d="M299 191.7a1.7 1.7 0 1 1-2.3-.8 1.7 1.7 0 0 1 2.2.8Z"/><path fill="#fff" d="M299 191.7a1.7 1.7 0 1 1-2.3-.8 1.7 1.7 0 0 1 2.2.8Z" opacity=".7"/><path fill="#d8b4a1" d="M296.1 198a1 1 0 1 1-1.3-.6 1 1 0 0 1 1.3.5Z"/><path fill="#fff" d="M296.1 198a1 1 0 1 1-1.3-.6 1 1 0 0 1 1.3.5Z" opacity=".7"/><path fill="#d8b4a1" d="M291 193.3a.8.8 0 0 1-.4 1 .8.8 0 1 1 .5-1Z"/><path fill="#fff" d="M291 193.3a.8.8 0 0 1-.4 1 .8.8 0 1 1 .5-1Z" opacity=".8"/><path fill="#d8b4a1" d="M41 306.5a1.2 1.2 0 1 0 1.6.6 1.2 1.2 0 0 0-1.6-.6Z"/><path fill="#fff" d="M41 306.5a1.2 1.2 0 1 0 1.6.6 1.2 1.2 0 0 0-1.6-.6Z" opacity=".8"/><path fill="#d8b4a1" d="M53 342.2a1.6 1.6 0 1 0 1.2-1.8 1.6 1.6 0 0 0-1.2 1.8Z"/><path fill="#fff" d="M53 342.2a1.6 1.6 0 1 0 1.2-1.8 1.6 1.6 0 0 0-1.2 1.8Z" opacity=".8"/><path fill="#d8b4a1" d="M307.2 120.3a1.4 1.4 0 1 0 1.9-.6 1.4 1.4 0 0 0-2 .6Z"/><path fill="#fff" d="M307.2 120.3a1.4 1.4 0 1 0 1.9-.6 1.4 1.4 0 0 0-2 .6Z" opacity=".8"/><path fill="#d8b4a1" d="M224.7 131.1a.9.9 0 1 1-.7 1 .8.8 0 0 1 .7-1Z"/><path fill="#fff" d="M224.7 131.1a.9.9 0 1 1-.7 1 .8.8 0 0 1 .7-1Z" opacity=".8"/><path fill="#d8b4a1" d="M57.5 171.2a1.4 1.4 0 0 1-1.6 1.2 1.4 1.4 0 1 1 1.6-1.2Z"/><path fill="#fff" d="M57.5 171.2a1.4 1.4 0 0 1-1.6 1.2 1.4 1.4 0 1 1 1.6-1.2Z" opacity=".8"/><path fill="#d8b4a1" d="M240.3 68.2a6.8 6.8 0 1 1 6.7-6.7 6.8 6.8 0 0 1-6.7 6.7Zm0-12.7a6 6 0 1 0 5.9 6 6 6 0 0 0-6-6Z"/><path fill="#d8b4a1" d="M240.3 59.6a1.9 1.9 0 1 1-1.9 1.9 1.9 1.9 0 0 1 1.9-2Z"/><path fill="#fff" d="M240.3 59.6a1.9 1.9 0 1 1-1.9 1.9 1.9 1.9 0 0 1 1.9-2Z" opacity=".8"/><path fill="#d8b4a1" d="M44.5 229.9a6.6 6.6 0 1 1 6.6-6.6 6.6 6.6 0 0 1-6.6 6.6Zm0-12.6a6 6 0 1 0 6 6 6 6 0 0 0-6-6Z"/><path fill="#d8b4a1" d="M44.5 221.4a1.9 1.9 0 1 1-1.9 1.9 1.8 1.8 0 0 1 1.9-1.9Z"/><path fill="#fff" d="M44.5 221.4a1.9 1.9 0 1 1-1.9 1.9 1.8 1.8 0 0 1 1.9-1.9Z" opacity=".8"/><path fill="#d8b4a1" d="m87.7 269.1 90.9 52.5V101.9l-90.9 52.5v114.7z"/><path d="m87.7 269.1 90.9 52.5V101.9l-90.9 52.5v114.7z" opacity=".4"/><path fill="#37474f" d="m178.6 321.6-90.9-52.5v105l90.9-52.5z"/><path fill="#d8b4a1" d="m178.6 321.6 4.3 2.5V99.4l-4.3 2.5v219.7z"/><path fill="#fff" d="m178.6 321.6 4.3 2.5V99.4l-4.3 2.5v219.7z" opacity=".4"/><path d="m178.6 321.6 4.3 2.5V99.4l-4.3 2.5v219.7z" opacity=".1"/><path fill="#d8b4a1" d="m182.9 324.1 7.3-4.2V84L80.7 147.3v235.8l7-4.1V154.4l95.2-55v224.7z"/><path fill="#fff" d="m182.9 324.1 7.3-4.2V84L80.7 147.3v235.8l7-4.1V154.4l95.2-55v224.7z" opacity=".7"/><path fill="#d8b4a1" d="M190.2 84 80.7 147.3l-4.2-2.5L186 81.6l4.2 2.4z"/><path fill="#fff" d="M190.2 84 80.7 147.3l-4.2-2.5L186 81.6l4.2 2.4z" opacity=".8"/><path fill="#d8b4a1" d="M80.7 383.1V147.3l-4.2-2.5-.1 235.8 4.3 2.5z"/><path fill="#fff" d="m76.5 144.8-.1 235.8 4.3 2.5V147.3" opacity=".6"/><path fill="#d8b4a1" d="M487.7 322.5a196.4 196.4 0 0 1-18 57 171.1 171.1 0 0 1-72.1 72.5l-6.8 3.7L185 360.3l-97.4 15v-221l95.2-55 52.8 189.3s154.2 21.8 252 33.9Z" opacity=".3"/><path fill="#fff" d="M487.7 322.5a196.4 196.4 0 0 1-18 57 171.1 171.1 0 0 1-72.1 72.5l-6.8 3.7L185 360.3l-97.4 15v-221l95.2-55 52.8 189.3s154.2 21.8 252 33.9Z" opacity=".3"/><path fill="#e0e0e0" d="M168.3 169.2a145.3 145.3 0 0 0-3.9-29.7c-4.2-18.2-9.4-37.1-20.7-52.3-.4-.5-.8.6-.6 1a154 154 0 0 1 19 49.8 147.4 147.4 0 0 1 4.2 29c.4 10.7-1.3 21.3-1.5 32 0 .4.4.6.5.2 3-9.5 3.2-20.1 3-30Z"/><path fill="#d8b4a1" d="M151.7 65.5a6.3 6.3 0 0 0-5.3-2.7 5.5 5.5 0 0 0-4.8 3.4c-.6-1.2-2.3-1.4-3.5-1a6.6 6.6 0 0 0-4.5 4.9c-.8-.3-1.2-1.3-2-1.8a3 3 0 0 0-2.4-.1 10 10 0 0 0-4.6 3.7 2.6 2.6 0 0 0-.1 2.9c.2.4 1.6 1.4 1.5 1.8s-1.6.8-2 1.2a4.4 4.4 0 0 0-1.2 4 7.3 7.3 0 0 0 2.4 3.5 22.2 22.2 0 0 0 15.7 5.8 8.6 8.6 0 0 1 3.4.2 1.4 1.4 0 0 0 .7.2 1.2 1.2 0 0 0 .6-.5l4-5a13.5 13.5 0 0 0 2.6-4.1c.9-2.7 0-5.6.2-8.3s1-5.5-.7-8Z"/><path fill="#fff" d="M151.7 65.5a6.3 6.3 0 0 0-5.3-2.7 5.5 5.5 0 0 0-4.8 3.4c-.6-1.2-2.3-1.4-3.5-1a6.6 6.6 0 0 0-4.5 4.9c-.8-.3-1.2-1.3-2-1.8a3 3 0 0 0-2.4-.1 10 10 0 0 0-4.6 3.7 2.6 2.6 0 0 0-.1 2.9c.2.4 1.6 1.4 1.5 1.8s-1.6.8-2 1.2a4.4 4.4 0 0 0-1.2 4 7.3 7.3 0 0 0 2.4 3.5 22.2 22.2 0 0 0 15.7 5.8 8.6 8.6 0 0 1 3.4.2 1.4 1.4 0 0 0 .7.2 1.2 1.2 0 0 0 .6-.5l4-5a13.5 13.5 0 0 0 2.6-4.1c.9-2.7 0-5.6.2-8.3s1-5.5-.7-8Z" opacity=".2"/><path fill="#d8b4a1" d="M151.6 82a7 7 0 0 0-1.2-6.6c-.6.3-.6 1.2-.5 1.8s.2 1.5-.3 2c-1.2-3.2-1.8-7-4.2-9.3-.2-.2-.4-.4-.7-.3s-.2.4-.2.7a9.1 9.1 0 0 0 .7 2.1 3 3 0 0 1 .2 2.3 9.2 9.2 0 0 0-2.5-2.8.4.4 0 0 0-.3-.2c-.3 0-.4.3-.3.5a1.9 1.9 0 0 0 .4.5 1.8 1.8 0 0 1 0 2.3.5.5 0 0 1-.4.2c-.2 0-.3-.3-.4-.5l-1-3.2a2.5 2.5 0 0 0-.5-1 .9.9 0 0 0-1-.2c-.4.3-.4.8-.3 1.3a7.6 7.6 0 0 1 0 4 .5.5 0 0 1-.4.4.6.6 0 0 1-.4-.2l-1.5-1.3c-.3-.3-.9-.6-1.2-.2s-.1.6 0 1l.7 1.5v.6c-.1.2-.5 0-.6-.1l-1.6-1c0 1.1 1 2 1 3.2a.6.6 0 0 1-.2.5.7.7 0 0 1-.7-.1 33.6 33.6 0 0 1-3-2.3 5 5 0 0 0-3.3-1.4.6.6 0 0 0-.3.1c-.2.2-.1.6 0 .8 1.3 2 4.2 2.7 5 4.9l-3.2-1.6a.7.7 0 0 0-.5-.1.5.5 0 0 0-.2.6 1.3 1.3 0 0 0 .4.5c1 .7 2 1.2 3 2a6.2 6.2 0 0 1 2.4 2.6.7.7 0 0 1 0 .4.5.5 0 0 1-.6.3 1.7 1.7 0 0 1-.6-.4 7.8 7.8 0 0 0-2.7-1.3 2.1 2.1 0 0 0-2 .3.7.7 0 0 0-.3.4 1 1 0 0 0 .3.7 15 15 0 0 0 13.8 5.2 8 8 0 0 0 3.8-1.6 12 12 0 0 0 2.3-2.8q1.1-1.7 2.4-3.3a9.2 9.2 0 0 0 1.7-2.6M131.5 68.3a3 3 0 0 0-2.3-.1 10 10 0 0 0-4.6 3.7 2.5 2.5 0 0 0-.4 2 4 4 0 0 1 1-1.8 2.7 2.7 0 0 1 3-.6.8.8 0 0 0 .5.2.7.7 0 0 0 .3-.3 10.2 10.2 0 0 1 1.7-2.7 1.5 1.5 0 0 1 .8-.4Zm20.2-2.8a6.3 6.3 0 0 0-5.3-2.7 5.7 5.7 0 0 0-2.5.7 2.4 2.4 0 0 1 .8.2 6.7 6.7 0 0 0 1.5 1l1.4.1a1.4 1.4 0 0 1 .5 1.3 6.5 6.5 0 0 0 0 1.4 2.8 2.8 0 0 0 2 1.6 3.3 3.3 0 0 1 .8.4c.8.7.5 2 1 2.8a1.6 1.6 0 0 0 .5.6c.3-2.6 1-5-.7-7.4Zm-12.2-.5a4.3 4.3 0 0 0-1.4.2 6.6 6.6 0 0 0-4.2 3.9 1.9 1.9 0 0 0 1 .5 1 1 0 0 0 .5 0c.5-.2.6-1 1.1-1.2s1 .1 1.5.4a.5.5 0 0 0 .3.1.5.5 0 0 0 .2 0c.8-.8.5-2.5.8-3.6l.2-.3Z"/><path fill="#fff" d="M131.5 68.3a3 3 0 0 0-2.3-.1 10 10 0 0 0-4.6 3.7 2.5 2.5 0 0 0-.4 2 4 4 0 0 1 1-1.8 2.7 2.7 0 0 1 3-.6.8.8 0 0 0 .5.2.7.7 0 0 0 .3-.3 10.2 10.2 0 0 1 1.7-2.7 1.5 1.5 0 0 1 .8-.4Zm20.2-2.8a6.3 6.3 0 0 0-5.3-2.7 5.7 5.7 0 0 0-2.5.7 2.4 2.4 0 0 1 .8.2 6.7 6.7 0 0 0 1.5 1l1.4.1a1.4 1.4 0 0 1 .5 1.3 6.5 6.5 0 0 0 0 1.4 2.8 2.8 0 0 0 2 1.6 3.3 3.3 0 0 1 .8.4c.8.7.5 2 1 2.8a1.6 1.6 0 0 0 .5.6c.3-2.6 1-5-.7-7.4Zm-12.2-.5a4.3 4.3 0 0 0-1.4.2 6.6 6.6 0 0 0-4.2 3.9 1.9 1.9 0 0 0 1 .5 1 1 0 0 0 .5 0c.5-.2.6-1 1.1-1.2s1 .1 1.5.4a.5.5 0 0 0 .3.1.5.5 0 0 0 .2 0c.8-.8.5-2.5.8-3.6l.2-.3Z" opacity=".6"/><path fill="#d8b4a1" d="M154.5 73.8c-.1-2-.3-3.9-.6-5.9-.2-.9-.6-2-1.5-2a1.8 1.8 0 0 0-1.3.7 6 6 0 0 0-1.5 3.7 1 1 0 0 0-1.3.4 2.4 2.4 0 0 0-.3 1.5A23 23 0 0 0 150 78a9.2 9.2 0 0 1 .6 5.9c-1.2-1.1-1.2-3-1.5-4.5-.5-3-2.5-6.2-5.5-6.4a10.7 10.7 0 0 1-1.3 0 8 8 0 0 1-1.7-.8 12 12 0 0 0-5.9-.6 3 3 0 0 0-1.7.5c-1.2 1-.2 3-.8 4.4a3 3 0 0 0-2.3 3 6.4 6.4 0 0 0 1.6 3.7 30.6 30.6 0 0 0 7.3 6.3A9 9 0 0 1 132 86c-1-1.4-1.6-3-2.7-4.4a3.5 3.5 0 0 0-2.8-1.5c-1 0-2 1.4-1.5 2.3a4.2 4.2 0 0 0-1.7-1.7 3.4 3.4 0 0 0-1 3.6 7.5 7.5 0 0 0 2.1 3.3 19.4 19.4 0 0 0 12.7 5.3 53.6 53.6 0 0 1 8.6.8c2.3.4 2.8-1 3.4-2.9.8-2.8 2-4.6 3.5-7.2 1.8-3 2-6.3 1.8-9.8Z"/><path fill="#fff" d="M154.5 73.8c-.1-2-.3-3.9-.6-5.9-.2-.9-.6-2-1.5-2a1.8 1.8 0 0 0-1.3.7 6 6 0 0 0-1.5 3.7 1 1 0 0 0-1.3.4 2.4 2.4 0 0 0-.3 1.5A23 23 0 0 0 150 78a9.2 9.2 0 0 1 .6 5.9c-1.2-1.1-1.2-3-1.5-4.5-.5-3-2.5-6.2-5.5-6.4a10.7 10.7 0 0 1-1.3 0 8 8 0 0 1-1.7-.8 12 12 0 0 0-5.9-.6 3 3 0 0 0-1.7.5c-1.2 1-.2 3-.8 4.4a3 3 0 0 0-2.3 3 6.4 6.4 0 0 0 1.6 3.7 30.6 30.6 0 0 0 7.3 6.3A9 9 0 0 1 132 86c-1-1.4-1.6-3-2.7-4.4a3.5 3.5 0 0 0-2.8-1.5c-1 0-2 1.4-1.5 2.3a4.2 4.2 0 0 0-1.7-1.7 3.4 3.4 0 0 0-1 3.6 7.5 7.5 0 0 0 2.1 3.3 19.4 19.4 0 0 0 12.7 5.3 53.6 53.6 0 0 1 8.6.8c2.3.4 2.8-1 3.4-2.9.8-2.8 2-4.6 3.5-7.2 1.8-3 2-6.3 1.8-9.8Z" opacity=".5"/><path fill="#d8b4a1" d="M145.9 93.7c2.2.4 2.7-1 3.3-2.9.8-2.8 2.1-4.6 3.5-7.2a16 16 0 0 0 1.9-8.4c-1 1.1-.1 3.3-1 4.5-1-.7-.7-2.5-1.7-2.9a1.6 1.6 0 0 0-.6 1.3c-.2 2.2.3 4.6-.7 6.5-.2.5-.6.9-1 .8s-.8-.6-.9-1.1a2.6 2.6 0 0 0-.3-1.5 1.3 1.3 0 0 0-.4 1 2 2 0 0 1-.7-1.4 22.4 22.4 0 0 0-1-2.9 2.3 2.3 0 0 0-1-1.4c-.6.6-.3 1.6 0 2.4a7.2 7.2 0 0 1 .1 2.1c0 .2 0 .5-.3.5a.5.5 0 0 1-.4-.2l-2-1.5c-.3.2-.2.8 0 1.2s.5 1 .2 1.3a.8.8 0 0 1-.9.2 2 2 0 0 1-.6-.6c-1.6-1.8-3-3.9-4.6-5.6-.4.4-.3.9-.1 1.3a14 14 0 0 0 2.8 4.5 8.6 8.6 0 0 1 1.9 2.6.4.4 0 0 1 0 .3c-.1.2-.4.1-.6 0l-2.5-1.6c-.3-.2-1-.3-1 0a.6.6 0 0 0 .1.5 14 14 0 0 0 3.1 4c.3.2.6.7.3 1a.6.6 0 0 1-.3 0c-.7 0-1.3-.5-2-.6a.4.4 0 0 0-.3 0c-.3.2-.1.6.1.8s.6.4.5.7c-2.2.3-4.2-1.3-6.4-2-.3 0-.6 0-.7.2a.5.5 0 0 0 .2.4 16 16 0 0 0 1.7 1.6c-.4.3-1-.3-1.5 0a.5.5 0 0 0-.2.2 19.2 19.2 0 0 0 5.3 1 53.6 53.6 0 0 1 8.7.9Z" opacity=".2"/><path fill="#37474f" d="M231.5 145.5a69 69 0 0 0 2.6-9.2c.9-4.5 2.1-8.6.2-15.8s-3.6-13-3.4-15.2a70.7 70.7 0 0 0-4 9.1 36.2 36.2 0 0 0 .6 20.7c2.7 7.5 3.3 8.7 4 10.4Z"/><path fill="#455a64" d="M227 114.4a36.2 36.2 0 0 0 .5 20.7l4 10.4a127.2 127.2 0 0 1-.6-40.2 70.7 70.7 0 0 0-3.9 9.1Z"/><path fill="#37474f" d="M237.9 127.6a41 41 0 0 1 7.6-11.3c5-5 14-10.3 19.6-12.7 0 0-3.7 4.8-7.1 8.9s-11.2 12.3-20.1 15.1ZM245 108.3c2.4-2.7 10.3-6.2 15.3-13s6.2-17.9 9.5-21.6a109.6 109.6 0 0 1-9.6 7c-5 3.1-11.1 8.4-12.7 14-1.7 6.3-1.9 11.9-2.5 13.6Z"/><path fill="#455a64" d="M247.5 94.7c-1.7 6.2-1.9 11.9-2.5 13.6 5.6-12.5 24.9-34.6 24.9-34.6a109.6 109.6 0 0 1-9.7 7c-5 3-11.1 8.4-12.7 14Z"/><path fill="#263238" d="M226.2 156.6c7-7.9 9-19 12.4-28.6 3.6-10.6 7-21.4 13.2-31 0 0 0-.3-.1-.1-6.9 9.8-11.4 20-15 31.4-3 9.2-5.6 19.3-11 27.6-.2.3.2 1.1.5.7Z"/><path fill="#e0e0e0" d="M228.8 168.2a100 100 0 0 0-33.1 35.1 106.8 106.8 0 0 0-14.7 42.2c-.1.7 1.1 1 1.3.3a127.5 127.5 0 0 1 6.6-24 114.4 114.4 0 0 1 10.5-20.5c8-12.4 18.4-22.8 29.5-32.3.2-.2.3-1-.1-.8Z"/><path fill="#d8b4a1" d="M238.8 149.1A29.4 29.4 0 0 1 242 138a15.4 15.4 0 0 1 8.5-7.4 18.8 18.8 0 0 1 8.9-.3c2.7.5 6.2 1 8.7 2.3 4.8 2.5 7 8.2 8 13.3a20.4 20.4 0 0 1 0 5c-.3 4.6-1.4 9.4-4.8 12.4a14.7 14.7 0 0 1-4.4 2.4c-7 2.7-14.7 2.3-22 .7a17.6 17.6 0 0 1-5-1.8c-2.5-1.4-3.5-3-2.6-5.7 1-3.1 1.1-6.5 1.5-9.8Z"/><path fill="#fff" d="M238.8 149.1A29.4 29.4 0 0 1 242 138a15.4 15.4 0 0 1 8.5-7.4 18.8 18.8 0 0 1 8.9-.3c2.7.5 6.2 1 8.7 2.3 4.8 2.5 7 8.2 8 13.3a20.4 20.4 0 0 1 0 5c-.3 4.6-1.4 9.4-4.8 12.4a14.7 14.7 0 0 1-4.4 2.4c-7 2.7-14.7 2.3-22 .7a17.6 17.6 0 0 1-5-1.8c-2.5-1.4-3.5-3-2.6-5.7 1-3.1 1.1-6.5 1.5-9.8Z" opacity=".2"/><path fill="#d8b4a1" d="m237.2 162 .2-.2a3.6 3.6 0 0 1 2 .4c3.6 1.3 7.6.7 11.1-.7s6.8-3.5 10.2-5.2a9 9 0 0 1 3-1 3.4 3.4 0 0 1 3 1 1.8 1.8 0 0 0 .5.5 1.5 1.5 0 0 0 .7 0 8.2 8.2 0 0 1 6.4 1.9l.3-.4a12.2 12.2 0 0 1-3.4 5 14.7 14.7 0 0 1-4.4 2.5c-7 2.6-14.7 2.2-22 .6a17.6 17.6 0 0 1-5-1.7 5.6 5.6 0 0 1-2.6-2.8Z"/><path fill="#fff" d="m249.7 130.9.8-.3a18.8 18.8 0 0 1 8.8-.3c2.8.5 6.2 1 8.7 2.3 4.9 2.5 7.2 8.2 8 13.4a18.3 18.3 0 0 1 .2 3.7 28.3 28.3 0 0 0-5.6-13.4 7.6 7.6 0 0 0-2.9-2.5 12.6 12.6 0 0 0-3.1-.6c-4-.5-7.7-2.6-11.7-2.7a13.4 13.4 0 0 0-3.2.4Z" opacity=".5"/><path fill="#d8b4a1" d="M237 160a4 4 0 0 0 .1 1.7l2.6-2.1q3-2.7 5.8-5.7c1.8-2 3.6-4 5.3-6.3a44.3 44.3 0 0 0 4.5-6.5c0-.1 0-.4-.1-.2-1.7 2-3.1 4.4-4.9 6.4s-3.5 4.2-5.5 6.2-3.7 3.8-5.6 5.5l-1.8 1.5.2-.2a137.2 137.2 0 0 0 10.9-15.4c0-.2 0-.4-.2-.2-2.2 3.4-4.6 6.7-7 10l-3.8 4.8Zm.7 2.8a7 7 0 0 0 2.2 1.9h.2l6.5-.6a63 63 0 0 0 13-2.7v-.2a81 81 0 0 1-13 2.2c-1.7.2-3.3.3-5 .3a69.9 69.9 0 0 0 7.6-2.8 63 63 0 0 0 14-8.4v-.3a80 80 0 0 1-14.3 8 67.7 67.7 0 0 1-7.5 2.7l-2.7.7a38.2 38.2 0 0 0 10.3-5.7 74.7 74.7 0 0 0 6.8-6.2q3.4-3.5 7-6.8v-.2a640 640 0 0 1-7.3 6.6c-2.3 2-4.4 4.1-6.8 5.9a41.2 41.2 0 0 1-11 5.6Zm17.8-15.4a75.8 75.8 0 0 1-18.3 14.5 4 4 0 0 0 .3.7 67 67 0 0 0 18-15.2ZM212.6 173.8c-.8 0-1.1.2-.7 1a35.7 35.7 0 0 0 8.6 10.8 52.6 52.6 0 0 0 19 9.9 10.3 10.3 0 0 0 3 .5c1.4 0 1.6-.5.9-1.6a66.5 66.5 0 0 1-3.3-6.1l-3.6-7.3a41.7 41.7 0 0 1-2.5-6 12.5 12.5 0 0 0-1.6-4c-2.2-2.8-6.7-.5-9.3.4a39 39 0 0 1-10.5 2.4Z"/><path fill="#fff" d="M212.6 173.8c-.8 0-1.1.2-.7 1a35.7 35.7 0 0 0 8.6 10.8 52.6 52.6 0 0 0 19 9.9 10.3 10.3 0 0 0 3 .5c1.4 0 1.6-.5.9-1.6a66.5 66.5 0 0 1-3.3-6.1l-3.6-7.3a41.7 41.7 0 0 1-2.5-6 12.5 12.5 0 0 0-1.6-4c-2.2-2.8-6.7-.5-9.3.4a39 39 0 0 1-10.5 2.4Z" opacity=".2"/><g fill="#d8b4a1" opacity=".5"><path d="M212.6 173.8a39 39 0 0 0 10.5-2.5c1.8-.6 4.4-1.8 6.5-1.7a5 5 0 0 1-1.5 3 10.3 10.3 0 0 1-4.2 2.2 9.4 9.4 0 0 1 .2 5.7.4.4 0 0 1-.2.3.5.5 0 0 1-.2 0 39.9 39.9 0 0 1-9.6-2.3 34.4 34.4 0 0 1-2.2-3.6c-.4-.9-.2-1 .7-1.1ZM230.7 190c-1-2.2-.1-4.6-.1-6.9 0-1-.3-2.2-.2-3.3a10.8 10.8 0 0 1 3-6.6l.6 1.8a41.7 41.7 0 0 0 2.6 6l3.5 7.3a66.5 66.5 0 0 0 3.3 6.1c.7 1.1.5 1.6-.8 1.6a10.3 10.3 0 0 1-3-.5 59.4 59.4 0 0 1-6-2.1l-1.2-1.1a7.6 7.6 0 0 1-1.7-2.4ZM231.5 171.4q-.5 1.6-1.2 3.1a80.7 80.7 0 0 1-3 6 60.2 60.2 0 0 0 2.6-6l1-3 .5-1.3a2.6 2.6 0 0 1 .4.3l-.3.9Z"/><path d="m233 181.8-.6-8.5v-1l-.4 2a39.2 39.2 0 0 1-2.5 7.5l-.2-.1a63 63 0 0 0 2-7l.7-3.6v-.5a3.2 3.2 0 0 1 .4.4 5.8 5.8 0 0 1 .7 1.1v1.2c.2 2.8.2 5.6.2 8.4 0 .2-.2.3-.2.1ZM231.2 170l-1.5 3a41.8 41.8 0 0 1-3.2 4.7c0 .2-.2 0-.1-.2a49.6 49.6 0 0 0 3-4.8c.6-.9 1-1.8 1.5-2.8a3 3 0 0 1 .3.2ZM229 171.6l1.4-1.8a3.8 3.8 0 0 1 .5 0c-.5.8-1 1.5-1.6 2a29.4 29.4 0 0 1-3.9 3.8c-.2 0-.1-.2 0-.3a39.3 39.3 0 0 0 3.6-3.7ZM224.5 173a40.1 40.1 0 0 1 4.1-2.6l1.4-.7a3.7 3.7 0 0 1 .4 0l-1.6 1c-1.5.8-2.9 1.7-4.2 2.7-.2 0-.2-.2-.1-.3Z"/></g><path fill="#d8b4a1" d="M251.5 164.6c4.6-1.4 8.7-4.2 13.4-5.6 7.5-2.2 14 4.8 14.6 12a6.5 6.5 0 0 1-.4 3.3 8.1 8.1 0 0 1-1.8 2.3c-4.6 4.6-10 8.7-16.3 10.4s-13.6.8-18.4-3.5a31.5 31.5 0 0 1-3.1-3.5l-4.5-5.5a7.2 7.2 0 0 1-1.6-2.5 4.8 4.8 0 0 1 1.5-4.5 9 9 0 0 1 3.7-2.1c1.4-.4 2.6 0 4 .1a24.3 24.3 0 0 0 8.9-1Z"/><path fill="#fff" d="M251.5 164.6c4.6-1.4 8.7-4.2 13.4-5.6 7.5-2.2 14 4.8 14.6 12a6.5 6.5 0 0 1-.4 3.3 8.1 8.1 0 0 1-1.8 2.3c-4.6 4.6-10 8.7-16.3 10.4s-13.6.8-18.4-3.5a31.5 31.5 0 0 1-3.1-3.5l-4.5-5.5a7.2 7.2 0 0 1-1.6-2.5 4.8 4.8 0 0 1 1.5-4.5 9 9 0 0 1 3.7-2.1c1.4-.4 2.6 0 4 .1a24.3 24.3 0 0 0 8.9-1Z" opacity=".5"/><path fill="#fff" d="M271.2 159.3a14 14 0 0 1 8.3 11.7 6.5 6.5 0 0 1-.4 3.3 8.1 8.1 0 0 1-1.8 2.3 48 48 0 0 1-9.3 7.3c6-4.4 12.2-10.3 9.2-17.6a15.6 15.6 0 0 0-6-7Z" opacity=".5"/><path fill="#d8b4a1" d="M241.3 182a14.5 14.5 0 0 0 3 1c5.1 1 10.4.9 15.6.4a6.7 6.7 0 0 1 3.3.2 3.7 3.7 0 0 1 1.9 2 26 26 0 0 1-4 1.4c-6.3 1.8-13.6.9-18.5-3.5a23.3 23.3 0 0 1-1.6-1.8Z" opacity=".3"/><path fill="#d8b4a1" d="M234 168.6a5.6 5.6 0 0 1 .9-1.1l.4-.4 1.2.4 3.3.7a62.8 62.8 0 0 0 9.4.8v.3a43.7 43.7 0 0 1-8.4-.2l-3.6-.6c7.3 3 15.4 2.5 23.1 1.7.2 0 .1.4 0 .4-7.6 1-15.7 1.5-23-1.1a13.9 13.9 0 0 0 2 1c1.6.6 3.3 1 4.9 1.5l5.2 1.4 5.5 1c-3.8.3-7.7-.8-11.3-1.8l-1.3-.4c1.6.8 3.1 1.5 4.7 2 4.4 1.6 9.2 3.2 13.9 2.6.1 0 0 .2 0 .2a19.4 19.4 0 0 1-7-.2 47 47 0 0 1-7.1-1.7 45.2 45.2 0 0 1-7.8-3.3 37.6 37.6 0 0 0 16.9 9.8v.2a33.3 33.3 0 0 1-19.1-11.4l-.7-.5 1 1.6a48.5 48.5 0 0 0 3.3 4 37.7 37.7 0 0 0 7.7 6.6c.2 0 0 .4-.2.3a38.2 38.2 0 0 1-8.4-6.4 33.2 33.2 0 0 1-3.2-4 25.6 25.6 0 0 1-2.3-3.4Z" opacity=".3"/><path fill="#d8b4a1" d="M236.8 154.7c1-2.1 2.3-4 3.3-6.1a26 26 0 0 0 1.7-13.1 12.9 12.9 0 0 0-.8-3.8 14.7 14.7 0 0 0-2.1-3.4 25.1 25.1 0 0 0-3.4-3.6 15.9 15.9 0 0 0-8.7-3.6 13.3 13.3 0 0 0-3.8.1 14.3 14.3 0 0 0-4.1 1.6 23.4 23.4 0 0 0-11.8 21.4 39.1 39.1 0 0 0 1.9 8.8c.7 2.4 1.6 4.8 3.4 6.5 2.8 2.7 7.2 2.8 10.8 4.2 1.9.7 3.6 1.8 5.6 2a7.1 7.1 0 0 0 6-3c.7-1 .6-2.3.8-3.4a21.4 21.4 0 0 1 1.2-4.6Z"/><path fill="#fff" d="M236.8 154.7c1-2.1 2.3-4 3.3-6.1a26 26 0 0 0 1.7-13.1 12.9 12.9 0 0 0-.8-3.8 14.7 14.7 0 0 0-2.1-3.4 25.1 25.1 0 0 0-3.4-3.6 15.9 15.9 0 0 0-8.7-3.6 13.3 13.3 0 0 0-3.8.1 14.3 14.3 0 0 0-4.1 1.6 23.4 23.4 0 0 0-11.8 21.4 39.1 39.1 0 0 0 1.9 8.8c.7 2.4 1.6 4.8 3.4 6.5 2.8 2.7 7.2 2.8 10.8 4.2 1.9.7 3.6 1.8 5.6 2a7.1 7.1 0 0 0 6-3c.7-1 .6-2.3.8-3.4a21.4 21.4 0 0 1 1.2-4.6Z" opacity=".5"/><path fill="#fff" d="M223 121.2a13.3 13.3 0 0 1 3.7 0 15.9 15.9 0 0 1 8.8 3.5 25.1 25.1 0 0 1 3.3 3.6 14.7 14.7 0 0 1 2.2 3.4 12.9 12.9 0 0 1 .7 3.8 27.5 27.5 0 0 1-1 11.3l.1-2.2c.1-5.2-.9-10.5-3.8-14.9s-8-7.3-13.2-7c-3.2.4-6.5 3-8.9 5.2a29.1 29.1 0 0 0-6.5 8.6l-.8 1.8a23.4 23.4 0 0 1 11.2-15.5 14.3 14.3 0 0 1 4.2-1.6Z" opacity=".5"/><path fill="#d8b4a1" d="M210.4 143a24 24 0 0 0 8.8 12.8c2.3 1.8 4.7 3.3 7 5l1 .6-1.5-1.5a51.3 51.3 0 0 1-5.2-6.6 46.3 46.3 0 0 1-6.6-15.4c0-.2.1-.4.2-.2a47.1 47.1 0 0 0 7.2 15.5 53.1 53.1 0 0 0 5.1 6.2l.7.6a29.6 29.6 0 0 1-2.7-4.7 59.6 59.6 0 0 1-3.5-11.7c0-.2.3-.5.4-.2a85.1 85.1 0 0 0 3.8 11 36.4 36.4 0 0 0 2.6 4.7 32.7 32.7 0 0 1-1.3-5 38.6 38.6 0 0 1-.5-6.9l-.3-7.2h.1c.7 4.6.5 9.2 1.4 13.7a26.3 26.3 0 0 0 2 6l-.2-.7a46.3 46.3 0 0 1-.6-8.1c0-2.9.5-5.7.5-8.5a47.8 47.8 0 0 0-1-8.1c0-.2.2-.4.3-.2a51.6 51.6 0 0 1 1.2 7.8l-.3 8.5a45.9 45.9 0 0 0 .6 7.9 29.8 29.8 0 0 0 .8 3.6 8.6 8.6 0 0 0 .4.9 21 21 0 0 1-.4-2.8 31 31 0 0 1 .3-6 126 126 0 0 0 1-14s.3-.3.3 0a94.4 94.4 0 0 1-.3 13.2 37 37 0 0 0-.5 6 19.2 19.2 0 0 0 .4 3.1 1.6 1.6 0 0 0 .1.3l.4-2.6 1.1-6.7c1-4.8 2-9.5 2.3-14.3 0-.2.2-.2.2 0a126.1 126.1 0 0 1-1.7 13.7l-1.1 6.5-.5 4 .7-2.5c.7-2.3 1.5-4.5 2.4-6.8a35.9 35.9 0 0 0 3-13.2c.3 4.2-.8 8.5-2.2 12.5l-2.3 6.6a41 41 0 0 0-.9 3.3 13.8 13.8 0 0 0-.2 1.4 7.4 7.4 0 0 1-3 1.1l-1.8-1a25.6 25.6 0 0 0-3-1.3 42 42 0 0 1-5.4-2.4 26 26 0 0 1-4.5-3.1 22 22 0 0 1-3.9-4.5 27 27 0 0 0 9 7 46.9 46.9 0 0 0 5.5 2.3l2 .7-3.3-2.4a55 55 0 0 1-6.7-4.9 24 24 0 0 1-7.5-12.7c0-.2 0-.4.1-.2Z" opacity=".3"/><path fill="#d8b4a1" d="M220.1 175.7a1.3 1.3 0 0 1-.6.4 1.1 1.1 0 0 1-.7-.1 8.8 8.8 0 0 1-2.7-2 16.5 16.5 0 0 1-4-15.6 10.8 10.8 0 0 0 5.3 5.2 34.7 34.7 0 0 0 6.8 2c1.5.4 4.4 1 4.4 3 .1 1.6-2 2.6-3.2 3.3a18.6 18.6 0 0 0-5.3 3.8Z"/><path fill="#fff" d="M220.1 175.7a1.3 1.3 0 0 1-.6.4 1.1 1.1 0 0 1-.7-.1 8.8 8.8 0 0 1-2.7-2 16.5 16.5 0 0 1-4-15.6 10.8 10.8 0 0 0 5.3 5.2 34.7 34.7 0 0 0 6.8 2c1.5.4 4.4 1 4.4 3 .1 1.6-2 2.6-3.2 3.3a18.6 18.6 0 0 0-5.3 3.8Z" opacity=".3"/><g fill="#d8b4a1" opacity=".5"><path d="m219.5 166 5.4.9h.9l-2.6-.6c-.2 0 0-.3 0-.3l3 .5 1 .2a2.5 2.5 0 0 1 1.4 1.4h-.6l-2.9.3h-2.7a24.3 24.3 0 0 1-2.9-.2v-.2h2.9l2.9-.2 1.7-.2-2.2-.1a23.7 23.7 0 0 1-5.4-1.2c-.2 0 0-.3 0-.3Z"/><path d="M221.7 170.6v-.3a46.2 46.2 0 0 0 6.2-1.9l.6-.3a2.8 2.8 0 0 1 .1.5l-1 .6c-.8.7-1.8 1.3-2.8 1.9v-.3l2.9-1.9-1.8.7a19 19 0 0 1-4.2 1Z"/></g><path fill="#d8b4a1" d="M218.7 171.6a3.7 3.7 0 0 1 2.4.7 3.3 3.3 0 0 1 .8 1.2 26.6 26.6 0 0 1 2.1 8 12.1 12.1 0 0 1-8.7-3.5 11.6 11.6 0 0 1-2.8-3.7c-.4-1-.6-1.9-1.1-2.7a22.2 22.2 0 0 0-1.3-1.8c-3-4.4-1.8-12-.6-17 .5-2.1 1.3.3 1.5 1.1l1.4 4.1a24.1 24.1 0 0 0 2 5.2c1.8 3 5 4.5 4.3 8.4Z"/><path fill="#fff" d="m211 154 1.3 4a24.1 24.1 0 0 0 2 5.2c1.8 3 5 4.5 4.4 8.5a3.7 3.7 0 0 1 2.4.6 3.3 3.3 0 0 1 .8 1.3 25.1 25.1 0 0 1 1.4 4 12.8 12.8 0 0 0-1.3-2.5 5.4 5.4 0 0 0-2.4-2.1 7.2 7.2 0 0 0-2-.4 5.8 5.8 0 0 0-.9-4.5 36.4 36.4 0 0 0-2.8-3 14 14 0 0 1-2.8-8 12.9 12.9 0 0 0-1.1-5.1c.4 0 .8 1.3 1 2Z" opacity=".5"/><path d="M208.7 166.4a12.4 12.4 0 0 0 3.3 4 14.3 14.3 0 0 1 1.8 1.5 11 11 0 0 1 1 1.5 26 26 0 0 0 6.3 6.5 2.3 2.3 0 0 0 1.4.6 1.7 1.7 0 0 0 1.3-.8l.2 2a12.1 12.1 0 0 1-8.7-3.6 11.6 11.6 0 0 1-2.8-3.8c-.4-.9-.6-1.8-1.1-2.7a22.2 22.2 0 0 0-1.3-1.8 10 10 0 0 1-1.5-3.6l.1.3Z" opacity=".1"/><path fill="#d8b4a1" d="M242 195.3a30 30 0 0 1-2.3-.6 20.8 20.8 0 0 1-3.5-1.4 38.5 38.5 0 0 1-6.7-4.3 111.9 111.9 0 0 1-10.5-9.5l-3.1-3a28.4 28.4 0 0 0-4.2-2.9c-.4-.2-1-.4-1.3 0s0 .6.2.9A70.5 70.5 0 0 0 218 185a32.5 32.5 0 0 0 7.8 6.3 37.4 37.4 0 0 0 14.6 5.2 12.2 12.2 0 0 0 2.4.1c.3 0 2-.2 1.8-.7l-.3-.1-.7-.1Z"/><path d="M242 195.3a30 30 0 0 1-2.3-.6 20.8 20.8 0 0 1-3.5-1.4 38.5 38.5 0 0 1-6.7-4.3 111.9 111.9 0 0 1-10.5-9.5l-3.1-3a28.4 28.4 0 0 0-4.2-2.9c-.4-.2-1-.4-1.3 0s0 .6.2.9A70.5 70.5 0 0 0 218 185a32.5 32.5 0 0 0 7.8 6.3 37.4 37.4 0 0 0 14.6 5.2 12.2 12.2 0 0 0 2.4.1c.3 0 2-.2 1.8-.7l-.3-.1-.7-.1Z" opacity=".2"/><path fill="#d8b4a1" d="M211.7 173.6a28.4 28.4 0 0 1 4.2 3l3.1 3a111.9 111.9 0 0 0 10.5 9.4 38.5 38.5 0 0 0 6.6 4.3 20.8 20.8 0 0 0 3.5 1.4l1 .3a27.8 27.8 0 0 1-9.3-3.3 39.4 39.4 0 0 1-9.9-8c-1.7-2-3.1-4-4.9-5.9l-1-1a22.4 22.4 0 0 0-5-3.4 1.1 1.1 0 0 1 1.2.2ZM220.6 157.5c-1.9-3.6-1.5-8-.1-12s3.4-7.5 4.8-11.3a7.7 7.7 0 0 0 .7-2.7 6.5 6.5 0 0 0-2.4-4.6 2.9 2.9 0 0 0-1.4-.9 3 3 0 0 0-1.8.5 16 16 0 0 0-6.7 8.6 42.5 42.5 0 0 0-2 10.8c-.5 4.2-.7 8.7 1.5 12.3a13.3 13.3 0 0 0 5.3 4.6c1.2.6 9 4.3 8.6 1.5-.2-1.4-2.2-2-3.2-2.8a11.7 11.7 0 0 1-3.3-4Z"/><path fill="#fff" d="M220.6 157.5c-1.9-3.6-1.5-8-.1-12s3.4-7.5 4.8-11.3a7.7 7.7 0 0 0 .7-2.7 6.5 6.5 0 0 0-2.4-4.6 2.9 2.9 0 0 0-1.4-.9 3 3 0 0 0-1.8.5 16 16 0 0 0-6.7 8.6 42.5 42.5 0 0 0-2 10.8c-.5 4.2-.7 8.7 1.5 12.3a13.3 13.3 0 0 0 5.3 4.6c1.2.6 9 4.3 8.6 1.5-.2-1.4-2.2-2-3.2-2.8a11.7 11.7 0 0 1-3.3-4Z" opacity=".3"/><path fill="#d8b4a1" d="M213.7 135a16 16 0 0 1 6.7-8.5 5 5 0 0 1 .8-.4 23 23 0 0 0-4.2 5.7 22 22 0 0 0-2 6.4c-.6 3-.4 6-1 8.9s-1.7 5.8-1.8 8.7c-1-3-.9-6.6-.6-10a42.5 42.5 0 0 1 2.1-10.8Z"/><path fill="#d8b4a1" d="M216.8 146.8c0-.1.1-.1.1 0a17.9 17.9 0 0 0 2.5 11.2 15.3 15.3 0 0 0 4 4.1 13.3 13.3 0 0 0 2.7 1.5 7.5 7.5 0 0 0 1 .3 1.4 1.4 0 0 1 .1.4.8.8 0 0 1-.6 1 20.4 20.4 0 0 1-2-.8 24.2 24.2 0 0 1-2.8-1.3 22.6 22.6 0 0 1-4.9-3.9c-.1-.1.1-.5.3-.3a32.7 32.7 0 0 0 4.7 3.3 14.6 14.6 0 0 1-3.3-4 16.5 16.5 0 0 1-1.8-11.5Z" opacity=".5"/><path fill="#d8b4a1" d="m239.1 181.6.4.3c2.4 2.4 6.8 2.9 10 3.2 4 .4 7.8-.2 11.7-.3 2.7-.2 2.3 2.7 1.6 4.4a9.8 9.8 0 0 1-6 5 30 30 0 0 1-12.5.6 33.8 33.8 0 0 1-7.8-1.7 11.1 11.1 0 0 1-3.7-2c-1.8-1.7-1.8-3.5-1.3-5.7a38.1 38.1 0 0 0 .9-7.8 5.7 5.7 0 0 1 1.2-3.7 1.8 1.8 0 0 1 2.3-.3 12.7 12.7 0 0 0 3.2 8Z"/><path fill="#fff" d="m239.1 181.6.4.3c2.4 2.4 6.8 2.9 10 3.2 4 .4 7.8-.2 11.7-.3 2.7-.2 2.3 2.7 1.6 4.4a9.8 9.8 0 0 1-6 5 30 30 0 0 1-12.5.6 33.8 33.8 0 0 1-7.8-1.7 11.1 11.1 0 0 1-3.7-2c-1.8-1.7-1.8-3.5-1.3-5.7a38.1 38.1 0 0 0 .9-7.8 5.7 5.7 0 0 1 1.2-3.7 1.8 1.8 0 0 1 2.3-.3 12.7 12.7 0 0 0 3.2 8Z" opacity=".4"/><path fill="#d8b4a1" d="m233.5 176.5.2-2.6a2 2 0 0 1 1.7-.5 2 2 0 0 1 0 .2 14.6 14.6 0 0 0 .3 2 14.8 14.8 0 0 0 1.4 3.7 13.6 13.6 0 0 0 5.7 5.5v.3a14.4 14.4 0 0 1-6-5 14.7 14.7 0 0 1-1.6-3.4 16.4 16.4 0 0 0 4.8 8.3v.2a15.8 15.8 0 0 1-5-8.1 16.5 16.5 0 0 0 1 4.3 15.6 15.6 0 0 0 6.5 7.8c.1 0 0 .2 0 .2a15 15 0 0 1-7.4-7.9 17.2 17.2 0 0 1-1-3.9 31.7 31.7 0 0 0 .2 3.4c.3 3 .8 6.5 2.7 9 0 0-.1.3-.2.2-2-2.4-2.7-6-3-9a31.2 31.2 0 0 1-.3-4.7Z" opacity=".3"/><path fill="#fff" d="M242.1 194.4a22.6 22.6 0 0 0 5.8 0 13.4 13.4 0 0 1 2.9-.6l2 .2a5.2 5.2 0 0 0 3.7-2 4.8 4.8 0 0 1 1.3-1.3 10 10 0 0 1 2-.5 4.7 4.7 0 0 0 2.9-3.5 2.4 2.4 0 0 0 0-1.3 1 1 0 0 0-.2-.4c1.2.8.9 2.8.3 4.2a9.8 9.8 0 0 1-6 5 30 30 0 0 1-12.5.5c-.7 0-1.5-.1-2.2-.3Z" opacity=".5"/><path fill="#d8b4a1" d="M259.7 158.4a7.7 7.7 0 0 1 4-1.7 4.7 4.7 0 0 1 3.9 2.6 10.3 10.3 0 0 1 1 4.8c.1 2.7-.4 5.7-2.5 7.4a7.5 7.5 0 0 1-3.8 1.6c-3.5.4-7-.6-10.3-1.7a146 146 0 0 1-8.3-2.9 3.3 3.3 0 0 1-1.3-.7c-1.4-1.6 2-2 2.9-2.3l5-2a65.2 65.2 0 0 0 9.4-5Z"/><path fill="#fff" d="M259.7 158.4a7.7 7.7 0 0 1 4-1.7 4.7 4.7 0 0 1 3.9 2.6 10.3 10.3 0 0 1 1 4.8c.1 2.7-.4 5.7-2.5 7.4a7.5 7.5 0 0 1-3.8 1.6c-3.5.4-7-.6-10.3-1.7a146 146 0 0 1-8.3-2.9 3.3 3.3 0 0 1-1.3-.7c-1.4-1.6 2-2 2.9-2.3l5-2a65.2 65.2 0 0 0 9.4-5Z" opacity=".2"/><path fill="#d8b4a1" d="m245.3 165.5 2.3-.9 1.4-.4a76.6 76.6 0 0 0 9.6-3.6v.3a88.5 88.5 0 0 1-9.7 4l-5 1.5c1.3 0 2.6-.2 3.9-.4a75 75 0 0 0 8-1.6 58.4 58.4 0 0 1-8.1 2.1l-2.9.5h.6l5-.1a60 60 0 0 0 10-1.4v.2a49.6 49.6 0 0 1-10.4 1.8q-2 .2-4 .1a87.8 87.8 0 0 0 11.7 1v.2a66.3 66.3 0 0 1-12-.6 122.5 122.5 0 0 0 14 2.8 64.7 64.7 0 0 1-10.2-1.3l-4.9-1-.8-.2a3.3 3.3 0 0 1-1.2-.8c-1.6-1.5 1.7-2 2.7-2.2Z"/><path fill="#d8b4a1" d="M239.9 160c1-.4 1.8-1.1 2.8-1.2.6 0 1.2.3 1.2.8s-.5.8-1 1-.9.8-.7 1.3 1 .4 1.5.2 1.3-.4 1.5.1-.3 1.2-1 1.4-1.3.8-1 1.3l4.9 1.5c.2 0 .5.1.6.4.1.4-.5.6-1 .6h-2c-.5 0-1 .2-1 .6a6 6 0 0 1 2.8 2.2c.1.2.2.5.1.7s-.5.1-.8 0l-4.3-1.7c-.2 1 .7 1.6 1.5 2.2s1.6 1.4 1.2 2.3a23.4 23.4 0 0 1-4.4-2.1 2.9 2.9 0 0 0 .8 2.4c.5.7.9 1.6.5 2.4a3.3 3.3 0 0 1-2-1.2 5 5 0 0 0-1-1 .9.9 0 0 0-1.1 0c-.3.6.2 1.1.5 1.6a2.5 2.5 0 0 1 .4 2 1 1 0 0 1-.4.5c-.4.3-.9 0-1.2-.3-.8-1-1.2-2.4-2.4-2.8a.5.5 0 0 0-.3 0 .5.5 0 0 0-.2.4c-.3 1.1-.2 2.5-1 3.4a.6.6 0 0 1-.6.2.6.6 0 0 1-.4-.4c-.2-.9.6-1.8.3-2.7 0-.2-.2-.4-.5-.4a.6.6 0 0 0-.3 0 3.8 3.8 0 0 0-1 1.6c-.3.5-.8 1-1.4 1-.4-1 .3-2 .7-2.8.2-.4.3-1-.1-1a.8.8 0 0 0-.6.1l-2 1.5a.9.9 0 0 1-.7.2.6.6 0 0 1-.3-.7 1.7 1.7 0 0 1 .4-.7l1.5-1.7a1.8 1.8 0 0 0-1.5.2 2.7 2.7 0 0 1-1.5.4c-.5-.1-1-.7-.6-1.1a1.3 1.3 0 0 1 .6-.4 3.4 3.4 0 0 0 1.8-1.4l-2.6.2c-.5 0-1.2-.1-1.1-.6s.4-.4.8-.6a3.1 3.1 0 0 0 1.2-.7.7.7 0 0 0 .3-.6c0-.2-.3-.4-.6-.4l-2.3-.9c-.2 0-.5-.2-.5-.4s.3-.3.5-.3l2.5-.2a10.6 10.6 0 0 1-1.7-2.1c-.3-.4-.5-1-.2-1.3s.8-.3 1.3-.2l1.6.4a.8.8 0 0 0 .4 0c.3 0 .4-.5.3-.8a2.6 2.6 0 0 0-.7-.8 3.3 3.3 0 0 1-.8-2 1 1 0 0 1 .1-.6c.4-.5 1.1 0 1.5.4l1.4 1.5a1 1 0 0 0 0-1.4 3.8 3.8 0 0 1-.5-1.3c0-.5.4-1 .8-.8a1 1 0 0 1 .4.4l.8 1.6c0 .2.3.4.5.4a.4.4 0 0 0 .3-.3c.6-1.2-.8-2.8 0-3.9a.6.6 0 0 1 .5-.3c.2 0 .3.4.4.7a7.5 7.5 0 0 0 .6 1.7c0 .2.1.3.3.3a.4.4 0 0 0 .3-.1c.7-.7.5-2 1-3a.6.6 0 0 1 .2-.3.5.5 0 0 1 .6.2 1.5 1.5 0 0 1 0 .7c0 .9-.3 2.3.4 3 1 1 3.6-3.7 4.2-1.6a1.2 1.2 0 0 1 0 .6 20.7 20.7 0 0 1-.8 2.6 2 2 0 0 0 1.3-.2Z"/><path d="M239.9 160c1-.4 1.8-1.1 2.8-1.2.6 0 1.2.3 1.2.8s-.5.8-1 1-.9.8-.7 1.3 1 .4 1.5.2 1.3-.4 1.5.1-.3 1.2-1 1.4-1.3.8-1 1.3l4.9 1.5c.2 0 .5.1.6.4.1.4-.5.6-1 .6h-2c-.5 0-1 .2-1 .6a6 6 0 0 1 2.8 2.2c.1.2.2.5.1.7s-.5.1-.8 0l-4.3-1.7c-.2 1 .7 1.6 1.5 2.2s1.6 1.4 1.2 2.3a23.4 23.4 0 0 1-4.4-2.1 2.9 2.9 0 0 0 .8 2.4c.5.7.9 1.6.5 2.4a3.3 3.3 0 0 1-2-1.2 5 5 0 0 0-1-1 .9.9 0 0 0-1.1 0c-.3.6.2 1.1.5 1.6a2.5 2.5 0 0 1 .4 2 1 1 0 0 1-.4.5c-.4.3-.9 0-1.2-.3-.8-1-1.2-2.4-2.4-2.8a.5.5 0 0 0-.3 0 .5.5 0 0 0-.2.4c-.3 1.1-.2 2.5-1 3.4a.6.6 0 0 1-.6.2.6.6 0 0 1-.4-.4c-.2-.9.6-1.8.3-2.7 0-.2-.2-.4-.5-.4a.6.6 0 0 0-.3 0 3.8 3.8 0 0 0-1 1.6c-.3.5-.8 1-1.4 1-.4-1 .3-2 .7-2.8.2-.4.3-1-.1-1a.8.8 0 0 0-.6.1l-2 1.5a.9.9 0 0 1-.7.2.6.6 0 0 1-.3-.7 1.7 1.7 0 0 1 .4-.7l1.5-1.7a1.8 1.8 0 0 0-1.5.2 2.7 2.7 0 0 1-1.5.4c-.5-.1-1-.7-.6-1.1a1.3 1.3 0 0 1 .6-.4 3.4 3.4 0 0 0 1.8-1.4l-2.6.2c-.5 0-1.2-.1-1.1-.6s.4-.4.8-.6a3.1 3.1 0 0 0 1.2-.7.7.7 0 0 0 .3-.6c0-.2-.3-.4-.6-.4l-2.3-.9c-.2 0-.5-.2-.5-.4s.3-.3.5-.3l2.5-.2a10.6 10.6 0 0 1-1.7-2.1c-.3-.4-.5-1-.2-1.3s.8-.3 1.3-.2l1.6.4a.8.8 0 0 0 .4 0c.3 0 .4-.5.3-.8a2.6 2.6 0 0 0-.7-.8 3.3 3.3 0 0 1-.8-2 1 1 0 0 1 .1-.6c.4-.5 1.1 0 1.5.4l1.4 1.5a1 1 0 0 0 0-1.4 3.8 3.8 0 0 1-.5-1.3c0-.5.4-1 .8-.8a1 1 0 0 1 .4.4l.8 1.6c0 .2.3.4.5.4a.4.4 0 0 0 .3-.3c.6-1.2-.8-2.8 0-3.9a.6.6 0 0 1 .5-.3c.2 0 .3.4.4.7a7.5 7.5 0 0 0 .6 1.7c0 .2.1.3.3.3a.4.4 0 0 0 .3-.1c.7-.7.5-2 1-3a.6.6 0 0 1 .2-.3.5.5 0 0 1 .6.2 1.5 1.5 0 0 1 0 .7c0 .9-.3 2.3.4 3 1 1 3.6-3.7 4.2-1.6a1.2 1.2 0 0 1 0 .6 20.7 20.7 0 0 1-.8 2.6 2 2 0 0 0 1.3-.2Z" opacity=".2"/><path d="M240.8 161a.6.6 0 0 1 .4.8c0 .2-.3.3-.5.5s-.3.4-.2.6.5.2.8 0a2.9 2.9 0 0 1 2.3.4c-.2.4-.7.5-1.1.7s-1 .4-.9.9a.8.8 0 0 0 .6.6c.3.1.6.1.8.3a1.4 1.4 0 0 1 .6.5.7.7 0 0 1 .1.3c0 .4-.5.4-.9.4s-.8 0-1 .3a.3.3 0 0 0 0 .1.4.4 0 0 0 .4.2 3 3 0 0 1 1.6.9l.2.5c0 .2-.4.2-.7.2a4.8 4.8 0 0 1-1.4-.4 1.8 1.8 0 0 0-.6-.2.5.5 0 0 0-.4.3.6.6 0 0 0 .1.4l.8 1a1.4 1.4 0 0 1 .3 1 .5.5 0 0 1-.4.4.4.4 0 0 1-.2 0c-.7-.1-1.2-.7-1.8-.9a.7.7 0 0 0-.4 0c-.3 0-.4.5-.3.9a5.3 5.3 0 0 0 .7.8.8.8 0 0 1 0 1c-.2.3-.8.2-1-.1a5.2 5.2 0 0 0-1-.9.6.6 0 0 0-.4 0 .6.6 0 0 0-.4.7 4 4 0 0 0 .3.8 2 2 0 0 1 .1 1 .4.4 0 0 1 0 .3.4.4 0 0 1-.5 0c-.8-.3-1-1.7-1.8-2a.7.7 0 0 0-.7 0 1.2 1.2 0 0 0-.3.6 2.8 2.8 0 0 1-.6.9.6.6 0 0 1-.5.2.5.5 0 0 1-.2-.2 1.6 1.6 0 0 1-.1-1.5c.1-.3.3-.6.1-.9a.5.5 0 0 0-.5 0 1.5 1.5 0 0 0-.5.3 6.6 6.6 0 0 1-1.4 1c-.2.1-.6.2-.7 0a.6.6 0 0 1 0-.3 3.7 3.7 0 0 1 .7-1.6l.3-.6c0-.2-.6-.2-1 0a2.9 2.9 0 0 1-1.5.1.5.5 0 0 1-.2-.1.4.4 0 0 1 0-.3 1.1 1.1 0 0 1 .6-.7 2.6 2.6 0 0 0 .9-.6.6.6 0 0 0 0-.9.9.9 0 0 0-.8 0 9.4 9.4 0 0 1-1.4.5 2 2 0 0 1-1.5-.2.3.3 0 0 1-.1-.1c-.1-.1 0-.3.2-.4a4 4 0 0 1 1.4-.6c.4-.1 1-.3 1-.7a3 3 0 0 0-1.1-.4c-.4 0-.8-.3-.7-.7a.8.8 0 0 1 .6-.6 5 5 0 0 0 .9-.2.6.6 0 0 0 .3-.7 1 1 0 0 0-.4-.4 2 2 0 0 1-.8-1.3.3.3 0 0 1 .1-.3.3.3 0 0 1 .2 0 4.6 4.6 0 0 1 2 .8 1.4 1.4 0 0 0-.1-1.3 3.3 3.3 0 0 1-.5-1.2c0-.5.3-1 .7-.9a1.3 1.3 0 0 1 .6.3 3.3 3.3 0 0 0 .7.4.3.3 0 0 0 .3 0l.1-.2.2-1.2c0-.4.3-1 .7-1s.6.5.7.8.4.8.8.8.5-.5.6-.8a1.7 1.7 0 0 1 .6-.8.8.8 0 0 1 1 0 1 1 0 0 1 .1.9 2 2 0 0 0 0 .8c0 .3.3.5.6.4a.7.7 0 0 0 .3-.3l.5-.8c.2-.3.3-.6.6-.5s.4.6.3.9c-.2.7-.6 1.4.3 1.8s1.5-.7 2.4-.4Z" opacity=".2"/><path fill="#37474f" d="M241.2 164.8a.4.4 0 0 0 .3-.3c0-.1 0-.3-.2-.2-.3 0-.6 0-1 .2a5.1 5.1 0 0 0-.6.2h-.1a.4.4 0 0 0-.3.5c.1.2.3 0 .5 0l.2-.1h.1l.4-.1.4-.1h.2Zm.5-2.7a.3.3 0 0 0 .1-.4h-.2l-1.5 1.2-.6.6-.4.3a.7.7 0 0 0-.2.4v.2l.6-.5.7-.5c.5-.5 1-1 1.5-1.3Zm-3.6.6s.2 0 .2-.2a2.5 2.5 0 0 0 .3-.3l.3-.4.1-.2.2-.2.3-.5a.3.3 0 0 0 0-.3.1.1 0 0 0-.2 0 4.3 4.3 0 0 0-.5.5l-.3.4-.4.5a.8.8 0 0 0-.1.3c0 .1-.1.4 0 .4Zm2-1 1.5-2.1c0-.2 0-.4-.2-.3l-1.7 2.2-.7 1a3.6 3.6 0 0 0-.7 1.2.1.1 0 0 0 .3.1 5.8 5.8 0 0 0 .8-1Zm-.4 5a1.2 1.2 0 0 0-.7.1.2.2 0 0 0 0 .2c.1.2.5.2.7.2h.8a13.4 13.4 0 0 0 1.7.2s.1-.2 0-.2a5.8 5.8 0 0 0-1.6-.3Zm-2.2 2.3a.2.2 0 0 0 0 .2 2.6 2.6 0 0 0 1 .7 13.3 13.3 0 0 1 1.3.6c.2.1.5-.3.3-.5l-1.2-.6a2.5 2.5 0 0 0-1.3-.5Zm-.3 1.1a1.5 1.5 0 0 0 0 .2 1.4 1.4 0 0 0 .2.2 7.3 7.3 0 0 0 .4.7 6.3 6.3 0 0 0 1 1.3h.2l.3.2.6.5.5.4a1.9 1.9 0 0 1 .5.4c.1.1.3-.1.2-.3a3.2 3.2 0 0 0-.8-.9l-.6-.5-.3-.2a.6.6 0 0 0-.3-.2.2.2 0 0 0-.1.1 12.6 12.6 0 0 1-.7-1.2 6.6 6.6 0 0 0-.5-.7l-.2-.3a.8.8 0 0 0-.3-.3l-.2.2a1.2 1.2 0 0 0 .1.4Zm-1.7.2a4.5 4.5 0 0 0 0 1.1l.1 1v1.8c0 .2.2 0 .3 0a12.7 12.7 0 0 0 0-2v-1a2.2 2.2 0 0 0-.3-1c0-.1-.1 0-.1 0Zm-.8.4a3.1 3.1 0 0 0-.5 1l-.3 1-.5 1.8a.2.2 0 0 0 .2.3.4.4 0 0 0 .3-.3l.6-2 .3-1 .1-.4a1.3 1.3 0 0 0 0-.4.1.1 0 0 0-.1 0Zm-3.1 1.2a1.4 1.4 0 0 0-.4.9h.3a3.5 3.5 0 0 1 .7-1l.6-.7.6-.6.3-.4a1.4 1.4 0 0 0 .3-.5c0-.2 0-.3-.2-.2a2.9 2.9 0 0 0-.9.8l-.7.8-.6.8Zm-1.4-1.7a.4.4 0 0 0 0 .4c0 .2.2.1.3 0l1-.8a9 9 0 0 0 .8-.8 1 1 0 0 0 .2-.2s0-.2 0 0a.3.3 0 0 0 0-.2c0-.2-.4 0-.5.1l-1.7 1.5Zm-2.2-5.6a9.6 9.6 0 0 0-2.1-.2c-.2 0-.4.4-.2.4.7 0 1.4 0 2.1.2a16.6 16.6 0 0 1 2 .5c.2 0 .4-.3.2-.3a12.5 12.5 0 0 0-2-.6Zm2.9-1.4a7.8 7.8 0 0 0-3-2.4c-.3 0-.5.3-.3.4a8.8 8.8 0 0 1 3 2.3c.2.1.3-.2.2-.3Zm2-.6a3.8 3.8 0 0 0 .2-1l.2-1a10.6 10.6 0 0 0 .1-2c0-.2-.3 0-.3.2a15 15 0 0 1-.1 1.8l-.2 1a4.8 4.8 0 0 0-.2 1c0 .2.2.1.2 0Zm2-1 .3-1 .7-2c0-.2-.2-.3-.2-.1l-.7 2-.3 1-.2.4-.1.2-.1.3v.3a.1.1 0 0 0 .2-.1 4.4 4.4 0 0 0 .3-1Zm2.2-.7.8-1.7c0-.2-.2-.3-.3 0l-.8 1.7-.4.9c-.1.3-.3.5-.2.8h.2a2.5 2.5 0 0 0 .4-.9c0-.3.2-.5.3-.8Zm-4.8.5a9.8 9.8 0 0 0 0-1.2 11.2 11.2 0 0 0-.3-2.4c0-.2-.3.1-.3.2a22.4 22.4 0 0 1 .4 2.4V162.8l.2-1.4Zm9.3 7.3 3.2.4.1-.3a62.2 62.2 0 0 0-4.8-.8c-.6-.1-1.2-.3-1.6 0a.2.2 0 0 0 0 .2.9.9 0 0 0-.2 0c-.3 0-.4.3-.3.4a1.6 1.6 0 0 0 .5.2l.5.2 1.1.4a16.4 16.4 0 0 0 2.2 1v-.3a6.1 6.1 0 0 0-1.9-1c-.3-.3-.7-.4-1-.6h-.4 1l1.6.2ZM233 173l-1.6 3.1v.1a23.5 23.5 0 0 0 2-3.2l.7-1.7.4-.8a1.8 1.8 0 0 0 .2-.8h-.2a7 7 0 0 0-.7 1.6l-.8 1.7Zm-6.8 0v.3a7 7 0 0 0 1.5-1.2l1.3-1.2a19.2 19.2 0 0 1 1.5-1.4l1.6-1.3a11 11 0 0 0-3.1 2.1l-1.5 1.4-1.3 1.2Zm-1-4.5c-.2 0-.3.4 0 .4l2.7-.5 1.4-.2.7-.1h.2l-.4.2-2 1c-.1 0-.2.3 0 .2l1.9-.9 1-.4.5-.2a2.2 2.2 0 0 0 .5-.2v-.3a1.6 1.6 0 0 0-.5.2l-.5.1s.1-.1 0-.2h-.2a1.3 1.3 0 0 0-.4 0h-.7l-1.4.2a27.6 27.6 0 0 0-2.8.6Zm-1.7-3.2 3.3.9 1.7.4.5.1-2.3.2c-.3 0-.5.7 0 .7l2.2-.3h1.1a2.5 2.5 0 0 0 1.2-.2c.1-.1.2-.3 0-.4l-.4-.1c0-.2-.2-.2-.4-.3l-1-.2-1.8-.5-4-.7c-.1-.1-.3.3-.1.3Zm4-3.3-1.7-.5c-.2 0-.3.3-.2.4a9 9 0 0 1 1.4.7l1.3.8a13 13 0 0 1 1.3.8 3.8 3.8 0 0 0 .6.4 1.9 1.9 0 0 0 .6.2c.2 0 .2-.2.2-.3 0-.3 0-.4-.3-.6a5.3 5.3 0 0 0-.6-.5 13.1 13.1 0 0 0-1.3-.8 7.7 7.7 0 0 0-1.4-.7Zm4-1.8a12 12 0 0 0-1.3-3.1c-.2-.3-.7.1-.6.4a12.3 12.3 0 0 1 1.2 3.1l.3 1.3-.4-.5a4.7 4.7 0 0 0-1.2-1c-.1-.1-.3.2-.2.3a7 7 0 0 1 1 1.4l1 1.3a1 1 0 0 0 .3.4.3.3 0 0 0 .2 0 .5.5 0 0 0 .3-.5 1.8 1.8 0 0 0-.2-.4 5.4 5.4 0 0 0-.1-1l-.4-1.7Zm2 2.6a26.2 26.2 0 0 0 1.2-3.3l.5-1.6a8.2 8.2 0 0 0 .5-1.5s0-.1-.1 0a8.8 8.8 0 0 0-.6 1.5l-.7 1.7a16.3 16.3 0 0 0-.9 3.2c0 .1 0 .1 0 0Zm3.3-3.5a25.9 25.9 0 0 0 1.2-3.6c0-.3-.3-.2-.4 0l-1.2 3.6-.7 1.6a7.4 7.4 0 0 0-.7 1.6c0 .1 0 .2.2.1a6.6 6.6 0 0 0 .9-1.6l.7-1.7Zm7.8 6v-.1a19 19 0 0 0-3 .3l-1.5.2a4 4 0 0 0-1.4.3s-.2.4 0 .4a2.6 2.6 0 0 0 .7-.1l.7-.1 1.5-.3a21.4 21.4 0 0 0 3-.6Z"/><path fill="#263238" d="M236 171a6.1 6.1 0 0 1-5.6-2.7 3.8 3.8 0 0 1-.5-1 6 6 0 0 1 .3-3.8 3 3 0 0 1 .9-1.5 2 2 0 0 1 1.7-.3 5 5 0 0 1 1.5.9 27 27 0 0 1 4.1 3.5 6.8 6.8 0 0 1 1.1 1.5c1 1.7-2.3 3.2-3.4 3.3Z"/><path fill="#455a64" d="M233.1 168.9a5.9 5.9 0 0 1-2.5-3 4.5 4.5 0 0 1 .3-3.9c2.4-3.6 7-.9 8.8 1.7a4.2 4.2 0 0 1 .5 4 3.3 3.3 0 0 1-.9 1.5c-1.5 1.4-4.7.6-6.2-.3Z"/><path fill="#263238" d="M241.8 155.9c.3-.4 1-1.6.3-1.8-.6-.2-1.1.6-1.3 1.2v-.1a.4.4 0 0 0 0-.1.4.4 0 0 0-.1-.2.3.3 0 0 0-.3-.2l.1-.1a.3.3 0 0 0-.3-.5 1 1 0 0 0-.4 0h-.2a.4.4 0 0 0-.2 0 .6.6 0 0 0-.2.3h-.1v.1a.2.2 0 0 0 0 .2.3.3 0 0 0 0 .2h.2a.6.6 0 0 0 .2.1.4.4 0 0 0 .2 0h.2l.2-.1a.5.5 0 0 0 0 .1 1.4 1.4 0 0 0-.2.3s0 .2 0 .2a.3.3 0 0 0 0 .1.5.5 0 0 0 0 .3.3.3 0 0 0 .1.2.4.4 0 0 0 .2 0 .5.5 0 0 0 .3 0 .8.8 0 0 0 .5-.1.6.6 0 0 0 .2-.3.5.5 0 0 0 .4.2 1 1 0 0 0 .2 0Zm1.7 2c.3-.4.8-1.5.1-1.6s-1 1-1 1.4a.8.8 0 0 0 0 .3.4.4 0 0 0 .5.2.8.8 0 0 0 .4-.4Zm2.1 2.4c.4-.2 1.3-1 .7-1.4s-1.3.4-1.5.8a.5.5 0 0 0 0 .3.4.4 0 0 0 .3.4.8.8 0 0 0 .5-.2Zm1.6 1.8a.7.7 0 0 0-.8-.2c.3-.5.5-1.1 0-1.3s-1 1-1.2 1.4a.6.6 0 0 0 0 .2.2.2 0 0 0 .2.2.5.5 0 0 0-.2 0 .4.4 0 0 0 .2.6.8.8 0 0 0 .5 0c.5 0 1.7-.3 1.3-1Zm1 1.9c0-.7-1-.8-1.5-.7a.8.8 0 0 0-.3 0 .4.4 0 0 0 0 .6 1 1 0 0 0 .3.4c.4.1 1.6.4 1.6-.4Zm-3.1 2.6a.7.7 0 0 0 .4.3c.4 0 1.3-.1 1-.8s-1.1-.3-1.4-.1a.4.4 0 0 0-.1.2.5.5 0 0 0 0 .4Zm3.6.5a.4.4 0 0 0 .1-.3.2.2 0 0 0-.1-.2.5.5 0 0 0-.3 0 1.1 1.1 0 0 0-.3 0h-.1l-.3.1h.1-.3a.7.7 0 0 0-.3.2l-.1.2a.5.5 0 0 0 0 .4.3.3 0 0 0 0 .1.5.5 0 0 0 .4.1.5.5 0 0 0 .3 0l.4-.1a1.7 1.7 0 0 0 .2-.2.7.7 0 0 0 .3-.3Zm0 3.3a.6.6 0 0 0 .2-.3.4.4 0 0 0 0-.2.3.3 0 0 0-.2-.1l-.3-.1-.3-.1a.6.6 0 0 0-.3-.1.5.5 0 0 0-.3 0 .7.7 0 0 0-.2 0 .6.6 0 0 0-.2.3.4.4 0 0 0-.1.2.5.5 0 0 0 0 .3.6.6 0 0 0 .4.2 1.3 1.3 0 0 0 .4 0h.7a.4.4 0 0 0 .2 0Zm-3.5-.3a.4.4 0 0 0-.2.1V170.5a.7.7 0 0 0 0 .2v.1l.2.1.2.2h.3a.8.8 0 0 0 .3 0h.2a.8.8 0 0 0 .4-.2.4.4 0 0 0 0-.2.3.3 0 0 0 0-.2.3.3 0 0 0 0-.2.4.4 0 0 0-.2-.1 1.3 1.3 0 0 1-.3 0 .6.6 0 0 0-.2-.2c-.1 0-.1 0 0 0a.3.3 0 0 0-.2 0 .2.2 0 0 0-.2 0 .3.3 0 0 0-.1 0 .3.3 0 0 0-.2 0Zm.3-1.7Zm-1 .8a4.1 4.1 0 0 0 .9.4.7.7 0 0 0 .4 0 .7.7 0 0 0 .3-.3.3.3 0 0 0 0-.2.2.2 0 0 0 0-.3.2.2 0 0 0-.1 0 2.7 2.7 0 0 1-.3-.2l-.1-.1a.6.6 0 0 0-.5-.2.7.7 0 0 0-.5.2.5.5 0 0 0-.1.2.3.3 0 0 0 0 .2.3.3 0 0 0 0 .2Zm1-.8h-.1c-.1-.1 0-.1 0 0Zm-1.6-3a2.6 2.6 0 0 0 .5 0l.4.2h.2a.5.5 0 0 0 .3-.1 1 1 0 0 0 .2-.2.4.4 0 0 0 0-.3.2.2 0 0 0 0-.1 1.5 1.5 0 0 1-.2-.2h.1a.7.7 0 0 0-.2 0h-.2l-.1-.1-.3-.1a.8.8 0 0 0-.7.2.5.5 0 0 0-.2.3.4.4 0 0 0 .2.3Zm-.3-1.7Zm.3-1h-.5a.7.7 0 0 0-.9.3.4.4 0 0 0 0 .2.3.3 0 0 0 .1.2.5.5 0 0 0 .4.2h.5a.6.6 0 0 0 .7-.2.4.4 0 0 0 0-.3.4.4 0 0 0-.1-.2Zm-1.3-1a.4.4 0 0 0 .1 0v-.2a.2.2 0 0 0 0-.2.1.1 0 0 0-.1 0 .2.2 0 0 0-.2-.1H241.4a.8.8 0 0 0-.2.1l-.1.1-.1.2a.4.4 0 0 0 0 .1.3.3 0 0 0 0 .2.3.3 0 0 0 .1.2.6.6 0 0 0 .3 0 .9.9 0 0 0 .5 0l.1-.1h.2a.7.7 0 0 0 .3-.3Zm-.2-3.5a.4.4 0 0 0-.4-.2.7.7 0 0 0-.5.2.6.6 0 0 0-.1.2v.1l-.2.1a1.7 1.7 0 0 0 0 .2.4.4 0 0 0 0 .3v.2a.5.5 0 0 0 .3.2.6.6 0 0 0 .3 0 .6.6 0 0 0 .3 0 .6.6 0 0 0 .2-.2.4.4 0 0 0 .1-.2 1.3 1.3 0 0 0 0-.3 1 1 0 0 0 0-.1v-.4a.3.3 0 0 0 0-.2ZM240 161l.1-.4v.1-.1l-.1-.6a.3.3 0 0 0-.2 0 .6.6 0 0 0-.3 0 .6.6 0 0 0-.2 0 .6.6 0 0 0-.2 0l-.1.2-.3.3a.4.4 0 0 0 0 .3v.2a.5.5 0 0 0 .2.2h.2a.9.9 0 0 0 .3 0 .7.7 0 0 0 .2 0 .6.6 0 0 0 .3-.1.6.6 0 0 0 .1-.1Zm-2.8-1.6a.6.6 0 0 0 .3.1.6.6 0 0 0 .3 0 .9.9 0 0 0 .2 0 .7.7 0 0 0 .3-.2.5.5 0 0 0 .1-.2 2.2 2.2 0 0 0 .1-.5 1.2 1.2 0 0 0 0-.2v-.1a.3.3 0 0 0 0-.2.3.3 0 0 0-.1 0 .2.2 0 0 0-.1-.1.3.3 0 0 0-.2 0 .6.6 0 0 0-.2 0H237.6v.1l-.2.1v.1a.8.8 0 0 0-.1.2l-.1.2a.8.8 0 0 0 0 .1.4.4 0 0 0 0 .3 1.2 1.2 0 0 0 0 .2Zm8.8 14a.4.4 0 0 0 .3.2 2.6 2.6 0 0 0 .3 0h.2a1.4 1.4 0 0 0 .3 0h.2a.6.6 0 0 0 .4-.3.3.3 0 0 0 0-.2.2.2 0 0 0 0-.1h-.2a2.1 2.1 0 0 0-.2 0h-.2l-.3-.2a.7.7 0 0 0-.3 0h-.2a.6.6 0 0 0-.3.4.4.4 0 0 0 0 .2Zm-1.6.5a.6.6 0 0 0-.3.3.4.4 0 0 0 .1.4h.1a2 2 0 0 0 .4.3 1.8 1.8 0 0 0 .5.2.7.7 0 0 0 .6-.3.4.4 0 0 0 .1-.3.3.3 0 0 0-.2-.2 1.5 1.5 0 0 1-.3-.2h-.1l-.2-.2v-.1a.6.6 0 0 0-.2 0 .8.8 0 0 0-.5 0Zm0-2.3a.5.5 0 0 0-.2.3.4.4 0 0 0 .2.3l.3.1.2.1a.7.7 0 0 0 .3 0h-.1.2a.3.3 0 0 0 .2 0 .4.4 0 0 0 .2-.1c.1-.1.2-.3.1-.4l-.1-.1v-.1h-.1l-.4-.2h.1a.6.6 0 0 0-.5 0 .7.7 0 0 0-.4.1Zm-2-.2Zm.1 0a.6.6 0 0 0-.3-.1h-.1a.7.7 0 0 0-.4.2.5.5 0 0 0-.2.4.3.3 0 0 0 0 .2.3.3 0 0 0 .2 0 1.3 1.3 0 0 0 .2.2l.2.1a1 1 0 0 0 .3 0h.1a.7.7 0 0 0 .2 0 .4.4 0 0 0 .2 0 .5.5 0 0 0 .1-.4.6.6 0 0 0 0-.2v-.1l-.1-.1a1.6 1.6 0 0 0-.2-.2Zm0 0Zm0 1.2h-.1Zm-.8-2.4a.4.4 0 0 0 0 .4.4.4 0 0 0 .3.2 2.7 2.7 0 0 0 .3 0h.5a.6.6 0 0 0 .4-.3.4.4 0 0 0 0-.3.2.2 0 0 0 0-.1 2.2 2.2 0 0 0-.5-.1l-.3-.1a.7.7 0 0 0-.7.3Zm.6-1.8a.4.4 0 0 0 0 .2.4.4 0 0 0 0 .2.5.5 0 0 0 .3.1h.1a.7.7 0 0 0 .3 0h.5a.8.8 0 0 0 .2-.2.5.5 0 0 0 .2-.3.2.2 0 0 0 0-.1.3.3 0 0 0-.1-.1.4.4 0 0 0-.3-.1.4.4 0 0 0-.3 0H243a.8.8 0 0 0-.3.1.5.5 0 0 0-.2.2Zm-1.7 5.5a3 3 0 0 1 0 .3v.1a.5.5 0 0 0 .2.1.4.4 0 0 0 .1.2.3.3 0 0 0 .3 0 .6.6 0 0 0 .2-.2.5.5 0 0 0 .1-.2v-.2a1.3 1.3 0 0 0 .4 0 .6.6 0 0 0 .3 0 .4.4 0 0 0 .1-.1l.1-.1a.2.2 0 0 0 0-.3.2.2 0 0 0 0-.1v-.2.1a.5.5 0 0 0-.2-.2l-.1-.1a.5.5 0 0 0-.2-.2.7.7 0 0 0-.3 0 .8.8 0 0 0-.2 0 .6.6 0 0 0-.3.1.5.5 0 0 0-.1.2.4.4 0 0 0-.1.2h-.2a.5.5 0 0 0-.1.2.7.7 0 0 0-.2.2.3.3 0 0 0 0 .1.3.3 0 0 0 .2.1Zm1 2.8a.4.4 0 0 0 .1-.2 1.7 1.7 0 0 0 0-.3.8.8 0 0 0 0-.1l-.2-.2h-.1l-.5-.5a.6.6 0 0 0-.3 0h-.1a.7.7 0 0 0-.4.1.6.6 0 0 0-.2.3.3.3 0 0 0 .1.3 4.3 4.3 0 0 0 .5.4 1.6 1.6 0 0 0 .3.2h.2a1.4 1.4 0 0 0 .3.1.4.4 0 0 0 .3 0Zm-2-.3a.7.7 0 0 0-.4.3.4.4 0 0 0 0 .3v.1a1.9 1.9 0 0 1 0 .4v.2a.3.3 0 0 0 0 .2.3.3 0 0 0 .2.1.3.3 0 0 0 .3 0h.2a.4.4 0 0 0 .1-.2 1.6 1.6 0 0 0 .2-.3.3.3 0 0 0 0 .2.2.2 0 0 0 .1 0 1.6 1.6 0 0 1 .3.5 1 1 0 0 0 .1.2h.1l.2.2a.1.1 0 0 0 .1 0l.2-.1a.5.5 0 0 0 0-.3 1.6 1.6 0 0 0 0-.3.7.7 0 0 0 0-.2.8.8 0 0 1 0-.2l-.2-.3a.6.6 0 0 0-.3-.3.5.5 0 0 0-.3 0 .7.7 0 0 0-.2.2.4.4 0 0 0 0 .2 2.3 2.3 0 0 0 0-.3 1.7 1.7 0 0 0-.1-.5.4.4 0 0 0-.2-.2h-.1a.7.7 0 0 0-.3.1Zm-1-1.6h-.1l.2.2h.2a.3.3 0 0 0 .1 0 .2.2 0 0 0 .1 0 .4.4 0 0 0 .1-.4 1 1 0 0 0 0-.1l-.1-.2-.2-.3a1.4 1.4 0 0 0-.2-.2.3.3 0 0 0-.2-.1.3.3 0 0 0-.1 0 .5.5 0 0 0-.4.1.5.5 0 0 0-.2.4.3.3 0 0 0 .1.2 2.5 2.5 0 0 0 .3.3Zm-1.1 1.5a.3.3 0 0 0 .2-.1.3.3 0 0 0 0-.1.2.2 0 0 0 .1-.1v-.6h-.2a.3.3 0 0 0-.2 0h-.1a1 1 0 0 0-.2 0v.2a.5.5 0 0 0-.1.1.3.3 0 0 0 0 .2v.1l.1.2.2.1a.2.2 0 0 0 .2 0Zm-2 0a.5.5 0 0 0-.2.4l-.1.6v.1a.7.7 0 0 0 0 .1v.2a.4.4 0 0 0 0 .1v.1a.3.3 0 0 0 .2.1.7.7 0 0 0 .5-.3 3 3 0 0 0 .2-.3 2 2 0 0 1 .1.1 1 1 0 0 0 .2.2 2.1 2.1 0 0 0 .2.2.3.3 0 0 0 .3 0v-.2.1a.7.7 0 0 0 0-.1.5.5 0 0 0 .1-.1 1 1 0 0 0 .1-.3v-.1a.3.3 0 0 0 0-.1v-.3a2.4 2.4 0 0 0-.2-.4.4.4 0 0 0-.3-.2.7.7 0 0 0-.4 0 .6.6 0 0 0-.3 0 .7.7 0 0 0-.3.2Zm-.7.4Zm-1 0a.4.4 0 0 0-.1.2 1 1 0 0 0 0 .1V177.3a.7.7 0 0 1 0 .1.9.9 0 0 0 .1.3.2.2 0 0 0 .1 0 .2.2 0 0 0 .2 0 .5.5 0 0 0 .3-.1 1.4 1.4 0 0 0 .1-.3v-.2.1a1.6 1.6 0 0 0 0-.2 1.6 1.6 0 0 0 0-.2v-.1a.3.3 0 0 0 0-.1v-.2a.5.5 0 0 0-.4 0 .5.5 0 0 0-.2.1l-.1.1Zm-1.7.7Zm0-1a.4.4 0 0 0 0 .2.5.5 0 0 1 0 .2.8.8 0 0 0 0 .2.7.7 0 0 0 0 .3.2.2 0 0 0 .1.1.3.3 0 0 0 .2 0 .5.5 0 0 0 .3-.1.9.9 0 0 0 .2-.2v-.4a.4.4 0 0 0 .1-.1.3.3 0 0 0 0-.3.5.5 0 0 0-.4-.2.5.5 0 0 0-.2 0 .6.6 0 0 0-.2.1.5.5 0 0 0 0 .2Zm0 1Zm-1.5-1-.2.5v.2a1.4 1.4 0 0 1 0 .2.2.2 0 0 0 0 .3.4.4 0 0 0 .4-.1 3.1 3.1 0 0 1 .3-.3 2.4 2.4 0 0 0 .2-.3v-.2h.1v-.1a.3.3 0 0 0 .1-.2.3.3 0 0 0 0-.2.3.3 0 0 0-.2-.1.6.6 0 0 0-.6.3Zm-1-1.5v.3l-.1.2a.7.7 0 0 0 0 .2.3.3 0 0 0 0 .2.3.3 0 0 0 .1.1.4.4 0 0 0 .4 0 .7.7 0 0 0 .3 0 .8.8 0 0 0 .2-.3l.1-.2v-.2a.5.5 0 0 0 .2-.4.3.3 0 0 0-.1-.2h-.1a.4.4 0 0 0-.2-.1.5.5 0 0 0-.2 0 .9.9 0 0 0-.3 0l-.1.2a1 1 0 0 0-.1.1.4.4 0 0 0 0 .1Zm1-1.4Zm.8-.2v-.2l.2-.2a.5.5 0 0 0 0-.2.3.3 0 0 0 0-.2s0 0-.1 0a.3.3 0 0 0-.2-.1.6.6 0 0 0-.2 0 .7.7 0 0 0-.3 0 .7.7 0 0 0-.3.4v.4a.7.7 0 0 0 0 .2v.2a.2.2 0 0 0 .1.1h.2a.6.6 0 0 0 .4-.2.6.6 0 0 0 .3-.2Zm-1 .2Zm3 1.9h.5l.1-.1a.8.8 0 0 0 .2-.2v-.1a1.5 1.5 0 0 0 .1-.2v.1a.8.8 0 0 0 0-.1.6.6 0 0 0 0-.4.5.5 0 0 0 0-.2.4.4 0 0 0-.2-.1.4.4 0 0 0-.2 0h-.4a.5.5 0 0 0-.2 0 .3.3 0 0 0-.1.1.4.4 0 0 0-.1.2V174.7v-.1a.3.3 0 0 0 0 .1v.1a.8.8 0 0 0 .1.1.4.4 0 0 0 0 .1l.2.1a.6.6 0 0 0 .2.3Zm-6.2-.3a1.2 1.2 0 0 0-.1.3V175.7a.3.3 0 0 0 0 .3.3.3 0 0 0 .1.1.5.5 0 0 0 .3 0 .4.4 0 0 0 .2 0l.3-.4h.1a1.5 1.5 0 0 0 .2-.3l.1-.2a.5.5 0 0 0 0-.3.5.5 0 0 0-.2-.4.8.8 0 0 0-.2 0 .7.7 0 0 0-.3 0 .7.7 0 0 0-.2.2.5.5 0 0 0-.1.1 1.7 1.7 0 0 0-.2.3Zm-1.5-.7a.5.5 0 0 0-.2.2.2.2 0 0 0 0 .2v.1a.3.3 0 0 0 .2 0h.1a.6.6 0 0 0 .2 0 .7.7 0 0 0 .2 0 1 1 0 0 1 .2 0l.1-.1h.2a.8.8 0 0 0 .2-.2v-.1a.4.4 0 0 0 0-.3.2.2 0 0 0 0-.2.4.4 0 0 0-.2 0h-.2a.5.5 0 0 0-.2 0 4.2 4.2 0 0 0-.6.4Zm.2-.6Zm-.7-.6a.3.3 0 0 0-.1.1.3.3 0 0 0 0 .3.4.4 0 0 0 .3.2 1.5 1.5 0 0 0 .4 0h.2a1 1 0 0 0 .2 0 2.1 2.1 0 0 0 .2-.1.8.8 0 0 0 .3-.2l.1-.1a.4.4 0 0 0 0-.3v-.2a.5.5 0 0 0 0-.2.5.5 0 0 0-.3 0 .9.9 0 0 0-.3 0 1 1 0 0 0-.3 0 1.5 1.5 0 0 0-.2 0h.1-.2l-.2.2a.7.7 0 0 0-.2.3Zm2.7-.4a.5.5 0 0 0 0 .1.3.3 0 0 0 0 .2.2.2 0 0 0 .2 0 .3.3 0 0 0 .1 0 .5.5 0 0 0 .2 0v-.1h.2l.1-.1h.2a.6.6 0 0 0 .2-.4.3.3 0 0 0 0-.1v-.1l-.1-.1a.3.3 0 0 0-.2 0 .3.3 0 0 0-.3 0h-.1a.6.6 0 0 0-.3.4v-.2.2Zm-3.5-1.4a.3.3 0 0 0 0 .2v.1a.3.3 0 0 0 0 .1h.5a1.9 1.9 0 0 0 .4 0 1 1 0 0 0 .4 0 1 1 0 0 0 .3-.3.5.5 0 0 0 .1-.2.3.3 0 0 0 0-.3.3.3 0 0 0 0-.1.8.8 0 0 0-.4-.2.9.9 0 0 0-.6.2h-.2a.7.7 0 0 0-.2.1v.1a.8.8 0 0 0-.3.3Zm-.5-1-.3.3h.1l.1-.2Zm-1.5-.2a.5.5 0 0 0 0 .1.3.3 0 0 0 0 .2.2.2 0 0 0 0 .1.2.2 0 0 0 .1.1h.4-.2a1.9 1.9 0 0 0 .5 0h.4a.8.8 0 0 0 .4-.3.5.5 0 0 0 0-.3.4.4 0 0 0 0-.2.4.4 0 0 0-.2-.1.5.5 0 0 0-.3 0 1 1 0 0 0-.2 0h-.2l-.3.1h.2-.2a.7.7 0 0 0-.2.1.9.9 0 0 0-.1.2ZM221 168a.7.7 0 0 0-.3.3.3.3 0 0 0-.1.2.3.3 0 0 0 0 .3h.2a.4.4 0 0 0 .2.1h.5a1.6 1.6 0 0 0 .6-.1.5.5 0 0 0 .2-.1.6.6 0 0 0 .2-.5.3.3 0 0 0-.1-.3.4.4 0 0 0-.2 0 .7.7 0 0 0-.3-.1h-.2a.9.9 0 0 0-.2 0h-.2Zm3.5 1h.2a1 1 0 0 0 .4 0 .7.7 0 0 0 .1-.2.4.4 0 0 0 .2-.2.3.3 0 0 0 0-.2.4.4 0 0 0 0-.2.6.6 0 0 0-.3-.2h-.2a.8.8 0 0 0-.3 0l-.3.1a1.4 1.4 0 0 0-.3.1.7.7 0 0 0-.4.6.3.3 0 0 0 0 .1.3.3 0 0 0 .2.2.5.5 0 0 0 .2 0h.4Zm-1.7-1.9v.2a1 1 0 0 0 .3.2h.2a1.2 1.2 0 0 0 .3.1h.3a.8.8 0 0 0 .3 0 .9.9 0 0 0 .3-.2v-.1a.5.5 0 0 0 .1-.3.2.2 0 0 0 0-.1.4.4 0 0 0 0-.2l-.2-.1V166.4a.4.4 0 0 0-.2-.2.5.5 0 0 0-.1-.2l-.3-.2H223.5a1.3 1.3 0 0 0-.5-.2.8.8 0 0 0-.4.1.5.5 0 0 0-.2.1v.2a.3.3 0 0 0 0 .3.3.3 0 0 0 0 .2 1.7 1.7 0 0 0 .3.2l.2.1a.5.5 0 0 0-.1.1.2.2 0 0 0 0 .1.3.3 0 0 0 0 .2Zm-.6-2.1-.1-.1a.5.5 0 0 0 .1.2.9.9 0 0 0 .3.2.3.3 0 0 0 .2 0 .8.8 0 0 0 .3 0h.2a.7.7 0 0 0 .3-.2.3.3 0 0 0 0-.2.4.4 0 0 0 .2-.2v-.1a.4.4 0 0 0-.1-.2.4.4 0 0 0-.2-.2h-.2l-.2-.1a.7.7 0 0 0-.3 0h.1a.5.5 0 0 0-.2 0 .9.9 0 0 0-.2 0 1 1 0 0 0-.3.2.4.4 0 0 0 0 .2.3.3 0 0 0 0 .1.3.3 0 0 0 0 .2Zm-.7-2.7Zm0 0Zm-1 .2a.4.4 0 0 0 0 .2.3.3 0 0 0 0 .1l.1.3a.4.4 0 0 1 0-.2v.2a.3.3 0 0 0 .1.1l.2.2a.5.5 0 0 0 .2.2h.2a.8.8 0 0 0 .5-.1.4.4 0 0 0 .1-.2.4.4 0 0 0 .2-.2.3.3 0 0 0 0-.2.3.3 0 0 0-.1-.2l-.2-.2a1 1 0 0 0-.2-.1l-.2-.2q-.3-.1-.2 0a.5.5 0 0 0-.3 0 .5.5 0 0 0-.2 0v.1a.6.6 0 0 0-.2.2Zm1.9-.9a.6.6 0 0 0 .2 0 .5.5 0 0 0 .3-.2.6.6 0 0 0 .1-.3.8.8 0 0 0 0-.1.5.5 0 0 0-.1-.3l-.3-.3-.2-.1a.3.3 0 0 0-.2-.2.3.3 0 0 0-.2 0 .8.8 0 0 0-.3 0 .6.6 0 0 0-.2.2.3.3 0 0 0 0 .1.6.6 0 0 0-.2.2.6.6 0 0 0 0 .1 2 2 0 0 0 0 .2.7.7 0 0 0 .1.2 2.3 2.3 0 0 0 .2.2.6.6 0 0 0 .2.3.8.8 0 0 0 .2 0 .8.8 0 0 0 .4 0Zm2.4 1h-.6a1.2 1.2 0 0 0-.4 0 .8.8 0 0 0-.3.2.4.4 0 0 1 0 .1.3.3 0 0 0-.1.1.3.3 0 0 0 0 .2.3.3 0 0 0 0 .1.3.3 0 0 0 .2 0H224.4a.8.8 0 0 0 .5 0 .6.6 0 0 0 .4-.4.4.4 0 0 0-.1-.3.6.6 0 0 0-.4 0Zm.9 2.1h.2a1 1 0 0 0 .3 0l.2-.2a.5.5 0 0 0 .1-.1.3.3 0 0 0 0-.2.3.3 0 0 0 0-.2v-.1a.3.3 0 0 0-.1-.2.4.4 0 0 0-.3 0 1 1 0 0 0-.2 0 1.7 1.7 0 0 0-.4 0h-.1a.5.5 0 0 0-.2.1.3.3 0 0 0-.1.1.2.2 0 0 0-.1.1.2.2 0 0 0 0 .1.3.3 0 0 0 0 .2v.2h.1a.6.6 0 0 0 .3 0h.1Zm.4 0h-.2.2Zm-.8-3.7a2 2 0 0 0-.4-.4l-.2-.1a1 1 0 0 0-.3 0h.1l-.2-.2a.4.4 0 0 0-.4.1.4.4 0 0 0 0 .4v.1a.3.3 0 0 0 0 .1.2.2 0 0 0 0 .2v.1a.6.6 0 0 1 0 .1l.1.1a.4.4 0 0 0 .1.1.5.5 0 0 0 .3.2h.1a.8.8 0 0 0 .5-.1.7.7 0 0 0 .3-.3.4.4 0 0 0 0-.4Zm.8-1.9a.3.3 0 0 0-.2 0h-.2a.3.3 0 0 0-.2 0 .6.6 0 0 0-.4.4.6.6 0 0 0 0 .2l.1.3a1 1 0 0 1 0 .2l.2.2v.2a.4.4 0 0 0 .2 0l.1.1a.7.7 0 0 0 .4 0h.1a.8.8 0 0 0 .3-.2.4.4 0 0 0 .1-.2.3.3 0 0 0 0-.2.3.3 0 0 0 0-.2l-.2-.2-.1-.2-.2-.3h-.1Zm-1.8-.6Zm.2-1.6-.1-.1Zm.6-1a.3.3 0 0 0-.2 0 .4.4 0 0 0-.2 0 .3.3 0 0 0-.1 0 .6.6 0 0 0-.2.1l-.1.2a.7.7 0 0 0 0 .1v.2a.8.8 0 0 0 .2.3v.1a1.2 1.2 0 0 0 .3.3h-.1a1 1 0 0 0-.4 0l-.2.2a.5.5 0 0 0-.2.2.5.5 0 0 0 0 .2.5.5 0 0 0 0 .3.4.4 0 0 0 .2.2l.1.1a1 1 0 0 0 .4.2h.2a1 1 0 0 0 .4-.1l.2-.1a.5.5 0 0 0 .1-.3.4.4 0 0 0 0-.2.4.4 0 0 0 0-.3.4.4 0 0 0-.2-.2l-.1-.1-.2-.1h.1a.9.9 0 0 0 .4 0 .8.8 0 0 0 .3-.3h.1a.4.4 0 0 0 0-.4.5.5 0 0 0 0-.3h-.1a2.7 2.7 0 0 0-.3-.4l.1.1a.4.4 0 0 1-.1 0l-.2-.2a.5.5 0 0 0-.2.1Zm.2 0Zm1.8-.6a.5.5 0 0 0 .2-.2 1 1 0 0 0 0-.2.5.5 0 0 0-.2-.3.8.8 0 0 0-.2-.2h-.1l-.2-.1h-.2a.3.3 0 0 0-.2-.1h-.1a.7.7 0 0 0-.3 0 .7.7 0 0 0-.3.3.3.3 0 0 0 0 .4 1.3 1.3 0 0 1 .1.1l.2.2v-.1a1 1 0 0 0 0 .1l.1.1a1 1 0 0 0 .3.1.9.9 0 0 0 .3.1h.2a.6.6 0 0 0 .3-.1Zm1.7.4a.8.8 0 0 0 .1-.2.4.4 0 0 0 0-.3V155l-.1-.3a1 1 0 0 0-.1-.2.3.3 0 0 0-.1 0h-.2a.8.8 0 0 0-.5.2.6.6 0 0 0-.2.2s0 .1 0 .1a.8.8 0 0 0 0 .4v.3l.1.2h.1a.6.6 0 0 0 0 .1.5.5 0 0 0 .5.1.8.8 0 0 0 .2 0 .7.7 0 0 0 .2-.3Zm-.4-1.7Zm1-.2a.6.6 0 0 0 0-.2.3.3 0 0 0 0-.2v-.2a1.8 1.8 0 0 0-.1-.2h-.1v-.1l-.2-.1h-.2a.4.4 0 0 0-.3 0 .4.4 0 0 0-.1 0h-.1a.8.8 0 0 0-.2.4v.1a.4.4 0 0 0 .1.2v.1a.6.6 0 0 1 .1.1v.1a.5.5 0 0 0 .2.2.3.3 0 0 0 .2 0 .4.4 0 0 0 .2 0 .3.3 0 0 0 .1 0 1 1 0 0 0 .3 0v-.1Zm-1 .2Zm4-.3a.6.6 0 0 0 .1-.2.4.4 0 0 0 0-.2v-.2a2.3 2.3 0 0 0 0-.3 1.2 1.2 0 0 0-.1-.2.4.4 0 0 0-.1-.1.4.4 0 0 0-.3-.1.5.5 0 0 0-.4 0l-.1.2a.4.4 0 0 0-.1.2.5.5 0 0 0 0 .2v.2a.8.8 0 0 0 0 .2.6.6 0 0 0 .4.6h.2a.8.8 0 0 0 .3-.1.5.5 0 0 0 .2-.2Zm4-.6a.7.7 0 0 0 0-.1.3.3 0 0 0 0-.2v-.1a.7.7 0 0 0 0-.2v-.3a.3.3 0 0 0 0-.2.2.2 0 0 0-.1 0 .5.5 0 0 0-.2 0 .6.6 0 0 0-.2 0l-.2.4a.8.8 0 0 0-.1.1V153a.4.4 0 0 0 0 .3c0 .2 0 .2.2.3a.3.3 0 0 0 .1 0 .7.7 0 0 0 .2-.1 1.2 1.2 0 0 0 .3-.2Zm0-1Zm.2 2.5.1-.2a.5.5 0 0 0 0-.3.3.3 0 0 0 0-.3.2.2 0 0 0 0-.1.3.3 0 0 0-.2 0 .3.3 0 0 0-.2 0v.1l-.2.2a.6.6 0 0 0-.2 0v.2h-.1l-.1.2a.4.4 0 0 0-.1.2v.1a.3.3 0 0 0 0 .1.4.4 0 0 0 .2.1.6.6 0 0 0 .5 0 .7.7 0 0 0 .3-.2Zm2.9 1.2c0 .1 0 .1 0 0Zm0 0Zm-1-.1a.6.6 0 0 0-.5.2.4.4 0 0 0 0 .1.6.6 0 0 0 0 .2v.2a.8.8 0 0 0 0 .3V157a.5.5 0 0 0 .3.4.8.8 0 0 0 .4 0 .7.7 0 0 0 .3-.1.7.7 0 0 0 .2-.2.4.4 0 0 0 0-.2.4.4 0 0 0 0-.2l-.1-.4a1.2 1.2 0 0 0 0-.2l-.2-.1a.2.2 0 0 0 0-.2.1.1 0 0 0-.2 0 .2.2 0 0 0 0-.1Zm-1 .2a.3.3 0 0 0 .1 0 .5.5 0 0 0 .2 0l.2-.2a.3.3 0 0 0 .1-.2v-.5a.9.9 0 0 0 0-.2.4.4 0 0 0 0-.1.4.4 0 0 0-.1-.1.1.1 0 0 0-.2 0 .6.6 0 0 0-.2 0 1 1 0 0 0-.4.2l-.2.3a1.2 1.2 0 0 0-.2.3v.1a.3.3 0 0 0 0 .2.3.3 0 0 0 .1.2.5.5 0 0 0 .2.1.4.4 0 0 0 .4 0Zm-.8-.3Zm0 0Zm0 .4a.6.6 0 0 0 0-.2 1.1 1.1 0 0 0 0-.2.3.3 0 0 0 0-.2h-.2a.5.5 0 0 0-.4 0 2 2 0 0 0-.5.2l-.3.1a.6.6 0 0 0-.3.3.5.5 0 0 0 0 .2.4.4 0 0 0 0 .3.5.5 0 0 0 .1.2.6.6 0 0 0 .2 0 1 1 0 0 0 .4 0h.2a.7.7 0 0 0 .3-.1.3.3 0 0 0 .2-.2 2.8 2.8 0 0 0 .2-.3Zm-1.6 2.3v.1a.5.5 0 0 0 .3.3.5.5 0 0 0 .3 0 .7.7 0 0 0 .4-.2l.1-.2a.4.4 0 0 0 .1-.2v-.1.1-.3a2 2 0 0 0 0-.5.3.3 0 0 0 0-.1.4.4 0 0 0-.3 0 .7.7 0 0 0-.2 0 .7.7 0 0 0-.3 0 1.2 1.2 0 0 0-.1.3v.1a1 1 0 0 0-.1.1 2 2 0 0 0-.1.3.4.4 0 0 0 0 .4Zm1.3-.6v.1Zm-3.4-1.7a.8.8 0 0 0 .3 0 .7.7 0 0 0 .3-.1.6.6 0 0 0 .2-.1.7.7 0 0 0 .1-.2 3 3 0 0 0 .2-.4v-.4a.4.4 0 0 0 0-.4.5.5 0 0 0-.3 0 .7.7 0 0 0-.3 0 .8.8 0 0 0-.3.1l-.3.4-.2.3V155.6s0 .1 0 0a.6.6 0 0 0 .4.5Zm0 2.1-.1.2a.4.4 0 0 0-.1.2.2.2 0 0 0 0 .2.3.3 0 0 0 .2.1.3.3 0 0 0 .2 0 .5.5 0 0 0 .2 0 .6.6 0 0 0 .3-.1v-.1a.6.6 0 0 0 .2-.3l.1-.7a.3.3 0 0 0-.1-.2.3.3 0 0 0-.2 0 .5.5 0 0 0-.3 0 .5.5 0 0 0-.2.2c0 .3 0 .4-.2.6Zm-.7-1.5a.6.6 0 0 0-.3 0l-.3.3a.9.9 0 0 0 0 .1l-.2.1v.1h-.1v.2a.7.7 0 0 0 0 .2v.2a.3.3 0 0 0 0 .2.6.6 0 0 0 .3.1.6.6 0 0 0 .3 0 .3.3 0 0 0 .2 0 .6.6 0 0 0 .2 0l.1-.2a.7.7 0 0 0 .2-.4.8.8 0 0 0 0-.2v-.4a.3.3 0 0 0-.1-.2.2.2 0 0 0-.2 0Zm-1.7-1.4a.7.7 0 0 0-.4.1.6.6 0 0 0-.1.2l-.1.1a1.3 1.3 0 0 0-.2.3v.3l-.1-.1a.3.3 0 0 0-.2-.2.7.7 0 0 0-.5 0 .5.5 0 0 0-.2.1.4.4 0 0 0-.1.2.3.3 0 0 0-.1.2.3.3 0 0 0 0 .2 2.3 2.3 0 0 0 .1.3v.1H228.4a.8.8 0 0 0-.2.1.5.5 0 0 0-.2 0 .5.5 0 0 0-.2.2v.2a.4.4 0 0 0 0 .2.3.3 0 0 0 0 .2 1.8 1.8 0 0 0 .3.3 2.1 2.1 0 0 0 .3.2.7.7 0 0 0 .3.1h.3a.7.7 0 0 0 .3 0 .7.7 0 0 0 .1-.2.5.5 0 0 0 .2-.2s0 0 0-.1a.4.4 0 0 0 0-.2v-.1a1 1 0 0 0 .4-.1.6.6 0 0 0 .2-.2.3.3 0 0 0 .1-.3.8.8 0 0 0 .2 0 .7.7 0 0 0 .3 0 .8.8 0 0 0 .3-.2l.1-.1a.6.6 0 0 0 .1-.3v-.5.1a1.8 1.8 0 0 0 0-.2v-.1c0-.1 0 0 0 0a.3.3 0 0 0-.1-.2.3.3 0 0 0-.1 0 .6.6 0 0 0-.4-.3Zm-2.2 4.3Zm0 .1Zm.2-.2a.5.5 0 0 0-.2.1.6.6 0 0 0 0 .2.5.5 0 0 0-.1.3v.1a.4.4 0 0 0 0 .1.5.5 0 0 0 .1.3.6.6 0 0 0 .2.1.5.5 0 0 0 .4 0 .7.7 0 0 0 .2 0 .6.6 0 0 0 .3-.2l.1-.1a.5.5 0 0 0 0-.6 1.5 1.5 0 0 0-.3-.2h-.4a.5.5 0 0 0-.2 0Zm-1.5 1.9-.1-.1a4.6 4.6 0 0 0 .4.4.7.7 0 0 0 .4.1.7.7 0 0 0 .3 0 .3.3 0 0 0 .1-.1.5.5 0 0 0 .2-.2h.1a.4.4 0 0 0 0-.3.4.4 0 0 0 0-.2.9.9 0 0 0-.2-.2.7.7 0 0 0-.2-.1 3.1 3.1 0 0 0-.3-.3.7.7 0 0 0-.3 0h-.1a.7.7 0 0 0-.5.2.5.5 0 0 0-.1.1.4.4 0 0 0 0 .2.3.3 0 0 0 0 .2.3.3 0 0 0 .1.2h.1Zm-1.1 6.3h-.1.2a1 1 0 0 0 .3 0h.2a.6.6 0 0 0 .2-.1.8.8 0 0 1 0-.2.3.3 0 0 0 0-.2.3.3 0 0 0 0-.2.3.3 0 0 0-.2 0 .4.4 0 0 0-.2-.2h-.6a.3.3 0 0 0-.2.2l-.1.2a.4.4 0 0 0 0 .1.3.3 0 0 0 0 .2v.1h.2Zm1.5 2.8h-.1Zm0-1.3-.1.1a.8.8 0 0 0-.3.2 1.3 1.3 0 0 0-.2.2.2.2 0 0 0-.1.2.3.3 0 0 0 0 .2v.1a.3.3 0 0 0 .1.1.2.2 0 0 0 .2 0h.1a1 1 0 0 0 .4 0l.3-.1.2-.1a.3.3 0 0 0 0-.1.6.6 0 0 0 .3-.3.4.4 0 0 0 0-.2.3.3 0 0 0-.1-.2.3.3 0 0 0-.2-.1.5.5 0 0 0-.2-.1.8.8 0 0 0-.4.2Zm2.2 2.2v.1a.2.2 0 0 0 .1.2h.1a.3.3 0 0 0 .2 0 .3.3 0 0 0 .1 0l.2-.1h-.2a.7.7 0 0 0 .3 0v-.2h.1l.3-.4a.6.6 0 0 0 0-.2.3.3 0 0 0 0-.2.4.4 0 0 0-.1-.2.5.5 0 0 0-.2 0 .7.7 0 0 0-.2 0 .8.8 0 0 0-.4 0l-.1.1a.7.7 0 0 0-.2.3v.4-.2a2.5 2.5 0 0 1 0 .3v.1Zm5.8 3.5a.3.3 0 0 0 0 .1.3.3 0 0 0 .1.1.5.5 0 0 0 .4 0 1.3 1.3 0 0 0 .3 0 .8.8 0 0 0 .1-.3.9.9 0 0 0 .2-.2 1 1 0 0 0 0-.2 1.7 1.7 0 0 0 .1-.2v-.2a.6.6 0 0 0-.2-.4.7.7 0 0 0-.3 0 .4.4 0 0 0-.2 0 1 1 0 0 0-.3 0h-.1a.4.4 0 0 0-.2.3.4.4 0 0 0-.1.2 1.6 1.6 0 0 0 0 .2V174.6v-.2a2.6 2.6 0 0 0 0 .3v.2h.2Zm1.3-.6v.1-.1Zm3-1.4a.8.8 0 0 0 .1 0 1 1 0 0 0 .2-.2.5.5 0 0 0 0-.2.3.3 0 0 0 0-.1V172a1.5 1.5 0 0 0-.2-.2.8.8 0 0 0-.3-.2.6.6 0 0 0-.3 0 .7.7 0 0 0-.3 0 .5.5 0 0 0-.2.2.7.7 0 0 0-.2.2.5.5 0 0 0 0 .3.8.8 0 0 1 0 .1.6.6 0 0 0 .3.2l.2.2-.1-.1a1 1 0 0 0 .2.1h.2a.6.6 0 0 0 .2 0Zm.7-1.8h.2a.5.5 0 0 0 .1-.1.2.2 0 0 0 0-.1.4.4 0 0 0 .2-.2.2.2 0 0 0 0-.2.2.2 0 0 0-.1 0 .3.3 0 0 0-.2-.2.5.5 0 0 0-.3 0 .5.5 0 0 0-.3 0 .6.6 0 0 0-.2 0 .6.6 0 0 0-.1.2.5.5 0 0 0-.1.2.4.4 0 0 0 0 .2v.1a.4.4 0 0 0 .3.1.8.8 0 0 0 .3 0 .4.4 0 0 0 .2 0Zm2.4-3.6Zm-.7 0h.4-.1.4a.6.6 0 0 0 .5-.2.4.4 0 0 0 0-.3.3.3 0 0 0 0-.1v-.1a1 1 0 0 0-.4-.2h-.5a.7.7 0 0 0-.4 0h-.2v.2h-.1v.1a.3.3 0 0 0 0 .2.4.4 0 0 0 .1.2.6.6 0 0 0 .3.2Zm0-3.5a.2.2 0 0 0 0-.2h-.2a.5.5 0 0 0-.2 0 1.8 1.8 0 0 0-.3 0h.2a1.3 1.3 0 0 0-.5 0l-.2.1a.5.5 0 0 0-.1.1l-.1.2a.8.8 0 0 1-.1.1.5.5 0 0 0 0 .4v.1a.5.5 0 0 0 .3.1.6.6 0 0 0 .3.1.6.6 0 0 0 .3 0 .6.6 0 0 0 .2 0l.2-.1a.5.5 0 0 0 .1-.2 1 1 0 0 0 .2-.2.5.5 0 0 0 .1-.3Z"/><path fill="#37474f" d="M149.5 145.3a49 49 0 0 0-5.3-4.4c-2.7-1.8-5-3.8-10.3-4.6s-9.5-1.4-10.9-2.2a50.3 50.3 0 0 0 4.9 5.2 25.8 25.8 0 0 0 13.6 5.7l8 .3Z"/><path fill="#455a64" d="M127.9 139.3a25.8 25.8 0 0 0 13.6 5.7c5.7.4 6.7.3 8 .4A91 91 0 0 1 123 134a50.3 50.3 0 0 0 4.9 5.2Z"/><path fill="#37474f" d="M139.6 136a29.4 29.4 0 0 1-5.2-8.3 55 55 0 0 1-2.6-16.4l3.7 7.2a35 35 0 0 1 4.1 17.5ZM129 125.8c-1-2.4-1-8.6-4-13.8s-9.9-9.2-11.3-12.5a79.3 79.3 0 0 1 1.7 8.4c.6 4 2.3 9.6 5.5 12.3 3.6 3 7.2 4.7 8.2 5.5Z"/><path fill="#455a64" d="M120.9 120.2c3.6 3 7.2 4.7 8.1 5.5a149.7 149.7 0 0 1-15.4-26.2 79.3 79.3 0 0 1 1.8 8.4c.6 4.1 2.3 9.6 5.5 12.3Z"/><path fill="#263238" d="M155.2 152c-3.1-6.8-9.8-11.4-15.1-16.3-5.9-5.5-12-10.9-16.4-17.6h-.2a82.2 82.2 0 0 0 16.3 18.9c5.1 4.6 11 9.2 14.8 15.1.1.3.8.2.6-.1Z"/><path fill="#37474f" d="M193.5 333.3a74 74 0 0 1 10 1.2c4.7 1 9.2 1.5 15.4 6.3s11.2 8.8 13.4 9.5a76 76 0 0 1-10.5.1c-4.2-.3-13.6-3.2-19.8-9s-7.1-6.7-8.5-8.1Z"/><path fill="#455a64" d="M221.8 350.4c-4.2-.3-13.6-3.2-19.8-9s-7.1-6.7-8.5-8.1a133 133 0 0 0 38.8 17 76 76 0 0 1-10.5.1Z"/><path fill="#37474f" d="M216.2 335a36.7 36.7 0 0 0 12-2.4c5.7-2.3 13.2-8 17.1-11.7l-9.7 2.8a44 44 0 0 0-19.4 11.3ZM235.2 335.4c3.5-1.3 10.2-7.5 18.8-9.6s20 1.2 24.9-.5A116 116 0 0 0 268 332c-5 3.5-12.6 7.3-18.7 6.6-6.8-.9-12.3-3-14.2-3.1Z"/><path fill="#455a64" d="M249.4 338.5c-6.8-.9-12.3-3-14.2-3.1 14.4-.4 43.7-10 43.7-10a116 116 0 0 0-10.8 6.5c-5 3.5-12.6 7.3-18.7 6.6Z"/><path fill="#263238" d="M180.6 334c10.5-3.6 22.1-1 32.8-.3 11.8.7 23.7 1.8 35.4-.3a121.5 121.5 0 0 1-36.6 2c-10-1-21-2.5-31.1-.6-.5 0-1-.7-.5-.8Z"/><g fill="#e0e0e0"><path d="M210.9 276.6a17.4 17.4 0 0 1 2.8-2.4l3.5-2.6c1.5-1 3-2.3 4.3-3.5a41.8 41.8 0 0 0 4.2-4 31.5 31.5 0 0 0 5.6-9.6 62 62 0 0 0 2.8-12 58.8 58.8 0 0 0 .7-7 20 20 0 0 0-.2-5.7l1.2.2c-5 4.8-10.8 8.8-15.2 14.2a27 27 0 0 0-5 9.6 53.6 53.6 0 0 0-1.6 10.5l-.5 6.4a17.4 17.4 0 0 1-.7 3.1 12.2 12.2 0 0 1-1.6 3.2c-.3.4-.7.2-.5-.2a23.5 23.5 0 0 0 1.4-5.6l.4-5.9a56 56 0 0 1 1.4-10.9 28.6 28.6 0 0 1 4.8-10 52.5 52.5 0 0 1 7.2-7.5c3-2.6 6-5 9-7.7.3-.3 1-.2 1.2.3a19.1 19.1 0 0 1 .3 5 57.2 57.2 0 0 1-.5 6.4l-1.1 6.4a45.3 45.3 0 0 1-1.6 6 33.2 33.2 0 0 1-5.3 10 46.4 46.4 0 0 1-9.2 8.4c-2.5 1.8-5.3 3.3-7.6 5.4-.3.2-.3-.3-.2-.4Z"/><path d="M235.7 230a84.1 84.1 0 0 1-4.8 13.5c-1.9 4.3-3.8 8.7-6 12.9a98 98 0 0 1-7 11.9l-4 5.6a81.4 81.4 0 0 1-4.2 5.3c-2.9 3.3-6.2 6.3-9.4 9.3s-6.5 6.6-9.6 10c-6.2 7.1-12 14.6-17.5 22.3-5.4 7.3-10.7 14.8-16.5 22l-2.6 3c-.4.4-1.3 0-.8-.5L162 334l8-11c5.5-7.5 11.1-15 17.2-22 3-3.6 6.1-7 9.4-10.3 3.1-3.1 6.5-6 9.6-9.2a93.7 93.7 0 0 0 8.5-10.4 106.4 106.4 0 0 0 7.7-12q3.4-6.1 6.3-12.4a147.4 147.4 0 0 0 7-16.6ZM216.3 193c-.3 6.1-3 11.8-3.7 17.9a19 19 0 0 0 .5 6.4 23.3 23.3 0 0 0 3.2 7.8l2.3 3a2.6 2.6 0 0 1 .7 2.5c-.1.2-.6.5-.7.1a3.9 3.9 0 0 0-.5-1 8.7 8.7 0 0 0-.7-1l-2-2.7a23.4 23.4 0 0 1-3.3-7.6 20 20 0 0 1-.7-6.6 36.1 36.1 0 0 1 1.4-7l1.6-5.4 1.5-6.3c0-.3.4-.5.4-.1Z"/><path d="m216.5 192.8 1.6 4c.6 1.3 1.2 2.3 1.9 3.4a38.3 38.3 0 0 1 3.2 7.4c1.3 4.6.5 9.4-.8 13.8l-1.4 4.3-.8 2.2a6.3 6.3 0 0 1-1 2.3c-.2.2-.6.2-.7-.1a3.4 3.4 0 0 1 .4-1.8l.7-2 1.3-3.8a41.2 41.2 0 0 0 1.5-6.1 19 19 0 0 0-.2-7.6 34.8 34.8 0 0 0-3-7.3l-2-3.8a21 21 0 0 1-1.5-4.5c-.1-.4.7-1 .8-.5Z"/><path d="M216.5 193.3a52.2 52.2 0 0 0 1.2 11.3l1.1 5.6c.3 1.9.6 3.9.7 5.8a111.3 111.3 0 0 1-.8 23.6 55 55 0 0 1-3.1 13.4c-.2.3-1 .6-.9 0 .9-4 1.9-7.8 2.5-11.8a108 108 0 0 0 1.2-12v-11.8a94.8 94.8 0 0 0-1.5-11.4c-.3-2-.7-4-.9-6.1a27.7 27.7 0 0 1 .2-6.5c0-.3.3-.4.3 0ZM243.4 281.6a20.9 20.9 0 0 1-7.6 2.2 33.7 33.7 0 0 1-7.9 0l-9-1.5a46.5 46.5 0 0 0-4.8-.5 15.3 15.3 0 0 0-3.7 0 17 17 0 0 0-3.2 1.1 10.6 10.6 0 0 0-3 1.8c-.5.4-1 0-.7-.5a6.5 6.5 0 0 1 2.3-1.7 19.9 19.9 0 0 1 3-1.2 10.9 10.9 0 0 1 3-.6 32.4 32.4 0 0 1 4.7.3c5.8.6 11.5 2.3 17.3 2.1a26 26 0 0 0 9.5-1.9c.1 0 .1.3 0 .4Z"/><path d="M243.4 281.7c-1.5.7-3.2 0-4.6-.5-2-.7-3.7-1.7-5.7-2.4a15.5 15.5 0 0 0-10 0 15.3 15.3 0 0 0-5.2 3c-.2.2-.6 0-.4-.4a5.2 5.2 0 0 1 2-1.7 27 27 0 0 1 2.4-1.3 14.4 14.4 0 0 1 5-1.2 16.6 16.6 0 0 1 5.3.4 31 31 0 0 1 5.5 2.3 29.8 29.8 0 0 0 2.9 1 4.2 4.2 0 0 0 2.7.3c.3-.1.2.4 0 .5Z"/><path d="M243.1 281.7c-1.1 1.6-3.2 2.6-4.9 3.4a22.6 22.6 0 0 1-2.6 1.2l-2.9.7a18.4 18.4 0 0 1-5.7.5 11 11 0 0 1-5.2-1.5 10.3 10.3 0 0 1-3.8-4c-.2-.3.5-1 .7-.5a11.5 11.5 0 0 0 3.3 3.5 10 10 0 0 0 4.8 1.6 17 17 0 0 0 5.6-.4 25.7 25.7 0 0 0 5.4-1.7c.9-.4 1.8-.8 2.7-1.4l2.5-1.7c.2-.1.2.3.1.3ZM239.2 258.4a16.1 16.1 0 0 1-2 3l-2.6 3.1a30 30 0 0 1-5.9 4.6 68.1 68.1 0 0 1-13.3 6.7l-2.6.9a6.1 6.1 0 0 0-2.7 1.6c-.1.2-.3 0-.2-.1a2.5 2.5 0 0 1 1.4-1.7 14.8 14.8 0 0 1 2.6-1.1c2.1-.7 4.2-1.6 6.2-2.5a61 61 0 0 0 6.7-3.6 46.4 46.4 0 0 0 6.2-4.3 29 29 0 0 0 3-3.1l1.4-1.8a23.9 23.9 0 0 1 1.6-2c.2-.1.2.1.2.2Z"/><path d="M244.6 262a17.8 17.8 0 0 1-7 3.7c-1.1.4-2.3.8-3.4 1a15.8 15.8 0 0 1-3.4.7c-.4 0 0-.6.1-.6 1-.4 2.3-.5 3.4-.8l3.4-1a23.8 23.8 0 0 0 6.8-3.2c.1 0 .2.1.1.2ZM236.3 271.7c-2.2-.1-4.5-.2-6.7-.1a35.5 35.5 0 0 0-4 .4l-3.8.8c-.2 0-.2-.4 0-.5a4 4 0 0 1 1.6-.5l2-.4a36.5 36.5 0 0 1 4.2-.5 20.7 20.7 0 0 1 6.7.5v.3ZM239 258l.6.1a2.7 2.7 0 0 0 .7 0 2.5 2.5 0 0 0 1-.4 1.8 1.8 0 0 0 .8-2 2.2 2.2 0 0 0-1.9-1.3 2.7 2.7 0 0 0-1.4.4 1.4 1.4 0 0 0-.6 1 2 2 0 0 0 .1 1.3 1.6 1.6 0 0 0 .4.4l.5.5c0 .2 0 .5-.3.5a1.5 1.5 0 0 1-1.3-1 2.4 2.4 0 0 1-.2-1.4 2.7 2.7 0 0 1 .9-1.6 3 3 0 0 1 1.6-.7 2.7 2.7 0 0 1 2.5 1.2 2.5 2.5 0 0 1-.5 2.9 2.5 2.5 0 0 1-1.4.8c-.4 0-1.4.2-1.7-.3 0 0 0-.3.2-.3Z"/><path d="M244.4 262.2a1.8 1.8 0 0 1-.5-1.4 2.1 2.1 0 0 1 .8-1.4 3 3 0 0 1 2.5-.6 2 2 0 0 1 1.4 2 2.6 2.6 0 0 1-1.5 2 2.4 2.4 0 0 1-2 0 1.1 1.1 0 0 1-.7-.7.4.4 0 0 1 0-.4.2.2 0 0 1 .3 0h.2l.3.2a2.3 2.3 0 0 0 .9.3 1.1 1.1 0 0 0 .4 0h.4l.1-.2c.1 0 0 0 0 0l.2-.1c.1-.1 0 0 0 0l.1-.1v-.2a1 1 0 0 1 .2-.1c0-.1 0 0 0 0v-.2a1.2 1.2 0 0 0 0-.6 1.4 1.4 0 0 0-.7-1 1.9 1.9 0 0 0-1.3 0 1.5 1.5 0 0 0-1 .6c-.2.5 0 1 .1 1.5 0 .2-.2.6-.4.4ZM236.1 271.7a1.4 1.4 0 0 1 .2-1.2 2.8 2.8 0 0 1 .7-.7 3 3 0 0 1 1.3-.6 2.7 2.7 0 0 1 3 1.4 2.5 2.5 0 0 1-.7 2.6 2.8 2.8 0 0 1-1.4.9 2.7 2.7 0 0 1-1.5 0 3 3 0 0 1-1.3-.9 1.9 1.9 0 0 1-.4-.7 2.1 2.1 0 0 1 0-.4 1 1 0 0 1 0-.6c.2-.2.4-.3.6-.1a2.4 2.4 0 0 1 .2.5 2.3 2.3 0 0 0 .2.5 2.6 2.6 0 0 0 .9.6 1.9 1.9 0 0 0 2 0l.1-.2v-.1a2.3 2.3 0 0 0 .4-.4 1.4 1.4 0 0 0 0-1 2.2 2.2 0 0 0-3-1 2.4 2.4 0 0 0-1 1.3c0 .1-.2.3-.3.1ZM235.7 302.2a21.1 21.1 0 0 1-3 1.6c-2.3 1-4.4 2.4-6.6 3.4a47.6 47.6 0 0 1-7 2.3c-4.7 1.3-9.5 2.3-14.3 3.4a132.5 132.5 0 0 0-14.1 4 76.6 76.6 0 0 0-12.5 5.9 81.7 81.7 0 0 0-19.2 15.6 156.5 156.5 0 0 0-12.8 16.2h1.2a146.5 146.5 0 0 1 14.5-17.9 76 76 0 0 1 32.4-20.1c4.7-1.5 9.4-2.6 14.2-3.8s9.5-2.2 14.1-3.8a41.8 41.8 0 0 0 6.8-3.1l3.2-1.7a21.6 21.6 0 0 0 3.1-1.7c.2 0 .1-.4 0-.3Z"/><path d="M208.7 312.5c.7-.7 1.7-1.2 2.5-1.9l2-1.7a27.5 27.5 0 0 1 5-2.8 11 11 0 0 1 2.8-.8l3-.5c2-.5 4-.6 6-1a29 29 0 0 0 3-.7 13.8 13.8 0 0 0 1.3-.5l1.9-.8c.2 0 .1.3 0 .4a7.3 7.3 0 0 1-2.4 1.4 15.8 15.8 0 0 1-2.6.9l-5.9.9-3 .5-3 .5a9.9 9.9 0 0 0-2.4 1l-2.5 1.4a30.6 30.6 0 0 0-2.9 2.1l-1.3 1a4.2 4.2 0 0 1-1.5.8c-.2 0-.1-.1 0-.2ZM217 290.7a15 15 0 0 1-3 3 44 44 0 0 1-4.5 3l-9.6 6c-5.8 3.4-11.8 6.5-17.3 10.3a67 67 0 0 0-6.8 5.4 27.2 27.2 0 0 1-2.4 2c-.3.3-.6 0-.4-.3a8.7 8.7 0 0 1 1.7-2l2-1.8a72.8 72.8 0 0 1 12.6-8.6l8.5-4.8 9.3-5.5c2-1.1 4-2.2 5.8-3.5l4.1-3.3.1.2Z"/><path d="M216.9 291a11.2 11.2 0 0 1-1 1.6l-.8 1.5-1.8 2.8a23.3 23.3 0 0 1-3.8 4.8 14.6 14.6 0 0 1-5.4 3 23 23 0 0 1-5.5 1 30.1 30.1 0 0 0-5 .4c-.2 0-.5 0-.3-.4s.7-.5 1-.5a18 18 0 0 1 2.8-.2 19 19 0 0 0 10.8-3 20.2 20.2 0 0 0 4.6-5l2-3 1.2-1.6a7.3 7.3 0 0 1 1.1-1.5l.1.2Z"/><path d="M217 290.8c-1.2 1.3-3 1.9-4.7 2.3-1.9.5-3.8.8-5.7 1.4a18.1 18.1 0 0 0-5.1 2.7 26.2 26.2 0 0 0-4.2 4.4l-2 2.6a6.5 6.5 0 0 1-2.5 2.2c-.3.1-.1-.4 0-.5a20.2 20.2 0 0 0 1.9-2.2l1.6-2.4a28.8 28.8 0 0 1 4.3-4.5 19.3 19.3 0 0 1 5-2.9 36.1 36.1 0 0 1 5.8-1.4 14.5 14.5 0 0 0 5.3-2c.3-.2.3.2.2.3ZM206.4 242.8a40.1 40.1 0 0 0-1.7 4.7l-1.5 6.9c-.7 3.7-1.5 7.3-2 11-1.3 7.3-2.5 14.6-5.1 21.6a62 62 0 0 1-3 6.6c-.6 1.1-1.2 2.3-2 3.4a18.1 18.1 0 0 1-2.5 3.5c-.2.2-.6.1-.5-.2a20.1 20.1 0 0 1 1.8-3.2c.7-1 1.2-2 1.8-3.1a57.2 57.2 0 0 0 2.8-6 73.6 73.6 0 0 0 3.4-11.5c.8-3.4 1.4-7 2-10.5s1.3-7 2.2-10.5c.7-2.7 1.2-5.3 2-7.9a25.6 25.6 0 0 1 1-2.5 12 12 0 0 1 1.1-2.4l.1.1Z"/><path d="M206.2 243.2a15.6 15.6 0 0 1-1.7 2.5l-1.6 2.4a31.7 31.7 0 0 0-2.8 5.2 18.4 18.4 0 0 0-1.4 5.6 11.6 11.6 0 0 0 0 2.7 18.3 18.3 0 0 0 .6 2.2l.7 2.4a5.6 5.6 0 0 1 .4 2.7c0 .3-.6.6-.6.1a11.5 11.5 0 0 0-.7-2.5l-.6-2a22.3 22.3 0 0 1-.5-2.3 11.8 11.8 0 0 1-.1-2.6 22 22 0 0 1 3.8-10.9l2-2.8 1.1-1.5a7.8 7.8 0 0 1 1.3-1.4v.2Z"/><path d="M206.5 243c-1 3.7.5 7.5.5 11.2a19.2 19.2 0 0 1-1 5.7 23.9 23.9 0 0 1-2.7 5.1l-1.6 2.6c-.6.8-1 2-1.6 3-.1 0-.4.1-.4 0a4.7 4.7 0 0 1 .8-2.6l1.4-2.3a29.6 29.6 0 0 0 2.8-5.2 18.1 18.1 0 0 0 1.2-5.8 42.9 42.9 0 0 0-.3-5.8c-.2-2-.4-4.3.6-6 .2-.3.4-.1.3.1ZM233.9 304.2a16 16 0 0 1-1.9 2l-2.2 2.2a35.6 35.6 0 0 1-4.7 3.8 17 17 0 0 1-10.5 2.7 20 20 0 0 1-3.3-.6l-1.8-.5a11.8 11.8 0 0 1-1.9-.5c-.4-.2 0-.8.3-.8a14.3 14.3 0 0 1 3.1.7l3 .7a14.8 14.8 0 0 0 5.1-.1 16 16 0 0 0 5-1.9 29 29 0 0 0 4.4-3.3l2.4-2.2a32 32 0 0 1 2.8-2.7c.3-.2.3.3.2.4Z"/></g><g fill="#e0e0e0"><path d="M203.8 95.9c-.2-2.3-1-4.6-1.3-7a41 41 0 0 1-.8-10.1 28 28 0 0 1 2.3-9.3 50.3 50.3 0 0 1 5.5-9.1 53.5 53.5 0 0 1 4.1-5 19 19 0 0 1 3.8-3.5c.4-.3 1.1-.1 1.1.4.2 6 1.3 12.1.6 18.1a24.3 24.3 0 0 1-2.7 9 40.4 40.4 0 0 1-5.5 7.4l-4 4.5a22.5 22.5 0 0 0-2.6 4.5c-.1.2-.7.5-.7 0 .5-3.3 3-5.8 5.1-8.3a55.6 55.6 0 0 0 5.8-7.4 23.4 23.4 0 0 0 3.2-8.9 43.4 43.4 0 0 0 .2-9c-.3-3.3-.6-6.6-.7-10l1 .5a16.8 16.8 0 0 0-3.3 3 50.6 50.6 0 0 0-3.5 4.3 55.9 55.9 0 0 0-5.8 9 27.5 27.5 0 0 0-2.6 9.3 42.4 42.4 0 0 0 .5 10.1l.4 3.6a15.2 15.2 0 0 1 .3 3.7c0 .2-.4.5-.4.2Z"/><path d="M217.6 52.3a102.4 102.4 0 0 0-5.1 12c-1.6 4.2-3.1 8.4-4.4 12.8a100.6 100.6 0 0 0-2.8 13.3c-.7 4.7-1.8 9.3-2.8 14l-1 5.5c-1.2 7.2-2.6 13-3.8 20.2a195 195 0 0 1-2 10.5l-2.1 11.6a562 562 0 0 0-3.5 23.5l-.4 2.5c0 .5-1 .7-1 .1.2-3.8.7-7.6 1.3-11.3a670.8 670.8 0 0 1 4.6-26.8c1.2-4.9 1.7-9.5 2.6-14.4l3.3-16.8c1.3-5.7 2.6-11.4 3.5-17.2a99.6 99.6 0 0 1 2.2-11.4c1.1-4.4 2.7-8.6 4.3-12.9a131.6 131.6 0 0 1 5.2-12.3 37.5 37.5 0 0 1 1.9-2.9Z"/><path d="M198.2 67.3a20.7 20.7 0 0 1-.2 3.4l-.2 3.5a31.3 31.3 0 0 0 1 6.5 56.5 56.5 0 0 0 4.2 12.1c.6 1.3 1.7 3.1.8 4.5 0 0-.3.2-.2 0a6 6 0 0 0-.6-2.2l-1-2-2.2-5.6a48.9 48.9 0 0 1-1.8-6.2 37.5 37.5 0 0 1-1-6.1 23.8 23.8 0 0 1 .3-3.7 16.5 16.5 0 0 1 .8-4.1c0-.1.2-.2.2 0Z"/><path d="M192.7 66.2a20.2 20.2 0 0 0 2.3 6l1.4 2.7.9 1.5a7.4 7.4 0 0 1 .7 1.2c0 .2-.3.6-.5.4a12 12 0 0 1-1.7-2.6 29.4 29.4 0 0 1-1.5-2.8 14.6 14.6 0 0 1-1.8-6.3s.1-.2.1 0ZM191.8 77a17.8 17.8 0 0 1 4.5 4 30 30 0 0 1 2.3 2.8 7 7 0 0 1 1.5 2.6c0 .2-.1.5-.3.3a65.3 65.3 0 0 0-4-5.6 58.3 58.3 0 0 0-4-4ZM198.3 67.6c-.5 0-.9-.3-1.1-.7a2.4 2.4 0 0 1-.6-1 2.1 2.1 0 0 1 3.6-1.9 2.6 2.6 0 0 1 .8 1.3 2 2 0 0 1-.3 1.6 2.4 2.4 0 0 1-1.2 1 1.9 1.9 0 0 1-.7 0c-.3 0-.6 0-.8-.2s.2-.4.4-.4a4.2 4.2 0 0 1 .6 0 1.3 1.3 0 0 0 .4 0 1 1 0 0 0 .3-.2 2.2 2.2 0 0 0 .3-.3 1.5 1.5 0 0 0 .4-1 2.3 2.3 0 0 0-.5-1.2 1.8 1.8 0 0 0-1.8-.6 1.5 1.5 0 0 0-1 1.6 2.1 2.1 0 0 0 .4 1 2.7 2.7 0 0 0 .5.4l.4.3c.1.1 0 .3-.1.3Z"/><path d="M192.6 66c.3-.1.7-.2.8-.6a1.4 1.4 0 0 0 0-.9 1.8 1.8 0 0 0-1.2-1.2.9.9 0 0 0-.7.1l-.2.2v.1a1 1 0 0 0 0 .2 1.6 1.6 0 0 0 .2 1.4 1.9 1.9 0 0 0 .6.5 2.5 2.5 0 0 0 .7.2c.2 0 0 .3 0 .4a1.6 1.6 0 0 1-2-.6 2.1 2.1 0 0 1-.3-2 2 2 0 0 1 2-1.2 2.2 2.2 0 0 1 1.7 1.6 1.8 1.8 0 0 1-1.6 2.3l-.1-.2a.3.3 0 0 1 .2-.3ZM191.6 77.2a3 3 0 0 0 .2-.4 2 2 0 0 0 0-.2 1.8 1.8 0 0 0 0-.6 2.1 2.1 0 0 0-.3-.8 1.9 1.9 0 0 0-1.8-1h-.2l-.1.1-.1.1c-.1.1 0 0 0 0a.9.9 0 0 0-.2.2 1.8 1.8 0 0 0-.2.8 1.6 1.6 0 0 0 1 1.6 2 2 0 0 0 1 .2 1.6 1.6 0 0 0 .4 0h.1a2.2 2.2 0 0 1 .4-.3c.2 0 .3 0 .3.2 0 .5-.7.8-1 .8a2.8 2.8 0 0 1-1.4 0 2.2 2.2 0 0 1-.5-4 2.4 2.4 0 0 1 2.8.5 2.1 2.1 0 0 1 .6 2 1.6 1.6 0 0 1-.7 1c-.1 0-.2 0-.2-.2ZM195.4 96l-.3 3.3a39.4 39.4 0 0 0 .2 4.4l.5 9c.3 5.3.9 10.6.8 16l-.3 4.5a35.2 35.2 0 0 1-1.2 6.9l.4-10.8c.1-2.7 0-5.4-.1-8l-.6-8a144 144 0 0 1-.2-8.5v-5.2a12.6 12.6 0 0 1 .7-3.6s.1 0 .1 0Z"/><path d="M195.3 96.3a5.7 5.7 0 0 1-.4 1.7l-.8 2a29.3 29.3 0 0 0-1.2 4.4 13 13 0 0 0 1 8.6l1.2 2a5.9 5.9 0 0 1 1 2.3c0 .2-.4.4-.5.1a10.8 10.8 0 0 0-1.2-2.1l-1-1.7a11.2 11.2 0 0 1-1.4-4.1 18.2 18.2 0 0 1 1.2-8.4l.9-2.4a10.5 10.5 0 0 1 1.1-2.4s.2-.1.2 0Z"/><path d="M195.6 96.1a13.4 13.4 0 0 0 .5 2.7 27.9 27.9 0 0 0 1 2.6 18.5 18.5 0 0 1 1.5 6 16 16 0 0 1-.8 5.8l-1 2.7c0 .4-.3.8-.4 1.2l-.5 1.6c0 .1-.3.3-.4 0a4.4 4.4 0 0 1 .4-2.7l.9-2.5a17.2 17.2 0 0 0 1-6.1 20.8 20.8 0 0 0-1.7-6.2c-.6-1.5-1.3-3.4-.8-5 0-.1.3-.3.3 0ZM225 84.9a21.8 21.8 0 0 1-2.5 6.1l-4.7 7.7-5.8 9.8a221.7 221.7 0 0 0-12.5 26.1 163 163 0 0 0-3.2 8.6l-1.4 4.3a24.8 24.8 0 0 1-1.5 4.2c-.1.2-.7.4-.7 0a16.7 16.7 0 0 1 .8-4 112.4 112.4 0 0 1 3.9-11.1c1.9-5 4-9.8 6.3-14.6a178.2 178.2 0 0 1 12.1-21.8c1.9-2.8 4-5.6 5.7-8.6a43.2 43.2 0 0 0 3.4-6.7c0-.1.2-.1.1 0Z"/><path d="M225 85.2a13.8 13.8 0 0 1-.3 3.5c0 1.1-.3 2.3-.5 3.4a29.1 29.1 0 0 1-1.7 6.3 22.5 22.5 0 0 1-3.8 6 39.2 39.2 0 0 1-4.1 3.9L210 112c-.2.2-.6.6-.9.6s-.2-.4 0-.6a11.6 11.6 0 0 1 2-2c3.2-2.6 6.5-5 8.8-8.6a24.4 24.4 0 0 0 3-7.1 55 55 0 0 0 1-5 18.8 18.8 0 0 1 .8-4c0-.2.2-.3.2 0Z"/><path d="M225 85c-.5 1.8-2.2 3.3-3.6 4.5a39 39 0 0 0-5.3 4.8 18.4 18.4 0 0 0-3.6 6.5 42 42 0 0 0-1.2 5.8c-.3 1.8-.4 4.2-1.7 5.6-.2.1-.5.2-.5 0l.6-2.6.4-2.8a50.1 50.1 0 0 1 1.1-5.5 18.7 18.7 0 0 1 3.2-6.4 25.2 25.2 0 0 1 5.3-5 17.8 17.8 0 0 0 5-5c0-.2.3-.2.3 0ZM172.2 104.7a41.1 41.1 0 0 0 2.2 10.9c.7 1.9 1.6 3.7 2.5 5.5l2.6 5.6a118 118 0 0 1 8.3 23 82 82 0 0 1 2.4 20.3 86.3 86.3 0 0 1-2.8 20 78.3 78.3 0 0 1-10 24.6c-.2.4-1.1.1-.8-.4a68.3 68.3 0 0 0 9.2-22 95.2 95.2 0 0 0 3.4-20.2 78.8 78.8 0 0 0-2-20.2 115.2 115.2 0 0 0-3-11.2 120 120 0 0 0-4.3-11.3l-5-11.3a38.3 38.3 0 0 1-2.7-10.4 65.1 65.1 0 0 1 0-3Z"/><path d="M180.2 129.4c0-1 .4-1.9.5-2.8a16 16 0 0 0 0-3 11 11 0 0 0-1.7-5c-1.9-3-4-5.8-5.6-8.9a14.5 14.5 0 0 1-1.1-2.6 6.3 6.3 0 0 1-.4-2.9s.2-.2.3-.1c.4.8.5 1.8.9 2.7a22.8 22.8 0 0 0 1 2.5l3 4.7 2.8 4.5a10.9 10.9 0 0 1 1.5 5 13 13 0 0 1-.2 3.1 7.6 7.6 0 0 1-.9 2.9Z"/><path d="M172.5 105.5a9.6 9.6 0 0 1-.2 2.4l-.4 2.6a27.7 27.7 0 0 0-.3 5.2 15.1 15.1 0 0 0 4 9 14.6 14.6 0 0 0 2.2 2 11.9 11.9 0 0 1 2.4 1.9c.2.2-.3.5-.5.4a25 25 0 0 1-2.4-1.7 16 16 0 0 1-2-1.6 15.5 15.5 0 0 1-3-4.1 15.2 15.2 0 0 1-1.5-4.7 19 19 0 0 1 .2-5.3l.5-3.2a15.3 15.3 0 0 1 .6-2.8c0-.2.4-.4.4 0Z"/></g><path fill="#455a64" d="m87.7 375.4 97.4-15.1v-221l-97.4 15.1v221z"/><path fill="#37474f" d="m182 137.5 3.1 1.8-97.4 15.1 5.4-3.1 88.9-13.8z"/><path fill="#455a64" d="m99.7 268.8 71.4-11v89.8l-71.4 11.1v-89.9z"/><path d="m99.7 268.8 71.4-11v89.8l-71.4 11.1v-89.9z" opacity=".1"/><path fill="#455a64" d="m105.1 273.4 60.6-9.4v79l-60.6 9.4v-79z"/><path fill="#263238" d="m99.7 358.7 5.4-6.3 60.6-9.4 5.4 4.6-71.4 11.1z"/><path fill="#37474f" d="m99.7 268.8 5.4 4.6v79l-5.4 6.3v-89.9zM165.7 264l5.4-6.2v89.8l-5.4-4.6v-79z"/><path fill="#455a64" d="m140.2 160.1 30.9-4.8v89.8l-30.9 4.8v-89.8z"/><path d="m140.2 160.1 30.9-4.8v89.8l-30.9 4.8v-89.8z" opacity=".1"/><path fill="#455a64" d="m145.6 164.6 20.1-3.1v79l-20.1 3.1v-79z"/><path fill="#263238" d="m140.2 249.9 5.4-6.3 20.1-3.1 5.4 4.6-30.9 4.8z"/><path fill="#37474f" d="m140.2 160.1 5.4 4.5v79l-5.4 6.3v-89.8zM165.7 161.5l5.4-6.2v89.8l-5.4-4.6v-79z"/><path fill="#455a64" d="m99.7 166.3 30.9-4.8v89.9l-30.9 4.8v-89.9z"/><path d="m99.7 166.3 30.9-4.8v89.9l-30.9 4.8v-89.9z" opacity=".1"/><path fill="#455a64" d="m105.1 170.9 20.1-3.1v79l-20.1 3.1v-79z"/><path fill="#263238" d="m99.7 256.2 5.4-6.3 20.1-3.1 5.4 4.6-30.9 4.8z"/><path fill="#37474f" d="m99.7 166.3 5.4 4.6v79l-5.4 6.3v-89.9zM125.2 167.8l5.4-6.3v89.9l-5.4-4.6v-79z"/><path d="M477.5 361.7c-74.4-.7-110.7 3.2-121.1 7-11.6 4.4-31.5 13-29 17.6s10.1 7 20.5 5.8 21.7-5 28.5-2.9 21 6 21 6-.2 7.5 8.2 12l31.9 15.4A153.6 153.6 0 0 0 470 379c2.8-5.7 5.3-11.4 7.5-17.3Z"/><path fill="#ffbda7" d="M351 359c0-4.3-1.2-38-1.2-38l18.9 10c-2 19.5-4 28.7-4.2 32a3 3 0 0 0 0 .7c0 3.8-4.8 6-8.5 8.7a72.8 72.8 0 0 1-10.1 6.3c-2.8 1.4-9 .7-9.8-.8 4.6-3.3 9.2-6.3 12.4-10.3 1.7-2 2.6-4.5 2.6-8.6Z"/><path fill="#263238" d="M329 383.2c-.3 0-.6 2.4.7 3.3 1.6 1.1 6 2.8 11.8 2s8.9-2.5 11.2-4.3 5.4-4.3 8-5a17.2 17.2 0 0 0 5.8-2.2c.7-.7.5-3.7.5-3.7Z"/><path fill="#37474f" d="M364.7 362s.4 0 .5.6.5 3.2 1 4.5a21 21 0 0 1 .8 7.2c-.3 1.5-4.2 2.7-6.7 3.6a33.2 33.2 0 0 0-8.1 4.9 26 26 0 0 1-12.1 4.4c-5.8.3-9.6-1-10.8-2.7-1.5-2.3-1-4.5 5.5-7.5a69 69 0 0 0 7-4.2c3.9-2.8 4.9-4 7-7.8a8.8 8.8 0 0 1 .8-1.7 2.1 2.1 0 0 1 2.2-.6 48.3 48.3 0 0 1 5.7 1c.9.3 2.2.7 2.2 1.7a3.1 3.1 0 0 1-.2 1c-.1.2-.2.5 0 .6s.5 0 .7-.2a15.9 15.9 0 0 0 1.7-2 5.6 5.6 0 0 1 1-1 12.2 12.2 0 0 0 1-.6 2 2 0 0 0 .8-1.2Z"/><path fill="#fafafa" d="M333.7 377.5c8.4.2 11.8 5.6 12.3 8.4a22.4 22.4 0 0 1-6 1.3c-5.7.3-9.7-1-11-2.7-1.4-2.1-1.1-4.8 4.7-7Z"/><path fill="#f0f0f0" d="M346.9 378a.4.4 0 0 0 .2 0 .3.3 0 0 0 0-.5c-1.2-1.2-5.2-3.7-8.2-3.3a.4.4 0 0 0-.4.4.4.4 0 0 0 .5.3c2.8-.4 6.6 2 7.5 3a.5.5 0 0 0 .4.2ZM350.4 376.1a.5.5 0 0 0 .3 0 .3.3 0 0 0 0-.6c-1.2-1.2-5.3-3.7-8.3-3.3a.4.4 0 0 0-.3.4.4.4 0 0 0 .4.3c2.8-.4 6.6 2.1 7.6 3a.5.5 0 0 0 .3.2ZM353.7 373.9a.4.4 0 0 0 .2-.1.3.3 0 0 0 0-.5c-1.2-1.2-6.1-4.2-9.1-3.8a.4.4 0 0 0-.4.4.4.4 0 0 0 .5.3c2.8-.4 7.5 2.6 8.4 3.6a.4.4 0 0 0 .4 0ZM356.9 371.7a.5.5 0 0 0 .2-.1.3.3 0 0 0 0-.5c-1.6-1.8-6.8-4.3-9.8-3.9a.4.4 0 0 0-.3.4.4.4 0 0 0 .4.3c2.8-.3 7.7 2.1 9.2 3.6a.4.4 0 0 0 .3.2Z"/><path fill="#ffbda7" d="m390.8 340.2 18.3-2.6c1 10.7.5 20.2 1.8 29.8.2 1.8 2.3 14 2.1 17.9-.2 5.7-8 6.4-9 3.1s-5-18.5-5.3-20c-1.7-5.8-3.4-12.3-7-24.5l-.9-3.7Z"/><path fill="#263238" d="M401 390.9c.1 3.5 1.3 6.4 3 7.8a7.1 7.1 0 0 0 6.6 1.5c2.5-.7 5.5-2.4 6.3-5.2 1-3.5.5-5.4-.2-8.4Z"/><path fill="#37474f" d="M410.7 366.3c1 0 1.6 4.4 2.4 8.8.9 4.8 2.6 6.7 3.4 10.5.8 4.5.5 7-1.1 9.8s-7.8 5.7-11.1 2c-2.7-3-3.8-6.4-3.8-10.9a87.3 87.3 0 0 0-.8-11.2c-.4-3.4-1.8-6.5-1-6.9.7 1.7 1.3 4.2 1.6 3.5a6 6 0 0 0 0-1.2 1.4 1.4 0 0 1 .3-1.1 2.1 2.1 0 0 1 1.1-.5c1-.3 4.2-1.1 5.2-1.2l1.6-.2a4.2 4.2 0 0 1 1.3.2.9.9 0 0 1 .6.4 1.3 1.3 0 0 1 .1.5 3.5 3.5 0 0 0 .2.9c0 .1.1.3.3.2s.1-.1.1-.2l-.1-1.6-.2-1v-.9Z"/><path fill="#fafafa" d="M417 388.2a11.3 11.3 0 0 1-1.2 7.4c-1.7 2.7-8 5.3-11.6 2a11.5 11.5 0 0 1-3.2-6.7c1.7-3 13-5.1 16-2.7Z"/><path fill="#f0f0f0" d="M403.3 386.3s5.3-2.6 10-1.9a.4.4 0 0 0 .5-.2.3.3 0 0 0-.3-.4c-5-.8-10.3 1.9-10.5 2a.3.3 0 0 0-.1.4.4.4 0 0 0 .4.1ZM413 381.1a.4.4 0 0 0 .2-.3.3.3 0 0 0-.2-.4c-4.8-1.2-10.3 1.8-10.5 1.9a.3.3 0 0 0-.1.5.4.4 0 0 0 .5 0s5.4-2.8 9.9-1.7ZM412.5 378a.4.4 0 0 0 .3-.2.3.3 0 0 0-.2-.5c-5.3-1.4-10.5 1.8-10.7 1.9a.3.3 0 0 0 0 .5.4.4 0 0 0 .4 0s5.1-3 10-1.7a.4.4 0 0 0 .2 0Z"/><path fill="#ebebeb" d="M412 374.5a.4.4 0 0 0 .3-.3.3.3 0 0 0-.2-.4c-5-1.4-10.6 1.8-10.8 2a.3.3 0 0 0 0 .4.4.4 0 0 0 .5.1s5.5-3.1 10-1.9a.6.6 0 0 0 .2 0Z"/><path fill="#263238" d="M391.3 223.5a7.7 7.7 0 0 0 1.6 3.7c5 6 7.4 11.7 8.3 22.8 2.2 27.4 2.8 56 2.8 56 .3 2.4 2.7 6.5 4.3 19 1.4 11 1.8 26 1.8 26s-13.3 2.4-17.2-1.1c-2.2-8.2-9.1-28.8-12.9-40.6-3.4-10.7-6-26.6-6-26.6l-4.1 22.4a60.2 60.2 0 0 1 .5 14.3c-.6 7.4-3.3 26.6-3.3 26.6-2.5 2.5-14 2.5-17-1 0 0-3.3-32.3-3.8-41.2-1-16.6-2.8-48.3 2.2-72.6l.7-5c6.4 4.5 34 2.8 42-2.7Z"/><path fill="#455a64" d="M380 231.8a.4.4 0 0 1 .4.2l1 3.5c1.1 4 2 6.8 5.3 9.8a12 12 0 0 0 8.4 2.7 40 40 0 0 0-10-19.8.3.3 0 0 1 0-.4.4.4 0 0 1 .4 0c5.2 5.3 8.5 12 10.3 20.3a70.5 70.5 0 0 1 1.4 10.2l3.1 44.9a42.1 42.1 0 0 0 2.4 9.7 115.6 115.6 0 0 1 3.3 11.4c2.4 10.3 2.2 27.5 2.2 27.7a.3.3 0 0 1-.3.3.3.3 0 0 1-.4-.3c0-.2.2-17.3-2.2-27.6-1-4.8-2.2-8.2-3.2-11.3a41.8 41.8 0 0 1-2.4-9.8l-3.1-44.9a71.3 71.3 0 0 0-1.4-9.8h-.3a12.5 12.5 0 0 1-8.6-3c-3.6-3-4.4-6-5.5-10l-1-3.5a.3.3 0 0 1 .2-.3Z"/><path fill="#455a64" d="M410 347.7c-2.4 2.3-13.2 4-17.1 2.2l1.9 6s2.8 1.1 8.4.4c6.5-.8 7-2.8 7-2.8ZM367 346c-3.2 1.2-13.1 1-16.9-1l.4 5s2.6 1.7 8.2 2 7.8-1.2 7.8-1.2Z"/><path d="m374 282.7-5-27a19.2 19.2 0 0 1-15-6s0 6.8 12.1 9.4l5.6 24.9-1.8 21Z"/><path fill="#ffbda7" d="M319 154.3v-.2a9.5 9.5 0 0 1 1.2-2.8 6.7 6.7 0 0 1 1.8-2.4l.7-.5a9 9 0 0 0 .7-.7 3 3 0 0 1 2.1-1.3h.7c.7 0 1.4-.6 2-.5s1.2.5 1.8.4a2.9 2.9 0 0 0 1.3-.6 1.2 1.2 0 0 1 1.3-.2 1.4 1.4 0 0 1 .3.6c.5 1.2-.5 2.3-1.2 3.1a13.3 13.3 0 0 0-1.2 1.5 5.6 5.6 0 0 0-.5 2.9v2.8l-.1 2.4c0 1.3 0 2 1.2.9a8.4 8.4 0 0 1 3.1-2.3c2-.6 2.5.5 1.8 1.3-1 1.2-2 2.8-3.4 4.9l-2 2.8c-1.3 1.7-1.5 5.5-1.2 8.8l1 13.5s10.6-3.2 15.5-4.5A125 125 0 0 1 361 181l-3.3 17.4-23.2 5.4c-12.3 3-16.7 3.7-17.2-7.7-.3-7.5.6-15.8 1-21.1a59.5 59.5 0 0 0 .3-8.8 56.8 56.8 0 0 1-.2-7.4 16.2 16.2 0 0 1 .6-4.5Z"/><path fill="#f0997a" d="M328.7 160.8c-2 .5-4.8 3.3-5.5 5.8-.2-3.2 2.6-6 5.5-5.8Z"/><path fill="#263238" d="M333.4 150.4a2.1 2.1 0 0 1 1.4 1.4 3.7 3.7 0 0 1-1.6 4.1 2.4 2.4 0 0 1-2 .3l-13.2-2.7c-.6-.2-.8-1.8-1-2.5a3.7 3.7 0 0 1 1.5-4c.6-.5 1.8-1.5 2.4-1.3.3 0 12.4 4.7 12.5 4.7Z"/><path fill="#fafafa" d="M328.6 148a2.7 2.7 0 0 1 1.7 1.8 4.7 4.7 0 0 1-2 5.3 3 3 0 0 1-2.5.4l-12.4-2.3c-.8-.3-1.1-2.2-1.5-3.2a4.8 4.8 0 0 1 2-5.3c.9-.5 2.4-1.9 3.2-1.6.3 0 11.2 4.8 11.5 4.9Z"/><path fill="#e0e0e0" d="m317 143.3 6 2.6 5.5 2.4a2.4 2.4 0 0 1 1.5 1.6 4.4 4.4 0 0 1-1.8 4.9 3 3 0 0 1-1.6.5 2.6 2.6 0 0 1-.7-.1l-6.1-1.2-6.3-1.2c-.4-.1-.8-1.4-1-2.1l-.2-.8a4.4 4.4 0 0 1 1.9-5c.2 0 .4-.3.7-.5a5.2 5.2 0 0 1 2-1m0-.4c-.8 0-2.1 1.2-3 1.7a4.8 4.8 0 0 0-2 5.3c.3 1 .7 2.9 1.5 3.1l12.4 2.4a2.5 2.5 0 0 0 .8 0 3.3 3.3 0 0 0 1.7-.4 4.7 4.7 0 0 0 2-5.3 2.7 2.7 0 0 0-1.8-1.8l-11.4-5a.6.6 0 0 0-.2 0Z"/><path fill="#e0e0e0" d="M316.7 152.5c-2.4 1.5-5 .7-5.8-1.8a6.4 6.4 0 0 1 2.7-7.2c2.3-1.4 4.9-.6 5.8 2a6.3 6.3 0 0 1-2.7 7Z"/><path fill="#263238" d="M318.1 153.2a4.6 4.6 0 0 1-2.5.8h-1.5.7a5.3 5.3 0 0 0 2-.8 6.1 6.1 0 0 0 .8-.7 7.2 7.2 0 0 0 1.8-7.7 5 5 0 0 0-1.1-1.8 1 1 0 0 0-.1 0l-.1-.2-.2-.1h-.1l1.2.7.3.2a4.8 4.8 0 0 1 1.3 2 6.7 6.7 0 0 1-1.8 7.2l-.3.2Z"/><path fill="#37474f" d="M328.8 152.5a.5.5 0 0 1 .3.5 1.7 1.7 0 0 1-.6 1.3.5.5 0 0 1-.5.1l-.5-.2a.5.5 0 0 1-.3-.4 1.6 1.6 0 0 1 .6-1.4.5.5 0 0 1 .5-.1Z"/><path fill="#455a64" d="M328.5 154.3a.5.5 0 0 1-.8-.3 1.6 1.6 0 0 1 .6-1.4.5.5 0 0 1 .5 0 .5.5 0 0 1 .3.4 1.7 1.7 0 0 1-.6 1.3Z"/><path fill="#fafafa" d="M307.8 138.7a5 5 0 0 1 3 3 7.6 7.6 0 0 1-2.7 9 5 5 0 0 1-4.2.7l-3.7-1.2a5 5 0 0 1-3.1-3 7.6 7.6 0 0 1 2.8-9 5 5 0 0 1 4.2-.6Z"/><path fill="#d8b4a1" d="M316.7 153.3a5.3 5.3 0 0 1-4.3.8h-.1l-5-1.4c7 1.4 10.3-10 4.2-13l4.7 1.7c5.1 1.6 4.7 9.5.5 12Z"/><path fill="#fff" d="M316.7 153.3a5.3 5.3 0 0 1-4.3.8h-.1l-5-1.4c7 1.4 10.3-10 4.2-13l4.7 1.7c5.1 1.6 4.7 9.5.5 12Z" opacity=".3"/><path fill="#d8b4a1" d="M311.5 152a5 5 0 0 1-7.5-2.3 7.7 7.7 0 0 1 2.8-9c2.9-2 5.8-2 7.6 2.2a7.8 7.8 0 0 1-2.9 9.1Z"/><path fill="#d8b4a1" d="M302.2 139.4a7.2 7.2 0 0 0-2.6 8.4 5 5 0 0 0 1.5 2 4.5 4.5 0 0 0 1.5.8l4 1.3h.2a4.3 4.3 0 0 0 .6.1 4.9 4.9 0 0 0 3.4-.8 7.2 7.2 0 0 0 2.6-8.4 4.9 4.9 0 0 0-2.3-2.6 5.5 5.5 0 0 0-.5-.2h-.2l-4-1.3a4.7 4.7 0 0 0-4.2.7Z"/><path fill="#fff" d="M302.2 139.4a7.2 7.2 0 0 0-2.6 8.4 5 5 0 0 0 1.5 2 4.5 4.5 0 0 0 1.5.8l4 1.3h.2a4.3 4.3 0 0 0 .6.1 4.9 4.9 0 0 0 3.4-.8 7.2 7.2 0 0 0 2.6-8.4 4.9 4.9 0 0 0-2.3-2.6 5.5 5.5 0 0 0-.5-.2h-.2l-4-1.3a4.7 4.7 0 0 0-4.2.7Z" opacity=".1"/><path fill="#d8b4a1" d="M296.6 147.7a5.5 5.5 0 0 0 3.7 3.1l4 1.1a5.6 5.6 0 0 0 4.6-1 7.8 7.8 0 0 0 2.6-9.5 6.1 6.1 0 0 0-3.6-3.2l-3.6-1.3a5.4 5.4 0 0 0-4.9.9 1 1 0 0 0-.1 0 7.3 7.3 0 0 0-2 2.3 8.3 8.3 0 0 0-.7 7.6Z"/><path fill="#fff" d="M296.6 147.7a5.5 5.5 0 0 0 3.7 3.1l4 1.1a5.6 5.6 0 0 0 4.6-1 7.8 7.8 0 0 0 2.6-9.5 6.1 6.1 0 0 0-3.6-3.2l-3.6-1.3a5.4 5.4 0 0 0-4.9.9 1 1 0 0 0-.1 0 7.3 7.3 0 0 0-2 2.3 8.3 8.3 0 0 0-.7 7.6Z" opacity=".3"/><path d="m318.5 151.7-5.1-1.5.2-.4-.9-.5-1.8-.6-.5.6L296 145V145.6a1.1 1.1 0 0 0 0 .2l.1.5c.1.2 0 .1 0 .2a3.2 3.2 0 0 0 .2.4v.2l.3.6a6.6 6.6 0 0 0 .3.6 4.4 4.4 0 0 0 .4.5v.1a4.2 4.2 0 0 0 .4.4l.4.4a4.7 4.7 0 0 0 .5.4 5.1 5.1 0 0 0 1.6.6l4 1.1a5.1 5.1 0 0 0 1.6.1 4.4 4.4 0 0 0 1.5.8l5 1.3h.1a5 5 0 0 0 3 0h.2a4.4 4.4 0 0 0 .7-.1l.6-.2 8.8 1.7a3 3 0 0 0 2.1-.2l3.4 1a2.5 2.5 0 0 0 2-.3 3 3 0 0 0 .5-.3Z" opacity=".2"/><path fill="#d8b4a1" d="M304.8 149.8a5.3 5.3 0 0 1-8.2-2.1 8.3 8.3 0 0 1 2.6-9.8c3.1-2.3 6.5-1.5 8.2 2a8.3 8.3 0 0 1-2.6 10Z"/><path d="M299.2 149.5c1.6 1.2 3.5.1 4.2-.4a8 8 0 0 0 2.4-9.3 4.6 4.6 0 0 0-1.4-1.8c-1.6-1.2-3.4-.1-4.1.4a8 8 0 0 0-2.5 9.3 4.7 4.7 0 0 0 1.4 1.8Z" opacity=".2"/><path fill="#d8b4a1" d="M302.2 138.9a4.7 4.7 0 0 1 2.2-1 4.6 4.6 0 0 1 1.4 1.9 8 8 0 0 1-2.4 9.3 4.7 4.7 0 0 1-2.2.9 4.6 4.6 0 0 1-1.5-1.8 8 8 0 0 1 2.5-9.3Z"/><path fill="#fff" d="M302.2 138.9a4.7 4.7 0 0 1 2.2-1 4.6 4.6 0 0 1 1.4 1.9 8 8 0 0 1-2.4 9.3 4.7 4.7 0 0 1-2.2.9 4.6 4.6 0 0 1-1.5-1.8 8 8 0 0 1 2.5-9.3Z" opacity=".6"/><path fill="#d8b4a1" d="M305.9 140a8 8 0 0 1-2.5 9.1 3.6 3.6 0 0 1-2.7-2.1 5.5 5.5 0 0 1 1.7-6.6 3.6 3.6 0 0 1 3.5-.5Z" opacity=".1"/><path fill="#d8b4a1" d="M306.4 142.6a8.5 8.5 0 0 1-1.2 4.6 2.2 2.2 0 0 1-3.3-1.1 3.6 3.6 0 0 1 1.1-4.2 2.3 2.3 0 0 1 3.4.7Z" opacity=".2"/><path fill="#fff" d="M305.4 141.7c.1-1.7-1.1-3-1.8-2.9s-4.8 3-3.5 8.3a9.4 9.4 0 0 1 1.5-5.7c1.7-2.2 3.5-1.4 3.8.3Z" opacity=".6"/><path fill="#263238" d="M345.7 154.5a2.1 2.1 0 0 1 1.4 1.4 3.7 3.7 0 0 1-1.6 4.1 2.4 2.4 0 0 1-2 .3l-13.2-2.7c-.6-.2-.8-1.8-1-2.5a3.7 3.7 0 0 1 1.5-4.1c.7-.4 1.9-1.5 2.5-1.3l12.4 4.8Z"/><path fill="#fafafa" d="M340.9 152a2.7 2.7 0 0 1 1.7 1.9 4.8 4.8 0 0 1-2 5.3 3.1 3.1 0 0 1-2.5.4l-12.4-2.4c-.8-.2-1.1-2.2-1.4-3.1a4.7 4.7 0 0 1 2-5.3c.8-.6 2.3-2 3.1-1.7l11.5 5Z"/><path fill="#e0e0e0" d="M329.2 147.4h.1l6 2.6a489 489 0 0 0 5.5 2.4 2.4 2.4 0 0 1 1.5 1.6 4.4 4.4 0 0 1-1.9 5 3 3 0 0 1-1.5.4 2.2 2.2 0 0 1-.7-.1L332 158l-6.3-1.2c-.4-.1-.8-1.4-1-2.1l-.2-.8a4.4 4.4 0 0 1 1.8-4.9l.8-.5a5.3 5.3 0 0 1 2-1.1m0-.4c-.8 0-2.2 1.2-3 1.7a4.7 4.7 0 0 0-2 5.3c.3 1 .7 3 1.4 3.2l12.4 2.3a2.5 2.5 0 0 0 .8.1 3.3 3.3 0 0 0 1.8-.5 4.8 4.8 0 0 0 2-5.3 2.7 2.7 0 0 0-1.8-1.8l-11.5-5a.7.7 0 0 0-.2 0Z"/><path fill="#e0e0e0" d="M329 156.6c-2.4 1.5-5 .7-5.8-1.8a6.4 6.4 0 0 1 2.7-7.2c2.3-1.4 5-.6 5.8 2a6.4 6.4 0 0 1-2.7 7Z"/><path fill="#263238" d="M330.4 157.3a4.6 4.6 0 0 1-2.5.8h-1.5.7a5.4 5.4 0 0 0 2-.8 6.2 6.2 0 0 0 .8-.7 7.2 7.2 0 0 0 1.8-7.7 4.9 4.9 0 0 0-1.1-1.7.5.5 0 0 0-.1-.1.3.3 0 0 0-.1-.1l-.2-.2h-.1l1.2.7a3.5 3.5 0 0 1 .3.3 4.7 4.7 0 0 1 1.3 1.9 6.7 6.7 0 0 1-1.8 7.3l-.3.2a3.1 3.1 0 0 1-.4.1Z"/><path fill="#37474f" d="M341.1 156.6a.5.5 0 0 1 .3.5 1.6 1.6 0 0 1-.6 1.3.5.5 0 0 1-.5.1l-.5-.2a.5.5 0 0 1-.3-.5 1.7 1.7 0 0 1 .6-1.3.5.5 0 0 1 .5-.1Z"/><path fill="#455a64" d="M340.8 158.4a.5.5 0 0 1-.8-.3 1.6 1.6 0 0 1 .6-1.4.5.5 0 0 1 .8.4 1.6 1.6 0 0 1-.6 1.3Z"/><path fill="#fafafa" d="M320 142.8a5 5 0 0 1 3.2 3 7.6 7.6 0 0 1-2.8 9 5 5 0 0 1-4.2.7l-3.7-1.2a5 5 0 0 1-3.1-3 7.6 7.6 0 0 1 2.8-9 5 5 0 0 1 4.2-.6Z"/><path fill="#d8b4a1" d="M329 157.4a5.3 5.3 0 0 1-4.2.8h-.3l-4.9-1.4c7 1.4 10.3-10 4.2-13l4.7 1.7c5.1 1.6 4.7 9.5.5 12Z"/><path fill="#fff" d="M329 157.4a5.3 5.3 0 0 1-4.2.8h-.3l-4.9-1.4c7 1.4 10.3-10 4.2-13l4.7 1.7c5.1 1.6 4.7 9.5.5 12Z" opacity=".3"/><path fill="#d8b4a1" d="M323.8 156a5 5 0 0 1-7.5-2.2 7.7 7.7 0 0 1 2.8-9.1c2.9-1.9 5.8-2 7.6 2.3a7.8 7.8 0 0 1-2.9 9Z"/><path fill="#d8b4a1" d="M314.5 143.5a7.2 7.2 0 0 0-2.6 8.4 5 5 0 0 0 1.5 2 4.5 4.5 0 0 0 1.5.8l4.1 1.3h.1a4.3 4.3 0 0 0 .6.1 4.9 4.9 0 0 0 3.4-.8 7.2 7.2 0 0 0 2.6-8.4 4.9 4.9 0 0 0-2.3-2.6 3.9 3.9 0 0 0-.5-.2h-.2l-4-1.3a4.7 4.7 0 0 0-4.2.7Z"/><path fill="#fff" d="M314.5 143.5a7.2 7.2 0 0 0-2.6 8.4 5 5 0 0 0 1.5 2 4.5 4.5 0 0 0 1.5.8l4.1 1.3h.1a4.3 4.3 0 0 0 .6.1 4.9 4.9 0 0 0 3.4-.8 7.2 7.2 0 0 0 2.6-8.4 4.9 4.9 0 0 0-2.3-2.6 3.9 3.9 0 0 0-.5-.2h-.2l-4-1.3a4.7 4.7 0 0 0-4.2.7Z" opacity=".1"/><path fill="#d8b4a1" d="M309 151.8a5.4 5.4 0 0 0 3.6 3.1l4 1.1a5.5 5.5 0 0 0 4.5-1 7.8 7.8 0 0 0 2.6-9.5 6.2 6.2 0 0 0-3.5-3.2l-3.6-1.3a5.4 5.4 0 0 0-5 1h-.1a7.5 7.5 0 0 0-2 2.2 8.3 8.3 0 0 0-.6 7.6Z"/><path fill="#fff" d="M309 151.8a5.4 5.4 0 0 0 3.6 3.1l4 1.1a5.5 5.5 0 0 0 4.5-1 7.8 7.8 0 0 0 2.6-9.5 6.2 6.2 0 0 0-3.5-3.2l-3.6-1.3a5.4 5.4 0 0 0-5 1h-.1a7.5 7.5 0 0 0-2 2.2 8.3 8.3 0 0 0-.6 7.6Z" opacity=".3"/><path d="m330.8 155.8-5.1-1.5.2-.4-.9-.5-1.8-.6-.5.6-14.5-4.3v.2l.1.4c.1.1 0 .1 0 .2a5.8 5.8 0 0 0 .1.6v.1l.1.5.1.1.2.6.4.6a1.5 1.5 0 0 0 0 .1 4.4 4.4 0 0 0 .3.4l.1.1a4.2 4.2 0 0 0 .3.4h.1l.4.5a4.6 4.6 0 0 0 .5.3 4.8 4.8 0 0 0 1.6.7c.8.2 3.5 1 4 1a5.2 5.2 0 0 0 1.6.2 4.5 4.5 0 0 0 1.5.7l5 1.3.1.1a5 5 0 0 0 3-.1h.2a4.5 4.5 0 0 0 .7-.1l.6-.1 8.9 1.6a3 3 0 0 0 2-.2l3.5 1a2.5 2.5 0 0 0 2-.3 3.7 3.7 0 0 0 .4-.3Z" opacity=".2"/><path fill="#d8b4a1" d="M317 154a5.3 5.3 0 0 1-8-2.2 8.3 8.3 0 0 1 2.5-9.8c3.1-2.3 6.5-1.5 8.2 2a8.3 8.3 0 0 1-2.6 10Z"/><path d="M311.5 153.6c1.6 1.2 3.4.1 4.2-.4a8 8 0 0 0 2.4-9.3 4.8 4.8 0 0 0-1.4-1.8c-1.6-1.2-3.4-.1-4.1.4a8 8 0 0 0-2.5 9.3 5 5 0 0 0 1.4 1.8Z" opacity=".2"/><path fill="#d8b4a1" d="M314.5 143a4.8 4.8 0 0 1 2.2-.9 4.8 4.8 0 0 1 1.4 1.8 8 8 0 0 1-2.5 9.3 4.6 4.6 0 0 1-2.1.9 4.6 4.6 0 0 1-1.5-1.8 8 8 0 0 1 2.5-9.3Z"/><path fill="#fff" d="M314.5 143a4.8 4.8 0 0 1 2.2-.9 4.8 4.8 0 0 1 1.4 1.8 8 8 0 0 1-2.5 9.3 4.6 4.6 0 0 1-2.1.9 4.6 4.6 0 0 1-1.5-1.8 8 8 0 0 1 2.5-9.3Z" opacity=".6"/><path fill="#d8b4a1" d="M318.2 144a8 8 0 0 1-2.5 9.2 3.6 3.6 0 0 1-2.7-2.1 5.5 5.5 0 0 1 1.7-6.5 3.6 3.6 0 0 1 3.5-.6Z" opacity=".1"/><path fill="#d8b4a1" d="M318.7 146.7a8.3 8.3 0 0 1-1.2 4.6 2.2 2.2 0 0 1-3.3-1.1 3.5 3.5 0 0 1 1.1-4.2 2.3 2.3 0 0 1 3.4.7Z" opacity=".2"/><path fill="#fff" d="M317.7 145.8c.1-1.7-1.1-3-1.8-2.9s-4.8 3-3.5 8.3a9.4 9.4 0 0 1 1.5-5.7c1.7-2.2 3.5-1.4 3.8.3Z" opacity=".6"/><path fill="#ffbda7" d="m330.4 160.2.3 6.2 2-2.8c1.4-2.1 2.3-3.7 3.4-4.9.7-.8 0-2-1.8-1.3a8.4 8.4 0 0 0-3.2 2.3 2 2 0 0 1-.7.5Z"/><path fill="#f0997a" d="m330.4 188.8.3 3.5 2.2-4.3Z"/><path fill="#455a64" d="M399.6 238.5c-3.2-9.4-6.4-13.9-6.4-16.8 0 0 3.3-17 3.7-20.6 1-9.2-5.2-16.1-7-17l-9-2a76.7 76.7 0 0 0-12.5-1.1H361c-2 1.6-8.3 8.3-10.2 11.7-3 5.4-3 8.4-3.3 14.1a1719 1719 0 0 0-.8 32.8c9.6 9 43 6.9 52.8-1.1Z"/><path fill="#37474f" d="m391.4 143.2.2.2c1 1 1.8 2.2 3.2 2.8s2.7.7 3.9 1.5a4.6 4.6 0 0 1 2 3.9c0 1.6-1 3.2-.8 4.9a10.4 10.4 0 0 0 1.2 2.7 4.5 4.5 0 0 1-1.4 5.7 6 6 0 0 0-2 2.1c-.5 1.2 0 2.6-.1 3.9-.3 2.2-2.8 3.6-5 3.6-1.3 0-2.7-.4-3.8.4-.8.5-1.2 1.5-1.9 2a4.4 4.4 0 0 1-2.6.9 9.3 9.3 0 0 1-4.6-1 6.2 6.2 0 0 1-3-3.3c-.6-1.3-.5-2.8-1-4.1-1-2.5-4-3.8-5-6.2a5.4 5.4 0 0 1 0-4.8c.6-1.1 1.7-2 2-3.4.5-1.6-.4-3.3-.4-5a5.2 5.2 0 0 1 2.4-4.3c1.4-.8 3-1 4.5-1.8.8-.4 1.6-1.1 2.4-1.6a8 8 0 0 1 9.8 1Z"/><path fill="#d8b4a1" d="M388.6 145a7 7 0 0 1 2.1 5.3 4 4 0 0 1-.4 1.7 3.4 3.4 0 0 1-3.5 1.5 6.3 6.3 0 0 1-3.4-2.1 8.6 8.6 0 0 1-2-3.8c-.2-.9-.5-2.4 0-3.3 1.4-2.3 5.8-.6 7.2.8Z"/><path fill="#37474f" d="M384.6 144.4a7 7 0 0 0-1-1.5 7.5 7.5 0 0 0-5.1-2.7 18.5 18.5 0 0 1-3.2-.1 13.8 13.8 0 0 1-3-1.4 9.5 9.5 0 0 0-5.5-1 7.4 7.4 0 0 0-4.8 2.8 16.1 16.1 0 0 1-1.1 1.5c-1.4 1.4-3.6 1.5-5.5 2.2a8 8 0 0 0-5 7.3 5.3 5.3 0 0 0 1.8 4.1 4.6 4.6 0 0 1 1-3.2c-.8 1 .1 3.5.7 4.4a5.6 5.6 0 0 0 3.6 2.8c.2 3 .2 5.6 2.2 8.1a8.2 8.2 0 0 0 7.5 3.3 22 22 0 0 0 1.5 2.6 8.7 8.7 0 0 0 2.5 2c1 .5 1.7.3 2.8.4 1.3.1 2.6.4 4 .3a1.6 1.6 0 0 0 1.6-.7l6-7.3a21.1 21.1 0 0 0 2.2-2.9 15.5 15.5 0 0 0 1.7-8.9 12.8 12.8 0 0 0-1.7-6 4.3 4.3 0 0 0-2.5-2 7.3 7.3 0 0 0-.7-4Z"/><path fill="#ffbda7" d="M386.4 161.4c-2-.7-3.6 0-4.6 2.1-1 1.8-2.8 1.2-2.4-1.5-4.5-4.2.6-7-3.1-11-2.3-2.4-7.1-1.7-9 0a4.7 4.7 0 0 0-5.5-2.2c-2 .8-3.3 2-4.2 4.8s-.2 3.4-.4 5.6a44.8 44.8 0 0 0-.7 5c-.3 7.4 1.6 10.2 3.7 11.7a11 11 0 0 0 6.8 2.1l-.3 3.9s-3.8 7.8-3.7 12.7a78.6 78.6 0 0 0 12.4-6.2 14 14 0 0 0 5.6-5.8l.3-12.6c.5 1.1 3.2 2.4 5.5.5 2.8-2.3 3-7.8-.4-9Z"/><path fill="#263238" d="m359 156.3 3.2-.8a1.6 1.6 0 0 0-2-1.2 1.8 1.8 0 0 0-1.3 2ZM370.2 156.7l3 1.4a1.6 1.6 0 0 0-.7-2.2 1.8 1.8 0 0 0-2.3.8Z"/><path fill="#f0997a" d="m366.8 157.4-1.3 8.6-4.2-1.7 5.5-6.9z"/><path fill="#263238" d="M369 160.6a1.4 1.4 0 1 0 1.5-1.3 1.4 1.4 0 0 0-1.4 1.3Z"/><path fill="#b16668" d="M366 169.7a1 1 0 0 0 1.4.6 1 1 0 0 0 .5-1.4 1 1 0 1 0-1.8.8Z"/><path fill="#263238" d="M359.2 159.4a1.4 1.4 0 1 0 1.4-1.4 1.4 1.4 0 0 0-1.4 1.4Z"/><path fill="#f0997a" d="M367 178c5.2-.1 10-1.4 12.8-8a9.9 9.9 0 0 1-4.9 8 18 18 0 0 1-8 2ZM445.4 254.8a3.7 3.7 0 0 1-2.2-.5 5.3 5.3 0 0 1-.8-.6.5.5 0 0 0-.1-.1.4.4 0 0 0-.2 0 3.8 3.8 0 0 1-3-.2l-3.5-1.4a8.8 8.8 0 0 1-1.9-1 3 3 0 0 1-1.2-1.6 1.6 1.6 0 0 1 .1-1.2 1.6 1.6 0 0 1 .6-.5 4.5 4.5 0 0 1 2.3-.5 12.2 12.2 0 0 1 6.5 1.8l2.1 1.5a4.6 4.6 0 0 1 1.2 2 7.2 7.2 0 0 0 .7 1.1c.1.2.5.4.4.8s-.2.3-.4.3a3.1 3.1 0 0 1-.6.1Z"/><path fill="#ffbda7" d="M434.6 253.3c-1.6-.8-3.3-.8-5-1.1-1.9-.4-3.7-.6-5.5-1.1a7 7 0 0 1-4-2.9 30.1 30.1 0 0 0-2.9-3.5c-2.2-2.3-9.2-8.2-14.3-13a18.5 18.5 0 0 1-5.4-7.7c-5-12.2-8.1-20.5-8.1-20.5a27.8 27.8 0 0 1 .5-19.5c10.1 2 11.1 3.3 15.3 15.5 2.2 6.6 3.1 10.5 7.2 21.1 8.1 11 14.4 19.6 15.3 20.3 1.5 1 5.2 2.6 8.4 3.6l5 1.5a5.2 5.2 0 0 1 1.6.5 5.3 5.3 0 0 1 1 1l2.7 2.8 2.5 2.1a1 1 0 0 1 .3.3c.5 1.4-2.2 1.2-2.8 1a9.8 9.8 0 0 1-2-1 17.7 17.7 0 0 1-2.8-2 5.2 5.2 0 0 0-3.2-1.4l-2.6-.1c-.2 0-.4 0-.4.2s0 0 .1.1a32.4 32.4 0 0 0 4.2 3 1.5 1.5 0 0 1 .6.5c.3.5-.1 1-.6 1.3-1.7 1-3.5-.2-5.1-1Z"/></svg>