<svg xmlns="http://www.w3.org/2000/svg" viewBox="0 0 500 500"><path fill="#ebebeb" d="M352.3 62.6v57.5h8.1V134l14-13.9h76.5V62.6h-98.6z"/><path fill="#fff" d="M420.2 91.3a4.7 4.7 0 1 0 4.7-4.7 4.7 4.7 0 0 0-4.7 4.7ZM397 91.3a4.7 4.7 0 1 0 4.6-4.7 4.7 4.7 0 0 0-4.7 4.7ZM373.6 91.3a4.7 4.7 0 1 0 4.7-4.7 4.7 4.7 0 0 0-4.7 4.7ZM187 244.7v80.5h-11.3v19.5l-19.5-19.5H49.1v-80.5H187z"/><path fill="#ebebeb" d="M187 244.7c0 22.9.6 57.9.6 80.5v.6h-11.9l.7-.6v21.3l-1.2-1.3-19.6-19.4c-23.6.7-81.4 0-107.5.3v-1l.2-80.4v-.9h.8l137.9.9Zm0 0-137.9.9.9-.9.1 80.5-1-1 107.4.1.3.2 19.4 19.6-1.2.6V324.5h12l-.6.6.6-80.4Z"/><path fill="#ebebeb" d="M92 285a6.5 6.5 0 1 1-6.5-6.5A6.5 6.5 0 0 1 92 285ZM124.6 285a6.5 6.5 0 1 1-6.5-6.5 6.5 6.5 0 0 1 6.5 6.5ZM157.2 285a6.5 6.5 0 1 1-6.5-6.5 6.5 6.5 0 0 1 6.5 6.5ZM67.4 92.6l4.3 6.5 7.6 2.1-4.9 6.2.3 7.9-7.3-2.7-7.4 2.7.3-7.9-4.9-6.2 7.6-2.1 4.4-6.5zM101.1 92.6l4.4 6.5 7.6 2.1-4.9 6.2.3 7.9-7.4-2.7-7.3 2.7.3-7.9-4.9-6.2 7.6-2.1 4.3-6.5zM134.9 92.6l4.4 6.5 7.6 2.1-4.9 6.2.3 7.9-7.4-2.7-7.4 2.7.3-7.9-4.8-6.2 7.5-2.1 4.4-6.5zM168.7 92.6l4.4 6.5 7.6 2.1-4.9 6.2.3 7.9-7.4-2.7-7.4 2.7.3-7.9-4.8-6.2 7.5-2.1 4.4-6.5zM210.4 116l-7.9-2.9-8 2.9.4-8.4-5.2-6.6 8.1-2.3 4.7-7 4.7 7 8.1 2.3-5.2 6.6Zm-7.9-4 6.8 2.5-.2-7.3 4.5-5.7-7-2-4-6.1-4.2 6-7 2 4.6 5.8-.3 7.3Z"/><path fill="#ebebeb" d="M202.5 112.6v-20l-4.4 6.5-7.5 2.1 4.8 6.2-.3 7.9 7.4-2.7z"/><g fill="#ebebeb" fill-rule="evenodd"><path d="M379.4 245.2c-2-1.2-3.7-3-6.3-2.8-1 .1-.8-.7-.8-1.2l-.1-29.6c0-.7 0-1.3.8-1.7 7.5-3.8 10.7-11.3 15.3-17.7a29.4 29.4 0 0 0 5.4-22.4c-.3-2.2.7-3.2 2.7-3.6 2.4-.6 4.8 0 5.6 1.7a39.9 39.9 0 0 1 4.4 13c.4 3.6-.9 7.3-1.4 11-.3 2.7-1 5.4-1.4 8.1.6.5 1.4.2 2.1.2h25c3.5 0 5.2 1 5.7 3.3a6.7 6.7 0 0 1-3.6 7.2c-.6.3-1.7 0-1.8 1s1.1.9 1.7 1.3c3 2 2.5 6.3-1 8.8-.9.6-2.5.3-2.5 1.6 0 1 1.5 1 2.2 1.6 2.4 2.4 1.2 6.9-2.4 8.7a11.6 11.6 0 0 0-1.5.6c-.4.3-.8.6 0 1.1 3.6 2.6 3.6 6.2 0 8.8l-1.1.8a7 7 0 0 1-4.4 1l-39.2.1a4.6 4.6 0 0 1-3.4-1ZM342.2 228V209c0-1.2 0-1.9 1.6-1.8l22.9-.1c1.5 0 1.7.5 1.7 1.8q0 19 .2 37.8c0 1.6-.5 2-2 2h-22.3c-1.8 0-2-.5-2-2.1l-.1-18.8Z"/></g><g fill="#ebebeb" fill-rule="evenodd"><path d="M234.8 328.8c1.5 1 2.8 2.3 4.8 2.1.7 0 .6.6.6 1v22.5c0 .5 0 1-.7 1.3-5.7 2.9-8.2 8.5-11.6 13.4a22.3 22.3 0 0 0-4.2 17c.2 1.6-.5 2.4-2 2.7-1.9.5-3.7 0-4.3-1.3a30 30 0 0 1-3.3-9.8c-.3-2.8.7-5.6 1-8.4l1.1-6.2c-.5-.3-1-.1-1.6-.2h-18.9c-2.6 0-4-.7-4.3-2.5a5 5 0 0 1 2.8-5.5c.4-.2 1.3 0 1.3-.7s-.8-.7-1.2-1c-2.3-1.6-1.9-4.8.8-6.7.6-.4 1.8-.2 1.9-1.2 0-.7-1.2-.7-1.7-1.2-1.9-1.9-1-5.3 1.8-6.6a8.2 8.2 0 0 0 1.1-.5c.4-.2.7-.4 0-.8-2.7-2-2.6-4.7.1-6.7l.8-.6a5.3 5.3 0 0 1 3.4-.7h29.7a3.5 3.5 0 0 1 2.6.6ZM263 342v14.3c0 1 0 1.4-1.3 1.4q-8.7-.1-17.4 0c-1 0-1.3-.4-1.3-1.4v-28.7c0-1.2.4-1.6 1.6-1.5h16.9c1.4 0 1.5.4 1.5 1.7V342Z"/></g><path fill="#263238" d="M43.6 453c132.2-.6 280.6-.6 412.8 0-132.2.6-280.6.6-412.8 0Z"/><g fill="#d8b4a1"><path d="m316.2 95.7 5.1 7.3 8.6 2.6-5.5 7.1.2 8.9-8.4-2.9-8.4 2.9.2-8.9-5.4-7.1 8.6-2.6 5-7.3zM141.2 220.5l5 7.3 8.6 2.6-5.4 7.1.2 8.9-8.4-3-8.5 3 .2-8.9-5.4-7.1 8.6-2.6 5.1-7.3zM203 301.1l2.5 3.6 4.3 1.3-2.7 3.6.1 4.4-4.2-1.5-4.3 1.5.1-4.4-2.6-3.6 4.2-1.3 2.6-3.6zM365.7 210.2l2.5 3.7 4.3 1.3-2.7 3.5.1 4.5-4.2-1.5-4.2 1.5.1-4.5-2.7-3.5 4.2-1.3 2.6-3.7zM287 80.5l2.5 3.6 4.3 1.3-2.7 3.5.1 4.5-4.2-1.5-4.2 1.5.1-4.5-2.7-3.5 4.3-1.3 2.5-3.6z"/></g><path fill="#ffc4c0" d="M212.9 452.5c2.4 1 74.8 2.3 77.5.7.3-.2 1.5-24.1 1.5-24.1 0-.4 1.2-2.7 3-5.9 5.2-9 15.3-25.1 15.3-25.1l-43-13-17.7 35.3-4.5 9s-9.8 3.9-18.5 7.7c-5.3 2.4-9.9 4.5-11 5.3-2.7 2.2-5 9.3-2.6 10.1Z"/><path fill="#fff" d="M212.9 452.5c2.4 1 74.8 2.3 77.5.7.3-.2 1.5-24.1 1.5-24.1 0-.4 1.2-2.7 3-5.9l-45.3-2.8-4.5 9s-10 3.9-18.5 7.7c-5.3 2.4-10 4.5-11 5.3-2.8 2.2-5.2 9.3-2.7 10.1Z"/><path fill="#d8b4a1" d="M212.6 452.8c2.5.9 75 2.1 77.8.4 1-.6 2.3-11.8 1.5-24.1l-46.7-.8s-27 12-30 14.2-5.2 9.4-2.6 10.3Z"/><path d="M290.4 453.2c-1 .7-11.4.9-24.2.9l24.6-25h1.1c.8 12.3-.5 23.5-1.5 24.1Z" opacity=".1"/><path fill="#263238" d="M213.7 450a1938.2 1938.2 0 0 1 73.2 1.5 1926.4 1926.4 0 0 1-73.2-1.6ZM220 440a9.8 9.8 0 0 1 7.2 3 9.5 9.5 0 0 1 2.6 6.6h-.1a11.3 11.3 0 0 0-9.7-9.5v-.2ZM241.3 429.5c5 0 10.5 1.8 13.5 5.8.1.2-.1.3-.3.3a67.5 67.5 0 0 0-13.2-5.5.3.3 0 0 1 0-.6ZM237.6 430.9c4.8 0 10.4 1.8 13.4 5.8.1.2-.1.3-.3.3a67.5 67.5 0 0 0-13.2-5.5.3.3 0 0 1 0-.6ZM233.8 432.3c4.9 0 10.5 1.8 13.4 5.8.1.2 0 .3-.2.3a67.5 67.5 0 0 0-13.3-5.5.3.3 0 0 1 .1-.6ZM230 433.7c4.9 0 10.5 1.8 13.4 5.8.1.2 0 .3-.2.3a67.5 67.5 0 0 0-13.3-5.5.3.3 0 0 1 .1-.6ZM284 439.9c5.5 0 5.3 8.5-.2 8.4s-5.3-8.6.2-8.4Z"/><path fill="#263238" d="M236.6 423.5c2.6 3.5 6.5 5.7 10 8.1a.6.6 0 0 0 .8-.4.1.1 0 0 0 .2-.1 25.5 25.5 0 0 0-4.2-12.5c-1.5-2.2-4.6-4.2-7-2.2s-1.3 5.1.2 7.1Zm-.2-4c.6-5.3 5.3-1.1 6.3.5a27.3 27.3 0 0 1 1.8 3.3c1 2.4 1.8 4.8 2.6 7.3l-5-3.7c-2-1.5-6-4.5-5.7-7.4Z"/><path fill="#263238" d="M264.9 428.3c-.3-3.2-4-4-6.5-3.5a25.5 25.5 0 0 0-11.9 5.8.1.1 0 0 0 0 .2.6.6 0 0 0 .4.9c4.1.7 8.5 2 12.7 1.4 2.5-.3 5.6-1.8 5.3-4.8Zm-11.5 3.2-6.1-1c2.3-1 4.5-2.3 7-3.2a29.5 29.5 0 0 1 3.5-1c2-.5 8.2 0 4.8 4.1-1.9 2.3-6.8 1.5-9.2 1.1Z"/><path fill="#37474f" d="m298.2 423-48.2-7.3s23.2-46.2 37.5-71.2c8-14 29.8-14.7 40.4 2 14.2 22.4 25.2 43.3 31.5 54.9l11 .9-2.4 17.9-36.4 8.1c-13.9 1.7-23.7-23.1-23.9-22.7l-9.5 17.4Z"/><path fill="#263238" d="M307.4 405.7c1.4-2.8 2.5-5.8 3.7-8.7l3.5-8.3 7.1-17 3.7-9.5a366.4 366.4 0 0 1-2.8 9l.8-1.5 2.4-4.1h.1l-2.3 4.1c-.3.7-.8 1.4-1.2 2a211.4 211.4 0 0 1-10 24.7c-1.5 3.2-3.3 6.2-4.8 9.3 0 .2-.2.1-.2 0ZM297.1 414.5c2.3-3.6 7.9-14.5 9.8-18.2 4-7.6 7.7-15.4 11.2-23.2 2-4.5 3.8-9 5.6-13.4a255.8 255.8 0 0 1-9.5 23.8 303.1 303.1 0 0 1-17.1 31ZM327 365.7l12.6 22.2 6.3 11.2 3 5.3a10 10 0 0 0 3.8 4 29 29 0 0 0 6 2c2.3.8 4.7 1.5 7 2.1v.2l-6.4-1.6a54.2 54.2 0 0 1-5.8-1.5 9.4 9.4 0 0 1-4.2-3 34.3 34.3 0 0 1-3-5q-6.3-11.4-12.4-22.9l-7-13h.1ZM299.3 416.3c-3-.6-5.9-.8-8.8-1.2l-8.8-1.1a580.3 580.3 0 0 1-27.1-4.6c1.4 0 14.4 1.7 17.3 2.1l17.4 2.9 5 .9 5 .8c.1 0 0 .2 0 .2Z"/><path fill="#ffc4c0" d="M267 463.4c1-2.4 47.1-58.2 50.2-59.2.3 0 19.2 14.7 19.2 14.7.8 1 38.2-5.2 38.2-5.2l-1.6 44.8-67.5-4.4s-9.4 5-17.9 9c-5.3 2.5-9.9 4.6-11.2 4.9-3.4.7-10.3-2.1-9.3-4.6Z"/><path fill="#fff" d="M276.4 468a96 96 0 0 0 11.2-4.8c8.5-4 17.9-9 17.9-9l15 1 25.2-37c-5.2.6-9 1-9.3.7 0 0-19-14.8-19.3-14.6-3 1-49.2 56.7-50.1 59.1s6 5.3 9.4 4.6Z"/><path fill="#d8b4a1" d="M266.6 463.5c1-2.5 47.4-58.2 50.5-59.2 1.2-.4 10.5 5.9 19.3 14.5l-29.9 36s-26.7 12.6-30.3 13.4-10.5-2.2-9.6-4.7Z"/><path fill="#263238" d="M269.6 464.6A1943.8 1943.8 0 0 0 316 408a1913.4 1913.4 0 0 0-46.6 56.6ZM281.2 466.3a9.8 9.8 0 0 0 2.4-7.5 9.4 9.4 0 0 0-3.3-6.3s-.1.1 0 .2a11.3 11.3 0 0 1 .8 13.5h.1ZM303.1 456.9c3.2-3.7 5.5-9.1 4.3-14 0-.2-.3-.1-.3 0a67 67 0 0 1-4.5 13.7.3.3 0 0 0 .5.3ZM299.6 458.9c3.2-3.7 5.4-9.2 4.3-14 0-.2-.3-.2-.3 0a67 67 0 0 1-4.5 13.6.3.3 0 0 0 .5.4ZM296 460.8c3.2-3.7 5.5-9.1 4.4-14 0-.2-.3-.1-.3 0a67.7 67.7 0 0 1-4.5 13.6.3.3 0 0 0 .5.4ZM292.5 462.8c3.2-3.8 5.5-9.2 4.4-14 0-.2-.3-.2-.4 0a67 67 0 0 1-4.5 13.6.3.3 0 0 0 .5.4ZM323 417.8c3.5-4.2-3-9.6-6.5-5.4s3 9.6 6.6 5.4Z"/><path fill="#263238" d="M309.7 469.2c3.2-.5 3.6-4.2 3-6.7a25.5 25.5 0 0 0-6.8-11.4.1.1 0 0 0-.2 0 .6.6 0 0 0-.8.4c-.4 4.2-1.3 8.7-.4 12.9.6 2.4 2.3 5.4 5.2 4.8Zm-4-11.2c0-2 .3-4.1.3-6.2a75.2 75.2 0 0 1 3.8 6.7 27.2 27.2 0 0 1 1.4 3.5c.6 1.8.6 8.1-3.7 5-2.4-1.5-2-6.5-1.9-9Z"/><path fill="#263238" d="M312.3 440.7c-3.2 2.8-5.1 7-7.3 10.6a.6.6 0 0 0 .5.8s0 .2.1.1a25.4 25.4 0 0 0 12.2-5.2c2-1.6 3.8-4.9 1.6-7.2s-5.3-.8-7.1.9Zm4-.5c5.3.1 1.5 5.2 0 6.3a26.6 26.6 0 0 1-3.2 2 76.2 76.2 0 0 1-7 3.2c1.2-1.7 2.2-3.5 3.3-5.2 1.4-2.1 4-6.4 6.9-6.3Z"/><path fill="#37474f" d="M362.9 399.8s47.9-5.2 66.8 0c26.4 7 29.5 38.8 9.1 50.9-25.8 15.3-115.2 6.8-115.2 6.8l25-42.1s37.4-7 71-4.3l-67.7 8.4Z"/><path fill="#263238" d="M346.8 418.2a1.4 1.4 0 0 0 0-.2 1 1 0 0 1 .1-.2l.1-.4a9 9 0 0 1 .4-.9c0-.3.2-.6.3-.8a5.6 5.6 0 0 1 .5-.8h.2c4.1-.7 32-3.8 36.2-4.2s8.4-.6 12.5-.8a225.3 225.3 0 0 1 25.1.1l2.3.2.6-.1 1.2-.3 2.3-.3 4.7-.5c.1 0 .2.1 0 .1l-4.7 1.1-1.4.3a217.2 217.2 0 0 1 9.1 1.3c-4.1-.5-8.3-.7-12.5-.8s-8.2-.2-12.4-.1c-8.4.2-16.7.6-25 1.2-4.8.3-33.2 3.7-38 3.7a2.1 2.1 0 0 1-.1.3l-.5.9-.4.7-.3.4v.2a1.3 1.3 0 0 0-.2.1s-.1 0 0-.2Z"/><path fill="#263238" d="M336.4 454.9c1.5-2.5 2.8-5 4.1-7.6s2.7-5 4.1-7.5a631.6 631.6 0 0 1 13.6-22.9c-.5 1.3-6.6 12.5-8 15-2.8 5-5.8 9.8-8.7 14.7l-2.5 4.1a67 67 0 0 0-2.6 4.2ZM359.6 421.4l7.5-1.2 7.6-1.2q7.5-1.3 15.1-2.3c10-1.4 20.1-2.5 30.3-3.1 5.7-.4 11.4-.6 17.1-.8.2 0 .1.2 0 .3a285.9 285.9 0 0 0-30.5 2.2q-15 1.7-30 3.9l-8.4 1.2c-2.9.4-5.8 1-8.7 1.2a.1.1 0 0 1 0-.2ZM381.7 332c1.9 4.7 4.5 8.9 6 13.7a31.4 31.4 0 0 1 1.1 13.8c-2.6 16.9-24.6 27-40 21.8A24.2 24.2 0 0 1 333 365c-2.4-9.5 2.6-18.5 5.7-27.1a44.1 44.1 0 0 0 2.5-15c0-4.5-.3-9 .6-13.5a20 20 0 0 1 14.4-16c8.3-2.6 16.8 2 20.6 9.9 4.5 9.2 1.3 19.4 5 28.6Z"/><path fill="#263238" d="M342 333.4c-3.6 7.7-8.3 15.6-9.7 24-1.2 7.1.7 14.8 6.9 19v-.1c-6.4-5-7.2-13.7-5.4-21 1.8-7.7 6.3-14.3 8.6-21.8a.2.2 0 0 0-.4-.1Z"/><path fill="#263238" d="M340.4 333c-2.7 10-11 18-11.6 28.8 0 0 .2.1.2 0 .7-10.8 10-18.4 11.6-28.9h-.2ZM382.3 331.8a35 35 0 0 1-3.2-11.8.2.2 0 0 0-.3 0c-1 14.8 16 26 11.5 41.3l.1.1c2.2-6.3.5-12.7-2.3-18.5-1.8-3.8-4-7.3-5.8-11Z"/><path fill="#263238" d="M378.9 317.7c0-.2-.5-.2-.5.1a33.2 33.2 0 0 0 5.3 15.6c1.4 2.3 3.3 4.4 4.7 6.7 1.6 2.6 2.8 5.4 4 8h.2a51.4 51.4 0 0 0-7.5-13.5 36.6 36.6 0 0 1-6.2-16.9Z"/><path fill="#d8b4a1" d="M346 345c-22.6 15.3-41 29.8-43 40-2.7 14 5.9 18.4 9.8 18.6 10.6.6 34.8-35.2 42.3-51.3 7.3-15.7-4.1-10.6-9.1-7.2Z"/><path d="M355.1 352.3c-7.5 16-31.7 52-42.3 51.3-2.8-.1-7.7-2.3-9.5-8.3l53.9-52.4c.7 1.5.3 4.4-2 9.4Z" opacity=".1"/><path fill="#d8b4a1" d="M398.3 399.8s-27 3.5-40.1 3.3a61.7 61.7 0 0 1-23.3-5.8l5.3-19.6s-5.3-6.7-1.2-14c3-5.3 12.1-16.5 17-21.7 11-11.8 20.3-5.1 23-1.4 10.3 14.4 19.3 59.1 19.3 59.1Z"/><path fill="#263238" d="M356.7 376.2a44.4 44.4 0 0 0-7.5.4l-3.6.7-1.9.4a7.3 7.3 0 0 1-1.9.1v.1a12 12 0 0 0 1.8.2 11.6 11.6 0 0 0 1.8-.1l3.7-.6c2.5-.4 5-.8 7.6-1v-.2ZM362.4 379.5a49 49 0 0 0-6-1.2l-3-.2h-1.5l-1.7.1v.1l1.5.2 1.6.2 3 .3a163.6 163.6 0 0 1 6 .5Z"/><path fill="#d8b4a1" d="M381 344.3c18.4 15.9 31.4 38.1 30.9 52.6-.6 14.3-5.5 12.7-6.9 12.5-8.6-1-27-41.8-32.4-58.3s3.8-10.8 8.4-6.8Z"/><path fill="#263238" d="M394 397.7c-1-1.9-1.9-3.7-2.7-5.6l-2.8-5.5-5.3-11.2a989.5 989.5 0 0 1-10-22.5 113.8 113.8 0 0 0 4 11.7l5 11.3c1.7 3.8 3.7 7.4 5.6 11s4 7.3 6.2 10.8Z"/><path fill="#263238" d="M375 357.8a18.8 18.8 0 0 0-1.2-2l-.6-.9-.6-.9a5.6 5.6 0 0 0 .8 2.1 6 6 0 0 0 1.5 1.7Z"/><path fill="#d8b4a1" d="M358.3 350.4s12.3-9.9 18.8-9.6l5.5 4.8s1.8.6 2.3-.5a12 12 0 0 0-4.2-14c-5.3-4.2-16.4-3.3-23.7-1.4-7 1.8-11 6-8.8 10.6s10 10 10 10Z"/><path d="M357.6 348.2s-5.7-5.9-6.6-9.3 6-6.7 10.5-8c6.9-2 11.5-1.5 15.3 2.2s-19.2 15.1-19.2 15.1Z" opacity=".1"/><path fill="#ffc4c0" d="M367.6 338c-.2 1.3-5.3 7.3-10.6 7.8-1.8.1-2.4-7-2.4-7l-.3-.8-3.5-9.4 10.5-9 1.5-1.2 1.8 6 .1.5.2.6.4 1.5.3 1.1.3 1.2a65.4 65.4 0 0 1 1.7 8.8Z"/><path fill="#263238" d="M364.6 324.4a20.2 20.2 0 0 1-10.3 13.6l-3.5-9.5 10.5-8.9 1.5-1.2 1.8 6Z"/><path fill="#ffc4c0" d="M340 308.2c-6.9 16.3 2.1 22.3 5.6 23.8 3.2 1.3 14.3 5.5 22.8-10s3.2-24-4-27.4S347 292 340 308.2Z"/><path fill="#263238" d="M344 307.2a12.1 12.1 0 0 0 1.2.2 2 2 0 0 0 1.3 0 .6.6 0 0 0 .3-.7 1.6 1.6 0 0 0-1.3-1 2.3 2.3 0 0 0-1.7.3.7.7 0 0 0 .2 1.2ZM355.6 311.1a10 10 0 0 1-1-.7c-.4-.2-.8-.4-1-.9a.7.7 0 0 1 .4-.7 1.6 1.6 0 0 1 1.5.3 2.3 2.3 0 0 1 1 1.3.7.7 0 0 1-1 .7ZM351.8 313.3v.1c-.4 1.1-.9 2.4 0 3.2v.1c-1.2-.7-.6-2.5 0-3.4Z"/><path fill="#263238" d="M353.3 312.6c1.9.6.4 4.2-1.3 3.6s-.2-4.2 1.3-3.6Z"/><path fill="#263238" d="M354 313c.2.3.4.8.8 1s.9 0 1.3-.3c-.3.8-.8 1.4-1.6 1.2a1.5 1.5 0 0 1-.9-1.7c0-.2.3-.3.4-.2ZM345.4 310.5h-.1c-.4 1.2-1 2.4-2.2 2.4 1.3.4 2.1-1.3 2.3-2.4Z"/><path fill="#263238" d="M344.9 309c-1.8-1-3.3 2.7-1.7 3.4s3.1-2.8 1.7-3.5Z"/><path fill="#263238" d="M344 308.8c-.4.1-.8.3-1.1.2s-.6-.7-.7-1.1c-.3.7-.4 1.5.2 1.9s1.2 0 1.7-.7l-.1-.3ZM348.3 322.3c-.4.2-.8.5-1.2.4a3.3 3.3 0 0 1-1.2-.6 1.6 1.6 0 0 0 1.3 1 1.3 1.3 0 0 0 1.2-.7s0-.1-.1 0ZM344.8 316.6s-.8 1.7-1 2.5c0 0 .1.2.4.3a4 4 0 0 0 4.2-.3c.1 0 0-.2 0-.1a6.2 6.2 0 0 1-4-.2c0-.2 1.5-2.7 1.4-2.8a7.2 7.2 0 0 0-2-.1c1.5-3.5 3.6-6.7 5-10.2.1-.1 0-.2-.1-.1a61.6 61.6 0 0 0-6 10.7c-.1.4 1.7.4 2 .3Z"/><path fill="#263238" d="M344.4 319a5 5 0 0 0 1.2 2.2 2.3 2.3 0 0 0 1.2.6c1 0 1.4-.8 1.5-1.5a5.8 5.8 0 0 0 0-1.3 6.3 6.3 0 0 1-4 0Z"/><path fill="#ff9abb" d="M345.6 321.2a2.3 2.3 0 0 0 1.2.6c1 0 1.4-.8 1.5-1.5a2.3 2.3 0 0 0-2.7 1Z"/><path fill="#263238" d="M367 321.4c-3-.4-2-7.6-2-7.6s-12.4-5.6-10.7-16.5a22.5 22.5 0 0 1-12.4 7s5.2-12.6 15-12.4c0 0 11-1 15.6 9.8 4.6 11-3.3 20-5.4 19.7Z"/><path fill="#263238" d="M354.5 296.5a12.1 12.1 0 0 0-.7 5 12.3 12.3 0 0 0 1.3 5 9.4 9.4 0 0 0 .6 1l.4.6.4.5.8 1 1 .9.4.4.5.4 1 .7 2.2 1.2-2-1.5-1-.8-.4-.4-.4-.5-.8-.8-.8-1-.3-.5-.4-.5a11 11 0 0 1-.5-1.1 14 14 0 0 1-1.5-4.6 15.2 15.2 0 0 1-.1-2.5 15.8 15.8 0 0 1 .3-2.5Z"/><path fill="#ffc4c0" d="M365 320.1s5.5-4 7.4-2-3.2 8.9-6.4 9a3 3 0 0 1-3.3-2.7Z"/><path fill="#263238" d="M370.9 320v.1c-2.2.2-3.9 1.7-5.2 3.3a1.6 1.6 0 0 1 2.5.4h-.1a1.8 1.8 0 0 0-2.1 0 8.2 8.2 0 0 0-1.5 1.3c-.1.2-.4 0-.3-.2.8-2.6 3.9-5.5 6.7-4.8Z"/><path fill="#d8b4a1" d="M357.6 348.2s10.4-13.6 20.3-15l-.8 7.5s-8.3.2-18.8 9.7Z"/><path fill="#263238" d="M379.8 341a12.8 12.8 0 0 0-5.4.6c-6.8 1.6-13.8 7.2-13.8 7.2l-2 1.9-.2.2-.3-.1c-3.3-1.9-6.7-6.1-7.3-7a44.6 44.6 0 0 0 7.7 6.2h-.5l2-1.8c.7-.6 8.4-5.6 14.3-7l1.3-.4 1.4-.1a8.3 8.3 0 0 1 2.8.2Z"/><path fill="#263238" d="M382.6 345.6a29.3 29.3 0 0 1-5.5-4.8 30.3 30.3 0 0 1 2.9 2.2 27.8 27.8 0 0 1 2.6 2.6ZM361 346.6a55.3 55.3 0 0 1 1.7 9.4c.2 2.2 0 10.2-2.5 10s1.1-5.5 1.5-9.7-1-7.2-1.3-9.7ZM354 346.5a50 50 0 0 0-2.3 8.4c-.3 2-.8 9.2 1.4 9.4s-.5-5.1-.5-9 1.5-6.5 2-8.7Z"/><path fill="#ffc4c0" d="M306.8 364.6c.7-6.8 2.3-16.2 4.7-18.3s11.4-9.3 14-10.3 14.3-5.9 16.5-4.7c1.7 1-.2 5.6-5.7 8a81.5 81.5 0 0 0-8.8 4.5c-1.4.7-4.7 5.5-3.7 7.5.6 1.2 4.2 2.5 6.4 1.5s2.5-5.5 5-7.6 6.8-2 7.1-.8-1.1 1.8-3.2 5.9c-1.4 2.7-1.3 9-4.5 13.5a77.8 77.8 0 0 0-4.3 8.5Z"/><path fill="#263238" d="M337.5 343.3a4.3 4.3 0 0 0 2.1-1.1 1.7 1.7 0 0 0 .5-1 1.8 1.8 0 0 0 0-.5.9.9 0 0 0-.2-.5s.1.2.2.3a1.6 1.6 0 0 1 .1.2 1.5 1.5 0 0 1 .1.6 1.8 1.8 0 0 1-.4 1 3 3 0 0 1-2.5 1Z"/><path fill="#ffc4c0" d="M311.5 346.3c2-3.4 7.3-9.6 12.6-11.9 3.6-1.5 16.5 4.2 16.2 6.6s-2.5 2.5-5.7 2.2c-1.1 0-7.4-2-8.4-.7a37.6 37.6 0 0 0-3.1 8.3Z"/><path fill="#263238" d="M340 340c-1.7-2.4-5.2-3.7-8.6-4.7v.1c.9.3 6.5 2.6 8.5 4.7Z"/><path fill="#ffc4c0" d="M311.5 346.3c2-3.4 7.3-9.6 12.6-11.9 3.6-1.5 13.9 6 13.6 8.4s-3.4 2.7-6.8 1.7c-1.2-.4-5-2.9-6-1.6l-5 6.7Z"/><path fill="#263238" d="m322 346.6.8-1.2 1-1.6a4.8 4.8 0 0 1 1.1-1.2 2.5 2.5 0 0 1 1.5-.4 8.6 8.6 0 0 1 3.3 1.4c1.2.6 3.5 1.5 5.3 1.3a3.5 3.5 0 0 0 1.4-.4 2.1 2.1 0 0 0 .8-.7c.7-1.4-.3-2.8-1.3-3.9a22.8 22.8 0 0 0-6.9-4.3l-1.8-.8a5.3 5.3 0 0 0-2.2-.6c-1.2 0-3.2 1.4-3.8 1.8.7-.6 2.6-2.2 4.6-2.1a6.4 6.4 0 0 1 2 .6l2.2.9a28.6 28.6 0 0 1 3.9 2.1 11.8 11.8 0 0 1 3.2 2.9 3.5 3.5 0 0 1 .3 3.5 3 3 0 0 1-2.2 1.3 5.5 5.5 0 0 1-1.6 0 25.3 25.3 0 0 1-3.4-.9c-1.1-.4-2.1-1-3.3-1.4a2.1 2.1 0 0 0-1.6.2 5.4 5.4 0 0 0-1.2 1.1 17.2 17.2 0 0 0-1.9 2.5c-.2.3-.3.2-.2 0Z"/><path fill="#ffc4c0" d="M310 349.3c.7-1.6 1.8-8.3 3-10.3s6.8-9.2 9.5-9c3.4.3 0 6.5-1.6 9.1s-1.3 6.9-1.3 6.9Z"/><path fill="#263238" d="M323.3 334.8c-.7.8-1.2 1.7-1.7 2.6a21.4 21.4 0 0 0-1.5 2.6 8.8 8.8 0 0 0-.5 2.8v3h.1a22.6 22.6 0 0 1 .3-2.9 12.2 12.2 0 0 1 .8-2.8c.7-1.8 1.8-3.4 2.6-5.2 0-.1-.1-.1-.1 0ZM319.7 346.7a9.8 9.8 0 0 0 1 4.7 18 18 0 0 0 1.2 2.2 18.6 18.6 0 0 0 1.5 2 19 19 0 0 1 2.6 3.9 19.6 19.6 0 0 1 1.4 4.5 12.6 12.6 0 0 0-.7-4.8 14.7 14.7 0 0 0-2.6-4.2 23.1 23.1 0 0 1-2.7-4 14.2 14.2 0 0 1-1.7-4.3Z"/><path fill="#ffc4c0" d="M313.9 403c6.6-1.2 10.4-12.5 17.2-32.3 1.1-3.5-17.1-23.8-19.3-20.5a144 144 0 0 0-10.5 32.5c-1 11.9 4.9 21.7 12.6 20.3Z"/><path fill="#d8b4a1" d="m327.5 381.8-22.2-19.9s-5.3 18.2-4.5 25.6 4 16 13 16c6.7 0 13.7-21.7 13.7-21.7Z"/><path fill="#263238" d="M321.2 396.4c.8-1 1.4-2.3 2-3.4l1.8-3.6 1.5-3.8a22.7 22.7 0 0 0 1-3.8l-1.6 3.6-1.6 3.6-1.6 3.7c-.6 1.2-1 2.5-1.5 3.7ZM323 385.6c-1-1.1-2.2-2.1-3.3-3.1l-3.5-3-7.1-6-2-1.6-2.2-1.6s-.1 0 0 0l1.6 1.6 1.7 1.6 3.5 3 7.1 6 4.1 3.2.2-.1Z"/><path fill="#37474f" d="m351.4 347 9 28a1 1 0 0 1-.8 1.5l-14.7 1a2.4 2.4 0 0 1-2-1.4l-9-27.9c-.4-.8 0-1.5.8-1.6l14.6-1a2.4 2.4 0 0 1 2.1 1.4Z"/><path fill="#455a64" d="m349.7 347.1 9 28a1 1 0 0 1-.8 1.5l-14.7 1a2.4 2.4 0 0 1-2.1-1.4l-9-27.9a1 1 0 0 1 .8-1.6l14.7-1a2.4 2.4 0 0 1 2.1 1.4Z"/><path fill="#263238" d="M345.8 348.7a1.3 1.3 0 1 0 1.1-1.4 1.3 1.3 0 0 0-1.1 1.4Z"/><path fill="#ffc4c0" d="M407 409.2c-6.4 1-14.4-4-35-19.1-3-2.1 6.4-26.3 9.6-24.2 4 2.6 18.9 13.6 19.9 14.5 8.4 8 9.9 28.3 5.5 28.8Z"/><path fill="#ffc4c0" d="M389 373.2s-5.9-8.3-10.3-11.7a35.8 35.8 0 0 0-16-6.4c-6.1-1-21.7 1.2-22 5.8-.1 4.1 15.8 1.2 15.8 1.2s-16.7.3-16 5.4 19 .6 19 .6-17.2.7-15.6 5.8c1.2 3.8 17.9.7 17.9.7s-14.7.8-13.7 4.8c1.2 4.4 16.8 2.5 16.8 2.5a23.4 23.4 0 0 0 15.2 14c1.1.4 8.9-22.7 8.9-22.7Z"/><path fill="#263238" d="M362.2 361.6h-6c-2 0-3.8.4-5.7.8a33.5 33.5 0 0 0-7.4 2c4.3-1.4 11.3-2 13.2-2.1l5.9-.6ZM362.8 368.7c-2.5 0-5 0-7.5.2s-4.8.6-7.3.9c-.2 0 0 .1.1.1l7.3-.5 7.4-.7ZM364.4 374.6a56.2 56.2 0 0 0-11.4 1.2c-.2 0 0 .2.1.1 3.8-.4 6.8-.8 11.3-1.1.1 0 .1-.2 0-.2Z"/><path fill="#d8b4a1" d="m389 369.9-8.2 29.7s22 12.9 26.7 9.5 1.7-20.6-3.7-27.1c-2.4-2.8-14.8-12.1-14.8-12.1Z"/><path fill="#263238" d="m388.7 370.9.3-1 6.1 5c2.1 1.7 4.1 3.5 6 5.3a30.5 30.5 0 0 1 2.8 2.7 23.2 23.2 0 0 1 2.2 3.3 25.2 25.2 0 0 1 2.6 7.5 21 21 0 0 0-2.1-7.8 19.2 19.2 0 0 0-2.2-3.4 31 31 0 0 0-2.8-2.9 114.4 114.4 0 0 0-12.6-9.8h-.1ZM393.8 377.3c-.5 1.4-1 3-1.3 4.4l-1.2 4.5-2.2 9-.6 2.5-.4 2.6c0 .1 0 .1 0 0l.8-2.1a118.2 118.2 0 0 0 1.8-6.8l2.2-9c.3-1.7.8-3.4 1-5.1h-.1ZM381.6 397a17.6 17.6 0 0 1-.5 2.7l-.1-.3a34.1 34.1 0 0 1 4.7 3 17.3 17.3 0 0 1-5-2.5l-.3-.1a19.5 19.5 0 0 1 1.2-2.8Z"/><path fill="#eb9481" d="m80.4 356.6-22 39.2c-3.6 7.8-6.6 14.8-7.8 18.6a6 6 0 0 0-.5 2.7s0 0 0 .1c1.6 2.6 63.8 32.9 66.3 33.2s3.7-6.9 2.2-10-20.1-25.3-20.1-25.3l21.7-39.2Z"/><path fill="#ebebeb" d="M115.4 450.2c-2.5-.4-63.7-30.4-65.3-33a.3.3 0 0 1 0-.1 6 6 0 0 1 .5-2.7 228 228 0 0 1 7.7-18.7s3.7-6.8 5.2-9.2l39.6 20.5-4.6 8.1s17.6 22 19 25.1.5 10.3-2 10Z"/><path fill="#d8b4a1" d="M116.5 449.3c-2.5-.4-64.4-32.3-66-35-.6-1 3.5-10.3 8.8-21.4l.2-.3 40.2 20.1-.4.7s18.2 22.8 19.7 26 0 10.3-2.5 10Z"/><path fill="#fff" d="M117 446.6a1887 1887 0 0 0-63-32.2 1846.8 1846.8 0 0 0 63 32.2Z"/><path fill="#263238" d="M102.6 415.2c-3.7-2.9-9-4.8-13.7-3.5-.2 0-.1.3 0 .3a64.8 64.8 0 0 1 13.3 3.7.3.3 0 0 0 .4-.5ZM104.6 418.5c-3.7-2.9-9-4.8-13.7-3.5-.2 0 0 .3 0 .3a65 65 0 0 1 13.4 3.7.3.3 0 0 0 .3-.5ZM106.7 421.8c-3.7-2.8-9-4.8-13.7-3.5-.2 0-.1.3 0 .3a64.6 64.6 0 0 1 13.4 3.7.3.3 0 0 0 .3-.5Z"/><path fill="#fff" d="M66.1 404.8c-3.3-4.6-10.4.6-7 5.1s10.4-.6 7-5.1Z"/><path d="m102 416.8 4.5 27.8a108.3 108.3 0 0 0 10 4.7c2.6.4 3.9-6.8 2.5-10a339 339 0 0 0-17-22.5Z" opacity=".1"/><path fill="#263238" d="M118.6 447.6c1 1-1.2 4.6-2.2 4.5S48.1 416.8 47.1 416s1.5-4.8 3-4.3 68.5 35.9 68.5 35.9ZM63.4 382.9l44.6 23.8s56.2-80.2 57.4-101.2C166.9 276.4 142 184 142 184l-39.6-.3s16 95 14.8 111.1c-.7 8.5-53.9 88-53.9 88Z"/><path fill="#37474f" d="M111.9 397.5a509.7 509.7 0 0 0-39.5-21.7l-.1.1a780 780 0 0 0 39.6 21.6ZM122.8 274.7a1240.8 1240.8 0 0 0-13.9-83.2l-1-5a.2.2 0 0 0-.5.1c2.5 13.7 5 27.3 7.2 41s4.4 27.4 6.2 41.2l1.4 10.2a90 90 0 0 1 1 10.6 27.2 27.2 0 0 1-1.7 10 57 57 0 0 1-4.6 8.9c-7.1 12.1-39.2 65.1-40 66.6v.1c7.8-12 31.7-50 39-62.4 3.2-5.6 7-11.2 8-17.7 1.2-6.7-.3-13.8-1.1-20.4Z"/><path fill="#eb9481" d="m111.3 382.9-.4 45.2c.2 8.7.6 16.2 1.1 20.1a.1.1 0 0 0 0 .1 6 6 0 0 0 .8 2.6v.1c2.6 1.7 71.8 1.8 74.2 1s.3-7.8-2.4-9.9-29.1-14-29.1-14V383Z"/><path fill="#ebebeb" d="M111 418.8v9.3c.1 8.7.5 16.2 1 20.1a.1.1 0 0 0 0 .1 12 12 0 0 0 .8 2.6v.1c2.7 1.7 71.8 1.8 74.2 1s.3-7.8-2.4-9.9-29.1-14-29.1-14v-9.4Z"/><path fill="#d8b4a1" d="M187 451.9c-2.4.8-72.1-.5-74.7-2.2-1-.6-1.5-10.8-1.6-23v-.5l45 .3v.8s26.5 12.4 29.1 14.6 4.7 9.2 2.2 10Z"/><path fill="#fff" d="M186.3 449.2a1901.4 1901.4 0 0 0-70.8-1 1851.2 1851.2 0 0 0 70.8 1Z"/><path fill="#263238" d="M159.4 427.5c-4.6-1-10.3-.4-13.9 2.9 0 .1 0 .3.2.3a64.5 64.5 0 0 1 13.7-2.6.3.3 0 0 0 0-.6Z"/><path fill="#263238" d="M162.7 429.5c-4.6-.9-10.3-.3-13.8 3-.2 0 0 .3.1.2a64.5 64.5 0 0 1 13.7-2.6.3.3 0 0 0 0-.6ZM166 431.6c-4.6-1-10.3-.3-13.9 3-.1 0 0 .2.2.2a64.4 64.4 0 0 1 13.7-2.6.3.3 0 0 0 0-.6ZM188.1 449.4c1.3.5 1 4.7 0 5s-76.8-1.3-78.1-1.6-.8-5 .7-5.2 77.4 1.8 77.4 1.8Z"/><path fill="#fff" d="M122 434.2c-5-2.6-9 5.2-4 7.8s9-5.1 4-7.8Z"/><path fill="#263238" d="M141.6 184c-.3.8-14.5 39.8-15.9 40.5-1.5.6 31.5 56 33.4 81.7 1.3 16.5-1.2 109.6-1.2 109.6h-48.2s2.3-83.7 3.4-110.2c.5-10.3-33-61.5-33.5-93.4 0-10 7.1-28.4 7.1-28.4Z"/><path fill="#37474f" d="M113.4 304.9c0-.5-.3-.6-.4-.2-1 14.4-1.3 28.7-2 43s-.2 17.8-.9 32.2c-.3 8 0 16.2-.2 24.3a.1.1 0 0 0 .2 0c1.5-14.2 3.3-91.2 3.3-99.3ZM159.1 306.8a70.8 70.8 0 0 0-1-10.6 53.1 53.1 0 0 0-3-9.9c-2.6-6.7-5.8-13.2-8.8-19.8s-6.2-13.3-9.4-19.8l-5.4-11.1-5.8-11a.1.1 0 0 0-.2 0c3 6.7 6 13.3 9.2 20s6.1 13.3 9.1 20 6 13 8.8 19.6a64.7 64.7 0 0 1 3.5 9.8 57.1 57.1 0 0 1 1.4 10.5c.4 8.2.7 16.5 1.5 24.7h.2c.3-7.5.1-15 0-22.4ZM154.4 406.3c-2.8-.4-24.1-1.1-42-.3v.1a676.6 676.6 0 0 0 42 .2Z"/><path fill="#37474f" d="M132.4 222.3a92.7 92.7 0 0 0-15 5.2.2.2 0 0 0 0 .3c5-1.6 10.2-3 15.2-4.9a.3.3 0 0 0-.2-.6ZM137.2 189.3c0-.2-.2-.3-.3-.1-.5 5.8-1.4 10.8-2.4 16.1-.5 2.5-4 16-8.2 14.6-.7-.2-1-1-1-2a17.5 17.5 0 0 1 1-4.2c.8-2.9 1.5-5.7 2-8.6a79.3 79.3 0 0 0 1.5-16.4.1.1 0 0 0-.2 0 149.9 149.9 0 0 1-3.7 22.4c-.9 3.6-3.2 8.8.5 9.7s7.1-7.8 7.8-10.3a83 83 0 0 0 3-21.2Z"/><path fill="#37474f" d="M126.4 220.3a23.7 23.7 0 0 0-1.3 2.8 6.5 6.5 0 0 0-.6 2.3c0 .1.2.2.3 0a8.4 8.4 0 0 0 1.2-2.1l1.3-2.6a.5.5 0 0 0-.9-.4ZM118.3 319c.3-6.8 1-14-1.2-20.6a68.4 68.4 0 0 0-4.4-9.4l-4.9-9.7a565 565 0 0 1-18-39.7c-2.5-6.5-4.9-13.2-5.8-20.1a61.9 61.9 0 0 1 1.3-21.9 121.6 121.6 0 0 1 1.2-5.4 72 72 0 0 0-3.8 21 59.1 59.1 0 0 0 3.6 20c2.3 6.7 5.2 13.2 8 19.7q4.4 10 9.2 20c3.1 6.6 6.5 13 9.8 19.5a35.4 35.4 0 0 1 3.7 9.9 51.2 51.2 0 0 1 .4 10.8c-.5 15.1-1.8 65.6-2 80.7l-.1 5.7c0 .2.3.2.3 0 1-15 2.2-65.4 2.8-80.5Z"/><path fill="#37474f" d="M107.5 193.8c0-.1-.1-.1-.1 0-.6 4.2-1 8.5-3 12.3-1.8 3.4-5 5.7-8.5 7.2a65 65 0 0 1-6.3 2.4c-.1 0-.1.2 0 .2 4-.8 8-1.8 11.5-4 3.7-2.4 5.6-6.2 6.2-10.5a36.5 36.5 0 0 0 .2-7.6Z"/><path fill="#eb9481" d="M136 127.7c8.2 15.7 34 38.3 42.1 40.3 10.1 2.4 32.6-14.6 41.3-24.5 3.6-4.2-11.4-22.2-17.9-21.3-3.5.4-21.7 18.7-24.7 17.5-7.3-3-17.4-9.3-31.8-17.6-7.8-4.5-14-4.1-9 5.6Z"/><path fill="#eb9481" d="M193.8 128.2s4-7.3 6.6-10 15.6-9.9 17.3-7.1c2.1 3.5-4.6 9-8.3 11.3 0 0 5 8.3 1 13.3s-16.6-7.5-16.6-7.5Z"/><path fill="#eb9481" d="M216.7 146.1c2.7-1.6 14.8-10 17.7-13s10.3-12.6 8.2-15-4.6.1-4.6.1 2.6-4.5.2-6.7-6 2-6 2 2.3-4.9-.3-7-5.5 2.8-5.5 2.8 2.3-4.3-.5-5.1c-3.4-1-6.7 7.4-10 10.6l-16.7 13.5Z"/><path fill="#263238" d="M226.7 109a23.4 23.4 0 0 1-10 12.2c0 .1 0 .3.2.2 5.5-3.3 8.6-5.8 10-12.4.2-.3-.1-.4-.2 0ZM232.3 113a35 35 0 0 1-10.5 13.3c5.5-4 8.5-6.5 10.8-13.1.1-.3-.1-.5-.3-.2ZM237.7 118.5a31.5 31.5 0 0 1-11.5 12.3.1.1 0 0 0 .2.2c6-3.2 9.1-6.7 11.5-12.4.2-.4.1-.5-.2-.1ZM218 112.2c-.4 4.7-5.4 7.4-8.8 9.9a.4.4 0 0 0 0 .6c1.9 3.6 3.5 9.2 1.5 13a.1.1 0 0 0 .2.1c2.6-3.8 1.5-9.4-.8-13.2 3.6-2.5 8.5-5.4 8-10.3h-.1Z"/><path fill="#455a64" d="M164.2 131.3 154 154.9s-17.8-22-21.2-30c-3.8-8.9 1.6-8.9 10.2-5.5s21.2 11.9 21.2 11.9Z"/><path fill="#fff" d="M157.8 129.4a1.8 1.8 0 0 1-.9-.2 1.6 1.6 0 0 1-.8-1.4 2 2 0 0 0-1.2-1.7 2 2 0 0 0-1-.1h-1l1 .2a2 2 0 0 1 .9.2 1.6 1.6 0 0 1 .8 1.4 1.9 1.9 0 0 0 1.2 1.8 1.9 1.9 0 0 0 1 0h1l-1-.2Zm-25-5.4-.2-1-.1 1a.5.5 0 0 1 0 .1l.3.6a2 2 0 0 0 0-.7Zm16.1 14.3a1.8 1.8 0 0 1-.7.4 1.6 1.6 0 0 1-1.6-.4 2 2 0 0 0-2-.4 2 2 0 0 0-.9.7l-.6.8.8-.6a2 2 0 0 1 .8-.5 1.6 1.6 0 0 1 1.6.4 1.9 1.9 0 0 0 2.8-.2l.6-.8-.8.6Z"/><path fill="#263238" d="M159.6 130.3c-1.7 2.8-5.7 12-6.3 13.5l-2 4.9s.1.1.1 0c.7-1.5 1.6-3 2.2-4.5s5-10.7 6-14Z"/><path d="M132.8 125c3.4 8 21.2 30 21.2 30l5.3-12.2-24.8-25.4c-3 0-4 2.2-1.7 7.6Z" opacity=".1"/><path fill="#455a64" d="m80.2 194.2 68.1 13.2c-.2 1.4 3-47-2-80.5-1.5-10-12.6-14.6-23-5.9-22 18.5-43.3 74-43 73.2Z"/><path fill="#fff" d="m94.3 163.2-.3.6.2-.2.6-.8-.5.3Zm53.4 31a1.9 1.9 0 0 0-2-.4 2 2 0 0 0-.9.6l-.6.8.8-.6a2 2 0 0 1 .8-.4 1.6 1.6 0 0 1 1.5.3 2 2 0 0 0 1.5.6v-.5a1.6 1.6 0 0 1-1.1-.5Zm-40 3.6a2 2 0 0 1-.7.4 1.6 1.6 0 0 1-1.6-.4 2 2 0 0 0-2-.4 2 2 0 0 0-.9.7l-.3.4h.1l.4-.3a2 2 0 0 1 .8-.4 1.6 1.6 0 0 1 1.5.3 1.9 1.9 0 0 0 3-.2l.5-.7-.8.5Zm17.9-35.2a1.8 1.8 0 0 1-.8.4 1.6 1.6 0 0 1-1.5-.4 1.9 1.9 0 0 0-2-.4 2 2 0 0 0-.9.7l-.6.7.8-.5a1.8 1.8 0 0 1 .8-.5 1.6 1.6 0 0 1 1.5.4 2 2 0 0 0 2 .4 1.9 1.9 0 0 0 .8-.6l.6-.8-.7.6Zm22-23.8a1.6 1.6 0 0 1-1-.5 2 2 0 0 0-2-.4 2 2 0 0 0-.9.7l-.6.8.8-.6a2 2 0 0 1 .8-.5 1.6 1.6 0 0 1 1.5.4 2 2 0 0 0 1.5.6 3.7 3.7 0 0 0 0-.5Zm1.2 19a2 2 0 0 0-1.4 1.1 2 2 0 0 0-.2 1l.2 1v-1a2 2 0 0 1 .3-.9 1.6 1.6 0 0 1 1.1-.7v-.6Zm-40-7.6-.1-1-.1 1a2 2 0 0 1-.2.9 1.6 1.6 0 0 1-1.4.8 2 2 0 0 0-1.8 1.2 2 2 0 0 0-.1 1l.1 1 .1-1a1.9 1.9 0 0 1 .3-.9 1.6 1.6 0 0 1 1.4-.8 1.9 1.9 0 0 0 1.7-1.2 2 2 0 0 0 .1-1Zm-15.4 33.1c0-.3 0-.6-.2-1v1a2 2 0 0 1-.3.9 1.6 1.6 0 0 1-1.4.8 1.9 1.9 0 0 0-1.7 1.2 1.9 1.9 0 0 0-.2 1l.2 1 .1-1a1.8 1.8 0 0 1 .2-.9 1.6 1.6 0 0 1 1.4-.8 2 2 0 0 0 1.8-1.2 2 2 0 0 0 0-1Zm31.6-2-.2-1-.1 1a2 2 0 0 1-.2.9 1.6 1.6 0 0 1-1.4.8 2 2 0 0 0-1.7 1.2 2 2 0 0 0-.2 1c0 .3 0 .6.2 1v-1a1.8 1.8 0 0 1 .3-.9 1.6 1.6 0 0 1 1.4-.8 2 2 0 0 0 1.8-1.2 2 2 0 0 0 .1-1Zm7.7-57.3-.1-1-.1 1a2.1 2.1 0 0 1-.3.9 1.6 1.6 0 0 1-1.3.8 2 2 0 0 0-1.8 1.1 2 2 0 0 0-.1 1l.1 1 .1-1a1.8 1.8 0 0 1 .3-.8 1.6 1.6 0 0 1 1.4-.8 2 2 0 0 0 1.7-1.2 2 2 0 0 0 .1-1Zm-19.4 11.8a1.9 1.9 0 0 1-.8.5 1.6 1.6 0 0 1-1.5-.4 1.5 1.5 0 0 0-.5-.3l-.3.4a1.5 1.5 0 0 1 .4.3 1.9 1.9 0 0 0 2 .3 2 2 0 0 0 .9-.6l.6-.8-.8.6Zm29.6 38.8a1.9 1.9 0 0 1-.9-.2 1.6 1.6 0 0 1-.7-1.4 1.9 1.9 0 0 0-1.2-1.8 2 2 0 0 0-1 0h-1l1 .2a2 2 0 0 1 .8.2 1.6 1.6 0 0 1 .9 1.4 2 2 0 0 0 1.1 1.8 1.9 1.9 0 0 0 1 0h1l-1-.2Zm-17.8 27.6a1.9 1.9 0 0 0-1.2-1.7 1.9 1.9 0 0 0-1-.1h-1c.4.2.7.2 1 .2a1.9 1.9 0 0 1 .9.2 1.6 1.6 0 0 1 .8 1.4 1.7 1.7 0 0 0 .1.6l.6.2a1.5 1.5 0 0 1-.2-.8Zm-17.9-25.7a1.9 1.9 0 0 1-.8-.2 1.6 1.6 0 0 1-.8-1.4 1.9 1.9 0 0 0-1.2-1.8 2 2 0 0 0-1 0h-1l1 .2a2 2 0 0 1 .9.2 1.6 1.6 0 0 1 .8 1.4 1.9 1.9 0 0 0 2.2 1.9c.3 0 .6 0 1-.2h-1Zm24-28.7a1.7 1.7 0 0 1-.8-.3 1.6 1.6 0 0 1-.8-1.4 2 2 0 0 0-1.2-1.7 2 2 0 0 0-1-.1l-1 .1 1 .1a1.9 1.9 0 0 1 .9.2 1.6 1.6 0 0 1 .8 1.4 2 2 0 0 0 1.1 1.8 1.9 1.9 0 0 0 1 .1l1-.1-1-.1Z"/><path fill="#eb9481" d="M141.8 129c-3.4.7-10.2-3.3-12.5-8-.1-.4.6-3.7 1.2-7.8.3-2.4.7-5.2.8-7.7 0-.5 15.8 4.7 15.8 4.7a40.5 40.5 0 0 0-2.1 9.7 5.1 5.1 0 0 0 0 1v.2c.3 2 .3 7.2-3.3 7.9Z"/><path fill="#263238" d="M145 121v.2a10 10 0 0 1-1.6 0c-9.4-.8-11.2-12.6-11.5-15.6 2.8.5 15.1 4.7 15.1 4.7a40.3 40.3 0 0 0-2 9.7 7 7 0 0 0 0 1Z"/><path fill="#eb9481" d="M129.5 85.6c-1.9 5.6.7 22 4.7 25.7 5.7 5.4 15.2 6.2 19.9-.7 4.5-6.7.7-28-3.7-31.5-6.5-5-18.2-1.8-20.9 6.5Z"/><path fill="#263238" d="M145.2 95.7v.1c.1 1.1.2 2.4-.8 3 1.3-.3 1.2-2 .8-3Z"/><path fill="#263238" d="M144 94.7c-1.8.2-1.4 3.7.3 3.6s1.2-3.7-.3-3.6ZM151.7 95.2c.1 1.2.4 2.4 1.5 2.7-1.3 0-1.6-1.7-1.5-2.7Z"/><path fill="#263238" d="M152.5 94c1.8-.4 2.3 3.1.7 3.4s-2.2-3.2-.7-3.5ZM142.4 93.2a13.5 13.5 0 0 0 1.4-.6 2.5 2.5 0 0 0 1.2-1 .8.8 0 0 0-.2-.8 2 2 0 0 0-2 0 2.9 2.9 0 0 0-1.4 1.3.8.8 0 0 0 1 1.1ZM153.7 92a12.1 12.1 0 0 1-1.5-.3 2.3 2.3 0 0 1-1.4-.5.8.8 0 0 1 0-.9 1.9 1.9 0 0 1 1.7-.6 2.8 2.8 0 0 1 1.9.9.8.8 0 0 1-.7 1.3ZM145.3 106.2c.3.2.6.5 1 .5a3 3 0 0 0 1.2-.4 1.5 1.5 0 0 1-1.3.8 1.2 1.2 0 0 1-1-1h.1Z"/><path fill="#263238" d="M146.1 102.7a3.8 3.8 0 0 0 2.7 1.4 4.8 4.8 0 0 0 1.4-.1 1.1 1.1 0 0 0 .3 0 1.2 1.2 0 0 0 .2-.1.3.3 0 0 0 .2-.3.5.5 0 0 0 0-.1v-.1c0-.9-.3-2.2-.3-2.2.3.2 2 .7 2 .3a56.8 56.8 0 0 0-2.8-11.3.1.1 0 0 0-.2 0c.4 3.5 1.5 7 2 10.5a6.5 6.5 0 0 0-1.8-.3l.5 2.9a5.3 5.3 0 0 1-4-.8c-.2 0-.3.1-.2.2Z"/><path fill="#263238" d="M150 103.8a5 5 0 0 1-1.8 1.7 2.2 2.2 0 0 1-1.3.2c-1-.2-1.1-1-1-1.8a5 5 0 0 1 .3-1.2 6.4 6.4 0 0 0 3.8 1.1Z"/><path fill="#ff9abb" d="M148.2 105.5a2.2 2.2 0 0 1-1.4.2c-1-.2-1-1-1-1.8a2.3 2.3 0 0 1 2.4 1.6Z"/><path fill="#263238" d="M134.8 94.7c1-3.2-.9-8.5.7-10 3.5-3.1 10.6 2.8 15.4 2.8s6.3-3 5.4-6.9-4.2-6.3-9.4-7a19.9 19.9 0 0 0-13.1 3.2s1.1-2 .7-2.5-2.8 1.2-3.5 2a7.3 7.3 0 0 0-1.1 2.2 7.6 7.6 0 0 0-2.1-.2 4.5 4.5 0 0 0-2.8 1.4c0 .2 1.6.5 2.8.5 0 0-2.2 3-2.1 5.5s4.1 14.6 5 14.7c1.3.2 3.6-4.4 4-5.7Z"/><path fill="#263238" d="M128.3 79.9a8.1 8.1 0 0 0-2.5 3.7 10 10 0 0 0 0 5.2c.8 3.4 2.5 6.4 3.9 9.4 0 .1-.1.2-.2.1a35.5 35.5 0 0 1-4.2-10.1c-.5-3 .2-6.6 3-8.3ZM135.3 83.5a11.4 11.4 0 0 1 4.3.3 16.6 16.6 0 0 1 3.7 1.7 16.2 16.2 0 0 0 8.7 2.3s0 .1 0 .1a14.2 14.2 0 0 1-8.1-1.7 35.2 35.2 0 0 0-3.8-2 14.8 14.8 0 0 0-4.8-.5.1.1 0 0 1 0-.2ZM136.6 75.4a22.4 22.4 0 0 1 6-2 17.8 17.8 0 0 1 6.1-.2c3.5.5 6.7 2.7 7.6 6.3a7.6 7.6 0 0 1-.7 5.4.1.1 0 0 1-.2-.1 7.8 7.8 0 0 0-1.8-9.2c-3-2.5-7-2.6-10.5-2a32 32 0 0 0-6.5 1.9Z"/><path fill="#eb9481" d="M133.3 99.2s-3.7-5.3-6-4 .3 9 3 10a2.9 2.9 0 0 0 4-1.6Z"/><path fill="#263238" d="M128 97.3v.1c2 .8 3 2.7 3.8 4.6a1.6 1.6 0 0 0-2.4-.5s0 .1 0 .1a1.8 1.8 0 0 1 2 .7 8 8 0 0 1 1 1.5c0 .2.3.1.3 0 0-2.7-2-6.2-4.6-6.5Z"/><path fill="#d8b4a1" d="m257.2 77.5 42.7 61.7 57.5 12.7 14.3 8.8-45.4 59.7 1.7 75-70.8-24.8-70.8 24.8-14.4-8.8 16-66.2-45.4-59.7 71.8-21.5 28.4-70.6 14.4 8.9z"/><path d="m257.2 77.5 42.7 61.7 57.5 12.7 14.3 8.8-45.4 59.7 1.7 75-70.8-24.8-70.8 24.8-14.4-8.8 16-66.2-45.4-59.7 71.8-21.5 28.4-70.6 14.4 8.9z" opacity=".1"/><path fill="#d8b4a1" d="m242.8 68.6 42.8 61.7 71.8 21.6-45.4 59.7 1.7 75-70.9-24.8-70.8 24.8 1.7-75-45.4-59.7 71.8-21.6 42.7-61.7z"/><g fill="#fff" opacity=".2"><path d="m172.9 245.8.8-34.2-9.8-13 99.8-99.8 21.9 31.5 2.1.7-114.8 114.8zM348.9 149.3 233 265.2l-33.3 11.7 132.6-132.6 16.6 5zM165.7 140.6l-26.1 26.1-9.4-12.2 4.6-4.6 30.9-9.3zM260.2 93.8l-100 100-.9-1.2L259.4 92.5l.8 1.3zM312.9 253.3l-24.5 24.5-1.5-.6 26-26v2.1z"/></g><path fill="#eb9481" d="M119.3 132.7c-2.4 16.6-8.6 50.7-1.7 61 9 13.5 39.4 22.6 47.3 25.4 3.5 1.2 12.7-21.4 10.8-24.8S142.4 178 140.3 176s-4.8-29-7.6-43c-3.5-17.5-11.2-14.2-13.3-.3Z"/><path fill="#eb9481" d="M185.2 202.3c-1.2-1.4-.5-2 2.7-1.4s15.7 5.7 17.1 1.2-16.2-11.4-21.7-12-14.6.4-14.6.4c3.2 2 10.3 7.8 16.5 11.8Z"/><path fill="#eb9481" d="M156.3 215.3c9 5.4 20.1 12.7 32 12.8a6 6 0 0 0 3.8-1.2c5.3.2 7-2.3 7-2.3 5-1.4 6.3-4.2 6.3-4.2s6.3 0 7-3.7c.8-4.3-8.2-3.6-13.4-6.2-11.8-6-27-17.9-30.3-20Z"/><path fill="#263238" d="M182.2 213a86.9 86.9 0 0 0 10.7 4.7 86.4 86.4 0 0 0 12.5 2.6.1.1 0 0 1 0 .2 45.2 45.2 0 0 1-23.3-7.4c-.2-.1-.1-.2 0-.1ZM177.5 219.6a63 63 0 0 0 21.6 5 40.6 40.6 0 0 1-21.7-4.8c-.2-.2-.2-.3 0-.2ZM175 223.2c6.1 2.3 10.2 3 17 3.7-7.8 0-10.6-1-17.1-3.5-.2 0-.1-.3.1-.2Z"/><path fill="#455a64" d="m137.2 152-24.3 8s4.5-27.6 8.2-35.4c4-8.8 7.6-4.8 10.9 3.8s5.2 23.6 5.2 23.6Z"/><path fill="#fff" d="M131.3 147.8a1.7 1.7 0 0 1-.9-.3 1.6 1.6 0 0 1-.8-1.4 2 2 0 0 0-1.2-1.7 2 2 0 0 0-1-.1l-1 .1 1 .1a1.9 1.9 0 0 1 .9.2 1.6 1.6 0 0 1 .8 1.4 2 2 0 0 0 1.2 1.8 1.9 1.9 0 0 0 1 .1l1-.1-1-.1Zm-.5-22.1a2 2 0 0 0-1.7 1.1 2 2 0 0 0-.1 1l.1 1 .1-1a1.8 1.8 0 0 1 .3-.8 1.6 1.6 0 0 1 1.4-.8.5.5 0 0 0 .2 0l-.3-.5Z"/><path fill="#263238" d="M134.8 148c-3.2.5-12.6 3.7-14.1 4.2l-5 1.8s0 .2.1.1l4.8-1.3c1.6-.5 11.3-3.4 14.3-4.8.1 0 0 0 0 0Z"/><path fill="#263238" d="M117.9 135.4a164.1 164.1 0 0 0-2 7 20.4 20.4 0 0 1 .4-3.8h-.1a16.9 16.9 0 0 0-.4 4.3 264 264 0 0 0-1.1 5c-.9 4-1.8 8.2-2.5 12.4a.3.3 0 0 0 .4.3 43.7 43.7 0 0 0 2.5-1.2l-2.2.5c1-4 1.7-8 2.6-12s1.7-8.3 2.4-12.5ZM135.7 141.2c0-1.4-.1-2.7-.3-4l.2 3-1.5-5.8c.4 3 1 6 1.5 8.9l1.5 8.7-1.6.7v.2l2-.5a.3.3 0 0 0 .2-.3c-.6-3.7-1.2-7.3-2-11Z"/><path fill="#fff" d="M375.1 273.3v22.5h4.4v7.7l7.7-7.7h64.9v-22.5h-77z"/><path fill="#263238" d="m375 273.3.4 22.5-.3-.3h4.7v8l-.6-.3 7.6-7.6.1-.2h65.2l-.6.5v-22.5l.5.4c-22.2 0-54.5-.3-77-.4Zm0 0c22.8 0 54.6-.4 77-.4h.5v23.4H387l.4-.2-7.7 7.6-.7.7v-8.6l.4.3h-4.8v-.3c0-7.5.2-15 .3-22.4Z"/><path fill="#d8b4a1" d="m386.5 279.3 1.8 2.6 3 .9-1.9 2.4.1 3.2-3-1.1-2.9 1.1.1-3.2-1.9-2.4 3-.9 1.7-2.6zM400.1 279.3l1.7 2.6 3 .9-1.9 2.4.1 3.2-2.9-1.1-3 1.1.1-3.2-1.9-2.4 3-.9 1.8-2.6zM413.6 279.3l1.7 2.6 3.1.9-2 2.4.1 3.2-2.9-1.1-3 1.1.1-3.2-1.9-2.4 3-.9 1.8-2.6zM427.1 279.3l1.7 2.6 3.1.9-2 2.4.1 3.2-2.9-1.1-3 1.1.2-3.2-2-2.4 3-.9 1.8-2.6zM440.6 287.3v-8l-1.7 2.6-3.1.9 2 2.4-.1 3.2 2.9-1.1z"/><path fill="#263238" d="m440.6 279.3 1.8 2.5 3 .8h.3l-.2.3-1.9 2.5v-.2l.2 3.2v.3l-.4-.1-3-1h.2l-3 1-.3.1v-.3l.1-3.2v.2l-1.8-2.5-.2-.2h.2c1-.3 2.3-.8 3-.8l1.9-2.6Zm0 0-1.7 2.7-3 1v-.3l2 2.5a.1.1 0 0 1 0 .1v3.2l-.4-.3 3-1h.2l3 1-.4.3-.1-3.2v-.1l2-2.5v.3l-3-1-1.7-2.7Z"/><path fill="#fff" d="M160 38.6v38.3h4.5v7.6l7.6-7.6h78.2V38.6H160z"/><path fill="#263238" d="m160 38.6.3 38.3-.3-.3h4.7V84.5l-.5-.2 7.6-7.7.1-.1 58.8-.1h19.5l-.4.4V38.5l.4.4c-22.5 0-67.7-.2-90.2-.4Zm0 0c22.5-.2 67.8-.4 90.3-.4h.3v.4l.1 38.3v.4H172.1l.3-.2-7.7 7.7-.6.5v-8.5l.3.3h-4.7l.3-38.5Z"/><path fill="#ebebeb" d="M191 57.8a10.9 10.9 0 1 1-10.8-11 10.9 10.9 0 0 1 10.9 11Z"/><circle cx="180.3" cy="56.2" r="3.4" fill="#fff"/><path fill="#fff" d="M174.4 65.7V67a11 11 0 0 0 3.2 1.3 11.2 11.2 0 0 0 8.6-1.3v-1.4a6 6 0 1 0-11.8 0Z"/><path fill="#ebebeb" d="M198.8 51.1h40.9v.6h-40.9zM198.8 55.4h40.9v.6h-40.9zM198.8 59.6h40.9v.6h-40.9zM198.8 63.9h20.3v.6h-20.3z"/></svg>