<svg xmlns="http://www.w3.org/2000/svg" viewBox="0 0 500 500"><path fill="#263238" d="M470.4 472.3c0 .1-98.7.3-220.4.3s-220.4-.2-220.4-.3 98.7-.3 220.4-.3 220.4.1 220.4.3Z"/><circle cx="69.9" cy="122.1" r="32.2" fill="#fff" transform="rotate(-21.2 70 122.1)"/><path fill="#263238" d="m102.2 122.2-.1-.6v-1.5l-.2-1.1c0-.4 0-.9-.2-1.4s-.1-1-.2-1.5l-.4-1.8a30.6 30.6 0 0 0-3.6-8.5 31.9 31.9 0 0 0-8.2-9.1l-1.3-1-1.5-1-1.6-.9-1.7-.8-.8-.4-1-.3-1.7-.7-1.9-.5a16.4 16.4 0 0 0-2-.4 28.5 28.5 0 0 0-4-.5h-4.2l-1 .1-1 .2c-.8 0-1.5.2-2.2.3a34.7 34.7 0 0 0-8.5 3.1l-2 1.2-1 .6-1 .7a35.2 35.2 0 0 0-3.6 3.1l-1.6 1.8-.4.5-.4.4-.7 1-.7 1-.7 1.1-.6 1-.3.6-.3.6-1.1 2.2-1 2.3a31.7 31.7 0 0 0 0 20.2l1 2.4 1 2.2.3.6.3.5.7 1 .6 1.1.8 1 .7 1 .4.5.4.5 1.6 1.8a36.2 36.2 0 0 0 3.6 3l1 .8 1 .6 2 1.2a34.7 34.7 0 0 0 8.5 3l2.1.4 1.1.2h1l2.2.2 2-.1a28.4 28.4 0 0 0 4-.5 15.6 15.6 0 0 0 2-.4l2-.5 1.7-.7.9-.3.8-.4 1.7-.8 1.6-1 1.5-.8 1.4-1a32 32 0 0 0 8.1-9.1 30.6 30.6 0 0 0 3.6-8.6l.4-1.7.3-1.6.2-1.4v-1l.1-1.6v-.5a5 5 0 0 1 0 .5v2.7l-.1 1.3-.3 1.6a17 17 0 0 1-.4 1.8 30.7 30.7 0 0 1-3.5 8.6 32.2 32.2 0 0 1-8.2 9.2l-1.4 1-1.5 1a17.6 17.6 0 0 1-1.5.8l-1.7.9-.9.4-.9.3-1.8.7-1.9.5a18 18 0 0 1-2 .4 30.5 30.5 0 0 1-4 .5l-2.2.1-2.1-.1h-1.1l-1.1-.2-2.2-.4a36 36 0 0 1-4.3-1.3 33.5 33.5 0 0 1-4.2-1.8l-2-1.2-1-.6-1-.7A37 37 0 0 1 47 145l-1.6-1.9-.5-.4-.3-.5-.8-1-.7-1-.7-1-.6-1.2-.3-.5-.3-.5-1.1-2.3-1-2.4a32 32 0 0 1 0-20.5l1-2.4 1-2.3.4-.6.3-.5.6-1 .7-1.1.8-1 .7-1 .4-.5.4-.4 1.6-1.9a35 35 0 0 1 3.7-3l1-.8 1-.6c.6-.4 1.3-.9 2-1.2a34.1 34.1 0 0 1 4.2-1.9 36 36 0 0 1 4.3-1.2l2.2-.4 1-.1h1.2l2.1-.2 2.1.1a30.5 30.5 0 0 1 4.1.5 16.4 16.4 0 0 1 2 .4l2 .6 1.7.6.9.3.8.4 1.7.8a17.4 17.4 0 0 1 1.6 1l1.5.9 1.4 1a32.2 32.2 0 0 1 8.2 9.3 30.7 30.7 0 0 1 3.5 8.6 17 17 0 0 1 .4 1.8l.2 1.5.2 1.4v2.6a5.3 5.3 0 0 1 .2.6Z"/><path fill="#d8b4a1" d="M58.5 116.6h6.1a5.2 5.2 0 0 1 5.3-5.2 5 5 0 0 1 4.8 3.2 5.5 5.5 0 0 1-.4 5c-1 1.7-3.3 3.2-7.4 2.5v9h6v-3.3a11.8 11.8 0 0 0 8.4-11.5c0-9-8-11-11.4-11-2.6-.1-11.5.5-11.4 11.3ZM66.8 133.4h6.1v5.7h-6.1z"/><path fill="#fff" d="M103.6 152.3a5 5 0 1 1-5-5 5 5 0 0 1 5 5Z"/><path fill="#263238" d="m103.6 152.3-.2-1.2a4.9 4.9 0 0 0-1.8-2.6 4.8 4.8 0 0 0-6.7 1 4.7 4.7 0 0 0 0 5.6 4.8 4.8 0 0 0 6.7 1 4.9 4.9 0 0 0 1.8-2.6l.2-1.2a1.3 1.3 0 0 1 0 .3 4 4 0 0 1-.1.9 4.9 4.9 0 0 1-1.8 2.8 5 5 0 0 1-4.8.8 5 5 0 0 1-2.4-1.8 5.1 5.1 0 0 1-1-3 5.1 5.1 0 0 1 3.4-4.8 5 5 0 0 1 4.8.8 4.9 4.9 0 0 1 1.8 2.8 4 4 0 0 1 .1.9 1.3 1.3 0 0 1 0 .3Z"/><circle cx="427.9" cy="102.1" r="33.9" fill="#fff" transform="rotate(-45 428 102.1)"/><path fill="#263238" d="M461.8 102.1v-.5l-.1-1.6-.1-1.2-.2-1.4-.3-1.7a16 16 0 0 0-.4-1.8 32.1 32.1 0 0 0-3.8-9 33.6 33.6 0 0 0-8.5-9.6l-1.5-1-1.6-1a19 19 0 0 0-1.6-1l-1.8-.9-.9-.3-1-.3-1.8-.7-2-.6a17.2 17.2 0 0 0-2-.4 32.9 32.9 0 0 0-4.3-.5l-2.2-.1-2.2.1h-1.1l-1.1.3c-.8 0-1.6.2-2.3.3a36.9 36.9 0 0 0-4.5 1.3 34.6 34.6 0 0 0-4.4 2l-2 1.2c-.4.2-.8.4-1 .7l-1 .7a38.6 38.6 0 0 0-3.9 3.3l-1.7 1.8-.4.5-.4.5-.8 1-.8 1-.6 1.1-.7 1.1-.4.6-.2.6L397 89l-1 2.5a33.4 33.4 0 0 0 0 21.2l1 2.5 1.1 2.4.3.6.4.5.6 1.1.7 1.2.8 1 .8 1 .3.5.5.4 1.7 2a37.6 37.6 0 0 0 3.8 3.2l1 .7 1 .7 2.1 1.2a36.1 36.1 0 0 0 4.4 2 35 35 0 0 0 4.5 1.3l2.2.3 1.2.2h1l2.3.2h2.2a32.7 32.7 0 0 0 4.3-.6 16.8 16.8 0 0 0 2-.4l2-.6 1.8-.7 1-.3.9-.4 1.7-.9c.6-.2 1.1-.6 1.7-1l1.5-1 1.5-1a33.8 33.8 0 0 0 8.6-9.6 32 32 0 0 0 3.7-9 17 17 0 0 0 .5-1.9l.2-1.6.2-1.4.1-1.2.1-1.6v-.6V105.3l-.3 1.4-.2 1.7c0 .7-.3 1.2-.4 1.8a32.2 32.2 0 0 1-3.7 9 34 34 0 0 1-8.6 9.8l-1.5 1-1.6 1c-.6.4-1 .8-1.6 1l-1.8 1-.9.3-1 .4-1.8.7-2 .5a15.8 15.8 0 0 1-2.1.5 30.4 30.4 0 0 1-4.3.5l-2.2.1-2.3-.1h-1.1l-1.1-.3c-.8 0-1.6-.2-2.3-.3a36 36 0 0 1-4.6-1.3 35.4 35.4 0 0 1-4.4-2l-2.1-1.3-1.1-.7-1-.7a37.2 37.2 0 0 1-3.9-3.3l-1.7-1.9-.4-.5-.4-.5-.8-1-.8-1-.7-1-.7-1.1-.3-.6-.3-.6-1.2-2.4-.9-2.5a33.7 33.7 0 0 1 0-21.5l1-2.5 1-2.4.4-.6.3-.6.7-1.1.7-1.1.8-1 .7-1 .4-.6.5-.4 1.7-2a38.5 38.5 0 0 1 3.9-3.2l1-.8 1-.6 2.2-1.3a35.4 35.4 0 0 1 4.4-2 36 36 0 0 1 4.5-1.3l2.3-.4 1.2-.1 1.1-.1 2.3-.1h2.2a32 32 0 0 1 4.3.6 17.6 17.6 0 0 1 2 .4l2 .6 2 .7.9.3.9.5 1.7.8 1.7 1 1.6 1 1.5 1.1A33.7 33.7 0 0 1 457 85a32.2 32.2 0 0 1 3.7 9 18.7 18.7 0 0 1 .4 2l.2 1.6.2 1.4v2.8l.2.4Z"/><path fill="#d8b4a1" d="M415.9 96.3h6.4s0-5.4 5.6-5.4a5.2 5.2 0 0 1 5 3.3 5.8 5.8 0 0 1-.4 5.2c-1.1 1.8-3.5 3.4-7.8 2.6v9.5h6.3V108a12.4 12.4 0 0 0 9-12c0-9.5-8.4-11.7-12-11.7-2.8 0-12.2.7-12.1 12ZM424.7 113.9h6.5v6h-6.5z"/><path fill="#fff" d="M396.4 131.3a5.2 5.2 0 1 1-5.1-5.2 5.2 5.2 0 0 1 5.1 5.2Z"/><path fill="#263238" d="m396.4 131.3-.2-1.2a5.1 5.1 0 0 0-1.9-2.8 5 5 0 0 0-4.7-.7 4.9 4.9 0 0 0-2.3 1.8 5 5 0 0 0 7 6.9 5 5 0 0 0 1.9-2.8l.2-1.2a1.2 1.2 0 0 1 0 .3 3.8 3.8 0 0 1 0 1 5.2 5.2 0 0 1-2 3 5.3 5.3 0 0 1-7.5-1 5.3 5.3 0 0 1 0-6.4 5.3 5.3 0 0 1 2.5-1.8 5.3 5.3 0 0 1 5 .8 5.1 5.1 0 0 1 2 3 3.7 3.7 0 0 1 0 1 1.3 1.3 0 0 1 0 .1ZM208.3 379.9c-10.8-27-18.9-45.8-18.9-45.8l-98.7 15S73 394.4 74.5 415s8.8 57 8.8 57h119.4s16.4-65.2 5.6-92.2ZM172.7 154.3c.8-7.8 2-15.6 4.8-22.9s7.5-14 14.1-18.3l1.7 1.6a9.8 9.8 0 0 1 17.2-2.7 9.7 9.7 0 0 1 10.6 14.8 9 9 0 0 1 4 16.1 13 13 0 0 1-8 22.8 10.2 10.2 0 0 1-17.9 9c.4 4.6-3.3 9-7.9 10.2s-9.5-.8-12.8-4a22.3 22.3 0 0 1-5.9-12.5 56.6 56.6 0 0 1 .1-14Z"/><path fill="#d8b4a1" d="M193.7 119.8c4.5 1.5 5.5 5.1 6.4 8.2 2 6.6-.2 16.3-4 22.2s-7.7 8.8-14.5 9.8l-.7-31.4Z"/><path fill="#263238" d="M196.3 137.8a10.9 10.9 0 0 0-1-13.9c2-2.5 1.2-6.3-.8-8.8s-5-4-7.9-5.2a14.6 14.6 0 0 0-17-10.7c-3.9-5.6-12-6.5-18.4-4.6a17 17 0 0 1-4.8 1 28.8 28.8 0 0 1-3.5-.5c-6.6-.9-13.2 3.8-15.7 9.9a12.3 12.3 0 0 1-1.4 2.8 16.8 16.8 0 0 1-3.3 2.6 10.5 10.5 0 0 0-4 7.8c0 2.5.7 5.2-.3 7.6-.6 1.1-1.6 2-2 3.3-1.2 3.5 2.7 7 2 10.7-.1.8-.5 1.4-.7 2.2a6.5 6.5 0 0 0 .4 4.5c.5 1 1.4 2 1.5 3.3a10.7 10.7 0 0 1-.6 2.6c-.4 2.2 4.3 10.6 6.2 11.8l56 .5a10.5 10.5 0 0 0 8.2-9 3.9 3.9 0 0 1 .5-2.1 4.5 4.5 0 0 1 1.6-1c3.6-2 4-7 3.6-11a4.7 4.7 0 0 1 0-1.7 6.2 6.2 0 0 1 1.4-2Z"/><path fill="#ffbf9d" d="M180.2 137.9a30 30 0 0 0-16-26.2c-6.2-3-11-3.1-14.3-3.5a22.7 22.7 0 0 0-13.2 2.8c-3.1.7-14.5 11.1-15 22.4-.7 12.5-1 27.8.6 37.1 3.2 18.7 17.6 21 17.6 21l-1.4 31.1 27.7 22.7 8.5-37.3Z"/><path fill="#ff9a6c" d="M139.9 191.5a48 48 0 0 0 25.1-7s-6.5 13.3-25.4 11.7Z"/><path fill="#ffbf9d" d="M177.3 155.7c0-1.4 1.6-4.7 3-5 3.7-.5 10.4-.3 10.5 9 .2 12.9-12.3 10-12.7 10-2 .5-.7-9.2-.8-14Z"/><path fill="#ff9a6c" d="m181.5 165 .6.3a2.3 2.3 0 0 0 1.7 0c1.3-.5 2.4-2.7 2.5-5a7.4 7.4 0 0 0-.7-3.2 2.6 2.6 0 0 0-1.7-1.6 1.1 1.1 0 0 0-1.3.6l-.2.6s-.2-.2-.1-.7a1.4 1.4 0 0 1 .4-.8 1.7 1.7 0 0 1 1.3-.4 3.1 3.1 0 0 1 2.3 2 7.5 7.5 0 0 1 .9 3.6c0 2.6-1.3 5-3.2 5.6a2.4 2.4 0 0 1-2-.3l-.5-.7Z"/><path fill="#263238" d="M118.9 131.5a34 34 0 0 1 4.5-13.2 27.3 27.3 0 0 1 5.8-7.7 29.9 29.9 0 0 1 6.9-4.1c6.4-3 13.6-5.7 20.5-4.1 3.7.8 7 2.8 10.3 4.8a38.5 38.5 0 0 1 7 5 29 29 0 0 1 4.7 6.2 39.7 39.7 0 0 1 5.7 17.2c.4 6.1 5 11.5 1.4 16.5-.2.4-6.6 1.7-7 1.8-1 .5-2.2-.7-2.2-1.8a4.1 4.1 0 0 1 1.6-2.8c-1.6 0-2.7-1.8-2.6-3.4a8.4 8.4 0 0 1 2-4.2 1.1 1.1 0 0 0 .3-.6c0-.5-.5-.9-1-1.1a4.3 4.3 0 0 1-.5-6.8 5.8 5.8 0 0 1-4-7.3 1.9 1.9 0 0 0 .3-1.4c-.2-.4-.8-.6-1.2-.7a7.3 7.3 0 0 1-5-8.3 18.4 18.4 0 0 1-5.2-.2 6.2 6.2 0 0 1-4.2-3 7 7 0 0 1-11.7.6 18.3 18.3 0 0 1-8.8-1.3 8.5 8.5 0 0 1-5.6 6c-.5.1-1.2.3-1.4.8a2 2 0 0 0-.1 1c0 1.8-1.1 2.5-2.1 4s-2.7 3.7-4.5 3.2c.2 3-1.4 5.3-4 6.9Z"/><path fill="#455a64" d="M116.3 129.1a5.1 5.1 0 0 1 .6-1.4l1-1.5a5.9 5.9 0 0 0 .7-2.4 18.1 18.1 0 0 0 0-3.2 14.3 14.3 0 0 1 0-3.8 10.7 10.7 0 0 1 1.7-4 10.2 10.2 0 0 1 1.5-1.8 15 15 0 0 1 2-1.5 7.8 7.8 0 0 0 2-1.7 9.7 9.7 0 0 0 1.1-2.4 17.3 17.3 0 0 1 8-8.9 15.1 15.1 0 0 1 3.1-1.2 13.4 13.4 0 0 1 3.4-.4 17 17 0 0 1 1.7.1l1.7.3a8.4 8.4 0 0 0 3.4 0c1.1-.2 2.3-.6 3.4-1a21.8 21.8 0 0 1 3.7-.7 22.3 22.3 0 0 1 3.7 0 18.8 18.8 0 0 1 3.8.6 12.7 12.7 0 0 1 6.5 4.2l.4.6h-.2a14.8 14.8 0 0 1 17.3 10.8v-.1a40 40 0 0 1 4.4 2.3 13.5 13.5 0 0 1 3.7 3.3 8.8 8.8 0 0 1 1.7 4.4 6 6 0 0 1-1.2 4.3v-.2a10.6 10.6 0 0 1 3 6.5 10.8 10.8 0 0 1-1.3 6.4 10 10 0 0 1-.8 1.3l-.9 1.1a2.7 2.7 0 0 0-.4 1.3 7.4 7.4 0 0 0 0 1.3 20.9 20.9 0 0 1 0 4.9 10 10 0 0 1-1.3 3.7 6.2 6.2 0 0 1-2 2l-1.6 1a3.5 3.5 0 0 0-.4.3 1.6 1.6 0 0 1 .4-.4c.3-.3 1-.5 1.6-1a6.3 6.3 0 0 0 1.9-2 10.2 10.2 0 0 0 1.1-3.7 21.3 21.3 0 0 0 0-4.8 7.7 7.7 0 0 1 0-1.3 3 3 0 0 1 .5-1.4 14.3 14.3 0 0 1 .9-1.2 12.2 12.2 0 0 0 .8-1.2 10.6 10.6 0 0 0 1.2-6.2 10.3 10.3 0 0 0-3-6.4v-.2a5.7 5.7 0 0 0 1.2-4.1 8.5 8.5 0 0 0-1.7-4.2 13.3 13.3 0 0 0-3.6-3.2 41.7 41.7 0 0 0-4.5-2.3 14.5 14.5 0 0 0-16.9-10.6h-.1v-.1l-.5-.6a12.3 12.3 0 0 0-6.3-4 18.6 18.6 0 0 0-3.7-.7 22.6 22.6 0 0 0-3.7 0 22.1 22.1 0 0 0-3.5.7l-3.5 1a8.8 8.8 0 0 1-1.8.2 10.2 10.2 0 0 1-1.8-.2l-1.7-.3a15.8 15.8 0 0 0-1.6 0 13.2 13.2 0 0 0-3.3.3 14.4 14.4 0 0 0-3 1.2 16.1 16.1 0 0 0-4.8 3.7 16.3 16.3 0 0 0-3 5 10.9 10.9 0 0 1-1.3 2.4 8.4 8.4 0 0 1-2 1.7 15.4 15.4 0 0 0-2 1.5 10.2 10.2 0 0 0-1.5 1.8 10.5 10.5 0 0 0-1.7 4 14 14 0 0 0 0 3.7 19.2 19.2 0 0 1 0 3.2 6.1 6.1 0 0 1-.8 2.5l-1 1.5a6.7 6.7 0 0 0-.6 1 2.5 2.5 0 0 1-.2.2Z"/><path fill="#455a64" d="m163.6 96.4-1-.5a8.8 8.8 0 0 0-2.8-.8 8.1 8.1 0 0 0-4.3.7 8.3 8.3 0 0 0-3.7 3.5 7.1 7.1 0 0 0-.7 1.4 1.5 1.5 0 0 0 .1 1.4l.4.4-.6-.1a5.3 5.3 0 0 0-4 .5 5.1 5.1 0 0 0-2 2.3 5.8 5.8 0 0 0-.6 2.1v.8-.2a3.3 3.3 0 0 1 0-.6 5.3 5.3 0 0 1 .3-2.2 5.2 5.2 0 0 1 2.2-2.5 5.6 5.6 0 0 1 4.2-.6l-.2.3a2 2 0 0 1-.1-1.7 7.2 7.2 0 0 1 .6-1.5 8.6 8.6 0 0 1 4-3.7 8.2 8.2 0 0 1 4.4-.6 8 8 0 0 1 2.8 1 5 5 0 0 1 .7.4l.3.2ZM184.4 111l-.4.4a8.4 8.4 0 0 1-1.5 1 6 6 0 0 1-2.5.8 4.6 4.6 0 0 1-3.2-1h.3l-.4.5-.4.5a7.7 7.7 0 0 1-3.2 2 8 8 0 0 1-3 .4 6.8 6.8 0 0 1-2-.4 2.6 2.6 0 0 1-.7-.4 11.5 11.5 0 0 0 2.7.6 8 8 0 0 0 3-.5 7.6 7.6 0 0 0 3-2l.3-.4.4-.5.1-.2.1.1a4.3 4.3 0 0 0 3 1 6.1 6.1 0 0 0 2.4-.8c1.3-.6 2-1.2 2-1.2ZM191.3 122.7a.7.7 0 0 1 0 .3 2 2 0 0 1-.3.6 3.4 3.4 0 0 1-2 1.4 6.5 6.5 0 0 1-3.7-.4c-.7-.2-1.3-.4-2-.8a3.5 3.5 0 0 1-1.8-1.6 1.8 1.8 0 0 1 0-.2l.2.1a14.6 14.6 0 0 1-3.7 2.3 6.5 6.5 0 0 1-3.6.4 4.7 4.7 0 0 1-2.3-1 3 3 0 0 1-.4-.4l-.2-.2.7.5a4.9 4.9 0 0 0 2.2.9 6.4 6.4 0 0 0 3.4-.5 14.6 14.6 0 0 0 3.7-2.3l.2-.1v.2l.2.2a3.2 3.2 0 0 0 1.5 1.4l2 .8a6.4 6.4 0 0 0 3.5.4 3.4 3.4 0 0 0 2-1.2 5.4 5.4 0 0 0 .4-.8Z"/><path fill="#263238" d="M150 148.7a2.4 2.4 0 0 0 2.2 2.5 2.3 2.3 0 0 0 2.5-2 2.4 2.4 0 0 0-2.2-2.5 2.3 2.3 0 0 0-2.5 2ZM127 148a2.4 2.4 0 0 0 2.2 2.6 2.3 2.3 0 0 0 2.5-2.1 2.4 2.4 0 0 0-2.2-2.5 2.3 2.3 0 0 0-2.5 2ZM126.1 140.2c.3.4 2.1-1 4.7-.8s4.3 1.4 4.6 1.1c.2-.1-.1-.7-1-1.3a6.5 6.5 0 0 0-3.6-1.3 6.3 6.3 0 0 0-3.8 1c-.8.7-1 1.2-.9 1.3ZM151.4 141.5c.3.3 2-1.2 4.6-1.3s4.5 1 4.7.6c.2-.1-.2-.7-1-1.2a6.5 6.5 0 0 0-3.9-.9 6.3 6.3 0 0 0-3.6 1.4c-.7.7-1 1.3-.8 1.4ZM142 160.6l-4.2-.9c-.6 0-1.2-.2-1.3-.6a3.4 3.4 0 0 1 .5-2l2-4.8c3-7 5-12.7 4.8-12.8s-2.9 5.4-5.8 12.4l-2 4.9a3.8 3.8 0 0 0-.4 2.5 1.6 1.6 0 0 0 1 1 4.5 4.5 0 0 0 1.1.2c2.6.2 4.2.3 4.2.1Z"/><path fill="#ff9a6c" d="M145.9 164.4a3.6 3.6 0 0 1 2.4 1.4c.6.8 1 2.7.4 3.4s-2.5.6-4 .5a1.8 1.8 0 0 1-1.4-1.2l-.6-1.7a1.8 1.8 0 0 1 1.1-2.2 4.7 4.7 0 0 1 2-.2Z"/><path fill="#263238" d="M150.3 132.2c.3.7 2.8-.2 5.8-.4s5.5.1 5.8-.5c.1-.4-.4-1-1.5-1.4a9.8 9.8 0 0 0-4.5-.7 9.7 9.7 0 0 0-4.4 1.4c-1 .7-1.4 1.3-1.2 1.6ZM126.7 136c.6.6 2.6 0 5-.1s4.6.2 5-.4c.2-.3-.1-.8-1-1.4a7.9 7.9 0 0 0-4.1-.8 7.7 7.7 0 0 0-4 1.3c-.8.6-1.1 1.2-.9 1.5Z"/><path fill="#455a64" d="m214.5 241.8-24 87.1 8.4 25c-31.7 14-77.6 18.4-113.7 1 0 0 12.3-36 12.7-43s-2.6-48 .7-61.8 13-43.2 13-43.2l28-4.4c13 6.9 21.2 8 35-.1L201 208Z"/><path fill="#455a64" d="M112 206.8s-15.2 1.6-21.3 14-22.7 66.6-23.6 75.7 6.5 21.3 13 23l19.4-19.4 16.1 1.5 21.3-99.3Z"/><path d="M100.5 240.2a73 73 0 0 0-3.8 38.5l-10.6-4a33.3 33.3 0 0 0 11 9.7c-2.9-.8-5.8-1.7-8.8-1.5s-6 1.7-7.4 4.3c3.5-.6 7-1.2 10.5-.8s7 2 9 5a122.8 122.8 0 0 1-3-34.6M96.1 315l79.3 7.8c-5.7-.1-10.1 4.7-15 7.6-9.2 5.3-20.6 3.8-31 2.1l-26-4c-2.3-.4-4.6-.8-6.2-2.3-2.9-2.8-2.1-7.4-1.1-11.3Z" opacity=".3"/><path fill="#ffbf9d" d="m156.7 308.4 13.2-12.8a6.2 6.2 0 0 1 4.9-1.7c3.8.3 10.2 1 11.5 1.5 1.9.8 3.7 1.8 4.2 2.8a55.6 55.6 0 0 1 2.5 7.5 17.4 17.4 0 0 1-.3 2.7 1.9 1.9 0 0 1-2.7 1.4 3.2 3.2 0 0 1-1.3-1.2 4.3 4.3 0 0 1-.7-2.2s.4 5.7-4.2 5.8c0 0 2.1 4.8-3.9 6.8 0 0 .3 3.2-4.7 3.6a61 61 0 0 1-9.6 0s-9.1 6.6-15.5 7-20.9-2.4-20.9-2.4l-1.7-26.5Z"/><path fill="#ff9a6c" d="M174.7 300.3a15.5 15.5 0 0 0 2 .9l5.4 1.7 3 .7a3.3 3.3 0 0 1 1.8 1.5l1 1.4.4.4a4 4 0 0 0-.3-.5l-.9-1.5a5 5 0 0 0-.7-1 3 3 0 0 0-1.2-.6l-3-.8c-2-.5-4-1.1-5.3-1.6a15.1 15.1 0 0 0-2.3-.6ZM173 308.4a6.3 6.3 0 0 0 1.4.7 66.9 66.9 0 0 0 7.4 2.5 8 8 0 0 0 1.6.3 7.4 7.4 0 0 0-1.5-.6l-3.7-1.2-3.7-1.2a7.9 7.9 0 0 0-1.6-.5ZM169.7 316c0 .1 2.3.3 5 1.1s5 1.7 5 1.6a5.4 5.4 0 0 0-1.4-.7 24.6 24.6 0 0 0-3.5-1.2 24.9 24.9 0 0 0-3.6-.7 5 5 0 0 0-1.5-.1Z"/><path fill="#455a64" d="m139 329-59-9.5S87 290 97.4 290c1.5 0 53.8 17 53.8 17Z"/><path fill="#ff9a6c" d="M149.2 316a10.5 10.5 0 0 0 1.4-1.2l3.2-3.2 3.2-3.2a9.5 9.5 0 0 0 1.2-1.4 11.5 11.5 0 0 0-1.4 1.2l-3.2 3.2-3.2 3.2a10.2 10.2 0 0 0-1.2 1.4Z"/><path fill="#263238" d="M151.2 307a2.5 2.5 0 0 1-.7-.1l-2.1-.6-7.7-2.2-25.2-7.6-15.2-4.7h-.1l-.1-.1a13.5 13.5 0 0 0-6.9-4.7 17 17 0 0 0-6.5-.7 19.6 19.6 0 0 0-4.3.9l-1.5.5a4.4 4.4 0 0 1 1.4-.7 17.4 17.4 0 0 1 11.1-.6 13.9 13.9 0 0 1 7.3 4.8l-.2-.1 15.2 4.6c9.9 3 18.8 5.7 25.2 7.8l7.6 2.5 2 .7a2.5 2.5 0 0 1 .7.3Z"/><path fill="#ffbf9d" d="M135.6 212.5c.5-1.6 3.3-16.7 4.4-20.3 1.6-5 14.5-13.8 14.5-13.8s-2-4.7-7.5-2.2c-6.5 2.8-9.7 7.7-11.4 6.7s-11.8-11.4-14.6-11-3.4 3.1-2.4 4.2a24.8 24.8 0 0 1 2 3s-5.8-1.7-4.7 4.7c0 0-6.7-4.2-6 4.7 0 0-4.5-1.8-5.5 1.3s2 6.7 3.5 9.2 6.2 16.7 6.2 16.7v12.6l23.5-4.9Z"/><path fill="#ff9a6c" d="M135.6 212.5a4.8 4.8 0 0 1 .2.8l.5 2 1.5 8.1v.2h-.1l-23.5 5-.4.1v-13 .2c-1.8-4.9-3.5-10-5.7-15.3-1-2.6-3.3-4.8-4.1-7.8a5.8 5.8 0 0 1-.1-2.4 3 3 0 0 1 1.2-2.2 4 4 0 0 1 2.5-.6 8.3 8.3 0 0 1 2.4.6l-.6.4a14.6 14.6 0 0 1 0-2.7 4.6 4.6 0 0 1 1.2-2.6 3.2 3.2 0 0 1 2.8-.8 7.8 7.8 0 0 1 2.7 1l-.7.5a5.8 5.8 0 0 1 .5-4 3.2 3.2 0 0 1 2.3-1.4 6.3 6.3 0 0 1 2.5.2l-.4.6a24.8 24.8 0 0 0-2-2.8 2.6 2.6 0 0 1-.6-2 3.4 3.4 0 0 1 .6-1.7 3.4 3.4 0 0 1 1.5-1.2 4.2 4.2 0 0 1 1-.3 2.9 2.9 0 0 1 1 .1 11.3 11.3 0 0 1 3 1.7c3.7 2.7 6.8 5.8 10 8.6a5.4 5.4 0 0 0 1.1.8 1.8 1.8 0 0 0 1.2-.4l2.4-1.8a37.4 37.4 0 0 1 5-3.4c1.8-1 3.6-2 5.6-1.9a5.4 5.4 0 0 1 4.7 3.2l.1.2-.2.2c-5 3.6-9.6 7-12.8 10.9a9.6 9.6 0 0 0-1.8 3l-.8 3.2-1.3 5.8-1.7 8-.5 2.2a5.7 5.7 0 0 1-.2.7 3.5 3.5 0 0 1 .1-.7l.4-2.2a1943.8 1943.8 0 0 0 2.7-13.9l.8-3.3a10 10 0 0 1 1.9-3.2c3.2-4 7.7-7.5 12.8-11.1l-.2.4a4.7 4.7 0 0 0-4-2.7c-1.7 0-3.5.9-5.2 1.8a38 38 0 0 0-4.8 3.4l-2.5 1.9a2.5 2.5 0 0 1-1.8.4 5 5 0 0 1-1.5-1c-3.2-2.8-6.3-5.8-9.9-8.4a11.3 11.3 0 0 0-2.8-1.6 2.2 2.2 0 0 0-.7 0 3.7 3.7 0 0 0-.7.1 2.4 2.4 0 0 0-1.2 1 2.1 2.1 0 0 0 0 2.6 26.4 26.4 0 0 1 2 3l.6.8-1-.2c-1.4-.4-3.2-.4-4 .8a5 5 0 0 0-.2 3.4v.9l-.7-.5a6.9 6.9 0 0 0-2.3-.9 2.3 2.3 0 0 0-2.2.6c-1 1-1 3-.9 4.6v.6l-.6-.2c-1.3-.5-3-.8-4 0a2.3 2.3 0 0 0-1 1.6 5 5 0 0 0 .2 2 14 14 0 0 0 1.8 3.9 27 27 0 0 1 2.2 3.8c2.2 5.3 4 10.5 5.6 15.4v12.7l-.4-.4 23.5-4.7-.1.3a2387.7 2387.7 0 0 1-1.8-10.3 3.5 3.5 0 0 1 0-.7Z"/><path fill="#ff9a6c" d="M120.7 179.4a33.9 33.9 0 0 0 2.8 2.6 33.6 33.6 0 0 0 3 2.6 16.2 16.2 0 0 0-2.7-2.8 15.6 15.6 0 0 0-3.1-2.4ZM115.4 183.5a9.6 9.6 0 0 0 3.7 4.7l-2-2.3-1.7-2.4ZM110 188.2a15.8 15.8 0 0 0 2.7 3.8 15.8 15.8 0 0 0-2.8-3.8Z"/><path fill="#455a64" d="m200.9 208-25.3 25.2-25.9 32.6-10.3-43.4-26.3 5.4s1.8 49 10 71.3c1.5 4.2 6 7.3 8.1 8.3 12.7 6 25.2-3.3 25.2-3.3s53-35.7 58.8-59.5c2.8-11.3 1.7-24.7-3-30.2A23.2 23.2 0 0 0 201 208Z"/><path fill="#263238" d="m215.2 244.6-.2.7a19.3 19.3 0 0 1-.7 2.3 39.8 39.8 0 0 1-4.2 8 89.2 89.2 0 0 1-8.8 11.2 181 181 0 0 1-13.5 13.1 302.8 302.8 0 0 1-28 22l-2.7 2-2.8 1.8a31.8 31.8 0 0 1-6.4 2.8 23.6 23.6 0 0 1-14 .2 15.5 15.5 0 0 1-1.8-.6 12.1 12.1 0 0 1-1.7-.8 20.6 20.6 0 0 1-3-2 15.1 15.1 0 0 1-4.6-6 117.1 117.1 0 0 1-4-15 483.2 483.2 0 0 1-6-56.5v-.2h.2l26.3-5.3h.2v.1l10.3 43.4h-.3l21-22.6 5.7-6 1.5-1.6.5-.5-.5.5-1.4 1.6-5.6 6.1-20.9 22.7-.2.2v-.3l-10.4-43.4.2.2-26.3 5.5.2-.3c.6 13 1.7 26.8 3.5 40.8.7 5.3 1.6 10.5 2.6 15.6a114.8 114.8 0 0 0 3.9 14.7 14.8 14.8 0 0 0 4.4 5.8 20.1 20.1 0 0 0 3 2 11.6 11.6 0 0 0 1.6.8 17 17 0 0 0 1.7.6 23 23 0 0 0 13.8-.3 32.6 32.6 0 0 0 6.2-2.6c1-.6 2-1.2 2.8-1.9l2.7-1.8a294.8 294.8 0 0 0 41.6-35 91.6 91.6 0 0 0 8.9-11.2 41 41 0 0 0 4.2-7.9l.8-2.2.2-.7Z"/><path fill="#263238" d="m154.5 285.7.4-3.3a25.2 25.2 0 0 0 0-3.6 26.1 26.1 0 0 0-.8-4.4 28.2 28.2 0 0 0-3.1-7.3c-1-1.8-1.9-2.8-1.8-2.9s.2.2.6.7a19.4 19.4 0 0 1 1.5 2 23.9 23.9 0 0 1 4 11.9 22.3 22.3 0 0 1-.1 3.7 15.8 15.8 0 0 1-.5 2.4 3.6 3.6 0 0 1-.2.8ZM150.9 167.7c0 .2-.6 0-1.4 0a25.4 25.4 0 0 0-3.2-.6 9.8 9.8 0 0 0-3.1.2c-.8.2-1.1.5-1.3.4s0-.2.1-.4a2.3 2.3 0 0 1 1-.7 6.6 6.6 0 0 1 3.4-.5 10.2 10.2 0 0 1 3.3.8c.8.4 1.2.7 1.2.8ZM371.7 103.5a8 8 0 0 0 3-15.7 8.4 8.4 0 0 0-7.6-13.9 10 10 0 0 0-15.3-7.8 11.3 11.3 0 0 0-13.8 0 8 8 0 0 0-6.8 13.8"/><path fill="#ffbf9d" d="M336.4 74.1h1.8a34.1 34.1 0 0 1 34.7 30.6c1.7 16.4 3.4 34.6 3.5 43.5.2 18.3-18 21.5-18 21.5l2 22-44.4-.4-5.8-79.7c-2-19 7.2-36 26.3-37.5Z"/><path fill="#ff9a6c" d="M358.4 169.7a47.4 47.4 0 0 1-25.2-6.5s7.4 13.3 25.6 11.3Z"/><path fill="#263238" d="M367.3 124.5a2.6 2.6 0 0 1-2.4 2.7 2.5 2.5 0 0 1-2.8-2.3 2.6 2.6 0 0 1 2.5-2.7 2.5 2.5 0 0 1 2.7 2.3ZM369.2 113.7c-.3.3-2.3-1-5.1-1s-4.9 1.5-5.2 1.2c-.1-.2.2-.8 1-1.5a7.2 7.2 0 0 1 4.1-1.4 7 7 0 0 1 4.1 1.3c1 .6 1.3 1.2 1.1 1.4ZM343.1 124.5a2.6 2.6 0 0 1-2.4 2.7 2.5 2.5 0 0 1-2.8-2.3 2.6 2.6 0 0 1 2.5-2.7 2.5 2.5 0 0 1 2.7 2.3ZM341.6 114.8c-.3.4-2.4-1-5.2-1s-4.8 1.6-5.1 1.2c-.2-.1.2-.7 1-1.4a7.2 7.2 0 0 1 4.1-1.4 6.8 6.8 0 0 1 4.1 1.2c1 .7 1.2 1.3 1 1.4ZM352.3 135.5c0-.2 1.7-.5 4.5-1 .7 0 1.4-.2 1.5-.7a3.6 3.6 0 0 0-.5-2.1l-2.3-5.4c-3-7.8-5.4-14.1-5-14.2s3 6 6.2 13.7l2.1 5.5a4.2 4.2 0 0 1 .5 2.8 1.8 1.8 0 0 1-1.2 1 5 5 0 0 1-1.2.3c-2.8.2-4.6.2-4.6 0ZM342.2 109c-.4.8-2.8 0-5.8 0s-5.4.6-5.7-.2c-.1-.3.4-1 1.4-1.5a8.8 8.8 0 0 1 4.4-1 8.6 8.6 0 0 1 4.4 1.2c1 .5 1.4 1.2 1.3 1.5ZM369 102c-.5.7-2.8 0-5.6.2s-5.2.5-5.7-.1c-.3-.4 0-1 1-1.6a9.1 9.1 0 0 1 4.7-1.2 8.8 8.8 0 0 1 4.6 1.2c1 .6 1.3 1.3 1 1.6Z"/><path fill="#263238" d="M371 96.3s-5.1-11.4-10.7-13.9c-6.8-3-9.5 4.3-15.9 2.7s-12.8-4.6-19.2.5c-7 5.5-3.6 9.3-3.9 17.4-1 33-6.8 42.4-8.9 27-.2-1.8-5-3-5.8-10.2a81 81 0 0 1 .2-27.2A26 26 0 0 1 317 78.7c8.8-7 21.1-7.3 29.5-6.7s24.8 10 24.4 24.3Z"/><path fill="#ffbf9d" d="M313.6 129.4a5 5 0 0 0-5.5-4.7c-3.4.4-7.2 2.5-6.8 9.5.7 12.5 13.1 9.2 13.1 8.9l-.8-13.7Z"/><path fill="#ff9a6c" d="m311.5 138.5-.6.4a2.2 2.2 0 0 1-1.6.1c-1.4-.4-2.6-2.4-2.8-4.7a7.3 7.3 0 0 1 .4-3.1 2.5 2.5 0 0 1 1.6-1.8 1.1 1.1 0 0 1 1.3.5l.2.6s.3-.2.1-.7a1.4 1.4 0 0 0-.5-.8 1.6 1.6 0 0 0-1.2-.2 3 3 0 0 0-2.2 2 7.5 7.5 0 0 0-.6 3.6c.2 2.5 1.7 4.8 3.5 5.2a2.4 2.4 0 0 0 2-.4l.4-.7Z"/><path fill="#263238" d="M313.3 105.2c1.6 1 3.3 2.1 5.3 2.3s4.2-1 4.5-3c.1-1-.1-2 .4-2.6s2-.6 3-.5c3.7.3 7.8-3.8 8.7-7.4a3.3 3.3 0 0 0 4.3.8 11.9 11.9 0 0 0 3-2.7c1.1-1.3 2.6-2.5 4.3-2.3 1 .1 1.8.7 2.7.6 1.7-.2 2.4-2.2 2.6-3.8s.4-3.5 1.8-4.5 3-.4 4.4-.2 3.5-.2 3.9-1.7a3 3 0 0 0-.7-2.3 8.1 8.1 0 0 0-9.6-2.8 11 11 0 0 0-20.2-1.7 11.1 11.1 0 0 0-17.8 4.6 8 8 0 0 0-8.8 12c-2.3 1.3-4.1 3.6-4.1 6.2s2.6 5.1 5 4.4a4.5 4.5 0 0 0 7.9 4.3"/><path fill="#455a64" d="M352.9 78.8a.7.7 0 0 1 0 .2 5.4 5.4 0 0 1-.1.7 8 8 0 0 1-.9 2.4 9.2 9.2 0 0 1-2.7 3 8.4 8.4 0 0 1-5 1.6l.2-.3a4.6 4.6 0 0 1-.2 3.5 12.8 12.8 0 0 1-2 3.1 8.9 8.9 0 0 1-1.5 1.5 4.4 4.4 0 0 1-2 .7 4.5 4.5 0 0 1-4-1.3l.4-.1a9.4 9.4 0 0 1-3.8 6.5 6.8 6.8 0 0 1-4 1.5 12.3 12.3 0 0 1-4.1-.8l.3-.2a10 10 0 0 1-2.9 4 5.3 5.3 0 0 1-4.3 1.2 6.9 6.9 0 0 1-5.4-5.2l.3.1a6.4 6.4 0 0 1-4.3.7 7 7 0 0 1-3-1.2 6.1 6.1 0 0 1-1.5-1.5 3.2 3.2 0 0 1-.3-.7 7.7 7.7 0 0 0 1.9 2 6.8 6.8 0 0 0 3 1.2 6.1 6.1 0 0 0 4-.8l.2-.1v.2a6.5 6.5 0 0 0 5.1 5 4.8 4.8 0 0 0 4-1.3 9.4 9.4 0 0 0 2.6-3.7l.1-.3.3.1a11.7 11.7 0 0 0 3.9.8 6.3 6.3 0 0 0 3.8-1.4 8.9 8.9 0 0 0 3.6-6.2v-.6l.5.5a4 4 0 0 0 3.6 1.2 3.8 3.8 0 0 0 1.7-.7 8.5 8.5 0 0 0 1.3-1.4 12.8 12.8 0 0 0 2-3 4.2 4.2 0 0 0 .2-3.1l-.1-.3h.3a8 8 0 0 0 4.9-1.4 9 9 0 0 0 2.7-2.9 9.6 9.6 0 0 0 1.2-3.2Z"/><path fill="#ffbf9d" d="M262.9 189.7s-47 16.5-60.6 23.4c-10.7 5.3-17.4 24.7-1 32.8 12.1 6 78.1-5.5 78.1-5.5Z"/><path fill="#263238" d="M406.4 354.3 287 349.8l-4.3 40.6-4.9 81.6 61 .3 7.6-45.9 3.5-.9-.3 46.8h57.1c3-38.7 4.7-71.2 4.9-74.3a149.2 149.2 0 0 0-5.2-43.7Z"/><path fill="#455a64" d="M342.1 401a7.7 7.7 0 0 0 1.8 1 20.3 20.3 0 0 0 5.4 1.6 10.9 10.9 0 0 0 3.9-.1 8 8 0 0 0 4-2.1 9.8 9.8 0 0 0 2.3-4.5l1-5.2a218.4 218.4 0 0 0 2.2-23.6 9 9 0 0 0 0-2 9 9 0 0 0-.3 2l-.6 5.5a440 440 0 0 1-2.3 18c-.5 3.5-.8 7-3 9.2a8.8 8.8 0 0 1-7.2 2.2 24 24 0 0 1-5.2-1.3 9.6 9.6 0 0 0-2-.6ZM353.5 367.7s-.3-.2-.9-.3a3.8 3.8 0 0 0-2.3.9 4.3 4.3 0 0 0-1.7 3.4 4.2 4.2 0 0 0 7.3 2.4 4.3 4.3 0 0 0 .7-3.7 3.8 3.8 0 0 0-1.4-2.1c-.5-.4-.8-.4-.8-.4a4.9 4.9 0 0 1 1.6 2.6 3.7 3.7 0 0 1-.7 3 3.4 3.4 0 0 1-5.8-1.9 3.7 3.7 0 0 1 1.2-2.8 4.9 4.9 0 0 1 2.8-1.1ZM287 388a4.5 4.5 0 0 0 1.4.2 28 28 0 0 0 4-.2 38.6 38.6 0 0 0 23.4-11 27.2 27.2 0 0 0 2.6-3l.8-1.2-3.8 3.7a43 43 0 0 1-23 11c-3.4.4-5.4.3-5.4.5Z"/><path fill="#455a64" d="M408.8 347.7c-2.3-5.4-1.9-5.9-1.9-5.9l-6.6-58-6.4-56.6-5.2-41.9-29.9-6.4s-3.4 9.6-17.9 9.8c-16.6.4-26.1-14.5-26.1-14.5L267 184.5l18 123.2 2.1 33.2s-3.5 5.4-3.5 11.1-.3 9.6-.3 9.6c44.4 12.2 88.4 22.8 129 11-.1 0-1.1-19.6-3.5-25Z"/><path fill="#455a64" d="M377.8 183.1s17.2 2 23.4 8.4 25.6 38.6 25.6 38.6L398.4 269l-13.1-18Z"/><path fill="#263238" d="M391 203.2c.2 0 3 21.3 6 47.7s5.5 47.7 5.3 47.7-3-21.3-6.1-47.6-5.5-47.8-5.2-47.8Z"/><path fill="#455a64" d="m267 184.4-38.3 17 13.9 38.8 36.8 5.8-12.4-61.6z"/><path fill="#263238" d="M272.2 210.1c.3 0 2.1 15.1 4.1 33.8s3.4 33.8 3.2 33.8-2.1-15-4.1-33.7-3.4-33.8-3.2-33.9Z"/><path d="M281.7 406.5c20.8-7.5 32.3-22.2 41.6-37.8s10.6-37.6 4.6-54.7c0 0-43 41.5-43.2 42.4s-3 50.1-3 50.1ZM340.1 188.2c-.5 4.2 1.9 8.3 4.7 11.4s6.4 5.6 9 9a46 46 0 0 1 6.5 13l10.4 28.5c3 8.2 6.1 16.4 10.9 23.7s11.5 13.7 19.8 16.4l-6.3-53.6-33.3-53.5Z" opacity=".3"/><path fill="#ffbf9d" d="M374.6 188.7c0-.7.5-25.5-1.2-28.2s-3-5.2-3.3-7.8a1.7 1.7 0 0 0-.7-2.3c-1.7-1-4.3 1.3-4.4 5.3s.4 10.8.4 10.8-18.3-10.4-23.3-10.7-12.5-1.2-13 1.2 0 3 2.7 4 6.7 1.5 10.8 3a51.9 51.9 0 0 1 6 2.2s-9.3-2.7-11.4 0-1.7 5.3-.4 6.6a4.2 4.2 0 0 0-2.5 4.2c.3 3 1.6 3.8 1.6 3.8s-2.7 2-1.4 4.7 4.4 1 7.3 4 10.1 10 13 11.6 9.1 2.2 9.1 2.2Z"/><path fill="#ff9a6c" d="m374.6 188.7-.2.2-.5.7-2 3-7.9 10.7v.1h-.1l-4-.6a24.8 24.8 0 0 1-4.2-1 8.1 8.1 0 0 1-2-1.2l-1.9-1.5a69 69 0 0 1-7.6-7l-2-1.9a9 9 0 0 0-2-1.7 9 9 0 0 0-2.7-1 4.5 4.5 0 0 1-2.8-1.3 3.5 3.5 0 0 1-.7-3 5.1 5.1 0 0 1 1.8-2.6v.4a3.9 3.9 0 0 1-1.4-2 8.2 8.2 0 0 1-.4-2.4 4 4 0 0 1 .7-2.4 4.9 4.9 0 0 1 2-1.6v.3a4.4 4.4 0 0 1-.9-4.5 8 8 0 0 1 1.1-2.1 2.5 2.5 0 0 1 1-1 4.7 4.7 0 0 1 1.1-.4 14.4 14.4 0 0 1 4.9 0 37 37 0 0 1 4.8 1l-.2.5a62 62 0 0 0-7.6-2.9c-2.7-.8-5.4-1.3-8.2-2a12.1 12.1 0 0 1-3-1.2 2 2 0 0 1-.8-1.4 5.6 5.6 0 0 1 0-1.6 2 2 0 0 1 .2-.8 2 2 0 0 1 .7-.6 4.5 4.5 0 0 1 1.5-.6 16.4 16.4 0 0 1 3-.2c2 0 4 .2 5.9.3a26.9 26.9 0 0 1 3 .3l1.4.4 1.3.4a109 109 0 0 1 10.3 4.7l9.3 5-.3.2c-.2-4-.5-7.7-.4-11.3a6.2 6.2 0 0 1 2.4-4.7 2.6 2.6 0 0 1 1.3-.5 2 2 0 0 1 1.3.5 1.8 1.8 0 0 1 .7 1 2 2 0 0 1-.3 1.4v-.1a20 20 0 0 0 3.1 7.3 3.1 3.1 0 0 1 .4.9 6.3 6.3 0 0 1 .3 1l.2 1.7.3 3.5c.2 4.5.2 8.4.2 11.6l-.1 7.3v2.6-9.8a207.3 207.3 0 0 0-.9-16.9 4.2 4.2 0 0 0-.6-1.7 20.2 20.2 0 0 1-3.2-7.4v-.1a1.6 1.6 0 0 0 .2-1.1 1.4 1.4 0 0 0-.6-.9 1.7 1.7 0 0 0-2.1 0 5.8 5.8 0 0 0-2.1 4.5c-.1 3.5.1 7.3.3 11.2v.4l-.3-.2-9.4-5a105.3 105.3 0 0 0-10.1-4.6l-1.4-.5-1.3-.3a26.4 26.4 0 0 0-2.9-.3l-5.9-.3a17 17 0 0 0-3 .2c-.9.2-2 .5-2 1.5a4.7 4.7 0 0 0 0 1.5 1.5 1.5 0 0 0 .7 1 11.3 11.3 0 0 0 2.8 1.2c2.7.8 5.5 1.3 8.2 2.1a60.1 60.1 0 0 1 7.7 2.9l-.1.4a37.5 37.5 0 0 0-4.8-1 14.5 14.5 0 0 0-4.7 0 2.8 2.8 0 0 0-1.8 1.1 7.5 7.5 0 0 0-1 2 4 4 0 0 0 .7 4.1l.2.2-.3.2a4.4 4.4 0 0 0-1.8 1.4 3.7 3.7 0 0 0-.6 2.2 7.6 7.6 0 0 0 .4 2.2 3.6 3.6 0 0 0 1.2 1.8l.2.2-.2.1a4.7 4.7 0 0 0-1.6 2.4 3 3 0 0 0 .6 2.7 4.1 4.1 0 0 0 2.5 1.2 9.5 9.5 0 0 1 2.8 1 9.4 9.4 0 0 1 2.2 1.8l2 2a209.5 209.5 0 0 0 7.5 7 14.3 14.3 0 0 0 3.8 2.5 25.1 25.1 0 0 0 4.1 1.1l4 .6h-.2l8-10.7 2-2.8.6-.7Z"/><path fill="#ffbf9d" d="M433.9 246.6c-1.9-3.5-6-10.8-8-15.3l-13 4.8s-37-50-38.3-50-17.3 14.9-17.3 14.9c.7.7 34.1 77.2 46.9 85.4s22.3 13.6 29.1 1.8 8.6-26.3.6-41.6Z"/><path fill="#ff9a6c" d="M429.6 258.6a5.8 5.8 0 0 1-.6-1l-1.6-2.7a93.9 93.9 0 0 0-5.8-8.5c-2.5-3.2-4.9-6-6.6-8l-2-2.3a5.8 5.8 0 0 1-.7-.9 5.6 5.6 0 0 1 .9.8 104 104 0 0 1 8.8 10.1 75 75 0 0 1 5.7 8.6l1.5 2.8a5 5 0 0 1 .4 1Z"/><path fill="#263238" d="M354.2 147.1c-.3.3-1.7-1.2-3.9-2s-4.1-.5-4.2-1c0-.1.4-.4 1.3-.6a7 7 0 0 1 6.3 2.3c.5.7.7 1.2.5 1.3ZM387.7 347.3a2.7 2.7 0 0 1-.5.3l-1.3.7a21.6 21.6 0 0 1-5.5 1.4 31.5 31.5 0 0 1-8.2 0 61.1 61.1 0 0 1-10-2.2 206 206 0 0 1-22.4-8.4l-1.4-.6a2 2 0 0 1-.5-.3 2.2 2.2 0 0 1 .5.2l1.4.5 5.2 2c4.4 1.8 10.5 4 17.4 6.1a64.5 64.5 0 0 0 9.8 2.3 32.2 32.2 0 0 0 8.2.1 24 24 0 0 0 5.4-1.3l1.9-.8Z"/><path fill="#d8b4a1" d="M297.2 252a93.9 93.9 0 0 0-96-4.3 64.4 64.4 0 0 0-24 23 85.5 85.5 0 0 0-11 42 9.1 9.1 0 0 0 9.1 9.4h32a9.2 9.2 0 0 0 9-7.8c1.4-10 7.4-26.9 31.3-27.3a29 29 0 0 1 28.2 18.6A32.6 32.6 0 0 1 273 335c-8.5 14-24.2 16.2-32.7 16.2a18 18 0 0 0-18 17.8v34.4a9.1 9.1 0 0 0 9.2 9.1h31.1a9.1 9.1 0 0 0 9.2-9v-7.3a.4.4 0 0 1 .2-.4 90.3 90.3 0 0 0 33.1-20.7 81.4 81.4 0 0 0 23.7-60c0-34.5-17.2-53.4-31.7-63.2ZM248.7 421.2H246a23.6 23.6 0 0 0 0 47.2h2.7a23.6 23.6 0 0 0 0-47.2Z"/><path d="M327.7 293a39.7 39.7 0 0 0-2.6-10 45.8 45.8 0 0 0-37.5-28.1l-80.4-9.2c8.7 9 20.1 10.7 32.2 13.9s25.2 7.8 37.4 10.4c3.9.8 8 1.9 11 4.5s4.6 6.2 6.2 9.8l7 16c2.6 6 6.2 12.9 13.3 13.3a11.3 11.3 0 0 0 7.9-2.8c5.2-4.5 6.3-11.4 5.5-17.7Z" opacity=".3"/><path fill="#ffbf9d" d="M326.6 271.5c-.7-1-12.9-16-19-21.8-3.9-3.7-9.8-6.3-13.5-7.7 0 0-61.1-22-65.4-24.2l-27.5 28c9.6 2.7 74.5 18.4 90.6 21.9a90 90 0 0 0 5.6 6l4.6 10.9a43.6 43.6 0 0 1 .2 8.2c-.3 4.3 3.1 2.6 3.1 2.6a60.8 60.8 0 0 0 0 6.5.5.5 0 0 1 0 .1c.3 2.9 4.4 3.2 5.3.5l3.2-9.8-.6 14a5 5 0 0 0 .4 2.2 3.1 3.1 0 0 0 5.8-.7l3.7-15.6-1.1-9.6 3.1 8.8a60.4 60.4 0 0 1 .7 11.2c0 2.6.8 3.7 1.9 4.1a3 3 0 0 0 3.9-2.7l1.1-14.4s-5.5-17.4-6.1-18.5Z"/><path fill="#ff9a6c" d="M224.8 216.7a18.3 18.3 0 0 1 4.5 1 104.3 104.3 0 0 1 10.4 3.5l10.2 4.3a26 26 0 0 1 4.2 1.9 19.8 19.8 0 0 1-4.4-1.3l-10.3-4-10.3-3.9a28.8 28.8 0 0 1-4.3-1.5Z"/></svg>