<svg xmlns="http://www.w3.org/2000/svg" viewBox="0 0 500 500"><path fill="#e0e0e0" d="M336.3 58.2h103.8v108.2H336.3z"/><path fill="#fafafa" d="M329.2 58.2H433v108.2H329.2z"/><path d="M433 166.4H329.3V58.2h103.9Zm-103.7 0H433V58.2H329.3Z" fill="#e0e0e0"/><path fill="#fff" d="M343.2 72.8h75.9v79.1h-75.9z"/><path d="M343.2 152.4a12.4 12.4 0 0 1-1.9 2.2 224.7 224.7 0 0 1-9.8 9.6 11.9 11.9 0 0 1-2.2 1.8 12 12 0 0 1 2-2.1 221.8 221.8 0 0 1 9.7-9.7 11.9 11.9 0 0 1 2.2-1.8ZM419 152.2a12.8 12.8 0 0 1 2.3 1.9 221.2 221.2 0 0 1 9.6 9.8 12 12 0 0 1 1.8 2.2 11.7 11.7 0 0 1-2.2-1.9 246.8 246.8 0 0 1-9.6-9.8 12 12 0 0 1-1.8-2.2ZM418.9 73a12 12 0 0 1 1.8-2.2 250.5 250.5 0 0 1 9.9-9.6 11.3 11.3 0 0 1 2.2-1.8 12.3 12.3 0 0 1-1.9 2.1 225.4 225.4 0 0 1-9.8 9.7 12 12 0 0 1-2.2 1.8ZM343 73.2a12.2 12.2 0 0 1-2.2-2 224.7 224.7 0 0 1-9.6-9.7 12.4 12.4 0 0 1-1.8-2.2 12.2 12.2 0 0 1 2.1 1.9 251.1 251.1 0 0 1 9.7 9.8 11.9 11.9 0 0 1 1.8 2.2Z" fill="#e0e0e0"/><path d="M418.9 151.9V146l-.1-16.1-.1-57.3.2.3h-75.6l.3-.3v79.1l-.3-.3 54.8.2H419a1.8 1.8 0 0 1-.3 0h-5l-15.4.1-55 .2h-.2V72.3h76.3v.2l-.2 57.5v21.3a2 2 0 0 1-.3.6Z" fill="#e0e0e0"/><path d="M396.8 96.9a28.4 28.4 0 0 0-28.5-3.6s-1.5 18.8-1.4 27 8.3 9.5 8.3 9.5v8.8l20 .8 3-41.6Z" fill="#f5f5f5"/><path d="M375.2 129.6a19 19 0 0 0 10.7-3s-2.5 6-10.7 5.2Z" fill="#e0e0e0"/><path d="M397 106.3c.2 0 5.7-1.7 5.5 4s-5.8 4.2-5.8 4l.4-8Z" fill="#f5f5f5"/><path d="m398.5 112.3.3.1a1 1 0 0 0 .7 0 2.4 2.4 0 0 0 1.2-2 3.2 3.2 0 0 0-.2-1.5 1.1 1.1 0 0 0-.8-.8.5.5 0 0 0-.5.3l-.1.2v-.3a.7.7 0 0 1 .1-.3.8.8 0 0 1 .6-.1 1.4 1.4 0 0 1 1 .9 3.3 3.3 0 0 1 .3 1.5 2.5 2.5 0 0 1-1.5 2.4 1 1 0 0 1-1-.2s-.1-.2 0-.2ZM371 105.9a1.2 1.2 0 0 0 1 1.2 1.1 1.1 0 0 0 1.3-1 1.2 1.2 0 0 0-1.2-1.2 1.1 1.1 0 0 0-1.2 1Z" fill="#e0e0e0"/><path d="M369.8 104.8c.1.2 1-.5 2.3-.5s2.2.7 2.3.5 0-.3-.5-.6a3.1 3.1 0 0 0-1.8-.6 3 3 0 0 0-1.8.6c-.4.3-.6.5-.5.6ZM383.3 106.4a1.2 1.2 0 0 0 1.1 1.2 1.1 1.1 0 0 0 1.2-1 1.2 1.2 0 0 0-1-1.2 1.1 1.1 0 0 0-1.3 1ZM382.2 105c.1.2 1-.5 2.3-.5s2.1.7 2.3.5-.1-.3-.5-.6a3.2 3.2 0 0 0-1.9-.6 3 3 0 0 0-1.8.6c-.4.3-.5.6-.4.6ZM377.6 114.4a8.4 8.4 0 0 0-2-.4c-.4 0-.7 0-.7-.3a1.6 1.6 0 0 1 .2-1l1-2.5a41.8 41.8 0 0 0 2-6.4 42.8 42.8 0 0 0-2.6 6.3l-.9 2.4a1.9 1.9 0 0 0-.1 1.3.8.8 0 0 0 .5.4 2.4 2.4 0 0 0 .5.1 8.5 8.5 0 0 0 2.1 0ZM381.9 100.1c0 .4 1.3.2 2.8.4s2.7.6 2.9.3c0-.2-.1-.5-.6-.8a4.8 4.8 0 0 0-2.2-.8 4.7 4.7 0 0 0-2.2.3c-.5.2-.8.5-.8.6ZM370.3 101.2c.2.3 1 0 2.1 0s2 .2 2.1-.1c.1-.2 0-.5-.4-.7a3 3 0 0 0-1.7-.5 3 3 0 0 0-1.7.6c-.4.2-.5.5-.4.7Z" fill="#e0e0e0"/><path d="M364.3 88.1a3 3 0 0 1 1-2.7 2.1 2.1 0 0 1 2.9.2 2.5 2.5 0 0 1 2.1-3c1.3 0 2.5 1 3.8 1.3a6 6 0 0 0 3.8-.4c1.2-.5 2.3-1.2 3.6-1.6a10.5 10.5 0 0 1 13.4 6.1 4.6 4.6 0 0 1 4.9 1.9 7.6 7.6 0 0 1 1.2 5.3 17.3 17.3 0 0 1-1 3.7v.3c0 4.5-.5 9.8-2.4 9.8-3.4 0-2.6-6.2-2.6-6.2-4.1-1.6-2.6-7.8-3.6-8.7s-3.2-3.1-11.8 1.3a16.6 16.6 0 0 1-10.2 1h-.2a.1.1 0 0 1-.1 0 7.8 7.8 0 0 1-2.2-.8 4.3 4.3 0 0 1-1.8-2 2.4 2.4 0 0 1 .4-2.6 5.3 5.3 0 0 1-1.2-2.9ZM377.6 120.5a4.2 4.2 0 0 0 1.5-.2 2 2 0 0 0 1-1 2.2 2.2 0 0 0 0-1.8 2.6 2.6 0 0 0-.2-.4h-.2l-.4.1-.5.2-1.5.6a5 5 0 0 1-1.5.4 5 5 0 0 1 1.4-.7l1.5-.7.4-.2a4.8 4.8 0 0 1 .5-.2.7.7 0 0 1 .7.2 2.7 2.7 0 0 1 .3.5 2.5 2.5 0 0 1 0 2.2 2.3 2.3 0 0 1-2.6 1.1l-.4-.1ZM406.6 184.1h56.5V243h-56.5z" fill="#e0e0e0"/><path fill="#fafafa" d="M402.7 184.1h56.5V243h-56.5z"/><path d="M459.2 243h-56.5v-58.9h56.5Zm-56.5 0h56.5v-58.9h-56.5Z" fill="#e0e0e0"/><path fill="#fafafa" d="M410.3 192h41.3v43h-41.3z"/><path d="M410.3 235.3a7 7 0 0 1-1 1.2 117.5 117.5 0 0 1-5.3 5.3 6.2 6.2 0 0 1-1.2 1 6.4 6.4 0 0 1 1-1.2 118.4 118.4 0 0 1 5.3-5.3 7.9 7.9 0 0 1 1.2-1ZM451.6 235.2a6.7 6.7 0 0 1 1.2 1 99.6 99.6 0 0 1 5.2 5.4 6.7 6.7 0 0 1 1 1.2 6.2 6.2 0 0 1-1.1-1 118.4 118.4 0 0 1-5.3-5.4 6.6 6.6 0 0 1-1-1.2ZM451.5 192.1a7 7 0 0 1 1-1.1 86.3 86.3 0 0 1 5.3-5.3 6.7 6.7 0 0 1 1.2-1 5.8 5.8 0 0 1-1 1.2 118.4 118.4 0 0 1-5.3 5.2 6.5 6.5 0 0 1-1.2 1ZM410.2 192.2a7 7 0 0 1-1.2-1 143 143 0 0 1-5.2-5.3 6.7 6.7 0 0 1-1-1.2 6.6 6.6 0 0 1 1.1 1 120.9 120.9 0 0 1 5.3 5.4 6.6 6.6 0 0 1 1 1.1Z" fill="#e0e0e0"/><path d="M451.5 235a.8.8 0 0 1 0-.1V192h-41.1l.2-.1v43l-.2-.2 29.8.1H450.8h-10.5l-29.9.1h-.1V191.7H451.8V234.8l-.3.3Z" fill="#e0e0e0"/><path fill="#ebebeb" d="M424.1 206.7h13.8v13.8h-13.8z"/><path fill="#f5f5f5" d="M147.7 342.7h173v79.8h-173z"/><path d="M316.6 418.7H151.7v-71.8h165Zm-163.8-1h162.8v-69.8H152.8ZM320.7 342.7H363v79.8h-42.3z" fill="#e0e0e0"/><path d="M152.2 369h163.9a.2.2 0 0 0 0-.3H152.2a.2.2 0 0 0 0 .4Z" fill="#e0e0e0"/><path d="M234.7 368.9a178 178 0 0 0 0-21.7.2.2 0 0 0-.4 0 180 180 0 0 0 0 21.7.2.2 0 1 0 .4 0ZM278.8 358a2.2 2.2 0 1 1-2.2-2.2 2.2 2.2 0 0 1 2.2 2.2ZM192.8 358a2.2 2.2 0 1 1-2.2-2.2 2.2 2.2 0 0 1 2.2 2.2ZM236.4 382.8a2.2 2.2 0 1 1-2.2-2.3 2.2 2.2 0 0 1 2.2 2.3ZM168.4 422.5l-8.9 50h5l16.5-50h-12.6zM308.5 422.5l7.5 50.1h-5.1L296 422.5h12.5zM341.9 422.5l8.5 50.1h-5l-16-50.1h12.5zM236.3 405.4a2.2 2.2 0 1 1-2.3-2.3 2.2 2.2 0 0 1 2.3 2.3ZM152.2 393.8h163.9a.2.2 0 0 0 0-.4H152.2a.2.2 0 0 0 0 .4ZM268.4 305v10.6l-52.2.3v-10.7z" fill="#e0e0e0"/><path fill="#f5f5f5" d="M274.7 325.8v16.5l-58.2.3-.1-16.5z"/><path d="M263.6 342.3a60.4 60.4 0 0 1-.3-8.2 60.5 60.5 0 0 1 .3-8.3 60.5 60.5 0 0 1 .3 8.3 60.4 60.4 0 0 1-.3 8.2ZM266 342.3a60.4 60.4 0 0 1-.3-8.2 60.5 60.5 0 0 1 .3-8.3 60.5 60.5 0 0 1 .3 8.3 60.4 60.4 0 0 1-.3 8.2ZM225.3 342.3a59.3 59.3 0 0 1-.3-8.2 59.4 59.4 0 0 1 .3-8.3 62.4 62.4 0 0 1 .3 8.3 62.3 62.3 0 0 1-.3 8.2ZM227.7 342.3a62.3 62.3 0 0 1-.2-8.2 62.4 62.4 0 0 1 .2-8.3 59.4 59.4 0 0 1 .3 8.3 59.3 59.3 0 0 1-.3 8.2ZM233 334.3c0-.1 6-.3 13.2-.3s13.2.2 13.2.3-6 .3-13.2.3-13.1-.1-13.1-.3Z" fill="#e0e0e0"/><path fill="#ebebeb" d="m296.6 315.2.1 10.7-71.9.3v-10.7z"/><path d="M286.4 324.5a3.4 3.4 0 1 1 3.4-3.5 3.4 3.4 0 0 1-3.4 3.5ZM277 320v2h-48v-2z" fill="#e0e0e0"/><path d="M468 472.6c0 .2-97.6.3-218 .3s-218-.1-218-.3 97.6-.2 218-.2 218 0 218 .2Z" fill="#263238"/><path d="M405.4 351.6a66.4 66.4 0 0 1 49 34c2-1.5 4-3.1 6.5-3.7s5.5 0 6.7 2.3c2.4 4-2.1 8.3-5 12-10.3 13.4.4 35.3-10 48.6-1.5 1.8-3.3 3.4-4.4 5.5s-1.3 4.9.4 6.5c2 2 5.7 1.4 7.6 3.5 1.5 1.8 2 6.6.3 8.2s-5.5 3.1-7.8 3.7l-84.4.4" fill="#455a64"/><path d="M448 438a2 2 0 0 1-.3.6l-1 1.3a25.6 25.6 0 0 1-1.7 2.1l-2.4 2.6-1.5 1.4-1.7 1.5c-1.1 1-2.4 2-3.8 3a62 62 0 0 1-20.3 9.8c-1.7.4-3.3.9-4.8 1.1l-2.3.4-2 .2-3.5.3a25 25 0 0 1-2.7 0h-1.7a2.2 2.2 0 0 1-.6 0 2.8 2.8 0 0 1 .6 0h1.7c.7 0 1.6 0 2.6-.2s2.3-.2 3.6-.4l2-.3c.7 0 1.4-.2 2.1-.4 1.6-.2 3.1-.7 4.8-1a63.7 63.7 0 0 0 20.2-9.8c1.3-1 2.7-2 3.8-3l1.7-1.4 1.5-1.4 2.5-2.6 1.7-2 1.1-1.2a3.4 3.4 0 0 1 .5-.5ZM449 460.9a26.1 26.1 0 0 1-3.6.1l-8.6.3c-3.4.1-6.4.4-8.6.6a28.7 28.7 0 0 1-3.6.2 3.2 3.2 0 0 1 1-.2 81.6 81.6 0 0 1 11.2-1 130.8 130.8 0 0 1 11.2-.2 3.4 3.4 0 0 1 1 .2ZM428.3 414.6l-4.3-.8a33.3 33.3 0 0 0-4.6-.3 36.4 36.4 0 0 0-5.7.6 37.1 37.1 0 0 0-5.5 1.5 34.3 34.3 0 0 0-4.3 1.9c-2.3 1.2-3.6 2.2-3.7 2.1a5.4 5.4 0 0 1 1-.7 11.7 11.7 0 0 1 1-.8l1.6-1a30.4 30.4 0 0 1 4.2-2 34.3 34.3 0 0 1 5.6-1.6 35.1 35.1 0 0 1 5.8-.5 31 31 0 0 1 4.7.4l1.7.4a12 12 0 0 1 1.4.4 5.4 5.4 0 0 1 1 .4ZM427.3 396.5a9.1 9.1 0 0 1-1.5.5l-1.7.5-2.1.7a45.6 45.6 0 0 0-5.5 2.5 48.5 48.5 0 0 0-6.1 4 47.8 47.8 0 0 0-5.4 5 44.4 44.4 0 0 0-3.7 4.7l-1.3 2-.9 1.4a8.9 8.9 0 0 1-.8 1.3 8 8 0 0 1 .6-1.4l.9-1.5 1.2-2a40.4 40.4 0 0 1 3.7-4.8 44.5 44.5 0 0 1 5.4-5 45 45 0 0 1 6.2-4 38.8 38.8 0 0 1 5.6-2.5l2.2-.7a16.6 16.6 0 0 1 1.7-.4 7.2 7.2 0 0 1 1.4-.3Z" fill="#263238"/><path d="M428.4 455v-.5l.2-1.3a19.1 19.1 0 0 0 .1-2.1v-4.5l-.2-1.7c-.1-1.2-.4-2.5-.7-3.9a44.7 44.7 0 0 0-2.8-8.5 45.4 45.4 0 0 0-4.6-7.7l-2.5-3-1.2-1.2-1.2-1.2a27.9 27.9 0 0 0-2.1-1.8 19.5 19.5 0 0 0-1.7-1.3l-1.1-.7-.4-.3.4.2 1.1.8a18.3 18.3 0 0 1 1.8 1.2 25.3 25.3 0 0 1 2.1 1.8l1.2 1.1 1.3 1.3 2.5 3a44.4 44.4 0 0 1 4.6 7.7 45 45 0 0 1 2.8 8.6l.6 3.8.2 1.8v4.5a16.3 16.3 0 0 1-.2 2l-.2 1.4v.5ZM421.2 462.3a3.7 3.7 0 0 1-2.8-3.5 5.6 5.6 0 0 0 1 2.1 5.8 5.8 0 0 0 1.8 1.4ZM438.8 472.5l.1-1.6a11.8 11.8 0 0 0-.7-3.9 12 12 0 0 0-1.9-3.4c-.6-.8-1.1-1.2-1-1.3a2 2 0 0 1 .3.3 7.6 7.6 0 0 1 .8.9 10.8 10.8 0 0 1 2.6 7.4 7.5 7.5 0 0 1 0 1.2 2 2 0 0 1-.2.4ZM450.2 448.8a1 1 0 0 1-.4 0 4.8 4.8 0 0 1-.8-.4 7.5 7.5 0 0 1-3.9-4.7 6 6 0 0 1-.2-1 1.4 1.4 0 0 1 0-.3s.1.5.4 1.2a8.3 8.3 0 0 0 3.7 4.6l1.2.6ZM448.5 433.1a1.2 1.2 0 0 1 0-.2l-.2-.7a10.9 10.9 0 0 0-.2-1.2l-.5-1.5a22.8 22.8 0 0 0-1.6-3.6 25.5 25.5 0 0 0-2.8-4 25.9 25.9 0 0 0-3.5-3.4 22.1 22.1 0 0 0-3.4-2.1 14.1 14.1 0 0 0-1.4-.7 10.4 10.4 0 0 0-1.1-.4l-.7-.3h-.2a17.6 17.6 0 0 1 3.4 1.2 21.6 21.6 0 0 1 3.5 2.1 22.8 22.8 0 0 1 6.4 7.5 22 22 0 0 1 1.6 3.7 17.3 17.3 0 0 1 .7 3.6ZM420.4 399.4a3.2 3.2 0 0 1 .3.5 10.2 10.2 0 0 1 .6 1.4 14.7 14.7 0 0 1 .1 10.1 10.6 10.6 0 0 1-.6 1.5 3.9 3.9 0 0 1-.3.5s.3-.8.8-2a15.7 15.7 0 0 0 .8-5 15.5 15.5 0 0 0-.9-5c-.4-1.3-.8-2-.8-2ZM437.2 397.5a8.6 8.6 0 0 1 1.5 1.8 11.8 11.8 0 0 1 .7 10.8 8.3 8.3 0 0 1-1.2 2s.5-.7 1-2a12.2 12.2 0 0 0-.7-10.6 22.7 22.7 0 0 0-1.3-2ZM428 358.7l-.3.3-.9.8a16.4 16.4 0 0 0-1.3 1.4 24 24 0 0 0-1.7 2l-1 1.1-.8 1.4a34.4 34.4 0 0 0-1.8 3 36.7 36.7 0 0 0-4.2 15.6 34.4 34.4 0 0 0 0 3.6l.2 1.6.2 1.5a25 25 0 0 0 .5 2.5 16.1 16.1 0 0 0 .4 1.9l.4 1.1v.5-.4l-.4-1.2a13.2 13.2 0 0 1-.6-1.9 24.2 24.2 0 0 1-.5-2.5l-.2-1.5-.1-1.6a32 32 0 0 1 0-3.6 38.6 38.6 0 0 1 1.1-8 39.3 39.3 0 0 1 3-7.7c.6-1 1.2-2.1 1.9-3l.9-1.4.9-1.2a23.3 23.3 0 0 1 1.7-1.9 15.7 15.7 0 0 1 1.4-1.4l.9-.8ZM447 375.9v.1l-.5.4a20.1 20.1 0 0 0-1.5 1.5 23 23 0 0 0-6.1 12.3 19.2 19.2 0 0 0-.3 2v.7a1.1 1.1 0 0 1 0 .2.8.8 0 0 1 0-.2v-.6a16.6 16.6 0 0 1 .2-2.1 22 22 0 0 1 6.1-12.4 18 18 0 0 1 1.6-1.5l.5-.3v-.1ZM455.7 387.9a1.7 1.7 0 0 1 0 .2l-.4.8a13.8 13.8 0 0 0-1 3 25.1 25.1 0 0 0 .6 10.3c1 4 2 7.4 2.5 10a21.2 21.2 0 0 1 .3 4.4 1.3 1.3 0 0 1 0-.3v-.9a30 30 0 0 0-.5-3c-.4-2.7-1.5-6.2-2.5-10.2a24.4 24.4 0 0 1-.5-10.3 12.8 12.8 0 0 1 1-3 9.4 9.4 0 0 1 .5-1ZM404.2 461.7v-.3l.1-1 .3-3.9a69.1 69.1 0 0 0-3.4-25L400 428l-.3-1a3.3 3.3 0 0 1-.2-.3 49.4 49.4 0 0 1 2 4.9 65.7 65.7 0 0 1 3.4 25 51.4 51.4 0 0 1-.6 5.2Z" fill="#fafafa"/><path d="M380.3 271c1 3 4.8 4.3 8.1 4.6s7 .2 9.6 2.2c3.4 2.7 3.9 7.9 7 10.9 3.7 3.6 9.7 3 14.3 5.3a16 16 0 0 1 7.7 9.7 36.5 36.5 0 0 1 1.1 12.7c-.2 5.3-1 11-4.4 15-5.5 6.9-15.8 7-24.6 6.3-8-.8-16.7-2.3-21.3-8.8a29 29 0 0 1-3.8-14.3l-3-32.7" fill="#263238"/><path d="M427 322.3a4.5 4.5 0 0 0 .3-.8 16.8 16.8 0 0 0 .5-2.1 21 21 0 0 0 0-8.1 20.6 20.6 0 0 0-5.7-10.6 21.9 21.9 0 0 0-13.2-6.3c-2.5-.4-5.1-.8-7.1-2.1s-3.2-3.5-4.3-5.4a25.6 25.6 0 0 0-3.8-5.3 21.2 21.2 0 0 0-12-6.2 15.9 15.9 0 0 0-2.3-.2 4.5 4.5 0 0 0-.7 0s1 0 2.9.4a21.6 21.6 0 0 1 7.5 2.8 21 21 0 0 1 4.2 3.5 25.5 25.5 0 0 1 3.7 5.2c1.1 2 2.4 4.2 4.5 5.6s4.8 1.8 7.4 2.2a21.4 21.4 0 0 1 12.8 6.1 20.6 20.6 0 0 1 5.7 10.3 21.9 21.9 0 0 1 .2 8l-.6 3Z" fill="#455a64"/><path d="m303.4 241.8-42 61.7A23.5 23.5 0 0 0 260 328a23.5 23.5 0 0 0 22 12.2l48-2.9 4.4-36-48.2 10.1 18.4-40 3-1.4a7 7 0 0 0 4-4.7l1.4-5.3Z" fill="#ffbe9d"/><path d="M286.2 311.4a17.7 17.7 0 0 1-2.7 3.2 17.2 17.2 0 0 1-3 2.9 17.1 17.1 0 0 1 2.7-3.2 16.6 16.6 0 0 1 3-2.9Z" fill="#eb996e"/><path d="M336.4 300s24.2-7.5 33.5-5.5 34.3 10.7 34.3 10.7c.7.6-9.3 67.8-9.3 67.8l3.1 51.5a296.5 296.5 0 0 0-68.7-25.2l5.5-32.5s-7.3-5.8-7.3-12.6c0-11 2.6-16.9 2.6-16.9Z" fill="#d8b4a1"/><path d="M336.4 300s1-1.2-.4-1.4c-1-.1-2.8 1.3-3.4 2l-.7.6-21.8 5.2s1 33.8-6 35.4l28-.8Z" fill="#d8b4a1"/><path d="M331.3 323a1.8 1.8 0 0 1 .1.4l.1 1.3a28.1 28.1 0 0 1 0 4.7 58.4 58.4 0 0 1-1.2 7c-.6 2.5-1.3 5.3-1.8 8.3a35.7 35.7 0 0 0-.7 8.4 21 21 0 0 0 1.6 6.7 17 17 0 0 0 3.6 5.2s-.2 0-.4-.2a9.3 9.3 0 0 1-1-.9 14.8 14.8 0 0 1-2.5-4 20.4 20.4 0 0 1-1.7-6.7 34 34 0 0 1 .5-8.6l1.9-8.4a67.8 67.8 0 0 0 1.3-6.8 34 34 0 0 0 .2-4.7 16.1 16.1 0 0 1 0-1.7ZM379 369.9l-.2.2a4.3 4.3 0 0 1-.7.7 9 9 0 0 1-3.2 1.8 20.4 20.4 0 0 1-11.8-.2 17.4 17.4 0 0 1-9.4-6.9 11.4 11.4 0 0 1-1.5-3.3 8 8 0 0 1-.2-1v-.3a9 9 0 0 1 .4 1.2 12.6 12.6 0 0 0 1.6 3.2 17.7 17.7 0 0 0 9.3 6.7 21 21 0 0 0 11.5.2 10 10 0 0 0 3.2-1.5 11 11 0 0 1 1-.8Z" fill="#263238"/><path d="M385.2 336.9c-.3 6.4-1.5 15.5-2 22-.2 3.5-.5 7.3-2.8 10s-6 4-9.7 4c-8.7.5-17.7-3.3-26-.6a215.3 215.3 0 0 0 31 11.3c2.3.7 4.8 1.2 6.8.2 2.7-1.3 3.5-4.7 4-7.7.6-3.4-.5-7.2 0-10.6.4-2.1 1.2-8.5 1.2-8.5l-2.5-.5s-.3-6.9 0-12" opacity=".2"/><path d="M408.8 308.2c3.7 3.8 7.5 24.9 9 50-9.8 1.7-20.9.8-32.6-1.7v-34.1s10.3-27.8 23.6-14.2Z" fill="#d8b4a1"/><path d="M417.8 358.1a2.9 2.9 0 0 1-.6.2l-1.8.5a40.5 40.5 0 0 1-6.6.5 125.4 125.4 0 0 1-22-2.2l-1.6-.3h-.3v-.2l.2-21v-8a2.3 2.3 0 0 1 .1-.6 3.9 3.9 0 0 1 0 .6v1.7l.1 6.3v21l-.1-.3 1.6.3a137.5 137.5 0 0 0 22 2.4 45.2 45.2 0 0 0 6.6-.4l2.4-.5ZM332.7 315.6a7.8 7.8 0 0 1-.3-2.4 21.4 21.4 0 0 1 .6-5.8 21.7 21.7 0 0 1 2-5.4 7.5 7.5 0 0 1 1.4-2 28.8 28.8 0 0 0-3.7 15.6ZM331.1 312a5 5 0 0 1-.5-1.6 14 14 0 0 1-.6-4 8.6 8.6 0 0 1 1-3.9 4 4 0 0 1 1-1.3c.2 0-1.4 2.2-1.5 5.2a20.3 20.3 0 0 0 .5 3.9 5.5 5.5 0 0 1 .1 1.6ZM400.7 305a26.3 26.3 0 0 0-12 9.6 7.5 7.5 0 0 1 1-2 20.2 20.2 0 0 1 4-4.1 19.6 19.6 0 0 1 4.8-2.9 7 7 0 0 1 2.2-.7Z" fill="#263238"/><path d="M328 341.3a2 2 0 0 1-2.8-.6 3.5 3.5 0 0 1-.2-3 14.9 14.9 0 0 1 1.5-2.8 23.5 23.5 0 0 0 2-19.4c2.5 3.6 3.2 8.2 2.9 12.6a57.1 57.1 0 0 1-3.1 12.8" opacity=".2"/><path d="m268 422.3-9.3 43.2-53.7-11.3c1.4-5 31.4-9.5 31.4-9.5l4.8-28Z" fill="#d8b4a1"/><path d="m268 422.3-9.3 43.2-53.7-11.3c1.4-5 31.4-9.5 31.4-9.5l4.8-28Z" opacity=".2"/><path d="M253.5 445.8a2.2 2.2 0 0 1 1 2.9 2.1 2.1 0 0 1-2.8 1 2.4 2.4 0 0 1-1-3 2.2 2.2 0 0 1 3-.8M258.8 465.5l.7-4.4-51.8-9.1s-2.6.5-2.7 2.3Z" fill="#fff" opacity=".6"/><path d="M235.6 444.2c-.1.3 1.2.7 2.3 1.8s1.6 2.4 1.8 2.3.2-1.6-1.1-3-3-1.3-3-1ZM229.4 445.4c-.1.2 1 1 1.6 2.2s.7 2.5 1 2.6.7-1.4-.2-3-2.3-2-2.4-1.8ZM224.8 451.5c.2 0 .9-1.2.5-2.8s-1.5-2.4-1.6-2.2.4 1.2.7 2.5.2 2.4.4 2.5ZM237.3 438c.1.3 1.4.2 2.8.6s2.6 1 2.8.9-.8-1.4-2.5-1.8-3.1 0-3 .3ZM240 431.9a5.1 5.1 0 0 0 2.7.5 12.3 12.3 0 0 0 3-.2 12.6 12.6 0 0 0 1.7-.5 3.1 3.1 0 0 0 1-.5 1.2 1.2 0 0 0 .4-1.4 1.4 1.4 0 0 0-1-.8 3.2 3.2 0 0 0-1 0 10 10 0 0 0-1.8.1 9.7 9.7 0 0 0-2.9 1.2c-1.4.8-2 1.7-2 1.8l2.4-1.3a11.1 11.1 0 0 1 2.5-.8 11 11 0 0 1 1.6-.1c.7 0 1.1 0 1.2.3v.3a2.9 2.9 0 0 1-.8.3 13.3 13.3 0 0 1-1.6.5 14.9 14.9 0 0 1-2.8.5 20.4 20.4 0 0 0-2.6 0Z" fill="#263238"/><path d="M240.2 432.3c.1 0 .8-.7 1.3-2.4a9 9 0 0 0-.1-4.8 2.3 2.3 0 0 0-1.4-1.7 1.3 1.3 0 0 0-1.3.5 3.6 3.6 0 0 0-.5.9 6 6 0 0 0-.4 1.8 6.4 6.4 0 0 0 .6 3c.7 1.6 1.8 2.2 1.8 2a19.7 19.7 0 0 1-1.2-2.2 6.3 6.3 0 0 1-.3-2.8 5.8 5.8 0 0 1 .3-1.5c.2-.6.6-1 .8-.9s.6.6.7 1.1a9.6 9.6 0 0 1 .4 1.6 10.2 10.2 0 0 1 0 2.8c-.3 1.6-.8 2.6-.7 2.6Z" fill="#263238"/><path d="m275.1 431-9.2 43.2L212 463c1.4-5 31.4-9.5 31.4-9.5l4.8-28Z" fill="#d8b4a1"/><path d="M260.6 454.6a2.2 2.2 0 0 1 1 2.8 2.2 2.2 0 0 1-2.8 1 2.4 2.4 0 0 1-1-3 2.3 2.3 0 0 1 3-.8M265.9 474.2l.7-4.4-51.8-9.1s-2.6.5-2.7 2.2Z" fill="#fff" opacity=".6"/><path d="M242.7 453c-.1.2 1.2.6 2.3 1.7s1.6 2.4 1.8 2.3.2-1.6-1.1-3-3-1.3-3-1ZM236.5 454c0 .3 1 1 1.6 2.3s.7 2.5 1 2.6.7-1.4-.2-3-2.3-2-2.4-1.8ZM232 460.2c.1 0 .8-1.2.4-2.7s-1.5-2.5-1.6-2.3.4 1.2.7 2.5.2 2.4.4 2.5ZM244.4 446.7c.1.3 1.4.1 2.8.6s2.6 1 2.8.9-.8-1.4-2.5-1.8-3.1 0-3 .3ZM247 440.6a5 5 0 0 0 2.8.5 12.3 12.3 0 0 0 3-.2 13.2 13.2 0 0 0 1.7-.5 3.7 3.7 0 0 0 1-.5 1.2 1.2 0 0 0 .4-1.4 1.5 1.5 0 0 0-1-.8 3.8 3.8 0 0 0-1 0 10.2 10.2 0 0 0-1.8.1 10 10 0 0 0-2.8 1.2c-1.5.9-2.2 1.7-2 1.8s.8-.6 2.3-1.3a11 11 0 0 1 2.7-.8 10.7 10.7 0 0 1 1.6-.2c.6 0 1.1.1 1.2.4l-.1.3a2.8 2.8 0 0 1-.7.3 15.6 15.6 0 0 1-1.6.5 14.6 14.6 0 0 1-2.8.5 20 20 0 0 0-2.8 0Z" fill="#263238"/><path d="M247.3 441c.1 0 .8-.8 1.3-2.5a9.2 9.2 0 0 0 .2-3 8.5 8.5 0 0 0-.3-1.7 2.3 2.3 0 0 0-1.4-1.7 1.3 1.3 0 0 0-1.3.5 3.8 3.8 0 0 0-.5.9 6 6 0 0 0-.4 1.8 6.2 6.2 0 0 0 .6 3c.7 1.6 1.8 2.2 1.8 2a24.7 24.7 0 0 1-1.2-2.2 6.6 6.6 0 0 1-.3-2.7 5.5 5.5 0 0 1 .4-1.6c.2-.5.5-1 .7-.9s.6.6.7 1.1a8.7 8.7 0 0 1 .4 1.6 9.6 9.6 0 0 1 0 2.8c-.3 1.6-.8 2.6-.7 2.6ZM367.7 236.1c4.9 1.7 7 7.5 7.2 12.6s-1.3 10.3-.8 15.4c.3 2.8 1.2 5.7.9 8.5s-2.3 5.8-5.2 6c-2.3 0-4.4-2-5.3-4.2s-1-4.7-1.3-7a28 28 0 0 0-4-10c-1.8-3-4.3-5.8-6.3-8.8a71 71 0 0 1-6.2-13c-1-2.4-1.9-5-1.3-7.4a7.5 7.5 0 0 1 6.3-5.3 12.3 12.3 0 0 1 8.3 2 18.4 18.4 0 0 1 8.1 12" fill="#263238"/><path d="M368.6 279a21.5 21.5 0 0 1 3.7-4.6 13.4 13.4 0 0 1 3.4-3.6c1.4-1 3.9-1.1 4.9.4.8 1.4.3 3.1-.6 4.4a40.8 40.8 0 0 0-2.8 3.7 18.6 18.6 0 0 0-1.3 4.2 6.2 6.2 0 0 1-2.1 3.6c-2 1.4-5 .3-6.2-1.9s-.4-4.2 1-6.3Z" fill="#d8b4a1"/><path d="M374.6 272.1a9.8 9.8 0 0 1 3.2 1 4.9 4.9 0 0 1 1.6 1.7l.5 1-.1-1.1a4.2 4.2 0 0 0-1.7-2 4.8 4.8 0 0 0-2.5-.8c-.7 0-1 .2-1 .3ZM372.6 275h1a5.8 5.8 0 0 1 2 1l2.5 2a5.1 5.1 0 0 0-2.3-2.5 4.4 4.4 0 0 0-2.3-.9c-.6 0-1 .3-1 .4ZM370 277.4c-.1 0 0 .5.4 1.2a5.5 5.5 0 0 0 2.3 1.8 5.6 5.6 0 0 0 2.8.5c.8-.1 1.2-.3 1.2-.4a7.4 7.4 0 0 1-6.8-3ZM367.9 280.9s0 .5.5 1.3a5.5 5.5 0 0 0 6.2 2.4c.9-.3 1.3-.7 1.3-.8a10.6 10.6 0 0 0-1.4.4 6 6 0 0 1-3.2-.3 6.1 6.1 0 0 1-2.6-2l-.8-1ZM343.4 227.8c-4.9-5-10.5-5.4-15.8-4.3s-10.3 4.6-11.5 9.8c-.6 2.6-.2 5.2-.4 7.8-.5 5.2-1.9 9.8-2.4 15-1 9.1 3.8 17.3 9.7 24.3 3.8 4.6 8.6 9.5 14.5 8.8 4-.6 7-3.6 9.8-6.5" fill="#263238"/><path d="m357.8 231.6 1.1 4.5 18.2 68c2 8-3.9 16.5-12.3 18.7-8.6 2.2-13.7-3.4-15.9-11.4-2.3-8.3-5-17-5-17s-11.2 1.2-17.3-12.3a159 159 0 0 1-7.8-27.7 15.4 15.4 0 0 1 12.5-18.3Z" fill="#ffbe9d"/><path d="M331.3 261c-.2-.2-1.5 1-3.5 1.3s-3.5-.4-3.7-.1c-.1 0 .2.5.9.8a5.1 5.1 0 0 0 3 .5 5 5 0 0 0 2.8-1.4c.5-.6.7-1 .5-1.1ZM349.3 256c-.3-.2-1.4 1.2-3.3 1.7s-3.6 0-3.8.2c0 .1.3.5 1 .8a5 5 0 0 0 3 .1 4.8 4.8 0 0 0 2.7-1.6c.5-.6.5-1.1.4-1.2ZM339 271.1a13.8 13.8 0 0 0-3.3.3c-.5.1-1 .2-1.2-.2a2.7 2.7 0 0 1 0-1.5l.4-4.2c.5-5.9.8-10.7.5-10.7s-.8 4.7-1.4 10.6l-.4 4.2a3 3 0 0 0 .3 2 1.3 1.3 0 0 0 1 .5 4.2 4.2 0 0 0 .9-.1 12.5 12.5 0 0 0 3.2-.9Z" fill="#263238"/><path d="M344 294.4a36.9 36.9 0 0 0 17.4-10.2s-1.9 10.9-16.3 13.5Z" fill="#eb996e"/><path d="M349.8 251.5c-.2-.6-2.2 0-4.6 0s-4.3-.3-4.5.3c-.1.2.3.7 1 1a8 8 0 0 0 7-.1c.9-.5 1.3-1 1.1-1.2ZM330.5 252c-.5-.4-2 .5-4 1s-3.7.7-4 1.3c0 .2.3.6 1.2.8a6.7 6.7 0 0 0 3.4-.1 6.5 6.5 0 0 0 3-1.7c.5-.7.6-1.2.4-1.4Z" fill="#263238"/><path d="M369.8 276.6c-5.3-.5-7.8-1.9-10.6-6.3s-4.2-9.6-5.3-14.7c-.7-3-1.3-6-3.3-8.2-2.3-2.7-5.9-3.7-9.1-5s-6.7-3.5-7.2-7c-.7-3.9 2.6-7.4 6-9.3 4.4-2.3 9.8-3.3 14.3-1.2 4.8 2.4 7.3 7.8 9.1 12.9a166.1 166.1 0 0 1 8.7 36.3M352.9 243.4ZM374.9 270.6A10.5 10.5 0 0 0 379 260a19 19 0 0 0-3.5-6.8q-2.8-4-5.9-7.6" fill="#263238"/><path d="M372 274.2a2.4 2.4 0 0 0 .2-.6 16.4 16.4 0 0 0 .5-1.8 27.7 27.7 0 0 0-1.2-16.9 24.2 24.2 0 0 0-7.6-9.9 24 24 0 0 0-5.6-3.2 22.3 22.3 0 0 0-6-1.5c-3.8-.3-7.2 0-10-.5a12.2 12.2 0 0 1-6.2-2.7 11.6 11.6 0 0 1-1.6-1.9 2.3 2.3 0 0 0 .3.6 7.8 7.8 0 0 0 1.2 1.5 12 12 0 0 0 6.2 2.9c3 .6 6.4.3 10.2.6a22 22 0 0 1 5.7 1.5 23.2 23.2 0 0 1 5.5 3.2 24 24 0 0 1 7.4 9.6 27.4 27.4 0 0 1 2.1 9.9 30.3 30.3 0 0 1-.6 6.8l-.6 2.4Z" fill="#455a64"/><path d="M371.7 243.6v-.4a6 6 0 0 0-.4-1.2 8.4 8.4 0 0 0-2.7-3.4 13 13 0 0 0-6-2.4 24.4 24.4 0 0 0-8 .5l-7.7 1.6a20.9 20.9 0 0 1-6.4-.1 11.9 11.9 0 0 1-4-1.5l-1.3-.9c0 .1 0 .2.3.3a6.4 6.4 0 0 0 1 .8 11.2 11.2 0 0 0 4 1.7 19.9 19.9 0 0 0 6.5.2c2.4-.3 5-1 7.7-1.5a24.9 24.9 0 0 1 7.8-.6 12.9 12.9 0 0 1 5.8 2.2 8.7 8.7 0 0 1 2.8 3.2l.6 1.5ZM320.4 226.3a2 2 0 0 0-.1.8 6.5 6.5 0 0 0 .3 2 9.3 9.3 0 0 0 4.6 5.2 15.4 15.4 0 0 0 6.7 1.4 9.7 9.7 0 0 0 2.8-.2 23.3 23.3 0 0 0-2.8-.1 16.8 16.8 0 0 1-6.5-1.6 9.4 9.4 0 0 1-4.4-4.8 13.9 13.9 0 0 1-.6-2.7ZM315.9 236.5s0 .6.4 1.3a5.7 5.7 0 0 0 5.3 2.6c.8 0 1.2-.3 1.2-.4a7 7 0 0 0-1.2 0 6.4 6.4 0 0 1-2.8-.7 6.6 6.6 0 0 1-2.2-1.8l-.7-1Z" fill="#455a64"/><path d="M340.6 276.5c.4 0 0 .8.2 1a1.6 1.6 0 0 0 1 .5c1.5.1 4-1.4 4-3.4a3.1 3.1 0 0 0-3.4-1.1c-2.4.5-4 2.3-1.8 3Z" fill="#eb996e"/><path d="M340.1 278.8c.3 0 1-2 3.3-2.9s4.4.1 4.5-.2c0 0-.4-.5-1.3-.9a5.4 5.4 0 0 0-3.7 0 4.8 4.8 0 0 0-2.6 2.5c-.3.8-.3 1.4-.2 1.5Z" fill="#263238"/><path d="M348.8 258.4c.1.1-.5.8-1.5 1.2s-2 .1-2 0l1.7-.5c1-.3 1.7-.8 1.8-.7ZM329.3 264.2c0 .1-.8.6-2 .5s-1.8-.6-1.8-.7l1.9.2h1.9Z" fill="#eb996e"/><path d="m386.8 356.6-2.8 25a1 1 0 0 1-1.3.9L325 367l-10.7 17.8 60.5 23.4c10.2 3.4 19.6 4.1 26.7-2 5-4.5 7.4-10.7 8.5-17.6.2-1.7.7-3.4.8-5.1l3.3-24.7c-7.8 1.2-17.6.1-27.4-2.2Z" fill="#ffbe9d"/><path d="M391 395.2s0-.9-.3-2.3a16 16 0 0 0-5.4-9.6c-1.1-1-1.9-1.4-1.9-1.5a6.4 6.4 0 0 1 2.1 1.2 14.5 14.5 0 0 1 3.8 4.4 14.2 14.2 0 0 1 1.8 5.4 6.5 6.5 0 0 1-.1 2.4Z" fill="#eb996e"/><path d="M236.1 423.9c0-1.5 8.4-48.6 10.8-69.3 1-8 7.8-15.5 15.3-18.6a22.5 22.5 0 0 1 28.9 10.6l58.7 125.1h-11.7c-8.8-.5-24.2.5-39.4-30.2l-13-28-16-6-6 24.3Z" fill="#263238"/><path d="m399.9 438.8-1.9-14.3-36.2-15.7-53.7-66.7a27.5 27.5 0 0 0-17.5-11.6l-1.9-.4a27.5 27.5 0 0 0-19 3.1 27.5 27.5 0 0 0-12.6 16L241.2 432 277 438l9.2-47 34.5 59.5c8.9 17 25.8 21.7 31 21.4l19.8.3a29.1 29.1 0 0 0 28.4-33.4Z" fill="#263238"/><path d="M364.3 472.6h-4.8a70.1 70.1 0 0 1-12.9-1.3 38.8 38.8 0 0 1-8.5-2.8 31.5 31.5 0 0 1-8.5-5.8 59.9 59.9 0 0 1-7.1-8.9c-2.3-3.2-4.4-6.7-6.5-10.3-4.3-7.2-8-14.2-11.4-20.6s-6.8-12-9.5-16.7l-6.5-11.1-1.8-3-.5-.8a1.4 1.4 0 0 1-.1-.3s0 0 .2.2l.5.8 1.8 3a944.9 944.9 0 0 1 16.3 27.7c3.5 6.4 7.2 13.4 11.4 20.6 2.1 3.6 4.3 7 6.5 10.3a58.8 58.8 0 0 0 7 8.8 31 31 0 0 0 8.4 5.7 39 39 0 0 0 8.4 2.9 73.8 73.8 0 0 0 12.8 1.4l3.6.2h.9ZM283.3 329.6l-.5.1-1.7.3a25.6 25.6 0 0 0-2.6.5l-1.7.5-1.8.6a29.4 29.4 0 0 0-8.6 5.2 31.4 31.4 0 0 0-4.3 4.6 33 33 0 0 0-3.6 6c-2.1 4.4-2.7 10-3.8 15.6l-3.5 18.3-8 41.9-1.7 8.9-.2-.3 35.7 6-.3.2 11.9-63.2-.2 1.2-.6 3.5-2.2 13-8.4 45.6v.2h-.3l-35.7-6h-.3l.1-.3 1.7-9 8-41.8 3.5-18.3 1.6-8.2a34 34 0 0 1 2.4-7.5 32.7 32.7 0 0 1 3.7-6 32 32 0 0 1 4.4-4.6 29.5 29.5 0 0 1 8.6-5.2l1.9-.6 1.7-.5a24.6 24.6 0 0 1 2.6-.5 18.8 18.8 0 0 1 2.2-.2ZM387.2 449.2a14.3 14.3 0 0 1-.2-1.8 30.9 30.9 0 0 0-.7-4.7 39.6 39.6 0 0 0-6.9-14.2 85.8 85.8 0 0 0-10.8-11.6l-3.6-3.3a10.3 10.3 0 0 1-1.3-1.3 11.3 11.3 0 0 1 1.4 1.1l3.7 3.2a78.5 78.5 0 0 1 11 11.6 38.1 38.1 0 0 1 6.8 14.4 26.6 26.6 0 0 1 .6 4.8 12.9 12.9 0 0 1 0 1.3 1.5 1.5 0 0 1 0 .5Z" fill="#455a64"/><path d="M390.4 440.3s-.5-2-1.7-4.8a26.2 26.2 0 0 0-2.5-4.9 38 38 0 0 0-4.1-5.3 37.5 37.5 0 0 0-5-4.5l-2.5-1.6-2.3-1.2c-2.8-1.4-4.7-2-4.7-2a7 7 0 0 1 1.4.3 13.2 13.2 0 0 1 1.5.5l2 .9 2.3 1.2 2.5 1.6a36.5 36.5 0 0 1 5.2 4.5 35.7 35.7 0 0 1 4.1 5.4l1.4 2.6a24.6 24.6 0 0 1 1 2.4c.4.7.6 1.4.8 2a16 16 0 0 1 .4 1.5 8.3 8.3 0 0 1 .2 1.4Z" fill="#455a64"/><path d="M397 409.3c2.8 1.1 3.4 4.4 2.6 7.2a3.2 3.2 0 0 0-.2 1.6 2.8 2.8 0 0 0 1 1.4 13.6 13.6 0 0 1 2.4 2.7 3.6 3.6 0 0 1 .8 2.4 2.6 2.6 0 0 1-1.8 1.9 6.5 6.5 0 0 1-2.8.2c-6.2-.6-12-3.4-17.6-6.4s-11.5-9.5-20.4-12.5c13.4 1.5 29.4 6.5 36 1.5Z" fill="#d8b4a1"/><path d="M372.7 287.7c1 3 1.6 6.6 0 9.3-1.2 2.2-3.8 3.2-5.6 5.1a8.3 8.3 0 0 0-1.8 8.2c1 3.2 4.1 5.9 3.6 9.2-.4 2.5-2.6 4.1-4.2 6a15.4 15.4 0 0 0-3.5 13.5l12.3 1.8a12.5 12.5 0 0 1 1.6-6.3l2.3 5 3-3c-2-2.2-2.4-5.6-1.7-8.7s2-5.8 3-8.7 1.6-6.2.3-9c-1-2.3-3-4.2-3-6.7.1-1.6 1.1-3 1.9-4.5a13 13 0 0 0-1.2-13" fill="#263238"/><path d="m315.3 235.6-12 6.2 9.8 18.2 8.9-3.8s6.4 1.5 8.1-2.4l-8.1-1.1-6.4 2 7.5-4s9 2 10.8-2.9l-12-1.2s11.7.8 10.8-3.7h-11.5l-11.6 2.4 7.4-5.8s10.4-1 11.8-3.9Z" fill="#ffbe9d"/><path d="m305.4 271 .2-.2.6-.3a11.4 11.4 0 0 0 2.5-1.2 8.2 8.2 0 0 0 2.7-3.5 19.4 19.4 0 0 0 .8-2.7l.8-3.1a.1.1 0 0 1 0-.1l9-3.9a12 12 0 0 0 4.3.2 4.5 4.5 0 0 0 3.6-2.5l.2.3-8.2-1h.1l-6.3 2a.2.2 0 0 1-.2-.5l7.5-4a.3.3 0 0 1 .1 0 32.3 32.3 0 0 0 5.7-.2 13.1 13.1 0 0 0 2.9-.7 3 3 0 0 0 2-1.7l.2.3-12-1.3a.3.3 0 0 1 0-.5 37.7 37.7 0 0 0 4.7-.2 12.7 12.7 0 0 0 4.7-1.2 2.7 2.7 0 0 0 1-.8 1.6 1.6 0 0 0 .1-1.2l.3.2h-11.4l-11.6 2.5a.3.3 0 0 1-.3-.2.2.2 0 0 1 0-.3l7.5-5.8a.2.2 0 0 1 .1 0 49.6 49.6 0 0 0 6.4-1.2 25.4 25.4 0 0 0 3-1 4.8 4.8 0 0 0 2.2-1.6l.2.3h-13.5l-11.9 6h.1l-6.2 9-1.6 2.4-.5.6a1.6 1.6 0 0 1-.1.2 1.5 1.5 0 0 1 .1-.2l.4-.7 1.6-2.4 6-9h.1l11.9-6.1h13.6a.2.2 0 0 1 .2.2 5.2 5.2 0 0 1-2.5 2 23.5 23.5 0 0 1-3 1 50.6 50.6 0 0 1-6.4 1.1l-7.3 5.8-.2-.5 11.6-2.4h11.6a.3.3 0 0 1 .2.2 2.1 2.1 0 0 1-.2 1.5 3.2 3.2 0 0 1-1.2 1 13.4 13.4 0 0 1-4.8 1.3 36.9 36.9 0 0 1-4.8.1v-.5l12 1.3a.3.3 0 0 1 .2.3 2.5 2.5 0 0 1-1 1.3 5.2 5.2 0 0 1-1.3.8 13.5 13.5 0 0 1-3 .7 33.4 33.4 0 0 1-5.8.2h.2l-7.6 4-.2-.4 6.4-2 8.2 1.1a.2.2 0 0 1 .2.2 5 5 0 0 1-4 2.7 12.8 12.8 0 0 1-4.4-.2h.1l-8.9 3.8h.1l-.8 3a18.4 18.4 0 0 1-.8 2.8 8.3 8.3 0 0 1-2.8 3.5 11.4 11.4 0 0 1-2.6 1.2l-.6.2Z" fill="#eb996e"/><path d="M322 246.6a19.3 19.3 0 0 1-4.8 2 40.1 40.1 0 0 1-5 1.5 19 19 0 0 1 4.8-2 40 40 0 0 1 5-1.5Z" fill="#eb996e"/><path fill="#263238" d="M63.1 414.4h69.3v9.5H63.1z"/><path d="M132.5 424H63v-9.7h69.5Zm-69.3-.2h69v-9.2h-69Z" fill="#263238"/><path fill="#263238" d="m69.5 420.8 10 49.2h36.9l9.6-46-56.5-3.2z"/><path fill="#263238" d="m69.5 465.3 5.4 7.3h44.8l6.3-7.3H69.5zM95.1 422.2s-.3-22.8-.3-50.9 0-50.8 0-50.8.4 22.7.5 50.8 0 51-.2 51ZM110.6 365.2a2.4 2.4 0 0 1-.2.5l-.6 1.5-.5 1-.5 1.4-.5 1.4-.5 1.7a68.4 68.4 0 0 0-2 8.5 104.3 104.3 0 0 0-1 10.6 141.9 141.9 0 0 0 .5 19.4l.7 5.8.1 1.6a2 2 0 0 1 0 .6 2.4 2.4 0 0 1-.1-.5l-.3-1.6a109 109 0 0 1-.7-5.9 127 127 0 0 1-.7-19.4 97.1 97.1 0 0 1 1-10.7 65.3 65.3 0 0 1 2-8.5c.3-.5.4-1.1.6-1.6l.6-1.5.5-1.3.5-1 .7-1.5a2.5 2.5 0 0 1 .4-.5Z"/><path d="M108.8 346.8a4.4 4.4 0 0 1-.2.7l-.7 2.1-.6 1.6-.5 1.8-1.3 4.5-.7 2.6-.7 3c-.5 2-.8 4-1.2 6.3a184 184 0 0 0-2.4 42c0 1.7.2 3.2.3 4.6l.2 3.5.2 2.3a7.6 7.6 0 0 1 0 .8 4.3 4.3 0 0 1-.2-.8l-.2-2.2-.4-3.6c-.2-1.4-.2-3-.3-4.6a190 190 0 0 1 2.3-42.1l1.3-6.4.7-2.9.7-2.6c.4-1.7 1-3.2 1.4-4.5l.6-1.8.5-1.6.9-2a4.2 4.2 0 0 1 .3-.7ZM90.8 426.3a1.1 1.1 0 0 1 0-.3l-.1-.8-.2-3-.7-11.1c-.6-9.4-1.5-22.3-3-36.6a450 450 0 0 0-2.8-20l-1.5-8.6-1.5-7.6-1.3-6.1c-.3-1.8-.8-3.4-1.1-4.7l-.8-3-.1-.7a1.4 1.4 0 0 1 0-.3.9.9 0 0 1 0 .3l.3.8.8 2.9L80 332c.5 1.8 1 3.9 1.4 6.2l1.6 7.5c.6 2.7 1 5.6 1.5 8.7 1 6.1 2 12.9 2.8 20a652.3 652.3 0 0 1 3.4 47.7l.1 3v.7a.7.7 0 0 1 0 .4Z" fill="#263238"/><path d="M94.6 331.4c-.3-3.2-3.6-5.7-6.8-5.7s-6.3 2-8.3 4.5a25.8 25.8 0 0 0-4 8.8c-2.1 7.6-3.3 15.6-2.4 23.4s4.1 15.6 9.7 21.2c1 .9 2.2 1.8 3.4 1.5A4 4 0 0 0 88 384a52.5 52.5 0 0 0 17-40c0-3-.5-6-2.1-8.5s-5.5-5.1-8.4-4.1M70.4 305.6l-4.6 8.2c-.1.2-.2.4-.5.4s-.4-.2-.5-.4l-12-18.5 2.7-1.6Z" fill="#d8b4a1"/><path d="m70.4 305.6-4.6 8.2c-.1.2-.2.4-.5.4s-.4-.2-.5-.4l-12-18.5 2.7-1.6Z" opacity=".2"/><path d="m94.9 320.4-41.2-24.2a2 2 0 0 1-1-1c-.2-.7.3-1.3.7-1.7a28.4 28.4 0 0 1 22-8.6 25.1 25.1 0 0 1 19.9 12.3c4 7.1 4.1 16.5-.5 23.3" fill="#d8b4a1"/><path d="M59.6 288.4a2 2 0 0 1 .6 0l1.5-.1a31.1 31.1 0 0 1 5.7.4 33.2 33.2 0 0 1 8.2 2.5A33.4 33.4 0 0 1 94 312.8a32 32 0 0 1 1 5.7v1.5a1.8 1.8 0 0 1 0 .6l-.2-2.1a35.3 35.3 0 0 0-1.2-5.6 34.2 34.2 0 0 0-32-24.4l-2-.1Z" fill="#263238"/><path d="M89.3 303.7a9.7 9.7 0 0 1-2.1 1 81 81 0 0 1-10.5 3.3 10.7 10.7 0 0 1-2.2.4 10.7 10.7 0 0 1 2.1-.8L82 306l5.2-1.7a10.2 10.2 0 0 1 2.2-.6ZM82.8 286.3a17.9 17.9 0 0 1 .5 4.5 17.3 17.3 0 0 1-.3 4.7 29.3 29.3 0 0 1-.2-4.6 28.7 28.7 0 0 1 0-4.6ZM53.3 295.7a18.2 18.2 0 0 1 3-1 118.2 118.2 0 0 1 14.9-3.6 19.4 19.4 0 0 1 3.1-.5 22.8 22.8 0 0 1-3 .8 315.9 315.9 0 0 0-14.9 3.6 21.9 21.9 0 0 1-3 .7Z" fill="#263238"/><path d="M75.9 323.8a16.7 16.7 0 0 0-11.8-3 35.8 35.8 0 0 0-12.8 3.2c-7 3-13.5 7.5-17.6 13.9s-5.6 14.7-2.5 21.6a3.1 3.1 0 0 0 1.4 1.7 3.4 3.4 0 0 0 2.3-.1c8-2.6 15.9-5.2 23.1-9.3s14-9.6 17.8-17a14.5 14.5 0 0 0 1.9-5.6 7 7 0 0 0-1.8-5.5" fill="#d8b4a1"/><path d="M76 323a2.8 2.8 0 0 1-.6.2l-1.7.5-1.2.4-1.4.6-3.4 1.4-1.9.9-2 1-4.4 2.6a76.8 76.8 0 0 0-9.4 6.9 75.6 75.6 0 0 0-8 8.3c-1.2 1.5-2.3 2.8-3.1 4.1-.5.7-1 1.3-1.3 2l-1.2 1.7-1.8 3.2-.7 1.3-.5 1.1-.8 1.6a2.8 2.8 0 0 1-.3.6 3.5 3.5 0 0 1 .2-.6l.7-1.6.5-1.2.7-1.3c.5-1 1-2.1 1.8-3.3l1-1.8 1.3-2 3-4a73.7 73.7 0 0 1 8.1-8.5 74.6 74.6 0 0 1 9.5-7c1.5-1 3-1.8 4.4-2.5l2.1-1 2-.8a32.1 32.1 0 0 1 4.9-1.9l1.2-.4 1.7-.4a2.4 2.4 0 0 1 .5-.2ZM48.3 338a84 84 0 0 1-8.6 2.7 84 84 0 0 1-8.8 2.3 82.2 82.2 0 0 1 8.6-2.8 84.7 84.7 0 0 1 8.8-2.3Z" fill="#263238"/><path d="M48 357a13.8 13.8 0 0 1-.3-2.8v-6.4c0-2.5.2-4.9.4-6.5a14.8 14.8 0 0 1 .3-2.7 15.2 15.2 0 0 1 0 2.7l-.2 6.5-.1 6.4a14.8 14.8 0 0 1-.2 2.7ZM64.2 348.6c-.1 0-.6-4.6-1-10.4s-.6-10.4-.5-10.4.6 4.6 1 10.4.6 10.4.5 10.4Z" fill="#263238"/><path d="M44 327.3a15 15 0 0 1 2.7 0h6.6c2.6 0 5 .3 6.7.4a14.8 14.8 0 0 1 2.7.2 15.6 15.6 0 0 1-2.7.1l-6.7-.1-6.6-.3a16.7 16.7 0 0 1-2.8-.3ZM84.6 385.8a2 2 0 0 1 0-.6v-1.6c-.1-1.4-.2-3.4 0-6l.4-8.8a125 125 0 0 1 8.5-35.3l.6-1.5a2.2 2.2 0 0 1 .2-.5 2.3 2.3 0 0 1-.1.6l-.6 1.5a154.2 154.2 0 0 0-8.1 35.3 133 133 0 0 0-.8 14.7v1.6a2.2 2.2 0 0 1 0 .6Z" fill="#263238"/><path d="M86.8 357.7a11.2 11.2 0 0 1-1.6 1.8 94.5 94.5 0 0 1-8.9 7.8 11.1 11.1 0 0 1-2 1.3 13.3 13.3 0 0 1 1.8-1.6l4.4-3.9 4.4-3.8a12 12 0 0 1 2-1.6ZM99.8 368.2a20.3 20.3 0 0 1-1.7-2.4l-4.1-6-4.1-5.8a18.4 18.4 0 0 1-1.7-2.5 16 16 0 0 1 2 2.3l4.2 5.8 4 6a15.8 15.8 0 0 1 1.4 2.6ZM93 335.2l-9.7 6.5c-5.4 3.5-9.8 6.2-10 6.1s4.4-3 9.8-6.5 9.8-6.2 9.9-6.1ZM105.2 348.4a83.8 83.8 0 0 1-6.5-6 79.9 79.9 0 0 1-6.2-6.5A78.6 78.6 0 0 1 99 342a78.6 78.6 0 0 1 6.2 6.4Z" fill="#263238"/><path d="m108.3 348.1 3.7-.3a18.4 18.4 0 0 0 7.5-2.3 30.8 30.8 0 0 1 3.5-1.8c4.6-1.8 9.7-1.5 14.7-1.7a60.8 60.8 0 0 0 23.3-6 2.2 2.2 0 0 0 1-1c.8-1.3-.7-2.6-1.9-3.3-6.2-3.9-12.6-7.8-19.7-9.7s-15.2-1.6-21.2 2.6c-7.1 4.9-9.7 15-11 23.5" fill="#d8b4a1"/><path d="M162.1 334.6a3.2 3.2 0 0 1-.6-.3l-1.8-.9c-1.5-.8-3.7-2-6.5-3.3a61.8 61.8 0 0 0-10-3.9 33.2 33.2 0 0 0-13-1 22.3 22.3 0 0 0-12 5.1 26.6 26.6 0 0 0-6.2 8.7 71 71 0 0 0-2.7 6.8 97 97 0 0 0-.6 1.8 4.5 4.5 0 0 1-.3.7 3.5 3.5 0 0 1 .1-.7l.6-1.9a61.2 61.2 0 0 1 2.6-6.9 26.3 26.3 0 0 1 6.2-8.8 22.5 22.5 0 0 1 12.1-5.3 33.2 33.2 0 0 1 13.2 1 59.6 59.6 0 0 1 10.1 4l6.5 3.5 1.7 1a4.5 4.5 0 0 1 .6.4Z" fill="#263238"/><path d="M153.2 339.4c0 .1-5-3-10.9-7s-10.6-7.3-10.6-7.4 5 3 11 7 10.6 7.3 10.5 7.4ZM148.5 324.5a11.4 11.4 0 0 1-3.8.8 11.2 11.2 0 0 1-3.8 0 22 22 0 0 1 3.8-.5 22.5 22.5 0 0 1 3.8-.3ZM126.7 320.6a13.4 13.4 0 0 1-1.6 3.2 13 13 0 0 1-2 3 13 13 0 0 1 1.6-3.3 12.7 12.7 0 0 1 2-2.9ZM131 342.3a12.4 12.4 0 0 1-2.3-1.3 82.5 82.5 0 0 1-10.4-7.4 15.3 15.3 0 0 1-2-1.8 13.5 13.5 0 0 1 2.2 1.5l5.2 3.8 5.3 3.6a15.4 15.4 0 0 1 2 1.6Z" fill="#263238"/><path d="M113.8 363.9c-3.6-1-7.8 2.5-8.5 6.1s.6 7.3 2.2 10.6a54 54 0 0 0 14.6 19.2c6.4 5 14.3 8.2 22.4 8.2-1.5-7 .4-14.2-.4-21.3a27.7 27.7 0 0 0-24.6-24.3c-2.2-.2-4.8-.6-5.7 1.5" fill="#d8b4a1"/><path d="M144.5 408a3.3 3.3 0 0 1-.5-.2 8.6 8.6 0 0 1-1.3-1 13.9 13.9 0 0 1-3.5-4.6l-1.8-3.6-2-4.2a40.5 40.5 0 0 0-2.3-4.5 35 35 0 0 0-3.2-4.4c-2.4-2.9-5-5.3-7.3-7.7a50.3 50.3 0 0 1-5.5-6.7 24.8 24.8 0 0 1-2.8-5.2 15.9 15.9 0 0 1-.4-1.5 2 2 0 0 1-.1-.5s.2.7.7 2a26.8 26.8 0 0 0 2.9 5 51.9 51.9 0 0 0 5.5 6.6c2.3 2.3 5 4.8 7.4 7.7a34.7 34.7 0 0 1 3.2 4.4 38.9 38.9 0 0 1 2.4 4.6l1.9 4.2 1.7 3.6a14.3 14.3 0 0 0 3.3 4.7c1 1 1.8 1.3 1.7 1.3Z" fill="#263238"/><path d="M126.2 402.2a11 11 0 0 1 .3-2.4 68.2 68.2 0 0 1 3.2-11.1 11.3 11.3 0 0 1 1-2.2 12.3 12.3 0 0 1-.7 2.3l-1.6 5.5-1.5 5.6a12.8 12.8 0 0 1-.7 2.3ZM143.9 385.1a16 16 0 0 1-2.5-.5l-6-1.5-6-1.3a14.3 14.3 0 0 1-2.5-.5 12.3 12.3 0 0 1 2.5.2 72.5 72.5 0 0 1 12.1 2.7 11 11 0 0 1 2.4 1ZM113 390.1a13.9 13.9 0 0 1 .4-2.8 98.5 98.5 0 0 1 3.4-13 14.6 14.6 0 0 1 1-2.6 16.2 16.2 0 0 1-.6 2.7l-1.8 6.5-1.6 6.5a16.3 16.3 0 0 1-.8 2.7ZM135.7 370.3s-4.4-.3-9.8-.9-9.9-1.1-9.9-1.2a97.3 97.3 0 0 1 9.9.8 96.2 96.2 0 0 1 9.8 1.3Z" fill="#263238"/><path d="M132.5 424s-15.6.2-34.7.2-34.8-.1-34.8-.3 15.6-.2 34.8-.2 34.7 0 34.7.2ZM121.7 444s-10.5.2-23.4.2-23.5-.1-23.5-.3 10.5-.2 23.5-.2 23.4.1 23.4.2ZM122 446.8c0 .1-10.4.2-23.3.2s-23.4 0-23.4-.2 10.4-.2 23.4-.2 23.4 0 23.4.2ZM122 441.6c0 .1-10.8.2-24.1.2s-24.3 0-24.3-.2 10.9-.3 24.3-.3 24.2.1 24.2.3Z" fill="#455a64"/><path d="M184.3 289.7c-58.4-11-117.4-42.1-147.8-93.2a102.8 102.8 0 0 1-13.8-64.8c4-25.3 29.8-50.6 58-56.7 25-5.3 54 11.2 65 34.4l-.3 34.3 25 12.8-4.9 33.7 35.6 22Z" fill="#d8b4a1"/><path d="M184.3 289.7c-58.4-11-117.4-42.1-147.8-93.2a102.8 102.8 0 0 1-13.8-64.8c4-25.3 29.8-50.6 58-56.7 25-5.3 54 11.2 65 34.4l-.3 34.3 25 12.8-4.9 33.7 35.6 22Z" fill="#fff" opacity=".7"/><path d="m88.7 149 22.6 58 30.8-5.6c-.9-3.5-6.7-22.5-6.7-22.5s11.8-5.6 8.3-18c-1.7-6-6.2-18.2-10.4-29.1a23.9 23.9 0 0 0-30.4-14A23.9 23.9 0 0 0 88.7 149Z" fill="#b78876"/><path d="M135.3 178.7a30 30 0 0 1-17.5.1s6.5 7.8 18.5 3.1Z" fill="#a36957"/><path d="M132.7 140.9a1.9 1.9 0 0 1-1.2 2.3 1.8 1.8 0 0 1-2.3-1.1 1.9 1.9 0 0 1 1.2-2.3 1.8 1.8 0 0 1 2.3 1ZM132.5 138.8c-.2.2-1.8-.3-3.7.2s-3 2-3.3 1.8c-.1-.1 0-.6.4-1.2a5 5 0 0 1 2.6-1.7 4.9 4.9 0 0 1 3 0c.7.4 1 .7 1 .9ZM114.2 146.8a1.8 1.8 0 0 1-1.2 2.3 1.8 1.8 0 0 1-2.3-1.1 1.8 1.8 0 0 1 1.2-2.3 1.8 1.8 0 0 1 2.3 1ZM113.9 144.6c-.2.3-1.8-.3-3.7.3s-3 1.9-3.3 1.7 0-.5.4-1.1a5 5 0 0 1 2.6-1.7 4.8 4.8 0 0 1 3 0c.7.3 1.1.7 1 .8ZM125 156.7a12.8 12.8 0 0 1 2.9-1.5c.4-.2.9-.4.8-.7a2.5 2.5 0 0 0-.7-1.4l-2.5-3.3c-3.6-4.7-6.3-8.6-6.1-8.7s3.2 3.5 6.8 8.2l2.4 3.3a2.9 2.9 0 0 1 .8 1.9 1.2 1.2 0 0 1-.5 1 3 3 0 0 1-.8.3 13.5 13.5 0 0 1-3.2.9ZM119.7 159.7c.3-.1 1 2 3.1 2.9s4.4 0 4.5.3c0 .1-.4.6-1.3.9a5.4 5.4 0 0 1-3.7-.2 4.7 4.7 0 0 1-2.5-2.5c-.3-.8-.2-1.4 0-1.4ZM112.2 137c0 .6-2 .9-4.2 1.8s-3.8 2-4.2 1.7c-.2-.2 0-.8.6-1.5a7.7 7.7 0 0 1 2.8-2 7.4 7.4 0 0 1 3.5-.6c1 0 1.5.3 1.5.6ZM130.2 133.5c-.2.5-1.7.4-3.3.9s-2.8 1.1-3.2.7c-.2-.1-.2-.6.3-1.2a4.5 4.5 0 0 1 2.4-1.5 4.6 4.6 0 0 1 2.8.1c.7.3 1 .7 1 1ZM98.2 131.4v.1a10.2 10.2 0 0 0-1.8 7.4v.2c.5 3.7 1.7 7.3 2.2 11s.3 7.6-1.6 10.8c-.7 1.3-2.4 2.5-3.7 1.6a3.2 3.2 0 0 1-.9-1.5c-3.1-8.3-7.7-15.2-10.3-24a7.8 7.8 0 0 1 1.3-7c1.5-2 3.4-4 5.7-3.7s6.2 3.5 8.3 4.7" fill="#263238"/><path d="M94.5 153.4c-.2 0-9.2 0-6.4 8.3s10.6 4 10.5 3.7l-4-12Z" fill="#b78876"/><path d="m95 163-.3.3a1.6 1.6 0 0 1-1.1.4c-1 0-2.2-1.2-2.7-2.7a5.2 5.2 0 0 1-.3-2.2 1.8 1.8 0 0 1 .7-1.5.8.8 0 0 1 1 .1l.2.4s.2-.2 0-.5a1 1 0 0 0-.5-.4 1.1 1.1 0 0 0-.9 0 2.2 2.2 0 0 0-1 1.8 5.4 5.4 0 0 0 .2 2.6c.6 1.6 2 3 3.3 2.9a1.6 1.6 0 0 0 1.3-.7l.1-.5Z" fill="#a36957"/><path d="M89.3 127.7c-3.1-2.8 1.2-9.3 5-11.9s9.9-2 14.4-2c2.9.1 5.9.6 8.6-.3a19.6 19.6 0 0 0 5-3 14.1 14.1 0 0 1 5.1-2.7 5.3 5.3 0 0 1 5.3 1.6c1.2 1.5.9 4.1-.9 5a4.3 4.3 0 1 1 3.4 7.3c1-1.2 3.2-.3 3.5 1.3s-.7 3-2 4c-3 2.6-7.3 3.3-11.3 3.1s-8-1-12-1.3-10.8-.8-14 1.5c-2.4 1.7-3.3 5.5-5 5.2a5.4 5.4 0 0 1-3.8-3 15.6 15.6 0 0 1-1.2-4.8" fill="#263238"/><path d="M132.7 113.8s-.2.8-.8 2a12.3 12.3 0 0 1-3.9 4.4 11.2 11.2 0 0 1-8.1 2c-3.3-.4-6.5-2.3-10-3.9s-7.5-2.4-10.9-1.8a10.2 10.2 0 0 0-7.3 5.2 7.7 7.7 0 0 0-.3 6 5.6 5.6 0 0 0 .8 1.5l.5.4a13.8 13.8 0 0 1-1-2 7.6 7.6 0 0 1 .6-5.7 9.7 9.7 0 0 1 6.9-4.6c3.2-.6 6.8.2 10.3 1.7s6.8 3.5 10.3 4a11.6 11.6 0 0 0 8.6-2.4 11.8 11.8 0 0 0 3.8-4.8 7.8 7.8 0 0 0 .5-1.5v-.5ZM92.3 153.6s.3-.3.4-1a6 6 0 0 0-.5-3.3c-1-2.7-4.2-4.9-5.6-8.6a8.9 8.9 0 0 1-.6-5.3 6.7 6.7 0 0 1 2.4-3.6 5.8 5.8 0 0 1 2.7-1.2c.7-.1 1 0 1.1-.2a2 2 0 0 0-1.2-.2 5.5 5.5 0 0 0-3 1 7.1 7.1 0 0 0-2.8 4 9.3 9.3 0 0 0 .6 5.9 16.1 16.1 0 0 0 3.2 4.8 16.8 16.8 0 0 1 2.7 3.7 6.9 6.9 0 0 1 .6 4Z" fill="#455a64"/><path d="M189.8 264.3 177 227l-39.8-32.5-38 1.1s-8.2 5-9.4 17c-1.4 14 9.6 34.5 9.6 34.5l8.9 15.7s42 23.4 76 26.8Z" fill="#d8b4a1"/><path fill="#d8b4a1" d="m148.1 202.3 31.2 17.5-12.2 39.6-27.7-7.8-23.5-35.7 32.2-13.6z"/><path d="M107.2 227.4a8 8 0 0 1-1.9 1.2 35.8 35.8 0 0 1-5 2.1 34.8 34.8 0 0 1-5.2 1.4 8.4 8.4 0 0 1-2.2.2c0-.2 3.3-.7 7.3-2s7-3 7-3ZM143.1 214.2c.1 0-4.1 6.8-9.5 15s-9.8 14.8-10 14.7 4.1-6.8 9.5-15 9.9-14.8 10-14.7ZM169.7 214s-3.3 9.7-7.7 21.4-8 21.3-8 21.3 3.2-9.7 7.6-21.4 8-21.3 8-21.3ZM117.4 206.8a11 11 0 0 1-1.2 2.2 113.5 113.5 0 0 1-6.5 10.5 12.5 12.5 0 0 1-1.6 2 12.5 12.5 0 0 1 1.3-2.2l3.3-5.2 3.2-5.3a13.2 13.2 0 0 1 1.5-2ZM102 211c0 .2-2.6 0-5.8.3s-5.7 1.3-5.7 1.2a14.7 14.7 0 0 1 5.6-1.7 14.9 14.9 0 0 1 5.9.2ZM125.7 246.3l-.7.6-2 1.3a59 59 0 0 1-7.2 3.6 59.8 59.8 0 0 1-7.5 2.6l-2.3.6a3 3 0 0 1-1 .1 26.8 26.8 0 0 1 3.2-1 92 92 0 0 0 14.6-6.2 30.1 30.1 0 0 1 2.9-1.6ZM144.7 255.2a18.7 18.7 0 0 1-1.1 3 121.6 121.6 0 0 1-7 14.1 18.8 18.8 0 0 1-1.7 2.8 21 21 0 0 1 1.4-3l3.5-7 3.4-7a21 21 0 0 1 1.5-3ZM178.9 259.6a5.2 5.2 0 0 1-.4 1.1l-1.2 2.8-4 9.3-3.8 9.4-1.1 2.8a5.2 5.2 0 0 1-.5 1 4.3 4.3 0 0 1 .3-1.1 245.9 245.9 0 0 1 4.7-12.3 245.8 245.8 0 0 1 5.4-12 4.1 4.1 0 0 1 .6-1Z" fill="#fafafa"/><path d="M179.3 219.8a.9.9 0 0 1 0 .2l-.2.7-.7 2.4-2.7 8.9-9.2 29.9v.2h-.3l-5.2-1.4a163.1 163.1 0 0 1-32.5-12.8 77.5 77.5 0 0 1-9-5.5l-2.2-1.8-.6-.5a1 1 0 0 1-.2-.2 1.2 1.2 0 0 1 .2.2l.6.4 2.4 1.7a87.8 87.8 0 0 0 9 5.4 170.3 170.3 0 0 0 32.4 12.6l5.2 1.3-.3.2 9.4-29.8 2.8-8.9.8-2.4.2-.6a.8.8 0 0 1 0-.2Z" fill="#263238"/><path d="m175.5 196.4-3 2.8c-.3 0 4.4 16.6 11.4 23.7a64 64 0 0 1 8.5 17.1l1.6 5.1 7.1-32.8Z" fill="#d8b4a1"/><path fill="#b78876" d="m168.2 255.6 22 7 7.7-35.5-10.2 3.3-10-5.4-9.5 30.6z"/><path d="m105.9 188.9 43 4 18-12.2-1.4 9.5 20.7 12.8-27.4 11.9a15.8 15.8 0 0 1-11 .7l-52.3-16.3v-.1a19 19 0 0 1 10.4-10.3Z" fill="#ffbe9d"/><path d="M110.3 182.5s1.3-.8.2-3.1-8-5.7-8-5.7l-5.7-3.6-.5.5a1.8 1.8 0 0 0-.5 2l1.5 4-.9 1.2a1.3 1.3 0 0 0-.1 1.2l1.3 3-.1.6a2 2 0 0 0 .7 2.1l2.3 1.6s-.5 1.6-.1 2c.5.6 1.5 2.4 3.1 2.2 1-.1 4.3-.1 6.7-1.8a1.4 1.4 0 0 0-.3-2.5s2.1-2.2.4-3.7Z" fill="#ffbe9d"/><path d="M98.6 176a43.9 43.9 0 0 1 6 3 44 44 0 0 1 5.7 3.5 42.4 42.4 0 0 1-6-3 43 43 0 0 1-5.7-3.4ZM109.2 186.3a22.3 22.3 0 0 1-5.7-1.6 22.6 22.6 0 0 1-5.4-2.6l5.6 2.1 5.5 2ZM109.2 189a9.4 9.4 0 0 1-4.4-.4 9.3 9.3 0 0 1-4-2s1.8.8 4.1 1.5 4.3.7 4.3.8ZM152.2 202.5a10 10 0 0 1-2.6-9.6 23.7 23.7 0 0 0 .5 5 23.7 23.7 0 0 0 2 4.6Z" fill="#eb996e"/><path d="M188.3 214.3a11.8 11.8 0 0 1-3.6-2 12 12 0 0 1-3-2.6 22.3 22.3 0 0 1 3.3 2.3 24 24 0 0 1 3.3 2.3ZM195.4 224.9a22.2 22.2 0 0 1 .8-4.7 21.6 21.6 0 0 1 1.2-4.6 21.8 21.8 0 0 1-.7 4.7 20.6 20.6 0 0 1-1.3 4.6ZM189.6 225.5a9.8 9.8 0 0 1-.5-3.1 9.5 9.5 0 0 1 0-3.2 10.2 10.2 0 0 1 .5 3.1 10 10 0 0 1 0 3.2ZM194 209.7a23.4 23.4 0 0 1-2.6-1 20.8 20.8 0 0 1-2.7-.8 4.9 4.9 0 0 1 2.8.3 5 5 0 0 1 2.5 1.5Z" fill="#fff"/><path d="M166.2 100.3c2-25.6 23.4-51.2 48.7-55 28.6-4.2 61.7 10.4 74.3 32.7a102.6 102.6 0 0 1 9.8 65.5C288.4 202 244 251.8 193.3 282.6l22.3-80-34.6-24.1 8.1-35.5-23.8-12.1Z" fill="#d8b4a1"/><path d="M166.2 100.3c2-25.6 23.4-51.2 48.7-55 28.6-4.2 61.7 10.4 74.3 32.7a102.6 102.6 0 0 1 9.8 65.5C288.4 202 244 251.8 193.3 282.6l22.3-80-34.6-24.1 8.1-35.5-23.8-12.1Z" fill="#fff" opacity=".7"/><path d="M276.8 166.8c-.6-4-2.5-8-5.9-10.3-4-2.8-9.7-3.1-12.7-7-2.5-3.3-2.1-8.3-5-11.2-2.2-2.3-5.7-2.7-8.7-3.5s-7.9-4.7-8.4-7.8l-8.8 11.2-2 31.2c-.3 4.8-.6 9.8 1.5 14 3.4 6.8 11.5 9.6 18.8 11.4 8.2 2 17.9 3.3 24.1-2.3 3.8-3.4 5.3-8.6 6.3-13.5a34.8 34.8 0 0 0 .8-12.2Z" fill="#263238"/><path d="M274 184.2a3.6 3.6 0 0 0 .4-.6 15.6 15.6 0 0 0 .9-2 20 20 0 0 0 1-7.6 20.8 20.8 0 0 0-1-5.3 20 20 0 0 0-2.8-5.5 20.9 20.9 0 0 0-11.5-7.8c-2.3-.7-4.7-1.4-6.4-3a15.1 15.1 0 0 1-3.3-5.7 23.6 23.6 0 0 0-2.8-5.5 19.4 19.4 0 0 0-3.6-4 19.9 19.9 0 0 0-6.8-3.7 14.6 14.6 0 0 0-2.1-.5 3.4 3.4 0 0 0-.7 0l2.7.7a20.7 20.7 0 0 1 6.6 3.8 19.5 19.5 0 0 1 3.5 4 23.8 23.8 0 0 1 2.7 5.4 15.6 15.6 0 0 0 3.4 5.9c1.8 1.6 4.3 2.4 6.7 3a20.4 20.4 0 0 1 11.2 7.7A19.6 19.6 0 0 1 276 174a21 21 0 0 1-1 7.6c-.5 1.7-1 2.6-1 2.6Z" fill="#455a64"/><path d="m207.8 273.2-5.4-23.2 13.2-47.3-27.3-19.1 42.6-39c8.6 1.1 14.7 19 14.7 19l1 15.3-6 38.6 11.4 16.9a260.2 260.2 0 0 1-44.2 38.8" fill="#d8b4a1"/><path d="M233.4 90.2c4.1 2.5 5 8.3 4 13.1s-3.3 9.3-3.8 14.2c-.3 2.7-.1 5.5-1 8s-3.3 5-6 4.5c-2.2-.4-3.7-2.7-4-5s0-4.4.1-6.7a26.4 26.4 0 0 0-1.6-10.1c-1.1-3.3-2.8-6.3-4-9.5a67.1 67.1 0 0 1-3.1-13.3c-.4-2.4-.8-5 .3-7.2a7.2 7.2 0 0 1 7-3.6 11.8 11.8 0 0 1 7.2 3.6 17.5 17.5 0 0 1 5.1 12.8" fill="#263238"/><path d="M225.3 130.2a20.6 20.6 0 0 1 4.5-3.5 12.9 12.9 0 0 1 3.8-2.6c1.6-.7 3.9-.3 4.5 1.4.5 1.4-.3 3-1.4 4a36.3 36.3 0 0 0-3.4 2.8 17.4 17.4 0 0 0-2 3.6 6 6 0 0 1-2.8 3c-2.1.9-4.7-.8-5.4-3s.6-4.1 2.2-5.8Z" fill="#d8b4a1"/><path d="M232.3 125a9.5 9.5 0 0 1 2.8 1.7 4.5 4.5 0 0 1 1.2 1.8l.2 1s.2-.4.1-1a4 4 0 0 0-1.1-2.2 4.6 4.6 0 0 0-2.2-1.2h-1ZM229.9 127.3l.9.2a5.5 5.5 0 0 1 1.7 1.3c1.2 1.2 1.8 2.5 2 2.4a4.8 4.8 0 0 0-1.6-2.8 4.1 4.1 0 0 0-2-1.3c-.7-.1-1 .1-1 .2ZM226.9 129l.2 1.2a5.4 5.4 0 0 0 1.7 2.2 5.3 5.3 0 0 0 2.6 1l1.2-.1a9.6 9.6 0 0 1-3.4-1.4 10 10 0 0 1-2.3-2.8ZM224.3 131.8a2.3 2.3 0 0 0 .2 1.4 5.3 5.3 0 0 0 2 2.6 5.2 5.2 0 0 0 3.3.8 2.3 2.3 0 0 0 1.3-.4h-1.3a5.8 5.8 0 0 1-3-.9 5.8 5.8 0 0 1-2-2.3l-.5-1.2ZM212.4 77.4c-3.5-5.7-8.6-7.1-13.7-7.3S188.2 72.3 186 77c-1.1 2.3-1.3 4.8-2 7.2-1.5 4.7-5.2 8.5-6.7 13.2-2.8 8.3 1.3 17.1 5.4 24.9 2.6 5 6 10.5 11.7 11 3.8.4 7.3-1.9 10.5-4" fill="#263238"/><path d="m225 83.9.2 4.4 2.9 67c.3 7.8-7 14.6-15.3 14.9-8.4.2-12-6-12.4-13.8l-1.1-17s-10.7-1.1-13.6-14.9c-1.5-6.8-1.7-18.1-1.6-27.4a14.6 14.6 0 0 1 15.4-14.4Z" fill="#ffbe9d"/><path d="M186.7 107c.2.2 1.5-1 3.4-1s3.4.8 3.6.5-.2-.5-.8-.9a5 5 0 0 0-2.9-.7 4.7 4.7 0 0 0-2.7 1c-.6.5-.8 1-.6 1ZM205 106.2c.3.2 1.6-.9 3.5-1s3.4.8 3.6.6-.2-.5-.8-1a4.8 4.8 0 0 0-2.9-.7 4.8 4.8 0 0 0-2.7 1c-.6.6-.8 1-.6 1ZM199.4 116.8a12.8 12.8 0 0 0-3-.4c-.6 0-1 0-1.2-.4a2.6 2.6 0 0 1 .3-1.5l1.3-3.8c1.7-5.4 3-9.8 2.7-9.9s-1.8 4.3-3.5 9.7l-1.2 3.8a2.8 2.8 0 0 0-.2 2 1.2 1.2 0 0 0 .9.6 3.2 3.2 0 0 0 .8 0 12.5 12.5 0 0 0 3.1 0Z" fill="#263238"/><path d="M199.3 139.5a35.2 35.2 0 0 0 18.3-6s-4 9.8-18 9.2ZM200.5 121.4a3.5 3.5 0 0 1 3-1.5 3.2 3.2 0 0 1 2.2 1 2 2 0 0 1 .3 2.3 2.3 2.3 0 0 1-2.5.8 7.5 7.5 0 0 1-2.5-1.4 2.1 2.1 0 0 1-.6-.5.6.6 0 0 1 0-.7" fill="#eb996e"/><path d="M205.1 117.8c-.3 0-.2 2.1-1.9 3.7s-3.9 1.4-3.9 1.7c0 .1.5.4 1.4.4a5.2 5.2 0 0 0 3.3-1.4 4.4 4.4 0 0 0 1.5-3c0-.9-.2-1.4-.4-1.4ZM204.9 96.7c.2.5 2.1.2 4.4.4s4 .6 4.3.1c.2-.2-.2-.7-1-1.1a7.7 7.7 0 0 0-6.6-.4c-.8.4-1.2.8-1.1 1ZM186.7 99c.4.4 2-.1 4-.2s3.5 0 3.8-.4c.2-.2 0-.7-.8-1a6.4 6.4 0 0 0-3.3-.5 6.2 6.2 0 0 0-3 1c-.7.5-1 1-.7 1.1Z" fill="#263238"/><path d="M227 128.3c-4.8-1.6-7-3.4-8.6-8.1s-2-9.8-1.9-14.8c0-2.8 0-5.8-1.3-8.3-1.6-3-4.8-4.6-7.5-6.5s-5.5-4.6-5.3-8c.2-3.7 4-6.3 7.6-7.4 4.5-1.3 9.7-1 13.4 1.8 4 3.2 5.3 8.8 6 13.9a158 158 0 0 1 .5 35.6" fill="#263238"/><path d="M218 94c0-3-.2-5.4-.2-5.4v5.3c0 3 .1 5.4.2 5.4s.1-2.4 0-5.4ZM233 123.7a10 10 0 0 0 6-8.9 17.8 17.8 0 0 0-1.8-7q-1.8-4.3-4-8.3M183.5 121.1l-1.6-.8a15.5 15.5 0 0 1-4-3 14.7 14.7 0 0 1-3.6-6.1 15 15 0 0 1 .1-8.8 27.4 27.4 0 0 1 4.4-7.7 69.5 69.5 0 0 0 4.3-6 16.6 16.6 0 0 0 2-4.5 9.1 9.1 0 0 0 .3-1.4 1.4 1.4 0 0 0 0-.5 19.7 19.7 0 0 1-2.6 6.2c-1 1.8-2.7 3.7-4.4 6a27 27 0 0 0-4.5 7.8 15.4 15.4 0 0 0 0 9 14.8 14.8 0 0 0 3.8 6.3 14.6 14.6 0 0 0 4.1 2.9 9.4 9.4 0 0 0 1.3.5 1.5 1.5 0 0 0 .4.1Z" fill="#263238"/><path d="M229.4 126.4a3.4 3.4 0 0 0 .4-.5l.8-1.5a26.8 26.8 0 0 0 2.2-6.2 25.7 25.7 0 0 0 .2-9.8 23.1 23.1 0 0 0-5-10.7 22.5 22.5 0 0 0-4.6-4.2 21 21 0 0 0-5.2-2.6c-3.5-1.1-6.8-1.5-9.3-2.5a11.7 11.7 0 0 1-5.2-3.8 11.1 11.1 0 0 1-1-2.1 2.4 2.4 0 0 0 0 .6 8.4 8.4 0 0 0 .9 1.6 11.5 11.5 0 0 0 5.1 4c2.6 1.1 6 1.6 9.4 2.7a20.7 20.7 0 0 1 5 2.5 22.6 22.6 0 0 1 4.4 4.1 22.9 22.9 0 0 1 5 10.5 26 26 0 0 1-.1 9.6 29 29 0 0 1-2 6.2l-1 2.1Z" fill="#455a64"/><path d="M235.5 98v-.5a5.7 5.7 0 0 0 0-1.1 8 8 0 0 0-1.9-3.7 12.3 12.3 0 0 0-5.1-3.5A23.4 23.4 0 0 0 221 88c-2.7 0-5.2 0-7.5-.2a19.8 19.8 0 0 1-5.9-1.3 11.6 11.6 0 0 1-3.4-2.2l-1-1.1a1.4 1.4 0 0 0 .1.3 7.7 7.7 0 0 0 .7 1 11 11 0 0 0 3.5 2.3 19.5 19.5 0 0 0 6 1.5c2.3.3 4.8.2 7.5.2a23.7 23.7 0 0 1 7.3 1.1 12.1 12.1 0 0 1 5 3.3 8.1 8.1 0 0 1 2 3.5l.2 1.5ZM191.3 71.3l-.2.7a5.8 5.8 0 0 0-.1 2 8.8 8.8 0 0 0 3.2 5.7 14.7 14.7 0 0 0 6 2.7 9.8 9.8 0 0 0 2.6.4 22.4 22.4 0 0 0-2.6-.7 16.1 16.1 0 0 1-5.7-2.8 9 9 0 0 1-3.2-5.3 12.9 12.9 0 0 1 0-2.7ZM185 79.9l.2 1.2a5.3 5.3 0 0 0 1.7 2.4 5.3 5.3 0 0 0 2.7 1.2l1.2-.1-1.1-.3a6.3 6.3 0 0 1-2.5-1.2 6.2 6.2 0 0 1-1.6-2.1l-.5-1.1Z" fill="#455a64"/><path fill="#b78876" d="m241.9 208.4-30.7 10.2-8.5 30.4 42.3-24.8-3.1-15.8z"/><path fill="#ffbe9d" d="m183.5 167.6 19-11.1 14.6 28.9-17.1 6.4-19-13.3 2.5-10.9z"/><path d="M190.6 160.6 218 144s11-3.3 17.8 3.6.4 23.3.4 23.3l-24.4 19.3s-20.1-16-21-29.7Z" fill="#d8b4a1"/><path d="M236.1 173.4a3.4 3.4 0 0 1-.4.4l-1.4 1-5.2 3.6-17.2 12.1-.2.1h-.1l-2.8-2.1a57.6 57.6 0 0 1-9-9.2 59.4 59.4 0 0 1-5.8-8.8 56.9 56.9 0 0 1-3-6.5l-.6-1.8a4.6 4.6 0 0 1-.1-.6 3 3 0 0 1 .2.6l.8 1.8a65.2 65.2 0 0 0 3 6.3 60.7 60.7 0 0 0 5.8 8.7 58.5 58.5 0 0 0 9 9l2.7 2h-.3l17.5-11.8 5.2-3.5 1.4-1a3 3 0 0 1 .5-.3Z" fill="#263238"/><path fill="#b78876" d="m245 224.2 4.3-12.3-.2-9.7-5.7-3.1-1.5 9.3 3.1 15.8z"/><path d="M214 265.4a9.4 9.4 0 0 1-2.3-1 9.3 9.3 0 0 1-2.2-1 4.5 4.5 0 0 1 2.4.6c1.3.6 2.1 1.3 2 1.4Z" fill="#d8b4a1"/><path d="M217 154.7a10.3 10.3 0 0 1 .4-4 10.6 10.6 0 0 1 1.5-3.7 26.5 26.5 0 0 1-1 3.9 27.3 27.3 0 0 1-1 3.8ZM237.2 151.7a34.2 34.2 0 0 1-7.8-3.3 17.5 17.5 0 0 1 4 1.4 17.9 17.9 0 0 1 3.8 1.9ZM202.7 158.8a12 12 0 0 1-2 2.8 12.6 12.6 0 0 1-2.6 2.6 12.2 12.2 0 0 1 2.1-2.9 13 13 0 0 1 2.5-2.5ZM209.6 171.1a21 21 0 0 1-5-4.3 10.5 10.5 0 0 1 2.6 2 10.3 10.3 0 0 1 2.4 2.3ZM215.5 159.9a13 13 0 0 1-2.6 1.1 13.4 13.4 0 0 1-2.7 1.1 6 6 0 0 1 2.5-1.5 6 6 0 0 1 2.8-.7ZM217 175.3a19 19 0 0 1 .4-4.4 19 19 0 0 1 1-4.2 18.9 18.9 0 0 1-.5 4.3 19.3 19.3 0 0 1-1 4.3ZM212.3 182.3a10 10 0 0 1-3.9-1.6 10.2 10.2 0 0 1-3.2-2.7c.1-.1 1.6 1 3.5 2.3s3.6 2 3.6 2ZM232 170.5h.5l.3.2h-.3l-4.3 1.8a23.9 23.9 0 0 1-4.8 1.5 25.7 25.7 0 0 1 4.7-2 55 55 0 0 1 4.3-1.5v.3l-.4-.3ZM229.5 164a12.2 12.2 0 0 1-.9-3.5 12.6 12.6 0 0 1-.3-3.6 12.7 12.7 0 0 1 .8 3.5 13 13 0 0 1 .4 3.6ZM237.6 165a22.5 22.5 0 0 1 .7-3.5 21.2 21.2 0 0 1 .7-3.3 11.8 11.8 0 0 1-1.4 6.7ZM243 177.6a15.6 15.6 0 0 1-.6-4 14.9 14.9 0 0 1-.2-4 15.6 15.6 0 0 1 .7 4 15.4 15.4 0 0 1 .2 4ZM238.2 186.6a16.3 16.3 0 0 1-7.8-1 26 26 0 0 1 4 .4 26.7 26.7 0 0 1 3.8.6ZM221.5 193.2a16.7 16.7 0 0 1 .4-4 16.7 16.7 0 0 1 1-4 16.4 16.4 0 0 1-.5 4 16.5 16.5 0 0 1-1 4ZM217.9 198.8a11.4 11.4 0 0 1-2.6-2.2 11.3 11.3 0 0 1-2.2-2.6 11.6 11.6 0 0 1 2.6 2.2 10.8 10.8 0 0 1 2.2 2.6ZM224.8 206.3a6.8 6.8 0 0 1-2.7 1.6 6.5 6.5 0 0 1-3 .6 15.4 15.4 0 0 1 2.8-1.1 15.3 15.3 0 0 1 2.9-1ZM232 200.3a16.2 16.2 0 0 1-1.5-3.8 15.8 15.8 0 0 1-1-4 31.2 31.2 0 0 1 2.5 7.8ZM243.3 191.3a23 23 0 0 1-2.7 4 22.8 22.8 0 0 1-3.2 3.7 22.4 22.4 0 0 1 2.8-4 24 24 0 0 1 3.2-3.7ZM235 209.4a7.4 7.4 0 0 1-2.4-1.9 7.2 7.2 0 0 1-1.9-2.3 11.7 11.7 0 0 1 2.3 2 11.5 11.5 0 0 1 2 2.2ZM212.4 255c-.1 0-1.4-1-3.2-1.8a34.8 34.8 0 0 1-3.1-1.6 7.8 7.8 0 0 1 3.4 1.1 7.7 7.7 0 0 1 2.9 2.2ZM219.5 249.2a10.4 10.4 0 0 1 .6-3.2 9.7 9.7 0 0 1 1-3 10.4 10.4 0 0 1-.5 3.2 9.6 9.6 0 0 1-1.1 3ZM218.1 261a9.5 9.5 0 0 1-1.1-3 9 9 0 0 1-.6-3 9.4 9.4 0 0 1 1.1 2.9 9 9 0 0 1 .6 3ZM232.4 248.8a20.6 20.6 0 0 1-8 4.6 37.9 37.9 0 0 1 4-2.3 38.8 38.8 0 0 1 4-2.3ZM230.5 242.9a18.8 18.8 0 0 1-2.2-2.4 19.3 19.3 0 0 1-2.3-2.4 11 11 0 0 1 4.5 4.8ZM241 230.4a14.9 14.9 0 0 1-3.5 3 14.5 14.5 0 0 1-4 2.1 29.5 29.5 0 0 1 3.7-2.6 28.6 28.6 0 0 1 3.7-2.5ZM240.5 240.7a25.5 25.5 0 0 1 2.3-4.7 27 27 0 0 1 2.8-4.4 25.9 25.9 0 0 1-2.3 4.7 27 27 0 0 1-2.8 4.4ZM218.4 215c-.1.1-1-.5-1.9-1.3s-1.6-1.6-1.5-1.7 1 .5 1.9 1.3 1.6 1.6 1.5 1.7Z" fill="#fff"/><path d="M157.3 87.8c.5-.8-9.2-38.3-9.2-38.3l14.2 9.7Z" fill="#d8b4a1"/><path d="M157.3 87.8c.5-.8-9.2-38.3-9.2-38.3l14.2 9.7Z" fill="#fff" opacity=".7"/><path d="M149.2 89.8c0-.6-16.4-18.4-16.4-18.4l10.7 1.2Z" fill="#d8b4a1"/><path d="M149.2 89.8c0-.6-16.4-18.4-16.4-18.4l10.7 1.2Z" fill="#fff" opacity=".7"/></svg>