<svg xmlns="http://www.w3.org/2000/svg" viewBox="0 0 500 500"><path fill="#d8b4a1" d="M174.2 95.6a67.4 67.4 0 0 1 35.9-24c28.2-7 58.5 9 75.5 32.7 7.7 10.7 13.2 22.9 20.9 33.6s18.4 20.3 31.4 22.4c20.5 3.3 38.1-11.5 57.7-14.4 38-5.6 41.8 33.4 37.7 61.6a181.8 181.8 0 0 1-57.8 106C325.4 358 251.6 371.6 187.3 356c-42.8-10.4-83.8-34.2-107.6-71.4C68 266.4 60.6 244.3 64.5 223s21.3-41 43-43c13.3-1.2 29 3.5 38.8-5.8 6.7-6.4 7.2-16.7 8.2-26a105.3 105.3 0 0 1 19.7-52.5Z"/><path fill="#fff" d="M174.2 95.6a67.4 67.4 0 0 1 35.9-24c28.2-7 58.5 9 75.5 32.7 7.7 10.7 13.2 22.9 20.9 33.6s18.4 20.3 31.4 22.4c20.5 3.3 38.1-11.5 57.7-14.4 38-5.6 41.8 33.4 37.7 61.6a181.8 181.8 0 0 1-57.8 106C325.4 358 251.6 371.6 187.3 356c-42.8-10.4-83.8-34.2-107.6-71.4C68 266.4 60.6 244.3 64.5 223s21.3-41 43-43c13.3-1.2 29 3.5 38.8-5.8 6.7-6.4 7.2-16.7 8.2-26a105.3 105.3 0 0 1 19.7-52.5Z" opacity=".9"/><ellipse cx="250" cy="416.2" fill="#f5f5f5" rx="193.9" ry="11.3"/><path fill="#d8b4a1" d="M252.5 302h38.9a9.9 9.9 0 0 1 10 9.9v108h-58.2V312a9.8 9.8 0 0 1 9.3-9.9Z"/><path fill="#fff" d="M252.5 302h38.9a9.9 9.9 0 0 1 10 9.9v108h-58.2V312a9.8 9.8 0 0 1 9.3-9.9Z" opacity=".5" style="isolation:isolate"/><path fill="#fff" d="M291.4 302a9.9 9.9 0 0 1 9.9 9.9v108h-19.8V312a9.9 9.9 0 0 1 9.9-9.9Z" opacity=".6" style="isolation:isolate"/><path fill="#d8b4a1" d="M64.5 276.4H232a8.1 8.1 0 0 1 8.1 8.2l11 70.2H67.4l-11-70.3a8.1 8.1 0 0 1 8.1-8Z"/><path fill="#fff" d="M64.5 276.4H232a8.1 8.1 0 0 1 8.1 8.2l11 70.2H67.4l-11-70.3a8.1 8.1 0 0 1 8.1-8Z" opacity=".4" style="isolation:isolate"/><path d="M83.7 355.8H67.4l-11-71.3a8.1 8.1 0 0 1 8.1-8 8.1 8.1 0 0 1 8.2 8Z" opacity=".2" style="isolation:isolate"/><path fill="#d8b4a1" d="M275 419.9H109.3v-73H275z"/><path fill="#fff" d="M109.3 346.9H275v73H109.3z" opacity=".4" style="isolation:isolate" transform="rotate(180 192.1 383.4)"/><path fill="#d8b4a1" d="M93.2 361.6h176.3a10.4 10.4 0 0 0 10.4-10.5 10.4 10.4 0 0 0-10.4-10.4H93.2Z"/><path fill="#fff" d="M93.2 361.6h176.3a10.4 10.4 0 0 0 10.4-10.5 10.4 10.4 0 0 0-10.4-10.4H93.2Z" opacity=".6" style="isolation:isolate"/><path fill="#263238" d="M121.7 211.2s4.4-.3 8.8 8.4-2.9 32.5-2.9 32.5l-29.5 1.6s-1.3-1.7-3-16.3-.3-29.6 12.5-33.3c9.4-2.7 14.1 7.1 14.1 7.1Z"/><path fill="#d8b4a1" d="m132.5 290.2-30.3 2.3c-.2-3.5-.3-7.1-.7-10.4a97.2 97.2 0 0 0-2.4-12.3c-.7-2.9-1.6-6.1-2.8-9.9l-.5-1.5-1.6-5-1.9-5.5a91.2 91.2 0 0 1 12.6-3 95.6 95.6 0 0 1 13.6-1.5c6 0 12.7.7 12.7.7s1 .2 1.6 6.4c.5 5.9 1 18.3-.3 39.7Z"/><path d="M122.4 277.3c-8.2 8.1-15.8 7.2-21 4.8a97.2 97.2 0 0 0-2.3-12.3c-.7-2.9-1.7-6.1-2.8-9.9l-.5-1.5c.8-1.8 2-3 3.7-2.9 7.4.2 19 13 19 13Z" opacity=".2" style="isolation:isolate"/><path fill="#d8b4a1" d="M131.2 244c4.5.7 6.5 3.6 12 16.1 4.2 9.6 2.5 12.7-.9 14.2-8.4 3.6-27.4 1.1-27.4 1.1l18.5-11.4s-3-10.6-3-12.7a25 25 0 0 1 .8-7.3Z"/><path fill="#fff" d="M142.3 274.3c-3.2 1.4-7.9 1.9-12.5 2h-1.4a113.4 113.4 0 0 1-13.5-.9l18.5-11.4-1.5-5.4a50.3 50.3 0 0 1-1.5-7.3 24.9 24.9 0 0 1 .8-7.3c4.5.7 6.5 3.5 12 16.1 4.2 9.7 2.5 12.7-.9 14.2Z" opacity=".1" style="isolation:isolate"/><path d="M138.4 264.8a19.5 19.5 0 0 1-10 11.5 113.4 113.4 0 0 1-13.6-.9l18.6-11.4-1.5-5.4c3.3 4.9 4.8 2.8 6.5 6.2Z" opacity=".2" style="isolation:isolate"/><path fill="#d8b4a1" d="M92.3 247.9c-9.3 3.9 7.5 30 17 33s29.3-16.3 29.3-16.3a24.9 24.9 0 0 0-9.5 0c-11.5 2.6-14.7 4.2-17 1.8s-13.2-21.3-19.8-18.5Z"/><path fill="#fff" d="M92.3 247.9c-9.3 3.9 7.5 30 17 33s29.3-16.3 29.3-16.3a24.9 24.9 0 0 0-9.5 0c-11.5 2.6-14.7 4.2-17 1.8s-13.2-21.3-19.8-18.5Z" opacity=".1" style="isolation:isolate"/><path fill="#e9b176" d="M119 267s-5.6-3-7-3.5-4.7 2.1-4.9 2.7 6.5 4.2 7 4 5-3.2 5-3.2ZM100 246.5a33.3 33.3 0 0 0 16 5.2 29 29 0 0 0 10.2-7.1s-11.3-3.5-26.1 1.9Z"/><path fill="#e9b176" d="M116 250c-7.5-1-9.7-4-9.7-4a7.3 7.3 0 0 0 2.2-4 14 14 0 0 0-1-7.3l-.5-1 9.6-2.7-.4 2.7-.5 5.5c0 5.4 2.4 5.5 2.4 5.5 1.6 3-2.1 5.4-2.1 5.4Z"/><path fill="#e4897b" d="m199.3 388.7-6 1.4-3.1-8.3-2.8-7.6 6.9-3 2.7 9.3 2.3 8.2z"/><path d="m197 380.5-6.8 1.3-2.8-7.6 6.9-3 2.7 9.3z" opacity=".2" style="isolation:isolate"/><path fill="#263238" d="m196.4 376-8.4 3.2s-22.4-56-27-56.1-51.4 21.3-63 9.4 4.2-40 4.2-40c-.8.3 29-6.3 30.3-2.3.4 1.2 1.8 7.6 2.1 9.7l.6 3.6c.9-.3 29.2-7.6 40.3 0C187 311 196.4 376 196.4 376Z"/><path fill="#fff" d="m196.4 376-8.4 3.2s-22.4-56-27-56.1-51.4 21.3-63 9.4 4.2-40 4.2-40c-.8.3 29-6.3 30.3-2.3.4 1.2 1.8 7.6 2.1 9.7l.6 3.6c.9-.3 29.2-7.6 40.3 0C187 311 196.4 376 196.4 376Z" opacity=".1"/><path fill="#e4897b" d="m149.6 405.6-6.5-1.5.2-1.8 1.1-7.9 7.4.7-1.9 9.2-.3 1.3z"/><path d="m151.2 398.1-7.2-.9.4-2.7 7.4.6-.6 3z" opacity=".2" style="isolation:isolate"/><path fill="#263238" d="m118.2 335.3 31.5-1.3s-4.4 33.3-6.8 61l10.3 1.3s19.6-55.4 19.4-64.9-11-12.1-11-12.1-21.1 12.2-43.4 16Z"/><path d="m135.2 303.4-16.5 3.5s9.2-5 16-7l.5 3.6Z" opacity=".2" style="isolation:isolate"/><path fill="#263238" d="M210 399.2a8.4 8.4 0 0 0-3-.7s-3.4-2-7-10h-3.8a3.2 3.2 0 0 0-3 2.1 2 2 0 0 0-.1.6 22 22 0 0 0 .3 2.8 77.8 77.8 0 0 0 2.3 9.1l.6-.2-1.2-5.8c-.4-2 1.7 0 2.7 2s2.4 4 6.7 3c5-1.3 7-2 5.5-2.9Z"/><path fill="#263238" d="M193.2 390.7c-.8-2-1.7-5.3-1.7-5.3l8.3-1.1s0 4 1.6 6.7c-4.4 0-8.3-.3-8.3-.3ZM155.8 418.8a8.1 8.1 0 0 0-2.5-1.7s-2.6-3.1-3-11.8l-3.7-1.4a3.2 3.2 0 0 0-3.6 1 1.8 1.8 0 0 0-.3.5 23.3 23.3 0 0 0-.6 2.7 77.9 77.9 0 0 0-1 9.4h.6l.9-5.8c.3-2 1.6.5 1.8 2.7s1 4.6 5.3 5.1c5.1.6 7.3.6 6.1-.7Z"/><path fill="#263238" d="m142.9 405 .2-5.5 8.2 1.7s-1.4 3.9-.8 7c-4.1-1.6-7.6-3.2-7.6-3.2ZM102 289.1l.2 3.4 30.3-2.3.3-4.3-30.8 3.2z"/><path fill="#fff" d="m125.9 290.7-6.6.5-.4-3.8 6.6-.7.4 4z"/><path fill="#d8b4a1" d="m112.7 291.7-1.5.1-.3-3.6 1.5-.2.3 3.7zM131.2 290.3l-1.5.1-.2-4.1 1.5-.2.2 4.2z"/><path fill="#fff" d="m112.7 291.7-1.5.1-.3-3.6 1.5-.2.3 3.7zM131.2 290.3l-1.5.1-.2-4.1 1.5-.2.2 4.2z" opacity=".5"/><path fill="#fff" d="m102 289.1.2 3.4 30.3-2.3.3-4.3-30.8 3.2z" opacity=".2"/><path d="M116.3 233.7c-.2.6-2.3 7.2-7.8 8.2a14 14 0 0 0-1-7.3l8.8-1Z" opacity=".2" style="isolation:isolate"/><path fill="none" stroke="#263238" stroke-linecap="round" stroke-linejoin="round" stroke-width=".5" d="M120.6 211.3s-7-11.7-19-5.4-8.3 31.1-8.3 31.1"/><path fill="#263238" d="M97.6 234.4s-2.2 9 4.7 16a36.3 36.3 0 0 1 7.7 12s1.8-3.7-4.6-20.5c-3.2-8.3-1.8-10.1-1.8-10.1Z"/><path fill="none" stroke="#263238" stroke-linecap="round" stroke-linejoin="round" stroke-width=".5" d="M103.2 233.7a53 53 0 0 0 3.9 11.4c2.8 5.6 3.9 7.6 3.5 11.8"/><path fill="#e9b176" d="M111.3 211.8c-7.8-.4-10.6 3.7-11.6 11.7-1.2 10 .6 17.3 10.5 15.7 13.4-2.2 14-26.6 1-27.4Z"/><path fill="#d38545" d="M104.8 223.3a16.2 16.2 0 0 1-2.5 3.1 2.1 2.1 0 0 0 2 1Z"/><path fill="#263238" d="M109.6 223c0 .6.3 1.2.7 1.2s.8-.4.9-1-.3-1.3-.7-1.3-.8.4-.9 1.1Z"/><path fill="#263238" d="m110.7 221.9-1.4-.7s.6 1.3 1.4.7ZM101.7 222.2c-.1.6.2 1.2.6 1.2s.9-.5.9-1-.3-1.3-.7-1.3-.8.5-.8 1Z"/><path fill="#263238" d="m102.7 221.1-1.4-.6s.6 1.2 1.4.6ZM109 219.6a11.3 11.3 0 0 0 4.4-1 .3.3 0 0 0 .2-.5.3.3 0 0 0-.4-.2c-3.5 1.5-5.2.9-5.2.9a.3.3 0 0 0-.2.6 3.4 3.4 0 0 0 1.3.2ZM103.2 218.8a2.6 2.6 0 0 0 1.3-.3.3.3 0 0 0-.3-.6 2 2 0 0 1-2.8-.7.3.3 0 1 0-.5.4 3 3 0 0 0 2.3 1.2Z"/><path fill="#263238" d="M119.1 225.5s-3.3-6.6-2.5-11.6c0 0-15.1-7.2-16.7 8.5 0 0-.8-14 12.7-13.6s12.3 20.1 5 25.6c0 0 3.6-4.8 1.5-9Z"/><path fill="#e9b176" d="M117.8 227a3.5 3.5 0 0 1 3.8-2.9c2.4.4 3.3 5.5-2.8 6.3-.9.2-1.3-.7-1-3.3Z"/><path fill="#263238" d="M105.8 230.4a.3.3 0 0 0 .2-.1c2-2.4 3.8-1.3 3.8-1.2a.3.3 0 0 0 .4-.6s-2.4-1.5-4.7 1.4a.3.3 0 0 0 0 .4.3.3 0 0 0 .3.1Z"/><path fill="#d8b4a1" d="M75.5 302h38.9a10 10 0 0 1 10 9.9v108H66.1V312a9.8 9.8 0 0 1 9.3-9.9Z"/><path fill="#fff" d="M75.5 302h38.9a10 10 0 0 1 10 9.9v108H66.1V312a9.8 9.8 0 0 1 9.3-9.9Z" opacity=".5" style="isolation:isolate"/><path fill="#fff" d="M114.4 302a10 10 0 0 1 9.9 9.9v108h-19.8V312a9.9 9.9 0 0 1 9.9-9.9Z" opacity=".6" style="isolation:isolate"/><path fill="#e2877b" d="m267.1 301.9 4 6s9.9 4.6 10.4 5.8 2 5.1 0 5.3-13-4.7-14.3-5 0-2.5 0-2.5l-5.2-7.1Z"/><path fill="#d8b4a1" d="M249.9 248.2c6 6.5 7.6 33 10.1 37.4s10.3 20 10.3 20l-6.5 2.4s-9.4-12.7-13.7-20.8-5.4-21.2-7.1-24.7 6.9-14.3 6.9-14.3Z"/><path fill="#e2877b" d="m267 417.1 7.6.8 3.1-16.4-7.6-.8-3.1 16.4zM230.9 418.6l7.4-.3 1.8-17.2-7.5.3-1.7 17.2z"/><path fill="#263238" d="M276 411.4h-9.1a.7.7 0 0 0-.6.6l-1.5 6.6a1 1 0 0 0 .8 1.3 1 1 0 0 0 .3 0l8.7-.2 12.2.2c3.1 0 3.6-3 2.3-3.4-5.8-1.2-10-3-12-4.6a1.8 1.8 0 0 0-1.2-.5Z"/><path fill="#d8b4a1" d="M276.5 412.5a.2.2 0 0 1-.2-.2.2.2 0 0 1 .1-.1c.3-.2 2.7-1.7 3.5-1.3a.5.5 0 0 1 .3.5 1 1 0 0 1-.4 1 2.2 2.2 0 0 1-1.4.4 8.5 8.5 0 0 1-2-.3Zm.5-.3a3.7 3.7 0 0 0 2.6-.1.7.7 0 0 0 .3-.6c0-.2-.1-.2-.2-.2a.4.4 0 0 0-.2-.1 7.3 7.3 0 0 0-2.5 1Z"/><path fill="#d8b4a1" d="M276.4 412.5a.2.2 0 0 1 0-.2s.1-2.2 1-3a1 1 0 0 1 .7-.2.6.6 0 0 1 .6.5c.1.8-1.3 2.4-2.1 2.8h-.1a.1.1 0 0 1 0 .1Zm1.2-2.9a4.2 4.2 0 0 0-.9 2.3c.8-.5 1.7-1.8 1.6-2.3l-.2-.1h-.1a.6.6 0 0 0-.4.1Z"/><path fill="#263238" d="M239.3 411.2h-9a.7.7 0 0 0-.7.5l-1.5 6.7a1 1 0 0 0 .9 1.3h.2c3 0 5-.3 8.8-.3l12.2.3c3.2 0 3.5-3.1 2.2-3.4-5.7-1.3-10-3-11.9-4.6a1.8 1.8 0 0 0-1.2-.5Z"/><path fill="#d8b4a1" d="M239.8 412.3a.2.2 0 0 1-.2-.2.2.2 0 0 1 .1-.2c.3-.1 2.7-1.6 3.5-1.2a.6.6 0 0 1 .3.5 1 1 0 0 1-.3 1 2.2 2.2 0 0 1-1.5.3 9 9 0 0 1-2-.3Zm.5-.3a3.6 3.6 0 0 0 2.6-.1.7.7 0 0 0 .3-.7l-.1-.2a.4.4 0 0 0-.3 0 7 7 0 0 0-2.5 1Z"/><path fill="#d8b4a1" d="M239.7 412.3a.2.2 0 0 1 0-.2s.1-2.2 1-3a1 1 0 0 1 .7-.2.6.6 0 0 1 .6.5c.1.8-1.4 2.4-2.1 2.9h-.1Zm1.2-3a4.2 4.2 0 0 0-.8 2.4c.7-.6 1.7-1.8 1.6-2.3 0 0 0-.2-.3-.2a.6.6 0 0 0-.5.2Z"/><path d="m270.1 400.7 7.6.8-1.6 8.4-7.6-.8 1.6-8.4zM232.6 401.4l7.5-.3-.9 8.9-7.5.3.9-8.9z" opacity=".2" style="isolation:isolate"/><path fill="#263238" d="M190.3 291s-17 51.8 19.6 51.8 39.7-14.3 36.6-31.1l-15-1.4s-2-10.9-.6-19.6Z"/><path fill="#263238" d="m278.3 408.7-12.5-1.8s11.3-52 7.3-57.8c-3.4-4.8-22.9-4.6-45.3-5.7l-13.2-.7c-29.2-1.5 31.9-31.1 31.9-31.1s39.1 1.6 49.3 15c9.4 12.4-17.5 82-17.5 82Z"/><path d="m265.6 407 .2-.1s11.3-52 7.3-57.8c-3.4-4.8-22.9-4.6-45.3-5.7l-2.6-7.7 16.7-19.5s27.3 1.3 34.4 15.6-10.7 75.3-10.7 75.3Z" opacity=".2" style="isolation:isolate"/><path fill="#263238" d="M261 326.7c-5.7-7.6-20.5-11.4-32.4-13.3l-17.2 29.4c18 .8 25.6 3.6 26 5.2 2 8-9.3 59.7-9.3 59.7h13s30.1-67.6 19.9-81Z"/><path fill="#d8b4a1" d="M209.6 243.5s26.6-9.8 40.3 4.7c0 0-17 43.8-18.4 50.5l-45.2-1.8s10.6-31.2 23.3-53.4Z"/><path fill="#fff" d="M249.9 248.2s-5.7 14.5-10.7 28.2a496.1 496.1 0 0 0-7.7 22.3l-45.2-1.8s1.8-5.3 4.8-13.2l3.8-9.4a279 279 0 0 1 14.7-30.8s26.6-9.8 40.3 4.7Z" opacity=".6" style="isolation:isolate"/><path fill="#fff" d="M239.2 276.4c-2.6 6.9-5 13.6-6.4 18l-3.3-8-12.6 7.5-5.5-9.4-16.9 8-3.4-8.8 3.8-9.4 10-4.8 6.5 11.2 14.6-8.4 3.8 11.3Z" opacity=".6" style="isolation:isolate"/><path fill="#e2877b" d="M238.3 249c-8.6 6.4-14.3-7.4-14.3-7.4a15.4 15.4 0 0 0 4.7-1.8c1.3-1 2.9-4.3 4.6-10h11.4a41 41 0 0 0-6.8 14.5 8.8 8.8 0 0 0 .4 4.7Z"/><path fill="#d8b4a1" d="M225.2 240.4s3.6 6.4 9.1 9.6c0 0 3.7-4 4.2-8.3 0 0 4 6.6.5 17.6l-4.7-7.3-5.3 5.8s-13.4-12-3.8-17.4Z"/><path fill="#e2877b" d="m229.7 304 4 6s9.8 4.5 10.3 5.7 2 5 0 5.3-13-4.7-14.3-5 0-2.5 0-2.5l-5.2-7.2Z"/><path fill="#d8b4a1" d="M209.6 243.5c8.8-1.3 10.4 39.7 13 44.1s10.2 20 10.2 20l-6.5 2.4s-10.6-13.2-14.9-21.3-8.8-23-9-31.2c-.1-4 1.9-13.2 7.2-14Z"/><path d="M244.7 229.7a41 41 0 0 0-6.8 14.5 19.2 19.2 0 0 1-4.6-14.5Z" opacity=".2" style="isolation:isolate"/><path fill="#263238" d="M253.6 211.4s3.6 10.5-1.3 15.7-8.7-14.8-8.7-14.8Z"/><path fill="#e2877b" d="M237.3 238.7a9.9 9.9 0 0 0 11.9 1.7 11 11 0 0 0 5.2-6.2l.4-1.1c1.6-7.1.3-18.8-7.4-21.8a10.7 10.7 0 0 0-14 6 10.6 10.6 0 0 0-.7 5c.6 7.8.6 12.4 4.6 16.3Z"/><path fill="#263238" d="M244.7 224.3c0 .6.3 1.1.7 1.1s.8-.5.8-1.2-.4-1.1-.8-1-.7.4-.7 1ZM251.9 224.2c0 .6.3 1.1.8 1.1s.7-.5.7-1.1-.4-1.2-.8-1.2-.7.6-.7 1.2Z"/><path fill="#dc5753" d="M249.6 224.5a22.7 22.7 0 0 0 3.1 5.5 3.7 3.7 0 0 1-3 .6Z"/><path fill="#263238" d="M246.4 220.2a.4.4 0 0 0-.3 0 3 3 0 0 1-2.7.6.4.4 0 0 0-.5.2.4.4 0 0 0 .3.4 3.7 3.7 0 0 0 3.3-.6.4.4 0 0 0 .1-.5.9.9 0 0 0-.2 0ZM243.8 231.8a5.8 5.8 0 0 1 5 1.8.2.2 0 0 1 0 .3.2.2 0 0 1-.3 0 5.5 5.5 0 0 0-4.6-1.6.2.2 0 0 1-.3-.2.2.2 0 0 1 .2-.2ZM251.2 219.8a.4.4 0 0 0-.2.1.4.4 0 0 0 0 .6 3.7 3.7 0 0 0 3.5.5.4.4 0 0 0 .2-.5.4.4 0 0 0-.5-.2 3 3 0 0 1-2.7-.5.4.4 0 0 0-.3 0ZM232.4 231.9h1.9c-.4-2.2-.3-4 .2-4.3 1-.4 1.2.9 1.2.9 2.1-2 3.5-6.5 2.2-9.4a2.6 2.6 0 0 1 1-3.3l-.5-3.4s-6.9-1.5-8.9 1.6-.6 7.8 1.4 14.1a29.2 29.2 0 0 0 1.5 3.8Z"/><path fill="#e2877b" d="M229.4 228.7a7.4 7.4 0 0 0 4.3 3.7c2.5.8 3.9-1.4 3.3-3.8-.6-2.1-2.6-5.2-5.1-4.9s-3.6 2.8-2.5 5Z"/><path fill="#263238" d="M231.8 213.6s-1.6-4.2 3.3-7.4a15.8 15.8 0 0 1 16.2-.6c4.7 2.8 6.5 9 6.5 9a3.5 3.5 0 0 0-3.4 0l.7 2.2a7.2 7.2 0 0 0-4.2-1.6l1.6 2a38.5 38.5 0 0 0-13.5-1.4Z"/><path fill="#eec1bb" d="m317.7 352.9-8.3 20.6-4.9 12.2h-5.9l3.9-14.4 6.4-23.7 8.8 5.3z"/><path d="m317.7 352.9-8.3 20.6-6.9-2.2 6.4-23.7 8.8 5.3z" opacity=".2" style="isolation:isolate"/><path fill="#eec1bb" d="m343.9 371.2 3.1 22 1.8 13-5.2 3-3.8-14.5-6.2-23.7 10.3.2z"/><path d="m343.9 371.2 3.1 22-7.2 1.5-6.2-23.7 10.3.2z" opacity=".2" style="isolation:isolate"/><path fill="#d8b4a1" d="m334 255.9-27.7-.5 24.1 27.4 25.9-1.7-22.3-25.2z"/><path fill="#fff" d="m334 255.9-27.7-.5 24.1 27.4 25.9-1.7-22.3-25.2z" opacity=".3"/><path fill="#fff" d="m333.4 258.9-21.4-.4 18.6 21.1 20-1.3-17.2-19.4z"/><path fill="#263238" d="m329.1 262.4 7.2-20.6.8.3-7.1 20.6z"/><path fill="#d8b4a1" d="m329 264.3 1-1.6a.9.9 0 0 0-.8-.3Z"/><path fill="#263238" d="M329.2 263.9c0-.1-.1-.1-.2 0v.4Z"/><path fill="#eec1bb" d="m348 265.7-5.8-6.5a9.7 9.7 0 0 0-.7-2.1c-.6-1.2-6-4.6-8-5.2s-7.6 4.5-7 5.3 7.7 5.5 9.3 5.3h1.7l6.5 8Z"/><path fill="#263238" d="M367.9 216a3.6 3.6 0 1 1 3.6-3.7 3.6 3.6 0 0 1-3.6 3.6Zm0-6.3a2.6 2.6 0 1 0 2.6 2.6 2.6 2.6 0 0 0-2.6-2.6Z"/><path fill="#eec1bb" d="M380.9 227.6a12.7 12.7 0 0 1-3.5.7c-2.3 0-4.2-.3-5.7-1.3-3.3-2.3-4.5-7.5-4.6-13.8-.2-8.3 2.2-12.8 10.8-13.5 14.2-1.1 17.3 23.8 3 28Z"/><path d="M384.5 223.8a17.3 17.3 0 0 1-7 4.5c-2.4 0-4.3-.3-5.8-1.3 4.3-3.3 12.8-3.2 12.8-3.2Z" opacity=".2" style="isolation:isolate"/><path fill="#2e353a" d="M372 204s-4.3 8.4 3.2 13c0 0 5 8 13.3 6.9s13.1-13 7.7-23.5c-5.2-9.9-22.7-4.4-22.7-4.4-7.5-3.2-10.6 6-5 8.7a6.2 6.2 0 0 1 3.6-.6Z"/><path fill="#eec1bb" d="M372.2 214.6a3.7 3.7 0 0 1 3.6-3.9c2.8.2 4.6 5.8-1.9 7.6-.9.2-1.5-.7-1.7-3.7Z"/><path fill="#2e353a" d="M367 200.3s-.8 4 5.1 10.4a41.2 41.2 0 0 0 13.7 9.4l-1.3-25.6-14 .8Z"/><path fill="#263238" d="M364.7 211.7h7.5v1h-7.5z"/><path fill="#eec1bb" d="M380.1 241.7c6.3.7 14.4-3.8 14.4-3.8-5.9-3.8-6.8-14.1-6.8-14.1-5.7-2.2-10.1 3-10.1 3a24.5 24.5 0 0 1 1 3.8c1 5.5-1.7 6-1.7 6-1.2 3.2 1.6 4.9 3.2 5Z"/><path fill="#d8b4a1" d="m375.3 235.2 2.8-4.3c5-3.9 12.1-2.5 12.1-2.5l4 6.9s-13.2.5-19-.1Z"/><path fill="#eec1bb" d="M373.4 273.8c-7.7-1.4-14.8-3.6-14.8-3.6l-2 4.9a147 147 0 0 0 16.8 6.6Z"/><path fill="#d8b4a1" d="M407.1 250.9c0-7.5-2.4-9.4-2.4-9.4l-4.2 10.8 1.2 29.4s5.4-23.3 5.4-30.8Z"/><path fill="#d8b4a1" d="M403 281.5c1.6.4-1.5-25.3 1.8-40 0 0-2.5-4.3-12.1-7-11.2-3.2-25.1 2.2-29.3 3.8 0 0-3 23.8 6.2 45.5 0 0 12.2-.2 33.4-2.3Z"/><path d="M403 281.5c1.1.2-1.2-25.6 1.8-40 0 0-2.5-4.3-12.1-7-11.2-3.2-25.1 2.2-29.3 3.8 0 0-3 23.8 6.2 45.5 0 0 12.2-.2 33.4-2.3Z" opacity=".2" style="isolation:isolate"/><path fill="#eec1bb" d="M359.9 270.6s-8-3.5-10.9-4.2-3 8.2-1.7 9.5 12 1.2 12.7 0-.1-5.3-.1-5.3Z"/><path fill="#2e353a" d="M287.4 394.4a9.7 9.7 0 0 1 3.2-.8s3.8-2 7.6-10.2h4.3a3.5 3.5 0 0 1 3.3 2.2 1.7 1.7 0 0 1 .1.5 21.4 21.4 0 0 1-.3 2.9 75.4 75.4 0 0 1-2.5 9.4l-.7-.2 1.3-6c.4-2-1.9 0-3 2s-2.6 4.1-7.3 3.1c-5.5-1.3-7.7-2-6-3Z"/><path fill="#2e353a" d="m306 385.6 1.8-5.4-9.2-1.1s0 4.1-1.7 6.9c4.8 0 9-.4 9-.4ZM386.9 221.6a8.6 8.6 0 0 1 8.4-6.6c7.3-.2 6 6 8.1 7.3s3.3.3 4.8 2.3-.8 4.2-.8 6.2 2.8 2.3 2.8 5-3 2.8-4.2 6 1 3.5 1 5.4-.7 3-3.3 3c0 0 2.1-1 .8-2.3s-5-2.5-6-5 3.5-5.2-.7-7.9-6.3-.9-7.8-6.1-3.1-7.3-3.1-7.3Z"/><path fill="#d8b4a1" d="M363.3 238.4c9.5 4.1 6.8 41.3-2.7 43.8s-21.5-15.8-21.5-15.8l5.7-5.6s9 8.4 10.9 8.3 3-18.1 3.6-22c1-7.6 4-8.7 4-8.7ZM403 281.5s-31-4.1-33.4 2.4c-.4 1.2-1 8.7-1.3 10.8l-.6 3.7c-1-.2-28-7.7-40.3 0-8.9 5.6-19 45.4-24.6 69.4l8.5 3c9.7-20.9 24.7-52.2 28-52.3 5-.2 56.5 21.8 69.4 9.6s-5.7-46.6-5.7-46.6Z"/><path fill="#fff" d="M403 281.5s-31-4.1-33.4 2.4c-.4 1.2-1 8.7-1.3 10.8l-.6 3.7c-1-.2-28-7.7-40.3 0-8.9 5.6-19 45.4-24.6 69.4l8.5 3c9.7-20.9 24.7-52.2 28-52.3 5-.2 56.5 21.8 69.4 9.6s-5.7-46.6-5.7-46.6Z" opacity=".6" style="isolation:isolate"/><path fill="#2e353a" d="M333.6 418.5a9.3 9.3 0 0 1 2.9-1.5s3.1-2.9 4.5-11.7l4.2-1a3.6 3.6 0 0 1 3.7 1.3 1.6 1.6 0 0 1 .3.5 21.6 21.6 0 0 1 .5 2.9 72.9 72.9 0 0 1 .1 9.6h-.7l-.4-6c0-2-1.8.3-2.2 2.6s-1.5 4.6-6.3 4.7c-5.7.1-8 0-6.6-1.4Z"/><path fill="#2e353a" d="M349.1 405.7c.3-2.1.3-5.7.3-5.7l-9.2 1s1.2 4 .3 7.1c4.6-1.1 8.6-2.4 8.6-2.4Z"/><path fill="#d8b4a1" d="M347.2 388.4c-2.8-25.3-6.3-51.2-6.5-53 1 .4 32.8-4.1 47-4.8 0 0-23.5-4-36.3-9.7-3.4-1.5-12.7-6.3-12.7-6.3s-19 1-19.2 10.6c-.2 6.4 10.6 42 18 65.2Z"/><path fill="#fff" d="M347.2 388.4c-2.8-25.3-6.3-51.2-6.5-53 1 .4 32.8-4.1 47-4.8 0 0-23.5-4-36.3-9.7-3.4-1.5-12.7-6.3-12.7-6.3s-19 1-19.2 10.6c-.2 6.4 10.6 42 18 65.2Z" opacity=".5"/><path fill="#263238" d="m371.1 338.3.4 14.2L373 419h4.9l1.5-66.5.3-14.2h-8.6z"/><path fill="#fff" d="m371.1 338.3.4 14.2L373 419h4.9l1.5-66.5.3-14.2h-8.6z" opacity=".1" style="isolation:isolate"/><path d="m371.1 338.3.4 14.6h7.9l.3-14.6h-8.6z" opacity=".2" style="isolation:isolate"/><path fill="#263238" d="m386.5 338.3.4 14.2 1.5 66.5h4.9l1.5-66.5.3-14.2h-8.6z"/><path fill="#fff" d="m386.5 338.3.4 14.2 1.5 66.5h4.9l1.5-66.5.3-14.2h-8.6z" opacity=".2" style="isolation:isolate"/><path d="m386.5 338.3.4 14.6h7.9l.3-14.6h-8.6z" opacity=".2" style="isolation:isolate"/><path fill="#263238" d="m344.3 418.8 4.6-79.5h7.4l-6.4 79.5h-5.6z"/><path fill="#fff" d="M350 418.8h-5.7l4.2-72.6.4-7h7.4l-.5 7-5.8 72.6z" opacity=".2" style="isolation:isolate"/><path d="m356.3 339.2-.5 7.3h-7.3l.4-7.3h7.4z" opacity=".2" style="isolation:isolate"/><path fill="#263238" d="m417.9 418.8-6.4-79.5h7.4l4.6 79.5h-5.6z"/><path fill="#fff" d="m417.9 418.8-5.8-72.6-.6-7h7.5l.4 7 4.1 72.6h-5.6z" opacity=".1" style="isolation:isolate"/><path d="m411.5 339.2.6 7.3h7.3l-.4-7.3h-7.5z" opacity=".2" style="isolation:isolate"/><path fill="#d8b4a1" d="M423 342h-78.1v-5.7a5 5 0 0 1 5-5h68a5 5 0 0 1 5 5v5.7Z"/><rect width="83.9" height="5.3" x="341.9" y="336.6" fill="#263238" rx="2" transform="rotate(-180 383.9 339.3)"/><rect width="83.9" height="5.3" x="341.9" y="336.6" fill="#fff" opacity=".4" rx="2" style="isolation:isolate" transform="rotate(-180 383.9 339.3)"/><path fill="#d8b4a1" d="m379.7 277 2.7-21.4a4.7 4.7 0 0 1 4.7-4.7h6.2l-2.6 30.8h-6.3a4.7 4.7 0 0 1-4.7-4.7Z"/><path fill="#263238" d="m385.5 336.9 11.3-81.9-5.8-.8-11.3 82.7h5.8zM421.3 336.9l11.2-81.9-5.7-.8-11.3 82.7h5.8z"/><path fill="#fff" d="m385.5 336.9 11.3-81.9-5.8-.8-11.3 82.7h5.8zM421.3 336.9l11.2-81.9-5.7-.8-11.3 82.7h5.8z" opacity=".2" style="isolation:isolate"/><path fill="#263238" d="M383 282.2h51.4l4.1-32h-51.4l-4.1 32z"/><path fill="#fff" d="M383 282.2h51.4l4.1-32h-51.4l-4.1 32z" opacity=".6" style="isolation:isolate"/></svg>