<svg xmlns="http://www.w3.org/2000/svg" viewBox="0 0 500 500"><path fill="#d8b4a1" d="M325.8 44S246.5 13 170.6 57 58.3 191.4 26.8 263.9 16.6 411.3 76.4 447s98.5-13.4 181-13.5 105 12.7 172.3-33.8 76.5-160.4 20.2-246.5S326 44 326 44Z"/><path fill="#fff" d="M325.8 44S246.5 13 170.6 57 58.3 191.4 26.8 263.9 16.6 411.3 76.4 447s98.5-13.4 181-13.5 105 12.7 172.3-33.8 76.5-160.4 20.2-246.5S326 44 326 44Z" opacity=".7"/><g fill="none" stroke="#263238" stroke-linecap="round" stroke-linejoin="round"><path d="M392.9 73h0a67.1 67.1 0 0 1 67.1 67.1v241.3h0-134.2 0V140.1A67.1 67.1 0 0 1 392.9 73Z"/><path d="M341 380.7V142.3a52 52 0 0 1 51.9-52h0a52 52 0 0 1 52 52v238.4M392.9 73v308.1M326.5 132.3h132.6M326.5 174.2h132.6M326.5 216h132.6M326.5 257.9h132.6M326.5 299.7h132.6M326.5 341.6h132.6M344.3 93.9l12 11M441.1 93.9l-12.1 11"/></g><g fill="none" stroke="#263238"><path stroke-linecap="round" stroke-linejoin="round" d="M26.8 106.2h91.5v124.7H26.8z"/><path stroke-linecap="round" stroke-linejoin="round" d="M33 111.4h79.1v114.2H33z"/><path stroke-miterlimit="10" d="M112.2 118.4c-1.3-.3-15.2-3.6-18.3 4-3.3 7.9 18.4 28.3 6.5 44.7s-45.3-8.5-50.6 4.6-4.6 31-13.8 34.2a20.2 20.2 0 0 1-3 .8v19h79.2Z"/><path stroke-miterlimit="10" d="M52.6 111.4c6 3.3 10.4 8 5.7 14.2-9.8 13.2-24.3 21-15 28.3s33.5 1.3 30.2-19a51.1 51.1 0 0 1-.2-23.5Z"/><circle cx="69.2" cy="195.7" r="12.2" stroke-miterlimit="10" transform="rotate(-22.5 69.2 195.7)"/><path stroke-miterlimit="10" d="M107.7 184.5a5 5 0 1 1-5-5 5 5 0 0 1 5 5ZM59.7 144a4 4 0 1 1-4-3.9 4 4 0 0 1 4 4Z"/></g><path fill="#d8b4a1" d="M96.7 257.8s0-4.6-6.4-11-10.6-10.2-10.6-10.2-3.3 10.6 2.7 17a113.5 113.5 0 0 0 14.3 12.5ZM87.4 286.6s0-4.6-6.5-11-10.6-10.2-10.6-10.2-3.3 10.6 2.8 17A113.5 113.5 0 0 0 87.3 295Z"/><path fill="#d8b4a1" d="M96.3 265.7s.5-4.6 7.6-10.4 11.7-9 11.7-9 2 11-4.6 16.7a113.8 113.8 0 0 1-15.5 11ZM85 299.7s1-4.5 8.6-9.5 12.6-7.7 12.6-7.7.9 11-6.3 16.2a113.6 113.6 0 0 1-16.6 9.1ZM87.1 336.8s0-4.6 6.5-11 10.6-10.2 10.6-10.2 3.2 10.6-2.8 17a113.1 113.1 0 0 1-14.3 12.5Z"/><path fill="#d8b4a1" d="M87 345.9s.7-4.6-4.8-11.9-9-11.6-9-11.6-4.8 10.1.2 17.4A113.6 113.6 0 0 0 85.8 354ZM80.7 372.8s0-4.7 6.4-11.1 10.6-10.2 10.6-10.2 3.3 10.6-2.7 17.1a113.5 113.5 0 0 1-14.3 12.5ZM85 397.1s-1.2-4.5 3.5-12.3l7.6-12.6s5.9 9.5 1.7 17.3A113.6 113.6 0 0 1 87 405Z"/><path fill="none" stroke="#263238" stroke-linecap="round" stroke-linejoin="round" d="M97.3 256.6a132 132 0 0 1-1.7 14.4c-2.6 13.2-9 21.7-11.5 33.6s4.7 27.3 2.8 42.6-7.9 23.8-6.3 34 10.7 38 10.7 38M96.3 268.7l6.9-5.3M96.6 262.6l-2.9-5.2M84.5 304l11.8-8.7"/><path fill="none" stroke="#263238" stroke-linecap="round" stroke-linejoin="round" d="M87.4 295S82.5 285.3 77 279M87.4 343.4a72.4 72.4 0 0 1 12.4-16.7M86.2 349.9a81.8 81.8 0 0 0-6.3-12 356 356 0 0 0-3.9-5.7M80.7 381.2a78.3 78.3 0 0 1 5.2-10.6 68 68 0 0 1 6.8-8.9M87 405.1a19.8 19.8 0 0 1 1.8-10.2c2.4-4.7 5.2-10.8 6.3-13.3"/><path fill="#d8b4a1" d="M54.4 319.5s-.5-3 2.9-7.7l5.5-7.5s3.2 6.3.1 11a72.5 72.5 0 0 1-7.6 9.4ZM63.4 336.5s-.5-2.9 2.9-7.6l5.5-7.5s3.2 6.3.2 11a72.5 72.5 0 0 1-7.7 9.3Z"/><path fill="#d8b4a1" d="M55.5 324.4s-.8-2.9-5.9-5.7l-8.2-4.4s-.2 7.1 4.6 10a72.6 72.6 0 0 0 11 5.1ZM66.3 344.5s-1-2.7-6.4-5-8.7-3.5-8.7-3.5.6 7 5.7 9.4a72.4 72.4 0 0 0 11.4 4ZM69 368s-.5-2.9-5.3-6.3-7.7-5.2-7.7-5.2-.9 7 3.6 10.4a71.4 71.4 0 0 0 10.3 6.3Z"/><path fill="#d8b4a1" d="M70 373.7s-.8-2.8 1.8-8 4.4-8.3 4.4-8.3 4 5.8 1.7 11a72.3 72.3 0 0 1-6.2 10.3ZM78.2 397s.3-3 4.9-6.5l7.4-5.7s1.3 7-3 10.6a72.5 72.5 0 0 1-10 6.9ZM77 389.8s-.5-2.9-5.3-6.2l-7.7-5.3s-.9 7 3.6 10.5a72.5 72.5 0 0 0 10.3 6.2ZM77 405.6s.2-3-3.6-7.4l-6.2-7s-2.6 6.5.9 11a72.2 72.2 0 0 0 8.4 8.7Z"/><path fill="none" stroke="#263238" stroke-linecap="round" stroke-linejoin="round" d="M54 318.8a85.8 85.8 0 0 0 2.6 8.8c3 8 8 12.6 10.9 19.8s0 17.7 2.8 27 7.6 14.1 7.6 20.7-2.6 25-2.6 25M55.9 326.3l-4.9-2.6M55 322.5l1.3-3.6M67.2 347.1l-8.4-4.2"/><path fill="none" stroke="#263238" stroke-linecap="round" stroke-linejoin="round" d="M64.3 341.8a59.8 59.8 0 0 1 4.8-11.1M69.6 372.1A45.8 45.8 0 0 0 60 363M71 376a51.4 51.4 0 0 1 2.7-8.1l1.8-4M77.7 400.1a43.7 43.7 0 0 1 5.3-5.5 28.6 28.6 0 0 0 3.5-3M78 395.1a49.4 49.4 0 0 0-4.5-6.1 44 44 0 0 0-5.3-4.8M76.5 410.8a12.7 12.7 0 0 0-2.2-6.2l-5.4-7.7"/><path fill="#263238" stroke="#263238" stroke-linecap="round" stroke-linejoin="round" d="M95.5 464h-27a2.1 2.1 0 0 1-2.1-2.1l-6.7-44.7h44.6l-6.7 44.7a2.1 2.1 0 0 1-2.1 2.1Z"/><path fill="#fff" d="M127.6 77.1h169.3V464H127.6z"/><path fill="#fff" stroke="#263238" stroke-miterlimit="10" d="M171.6 263.4c-5 18.6-9 27.3-9 31.7s1.9 13.6 1.9 13.6 2.2 9.2 2.2 11.9-.4 11.6-2 12.3-2-4.6-2-4.6-.7 5 .3 7.6 1.7 5 0 5-7-4.3-8.6-7.3-3.4-8.7-3.7-16.3 1-21 1-21-1.7-26 0-38 1-16 2.7-27 3.6-31.8 13.6-38.8 26-9.4 26-9.4 3.6-2 4 6-10.7 27-15.7 42.3-10.7 32-10.7 32Z"/><path fill="none" stroke="#263238" stroke-miterlimit="10" d="m163.2 326.7.7-9"/><path fill="#fff" stroke="#263238" stroke-miterlimit="10" d="M265 189.8c-5.3-7.2-26.6-7.5-30.4-8.6s-6.8-6.8-7.4-8-.9-7.4-.9-7.4l.3-3.6-23.7-.9s1.5 8.3-1.2 15.4c-1 2.6-4 4.2-8.1 5.4a117.9 117.9 0 0 1-9.3 21.4c-6.7 11.6-12 20-9.7 28.3s4 10 4 10-5 7.6-6.6 15.6a29.2 29.2 0 0 0 .3 14s-8.6 18.6-7.6 29.3c.4 4.8 1.3 11.4 2.1 17.2.2-.4 4 16.7 7.4 24.7a58.1 58.1 0 0 1 4.4 25.2c-.3 8.3-1.5 21.3-1.2 34s5.4 37.6 5.4 42.6a69.9 69.9 0 0 1-1.2 13c-.6 2.7.9 3 3.2 3.9s15.1 0 15.1 0a5.5 5.5 0 0 0 1.5-3.6c0-2-5.6-10.7-5.6-13.6a65.5 65.5 0 0 1 .6-12.2c.9-6.5 12.1-37.6 15.1-53s5-28 5.3-30.7l2.4-21s1.8 23.3 1.8 30.2.9 11.2 1.7 16.8a22 22 0 0 0 3.3 9s-1.5 12.4 0 23 8 25.5 10 29.6 1.9 12.5 1.9 14.2-.3 8.3.8 9.2 24 0 25 0 1.7-3.2.2-4.7-4.4-2-7.7-6.8-4.1-13.6-3.8-16.3 3.2-21.6 3.2-36.1-2-22.6-2-22.6 15-28.7 13-53a202.7 202.7 0 0 0-10.1-46.1s3.5-7.2 2.3-13.7-2-8.6-2-8.6l-3-11.8 28.6 1.6s-6.6-37.1-17.3-51.3Z"/><path fill="#263238" stroke="#263238" stroke-miterlimit="10" d="M226.6 170v-.6l-10.7-4.7c-1.7-.4-8.4-1-12.7-1.2a34.4 34.4 0 0 1-.6 10.6 30 30 0 0 0 10 .3c9.7-1.2 13-3.6 14-4.5Z"/><path fill="none" stroke="#263238" stroke-miterlimit="10" d="M242.8 369s1.8 5.2-3.8 9.3M253 368.6s0 6.9-3.1 9M193.4 367s-1.6 7-6.9 9.4M188.7 380.1s3.1 7.5 9.6 6 8.1-6.3 8.1-6.3M219.2 327.1l-.3-7.7"/><path fill="#d8b4a1" stroke="#263238" stroke-miterlimit="10" d="M167.4 284.8s13.3 2 24 10 26.3 23.8 27.5 24.6 8.9-9.4 13.6-15.3 18.7-15.4 27.3-19.3c0 0-1.5-7.7-4.5-13 0 0-20.4 9.5-38.8 8s-41.7-14-41.7-14-6 13.7-7.4 19Z"/><path fill="#fff" stroke="#263238" stroke-miterlimit="10" d="M175.7 232.4s2.3 6.9-1.9 16-4.4 16.6-1.2 23.4 23.8 16.9 49.3 16.6 32-9.2 35.5-16.3 1.8-12.8-.6-20.8-3.6-13.3-3.6-13.3-31.3-4.2-46.1-4.2-31.4-1.4-31.4-1.4Z"/><path fill="#d8b4a1" stroke="#263238" stroke-miterlimit="10" d="M194 182s-6.8 11.6-12.1 21.7-9.2 13.9-9.2 22.8 3 14.8 13.6 18.3 20.4 1 28.7-1.4 20.8 5 28.8 4c10.6-1 17.1-9 17.1-19.4s-11.5-27.3-15.4-33.8a92.2 92.2 0 0 0-9.4-12.7l-4.2-2.1s5.6 11 7.1 15.4l3.3 9.5S226.6 209 217 209s-27.5-8-27.5-8l8.6-20.7Z"/><path fill="none" stroke="#263238" stroke-miterlimit="10" d="M209.3 200.7s7.3 6.3 9.2 15.5"/><path fill="#fff" stroke="#263238" stroke-miterlimit="10" d="M265.8 233s-7.5 6.5-14.6 12.4-16.3 14.3-16.3 14.3-12.4-2-15.3-2-5.9 3-8.5 4 2 1.9 3.3 1.9 5.2-.7 5.2-.7-6.2 4.3-8.8 6.6-6.5 5.2-5.5 5.8 4.2-1.3 7.8-3.2a38.5 38.5 0 0 1 5.5-2.6s-8.8 8.1-10 9-.4 2.4 3.2.4l11.7-6.5-9.1 6.8s.6 1.7 3.3.4l8.7-4.6s-5.5 4.2-3.9 4.2 5-2.2 7.5-4.2 7.5-6.8 7.5-6.8 22.8-6.2 32.6-10.5 13-11.4 12.3-16.6-6.8-21.4-6.8-21.4"/><path fill="#263238" stroke="#263238" stroke-miterlimit="10" d="M196.1 105.4s-11.5 10.7-12.7 19.6l3.2-.9s-8.3 11.3-8 23.7 27.9 21.3 37.6 21.6 19.3-4.1 29.7-10.3 6.2-20.8 3-30-4.8-18.3-19.9-26.6-27-1-32.9 2.9Z"/><path fill="#fff" stroke="#263238" stroke-miterlimit="10" d="M194.6 140.3s1.2 14.6 6.5 23.7 17 9 22 8 9.4-3.8 11.8-14.2a60 60 0 0 0 .6-20.7l-5-8s-8.3 3.9-12.1 4.5l-5.7.8 6.5-7.7a122.3 122.3 0 0 1-13 9c-7.1 4-11.6 4.7-11.6 4.7Z"/><path fill="#263238" stroke="#263238" stroke-miterlimit="10" d="M212 144.5c0 1.3-.6 2.4-1.4 2.4s-1.5-1.1-1.5-2.4.7-2.4 1.5-2.4 1.5 1 1.5 2.4ZM225.7 144.5c0 1.3-.6 2.4-1.5 2.4s-1.4-1.1-1.4-2.4.6-2.4 1.4-2.4 1.5 1 1.5 2.4Z"/><path fill="none" stroke="#263238" stroke-miterlimit="10" d="M221 149a3.7 3.7 0 0 1-2.4 3c-2 .5-4.1-1.6-4.1-1.6M215.9 158.7h3.6M210.9 136.2l-5.6 5.9M223.1 136.2l5.9 5.9"/><path fill="#263238" stroke="#263238" stroke-miterlimit="10" d="M127.6 77v387H297V77Zm160.7 375.3h-152V88.8h152Z"/><path fill="none" stroke="#263238" stroke-miterlimit="10" d="m268.7 124.4-28.1 51.8M284.5 95.2l-9.8 18.2M151.8 403.3l-6.6 12.3M189.1 334.5l-32.9 60.8M166 360.5l-20.8 38.4M272.4 95.2l-16.9 31.3"/><g stroke="#263238" stroke-miterlimit="10"><path fill="#fff" d="m381.2 222.3-29.5 13.4-.4 7s40.5-6 48-8 3-6.9 0-13.5"/><path fill="#fff" d="M388.1 234 367 202.3c0 9.3-7.1 35.7-6.5 38.6s11.6 20.7 11.6 41.6-13.5 72-13.5 72a119.6 119.6 0 0 0 4.5 14.2 94.4 94.4 0 0 1 4.5 31.3v41.5c0 3.2 2.5 13.2 2.9 15.1 1.6 6.8-1.6 7-1.6 7h-27l-.7-2.5 9.7-3.9 6.8-3.5s-4.2-26.7-6.8-37.3-13.6-44.8-14.8-50.3-.6-51.8-.6-51.8l-.4-12.5-2.9 5.4-2.3 45.4V384c0 14.8-3.8 54.4-3.8 60.8s1.6 12.2 1.6 15.8a3.3 3.3 0 0 1-3.2 3.5h-24.2c-1.2 0-5.1-2-3.5-2.6s11-5.4 11.9-6 5.8-5.6 5.8-5.6 0-6.4-.6-12.2-4.2-34.1-6.2-44.7-2.5-28.7-2.5-37.4-2-15.4-4.5-25-5.8-41.6-3.3-54.8 9.7-23.8 12.3-29.3.3-10.3-.7-13.8-6-24.2-6-24.2l-5.6 39a93.5 93.5 0 0 1-1.9 18c-2 8.4-8 39.9-8 39.9s3.2 6.8 3.2 8.7.3 6.7-.3 9.6-2.3 1-2.3 1l2 6.5s-.4 2.9-1.7 3.8-5.4-2.2-5.4-2.2-2-7.7-2.3-10a96.5 96.5 0 0 1 .3-13.5c.3-2.6-1-35.4-1-41.2s2.6-16.1 3.2-19 3.3-61.5 5.8-68.2 8.4-10 15.8-10.7 16.4-1.9 18.4-4.2S325 155 325 155l19-.6s1 9.3 1.3 10.3 9.3 3.5 16 3.8 12.3-1.2 17.5 5.2 5.6 8.8 6.6 15.3 17 38.8 17 38.8"/><path fill="none" d="M288.4 314.9a18.2 18.2 0 0 1-1 6 13 13 0 0 0-1.2 4.7l-.7 1.7s-.6 1 1.1 4.3"/><path fill="#d8b4a1" d="M370.7 297.2a110.9 110.9 0 0 0 1.3-14.7 77 77 0 0 0-5-26c-31.3 9.8-53.4 1-61.1-3.1-3.1 5.7-6.9 13.4-8.6 22.3a61.2 61.2 0 0 0-.9 9.8c21.7 20.9 38.6 16.3 38.6 16.3a59.1 59.1 0 0 0 35.7-4.6Z"/><path fill="none" d="M335 301.8s4.5-7.7 5.2-15.2M339.8 252.5s-2-8.3-2-10.3 3.3-16 3.3-26.4M340.5 192.7s-.3-11-2-18.4"/><path fill="#d8b4a1" d="M365 216c.8-4 1.4-7.8 1.7-10.8l.1-7-7.7-1.3-4-29.1-4-.9 1.3 29h-26.7l-4.4-28.8a20.4 20.4 0 0 1-3.3 1.1l.9 28.7-16.4 2.9.3 8.7 2.6 10.3A66.6 66.6 0 0 1 337 211c14.8.3 24.8 3.7 28.1 5Z"/><path fill="none" d="M302.5 199.8s-2.7-5.2-2.2-10.5M366.9 198.1s.8-2.3.8-9"/><path fill="#263238" d="M332.8 90a19.5 19.5 0 0 0-16.8 1.3c-9 5-11.8 15-11.8 15l2.7.4s-5.9 14.1-7.7 25.9 5 18.2 9.5 20 21.4 7.3 32.7 6 25-7.4 28.2-16 1.8-31.8-8.2-43.6-19.5-15.9-28.6-9Z"/></g><g fill="none" stroke="#263238" stroke-miterlimit="10"><path d="M470 464h11.9M9 464h446"/></g></svg>