<svg xmlns="http://www.w3.org/2000/svg" viewBox="0 0 500 500"><path d="m442.5 240-62.6-106a3 3 0 0 0-5.2 0l-29.3 49.5L327 160a3 3 0 0 0-4.8 0L275 224.9v-.3l-89.2-122.2a3.3 3.3 0 0 0-5.3 0L160.4 128l-32.2-54.4a3.3 3.3 0 0 0-5.8 0L58.8 181.2v98.9h383.8Z" fill="#d8b4a1"/><path d="m442.5 240-62.6-106a3 3 0 0 0-5.2 0l-29.3 49.5L327 160a3 3 0 0 0-4.8 0L275 224.9v-.3l-89.2-122.2a3.3 3.3 0 0 0-5.3 0L160.4 128l-32.2-54.4a3.3 3.3 0 0 0-5.8 0L58.8 181.2v98.9h383.8Z" fill="#fff" opacity=".8"/><path d="M106.3 115.7a4 4 0 0 0 5.5-.2l9.4-9.8a4 4 0 0 1 5.8.2l2 2.4a4 4 0 0 0 5.8 0 4 4 0 0 1 6.1.7l1.4 2a4 4 0 0 0 7-1.4v-.1l-21.1-36a3.3 3.3 0 0 0-5.8 0l-21.8 37ZM168 119.5l5.3-2.2a2.5 2.5 0 0 1 3.2 1l1 1.5a2.5 2.5 0 0 0 3.9.6l1.1-1a2.5 2.5 0 0 1 4 .5l1.8 3.1a2.5 2.5 0 0 0 4.6-.3l.7-1.7a2.5 2.5 0 0 1 3.3-1.4 2.5 2.5 0 0 0 1.6.1L186 102.4a3.3 3.3 0 0 0-5.4-.1L167 119.7a2.6 2.6 0 0 0 1-.2ZM394.6 172.3a3.6 3.6 0 0 1-5-.2l-8.6-8.9a3.6 3.6 0 0 0-5.3.1l-1.9 2.2a3.6 3.6 0 0 1-5.2.1 3.6 3.6 0 0 0-5.5.5l-1.3 1.9a3.6 3.6 0 0 1-6.4-1.2v-.2l19.3-32.6a3 3 0 0 1 5.2 0l19.8 33.6ZM338.5 175.7l-4.9-2a2.3 2.3 0 0 0-2.9 1l-.8 1.3a2.3 2.3 0 0 1-3.6.5l-1-1a2.3 2.3 0 0 0-3.6.5l-1.7 3a2.3 2.3 0 0 1-4.1-.4l-.7-1.6a2.3 2.3 0 0 0-3-1.2 2.3 2.3 0 0 1-1.5.1l11.5-15.8a3 3 0 0 1 4.9 0l12.3 15.8a2.5 2.5 0 0 1-1-.2Z" fill="#fff" opacity=".7"/><path opacity=".1" d="m166.8 128 13.7-25.7-20.1 25.7 16.3 23.9-9.9-23.9zM339.6 183.5l-12.5-23.4 18.3 23.4-14.8 21.6 9-21.6z"/><ellipse cx="250" cy="352.7" rx="231.3" ry="133.6" fill="#d8b4a1"/><ellipse cx="250" cy="352.7" rx="231.3" ry="133.6" fill="#fff" opacity=".3"/><path d="M392.9 195.7a6.5 6.5 0 0 0-3.6.7 35.6 35.6 0 0 0-5.7 4 11.6 11.6 0 0 1-6.4 2.8c-2.3 0-4.9-1.4-5.3-3.7a3.3 3.3 0 0 0-.3-1.2 1.7 1.7 0 0 0-2-.5 10.7 10.7 0 0 0-2 1.1c-2.3 1.4-5.3 1.1-8 .7-2.3-.3-5.2-1.3-5.2-3.6 0-1.5 1.3-2.6 2.4-3.7s1.8-2.9.9-4a2.9 2.9 0 0 0-1.3-.8c-2.9-1-6.3.3-8.7-1.5a5 5 0 0 1-1.3-6 7.6 7.6 0 0 1 5.1-3.9c2-.5 4.4-.7 5-2.5.7-1.7-.6-3.4-2-4.4s-3-1.7-4-3a4.9 4.9 0 0 1-.2-5.2 6.2 6.2 0 0 1 4.3-3 9.5 9.5 0 0 0 2.6-.5 1.7 1.7 0 0 0 1-2.2c-.3-.5-.8-.7-1.1-1.1a2 2 0 0 1 .7-2.7 10.3 10.3 0 0 1 3-1.1c2-.7 4-2.7 3.4-4.8s-3.6-2.9-4.5-5c-.8-1.9.5-4 2.1-5.1s3.7-1.6 5.5-2.5 3.5-2.3 3.7-4.3-1.4-3.8-2.6-5.4-2.4-4-1.3-5.7 3.4-1.7 5.3-2.3a8.5 8.5 0 0 0 5.2-4.7c.5-1.2.7-2.4 1.3-3.5 1.9-3.5 6.6-5 10.2-4.6 1.9.3 2.5 1 3.4 2.4a5.5 5.5 0 0 1 1.3 2.4c.3 1.6-.6 3.8 1 5 2.4 2 6-.7 6 3.6a18 18 0 0 1-.9 5.4c-.6 1.8-2 2.6-.8 4.6 1.4 2.6 2.3 2.6 5 2.6 2 0 3.8 0 5.3 1.5 2.6 2.7 1 5.1-1.3 7.2-2.6 2.4-1.2 3.4-.9 6.5.2 1.5-.1 2 1.2 3 2.5 1.8 3.9 1.1 3.2 4.8-.7 3.3.3 2.2 3.2 3.4 2.6 1.1 4.2 3.8 6.3 5.6 1.3 1 3.4 2 3.5 3.8.2 3.8-4.4 3-6.6 3.8-3.5 1.5-2.5 6.2.3 8 3 1.8 7.3 2.5 7.5 6.7.2 3.3-1.6 4-4.2 5-2 1-1.7 1.2-1.7 3.6 0 4.8-1.7 6.2-6.4 5.4-1.3-.2-3.3-.7-4.7-.3-1.8.5-1.2 1-1.2 2.5-.1 3.9-4.7 2.8-6.6 1.1-2.3-1.8-5.1-4.1-8.1-4.4Z" fill="#d8b4a1"/><path d="M392.9 195.7a6.5 6.5 0 0 0-3.6.7 35.6 35.6 0 0 0-5.7 4 11.6 11.6 0 0 1-6.4 2.8c-2.3 0-4.9-1.4-5.3-3.7a3.3 3.3 0 0 0-.3-1.2 1.7 1.7 0 0 0-2-.5 10.7 10.7 0 0 0-2 1.1c-2.3 1.4-5.3 1.1-8 .7-2.3-.3-5.2-1.3-5.2-3.6 0-1.5 1.3-2.6 2.4-3.7s1.8-2.9.9-4a2.9 2.9 0 0 0-1.3-.8c-2.9-1-6.3.3-8.7-1.5a5 5 0 0 1-1.3-6 7.6 7.6 0 0 1 5.1-3.9c2-.5 4.4-.7 5-2.5.7-1.7-.6-3.4-2-4.4s-3-1.7-4-3a4.9 4.9 0 0 1-.2-5.2 6.2 6.2 0 0 1 4.3-3 9.5 9.5 0 0 0 2.6-.5 1.7 1.7 0 0 0 1-2.2c-.3-.5-.8-.7-1.1-1.1a2 2 0 0 1 .7-2.7 10.3 10.3 0 0 1 3-1.1c2-.7 4-2.7 3.4-4.8s-3.6-2.9-4.5-5c-.8-1.9.5-4 2.1-5.1s3.7-1.6 5.5-2.5 3.5-2.3 3.7-4.3-1.4-3.8-2.6-5.4-2.4-4-1.3-5.7 3.4-1.7 5.3-2.3a8.5 8.5 0 0 0 5.2-4.7c.5-1.2.7-2.4 1.3-3.5 1.9-3.5 6.6-5 10.2-4.6 1.9.3 2.5 1 3.4 2.4a5.5 5.5 0 0 1 1.3 2.4c.3 1.6-.6 3.8 1 5 2.4 2 6-.7 6 3.6a18 18 0 0 1-.9 5.4c-.6 1.8-2 2.6-.8 4.6 1.4 2.6 2.3 2.6 5 2.6 2 0 3.8 0 5.3 1.5 2.6 2.7 1 5.1-1.3 7.2-2.6 2.4-1.2 3.4-.9 6.5.2 1.5-.1 2 1.2 3 2.5 1.8 3.9 1.1 3.2 4.8-.7 3.3.3 2.2 3.2 3.4 2.6 1.1 4.2 3.8 6.3 5.6 1.3 1 3.4 2 3.5 3.8.2 3.8-4.4 3-6.6 3.8-3.5 1.5-2.5 6.2.3 8 3 1.8 7.3 2.5 7.5 6.7.2 3.3-1.6 4-4.2 5-2 1-1.7 1.2-1.7 3.6 0 4.8-1.7 6.2-6.4 5.4-1.3-.2-3.3-.7-4.7-.3-1.8.5-1.2 1-1.2 2.5-.1 3.9-4.7 2.8-6.6 1.1-2.3-1.8-5.1-4.1-8.1-4.4Z" opacity=".1"/><path d="M356.4 187.5c-2.2-.7-4.8-.2-7-.7a25 25 0 0 1 4-.6 11 11 0 0 1 8.3 3.3 7.5 7.5 0 0 0-1.7 5c5.4 1.5 10.8-5.8 16-3.6-.4 2.6 0 6.2 2.5 6.7 1.5.4 3-.6 4-1.9s1.4-2.6 2.4-3.9a8.3 8.3 0 0 1 11-1.6c1.1.9 3.7 2.8 5 1.3.6-.5.4-1.2.7-1.9a5.1 5.1 0 0 1 .7-1.2c.7-1 .3-2-1-2.4a31.9 31.9 0 0 0-3.4-.5 4 4 0 0 1-2.7-2.2 3 3 0 0 1 .5-3.3c.5-.5 1-.7 1.5-1.1a1.4 1.4 0 0 0 .5-1.7 1.8 1.8 0 0 0-.7-.6q-3-2-5.7-4.1c-1.1-.9-2.3-1.8-2.4-3.2a3.7 3.7 0 0 1 .8-2.6c1.6-2.1 4.5-3.3 5.2-5.8a13 13 0 0 1 .7-2.8c.6-1.2 2.2-1.6 3.5-1.9a3.4 3.4 0 0 0 2.6-1.3 2.3 2.3 0 0 0 .1-1.6c-.5-2.5-3-4-4-6.3a6.6 6.6 0 0 1 1.2-6 20.8 20.8 0 0 1 8-6.1 20 20 0 0 0 3.6-1.7v-.1c0 1.5-1.1 3-2.5 4.2-2.7 2.4-1.3 3.4-1 6.5.2 1.4-.1 2 1.2 2.9 2.5 1.9 3.9 1.2 3.2 4.9-.6 3.3.4 2.1 3.2 3.4 2.6 1 4.3 3.8 6.3 5.5 1.4 1.1 3.4 2 3.5 4 .3 3.6-4.3 2.8-6.5 3.7-3.6 1.5-2.5 6.1.2 7.9 3 1.9 7.3 2.5 7.6 6.8.1 3.2-1.7 4-4.2 5-2 1-1.8 1.2-1.8 3.6 0 4.8-1.6 6.2-6.4 5.4-1.3-.2-3.3-.8-4.6-.4-1.9.6-1.2 1-1.3 2.6-.1 3.9-4.7 2.8-6.6 1.1-2.2-2-5-4.2-8-4.5a6.5 6.5 0 0 0-3.5.7 35.6 35.6 0 0 0-5.8 4 11.6 11.6 0 0 1-6.3 2.8c-2.4 0-5-1.4-5.4-3.7a3.3 3.3 0 0 0-.3-1.2 1.7 1.7 0 0 0-2-.5 10.7 10.7 0 0 0-2 1.1c-2.3 1.4-5.3 1.1-8 .7-2.3-.3-5.1-1.3-5.1-3.6 0-1.5 1.3-2.6 2.3-3.7s1.9-2.9 1-4a2.9 2.9 0 0 0-1.4-.8Z" opacity=".1"/><path d="m400.3 155.8-13 25.9v-12l-1.4-50.7-1.9 50.8v8l-14.3-25.1 14.3 30.8v79.7a.8.8 0 0 0 .5.7 2.5 2.5 0 0 0 2.3 0 .8.8 0 0 0 .5-.7v-75Z" fill="#37474f"/><path d="M399.7 266.2c-6.3 1-12-.7-13-7.6a61.4 61.4 0 0 1 0-17.1c.2-2 1-4.5 3-5 1.6-.5 3.3.7 4 2.3a11.2 11.2 0 0 1 .8 5c1-2.3 2.5-4.8 5-4.9 2.2 0 4 2.3 4 4.6s-1 4.4-2 6.4c1.7-.2 3.6-.3 5 .8 1.5 1.3 1.3 4 .1 5.7s-3.1 2.6-5 3.5a2.3 2.3 0 0 1 3 1.5 3.5 3.5 0 0 1-1.2 3.5 7.5 7.5 0 0 1-3.7 1.3Z" fill="#455a64"/><path d="m388.7 269-15.3-8.8a12.2 12.2 0 0 1-3.3-3.1 8.8 8.8 0 0 1-1.9-4 2 2 0 0 1 .2-1.5c.5-.8 1.8-.6 2.6.1l2 2a23 23 0 0 1-.2-5.3 2.3 2.3 0 0 1 .6-1.8 2 2 0 0 1 2.1 0c2 1.2 2.9 3.5 3.6 5.7a18.4 18.4 0 0 1 .2-6.7c.5-2.4 3.2-3.4 4.2-1a13.6 13.6 0 0 1 .8 3.8 15.7 15.7 0 0 1-.3 5 15.9 15.9 0 0 1 4-5.6 2.5 2.5 0 0 1 2.4-.8c1 .4 1.1 1.7 1 2.7a14.6 14.6 0 0 1-2.1 6.2 12.8 12.8 0 0 1 5.2-2 1.5 1.5 0 0 1 1.6.5 2 2 0 0 1-.4 2 12.9 12.9 0 0 1-4 3.9 13.2 13.2 0 0 1 5-.5 1.7 1.7 0 0 1 1.3.5c.4.7-.1 1.5-.7 2a15 15 0 0 1-3.6 2.2 5.3 5.3 0 0 1 2.3.3 1.8 1.8 0 0 1 1 1.9 2.2 2.2 0 0 1-1.7 1.4c-2.9 1-3.7 1.3-6.6.9Z" fill="#d8b4a1"/><path d="m388.7 269-15.3-8.8a12.2 12.2 0 0 1-3.3-3.1 8.8 8.8 0 0 1-1.9-4 2 2 0 0 1 .2-1.5c.5-.8 1.8-.6 2.6.1l2 2a23 23 0 0 1-.2-5.3 2.3 2.3 0 0 1 .6-1.8 2 2 0 0 1 2.1 0c2 1.2 2.9 3.5 3.6 5.7a18.4 18.4 0 0 1 .2-6.7c.5-2.4 3.2-3.4 4.2-1a13.6 13.6 0 0 1 .8 3.8 15.7 15.7 0 0 1-.3 5 15.9 15.9 0 0 1 4-5.6 2.5 2.5 0 0 1 2.4-.8c1 .4 1.1 1.7 1 2.7a14.6 14.6 0 0 1-2.1 6.2 12.8 12.8 0 0 1 5.2-2 1.5 1.5 0 0 1 1.6.5 2 2 0 0 1-.4 2 12.9 12.9 0 0 1-4 3.9 13.2 13.2 0 0 1 5-.5 1.7 1.7 0 0 1 1.3.5c.4.7-.1 1.5-.7 2a15 15 0 0 1-3.6 2.2 5.3 5.3 0 0 1 2.3.3 1.8 1.8 0 0 1 1 1.9 2.2 2.2 0 0 1-1.7 1.4c-2.9 1-3.7 1.3-6.6.9Z" opacity=".3"/><path d="M451 183.9a7.8 7.8 0 0 0-4.2.8c-2.6 1.2-4.7 3.1-7 4.8s-4.7 3.2-7.6 3.3-5.8-1.6-6.3-4.4a4.2 4.2 0 0 0-.4-1.4 2 2 0 0 0-2.4-.6 12.3 12.3 0 0 0-2.3 1.3c-2.9 1.7-6.4 1.3-9.7.8-2.7-.4-6.2-1.6-6.2-4.3 0-1.8 1.6-3.1 2.8-4.4s2.3-3.5 1.2-4.8a3.3 3.3 0 0 0-1.6-1c-3.4-1.1-7.6.3-10.5-1.8a6 6 0 0 1-1.5-7.2 9.2 9.2 0 0 1 6.1-4.7c2.3-.6 5.2-.8 6-3 .8-2-.7-4-2.4-5.3s-3.7-2-4.9-3.7a5.9 5.9 0 0 1-.1-6 8.6 8.6 0 0 1 3-3c1-.6 2-.6 3-1.2a2.5 2.5 0 0 0 1.3-2.5 13.9 13.9 0 0 0-.6-1.6 3.3 3.3 0 0 1 1-3.4 8 8 0 0 1 3.4-1.6c1.2-.3 3-.5 4.2-1.3a3.9 3.9 0 0 0 1.3-4c-.7-2.6-4.3-3.4-5.3-6-1-2.1.5-4.7 2.5-6s4.4-2 6.5-3 4.3-2.8 4.5-5.2-1.7-4.5-3.2-6.5-2.8-4.7-1.4-6.7 4-2.1 6.3-2.9a10.2 10.2 0 0 0 6.2-5.6c.6-1.3.9-2.9 1.6-4.2 2.2-4.1 7.8-6 12.2-5.4 2.3.3 3 1.1 4.1 2.8.7 1 1.3 1.5 1.5 2.9.4 2-.7 4.5 1.2 6 2.9 2.3 7.2-.8 7 4.3a22.3 22.3 0 0 1-1 6.5c-.7 2.1-2.3 3-1 5.5 1.7 3.2 2.8 3.1 6.2 3.1 2.4 0 4.4 0 6.2 1.7 3.2 3.3 1.3 6.2-1.5 8.7-3.2 2.9-1.5 4.1-1 7.8.1 1.8-.3 2.3 1.3 3.5 3 2.2 4.7 1.5 3.8 5.9-.7 4 .5 2.6 4 4 3 1.4 5 4.7 7.5 6.7 1.6 1.3 4 2.4 4.1 4.7.3 4.4-5.2 3.5-7.8 4.5-4.3 1.7-3 7.4.3 9.5 3.6 2.2 8.7 3 9 8.1.2 4-2 4.8-5 6-2.4 1-2 1.4-2 4.3 0 5.8-2 7.5-7.8 6.5-1.5-.2-4-.9-5.5-.4-2.2.6-1.5 1.2-1.5 3-.2 4.7-5.6 3.3-8 1.3-2.6-2.2-6-4.8-9.6-5.2Z" fill="#d8b4a1"/><path d="M451 183.9a7.8 7.8 0 0 0-4.2.8c-2.6 1.2-4.7 3.1-7 4.8s-4.7 3.2-7.6 3.3-5.8-1.6-6.3-4.4a4.2 4.2 0 0 0-.4-1.4 2 2 0 0 0-2.4-.6 12.3 12.3 0 0 0-2.3 1.3c-2.9 1.7-6.4 1.3-9.7.8-2.7-.4-6.2-1.6-6.2-4.3 0-1.8 1.6-3.1 2.8-4.4s2.3-3.5 1.2-4.8a3.3 3.3 0 0 0-1.6-1c-3.4-1.1-7.6.3-10.5-1.8a6 6 0 0 1-1.5-7.2 9.2 9.2 0 0 1 6.1-4.7c2.3-.6 5.2-.8 6-3 .8-2-.7-4-2.4-5.3s-3.7-2-4.9-3.7a5.9 5.9 0 0 1-.1-6 8.6 8.6 0 0 1 3-3c1-.6 2-.6 3-1.2a2.5 2.5 0 0 0 1.3-2.5 13.9 13.9 0 0 0-.6-1.6 3.3 3.3 0 0 1 1-3.4 8 8 0 0 1 3.4-1.6c1.2-.3 3-.5 4.2-1.3a3.9 3.9 0 0 0 1.3-4c-.7-2.6-4.3-3.4-5.3-6-1-2.1.5-4.7 2.5-6s4.4-2 6.5-3 4.3-2.8 4.5-5.2-1.7-4.5-3.2-6.5-2.8-4.7-1.4-6.7 4-2.1 6.3-2.9a10.2 10.2 0 0 0 6.2-5.6c.6-1.3.9-2.9 1.6-4.2 2.2-4.1 7.8-6 12.2-5.4 2.3.3 3 1.1 4.1 2.8.7 1 1.3 1.5 1.5 2.9.4 2-.7 4.5 1.2 6 2.9 2.3 7.2-.8 7 4.3a22.3 22.3 0 0 1-1 6.5c-.7 2.1-2.3 3-1 5.5 1.7 3.2 2.8 3.1 6.2 3.1 2.4 0 4.4 0 6.2 1.7 3.2 3.3 1.3 6.2-1.5 8.7-3.2 2.9-1.5 4.1-1 7.8.1 1.8-.3 2.3 1.3 3.5 3 2.2 4.7 1.5 3.8 5.9-.7 4 .5 2.6 4 4 3 1.4 5 4.7 7.5 6.7 1.6 1.3 4 2.4 4.1 4.7.3 4.4-5.2 3.5-7.8 4.5-4.3 1.7-3 7.4.3 9.5 3.6 2.2 8.7 3 9 8.1.2 4-2 4.8-5 6-2.4 1-2 1.4-2 4.3 0 5.8-2 7.5-7.8 6.5-1.5-.2-4-.9-5.5-.4-2.2.6-1.5 1.2-1.5 3-.2 4.7-5.6 3.3-8 1.3-2.6-2.2-6-4.8-9.6-5.2Z" fill="#fff" opacity=".1"/><path d="M407.3 174c-2.6-.8-5.7-.2-8.3-.8a31.6 31.6 0 0 1 4.6-.7 13.1 13.1 0 0 1 10 4 9 9 0 0 0-2 6c6.5 1.8 13-7 19.1-4.3-.3 3.1 0 7.4 3 8 1.9.5 3.7-.7 4.8-2.2s1.8-3.3 3-4.7a10 10 0 0 1 13.1-2c1.7 1.3 3.8 3.1 5.5 1.9s.7-4.8 2.7-5.8c1.3-.7 3.1.3 4.3-.6a3 3 0 0 0 .7-1.6c.8-3.4 1.5-7.2-.6-9.9-1.9-2.4-5.8-3.9-5.4-6.9.4-2.5 3.6-3.3 6.2-3.6s5.9-1.6 5.7-4.1-3.5-3.8-4-6.3c-.3-1 .1-2.3-.4-3.2-.7-1.5-2.8-1.5-4-2.6-2.3-2-.5-5.6-1.2-8.5-.4-2-2-3.6-2.6-5.7-1-4 2.6-7.8 6.4-9.4a23.3 23.3 0 0 0 4.3-2l.2-.1c-.1 1.8-1.5 3.5-3.2 5-3.1 2.8-1.4 4-1 7.7.2 1.8-.2 2.4 1.3 3.6 3 2.2 4.7 1.4 3.9 5.8-.8 4 .4 2.6 3.8 4 3.1 1.4 5.1 4.7 7.6 6.8 1.6 1.3 4 2.3 4.2 4.6.3 4.5-5.3 3.5-7.9 4.5-4.3 1.8-3 7.4.4 9.5 3.5 2.2 8.7 3 9 8.1.2 4-2 4.8-5 6.1-2.5 1-2.2 1.4-2.2 4.3 0 5.8-1.9 7.4-7.6 6.5-1.6-.3-4-1-5.6-.5-2.2.7-1.4 1.2-1.5 3-.1 4.7-5.6 3.4-8 1.4-2.6-2.3-6-5-9.6-5.4a7.8 7.8 0 0 0-4.2.8c-2.5 1.2-4.6 3.2-6.9 4.9s-4.8 3.2-7.6 3.3-5.9-1.7-6.4-4.5a4.2 4.2 0 0 0-.3-1.4 2 2 0 0 0-2.5-.6 12.3 12.3 0 0 0-2.3 1.3c-2.8 1.7-6.4 1.3-9.7.9-2.7-.4-6.1-1.6-6.1-4.4 0-1.8 1.5-3.1 2.8-4.4s2.2-3.4 1.1-4.8a3.3 3.3 0 0 0-1.6-1Z" opacity=".1"/><path d="m460 136-15.7 31v-14.3L442.7 92l-2.3 60.8v9.6l-17.2-30 17.2 36.9v126a1 1 0 0 0 .6.8 3 3 0 0 0 2.7 0 1 1 0 0 0 .6-.8V174.9Z" fill="#455a64"/><path d="M457.5 297.9c-6.3 1-12-.7-13-7.7a61 61 0 0 1 0-17c.3-2.1 1-4.5 3-5 1.6-.5 3.3.7 4 2.2a11 11 0 0 1 .8 5c1-2.2 2.5-4.8 5-4.8 2.2-.1 4 2.3 4 4.5s-1 4.5-2 6.5c1.7-.3 3.6-.4 5 .7 1.5 1.4 1.4 4 .2 5.7s-3.2 2.7-5 3.6a2.3 2.3 0 0 1 3 1.5 3.5 3.5 0 0 1-1.3 3.4 7.5 7.5 0 0 1-3.7 1.4Z" fill="#37474f"/><path d="m446.5 300.6-15.3-8.8a12.2 12.2 0 0 1-3.3-3.1 8.6 8.6 0 0 1-1.9-4 2 2 0 0 1 .2-1.5c.5-.8 1.8-.5 2.6.1a28.4 28.4 0 0 1 2 2 23 23 0 0 1-.3-5.2 2.4 2.4 0 0 1 .7-1.8 2 2 0 0 1 2.1 0c2 1 2.9 3.5 3.6 5.6a18.2 18.2 0 0 1 .2-6.7c.5-2.4 3.2-3.3 4.2-1a13.6 13.6 0 0 1 .8 3.8 15.7 15.7 0 0 1-.3 5.1 15.9 15.9 0 0 1 4-5.6 2.4 2.4 0 0 1 2.4-.9c1 .4 1.1 1.7 1 2.7a14.4 14.4 0 0 1-2.1 6.2 12.8 12.8 0 0 1 5.1-2 1.5 1.5 0 0 1 1.7.5 2 2 0 0 1-.4 2.1 12.8 12.8 0 0 1-4 3.8 13.2 13.2 0 0 1 5-.5 1.7 1.7 0 0 1 1.3.6c.4.6-.1 1.4-.7 2a15 15 0 0 1-3.5 2 5.3 5.3 0 0 1 2.2.5 1.8 1.8 0 0 1 1 1.8 2.2 2.2 0 0 1-1.6 1.4c-3 1-3.8 1.4-6.7 1Z" fill="#d8b4a1"/><path d="m446.5 300.6-15.3-8.8a12.2 12.2 0 0 1-3.3-3.1 8.6 8.6 0 0 1-1.9-4 2 2 0 0 1 .2-1.5c.5-.8 1.8-.5 2.6.1a28.4 28.4 0 0 1 2 2 23 23 0 0 1-.3-5.2 2.4 2.4 0 0 1 .7-1.8 2 2 0 0 1 2.1 0c2 1 2.9 3.5 3.6 5.6a18.2 18.2 0 0 1 .2-6.7c.5-2.4 3.2-3.3 4.2-1a13.6 13.6 0 0 1 .8 3.8 15.7 15.7 0 0 1-.3 5.1 15.9 15.9 0 0 1 4-5.6 2.4 2.4 0 0 1 2.4-.9c1 .4 1.1 1.7 1 2.7a14.4 14.4 0 0 1-2.1 6.2 12.8 12.8 0 0 1 5.1-2 1.5 1.5 0 0 1 1.7.5 2 2 0 0 1-.4 2.1 12.8 12.8 0 0 1-4 3.8 13.2 13.2 0 0 1 5-.5 1.7 1.7 0 0 1 1.3.6c.4.6-.1 1.4-.7 2a15 15 0 0 1-3.5 2 5.3 5.3 0 0 1 2.2.5 1.8 1.8 0 0 1 1 1.8 2.2 2.2 0 0 1-1.6 1.4c-3 1-3.8 1.4-6.7 1Z" opacity=".3"/><path d="M50.7 179.1a7.8 7.8 0 0 1 4.2.8c2.5 1.2 4.6 3.1 6.9 4.8s4.8 3.3 7.6 3.4 5.9-1.7 6.4-4.5a4 4 0 0 1 .4-1.4 2 2 0 0 1 2.4-.6 13.4 13.4 0 0 1 2.3 1.3c2.8 1.7 6.4 1.3 9.7.9 2.7-.4 6.1-1.6 6.1-4.4 0-1.8-1.5-3.1-2.8-4.4s-2.2-3.4-1-4.8a3.3 3.3 0 0 1 1.5-1c3.4-1.1 7.6.3 10.4-1.8a6 6 0 0 0 1.6-7.2 9.2 9.2 0 0 0-6.2-4.7c-2.3-.6-5.2-.8-6-3-.7-2 .8-4 2.5-5.2s3.7-2 4.9-3.8a5.9 5.9 0 0 0 .1-6 7.4 7.4 0 0 0-5.1-3.5 11.3 11.3 0 0 1-3.2-.7c-1-.5-1.6-1.7-1.1-2.6.3-.6 1-.9 1.3-1.4.7-1 .1-2.5-.9-3.2a12.2 12.2 0 0 0-3.5-1.4c-2.5-.8-4.9-3.2-4.1-5.7s4.3-3.4 5.3-6c1-2.1-.5-4.7-2.5-6s-4.4-2-6.5-3-4.3-2.8-4.5-5.2 1.7-4.6 3.2-6.5 2.7-4.7 1.4-6.8-4-2-6.3-2.8a10.2 10.2 0 0 1-6.2-5.6c-.6-1.4-.9-3-1.6-4.2-2.2-4.2-7.9-6-12.2-5.5-2.3.3-3 1.2-4.2 2.8-.6 1-1.3 1.5-1.5 2.9-.3 2 .7 4.5-1.1 6-2.9 2.4-7.3-.8-7.1 4.4a21.9 21.9 0 0 0 1 6.5c.8 2.1 2.3 3 1 5.5-1.7 3.2-2.8 3.1-6.1 3.1-2.5 0-4.5-.1-6.3 1.7-3.1 3.3-1.3 6.2 1.5 8.7 3.2 2.9 1.5 4.1 1.1 7.8-.2 1.8.2 2.3-1.4 3.5-3 2.2-4.7 1.5-3.8 5.8.8 4-.4 2.7-3.9 4.1-3 1.4-5 4.7-7.5 6.7-1.6 1.3-4 2.4-4.2 4.7-.3 4.4 5.2 3.4 7.8 4.5 4.3 1.7 3 7.4-.3 9.5-3.5 2.2-8.7 3-9 8.1-.2 4 2 4.8 5 6 2.4 1 2.1 1.4 2.1 4.3 0 5.8 2 7.5 7.7 6.5 1.6-.2 4-.9 5.5-.4 2.2.6 1.5 1.2 1.5 3 .2 4.7 5.7 3.3 8 1.3 2.7-2.3 6-5 9.7-5.3Z" fill="#d8b4a1"/><path d="M50.7 179.1a7.8 7.8 0 0 1 4.2.8c2.5 1.2 4.6 3.1 6.9 4.8s4.8 3.3 7.6 3.4 5.9-1.7 6.4-4.5a4 4 0 0 1 .4-1.4 2 2 0 0 1 2.4-.6 13.4 13.4 0 0 1 2.3 1.3c2.8 1.7 6.4 1.3 9.7.9 2.7-.4 6.1-1.6 6.1-4.4 0-1.8-1.5-3.1-2.8-4.4s-2.2-3.4-1-4.8a3.3 3.3 0 0 1 1.5-1c3.4-1.1 7.6.3 10.4-1.8a6 6 0 0 0 1.6-7.2 9.2 9.2 0 0 0-6.2-4.7c-2.3-.6-5.2-.8-6-3-.7-2 .8-4 2.5-5.2s3.7-2 4.9-3.8a5.9 5.9 0 0 0 .1-6 7.4 7.4 0 0 0-5.1-3.5 11.3 11.3 0 0 1-3.2-.7c-1-.5-1.6-1.7-1.1-2.6.3-.6 1-.9 1.3-1.4.7-1 .1-2.5-.9-3.2a12.2 12.2 0 0 0-3.5-1.4c-2.5-.8-4.9-3.2-4.1-5.7s4.3-3.4 5.3-6c1-2.1-.5-4.7-2.5-6s-4.4-2-6.5-3-4.3-2.8-4.5-5.2 1.7-4.6 3.2-6.5 2.7-4.7 1.4-6.8-4-2-6.3-2.8a10.2 10.2 0 0 1-6.2-5.6c-.6-1.4-.9-3-1.6-4.2-2.2-4.2-7.9-6-12.2-5.5-2.3.3-3 1.2-4.2 2.8-.6 1-1.3 1.5-1.5 2.9-.3 2 .7 4.5-1.1 6-2.9 2.4-7.3-.8-7.1 4.4a21.9 21.9 0 0 0 1 6.5c.8 2.1 2.3 3 1 5.5-1.7 3.2-2.8 3.1-6.1 3.1-2.5 0-4.5-.1-6.3 1.7-3.1 3.3-1.3 6.2 1.5 8.7 3.2 2.9 1.5 4.1 1.1 7.8-.2 1.8.2 2.3-1.4 3.5-3 2.2-4.7 1.5-3.8 5.8.8 4-.4 2.7-3.9 4.1-3 1.4-5 4.7-7.5 6.7-1.6 1.3-4 2.4-4.2 4.7-.3 4.4 5.2 3.4 7.8 4.5 4.3 1.7 3 7.4-.3 9.5-3.5 2.2-8.7 3-9 8.1-.2 4 2 4.8 5 6 2.4 1 2.1 1.4 2.1 4.3 0 5.8 2 7.5 7.7 6.5 1.6-.2 4-.9 5.5-.4 2.2.6 1.5 1.2 1.5 3 .2 4.7 5.7 3.3 8 1.3 2.7-2.3 6-5 9.7-5.3Z" fill="#fff" opacity=".1"/><path d="M94.4 169.2c2.6-.8 5.7-.2 8.2-.8a30.3 30.3 0 0 0-4.6-.7 13.1 13.1 0 0 0-10 4 9 9 0 0 1 2 6c-6.5 1.8-12.9-7-19-4.3.3 3.1 0 7.4-3 8-1.8.5-3.7-.7-4.8-2.2s-1.8-3.2-2.9-4.7a10 10 0 0 0-13.2-2c-1.7 1.3-3.8 3.1-5.5 1.9s-.7-4.8-2.6-5.8c-1.4-.7-3.2.4-4.3-.6a3 3 0 0 1-.8-1.6c-.8-3.4-1.5-7.2.6-9.9 1.9-2.4 5.8-3.9 5.4-6.9-.4-2.5-3.6-3.3-6.2-3.6s-5.8-1.5-5.7-4.1 3.6-3.8 4-6.3c.3-1 0-2.2.4-3.2.7-1.5 2.8-1.5 4-2.6 2.3-2 .6-5.6 1.2-8.5.4-2 2-3.6 2.6-5.6 1.1-4-2.5-7.9-6.4-9.5a24 24 0 0 1-4.3-2l-.1-.1c0 1.8 1.4 3.5 3 5 3.3 2.8 1.6 4 1.2 7.7-.2 1.8.2 2.4-1.4 3.5-3 2.3-4.7 1.5-3.8 5.9.7 4-.5 2.6-4 4-3 1.4-5 4.7-7.5 6.7-1.6 1.4-4 2.4-4.1 4.7-.3 4.4 5.2 3.5 7.8 4.5 4.3 1.8 3 7.4-.3 9.5-3.6 2.2-8.7 3-9 8.1-.2 4 2 4.8 5 6.1 2.4 1 2 1.4 2 4.2 0 5.9 2 7.5 7.8 6.6 1.5-.3 4-1 5.5-.5 2.2.7 1.5 1.2 1.5 3 .2 4.7 5.6 3.4 8 1.4 2.6-2.4 6-5 9.6-5.4a7.8 7.8 0 0 1 4.2.8c2.5 1.2 4.7 3.1 6.9 4.8s4.8 3.2 7.6 3.3 5.9-1.6 6.4-4.4a4 4 0 0 1 .4-1.4 2 2 0 0 1 2.4-.6 13.4 13.4 0 0 1 2.3 1.3c2.9 1.7 6.4 1.3 9.7.8 2.7-.4 6.2-1.6 6.2-4.3 0-1.8-1.6-3.2-2.9-4.5s-2.2-3.3-1-4.7a3.3 3.3 0 0 1 1.5-1Z" opacity=".1"/><path d="m41.7 131.2 15.7 31V148L59 87.2l2.3 60.8v9.6l17.2-30-17.2 36.8v126a1 1 0 0 1-.6.8 3 3 0 0 1-2.8 0 1 1 0 0 1-.5-.8V170.2Z" fill="#455a64"/><path d="M44.1 293.1c6.4 1 12.1-.7 13.1-7.6a61.4 61.4 0 0 0 0-17.2c-.3-2-1-4.4-3-5-1.6-.4-3.4.8-4.1 2.4a11.2 11.2 0 0 0-.7 5c-1-2.3-2.5-4.9-5-5-2.3 0-4 2.4-4 4.7s1 4.4 2 6.4c-1.7-.3-3.7-.4-5 .8-1.5 1.3-1.4 4-.2 5.6s3.2 2.7 5 3.6a2.3 2.3 0 0 0-3 1.5 3.4 3.4 0 0 0 1.3 3.4 7.5 7.5 0 0 0 3.6 1.4Z" fill="#37474f"/><path d="m55.2 295.8 15.3-8.8a12 12 0 0 0 3.3-3.1 8.7 8.7 0 0 0 1.8-3.9 2 2 0 0 0-.1-1.5c-.6-.8-1.9-.5-2.6.1l-2 2a23 23 0 0 0 .2-5.2 2.4 2.4 0 0 0-.6-1.8 2 2 0 0 0-2.2 0c-2 1.1-2.8 3.5-3.5 5.6a18.2 18.2 0 0 0-.2-6.7c-.5-2.4-3.3-3.3-4.2-1a13.2 13.2 0 0 0-.8 3.8 15.7 15.7 0 0 0 .3 5 16 16 0 0 0-4-5.6 2.5 2.5 0 0 0-2.4-.8c-1 .4-1.1 1.7-1 2.7a14.5 14.5 0 0 0 2 6.1 12.7 12.7 0 0 0-5-2 1.6 1.6 0 0 0-1.7.6 2 2 0 0 0 .4 2 12.9 12.9 0 0 0 4 3.9 13.4 13.4 0 0 0-5-.5 1.7 1.7 0 0 0-1.3.5c-.4.7 0 1.5.6 2a14.9 14.9 0 0 0 3.6 2.2 5 5 0 0 0-2.2.3 1.8 1.8 0 0 0-1 1.8 2.3 2.3 0 0 0 1.6 1.5c3 1 3.8 1.3 6.7.8Z" fill="#d8b4a1"/><path d="m55.2 295.8 15.3-8.8a12 12 0 0 0 3.3-3.1 8.7 8.7 0 0 0 1.8-3.9 2 2 0 0 0-.1-1.5c-.6-.8-1.9-.5-2.6.1l-2 2a23 23 0 0 0 .2-5.2 2.4 2.4 0 0 0-.6-1.8 2 2 0 0 0-2.2 0c-2 1.1-2.8 3.5-3.5 5.6a18.2 18.2 0 0 0-.2-6.7c-.5-2.4-3.3-3.3-4.2-1a13.2 13.2 0 0 0-.8 3.8 15.7 15.7 0 0 0 .3 5 16 16 0 0 0-4-5.6 2.5 2.5 0 0 0-2.4-.8c-1 .4-1.1 1.7-1 2.7a14.5 14.5 0 0 0 2 6.1 12.7 12.7 0 0 0-5-2 1.6 1.6 0 0 0-1.7.6 2 2 0 0 0 .4 2 12.9 12.9 0 0 0 4 3.9 13.4 13.4 0 0 0-5-.5 1.7 1.7 0 0 0-1.3.5c-.4.7 0 1.5.6 2a14.9 14.9 0 0 0 3.6 2.2 5 5 0 0 0-2.2.3 1.8 1.8 0 0 0-1 1.8 2.3 2.3 0 0 0 1.6 1.5c3 1 3.8 1.3 6.7.8Z" opacity=".3"/><path d="m426 396.3 11.1 8.3-43.9 39.2-68.1 5.6-68.6-11.5-61.1 13.6-42.2-38.4-79.5-8.5L32.3 359l48.4-26s149-11 149.1-10.5 91.5 43 91.5 43l80.8 14.1Z" opacity=".1"/><path d="M93.3 268.8c3 15.5-1 35.3-1 35.3l3.4-2c2.4-21.7-2.4-33.3-2.4-33.3Z" fill="#d8b4a1"/><path d="M93.3 268.8c3 15.5-1 35.3-1 35.3l3.4-2c2.4-21.7-2.4-33.3-2.4-33.3Z" opacity=".1"/><path d="M94 303v.2l1.7-1c2.4-21.8-2.3-33.4-2.3-33.4 2.6 7.5 2.4 25.7.7 34.2Z" opacity=".1"/><path d="M92.4 304.1S91 290 85.7 278s-12-17.6-12-17.6 8.2 3.7 14.9 16.8a83.7 83.7 0 0 1 8.2 24.5Z" fill="#d8b4a1"/><path d="M92.4 304.1S91 290 85.7 278s-12-17.6-12-17.6 8.2 3.7 14.9 16.8a83.7 83.7 0 0 1 8.2 24.5Z" opacity=".2"/><path d="m94.7 302.8 2-1.2a83.7 83.7 0 0 0-8.2-24.5c-6.7-13-14.8-16.8-14.8-16.8 8 5.1 18.6 22 21 42.5Z" opacity=".1"/><path d="M92.4 304.1S90 292.5 75.6 283c0 0 13.7 5.2 20.1 19.3Z" fill="#d8b4a1"/><path d="M94 303a.6.6 0 0 1 0 .1l1.7-.9c-6.5-14-20.1-19.3-20.1-19.3A40.7 40.7 0 0 1 94 303Z" opacity=".1"/><path d="M396 336.2a87 87 0 0 0 .8 28.5L394 363c-2-17.5 1.9-26.9 1.9-26.9Z" fill="#d8b4a1"/><path d="M396 336.2a87 87 0 0 0 .8 28.5L394 363c-2-17.5 1.9-26.9 1.9-26.9Z" opacity=".1"/><path d="M395.3 363.8v.1l-1.3-.8c-1.9-17.5 2-26.9 2-26.9-2.1 6.1-2 20.7-.7 27.6Z" opacity=".1"/><path d="M396.7 364.7a80.2 80.2 0 0 1 5.4-21.2c4.3-9.7 9.7-14.1 9.7-14.1s-6.6 3-12 13.5a67.6 67.6 0 0 0-6.6 19.8Z" fill="#d8b4a1"/><path d="M396.7 364.7a80.2 80.2 0 0 1 5.4-21.2c4.3-9.7 9.7-14.1 9.7-14.1s-6.6 3-12 13.5a67.6 67.6 0 0 0-6.6 19.8Z" opacity=".2"/><path d="m394.9 363.6-1.7-1a67.6 67.6 0 0 1 6.6-19.7c5.4-10.5 12-13.5 12-13.5-6.4 4.1-15 17.7-17 34.2Z" opacity=".1"/><path d="M396.7 364.7s2-9.3 13.5-17.1c0 0-11 4.2-16.2 15.5Z" fill="#d8b4a1"/><path d="m395.3 363.8-1.2-.7c5.2-11.3 16.1-15.5 16.1-15.5-5.4 3-12 8.4-14.9 16.2Z" opacity=".1"/><path d="m429.4 385.7 1.4 17-42.4 34.7-60.7 3.2-68.6-12-43 13.6-49.2-36.1c-1.4-1-67.1-15.4-67.1-15.4l-35.2-26L84 307.6Z" fill="#455a64"/><path fill="#263238" d="m259.1 428.6-5.7-28.2-29.5-4.3-7.8 46.2 43-13.7z"/><path fill="#37474f" d="m216.1 442.3 7.8-46.2-38.1-63.3-18.9 73.3 49.2 36.2zM388.4 437.4l-60.7 3.2-3-75.9 46.2 10.6 17.5 62.1zM327.7 440.6l-70.5-21.4 1.9 9.4 68.6 12zM429.4 385.7l-41 51.7 42.4-34.7-1.4-17zM99.8 390.7l19.8-73.1 23.7 5.5 9.9 79.6-53.4-12z"/><path fill="#263238" d="m99.8 390.7 19.8-73.1-35.6-10-19.4 57.1 35.2 26z"/><path d="M432.4 385.2c-5.3-9.3-9.7-12.6-16.4-18 0 0-38.3-11-39.4-11.7s-88.2-16.7-88.2-16.7l-100.6-49.3h-75a81.2 81.2 0 0 0-31.6 14.7l-.6 4 8.6 14 26.9 10.3 29.2 15.6 32.9 16 44 42.6h31l73 13.8 59-6.6c19.7-8.8 40-17.7 46.6-24.7Z" fill="#d8b4a1"/><path d="M432.4 385.2c-5.3-9.3-9.7-12.6-16.4-18 0 0-38.3-11-39.4-11.7s-88.2-16.7-88.2-16.7l-100.6-49.3h-75a81.2 81.2 0 0 0-31.6 14.7l-.6 4 8.6 14 26.9 10.3 29.2 15.6 32.9 16 44 42.6h31l73 13.8 59-6.6c19.7-8.8 40-17.7 46.6-24.7Z" opacity=".2"/><path opacity=".1" d="m115.6 332.3 1-3.8 29.3 15.6.6 4.6-30.9-16.4z"/><path opacity=".2" d="m116.6 328.5-26.8-10.4-8.6-13.9-.5 3.9 8.5 14 26.4 10.2 1-3.8z"/><path opacity=".1" d="m89.2 322.1.6-4-8.6-13.9-.5 3.9 8.5 14zM178.8 360.2l-.6 3.9 44.1 42.5.5-3.9-44-42.5z"/><path opacity=".2" d="m253.3 406.6.6-3.9h-31.1l-.5 3.9h31zM326.2 420.5l.5-4 59.1-6.6-.6 4-59 6.6z"/><path d="M112.8 289.5a81.2 81.2 0 0 0-31.6 14.7l8.6 14 26.8 10.3 29.3 15.6 32.8 16 44.1 42.6h31l72.9 13.8 59-6.6c19.7-8.8 40-17.7 46.6-24.7-5.2-9.3-9.6-12.6-16.3-18 0 0-38.3-11-39.5-11.7s-88.2-16.7-88.2-16.7l-100.5-49.3Z" fill="#d8b4a1"/><path fill="#455a64" d="M410.5 374.6 388 390.7l-39.2.1-48.7 9.6-55.2-12.9-33.9-28.6 46.6-25.2 81.9-68 10.7 27.3 13.6.5 3 21.9 17.9 19.1 3.7 21 22.1 19.1z"/><path fill="#263238" d="m339.5 265.7 10.7 27.3-28.5-12.6 17.8-14.7z"/><path fill="#37474f" d="m388 390.7.4-35.2-3.7-21-35.9 56.3 39.2-.1zM366.8 315.4v20.8l-14.1 21.5-3.9 33.1-9.9-42.7 21.3-15.8 6.6-16.9z"/><path fill="#263238" d="m338.9 348.1-17.6 33.6-21.2 18.7 48.7-9.6-9.9-42.7z"/><path fill="#37474f" d="m321.3 381.7-28.9-14.9-47.5 20.7 55.2 12.9 21.2-18.7z"/><path fill="#37474f" d="m338.9 348.1 9.9-22.6-5-11.1-34.7 16.8 12.2 50.5 17.6-33.6z"/><path fill="#263238" d="m244.9 387.5 9-51.8-42.9 23.2 33.9 28.6z"/><path fill="#37474f" d="m292.4 366.8-6.3-32.8-32.2 1.7-9 51.8 47.5-20.7z"/><path fill="#263238" d="M292.4 366.8 268.7 393l-23.8-5.5 47.5-20.7z"/><path d="m197.3 317.6 32.5-4.5.6-2.7-42.6-20.9h-75a94.4 94.4 0 0 0-11.1 3.5l-8.4 14.6 68.2 23.6Z" opacity=".2"/><path fill="#455a64" d="m119.9 223.8-15.3 79.3 50.8 16.5 40-7.8 34.3 22.2 37.9-18.6 46.4-14.1 3.7-28-15-34.4-13.5-3-6.6-27.1-162.7 15z"/><path fill="#37474f" d="m229.9 313.1-28.8-38.9-2.3-28.7-11.6 40.5 8.2 25.8 34.5 1.3zM162.8 293.5l-7.4 26.1-31.2-10-1.1-37.1 13.6-24.4 36.5 18.6-10.4 26.8z"/><path fill="#263238" d="m104.6 303.1 19.6 6.5-1.1-37.1 13.6-23-16.8-25.7-15.3 79.3zM195.4 311.8l-8.2-25.8 11.6-40.5-25.6 21.2-10.4 26.8-7.4 26.1 40-7.8z"/><path fill="#37474f" d="m271.6 255.4 12.5-9.3 5.1-10.2-6.6-27.1-13.9 17.7 2.9 28.9z"/><path fill="#263238" d="m252 293 19.6-37.6-2.9-28.9-14.9 9.2L252 293z"/><path fill="#37474f" d="m271.6 255.4 7.4 13.5 31.2-12.7-7.5-17.3-31.1 16.5z"/><path fill="#263238" d="M292.4 281.6 279 268.9l31.2-12.7-17.8 25.4z"/><path d="M203.7 286.3c-1 12.7 4 28.2 4 28.2l-2.9-1.2c-3.8-17.3-1.1-27-1.1-27Z" fill="#d8b4a1"/><path d="M203.7 286.3c-1 12.7 4 28.2 4 28.2l-2.9-1.2c-3.8-17.3-1.1-27-1.1-27Z" opacity=".1"/><path d="M206.2 313.7a.7.7 0 0 1 0 .2l-1.4-.6c-3.9-17.3-1.2-27-1.2-27-1.3 6.3.5 20.8 2.6 27.4Z" opacity=".1"/><path d="M207.7 314.5a80.1 80.1 0 0 1 3-21.6c3.1-10.2 8-15.2 8-15.2s-6.2 3.7-10.4 14.8a67.5 67.5 0 0 0-4.3 20.4Z" fill="#d8b4a1"/><path d="M207.7 314.5a80.1 80.1 0 0 1 3-21.6c3.1-10.2 8-15.2 8-15.2s-6.2 3.7-10.4 14.8a67.5 67.5 0 0 0-4.3 20.4Z" fill="#fff" opacity=".5"/><path d="m205.7 313.6-1.7-.7a67.5 67.5 0 0 1 4.3-20.4c4.1-11 10.3-14.8 10.3-14.8-5.9 4.8-12.8 19.3-12.9 36Z" opacity=".1"/><path d="M207.7 314.5s.8-9.5 11.4-18.6c0 0-10.4 5.5-14.3 17.4Z" fill="#d8b4a1"/><path d="M206.2 313.7v.1l-1.3-.5a32.4 32.4 0 0 1 14.3-17.4c-5 3.8-11 9.8-13 17.8Z" opacity=".1"/><path d="M368.6 293.5s-12-10-33.6-15.8l10-6.6-1.1-3.8s-10.1-6.1-33.6-11l-17.8 25.3L252 293l-22.1 20.1-34.5-1.3L211 359l42.9-12.8h35l24.7 2.9 43.5-27.6 12.6-24.1Z" fill="#d8b4a1"/><path d="M368.6 293.5s-12-10-33.6-15.8l10-6.6-1.1-3.8s-10.1-6.1-33.6-11l-17.8 25.3L252 293l-22.1 20.1-34.5-1.3 2 5.8L211 359l42.9-12.8h35l24.7 2.9 43.5-27.6 12.6-24.1Z" opacity=".2"/><path opacity=".2" d="m343.9 267.3 1.1 3.8-10 6.6-4.9-1.2 13.8-9.2z"/><path d="m330 276.5 13.8-9.2s-10-6.1-33.6-11l-17.8 25.3L252 293l-22.1 20.1-32.5 4.5L211 359l41.8-16.6h35l24.7 3 43.5-27.7 12.6-24.1s-13.8-11.6-38.5-17Z" fill="#d8b4a1"/><path opacity=".2" d="m356 317.6 1.1 3.8-43.5 27.6-1.1-3.8 43.5-27.6zM253.8 346.1l-1.1-3.8-41.7 16.6 42.8-12.8z"/><path d="M289 207.3s-15.5-9-27.4-14l-43.5-8.6-71.6 9.5s-20 12.8-30 29.3v4l15.2 24.3 41.4 14.9 45.6-16.1 34.5-1.6 26.8-14.7v-4l-5-6.8 14-12.2Z" fill="#d8b4a1"/><path d="M289 207.3s-15.5-9-27.4-14l-43.5-8.6-71.6 9.5s-20 12.8-30 29.3v4l15.2 24.3 41.4 14.9 45.6-16.1 34.5-1.6 26.8-14.7v-4l-5-6.8 14-12.2Z" opacity=".1"/><path d="m116.6 223.4 15.2 24.3 41.4 15 45.5-16.2 34.5-1.6 26.8-14.7-6.7-9.1 15.7-13.8s-15.5-9-27.4-14l-43.5-8.6-71.6 9.5s-20 12.8-29.9 29.3Z" fill="#d8b4a1"/><path d="m116.6 223.4 15.2 24.3 41.4 15 45.5-16.2 34.5-1.6 26.8-14.7-6.7-9.1 15.7-13.8s-15.5-9-27.4-14l-43.5-8.6-71.6 9.5s-20 12.8-29.9 29.3Z" fill="#fff" opacity=".2"/><path opacity=".2" d="m289 207.3-15.7 13.8 1.8 2.4 13.9-12.2v-4zM253.2 249v-4.1l-34.5 1.6v4.1l34.5-1.6z"/><path opacity=".1" d="m218.7 246.5-45.5 16.1v4.1l45.5-16.1v-4.1z"/><path opacity=".3" d="M131.8 251.8v-4.1l-15.2-24.2v4l15.2 24.3z"/><path fill="#d8b4a1" d="m306.3 240.8-6.9-5.1-10.2.2-5.1 10.2-12.5 9.3 36.5-7.6-1.8-7z"/><path opacity=".2" d="m306.3 240.8 1.8 7-36.5 7.6 22.9-9.6 11.8-5z"/><path fill="#d8b4a1" d="m289.2 235.9-5.1 10.2-12.5 9.3 28.5-9.9 6.2-4.7-6.9-5.1-10.2.2z"/><path fill="#fff" opacity=".1" d="m289.2 235.9-5.1 10.2-12.5 9.3 28.5-9.9 6.2-4.7-6.9-5.1-10.2.2z"/><circle cx="386.1" cy="48.7" r="15.1" transform="rotate(-45 386 48.7)" fill="#f0997a"/><g fill="#ebebeb"><path d="M80.6 27.2 76 30v-2c0-2.4-1.7-3.3-3.8-2.1a7.2 7.2 0 0 0-2.2 2.1c-.3-3-2.7-4.1-5.6-2.4a12.4 12.4 0 0 0-5.6 9.7v2a5.3 5.3 0 0 0 .5 2.3l-3.9 2.2a4.6 4.6 0 0 0-2 3.6c0 1.4.9 1.9 2 1.2L80.6 32a4.6 4.6 0 0 0 2.1-3.6c0-1.3-1-1.8-2-1.2ZM115 27.9l-2.6 1v-5.6c0-4.5-3.5-5.6-7.4-3.4a15.5 15.5 0 0 0-7 12.2v.8a3.7 3.7 0 0 0-3.3.5 11.1 11.1 0 0 0-5 8.7v.4l-3.5 2a7.3 7.3 0 0 0-3.3 5.8c0 2.1 1.4 3 3.3 2L115 35.5a7.3 7.3 0 0 0 3.3-5.8c0-2.1-1.5-3-3.3-1.9Z"/></g><g fill="#ebebeb"><path d="M310.8 74.4a26.2 26.2 0 0 0-31.4-4.8c7.6-2.6 23.8-1 31.4 11 7.5-12 23.7-13.6 31.3-11a26.2 26.2 0 0 0-31.4 4.8ZM340.2 92.8a17.6 17.6 0 0 0-21-3.2c5.1-1.8 16-.7 21 7.3 5.1-8 16-9 21-7.3a17.6 17.6 0 0 0-21 3.2Z"/></g><ellipse cx="232.9" cy="214.1" rx="38.6" ry="22.3" opacity=".1"/><path d="M259.8 223.6a4.7 4.7 0 0 1 0 2.5c-.2.5-1.7 2-4.7 2.7s-7.1 0-8.9-.1a85.6 85.6 0 0 0-9.1.8c-2.8.4-5-.2-6-1.3a1.9 1.9 0 0 1-.4-1.4 7.2 7.2 0 0 1 .3-2Z" fill="#263238"/><path d="m231.4 221.9-.1.7a12 12 0 0 0-.3 3.6 3.3 3.3 0 0 0 2.2 1.6 11 11 0 0 0 6 .1 42.3 42.3 0 0 1 7-.4 42.9 42.9 0 0 0 6.2.3 14.7 14.7 0 0 0 4.6-1c1.2-.5 2.5-1.1 2.8-2.4.3-2.6-.8-3.8-2-4.5s-3-.7-5-.8l-4.6-.3a22 22 0 0 1-4-.5c-1-.4-2.3-1.9-2.7-2H233c-.8 0-1 2.8-1.2 3.3s0 1-.2 1.4 0 .6-.2.9Z" fill="#37474f"/><path d="M255.2 227.4c.2-1.9.5-6-3-8.4h-.5a8.7 8.7 0 0 1 4.9 0c2.8.8 4 3 3.3 5.4.1 0-.6 2.3-4.7 3ZM244.9 218.4a6.8 6.8 0 0 1 1.5 3.3c.2.9 1.7 1 1.6.2a9 9 0 0 0-1.4-3.2 2.6 2.6 0 0 0-1.7-.3ZM248 218.8a5.6 5.6 0 0 1 1.7 3.1c.1.8 1.4.8 1.3 0a4.7 4.7 0 0 0-1.3-3 1.7 1.7 0 0 0-1.6-.1Z" fill="#fafafa"/><path d="M224.3 200a9.3 9.3 0 0 1-.6 4.4c-1 2.3-3 3.3-4.1 4.1a31.3 31.3 0 0 0-3.5 3.4 20.6 20.6 0 0 1-3.2 3.3 5.8 5.8 0 0 1-5.7.4c-1.3-.7-1.8-1.2-1.5-3.3s7-2.4 7-2.4Z" fill="#263238"/><path d="M207 206c-.6.2-.8 1.2-1 3.3-.2 1.5-1.1 3.8 1.1 5a5.8 5.8 0 0 0 6-.8c1.8-1.7 3-3.3 5.3-5.4 2-1.8 4.1-2.3 5.3-6.1.7-2.5.3-3.6-1.4-4.4-2.4-1.2-6.4 1.7-8.4 2.1-1.7.3-6.3 6.2-6.9 6.3Z" fill="#37474f"/><path d="M214 199.7a2 2 0 0 0 .3 0 6.3 6.3 0 0 1 5 3.6c.3.7-.7 1.2-1.3.6a6.8 6.8 0 0 0-5-3.7 3 3 0 0 1 1-.5Z" fill="#fafafa"/><path d="M212.3 200.8a6.3 6.3 0 0 1 4.6 3.6c.3.7-.7 1.2-1.3.6a6.5 6.5 0 0 0-4.2-3.5ZM222.3 204.8s.2-4.7-6.4-5.9l-.4.2a5.7 5.7 0 0 1 3.5-2.1 4.7 4.7 0 0 1 5 1.8c1 1.4-.4 5.1-1.7 6Z" fill="#fafafa"/><path d="M205.3 180.3c0-7.9 1.8-11 1.8-11s-1-31.2-.3-37.1a113 113 0 0 1 2.2-13s32.5-4.2 33 7.1c.9 20.6 1.6 31 1.7 46.8 0 5 0 13.6-.2 23.3-.3 8-.5 20.9-.5 20.9a9.9 9.9 0 0 1-11 1.6s-3.8-24.8-4.2-30.5a56 56 0 0 1 .4-11l-4.4-21.3-8.2 51.5c-2.6 3.6-9.2 2.2-10 .5l-.3-27.8Z" fill="#455a64"/><path d="M212 137.3s.7 4.5 7 6.4l3 12.4-.4 13.9 2.2-13.9-2.3-13.7s-6.4-1.3-9.5-5.1Z" fill="#37474f"/><path fill="#9e6767" d="m228.2 75.7-.5 9.6-10.5-.5.3-11.4 10.7 2.3z"/><path d="M206.8 127s-.6 3.5 0 4.3 4.5 4 15.7 4.5 19-2 19.7-3.6 0-4.7 0-4.7Z" fill="#d8b4a1"/><path d="M206.8 127s-.6 3.5 0 4.3 4.5 4 15.7 4.5 19-2 19.7-3.6 0-4.7 0-4.7Z" opacity=".5"/><path d="M212.8 78.4a11 11 0 0 0-11 6.8 24.8 24.8 0 0 0-.9 10.6c.6 4.7 1.2 7.8 2.6 15 .8 4.2 2 6 5.3 5a43.8 43.8 0 0 0 8.4-3.6Z" fill="#d8b4a1"/><path d="M212.8 78.4a11 11 0 0 0-11 6.8 24.8 24.8 0 0 0-.9 10.6c.6 4.7 1.2 7.8 2.6 15 .8 4.2 2 6 5.3 5a43.8 43.8 0 0 0 8.4-3.6Z" opacity=".1"/><path d="M204.8 84.4c1.1-2.7 5-6.5 9.7-6l2.9.4c.4 1.7 5.7 2.8 10.2 1.7l8.3 2.1c3.2 1.1 4.7 4 5.4 15.8s3.6 29.3 0 31.1c-5.7 3-15.3 2.9-21.7 2.3-5.4-.5-10-2-12.4-4.4s-1-6.6-.7-12.6a41 41 0 0 0-1.2-13.6c-2-9.4-1.8-13.6-.5-16.8Z" fill="#d8b4a1"/><path d="M235.3 82.5c5.2 1.4 7.2 2.5 9.1 7.4 1.4 3.7 7.8 15.2 9.8 22.3.6 2 .9 4.4-1.6 6.2s-9.5 3.2-9.5 3.2c0-2.6-.2-5.2-.4-7.8l-8.3-14.2a17.7 17.7 0 0 1-2.4-10.2c.2-2.6 1-5.3 3.3-7Z" fill="#d8b4a1"/><path d="M235.3 82.5c5.2 1.4 7.2 2.5 9.1 7.4 1.4 3.7 7.8 15.2 9.8 22.3.6 2 .9 4.4-1.6 6.2s-9.5 3.2-9.5 3.2c0-2.6-.2-5.2-.4-7.8l-8.3-14.2a17.7 17.7 0 0 1-2.4-10.2c.2-2.6 1-5.3 3.3-7Z" opacity=".1"/><path d="m242.7 113.8.2 2.7a6 6 0 0 0 4.2 1 7.5 7.5 0 0 1-4.4-3.7Z" opacity=".1"/><path d="M228 79.8c-1.8 1-6.3.8-8.3.2s-2.4-1.2-2.4-1.2l-.8-.1a3.6 3.6 0 0 0-1.7 2.9c0 1.8 2.4 4 6.4 3.6s6.8-5.5 6.8-5.5Z" fill="#d8b4a1"/><path d="M228 79.8c-1.8 1-6.3.8-8.3.2s-2.4-1.2-2.4-1.2l-.8-.1a3.6 3.6 0 0 0-1.7 2.9c0 1.8 2.4 4 6.4 3.6s6.8-5.5 6.8-5.5Z" opacity=".5"/><path d="M233.4 82c-.4-1.2-3.1-1.9-5.4-2.2a13.8 13.8 0 0 1-8 3.3c-4 .2-5-2.1-3.4-4.4l.8.1v-1a4.6 4.6 0 0 0-3.1.3 13 13 0 0 0-7 9.6c-1.1 5.8-.6 14 5 17.6 3.4 2.3 12.9-2 14.8-6.5S226 86 229.8 82a12.2 12.2 0 0 1 3.6 0Z" fill="#d8b4a1"/><path d="M233.4 82c-.4-1.2-3.1-1.9-5.4-2.2a13.8 13.8 0 0 1-8 3.3c-4 .2-5-2.1-3.4-4.4l.8.1v-1a4.6 4.6 0 0 0-3.1.3 13 13 0 0 0-7 9.6c-1.1 5.8-.6 14 5 17.6 3.4 2.3 12.9-2 14.8-6.5S226 86 229.8 82a12.2 12.2 0 0 1 3.6 0Z" opacity=".3"/><path d="M230.6 80.3c-2.5 0-5 1.2-6.2 5.5s.3 9.7-3.5 13.3c-4.2 4-6.5 3.6-7.8 3.4-.7-.1-4.5-3.5-5.3-8s.5-10 .5-10.3a13.6 13.6 0 0 0-1 3.4c-1.1 5.8-.6 14 5 17.7 3.4 2.2 12.9-2 14.8-6.6S226 86.1 229.8 82a12.2 12.2 0 0 1 3.6 0c-.2-.7-1.4-1.3-2.8-1.7Z" fill="#d8b4a1"/><path d="M230.6 80.3c-2.5 0-5 1.2-6.2 5.5s.3 9.7-3.5 13.3c-4.2 4-6.5 3.6-7.8 3.4-.7-.1-4.5-3.5-5.3-8s.5-10 .5-10.3a13.6 13.6 0 0 0-1 3.4c-1.1 5.8-.6 14 5 17.7 3.4 2.2 12.9-2 14.8-6.6S226 86.1 229.8 82a12.2 12.2 0 0 1 3.6 0c-.2-.7-1.4-1.3-2.8-1.7Z" opacity=".5"/><path d="M235.3 62.7s2.5 3.8 2.2 4.2-2.1.7-2.1.7Z" fill="#874c4c"/><path d="M228.3 52.2c5.1 1 7.1 2.5 7.4 11.2.3 8.4-.7 11.2-1.8 12.3-.8.8-5 1-7 .4-2.7-.8-8.6-2.9-11.4-7-3.2-5-4-11.8-.6-14.6 5-3.9 11.4-2.8 13.4-2.3Z" fill="#9e6767"/><path d="M233.9 75.7c-.6.7-3.5.9-5.7.6V75a12.2 12.2 0 0 0 5.7.7Z" fill="#874c4c"/><path d="M236.4 55.4a6 6 0 0 1-4.4 1 3.3 3.3 0 0 1-.5 2 3.9 3.9 0 0 1-2.2 1.6 7.8 7.8 0 0 1 .9 3.5 2 2 0 0 1-.2 1 .7.7 0 0 1-1.3 0 9.3 9.3 0 0 0-1.1-1.8 3.5 3.5 0 0 0-2.2-1.2c-3.2-.3-3.6 3.8-2.3 5.6 2.1 2.8 3.9.9 3.9.9a10.4 10.4 0 0 1-2.7 7.7 12.6 12.6 0 0 1-6.8-.2c-1.9-3.6-5.4-5.8-7-9.2-3.2-7-1-11.6 1.5-13.5.5-3.3 3-4.7 6-5.4 4.4-1 8.5 1.6 12.8.6a21.3 21.3 0 0 0 2.1-.6 1.2 1.2 0 0 1 .9 0 1 1 0 0 1 .4 1 4.4 4.4 0 0 1-1.3 2.2 9.6 9.6 0 0 0 2.8-.2 2.7 2.7 0 0 1 1 0 1.8 1.8 0 0 1 1.1 1.8 4.3 4.3 0 0 1-1.4 3.2Z" fill="#263238"/><path d="m212 53.9-3-1.8a1.8 1.8 0 0 1 3 1.8Z" fill="#263238"/></svg>