<svg xmlns="http://www.w3.org/2000/svg" viewBox="0 0 750 500"><path fill="#e0e0e0" d="m231.8 365.5-.6-.2c-1.9-.5-4.5.4-4.5 1.5s2.5 2 4.4 1.5 2.3-2 .7-2.8ZM244 368.6l-.6-.2c-1.8-.5-4.4.4-4.5 1.5s2.5 2 4.4 1.5 2.3-2 .7-2.8ZM232 362.5l-.3-.1c-1.3-.4-3.2.2-3.2 1s1.8 1.4 3.1 1 1.6-1.4.5-1.9ZM235.3 362.4a2.6 2.6 0 0 0-2 2.3 3 3 0 0 0 1.8 2.4 7.2 7.2 0 0 0 3.8.6 5.8 5.8 0 0 0 2.8-1 2.3 2.3 0 0 0 .5-3.4c-1-1.1-5.3-1.4-7-.9M233.4 368.2a1.4 1.4 0 0 0-1 1.3 1.6 1.6 0 0 0 1 1.3 4 4 0 0 0 2 .3 3.2 3.2 0 0 0 1.6-.5 1.3 1.3 0 0 0 .3-2c-.5-.5-3-.7-3.9-.4M282.5 352.5l-.6-.1c-1.8-.6-4.4.3-4.5 1.4s2.6 2 4.5 1.5 2.2-2 .6-2.8ZM294.7 355.6l-.6-.2c-1.8-.5-4.4.4-4.5 1.5s2.5 2 4.4 1.5 2.3-2 .7-2.8ZM282.8 349.5h-.4c-1.3-.4-3.1.1-3.2 1s1.8 1.3 3.2 1 1.6-1.5.4-2ZM286 349.4a2.6 2.6 0 0 0-2 2.3 3 3 0 0 0 1.8 2.4 7.2 7.2 0 0 0 3.8.6 5.8 5.8 0 0 0 2.9-1 2.3 2.3 0 0 0 .4-3.4c-1-1.1-5.3-1.3-7-.9M284.2 355.2a1.4 1.4 0 0 0-1 1.3 1.6 1.6 0 0 0 1 1.3 4 4 0 0 0 2 .3 3.2 3.2 0 0 0 1.6-.5 1.3 1.3 0 0 0 .2-2c-.5-.5-2.9-.6-3.8-.4M195.3 358.8l-.6-.2c-1.8-.6-4.4.3-4.5 1.5s2.5 2 4.4 1.6 2.3-2.2.7-3ZM207.5 362l-.6-.2c-1.8-.5-4.4.3-4.5 1.5s2.5 2.1 4.4 1.6 2.3-2.1.7-2.9ZM195.6 355.6l-.4-.2c-1.3-.3-3.1.3-3.2 1.1s1.8 1.5 3.1 1.1 1.6-1.5.5-2ZM198.8 355.4a2.7 2.7 0 0 0-2 2.5 3.1 3.1 0 0 0 1.8 2.5 6.8 6.8 0 0 0 3.8.7 5.5 5.5 0 0 0 2.9-1 2.5 2.5 0 0 0 .4-3.8c-1-1-5.3-1.3-7-.8M197 361.6a1.5 1.5 0 0 0-1 1.3 1.7 1.7 0 0 0 1 1.4 3.7 3.7 0 0 0 2 .4 3 3 0 0 0 1.6-.6 1.4 1.4 0 0 0 .2-2c-.5-.6-2.9-.7-3.8-.5"/><path fill="#ebebeb" d="M364.6 457a3.1 3.1 0 0 1 1.6-1.7 9 9 0 0 1 2.4-.7l6-1.2a1.3 1.3 0 0 1 1 0c.5.4.4 1 .2 1.4a6.8 6.8 0 0 1-5.2 4.1 6.4 6.4 0 0 1-6-1.9"/><path fill="#e0e0e0" d="M373.5 455a5.9 5.9 0 0 1-1.6.9 15 15 0 0 1-4.1 1.3 8.4 8.4 0 0 1-4.4-.5 3.8 3.8 0 0 1-1.6-.9l1.7.6a9.5 9.5 0 0 0 4.2.3 20 20 0 0 0 4-1.2 6.6 6.6 0 0 1 1.8-.5Z"/><path fill="#ebebeb" d="M257.5 421a4 4 0 0 1 2-2.2 11.7 11.7 0 0 1 3-.8l7.6-1.5a1.6 1.6 0 0 1 1.3 0c.5.4.4 1.2.1 1.7a8.5 8.5 0 0 1-6.4 5.2c-2.9.4-5.8-.2-7.6-2.4"/><path fill="#e0e0e0" d="M268.6 418.6a9 9 0 0 1-2 1 19 19 0 0 1-5.1 1.7 11 11 0 0 1-5.5-.5 5.5 5.5 0 0 1-2-1.2l2.1.8a11.9 11.9 0 0 0 5.3.4 24 24 0 0 0 5-1.5 10.3 10.3 0 0 1 2.3-.7Z"/><path fill="#ebebeb" d="M309.9 459.3a3.2 3.2 0 0 1-1.3 2 9.2 9.2 0 0 1-2.2 1.1l-5.7 2.4a1.3 1.3 0 0 1-1 .1c-.5-.2-.5-.8-.4-1.3a6.8 6.8 0 0 1 4.2-5 6.4 6.4 0 0 1 6.4.6"/><path fill="#e0e0e0" d="M301.5 463a5.7 5.7 0 0 1 1.3-1.2 14.9 14.9 0 0 1 3.9-2.1 8.5 8.5 0 0 1 4.3-.4 3.7 3.7 0 0 1 1.8.6l-1.8-.2a9.6 9.6 0 0 0-4.2.5 19.5 19.5 0 0 0-3.7 2 7.3 7.3 0 0 1-1.6.8Z"/><path fill="#ebebeb" d="M533.4 455a3.2 3.2 0 0 1-1.3 2 9.1 9.1 0 0 1-2.2 1.2l-5.7 2.4a1.2 1.2 0 0 1-1 0c-.5-.1-.5-.7-.4-1.2a6.7 6.7 0 0 1 4.3-5 6.4 6.4 0 0 1 6.3.6"/><path fill="#e0e0e0" d="M525 458.7a5.7 5.7 0 0 1 1.4-1.2 14.9 14.9 0 0 1 3.8-2.1 8.5 8.5 0 0 1 4.4-.4 4 4 0 0 1 1.7.6l-1.8-.2a9.7 9.7 0 0 0-4.1.5 20.8 20.8 0 0 0-3.8 2 6.8 6.8 0 0 1-1.6.8Z"/><path fill="#ebebeb" d="M376.1 367.5a3.1 3.1 0 0 1 1.2-2.1 9.2 9.2 0 0 1 2-1.3l5.7-2.8a1.2 1.2 0 0 1 1-.1c.4.2.5.8.4 1.2a6.8 6.8 0 0 1-3.9 5.4 6.4 6.4 0 0 1-6.4-.3"/><path fill="#e0e0e0" d="M384.3 363.3a6 6 0 0 1-1.3 1.2 14.8 14.8 0 0 1-3.7 2.4 8.6 8.6 0 0 1-4.3.7 3.7 3.7 0 0 1-1.8-.5l1.8.1a9.5 9.5 0 0 0 4.1-.8 20 20 0 0 0 3.7-2.1 6.7 6.7 0 0 1 1.5-1Z"/><path fill="#ebebeb" d="M110.7 465.6a3.1 3.1 0 0 1-1.2 2 9.3 9.3 0 0 1-2.2 1l-5.8 2.5a1.2 1.2 0 0 1-1 .1c-.4-.2-.4-.8-.4-1.3a6.8 6.8 0 0 1 4.3-5 6.4 6.4 0 0 1 6.4.6"/><path fill="#e0e0e0" d="M102.3 469.2a5.7 5.7 0 0 1 1.4-1.1 14.9 14.9 0 0 1 3.8-2.2 8.5 8.5 0 0 1 4.4-.4 3.7 3.7 0 0 1 1.7.6l-1.8-.2a9.6 9.6 0 0 0-4.1.5 19.5 19.5 0 0 0-3.8 2 7.3 7.3 0 0 1-1.6.8Z"/><path fill="#ebebeb" d="M471.4 440a3.1 3.1 0 0 1-1.3 2 9.8 9.8 0 0 1-2.2 1.1l-5.8 2.4a1.2 1.2 0 0 1-1 .1c-.4-.2-.4-.8-.3-1.2a6.8 6.8 0 0 1 4.2-5.1 6.4 6.4 0 0 1 6.4.7"/><path fill="#e0e0e0" d="M463 443.6a6 6 0 0 1 1.4-1.1 14.9 14.9 0 0 1 3.8-2.2 8.5 8.5 0 0 1 4.4-.4 3.7 3.7 0 0 1 1.7.6l-1.8-.2a9.5 9.5 0 0 0-4.1.5 19 19 0 0 0-3.8 2 7.3 7.3 0 0 1-1.6.8ZM537.4 138.4a1.3 1.3 0 0 1 0-.2v-10.4.1h-40l.2-.1v10.6l-.2-.2h28.5l8.5.1h3-11.3l-28.7.2h-.2v-10.7l.2-.2h40.2v.2l-.1 7.9v2.5a.8.8 0 0 1-.1.2ZM346.3 48v-2.8l-.1-7.8.1.1-40 .1s-.3.2.1-.2V48l-.2-.2h28.6l8.4.2H346.3 306V37.4l.2-.2h40.2v10.6l-.1.2ZM707 284.8a.8.8 0 0 1 0-.2v-10.4.1l-40 .1.2-.2v10.6l-.2-.2h28.5l8.5.1h3-3l-8.4.1-28.6.2h-.2v-10.8l.2-.2 40 .1h.2v10.6c0 .2-.2.1-.2.1Z"/><path fill="#ebebeb" d="M314.9 98.6h41.3v10.9h-41.3z"/><path fill="#e0e0e0" d="M338.7 121a1.6 1.6 0 0 1 0-.2v-10.7l.1.1-41.3.1.2-.2V121l-.2-.2h29.4l8.7.2h3.2-11.7l-29.6.1h-.2v-11l.2-.2H339V121a.9.9 0 0 1-.2.1Z"/><path fill="#ebebeb" d="M528.4 40.9h41.3v10.9h-41.3z"/><path fill="#e0e0e0" d="M552.2 63.4V52.5l-41.3.2.3-.2v10.9l-.2-.2H552h-2.9l-8.7.1-29.5.1h-.2v-11l.2-.2 41.3.1V63.2l-.1.2ZM80.3 192.6a1.5 1.5 0 0 1 0-.2v-10.7.1l-41.2.1.2-.2v10.9l-.2-.2h29.4l8.7.2H80.4 68.6l-29.6.2h-.2V181.7l.2-.2h41.4V192.4a.9.9 0 0 1-.1.2Z"/><path fill="#ebebeb" d="M70.8 54.6h41.3v10.9H70.8z"/><path fill="#e0e0e0" d="M94.6 77a1.6 1.6 0 0 1 0-.1V66.2l-41.2.2.2-.3v11l-.2-.2h29.4l8.7.1h2.9H83l-29.6.2h-.2v-11l.2-.3 41.3.1h.1V76.9l-.1.2ZM118 264.9c4.3 5.7 4.8 13.2 5 20.3s.8 14.6 5 20.3c2 2.7 4.9 4.8 6.8 7.5a16.1 16.1 0 0 1 3 8.1 10.7 10.7 0 0 1-1.6 6.8 10 10 0 0 1-9.3 3.8 17.5 17.5 0 0 1-9.4-4.6l2-3a6 6 0 0 0 11.1-3.3c0-3.7-3.2-6.3-5.7-9a29.5 29.5 0 0 1-7.5-16.3"/><path fill="#f5f5f5" d="M106 332a13.1 13.1 0 0 0 13.2-13.3l-.7-45.7c0-3.8-.3-8-3-10.7-2-1.9-4.8-2.6-7.4-3.1-6.8-1.3-13.9-2-20.6-.3s-13 6.1-15.6 12.5c-3.2 7.8-.6 17-3.7 24.8-1.4 3.5-3.8 6.5-5.1 10a24.2 24.2 0 0 0 1.2 17.5 13.1 13.1 0 0 0 12.2 8.3Z"/><path fill="#e0e0e0" d="M103 258.6a2.1 2.1 0 0 1 .8-.3 3.6 3.6 0 0 1 2.3.3 5 5 0 0 1 2.4 2.7 15.8 15.8 0 0 1 1 4.7c.7 7.2 1.2 17.1 1.6 28l.6 15.5.2 6.7c0 2.1.2 4.1.1 6a13.8 13.8 0 0 1-.9 4.7 8.4 8.4 0 0 1-2 3 6 6 0 0 1-2 1.2 2.7 2.7 0 0 1-.8.2 6.9 6.9 0 0 0 2.6-1.5 8.5 8.5 0 0 0 2-3 14 14 0 0 0 .8-4.7l-.2-5.9-.3-6.7-.5-15.5c-.4-11-1-20.8-1.6-28a15.6 15.6 0 0 0-.8-4.7 4.8 4.8 0 0 0-2.3-2.6 3.6 3.6 0 0 0-2.2-.3l-.8.2ZM87.8 259.2s-1.5-3.6.8-4.9 8.6-2.7 9.7-1.2 1.5 4.9 1.5 4.9h-2s-.5-3.2-1.8-3.2-6.2.6-6.6 1.4a5.5 5.5 0 0 0 0 2.6l-1.7.7M66.8 301.2l37 .6v25.5H67.7a22.8 22.8 0 0 1-4.5-13.9c0-8.6 3.7-12.2 3.7-12.2Z"/><path fill="#ebebeb" d="M103 310.3c0 .1-8.8.3-19.8.3s-20-.2-20-.3 9-.3 20-.3 19.9.1 19.9.3Z"/><path fill="#ebebeb" d="m101.5 310.4.4 1a10.5 10.5 0 0 0 .5 1.1 1.3 1.3 0 0 1 .2.9.8.8 0 0 1-.3.5.8.8 0 0 1-.5.1 1 1 0 0 1-.8-.6 2.2 2.2 0 0 1-.3-.7 3 3 0 0 1 .2-1.4l.5-1-.2 1.2a3.3 3.3 0 0 0 0 1.1c0 .4.3 1 .7 1s.4-.5.2-.8a7.5 7.5 0 0 1-.5-1.2c-.2-.7-.2-1.2-.1-1.2Z"/><path fill="#e0e0e0" d="M90.4 260a4.7 4.7 0 0 1 .7-.2l2.2-.4a19.6 19.6 0 0 1 3.5-.1 9.6 9.6 0 0 1 4.6 1.2 9.8 9.8 0 0 1 3.7 4.3 15.8 15.8 0 0 1 1.5 6.3 55.3 55.3 0 0 1-.3 7.2 66.2 66.2 0 0 0-.2 7.7c.2 5.2.8 10.2 1.4 14.7a117.7 117.7 0 0 1 1 12.1 52.7 52.7 0 0 1-.6 8.2l-.4 2.2a4.6 4.6 0 0 1-.2.7 3.8 3.8 0 0 1 0-.8l.4-2.2a59.3 59.3 0 0 0 .3-8c0-3.5-.4-7.6-1-12.1s-1.2-9.5-1.4-14.8a65.1 65.1 0 0 1 .2-7.7 58.5 58.5 0 0 0 .4-7.1 15.8 15.8 0 0 0-1.4-6.2 9.6 9.6 0 0 0-3.6-4.1 9.4 9.4 0 0 0-4.3-1.3 20 20 0 0 0-3.5 0l-2.2.3a4 4 0 0 1-.8.1ZM622.3 32.6h81.1v89.3h-81.1z"/><path fill="#fafafa" d="M616.8 32.6h81.1v89.3h-81.1z"/><path fill="#e0e0e0" d="M698 122h-81.2V32.6h81.1Zm-81.2 0h81V32.6h-81Z"/><path fill="#fff" d="M627.7 44.6H687v65.3h-59.3z"/><path fill="#e0e0e0" d="M627.7 110.3a9.3 9.3 0 0 1-1.4 1.8l-3.8 4-3.9 4a9.1 9.1 0 0 1-1.7 1.5 10 10 0 0 1 1.5-1.8l3.7-4 4-4a10.3 10.3 0 0 1 1.6-1.5ZM687 110.2a10.3 10.3 0 0 1 1.7 1.5l3.8 4 3.7 4.1a9.9 9.9 0 0 1 1.5 1.9 10.1 10.1 0 0 1-1.7-1.6l-3.9-4-3.7-4a9.3 9.3 0 0 1-1.4-2ZM686.8 44.8a9.7 9.7 0 0 1 1.5-1.8l3.8-4 3.8-4a9 9 0 0 1 1.8-1.5 10.5 10.5 0 0 1-1.5 1.8l-3.8 4-3.9 4a9.7 9.7 0 0 1-1.7 1.5ZM627.6 45a10.3 10.3 0 0 1-1.7-1.6c-1-1-2.4-2.3-3.9-4l-3.7-4a9.9 9.9 0 0 1-1.4-1.8 9.2 9.2 0 0 1 1.7 1.5 165 165 0 0 1 7.5 8 9.2 9.2 0 0 1 1.5 1.9Z"/><path fill="#e0e0e0" d="M686.8 110a2 2 0 0 1 0-.4V91.9l-.1-47.3.2.3h-59.1l.3-.3v65.3l-.3-.2h42.8l12 .1h4H682.7l-12 .1-43 .1h-.2V44.2h59.6v.3L687 92v17.7c0 .2-.2.2-.2.2Z"/><path fill="#ebebeb" d="M647.5 66.8h19.8v20.9h-19.8z"/><path fill="#e0e0e0" d="M153.7 44.5a2.5 2.5 0 1 1-2-3 2.5 2.5 0 0 1 2 3Z"/><path fill="#e0e0e0" d="M153.5 43.5a19.4 19.4 0 0 1-2.2-5.5 44.5 44.5 0 0 1-1.5-5.7c.2 0 1.1 2.4 2 5.6s1.8 5.6 1.7 5.6Z"/><path fill="#e0e0e0" d="M155 30.5c.1.1-.7 1.3-2.3 1.9a3.6 3.6 0 0 1-2.9.1c0-.1 1.3 0 2.7-.6s2.3-1.5 2.5-1.4ZM155.6 33.1c.1 0-.6 1.3-2.2 1.8a3 3 0 0 1-2.9-.3 16.2 16.2 0 0 0 2.7-.3 17 17 0 0 0 2.4-1.2ZM199.2 121.3a2.5 2.5 0 1 1-.7-3.5 2.5 2.5 0 0 1 .7 3.5Z"/><path fill="#e0e0e0" d="M199.4 120.4a19.6 19.6 0 0 1-.1-6 42.9 42.9 0 0 1 .7-5.8c.2 0 .2 2.7-.2 6s-.3 5.8-.4 5.8Z"/><path fill="#e0e0e0" d="M205.5 108.8a4.7 4.7 0 0 1-5.6 0c0-.1 1.3.4 2.8.4s2.7-.5 2.8-.4ZM205 111.4a3.8 3.8 0 0 1-5.1-.4 15.7 15.7 0 0 0 2.5.7 17.5 17.5 0 0 0 2.7-.3ZM219.1 46.5a4.2 4.2 0 1 1-.4-5.8 4.2 4.2 0 0 1 .4 5.8Z"/><path fill="#e0e0e0" d="M219.6 45c-.4 0-.3-4.3.9-9.5s2.3-9.4 2.7-9.3-.1 4.4-1.3 9.6-1.9 9.3-2.3 9.3Z"/><path fill="#e0e0e0" d="M235.5 31.6c0 .4-3.3 1.2-7.3-.2a9.7 9.7 0 0 1-4.4-2.9c-.9-1-1-2-.8-2s.6.6 1.5 1.3a13.3 13.3 0 0 0 4.2 2.3c3.5 1.2 6.8 1 6.8 1.5ZM231.4 52a4.2 4.2 0 1 1-.4-5.8 4.2 4.2 0 0 1 .4 5.8Z"/><path fill="#e0e0e0" d="M231.8 50.5c-.4 0-.3-4.4 1-9.6s2.3-9.3 2.7-9.3-.1 4.4-1.3 9.6-2 9.4-2.3 9.3Z"/><path fill="#e0e0e0" d="M235 34.4c.1.4-3 1.4-6.8.2s-5.9-3.6-5.6-3.9 2.6 1.6 6 2.5 6.3.8 6.4 1.2ZM154.6 146.7a4.2 4.2 0 1 1-2.5-5.3 4.1 4.1 0 0 1 2.5 5.3Z"/><path fill="#e0e0e0" d="M154.5 145.2c-.4.1-1.9-4-2.6-9.3s-1.2-9.6-.8-9.7 1.5 4.2 2.2 9.4 1.6 9.5 1.2 9.6Z"/><path fill="#e0e0e0" d="M164.5 126.9c.2.3-2.7 2.3-6.9 2.4a9.7 9.7 0 0 1-5.1-1c-1.2-.8-1.7-1.6-1.5-1.7s.8.3 2 .7a13.3 13.3 0 0 0 4.6.6c3.8-.1 6.7-1.4 6.9-1ZM168 147.3a4.1 4.1 0 1 1-2.5-5.3 4.1 4.1 0 0 1 2.5 5.3Z"/><path fill="#e0e0e0" d="M168 145.8c-.4.2-2-4-2.7-9.3s-1.2-9.5-.8-9.6 1.5 4.2 2.2 9.4 1.6 9.4 1.2 9.5Z"/><path fill="#e0e0e0" d="M165 129.7c.2.3-2.4 2.3-6.3 2.6s-6.8-1.3-6.6-1.6 3 .5 6.5.2 6.2-1.6 6.4-1.2ZM136 104.8a2.3 2.3 0 1 1-.2-3.3 2.3 2.3 0 0 1 .2 3.3Z"/><path fill="#e0e0e0" d="M136.2 104c-.2 0-.1-2.5.6-5.4s1.3-5.2 1.5-5.1 0 2.4-.7 5.3-1.1 5.2-1.4 5.2Z"/><path fill="#e0e0e0" d="M145.2 96.5c0 .2-1.9.6-4.1-.1a5.4 5.4 0 0 1-2.5-1.7c-.4-.6-.5-1.1-.4-1.1l.9.7a7.6 7.6 0 0 0 2.3 1.3c2 .7 3.7.7 3.8 1ZM142.8 107.8a2.3 2.3 0 1 1-.2-3.2 2.3 2.3 0 0 1 .2 3.2Z"/><path fill="#e0e0e0" d="M143 107c-.2 0 0-2.5.6-5.4s1.3-5.1 1.6-5.1-.1 2.4-.8 5.3-1.1 5.3-1.3 5.2Z"/><path fill="#e0e0e0" d="M144.8 98c.1.3-1.7.8-3.7.2S137.8 96 138 96s1.4.9 3.3 1.4 3.5.4 3.5.7ZM374.8 63.4l9.5 10.5 3.5-5.5 10.3 15.2-9-9.2-3.7 5.8-12.9-13.1 2.3-3.7zM376.1 96.1l8.4-1.1-1.6-3.6 11 .1-7.6 1.3 1.7 3.8-10.8 1.9-1.1-2.4zM399.5 50.6l2.6 8 3.2-2.1 1.9 10.8-2.6-7.2-3.5 2.3-3.8-10.3 2.2-1.5z"/><path fill="#263238" d="M712.7 331c0 .1-151.2.3-337.7.3S37.3 331 37.3 331s151.2-.3 337.7-.3 337.7.1 337.7.3Z"/><path fill="#ae7461" d="M116.6 436.9a13.3 13.3 0 0 0-7.1 0 8.4 8.4 0 0 0-11.8-8.6 6.8 6.8 0 0 0-10.8-5.6l-2.5 18.9q18.2-.3 36.5.5c-.1-2.4-2-4.4-4.3-5.2Z"/><path fill="#455a64" d="M229.7 448.1c-5.4-9-14-15.7-23.5-20.3s-19.7-7.3-29.9-10l-51.6.1c19.1 9.8 41.3 17.2 62.7 18.3l.2-7.2c1 4.8 4.8 8.6 9.1 11s9.2 3.4 14 4.4l-1.8-8.7a32.7 32.7 0 0 0 20.8 12.4Z"/><path d="M229.7 448.1c-5.4-9-14-15.7-23.5-20.3s-19.7-7.3-29.9-10l-51.6.1c19.1 9.8 41.3 17.2 62.7 18.3l.2-7.2c1 4.8 4.8 8.6 9.1 11s9.2 3.4 14 4.4l-1.8-8.7a32.7 32.7 0 0 0 20.8 12.4Z" opacity=".3"/><path fill="#455a64" d="M112.6 417s26.8-25.2 53.7-26.4l.6 9.5s6.2-10.8 10-10.2 18.2 0 18.2 0l-1.6 8.9s2.9-6.8 8-7.9 29.2.2 29.2.2-10.6 11.3-21.8 15.2-24 13.3-59 12.8-37.3-2.1-37.3-2.1ZM110.6 429s18.5 24.6 40.5 29l1.6-7.8s3.8 9.6 7 9.6 15.1 2.2 15.1 2.2l-.3-7.5s1.6 6 5.6 7.5 24.1 3.4 24.1 3.4-7.3-10.6-16-15.2-18.1-13.9-47-17.8-30.6-3.4-30.6-3.4Z"/><path fill="#263238" d="M206.5 399a1 1 0 0 1-.3.1l-.8.3-3.4.9-5.2 1.4-7 1.8a570.5 570.5 0 0 1-82 14.3l-7.1.7-5.4.4-3.4.3h-1a1.2 1.2 0 0 1-.2 0h.3l.8-.1 3.5-.3 5.4-.5 7.1-.8a606.6 606.6 0 0 0 82-14.3l7-1.7 5.2-1.4 3.3-.8.9-.3Z"/><path fill="#455a64" d="M95.2 414.7s23.1-23 37.5-30.5l2.5 5c-.8-3.7.5-7.5 2.8-10.5s5.2-5.3 8.2-7.5l1.5 6.6a24.8 24.8 0 0 1 10.4-15.2c-.8 8-4.7 15.3-9.8 21.4a103.2 103.2 0 0 1-13.9 13.5 49.2 49.2 0 0 1-7.7 5.4c-7.3 4-22.6 11.3-31.5 11.8Z"/><path fill="#263238" d="M189.4 456h-.3l-.7-.3-2.8-1.2-10.2-4.1a602 602 0 0 0-53.7-18.2 461.4 461.4 0 0 0-26.7-6.8l-3-.7-.8-.2H91h1l3 .7a376.3 376.3 0 0 1 26.8 6.6 528.7 528.7 0 0 1 53.7 18.2l10.2 4.4 2.8 1.2.7.3ZM84.8 417.1a1.6 1.6 0 0 1 .4-.1l1.3-.3 2-.4 2.7-.7a90.8 90.8 0 0 0 29-13l2.3-1.5 1.7-1.2 1-.7.4-.3-.3.3-1 .9-1.7 1.2-2.2 1.6a87.7 87.7 0 0 1-29.1 13l-2.7.6-2 .4-1.3.2Z"/><path fill="#d8b4a1" d="m79.8 398.6 9.6-.5 2.7 47-9.5.6z"/><path fill="#d8b4a1" d="m80.1 403.1-32 7 1.6 28.5 32.6 2.9-2.2-38.4z"/><path fill="#263238" d="m82.4 442.9-1.4-20c-.7-11-1-19.9-.9-19.9s.7 8.9 1.4 19.9 1 20 .9 20Z"/><path fill="#ae7461" d="M101.8 453s.7-4.3 3.5-4.3 5.5 3.8 5.5 3.8-6.1 3-9 .6ZM113.2 448.6c0-.5 0-.9.2-1.3a1.6 1.6 0 0 1 1.2-.8 1 1 0 0 1 1 .8 1.2 1.2 0 0 1-.8 1.2 5.1 5.1 0 0 1-1.6 0"/><path fill="#d8b4a1" d="M69.3 140.3a4.5 4.5 0 0 1 .4 2 6.5 6.5 0 0 1 .9-2.3c.1-.2.4-.5.7-.4s.4.4.4.7a5 5 0 0 1-.5 2.5 5.3 5.3 0 0 1 2-1.6.5.5 0 0 1 .5 0l.1.5a4.2 4.2 0 0 1-2.5 3.2h-.5a3.9 3.9 0 0 1-2.8-4.4c.1-.4.3-.8.7-.8s.5.3.6.6Z"/><path fill="#455a64" d="M79.2 160a12.4 12.4 0 0 0-4.2-1.7 17.2 17.2 0 0 0 .1-9.2 8.7 8.7 0 0 0-1.5-3.3 4.5 4.5 0 0 0-3.1-1.8 4.4 4.4 0 0 0-3.5 1.6l-1.5 3.6a13.3 13.3 0 0 0-.2 1.5 18.7 18.7 0 0 0 2.2 10 10.4 10.4 0 0 0-2.8 8.3h18.2a10.1 10.1 0 0 0-3.7-9Z"/><path fill="#263238" d="M66.7 161.8a.8.8 0 0 1 .1-.2 6.2 6.2 0 0 1 .5-.5 8.4 8.4 0 0 1 2-1.6 9.3 9.3 0 0 1 3.6-1.1 8.7 8.7 0 0 1 8.1 3.5 9.6 9.6 0 0 1 1.7 3.4 8.4 8.4 0 0 1 .2 2.5 4.6 4.6 0 0 1 0 .7.7.7 0 0 1 0 .3 11.1 11.1 0 0 0-.4-3.4 9.7 9.7 0 0 0-1.7-3.3 8.6 8.6 0 0 0-8-3.5 9.7 9.7 0 0 0-3.5 1.1 11.3 11.3 0 0 0-2.6 2.1ZM65.2 152a4.3 4.3 0 0 1 0-1.2 10.3 10.3 0 0 1 .4-2.9 5.9 5.9 0 0 1 1.6-2.5 2.5 2.5 0 0 1 1-.6s-.4.2-.9.8A6.6 6.6 0 0 0 66 148a14.3 14.3 0 0 0-.6 2.8 6.2 6.2 0 0 1-.1 1.2Z"/><path fill="#263238" d="M75.7 166.7a16.4 16.4 0 0 1 1.7-1.8 15.8 15.8 0 0 1 1.8-1.7 8 8 0 0 1-1.6 2 8.6 8.6 0 0 1-1.9 1.5ZM73.7 165.6a6.3 6.3 0 0 1 .3-1.8 5.9 5.9 0 0 1 .5-1.7 6.3 6.3 0 0 1-.3 1.8 6.2 6.2 0 0 1-.5 1.7ZM68.3 163.6a7 7 0 0 1 1.6 3.5 13.4 13.4 0 0 1-.9-1.7 12.2 12.2 0 0 1-.7-1.8ZM74.1 155a8.5 8.5 0 0 1 1.3-1.8 9 9 0 0 1 1.4-1.7 9 9 0 0 1-1.2 1.9A9 9 0 0 1 74 155ZM72.8 149.4a12.3 12.3 0 0 1 1.4-2.3 12.7 12.7 0 0 1 1.6-2.1 13.3 13.3 0 0 1-1.4 2.3 13.3 13.3 0 0 1-1.6 2ZM70.8 150.9a7 7 0 0 1 .2 1.9 6.5 6.5 0 0 1 0 2 7 7 0 0 1-.3-2 7.3 7.3 0 0 1 0-2ZM62.6 153.5a11.8 11.8 0 0 1 2.6 1.3 12.3 12.3 0 0 1 2.3 1.7A22.2 22.2 0 0 1 65 155a22 22 0 0 1-2.4-1.5Z"/><path d="M69.1 158.4a6.5 6.5 0 0 1 3-.8 3.7 3.7 0 0 1 3 .9 11 11 0 0 0-7.4 2.3 3 3 0 0 1 1.4-2.4Z" opacity=".3"/><path fill="#d8b4a1" d="M77.8 122.5a3.6 3.6 0 0 1 1.6 0 5.3 5.3 0 0 1-1.7-1c-.2-.1-.4-.3-.3-.6s.4-.2.7-.2a4 4 0 0 1 1.8.7 4.3 4.3 0 0 1-1-1.8.4.4 0 0 1 0-.4.4.4 0 0 1 .4 0 3.3 3.3 0 0 1 2.2 2.3v.4a3 3 0 0 1-3.7 1.7c-.3 0-.6-.2-.6-.5s.4-.5.6-.6ZM114.6 99.2a3.5 3.5 0 0 1 0 1.6 5.2 5.2 0 0 1 1-1.6c.2-.2.4-.3.6-.2s.3.4.2.6a3.9 3.9 0 0 1-.8 1.8 4.3 4.3 0 0 1 1.9-.9.4.4 0 0 1 .3 0c.1.1 0 .3 0 .4a3.3 3.3 0 0 1-2.5 2.1h-.3a3 3 0 0 1-1.5-3.9c.1-.2.4-.5.6-.5s.5.4.5.6Z"/><path fill="#455a64" d="M89 147h.8c.5-5.2-1.1-10.5.5-15.5l-.2.3a11.8 11.8 0 0 1-5.8-.5 7.2 7.2 0 0 1-4.1-3.9 5.2 5.2 0 0 1 .9-5.4c1.8-1.9 5-1.8 7.2-.5s3.7 3.4 5.2 5.5a9.7 9.7 0 0 1 2.5-1.5 29 29 0 0 1-5.7-11.2c-1-4.6.8-10 5-12 3.7-1.6 8.2-.1 10.8 3a7.8 7.8 0 0 1 .5.7v-.3a6.6 6.6 0 0 1 3.4-3.6 5.6 5.6 0 0 1 4.9.2 4.9 4.9 0 0 1 2.4 4.3 5.4 5.4 0 0 1-3.1 4.5 8.5 8.5 0 0 1-5.4.5 16.5 16.5 0 0 1 0 4.8 28 28 0 0 1-4.2 10.2 8.7 8.7 0 0 1 1.5 1.2c3.3 3.5 3.5 9 1.8 13.4s-6.4 7.7-9.6 11.2a21.2 21.2 0 0 1 2.5 7.8 7 7 0 0 1 6.2-4c1.4 0 3 .6 3.4 2a3.6 3.6 0 0 1-1 3.3 9 9 0 0 1-8.3 2.5v-.9a38 38 0 0 1-.2 6H80s-5.5-22.7 9-22.2Z"/><path fill="#d8b4a1" d="M105.4 177.7H56V169h49.3z"/><path fill="#d8b4a1" d="m101.7 176-6 26.1H66.4L59.8 176h41.9z"/><path fill="#263238" d="M56.2 177.7c0 .1 11.1.2 24.8.2l24.8-.2c0-.2-11.1-.1-24.8-.1l-24.8.1ZM85.1 147.8a1 1 0 0 1 .3-.2 6.8 6.8 0 0 1 .9-.3 8.4 8.4 0 0 1 3.4-.4 10.5 10.5 0 0 1 4.8 1.7 13 13 0 0 1 4.2 4.6 19 19 0 0 1 2 6 31.3 31.3 0 0 1 .3 5.1v4.5a1.7 1.7 0 0 1 0 .3 2 2 0 0 1 0-.4v-4.4a32.2 32.2 0 0 0-.5-5 19.3 19.3 0 0 0-2-5.9 12.8 12.8 0 0 0-4-4.6 10.5 10.5 0 0 0-4.7-1.7 8.8 8.8 0 0 0-3.3.3l-1.4.4ZM89.5 136.7a.9.9 0 0 1 0-.2 6.2 6.2 0 0 1 0-.7 11.2 11.2 0 0 1 .3-2.6 12.1 12.1 0 0 1 1.5-3.6 10 10 0 0 1 1.4-1.9 8.4 8.4 0 0 1 4.3-2.4 9.7 9.7 0 0 1 2.3-.2 11.6 11.6 0 0 1 3.8.9 12.7 12.7 0 0 1 2.3 1.3l.5.4.2.1-.8-.5a14.4 14.4 0 0 0-2.3-1.1 11.8 11.8 0 0 0-3.7-.8 9 9 0 0 0-2.3.1 8.2 8.2 0 0 0-2.2 1 8 8 0 0 0-2 1.4 10 10 0 0 0-1.3 1.8 12.6 12.6 0 0 0-1.5 3.5 12.3 12.3 0 0 0-.4 2.6 7.5 7.5 0 0 1 0 1ZM108.9 114.7a10.1 10.1 0 0 1-.2-1.7c0-.5 0-1-.2-1.8a8.9 8.9 0 0 0-.6-2 21.9 21.9 0 0 0-1.9-3.6l-1-1.4a1.6 1.6 0 0 1 .3.3 10 10 0 0 1 .8 1 17.5 17.5 0 0 1 2 3.6 8.2 8.2 0 0 1 .6 2.2 16.6 16.6 0 0 1 .2 1.8 10.2 10.2 0 0 1 0 1.6ZM106.2 161.5a5.5 5.5 0 0 1 1.4 1 6 6 0 0 1 1.3 1.3 5.5 5.5 0 0 1-1.5-1 6 6 0 0 1-1.2-1.3ZM108 159.8a5.5 5.5 0 0 1 1.7-.3 5.7 5.7 0 0 1 1.8 0 5.7 5.7 0 0 1-1.8.3 6 6 0 0 1-1.8 0ZM106.6 156.7a9.2 9.2 0 0 1 1-1.4 9.8 9.8 0 0 1 1-1.3 3.6 3.6 0 0 1-.7 1.5 3.9 3.9 0 0 1-1.3 1.2ZM104.3 155.3a15.2 15.2 0 0 1-1 4 8 8 0 0 1 .4-2 7.6 7.6 0 0 1 .6-2ZM102.7 162.3l.8-.8.9-.7-.7.9c-.4.4-1 .7-1 .6Z"/><path fill="#263238" d="M95.5 161s.3-.6.9-1.1a4 4 0 0 1 1-1l-.8 1.2a4 4 0 0 1-1.1.9ZM94 154.3a8.3 8.3 0 0 1 1.5-2.6 4.2 4.2 0 0 1-.7 1.4 4.4 4.4 0 0 1-.9 1.2ZM89.3 148.8a5.3 5.3 0 0 1 .2 1.8 6 6 0 0 1-.1 1.7 5.6 5.6 0 0 1-.2-1.7 5.4 5.4 0 0 1 .1-1.8ZM79.6 150.7a12.6 12.6 0 0 1 1.4 1.6 11.7 11.7 0 0 1 1.3 1.7 9.5 9.5 0 0 1-2.7-3.3ZM78.4 160.2a5.3 5.3 0 0 1 1.7.2 5.6 5.6 0 0 1 1.7.4 5.3 5.3 0 0 1-1.7-.2 5.6 5.6 0 0 1-1.7-.4ZM88.4 163.5a5 5 0 0 1 .7-1.9 4.9 4.9 0 0 1 1.1-1.7 14.6 14.6 0 0 1-.9 1.8 12.4 12.4 0 0 1-.9 1.8ZM85 159a3.5 3.5 0 0 1 0-1.5 3.9 3.9 0 0 1 0-1.4 3.4 3.4 0 0 1 .2 1.4 3.9 3.9 0 0 1-.1 1.4ZM95.9 167a3 3 0 0 1 .6-1.5 3.1 3.1 0 0 1 1-1.2 8.3 8.3 0 0 1-.8 1.4 8.7 8.7 0 0 1-.8 1.3ZM84.4 167.6a4.3 4.3 0 0 1-.7-1.3 4.3 4.3 0 0 1-.5-1.5 9 9 0 0 1 1.2 2.8ZM102.2 146.5a6.6 6.6 0 0 1 2-.1 7.3 7.3 0 0 1 1.8.2 6.7 6.7 0 0 1-1.9 0 7.3 7.3 0 0 1-1.9-.1ZM106.4 139.3a10.6 10.6 0 0 1 1.8-1.4 11 11 0 0 1 2-1.3 19.6 19.6 0 0 1-3.8 2.7ZM106 130.2a12.9 12.9 0 0 1 1.5-1 12.1 12.1 0 0 1 1.5-1 5.8 5.8 0 0 1-3 2ZM101.3 127a9.3 9.3 0 0 1 .4-2.2 9.8 9.8 0 0 1 .7-2.2 8.7 8.7 0 0 1-.4 2.2 9.8 9.8 0 0 1-.7 2.2ZM93.5 124.7a4.5 4.5 0 0 1 1 1.3 4.6 4.6 0 0 1 .6 1.5 4.8 4.8 0 0 1-1-1.3 5 5 0 0 1-.6-1.5ZM86.8 140.1a24.3 24.3 0 0 1 2.1 1.3 23.2 23.2 0 0 1 2.2 1.3 7.7 7.7 0 0 1-2.3-1 7.2 7.2 0 0 1-2-1.6ZM97.7 143.6a4.6 4.6 0 0 1 1.3-1 5.6 5.6 0 0 1 1.5-.8 5 5 0 0 1-1.3 1 5.1 5.1 0 0 1-1.5.8ZM99.5 136.2l1.3-1.8 1-1.9a6 6 0 0 1-2.3 3.7ZM96 134.5a5.8 5.8 0 0 1-.1-1.7 6.3 6.3 0 0 1 .2-1.8 5.5 5.5 0 0 1 0 1.8 6.3 6.3 0 0 1-.2 1.7ZM94 141.8a6.1 6.1 0 0 1-.3-1.8 5.8 5.8 0 0 1-.1-1.8 12 12 0 0 1 .4 3.6ZM88.5 119.9a16 16 0 0 1 .5 2 14.5 14.5 0 0 1 .6 2 8.4 8.4 0 0 1-1.1-4ZM84.6 132.7a13 13 0 0 1 1.6-1.2 12.9 12.9 0 0 1 1.6-1.2 5.1 5.1 0 0 1-1.5 1.4 5.3 5.3 0 0 1-1.7 1ZM79.3 128.7a11.7 11.7 0 0 1 2-.3 12.7 12.7 0 0 1 2-.4 7.7 7.7 0 0 1-4 .7ZM84.4 124.3a2.9 2.9 0 0 1 1.1.6l1 .8a2.9 2.9 0 0 1-1-.6c-.7-.3-1.1-.7-1-.8ZM81.9 119.6a3.4 3.4 0 0 1 1.2 1 3.5 3.5 0 0 1 .9 1.4 8.3 8.3 0 0 1-1-1.2 8.4 8.4 0 0 1-1.1-1.2ZM78.4 124.1a10.7 10.7 0 0 1 1.8.5 9.6 9.6 0 0 1 1.8.5 4.8 4.8 0 0 1-1.9-.3 4.5 4.5 0 0 1-1.7-.7ZM102.6 118l1.5-2.3a24 24 0 0 1 1.6-2.4 11 11 0 0 1-1.3 2.5 10.6 10.6 0 0 1-1.8 2.3ZM101 112.5a7.5 7.5 0 0 1 .1-2 7.6 7.6 0 0 1 .4-2 8 8 0 0 1 0 2 7.6 7.6 0 0 1-.5 2ZM95.6 113.4l.9 2.2 1 2.2a5.7 5.7 0 0 1-1.3-2 5.6 5.6 0 0 1-.6-2.4ZM89.3 114.7l2 2c1 1 2 1.7 2 1.7a8.1 8.1 0 0 1-2.2-1.6 8 8 0 0 1-1.8-2ZM91.8 103.3l.7 2.5c.4 1.4 1 2.5.8 2.5a8 8 0 0 1-1-2.4 8.2 8.2 0 0 1-.5-2.6ZM99 99.5a7.6 7.6 0 0 1 .3 2 7.5 7.5 0 0 1 0 2 7.5 7.5 0 0 1-.3-2 7.5 7.5 0 0 1 0-2ZM114 109.2a7.6 7.6 0 0 1 1.6.1 8.1 8.1 0 0 1 1.5.1 3.2 3.2 0 0 1-1.6.2 3.2 3.2 0 0 1-1.5-.4ZM113.6 105.4a12.2 12.2 0 0 1 2.1-1.3 11 11 0 0 1 2.3-1 12.7 12.7 0 0 1-2.1 1.3 11 11 0 0 1-2.3 1ZM109.5 105.5a7.2 7.2 0 0 1 .5-1.9 7 7 0 0 1 .7-1.8 7.7 7.7 0 0 1-.4 1.9 7 7 0 0 1-.8 1.8Z"/><path d="M98.2 152.4a6.5 6.5 0 0 0-2.8-5.1c-1.6-1.1-4.6-1.2-5.7-.4a8.8 8.8 0 0 1 5 1.8 14 14 0 0 1 3.4 3.7M104.6 127a5.6 5.6 0 0 0-4-3c-1.7-.4-4 .5-4.7 1.6a7.7 7.7 0 0 1 4.6-.4 12.1 12.1 0 0 1 4 1.8M108.8 111.9a4.4 4.4 0 0 0 .3-3.9 3.8 3.8 0 0 0-2.7-2.2 11.5 11.5 0 0 1 2.4 6.2" opacity=".3"/><path fill="#263238" d="m82.6 149-.6.6a11.2 11.2 0 0 0-1.2 1.9 20 20 0 0 0-1.8 7 32.5 32.5 0 0 0 .4 7.5l.3 2.2a4.6 4.6 0 0 1 .2.8 4.5 4.5 0 0 1-.3-.8l-.4-2.2a29.6 29.6 0 0 1-.5-7.5 19 19 0 0 1 2-7.2 9 9 0 0 1 1.3-1.8 2.2 2.2 0 0 1 .6-.5Z"/><path fill="#263238" d="M105.4 169H56.2v-.1 8.6a1 1 0 0 1 0 .1V168.8H105.5Z"/><path fill="#e0e0e0" d="M88.8 191.7v10.8H42.3a5.4 5.4 0 0 1-5.4-5.4 5.4 5.4 0 0 1 5.4-5.4"/><path fill="#fafafa" d="M88.8 200.3H73.5a3.1 3.1 0 0 1-3.2-3.2 3.1 3.1 0 0 1 3.2-3.1h15.3Z"/><path fill="#455a64" d="m108.9 184.5-7.4 17.5h4.8l3.3-9.5-.7-8z"/><path fill="#455a64" d="m131.6 168.7 2.9 33.5-24.2-.1-2.7-33.4h24z"/><path fill="#fafafa" d="m129.2 171.3 2.5 27.6-18.1.3-2.4-28.1 18 .2z"/><path fill="#263238" d="m125.4 175.1 1.4 19h-9.7l-1.7-19h10z"/><path fill="#455a64" d="M46.5 244.8h10.4v86.1H46.5zM127.4 244.1h10.4V331h-10.4z"/><path fill="#455a64" d="m142.8 245.7-100.2.2v-37.1h100.2v36.9z"/><path fill="#263238" d="M142.8 245.7V235.8l-.1-27 .1.1-100.2.1.2-.2V246l-.2-.2h98.2-5.5l-20.8.1-72 .2h-.1V208.6h100.5v36.5l-.1.6Z"/><path fill="#263238" d="M134.5 238.4v-24.1.1H50.3l.2-.1v24l-.2-.1H133h-4.7l-17.6.1-60.5.1H50V214h84.7V237.9l-.2.6Z"/><path fill="#263238" d="M53.2 235.2a6.1 6.1 0 0 1-1.4 1.6 6 6 0 0 1-1.6 1.4 6.3 6.3 0 0 1 1.4-1.6 6.4 6.4 0 0 1 1.6-1.4ZM53.2 217.4a6.5 6.5 0 0 1-1.7-1.4 6.4 6.4 0 0 1-1.4-1.7 7.3 7.3 0 0 1 1.7 1.5 6.9 6.9 0 0 1 1.4 1.6ZM134.7 214.4a6.6 6.6 0 0 1-1.9 1.6 11.6 11.6 0 0 1-2 1.4 6.8 6.8 0 0 1 1.8-1.6 11.5 11.5 0 0 1 2-1.4ZM134.5 238.4a8.6 8.6 0 0 1-2-1.5 8.1 8.1 0 0 1-1.7-1.7 8.5 8.5 0 0 1 2 1.5 8 8 0 0 1 1.7 1.7Z"/><path fill="#263238" d="M130.7 235.2v-17.7h.1l-77.2.1.2-.1v17.7l-.2-.2 55 .1H129.4h-20.5l-55.3.1h-.2v-18.1h77.5V235.3Z"/><path fill="#e0e0e0" d="M99.2 224.7a7.7 7.7 0 0 0-1.8-.8 6.5 6.5 0 0 0-2-.3h-5a6.1 6.1 0 0 0-4.2 1.5 3.4 3.4 0 0 0-.6.7 2 2 0 0 0 .2 2.4c.7.6 2 .3 2.1-.6a2.2 2.2 0 0 0 2.4 2 3 3 0 0 0 2.5-2 2 2 0 0 0 2 1.9 2 2 0 0 0 2-1.7 2.6 2.6 0 0 0 2.7 1.2 1.9 1.9 0 0 0 1.3-1.3 2.9 2.9 0 0 0-1.6-3Z"/><path fill="#263238" d="M91.3 223.6a10.3 10.3 0 0 0-2.2 1.8A9.5 9.5 0 0 0 88 228a1.6 1.6 0 0 1 0-.8 4.7 4.7 0 0 1 1-1.9 5 5 0 0 1 1.5-1.3c.5-.3.8-.3.8-.3ZM93.2 223.8a10.2 10.2 0 0 1-.4 3.8 5.4 5.4 0 0 1 0-2 5.2 5.2 0 0 1 .4-1.8ZM95.7 223.7l.6.4a3.1 3.1 0 0 1 .7 1.5 5 5 0 0 1 0 1.6l-.1.7-.1-.7a9.4 9.4 0 0 0-.1-1.5 3.8 3.8 0 0 0-.6-1.4l-.4-.6Z"/><path fill="#455a64" d="M35.4 202.1h113.4v8.9H35.4z"/><path fill="#263238" d="M148.8 211V202.1l-113.3.2.2-.2v8.9l-.2-.2h113.3-8.7l-24 .1-80.6.1h-.3v-9.3h.2l113.4.1v9.2Z"/><path fill="#ae7461" d="m560.6 338.9-6.5-37h-21.2l14.2 37h13.5zM169.4 338.5l12.2-47.5h21.2l-19.9 47.6-13.5-.1z"/><path fill="#455a64" d="M169 186.3s21.8-8.8 44-4.6c4.3.8 1.8 43.8 1.8 43.8l-16.4 12.6-29.4-51.8"/><path d="M169 186.3s21.8-8.8 44-4.6c4.3.8 1.8 43.8 1.8 43.8l-16.4 12.6-29.4-51.8" opacity=".3"/><path fill="#455a64" d="M193 284.7v-35.5h176.3l1.9 35.6Z"/><path fill="#455a64" d="M174 185.2h10.3a14.2 14.2 0 0 1 14.1 14.1v86.4a1.7 1.7 0 0 1-1.6 1.7H174a14.2 14.2 0 0 1-14.2-14.1v-74a14.2 14.2 0 0 1 14.2-14.2Z"/><path fill="#455a64" d="M373.9 225.5c.1-.7-1.3-4.6-13.6-4.2-9.4.3-141.2-.6-147.7 5.2-16.3 14.8-19.5 10.3-21.3 23.9l182.6-1.2Z"/><rect width="415.7" height="17.6" x="162.3" y="284.3" fill="#455a64" rx="6.5"/><path fill="#455a64" d="m523.8 225.5 2.2-56.3a9 9 0 0 0-9-9.3l-147.7.9v64.7ZM545.6 284.7v-35.5H369.3l.8 35.2Z"/><path fill="#455a64" d="M373 225c-.1-.7 1-4 12.7-3.7 8.9.3 131.9-.9 138.5 4.2s19.4 10.3 21.4 24.8l-172.8-1.1Z"/><path fill="#455a64" d="M570.8 186.5a87.3 87.3 0 0 0-45-4.8c-4.6.8-2 43.8-2 43.8l19.3 15.2 27.7-54.2"/><path d="M570.8 186.5a87.3 87.3 0 0 0-45-4.8c-4.6.8-2 43.8-2 43.8l19.3 15.2 27.7-54.2" opacity=".3"/><path fill="#455a64" d="M564.6 287.4h-24.4v-88.1a14.2 14.2 0 0 1 14.1-14.2h10.3a14.2 14.2 0 0 1 14.2 14.2v74a14.2 14.2 0 0 1-14.2 14Z"/><path fill="#263238" d="M570.9 284.4c0 .1-89.7.4-200.3.5s-200.3 0-200.3-.1 89.7-.4 200.3-.5 200.3 0 200.3 0ZM374.2 160.7a1.3 1.3 0 0 1 0 .4v4.5l.1 13.2.1 43.7V266l-.2 13.3v4.6-1l-.1-3.6-.1-13.2-.1-43.7c-.1-17 .1-32.5.1-43.7v-13.2l.1-3.6v-1a1.3 1.3 0 0 1 0-.3Z"/><path fill="#455a64" d="m214.8 225.5-2.2-56.3a9 9 0 0 1 9-9.3l147.7.9v64.7Z"/><path fill="#263238" d="m524.7 226.5 1.8 1.3 5.2 4 8.6 6.3a15.6 15.6 0 0 1 4.6 5.2 9 9 0 0 1 .4 7.7l-330.6-.8H193v-.3a12 12 0 0 1 2.2-7.9 19 19 0 0 1 2.7-3.1c1-1 2-1.8 3.1-2.6l12.4-10h.2a11849.7 11849.7 0 0 1 287.3-.2l17.7.3h4.6l1.6.1-89.5-.6c-55.8-.3-133.6-.2-221.7.9h.2l-12.4 9.9c-1 .8-2.1 1.6-3.1 2.6a18.8 18.8 0 0 0-2.6 3 14.1 14.1 0 0 0-1.7 3.5 9.3 9.3 0 0 0-.4 4l-.3-.3h21.4l330.6 1.3h-.1a8.8 8.8 0 0 0-.5-7.5 15.6 15.6 0 0 0-4.4-5l-8.5-6.5-5.3-4Z"/><path fill="#263238" d="M193.2 249.4c.1 0 .2 7.9.2 17.5s0 17.6-.3 17.6-.2-7.9-.2-17.6.1-17.5.3-17.5ZM545.2 250.3c.2 0 .3 7.6.3 17s-.1 17-.3 17-.2-7.5-.2-17 0-17 .2-17Z"/><path fill="#e0e0e0" d="M378.9 397c-7.9-7.7-21.4-21.6-37.4-24.8-12.3-2.4-23.6 0-35.5 2.9s-24.5 6.2-34.2 10.6l-.5.2-1.7 1c-2.3 1.2-2.9 3-1.3 4.5a163 163 0 0 0 30.5 21.3c6.3 3.6 20.8 10.4 29.4 8.4 12.3-2.7 25-6.2 36.2-8.5 8.3-1.7 17.6-4.3 18.5-8.7.6-2.4-1.8-4.8-4-7Z"/><path fill="#455a64" d="M376.3 391.6c-7.9-7.7-21.4-21.6-37.4-24.7-12.3-2.5-23.6-.1-35.5 2.8s-24.5 6.2-34.2 10.6l-.5.2-1.7 1c-2.3 1.2-2.9 3-1.3 4.5a163 163 0 0 0 30.5 21.3c6.2 3.6 20.8 10.4 29.4 8.5 12.3-2.8 25-6.3 36.2-8.6 8.3-1.7 17.6-4.2 18.5-8.7.5-2.4-1.8-4.8-4-7Z"/><path fill="#263238" d="M319.8 413.4a2.7 2.7 0 0 1-.4-.4l-1.2-1.3c-.4-.6-1-1.3-1.8-2l-1.1-1.3-1.4-1.3a82.1 82.1 0 0 0-7.1-6 108 108 0 0 0-9.6-6.3 101.9 101.9 0 0 0-10.2-5.1 72 72 0 0 0-8.7-3.2l-1.9-.5-1.6-.4c-1-.2-2-.4-2.7-.4l-1.7-.3a2.6 2.6 0 0 1-.6-.1 2.8 2.8 0 0 1 .6 0l1.8.1a21.7 21.7 0 0 1 2.7.5l1.6.3 1.9.4a66 66 0 0 1 8.8 3.1 94.6 94.6 0 0 1 10.3 5.2 101.7 101.7 0 0 1 9.6 6.3 76.1 76.1 0 0 1 7 6.2l1.4 1.3 1.2 1.3a27 27 0 0 1 1.7 2l1 1.4a2.4 2.4 0 0 1 .4.5Z"/><g fill="#d8b4a1"><path d="m477.5 51.2-10.7 12.7-4.4-6.3L451 75.9l10.2-11.2 4.6 6.8 14.5-16-2.8-4.3zM484 81l-12.7 3 .2-6-15.8 6.2 11.7-2.3-.3 6.4 16.6-3.3.3-4z"/></g><path fill="#ffbf9d" d="M622.4 200c0 .5-8 27.4-8 27.4l-4 7.7-2.2 26-10 1.6-6.7-6.7s1-18.9 6.7-29.1 14.1-34 14.1-34Z"/><path fill="#ffbf9d" d="M620.3 190.7c0 .2 7.6 3.6 7.6 3.6s-2 5.8-5.8 6.5-9.5-6.4-9.5-6.4v-4.5Z"/><path fill="#d8b4a1" d="M649.2 153.8c-12.8 6.1-26 12.5-35.6 24.3-2 2.6-4 6.4-2.3 9.5a7.5 7.5 0 0 0 4 3l37.3 16c6 2.6 12.1 5.2 18.5 6s13 0 18-4.3c3.8-3.1 6.6-7.8 10.6-10.6 3.7-2.7 8.1-3.5 12.4-4.8s8.6-3.3 11.2-7.5 2.4-11.2-1.3-14.4c0 0-3.9-5-14.7-9.3s-27-12.7-37.6-14c0 0-2.4-1.2-9.9 1s-10.6 5-10.6 5Z"/><path fill="#ffbf9d" d="m667.6 216.7-7.1 32.1-13.4 26-.5 1-10 .6-7.5-7.8s9.2-14.9 16-24.5 13.1-35.8 13.1-35.8Z"/><path fill="#ffbf9d" d="M658.8 213.2a16.5 16.5 0 0 1-1.9-7.7 49.6 49.6 0 0 1 .8-8c.1-1 .4-2.4 1.5-2.7a2 2 0 0 1 2.2 1.3 5.8 5.8 0 0 1 .2 2.8 6 6 0 0 0 .1 2.9c.6 1.5 2.3 2.2 3.3 3.5 1.8 2 1.6 5 1.4 7.7Z"/><path fill="#ffbf9d" d="M666.3 208.7c-.3 1.6 7.2 3.7 7.2 3.7s-2.7 6.2-6.5 6.5-9.4-7.7-9.4-7.7l1.2-4.2ZM613 195a16.6 16.6 0 0 1-2.6-7.4 48.8 48.8 0 0 1-.2-8c0-1 .2-2.4 1.2-2.8a2 2 0 0 1 2.4 1 5.9 5.9 0 0 1 .5 2.8 6 6 0 0 0 .4 2.8c.8 1.4 2.5 2 3.7 3 2 2 2.1 5 2.2 7.6Z"/><path d="M640.4 192.7a31 31 0 0 1 14.2 9.4 96.8 96.8 0 0 1-31.2-12.2 59.4 59.4 0 0 1 17 2.8Z" opacity=".3"/><path fill="#ebebeb" d="M648.4 198.7a3.6 3.6 0 0 1-2.4 1.4 10.7 10.7 0 0 1-2.8 0l-7.2-.6a1.4 1.4 0 0 1-1.1-.4c-.4-.5 0-1.1.3-1.5a7.8 7.8 0 0 1 7-3c2.7.4 5.2 1.7 6.2 4.1"/><path fill="#e0e0e0" d="M637.8 198a7.3 7.3 0 0 1 2-.5 17.3 17.3 0 0 1 5 0 9.9 9.9 0 0 1 4.7 1.8 4.8 4.8 0 0 1 1.5 1.5l-1.7-1.2a11 11 0 0 0-4.5-1.7 22.4 22.4 0 0 0-5 0 10 10 0 0 1-2 .1Z"/><path fill="#ebebeb" d="M627.6 204a3.1 3.1 0 0 1 2 1.1 9.2 9.2 0 0 1 1.4 2.1l2.8 5.6a1.3 1.3 0 0 1 .1 1c-.1.5-.7.5-1.2.5a6.7 6.7 0 0 1-5.4-4 6.4 6.4 0 0 1 .3-6.3"/><path fill="#e0e0e0" d="m631.8 212.1-1.2-1.2a14.6 14.6 0 0 1-2.4-3.7 8.4 8.4 0 0 1-.7-4.3 3.8 3.8 0 0 1 .5-1.8 17.7 17.7 0 0 1-.2 1.8 9.7 9.7 0 0 0 .8 4 20.6 20.6 0 0 0 2.2 3.7 6.9 6.9 0 0 1 1 1.5Z"/><path fill="#ff9a6c" d="M665.5 206a4.5 4.5 0 0 1 1.1 2.6 4.6 4.6 0 0 1 0 2l-.5.7a13.2 13.2 0 0 0 0-2.7 27.5 27.5 0 0 1-.6-2.6ZM619.6 188.9a4.5 4.5 0 0 1 1.2 2.6 4.6 4.6 0 0 1-.1 2c-.2.5-.4.8-.5.7a13.3 13.3 0 0 0 0-2.7c-.2-1.4-.7-2.5-.6-2.6Z"/><path fill="#d8b4a1" d="M589.9 287.2c.5-1-1.2-34.6 3-42.6l18.1 11.2-9.6 27.8Z"/><path fill="#263238" d="M608.9 210a6.8 6.8 0 0 0-4.7 6s.2-.4-1.7-.6a5.8 5.8 0 0 0-4.4 1.4c-1.1 1-3.4 4.3-1.8 7.1-2.8 1.8-.1 10.5.8 12.7 1.2 3 1.8 2.9 4.8 4.2 4.9 2.2 6-.7 11-2.4 9.4-3 19.4-4 29.2-5 2.3-5.2-.6-12.7-5.8-15.3s-10-.8-16.5-4.3c0 0-6.2-5-11-3.8Z"/><path fill="#ffbf9d" d="M599.4 231.3c2.5-7 12.3-12 19.2-9.2l18.7 10-.3 3.6-15.6 48.5.6.1s-4.3 14.8-17 10.2c-11.4-4.1-5.9-15.8-5.9-15.8l3.5-10.1s-11.1-3-9.6-15.5c.8-6.2 3.6-14 6.4-21.8Z"/><path fill="#263238" d="M599.6 243.6a1.6 1.6 0 0 0 1 2 1.5 1.5 0 0 0 2-1 1.6 1.6 0 0 0-1-2 1.5 1.5 0 0 0-2 1ZM599.7 238.2c.1.3 1.5-.2 3.2.2s2.6 1.7 2.8 1.5 0-.4-.3-1a4.3 4.3 0 0 0-2.3-1.4 4.2 4.2 0 0 0-2.6 0c-.6.3-.9.6-.8.7ZM612.9 247.7a1.6 1.6 0 0 0 1 2 1.5 1.5 0 0 0 2-1 1.6 1.6 0 0 0-1-2 1.5 1.5 0 0 0-2 1ZM614.8 242.8c.1.3 1.5-.2 3.2.3s2.6 1.6 2.8 1.5 0-.5-.4-1a4.4 4.4 0 0 0-2.2-1.5 4.2 4.2 0 0 0-2.6.1c-.6.2-.9.5-.8.7ZM605.8 252.3c0-.1-.1-.2-1.7-.9-.4-.1-.8-.3-.8-.5s.2-.6.5-1l2-2a29.6 29.6 0 0 0 2.9-3.8c-.2-.1-.9.3-3.6 3.4l-1.8 2.1c-.3.3-.7.7-.6 1.2a1 1 0 0 0 .6.7 3.4 3.4 0 0 0 .6.3c1.7.6 1.9.5 1.9.5Z"/><path fill="#ff9a6c" d="M602.6 268.6s6.3 2.3 15.6-.2c0 0-5.1 8.1-16.8 3.6Z"/><path fill="#263238" d="M617.2 237.3c0 .5 1.6.6 3.3 1.2s3 1.5 3.3 1c.1-.1 0-.7-.5-1.3a4.8 4.8 0 0 0-2.3-1.7 4.4 4.4 0 0 0-2.7 0c-.7.2-1 .5-1 .8ZM602.4 231.8c0 .6 1.3.8 2.6 1.6s2.1 1.8 2.6 1.6c.2-.2.3-.7.1-1.3a4 4 0 0 0-4.2-2.6c-.7.1-1.1.4-1.1.7ZM641.8 228.5s7.4 2 6.1 10.9-7 15.3-11.8 18-7.4 2.4-7.4 2.4v-15.6Z"/><path fill="#263238" d="M602.4 224.8a18 18 0 0 1 13-5.1 30 30 0 0 1 13.8 3.8 89.4 89.4 0 0 1 12 8 3.6 3.6 0 0 1 1.7 5l-6.5 19-2.8 3.4c-2-.5-2.4-5.7-3.3-7.7-3.2-6.8-4.6-11.7-2.2-18.8a9.7 9.7 0 0 0-1.9 2.5 3.3 3.3 0 0 1-2.5 1.6c-1.8 0-2.6-2.2-2.4-4s1-3.4.6-5.1a19.8 19.8 0 0 1-8 4c-1.4.3-3 .4-4-.8a2.7 2.7 0 0 1 0-2.8 7.8 7.8 0 0 1 2.2-2.2 15.7 15.7 0 0 1-8.7 2.4 2.2 2.2 0 0 1-1.8-.7c-.5-.7.1-1.8.8-2.5Z"/><path fill="#ffbf9d" d="M631.6 251.2c.2 0 8 0 5.6 7.2s-9.2 3.4-9.1 3.1l3.5-10.3Z"/><path fill="#ff9a6c" d="m634.6 258.3.2-.5a4.3 4.3 0 0 0 .2-1.9 1.6 1.6 0 0 0-.6-1.2.7.7 0 0 0-.9 0l-.2.4v-.5a.9.9 0 0 1 .5-.3 1 1 0 0 1 .7 0 1.9 1.9 0 0 1 1 1.6 4.4 4.4 0 0 1-.3 2.1c-.5 1.5-1.7 2.6-2.8 2.5a1.5 1.5 0 0 1-1.1-.5c-.2-.3-.2-.5-.1-.5l.2.3a1.3 1.3 0 0 0 1 .4 3 3 0 0 0 2.2-2"/><path fill="#455a64" d="m631.4 227.8-.1.3-.5 1a21 21 0 0 0-1.3 3.7 14.8 14.8 0 0 0-.3 5.9 6.8 6.8 0 0 0 1.3 3.2 3.8 3.8 0 0 0 1.5 1.1 3 3 0 0 0 2 .1 4.3 4.3 0 0 0 1.8-1.2 11.3 11.3 0 0 0 1.3-1.6h-.2c.6.8 1 1.7 1.4 2.5a5.7 5.7 0 0 0 1.8 2.1 2.8 2.8 0 0 0 2.4.4 3.4 3.4 0 0 0 1.7-1.2 4 4 0 0 0 .7-1.5 5.4 5.4 0 0 0 0-2 2 2 0 0 0 0-.3 1.1 1.1 0 0 0 0 .3 5.6 5.6 0 0 1 0 .8 5 5 0 0 1-.2 1.2 4 4 0 0 1-.7 1.5 3.2 3.2 0 0 1-1.6 1.1 2.6 2.6 0 0 1-2.2-.4 5.4 5.4 0 0 1-1.7-2l-1.4-2.6a.1.1 0 0 0-.2 0 12.4 12.4 0 0 1-1.3 1.7 4 4 0 0 1-1.8 1 2.7 2.7 0 0 1-1.7 0 3.8 3.8 0 0 1-1.4-1 6.5 6.5 0 0 1-1.3-3.2 14.8 14.8 0 0 1 .2-5.7 22.4 22.4 0 0 1 1.2-3.8l.5-1v-.2ZM612.8 217.5v.3a1.5 1.5 0 0 1-.4.7l-1.1.8a1.8 1.8 0 0 0-.5.8 1.3 1.3 0 0 0 0 1 2 2 0 0 0 .8.8 3.7 3.7 0 0 0 1 .4 17 17 0 0 0 8.4-.3 16.2 16.2 0 0 0 2.3-.8l-.1-.1a12.5 12.5 0 0 0 0 2.6 4.5 4.5 0 0 0 1 2.2 2.8 2.8 0 0 0 1.8 1.1 3.2 3.2 0 0 0 1.8-.3 5.1 5.1 0 0 0 1.3-1 10.4 10.4 0 0 0 .7-.8l.5-.5a1 1 0 0 0 .1-.2l-.2.2-.4.5a6.4 6.4 0 0 1-2 1.6 3.2 3.2 0 0 1-1.8.3 2.6 2.6 0 0 1-1.7-1 4.2 4.2 0 0 1-.9-2 12.8 12.8 0 0 1 0-2.6.1.1 0 0 0 0-.1 17 17 0 0 1-2.3.8 17.3 17.3 0 0 1-5.8.6 17 17 0 0 1-2.5-.3 3.5 3.5 0 0 1-1-.4 1.7 1.7 0 0 1-.8-.8 1.2 1.2 0 0 1 0-.9 1.9 1.9 0 0 1 .4-.7l1-.9a1.4 1.4 0 0 0 .4-.7.9.9 0 0 0 0-.2.3.3 0 0 0 0-.1Z"/><path fill="#ff9a6c" d="M611 256.2a6.6 6.6 0 0 1-1.3 3.2 2.8 2.8 0 0 1-2.6 1 3.1 3.1 0 0 1-2.1-2 9.4 9.4 0 0 1-.5-3c2 .1 4.5.5 6.4.8Z"/><path fill="#263238" d="M605.1 259.7a2.8 2.8 0 0 0 2 .8 3.7 3.7 0 0 0 2.4-.6 4 4 0 0 0 1.6-2.6 3.8 3.8 0 0 0 0-1.3v-.2h-.2a27 27 0 0 0-4.5-.6 5.8 5.8 0 0 0-1.8.1c0 .2 2.7.2 6.2 1l-.2-.2a3.3 3.3 0 0 1 0 1.1 3.6 3.6 0 0 1-1.3 2.3 3.5 3.5 0 0 1-2.1.7 5.7 5.7 0 0 1-2-.5Z"/><path fill="#ffbf9d" d="m566.5 463.2-.5-19 19.4 2.4-2.6 18.6-16.3-2z"/><path fill="#455a64" d="M566.5 461v1s-18.4 6-18.9 9.5l35.6 2.7.2-12.2a19.8 19.8 0 0 1-16.9-1Z"/><path fill="#e0e0e0" d="M549.2 469.8s-1.7.6-1.6 1.7l35.6 2.7v-3"/><path fill="#263238" d="M566.5 466.5v-.7a3.7 3.7 0 0 0-.3-1.7 3.5 3.5 0 0 0-1.1-1.3c-.4-.3-.6-.3-.7-.3a9 9 0 0 1 1.5 1.8 9.6 9.6 0 0 1 .6 2.2ZM568.3 466.2a3.2 3.2 0 0 0-.4-2.4c-.6-1.2-1.6-1.7-1.6-1.6a20.6 20.6 0 0 1 1.3 1.8 18.2 18.2 0 0 1 .7 2.2ZM563.6 467.1a3.3 3.3 0 0 0-.7-3.7s.4.8.6 1.8 0 1.9.1 2Z"/><path fill="#263238" d="M564.3 462.9a2.2 2.2 0 0 0 .7-1.2 7.8 7.8 0 0 0 .3-1.5v-.9a2 2 0 0 0 0-.4.7.7 0 0 0-.4-.6.5.5 0 0 0-.6.2 1.2 1.2 0 0 0-.3.4 4 4 0 0 0-.2.9 4.5 4.5 0 0 0 .1 1.5 2.5 2.5 0 0 0 .5 1.2l-.2-1.3a5.1 5.1 0 0 1 0-1.4 3.8 3.8 0 0 1 .2-.7c0-.3.2-.5.3-.4l.2.6v.9a9.9 9.9 0 0 1-.2 1.4c-.1.8-.4 1.2-.4 1.3Z"/><path fill="#263238" d="m564.1 462.7.2.2v-.1a4.5 4.5 0 0 0-.5-1.4 5.7 5.7 0 0 0-.7-1 4.3 4.3 0 0 0-.5-.5 1 1 0 0 0-.3-.2.5.5 0 0 0-.5 0 .5.5 0 0 0-.2.6 1.7 1.7 0 0 0 .2.4 5 5 0 0 0 .5.7 5 5 0 0 0 1 .9c.7.4 1.2.5 1.2.4l-1-.7a5.5 5.5 0 0 1-.9-.9 6 6 0 0 1-.4-.6c-.2-.2-.3-.5-.2-.5l.9.6a6 6 0 0 1 .7.9 9.6 9.6 0 0 1 .7 1.3c-.1 0-.2-.1-.2 0Z"/><path fill="#ffbf9d" d="m690.8 442.5-16.7-9 11.8-15.6 14.8 11.6-9.9 13z"/><path fill="#455a64" d="m688.9 441.4.9.6s-4 19-1.2 21l20-29.4-10.4-6.4a19.9 19.9 0 0 1-9.3 14.2Z"/><path fill="#e0e0e0" d="M687.8 460.8s-.3 1.7.8 2.2l20-29.4-2.5-1.5"/><path fill="#263238" d="m693.6 444.2-.5-.5a3.8 3.8 0 0 0-1.7-.5 3.5 3.5 0 0 0-1.7.4c-.3.1-.5.3-.5.4a9 9 0 0 1 2.2-.4 9.9 9.9 0 0 1 2.2.6ZM694.3 442.4a3.3 3.3 0 0 0-2.2-.8 3.1 3.1 0 0 0-2.3.6 8.3 8.3 0 0 1 4.5.2ZM692.8 447s-.5-.8-1.6-1.2a2.5 2.5 0 0 0-2 0c0 .1.9 0 1.9.4l1.7.8Z"/><path fill="#263238" d="M689.4 444.2a2.2 2.2 0 0 0-.7-1.1 6.8 6.8 0 0 0-1.1-1 15 15 0 0 0-.7-.5 2.1 2.1 0 0 0-.5-.2.7.7 0 0 0-.6 0 .5.5 0 0 0-.2.6 1.2 1.2 0 0 0 .3.4 4.1 4.1 0 0 0 .6.6 4.3 4.3 0 0 0 1.4.7 2.4 2.4 0 0 0 1.3.2l-1.2-.4a4.8 4.8 0 0 1-1.2-.8 4.5 4.5 0 0 1-.6-.5c-.2-.2-.3-.5-.2-.5s.4 0 .7.2l.7.4a8.4 8.4 0 0 1 1.1.9l1 1Z"/><path fill="#263238" d="m689.2 444.4.2-.1h.1-.1a4.5 4.5 0 0 0-1.5-.3 6 6 0 0 0-1.2.1 4.2 4.2 0 0 0-.7.2 1 1 0 0 0-.3.2.6.6 0 0 0-.3.4.5.5 0 0 0 .5.5 2 2 0 0 0 .4 0 4.4 4.4 0 0 0 .9-.1 4.7 4.7 0 0 0 1.3-.4c.7-.4 1-.8 1-.8l-1.1.5a5.3 5.3 0 0 1-1.3.4h-.7c-.2 0-.6 0-.5-.1l.9-.5a6.1 6.1 0 0 1 1.1-.1 9.6 9.6 0 0 1 1.5 0h-.2ZM589 350.7s-15.2 37.8-20.3 48.2-5.9 59-6.8 59l24.5 3.1 6.3-49.7c1.5-2 24-40.5 24-40.5l1.2-19.4Z"/><path fill="#263238" d="m608.5 377.2 16 31c3 5 10.8 10.4 15.1 11.6l42.5 21.1 13.6-15.7-43.3-31.3-7-19.8a51 51 0 0 0-2.7-20.1l-4.3-8.6-25.2 7.7Z"/><path fill="#d8b4a1" d="M641.4 290.3c0 .7-4.5 30-4.5 30s3.8 23.8 4.5 24.8 2.4 2-2.7 6-19.6 9.9-31 10.4a59.1 59.1 0 0 1-21.1-3.4s1.5-51.6 2.7-65 7.5-20 7.5-20l3.2-.8s-1.7 7.8 6.6 9 18-7.2 18-7.2l8.7.3Z"/><path fill="#d8b4a1" d="M652.2 271c.3.4-7.7 16.5-10.5 20.7s-12.7 7.9-12.7 7.9l-5.2-25.1 9.8-15.5s15 7.3 18.6 12Z"/><path fill="#263238" d="M589.6 288.6a9.4 9.4 0 0 1 .8-2.5 25.5 25.5 0 0 1 7.6-10 9.4 9.4 0 0 1 2.2-1.4 21.7 21.7 0 0 1-2 1.7 31.1 31.1 0 0 0-7.5 9.9 21.2 21.2 0 0 1-1.1 2.3ZM625.5 276.2a29.9 29.9 0 0 1 .8 3.4 22.7 22.7 0 0 0 3.1 7.7 11.2 11.2 0 0 0 3.2 3.1 9 9 0 0 0 3.4 1.3 10.2 10.2 0 0 0 3.4-.1 2.3 2.3 0 0 1-.8.3 7 7 0 0 1-2.6.2 9 9 0 0 1-3.6-1.3 11.3 11.3 0 0 1-3.4-3.2 20.6 20.6 0 0 1-3-8l-.4-2.4a3.5 3.5 0 0 1 0-1Z"/><path fill="#ebebeb" d="M665 309a3.6 3.6 0 0 1-.6 2.8 11.1 11.1 0 0 1-2 2l-5.3 5a1.5 1.5 0 0 1-1 .4c-.6 0-.9-.7-1-1.2a7.8 7.8 0 0 1 2.7-7.2c2-1.7 4.7-2.7 7.2-1.7"/><path fill="#e0e0e0" d="M657.3 316.3a8 8 0 0 1 1-1.8 17.4 17.4 0 0 1 3.4-3.8 10 10 0 0 1 4.5-2.1 4.6 4.6 0 0 1 2.1 0l-2 .4a10.9 10.9 0 0 0-4.3 2.2 22.1 22.1 0 0 0-3.3 3.6 9 9 0 0 1-1.4 1.5Z"/><path fill="#ebebeb" d="M603 186.9a3.6 3.6 0 0 1-2.4 1.4 10.7 10.7 0 0 1-2.8 0l-7.2-.7a1.4 1.4 0 0 1-1.1-.4c-.4-.5 0-1 .3-1.5a7.8 7.8 0 0 1 7-3c2.7.4 5.2 1.7 6.2 4.2"/><path fill="#e0e0e0" d="M592.5 186.2a7.3 7.3 0 0 1 2-.5 17.3 17.3 0 0 1 5-.1 9.8 9.8 0 0 1 4.6 1.9 4.7 4.7 0 0 1 1.5 1.5l-1.7-1.2a11 11 0 0 0-4.5-1.7 22.4 22.4 0 0 0-5 0 9.8 9.8 0 0 1-2 0Z"/><path fill="#ebebeb" d="M682.5 241.8a3.7 3.7 0 0 1 1.8 2.1 10.4 10.4 0 0 1 .5 2.8l.7 7.2a1.4 1.4 0 0 1-.3 1.2c-.4.4-1 .2-1.5 0a7.8 7.8 0 0 1-4.2-6.5c0-2.6.7-5.3 3-6.8"/><path fill="#e0e0e0" d="M683.7 252.3a7.6 7.6 0 0 1-.9-1.9 17.8 17.8 0 0 1-1-5 9.9 9.9 0 0 1 1.1-4.9 4.6 4.6 0 0 1 1.2-1.7l-.9 1.9a11 11 0 0 0-.8 4.8 23 23 0 0 0 .8 4.8 9 9 0 0 1 .5 2Z"/><path fill="#ebebeb" d="M570.8 205a2.7 2.7 0 0 1 1.8.9 7.9 7.9 0 0 1 1.1 1.7l2.6 4.6a1 1 0 0 1 .2.9c-.2.3-.7.4-1 .4a5.7 5.7 0 0 1-4.7-3.1 5.4 5.4 0 0 1 0-5.4"/><path fill="#e0e0e0" d="M574.6 211.7s-.5-.3-1.1-1a12 12 0 0 1-2.2-3 7.1 7.1 0 0 1-.7-3.7 2.9 2.9 0 0 1 .4-1.5 11.1 11.1 0 0 1 0 1.5 8.2 8.2 0 0 0 .8 3.4 16.5 16.5 0 0 0 2 3 5.1 5.1 0 0 1 .8 1.3Z"/><path fill="#ebebeb" d="M572.1 259.9a3.2 3.2 0 0 1-2.1 1.1 9.6 9.6 0 0 1-2.5 0l-6.2-.8a1.2 1.2 0 0 1-.9-.4c-.3-.4 0-1 .3-1.3a6.7 6.7 0 0 1 6.2-2.4 6.4 6.4 0 0 1 5.2 3.8"/><path fill="#e0e0e0" d="M563 259a5.7 5.7 0 0 1 1.8-.4 15.1 15.1 0 0 1 4.3 0 8.7 8.7 0 0 1 4 1.8c1 .8 1.3 1.4 1.2 1.4l-1.4-1a9.4 9.4 0 0 0-3.9-1.7 20 20 0 0 0-4.2-.1 7.2 7.2 0 0 1-1.8 0Z"/><path fill="#ebebeb" d="M617.7 285.3a3.1 3.1 0 0 1 2.1 1 9 9 0 0 1 1.3 2.2l2.8 5.6a1.2 1.2 0 0 1 .2 1c-.2.4-.8.5-1.3.4a6.8 6.8 0 0 1-5.3-3.9 6.4 6.4 0 0 1 .2-6.4"/><path fill="#e0e0e0" d="M622 293.4s-.6-.4-1.3-1.3a14.8 14.8 0 0 1-2.4-3.7 8.4 8.4 0 0 1-.7-4.3 3.7 3.7 0 0 1 .5-1.8 17.7 17.7 0 0 1-.1 1.8 9.6 9.6 0 0 0 .8 4.1 19.8 19.8 0 0 0 2.2 3.7 7 7 0 0 1 1 1.5Z"/><path fill="#ebebeb" d="M633.6 467.4a3.1 3.1 0 0 1 .9-2.2 9.8 9.8 0 0 1 2-1.5l5.3-3.3a1.3 1.3 0 0 1 1-.3c.5.2.6.7.6 1.2a6.8 6.8 0 0 1-3.4 5.7 6.4 6.4 0 0 1-6.4.3"/><path fill="#e0e0e0" d="M641.3 462.4a6.2 6.2 0 0 1-1.2 1.4 14.7 14.7 0 0 1-3.4 2.7 8.6 8.6 0 0 1-4.3 1 3.8 3.8 0 0 1-1.8-.2h1.8a9.5 9.5 0 0 0 4-1.3 20 20 0 0 0 3.4-2.5 6.8 6.8 0 0 1 1.5-1.1Z"/><path fill="#ebebeb" d="M663.1 459.8a3.1 3.1 0 0 1 2.4.4 9.2 9.2 0 0 1 1.8 1.6l4.4 4.5a1.2 1.2 0 0 1 .5 1c0 .4-.6.6-1.1.7a6.8 6.8 0 0 1-6.3-2 6.4 6.4 0 0 1-1.7-6.2"/><path fill="#e0e0e0" d="M669.6 466.2a5.6 5.6 0 0 1-1.6-.8 14.7 14.7 0 0 1-3.4-2.8 8.5 8.5 0 0 1-2-4 3.7 3.7 0 0 1 0-1.7s0 .7.4 1.7a9.5 9.5 0 0 0 2 3.7 20 20 0 0 0 3.2 2.8 7 7 0 0 1 1.4 1.1Z"/><path fill="#ffbf9d" d="m381.2 138.6-23 13.8c-2.6 1.5-13 15.4-13 15.4l9.2 4.2 10.2-9.1 17.6-4ZM337.3 194.3c0-.2-1-.2-1-3a33.3 33.3 0 0 1 1.4-7.1l7.5-16.4 9.1 4.2a2.5 2.5 0 0 0 .4 3c1.4 1.3 1.5 7 1 9.6s-.9 8.8-2.7 8.5-2.2-.8-1.9-4a38 38 0 0 0 .3-6l-4.8 9.9s-1 8.2-3.2 9c0 0-3-.2-3.1-1l-.2-2.2a2.5 2.5 0 0 1-1.4-2s-1.5-1.5-1.4-2.5Z"/><path fill="#ff9a6c" d="M362.8 155.9a6.8 6.8 0 0 1 1.4 3.3 7 7 0 0 1 .1 3.5l-.6-3.4c-.4-2-1-3.3-1-3.4ZM344.7 184.3a13.8 13.8 0 0 1-.3 2.6l-1 6.5-1 6.4a15.3 15.3 0 0 1-.5 2.6 12.6 12.6 0 0 1 .2-2.7 112.8 112.8 0 0 1 2-12.8 13.8 13.8 0 0 1 .6-2.6ZM341.3 187.1a38 38 0 0 1-.3 6.4 40.2 40.2 0 0 1-.9 6.3 37.5 37.5 0 0 1 .4-6.4 39.3 39.3 0 0 1 .8-6.3ZM339 188a21.6 21.6 0 0 1 0 4.8 23 23 0 0 1-.5 4.8 21.4 21.4 0 0 1 0-4.8 22.5 22.5 0 0 1 .5-4.8Z"/><path fill="#e0e0e0" d="m432.3 294.2 5.2 21 3.3 4.8a3.6 3.6 0 0 1-1 5L412.4 344a2.8 2.8 0 0 1-4.4-1.9 3 3 0 0 1 .4-2c1.5-2.3 11-21 11-21l-5.6-18.8Z"/><path fill="#ebebeb" d="m435.1 294.7 1 6a1.7 1.7 0 0 1-1.2 2l-18.6 5.2a1.7 1.7 0 0 1-2-1l-2-5a1.7 1.7 0 0 1 1.1-2.3l20.2-5.8a1.1 1.1 0 0 1 1.5 1Z"/><path fill="#263238" d="M435.1 294.7a1.5 1.5 0 0 0-.3-.5 1.2 1.2 0 0 0-.6-.3 2 2 0 0 0-1 .1l-6.3 2-9.4 2.7-2.7.8-1.4.4a1.4 1.4 0 0 0-1 1.6 2.4 2.4 0 0 0 .2.6l.6 1.5 1.2 2.9a3.3 3.3 0 0 0 .3.7 1.5 1.5 0 0 0 .5.4 1.5 1.5 0 0 0 .7.2 2.6 2.6 0 0 0 .7-.2l2.9-.8 5.6-1.5 9.4-2.6a2.5 2.5 0 0 0 .9-.4 1.6 1.6 0 0 0 .5-.7 3.3 3.3 0 0 0 0-1.7l-.5-2.8-.3-1.7a4 4 0 0 1 0-.7 4.7 4.7 0 0 1 0 .6l.4 1.8.5 2.8.2.8a1.8 1.8 0 0 1 0 1 2 2 0 0 1-.7.8 3 3 0 0 1-1 .4l-9.4 2.7-5.5 1.6-3 .8a2.8 2.8 0 0 1-.8.2 1.9 1.9 0 0 1-1.5-.8 1.8 1.8 0 0 1-.2-.4l-.1-.4-1.2-2.9-.5-1.4a2.9 2.9 0 0 1-.3-.8 1.9 1.9 0 0 1 .1-.8 1.8 1.8 0 0 1 1.1-1.2l1.4-.4 2.8-.7 9.3-2.7 6.4-1.8a2.2 2.2 0 0 1 1-.1 1.2 1.2 0 0 1 .6.4 1 1 0 0 1 .3.4l.1.1Z"/><path fill="#263238" d="M432.4 303a7 7 0 0 0-.3-4.4 7 7 0 0 0-2.4-3.6 20.4 20.4 0 0 1 2 3.8 19.4 19.4 0 0 1 .7 4.2ZM425.6 305.3a28.7 28.7 0 0 0-2.2-8.5 30.5 30.5 0 0 0 1 4.3 31.1 31.1 0 0 0 1.2 4.2ZM418.2 307.1a11.3 11.3 0 0 1-.8-8.6 3.2 3.2 0 0 0-.6 1.2 8.4 8.4 0 0 0-.3 3.2 8.3 8.3 0 0 0 .9 3.1 2.9 2.9 0 0 0 .8 1.1ZM436.3 327.1l-.5-1.6a9.4 9.4 0 0 1 1.1-8c.6-.9 1.1-1.3 1-1.4a4.2 4.2 0 0 0-1.2 1.3 8.7 8.7 0 0 0-1.2 8.2 4.2 4.2 0 0 0 .8 1.5ZM418.3 340a2.8 2.8 0 0 0-.5-1.3 5.7 5.7 0 0 0-2.3-2.2 7.8 7.8 0 0 0-3-.8 3.1 3.1 0 0 0-1.4 0 5.5 5.5 0 0 0 1.3.3 9.6 9.6 0 0 1 3 .9 6.2 6.2 0 0 1 2.2 2c.4.6.6 1.1.7 1ZM462.7 103a9.4 9.4 0 0 1-2-2.4 7.3 7.3 0 0 1 0-3.6 9.4 9.4 0 0 0-3-8.3c-2.3-2-6.2-2-8.3 0l-18 11.6a17.7 17.7 0 0 0-3.5 13.5 8.4 8.4 0 0 0 2.4 5.2c1.5 1.2 4 1.6 5.4.2a7.8 7.8 0 0 0 13.8 3.7 6 6 0 0 0 10.7-3.2c.1-1.4-.2-2.9.2-4.2.5-1.6 1.9-2.6 2.8-4a7.3 7.3 0 0 0-.5-8.5Z"/><path fill="#263238" d="M450.8 94.8a5.8 5.8 0 0 0-.3-7.5c1.1-1.3.8-3.4-.2-4.8a11.9 11.9 0 0 0-4.4-3 8.1 8.1 0 0 0-9.2-6.1c-2-3.1-6.5-3.8-10.1-2.9a10 10 0 0 1-2.7.5 14.9 14.9 0 0 1-2-.3c-3.6-.6-7.4 1.8-9 5a6.5 6.5 0 0 1-.7 1.5 9 9 0 0 1-1.9 1.4 5.7 5.7 0 0 0-2.4 4c-.1 1.5.3 3-.3 4.2-.4.6-1 1.1-1.2 1.7-.7 2 1.4 4 .9 6l-.4 1a3.5 3.5 0 0 0 .1 2.6 5 5 0 0 1 .7 1.8 5.6 5.6 0 0 1-.3 1.4c-.3 1.2 2.1 5.8 3.2 6.5l31.2 1.4a5.8 5.8 0 0 0 4.6-4.8 2 2 0 0 1 .4-1.1 2.3 2.3 0 0 1 .8-.5c2.1-1 2.4-3.7 2.3-6a2.6 2.6 0 0 1 .1-.8 3.4 3.4 0 0 1 .8-1.2Z"/><path fill="#ffbf9d" d="M440.3 128.1h-.1ZM409.4 91c.5-6.1 7-11.5 8.7-11.9a13 13 0 0 1 7.5-1.2 21 21 0 0 1 7.9 2.1 16.2 16.2 0 0 1 8.3 14.6l-1.6 33.5c0 5.5-2 13.6-2 13.6s-18-4.8-19.7-7.3l.8-11.5s-9-1.5-10.3-11.7c-.7-5.1-.3-13.4.4-20.2Z"/><path fill="#263238" d="M413.9 101a1.3 1.3 0 0 0 1.2 1.4 1.3 1.3 0 0 0 1.4-1.1 1.3 1.3 0 0 0-1.2-1.4 1.3 1.3 0 0 0-1.4 1.1ZM411.6 95.7c.2.2 1.2-.5 2.7-.5s2.5.8 2.6.6 0-.4-.5-.7a3.7 3.7 0 0 0-2.1-.7 3.6 3.6 0 0 0-2.1.6c-.5.3-.6.6-.6.7ZM419.8 106.3a9.6 9.6 0 0 0-2.3-.5c-.4 0-.7-.1-.8-.4a1.8 1.8 0 0 1 .3-1l1.1-2.7c1.6-3.8 2.8-7 2.6-7s-1.5 3-3.1 6.8l-1.2 2.7a2 2 0 0 0-.2 1.4.9.9 0 0 0 .6.6 2.1 2.1 0 0 0 .6 0 9.7 9.7 0 0 0 2.4 0Z"/><path fill="#ff9a6c" d="M419.2 122.9a27.3 27.3 0 0 0 14.1-3.3s-3.5 7.2-14 6Z"/><path fill="#263238" d="M417 88.3c-.3-.2-1.3.3-2.6.6s-2.4.3-2.5.6c-.1.2.1.5.6.7a4.2 4.2 0 0 0 4.2-1c.3-.4.4-.7.3-.9ZM430.6 101.2a1.3 1.3 0 0 1-1.4 1.2 1.3 1.3 0 0 1-1.3-1.3 1.3 1.3 0 0 1 1.4-1.2 1.3 1.3 0 0 1 1.3 1.3ZM431.5 96.3c-.2.2-1.2-.6-2.6-.7s-2.6.6-2.7.4.1-.4.6-.7a3.7 3.7 0 0 1 2.2-.5 3.6 3.6 0 0 1 2 .8c.4.3.6.6.5.7ZM431.5 90.5c-.3.3-1.3-.1-2.7-.2s-2.5 0-2.7-.3c-.1-.2.1-.5.6-.7a4.2 4.2 0 0 1 2.3-.4 4.1 4.1 0 0 1 2 .7c.6.4.7.8.5.9Z"/><path fill="#ffbf9d" d="M439.9 104.2c0-.8 1-2.5 1.7-2.6 2-.3 5.8 0 5.7 5-.1 7-7.3 5.4-7.3 5.2s-.2-5-.1-7.6Z"/><path fill="#ff9a6c" d="m442 109.3.3.2a1.3 1.3 0 0 0 1 0 3 3 0 0 0 1.4-2.7 3.9 3.9 0 0 0-.3-1.7 1.4 1.4 0 0 0-.9-1 .6.6 0 0 0-.7.3l-.1.4s-.2-.2-.1-.4a.7.7 0 0 1 .3-.5 1 1 0 0 1 .7-.1 1.7 1.7 0 0 1 1.2 1 4 4 0 0 1 .4 2 3.1 3.1 0 0 1-1.8 3 1.3 1.3 0 0 1-1.2-.1l-.2-.4Z"/><path fill="#263238" d="M407.8 91a4 4 0 0 0 2.3-3.6c1 .3 2-.9 2.6-1.7s1.2-1.1 1.2-2.1a1 1 0 0 1 .1-.6 1.2 1.2 0 0 1 .8-.4 4.7 4.7 0 0 0 3.2-3.1 10.4 10.4 0 0 0 4.9.9 4 4 0 0 0 6.5-.2 3.5 3.5 0 0 0 2.3 1.8 10.8 10.8 0 0 0 3 .2 4 4 0 0 0 2.5 4.6c.2 0 .5.2.6.4a1 1 0 0 1-.1.8 3.1 3.1 0 0 0 2 4 2.3 2.3 0 0 0 .2 3.6c.2.2.6.4.5.7a.6.6 0 0 1-.2.3 4.6 4.6 0 0 0-1.1 2.2 1.7 1.7 0 0 0 1.3 2 2.2 2.2 0 0 0-1 1.4c0 .6.7 1.3 1.3 1a40.4 40.4 0 0 0 4-.9c2-2.6-.4-5.6-.5-8.9a21.2 21.2 0 0 0-2.9-9.4 15.8 15.8 0 0 0-2.5-3.4 21.8 21.8 0 0 0-3.8-3 19.8 19.8 0 0 0-5.6-2.7c-3.8-1-7.9.3-11.5 1.8a16.7 16.7 0 0 0-3.9 2.1 14.9 14.9 0 0 0-3.4 4 18.1 18.1 0 0 0-2.7 7"/><path fill="#455a64" d="M406.4 88.6a2.7 2.7 0 0 1 .4-.7l.6-.9a3 3 0 0 0 .5-1.2 8.8 8.8 0 0 0 0-1.8 7.3 7.3 0 0 1 .1-2 5.6 5.6 0 0 1 1-2.2 5.4 5.4 0 0 1 .9-1 8.5 8.5 0 0 1 1.1-.7 4.5 4.5 0 0 0 1.1-1 6 6 0 0 0 .8-1.2 9 9 0 0 1 1.8-2.7 9.3 9.3 0 0 1 2.8-2 7.8 7.8 0 0 1 1.7-.5 7.4 7.4 0 0 1 1.9-.2 7.5 7.5 0 0 1 1 .1l1 .2a4.7 4.7 0 0 0 1.8 0l2-.5a12.4 12.4 0 0 1 2-.3 13.2 13.2 0 0 1 2 0 11.5 11.5 0 0 1 2.1.5 7 7 0 0 1 3.5 2.4l.3.3h-.1a8.2 8.2 0 0 1 6 1.4 7.8 7.8 0 0 1 3.4 4.8 22.4 22.4 0 0 1 2.4 1.3 7.6 7.6 0 0 1 2 1.8 4.8 4.8 0 0 1 .8 2.5 3.2 3.2 0 0 1-.7 2.3 5.6 5.6 0 0 1 1.5 3.5 5.7 5.7 0 0 1-.8 3.4 7 7 0 0 1-.5.7l-.5.6a1.4 1.4 0 0 0-.3.7 4.3 4.3 0 0 0 0 .7 11.2 11.2 0 0 1-.1 2.7 5.4 5.4 0 0 1-.8 2 3.5 3.5 0 0 1-1.1 1l-1 .5a1 1 0 0 0-.2.2.9.9 0 0 1 .3-.2l.8-.5a3.6 3.6 0 0 0 1.1-1 5.3 5.3 0 0 0 .8-2 11 11 0 0 0 0-2.7 4.6 4.6 0 0 1 0-.7 1.7 1.7 0 0 1 .4-.8l.5-.6a6.6 6.6 0 0 0 .5-.6 5.7 5.7 0 0 0 .7-3.4 5.5 5.5 0 0 0-1.5-3.5v-.1a3 3 0 0 0 .7-2.2 4.4 4.4 0 0 0-.8-2.3 7.2 7.2 0 0 0-2-1.8 22.7 22.7 0 0 0-2.4-1.3 7.5 7.5 0 0 0-3.2-4.7 8 8 0 0 0-6-1.4l-.3-.4a6.8 6.8 0 0 0-3.4-2.3 10 10 0 0 0-2-.4 12.8 12.8 0 0 0-2 0 13.3 13.3 0 0 0-2 .3l-2 .4a5.5 5.5 0 0 1-1 .1 5.2 5.2 0 0 1-1-.1l-1-.2-1-.1a7.5 7.5 0 0 0-1.8.1 8.2 8.2 0 0 0-1.7.6A9.3 9.3 0 0 0 413 76a5.8 5.8 0 0 1-.7 1.3 4.4 4.4 0 0 1-1.2 1 9.3 9.3 0 0 0-1.1.7 5.5 5.5 0 0 0-.9 1 5.4 5.4 0 0 0-1 2 7.5 7.5 0 0 0-.1 2 9.8 9.8 0 0 1 0 1.8 3.4 3.4 0 0 1-.5 1.3l-.6.8a3.4 3.4 0 0 0-.3.5 1.6 1.6 0 0 1-.2.2Z"/><path fill="#fff" d="m433.4 71.8-.5-.3a5 5 0 0 0-1.6-.5 4.6 4.6 0 0 0-2.3.3 4.6 4.6 0 0 0-2.2 1.8 3.5 3.5 0 0 0-.4.8.8.8 0 0 0 0 .7l.2.2h-.3a3 3 0 0 0-2.2.2 2.8 2.8 0 0 0-1.3 1.2 3 3 0 0 0-.3 1.1 3.6 3.6 0 0 1 0 .5v-.1a2.3 2.3 0 0 1 0-.4 2.7 2.7 0 0 1 .3-1.1 2.9 2.9 0 0 1 1.2-1.4 3.2 3.2 0 0 1 2.4-.2l-.2.1a1 1 0 0 1 0-.9 3.9 3.9 0 0 1 .4-.8 4.7 4.7 0 0 1 2.3-2 4.6 4.6 0 0 1 2.4-.1 4.3 4.3 0 0 1 1.6.5 2.5 2.5 0 0 1 .3.3h.2Z"/><path fill="#e0e0e0" d="M448.3 86.6a.7.7 0 0 1 0 .1 1.1 1.1 0 0 1-.2.3 1.9 1.9 0 0 1-1.2.7 3.6 3.6 0 0 1-2-.2 11 11 0 0 1-1-.5 1.9 1.9 0 0 1-1-.9h.1a8.1 8.1 0 0 1-2.1 1 3.8 3.8 0 0 1-2 .2 2.6 2.6 0 0 1-1.3-.5 1.4 1.4 0 0 1-.2-.3v-.1l.3.3a2.9 2.9 0 0 0 1.2.5 3.7 3.7 0 0 0 1.9-.2 8.4 8.4 0 0 0 2-1.2h.2v.2a1.8 1.8 0 0 0 .9.9l1 .4a3.6 3.6 0 0 0 2 .4 1.9 1.9 0 0 0 1.1-.7 3.4 3.4 0 0 0 .3-.4Z"/><path fill="#ff9a6c" d="M421.4 109.7a2.4 2.4 0 0 1 2.1-1 2.2 2.2 0 0 1 1.6.8 1.4 1.4 0 0 1 .1 1.6 1.6 1.6 0 0 1-1.7.5 5.3 5.3 0 0 1-1.8-1 1.9 1.9 0 0 1-.4-.4.5.5 0 0 1 0-.5"/><path fill="#263238" d="M426 110.8a11.3 11.3 0 0 0-2.6-.7 10.7 10.7 0 0 0-2.7.6s.2-.3.6-.6a4.3 4.3 0 0 1 2-.5 4.2 4.2 0 0 1 2 .6c.6.2.8.5.8.5ZM409 208.5a62.7 62.7 0 0 0 0 6.3s-25.5-2.2-27.8 17.9 27.8 80 28.4 79.6l28.4-7c.5 1-16.7-55.3-16.7-55.3 1-1.5 12.5-2.6 20-6.5a44.6 44.6 0 0 1 10-3.8L450 200h-4.8Z"/><path fill="#263238" d="M451.2 187.3a313 313 0 0 0-7.2 31.6l7.2 21.5s14.8 2.1 26.6-4 7.5-15.6 7.5-16.4-8-47.3-8-47.3Z"/><path fill="#455a64" d="M428.7 234a5.7 5.7 0 0 1-.6-1l-1.5-3a43.1 43.1 0 0 0-6-8.8 19.8 19.8 0 0 0-8.8-5.7 22.2 22.2 0 0 0-4.4-.6 4.7 4.7 0 0 1 1.2-.2 12.3 12.3 0 0 1 3.3.4 19 19 0 0 1 9.1 5.7 38.2 38.2 0 0 1 6 9l1.3 3a4.8 4.8 0 0 1 .4 1.1ZM450.1 230.5a4.6 4.6 0 0 1-.5-.9l-1-2.6a45.8 45.8 0 0 1-2.8-18.3l.2-2.8a3.6 3.6 0 0 1 .2-1v3.8a54.3 54.3 0 0 0 2.7 18.2l1.2 3.6ZM417.5 238.2a44.5 44.5 0 0 1 2.4 6.4 45.9 45.9 0 0 1 2 6.5 42.6 42.6 0 0 1-2.4-6.4 43.6 43.6 0 0 1-2-6.5Z"/><path fill="#e0e0e0" d="M419.4 125.5s-18.6-.8-22 1.2l-1.8 15v15.8s3.5 23.1 6 33.7 2 19 3.2 18.3 18 .6 34.9-4.6c18.3-5.6 20.3-10.5 19.8-9.2l-2.2-55.4-6.9-14.3-10.1.8s-.2 9-12 8.2-9-9.5-9-9.5Z"/><path fill="#e0e0e0" d="m397.5 126.7-25.7 16.5 8.7 17.4 15.6-2c.5-.2 1.4-31.9 1.4-31.9Z"/><path fill="#455a64" d="M392.8 137c.2 0 1 5.5 2 12.3s1.6 12.3 1.5 12.3-1-5.5-2-12.3-1.6-12.3-1.5-12.3ZM432.7 164c.1.1-3.1 5-7.2 10.7s-7.5 10.4-7.6 10.3 3-4.8 7.2-10.6 7.5-10.4 7.6-10.3Z"/><path fill="#ffbf9d" d="m449.3 96.3.6-4.3s-1.3-5.6-1.7-6.7-4.5-3.7-4.7-3.7c0 0-.7-.2-.9.8a4.1 4.1 0 0 0 2.1 3.6c1.3.5 1.3 3 1.3 3l-3.4-4.9s-5.3-5-7.2-5.2-8.1 1.2-8.8 1.6c-.5.2-1 .3 0 1.5s7.6.1 7.6.1l1.7 2.1a25.4 25.4 0 0 0-4-1c-.7 0-3.7-.1-4.7.3s-6.4 4.5-6.4 4.5a1.7 1.7 0 0 0 1.9 1.8l-.8 1a2.5 2.5 0 0 0 2.4 1.8s-.1 1 1.9 1.3a5.8 5.8 0 0 0 4-1.3l4.1.7s3 4.5 4.3 6.9a12 12 0 0 0 2.5 3.3l2.9 9.3"/><path fill="#ff9a6c" d="M444 112.9a2.6 2.6 0 0 1-.2-.6l-.6-1.8-2.2-6.9a17.3 17.3 0 0 1-3.2-4.5c-1-1.8-2.3-3.6-3.6-5.6h.1l-4.1-.7h.1a6.4 6.4 0 0 1-3 1.4 4.3 4.3 0 0 1-1.9-.2 2.4 2.4 0 0 1-.8-.4 1.2 1.2 0 0 1-.5-1l.2.3a2.6 2.6 0 0 1-1.6-.5 3.2 3.2 0 0 1-1-1.5v-.2l.9-1 .2.5a2.3 2.3 0 0 1-1.6-.5 2 2 0 0 1-.6-1.6V88l3.3-2.4 1.7-1.2.9-.6a4.2 4.2 0 0 1 1-.5 21.7 21.7 0 0 1 4.3-.3 3.8 3.8 0 0 1 1.1.1l1 .3 2.2.7-.3.4-1.8-2.2.2.1-3.7.4h-1.9a4.9 4.9 0 0 1-1.8-.4 2.6 2.6 0 0 1-.8-.7 1.6 1.6 0 0 1-.2-.5.6.6 0 0 1 .2-.6 6.4 6.4 0 0 1 1.7-.7l3.5-.8a22.2 22.2 0 0 1 3.4-.5 3.4 3.4 0 0 1 1.8.4 13 13 0 0 1 1.4.9 46.1 46.1 0 0 1 5 4.1l3.3 4.8-.4.2a4.6 4.6 0 0 0-.4-2.3 1.6 1.6 0 0 0-.9-.7 3.3 3.3 0 0 1-.9-.8 5 5 0 0 1-1-2 2 2 0 0 1 0-1.2 1 1 0 0 1 .4-.5.8.8 0 0 1 .6-.1 2.2 2.2 0 0 1 .5.2l.5.3.8.6 1.6 1.1a6.5 6.5 0 0 1 1.3 1.4 8 8 0 0 1 .6 1.6c.5 2.2 1 4 1.2 5.4l-.5 3.2-.1.9a1.2 1.2 0 0 1 0 .2 1 1 0 0 1 0-.2v-.9l.4-3.2-1.3-5.4a9.4 9.4 0 0 0-.5-1.5 7 7 0 0 0-1.3-1.2l-1.6-1.1-.8-.6-.4-.2-.3-.2v-.1l-.1.1c-.3 0-.5.1-.6.4a1.9 1.9 0 0 0 0 1 4.6 4.6 0 0 0 1 1.9 2.8 2.8 0 0 0 .8.7 2 2 0 0 1 1 .8 5 5 0 0 1 .6 2.5v.7l-.4-.6-3.5-4.8a49.2 49.2 0 0 0-4.8-4 4.7 4.7 0 0 0-3-1.3 19.8 19.8 0 0 0-3.3.5l-3.4.8a6.6 6.6 0 0 0-1.5.6c-.1 0-.1 0 0 .1a1 1 0 0 0 .1.3 2 2 0 0 0 .5.6 4.4 4.4 0 0 0 1.7.3h1.8a38 38 0 0 0 3.7-.4h.2v.2l1.8 2 .5.8-.8-.3-2.1-.7a8 8 0 0 0-2-.4 21.7 21.7 0 0 0-4.2.3 9.8 9.8 0 0 0-1.7 1l-1.7 1.2-3.2 2.3v-.2a1.5 1.5 0 0 0 .5 1.2 1.8 1.8 0 0 0 1.2.4h.6l-.4.4-.9.9v-.2a2.6 2.6 0 0 0 1 1.2 2.2 2.2 0 0 0 1.2.4h.3v.3c0 .3.5.7 1 .9a3.8 3.8 0 0 0 1.6.2 6 6 0 0 0 2.9-1.3h.1l4.2.7c1.4 2 2.6 4 3.6 5.7l1.5 2.6a10.9 10.9 0 0 0 1.6 2l2.1 6.9.5 1.8c.1.5.4.7.4.7ZM434 89.4a6 6 0 0 1-1.6 0h-1.7a4.5 4.5 0 0 0-1.9.4 37.3 37.3 0 0 0-3.2 2 5.4 5.4 0 0 1-1.3.8l1.1-1.1a20 20 0 0 1 3.2-2.2 4.5 4.5 0 0 1 2.1-.4 16 16 0 0 1 1.7.2 4.2 4.2 0 0 1 1.6.3Z"/><path fill="#ff9a6c" d="M434.6 86a8.2 8.2 0 0 1-1.9.1 32.6 32.6 0 0 0-4.6.3 7.4 7.4 0 0 0-2.1 1.2l-1.7 1.2a7.7 7.7 0 0 1-1.6 1 7.1 7.1 0 0 1 1.4-1.3 30 30 0 0 1 2.6-2 3.8 3.8 0 0 1 1.3-.6 21.6 21.6 0 0 1 4.7-.2 6.6 6.6 0 0 1 2 .3Z"/><path fill="#ffbf9d" d="M440.3 101.2s1.5 4.3 2.6 8c.8 2.5 7.3 27.1 10.5 30.8 4 4.7 6 8.7 11.7 4.8 5.2-3.8 3.6-14.7 2.4-16.5s-18.6-32.7-18.6-32.7l-7.6 1Z"/><path fill="#e0e0e0" d="M457.1 225.8c-1.2 10-2 12.4-3.1 22.3-.3 2.5-2.1 11.2-1.2 13.4 1 2 1.6 4.6 3.7 5.5a9.5 9.5 0 0 0 10.6-1.8 8.1 8.1 0 0 0 2-3.7c1.4-5.7-1.9-11.8.4-17.3.6-1.6 1.7-2.8 2.4-4.3a10.2 10.2 0 0 0 0-7l-.8-2.8 3.2-14.7-16.7-1.7Z"/><path fill="#ffbf9d" d="M457.6 213.7v-11.2H477l-3 15.2-16.4-4z"/><path fill="#e0e0e0" d="m479 213.3-1.3 5.7a1.7 1.7 0 0 1-1.9 1.3l-20-2.5a1.7 1.7 0 0 1-1.5-1.7l.1-5.7a1.7 1.7 0 0 1 2-1.7l21.1 2.5a1.7 1.7 0 0 1 1.5 2.1Z"/><path fill="#263238" d="M455 217.8a18.8 18.8 0 0 0 3 .7 98.7 98.7 0 0 0 15 1.9h2.3a2.7 2.7 0 0 0 .8 0 24.4 24.4 0 0 0-3-.4 259.5 259.5 0 0 1-15-1.9 22.8 22.8 0 0 0-3-.3ZM473.3 219.6a8.7 8.7 0 0 0 .5-8.8 13.9 13.9 0 0 1-.5 8.8Z"/><path fill="#263238" d="M465.8 219.6a19.8 19.8 0 0 0 1-4.7 19 19 0 0 0 .3-4.9 35.6 35.6 0 0 0-.8 4.8 34.8 34.8 0 0 0-.5 4.8ZM457.9 217.8a11.8 11.8 0 0 1 2.7-8.6s-.5.3-1 1a8.8 8.8 0 0 0-2 6.3 3 3 0 0 0 .3 1.3ZM462.8 145.6c-1.4-.2-15 2.4-15 16.4a857 857 0 0 0 3.4 43.6h27.4s.8-27.6 0-36.3 0-21-15.8-23.7Z"/><path fill="#455a64" d="M462.8 145.6h.3l1 .2 1.6.3 2.2.7 1.2.6a12.5 12.5 0 0 1 1.3.6l1.4 1 1.3 1a15.4 15.4 0 0 1 4.1 7 47 47 0 0 1 1.5 10c.3 3.6.5 7.5.5 11.6 0 8.2 0 17.3-.3 27v.2H451v-.2a1565.6 1565.6 0 0 1-3.1-38.6 121 121 0 0 1 0-7.7c0-.8.2-1.6.4-2.3a15 15 0 0 1 4.3-7 18 18 0 0 1 5.2-3.3 16.4 16.4 0 0 1 3.7-1.1 6.8 6.8 0 0 1 1-.1h.3a1.3 1.3 0 0 1-.3 0 8.6 8.6 0 0 0-1 .1 16.5 16.5 0 0 0-3.7 1.2 17.7 17.7 0 0 0-5 3.3 14.6 14.6 0 0 0-4.2 7c-.8 2.9-.5 6.3-.4 9.9s.5 7.4.9 11.5c.6 8.2 1.5 17.3 2.4 27l-.3-.3h27.4l-.2.3c.2-9.7.4-18.8.3-27 0-4.1-.1-8-.4-11.6a47.3 47.3 0 0 0-1.4-9.8 15.3 15.3 0 0 0-4-7l-1.3-1.2-1.3-.8a10.7 10.7 0 0 0-1.3-.7 12.9 12.9 0 0 0-1.2-.6l-2.1-.7-1.6-.4-1-.2Z"/><path fill="#d8b4a1" d="M306.8 209.5a2.5 2.5 0 0 1 1.9 1.2 13.6 13.6 0 0 1-1.4-11.2 2.8 2.8 0 0 1 1.2-1.8 1 1 0 0 1 1.3.4 10.6 10.6 0 0 1 0-3.3 2 2 0 0 1 .6-1.3 1.2 1.2 0 0 1 1.6.4 4.3 4.3 0 0 1 .6 1.9 15.3 15.3 0 0 1 11.8-9.7 3.6 3.6 0 0 1 2.9.6c.8.7 1 2.3 0 2.8a6.3 6.3 0 0 1 3-.5 2.5 2.5 0 0 1 2.2 1.9c.3 1.4-.8 2.7-1.9 3.5a54 54 0 0 1-4.7 2.7 8.7 8.7 0 0 0-3.7 4c-1 2.3-.4 5 .6 7.1a14.8 14.8 0 0 0 9.6 8.1l-3.4 7.4c-4.2 2.8-15.6.5-19-3.4a3.3 3.3 0 0 1-1-2.3c.1-.8 1-1.6 1.7-1.2-2.2-1.6-4.9-6.3-3.9-7.3Z"/><path fill="#fff" d="M332.4 190.9c.3 1.4-.7 2.7-1.8 3.5a54 54 0 0 1-4.7 2.7 12 12 0 0 0-1.8 1.4 2.8 2.8 0 0 1-.8-2.5 7.7 7.7 0 0 1 1.3-2.9 8.6 8.6 0 0 1-2.6 2.3 1.5 1.5 0 0 1-1.2.2c-.6-.3-.7-1.2-.5-2s.7-1.2 1-2a7.8 7.8 0 0 1-1.9 1.5 2.5 2.5 0 0 1-2.1.1 2.7 2.7 0 0 1-1.4-2.2v-.4a14.4 14.4 0 0 1 8.5-4.5 3.6 3.6 0 0 1 2.9.6c.8.7 1 2.3 0 2.8a6.3 6.3 0 0 1 3-.5 2.5 2.5 0 0 1 2.1 1.9Z" opacity=".6"/><path fill="#d8b4a1" d="m333.6 206.1 9-4.8a51 51 0 0 0 8.3-5.8c5-4.8 6.1-9 6.1-9l26.6 12.3 5.4 1.7c-.7 2.8-.8 8.1-2.6 13.6-.5 1.5-2 3-2 2.4v.3c-1 2.5-2 5.7-5.2 8-2.5 3.6-7.6 5.6-9.7 6.9-3.1 1.7-15 5.2-15 5.2l-9.2.7-23-18.3s1.3-8 11.3-13.2Z"/><path fill="#d8b4a1" d="M365 226.2a8.5 8.5 0 0 0-2.5 5.7 40.4 40.4 0 0 1-.6 6.2 2 2 0 0 1 2.4 1.6 3 3 0 0 1-1.2 2.8 5.5 5.5 0 0 1-3 1 6.4 6.4 0 0 1-5-1.7 10.8 10.8 0 0 1-2-4.6l-2.6-8.3a23.2 23.2 0 0 1-1-8.6l-.8.3c-1 .3 0-3 .9-4.4"/><path fill="#263238" d="m349.5 216.2-.2.3a10.3 10.3 0 0 0-1 2.7 4.5 4.5 0 0 0-.2.6 1.6 1.6 0 0 0 0 .6.3.3 0 0 0 .3.2.5.5 0 0 0 .1 0h.2l.6-.2a18.2 18.2 0 0 0 0 4.3 33.6 33.6 0 0 0 1.3 5.1l1.8 5.7 1 3.1a8 8 0 0 0 1.4 3 5.8 5.8 0 0 0 3.7 2 8.3 8.3 0 0 0 2 0 5.7 5.7 0 0 0 2-.6 3.6 3.6 0 0 0 1.4-1.3 2.9 2.9 0 0 0 .5-1.8 2.1 2.1 0 0 0-2.6-1.9l.1.1a28.4 28.4 0 0 0 .6-5.1 14.5 14.5 0 0 1 .6-3.9 7 7 0 0 1 1.2-2.2 5 5 0 0 1 .4-.5l.2-.2a4.2 4.2 0 0 0-.7.7 7 7 0 0 0-1.2 2.2 14.5 14.5 0 0 0-.7 3.9 28 28 0 0 1-.5 5v.2a2 2 0 0 1 2.5 1.8 2.7 2.7 0 0 1-.5 1.7 3.5 3.5 0 0 1-1.4 1.2 5.7 5.7 0 0 1-1.9.5 8.4 8.4 0 0 1-2 0 5.7 5.7 0 0 1-3.6-1.8 8.1 8.1 0 0 1-1.4-3l-1-3.1c-.5-2-1.2-4-1.8-5.7a32.5 32.5 0 0 1-1.2-5.2 19.1 19.1 0 0 1-.1-4.2v-.1l-.7.2a.8.8 0 0 1-.3 0 .3.3 0 0 1-.2-.1 1.6 1.6 0 0 1 0-.6 4.8 4.8 0 0 1 .1-.5 10.3 10.3 0 0 1 .5-1.8 10.6 10.6 0 0 1 .5-1l.2-.2Z"/><path fill="#263238" d="m360.6 239.1.6.4a3.8 3.8 0 0 1 1 1.1 3.9 3.9 0 0 1 .6 1.5v.6a2 2 0 0 0 .1-.6 3.6 3.6 0 0 0-.5-1.6 3.5 3.5 0 0 0-1.1-1.1 1.7 1.7 0 0 0-.7-.3ZM358.4 239.3l.5.4a4 4 0 0 1 1.2 3.1v.7a1.8 1.8 0 0 0 .1-.7 3.7 3.7 0 0 0-1.2-3.2 1.7 1.7 0 0 0-.6-.3Z"/><path fill="#d8b4a1" d="M380.8 223.5c-1 2-2 3.7-2.3 5.8a43 43 0 0 1-.6 6.3 2 2 0 0 1 2.4 1.5 3 3 0 0 1-1.2 2.9 5.4 5.4 0 0 1-3 1 6.4 6.4 0 0 1-5-1.8c-1.2-1.2-2.1-5.5-2.4-7.1"/><path fill="#263238" d="M368.6 232v.4l.2 1a32.5 32.5 0 0 0 1 3.6l.5 1.2a4 4 0 0 0 .8 1.1 5.6 5.6 0 0 0 2.6 1.5 8 8 0 0 0 3.4 0 5.2 5.2 0 0 0 1.6-.5 3.5 3.5 0 0 0 1.3-1.4 2.8 2.8 0 0 0 .4-1.2 2.2 2.2 0 0 0-.4-1.3 2.3 2.3 0 0 0-1-.9 2 2 0 0 0-.6-.1 1.6 1.6 0 0 0-.6 0v.1a26.7 26.7 0 0 0 .6-5 12.4 12.4 0 0 1 .3-2.1 9.3 9.3 0 0 1 .5-1.7l1.2-2.4.3-.6v-.2.1l-.4.6-1.1 2.4a10.5 10.5 0 0 0-.6 1.7 11.8 11.8 0 0 0-.3 2.2 27.1 27.1 0 0 1-.6 5h.2a2 2 0 0 1 2 1 2.3 2.3 0 0 1 0 2.4 3.3 3.3 0 0 1-1.3 1.2 5 5 0 0 1-1.6.6 8 8 0 0 1-3.2 0 5.5 5.5 0 0 1-2.6-1.4 4 4 0 0 1-.8-1.1 12.4 12.4 0 0 1-.4-1.2l-1-3.6-.3-1a2.6 2.6 0 0 0 0-.3.7.7 0 0 0 0-.1Z"/><path fill="#263238" d="m376.7 236.6.5.3a3.7 3.7 0 0 1 1.1 1.2 3.9 3.9 0 0 1 .5 1.4v.7a1.5 1.5 0 0 0 .1-.7 3.3 3.3 0 0 0-.5-1.5 3.4 3.4 0 0 0-1.1-1.2 1.7 1.7 0 0 0-.6-.2ZM374.4 236.7l.5.5a4 4 0 0 1 1.2 3v.8a2.1 2.1 0 0 0 .1-.7 3.7 3.7 0 0 0-1.2-3.2 1.9 1.9 0 0 0-.6-.4ZM366.4 232.9h.2l.8-.3a18.8 18.8 0 0 0 2.6-1 21 21 0 0 0 3.5-2.2 20.3 20.3 0 0 0 3.7-3.6l.7-1-.1-.1a1.2 1.2 0 0 0-.3.5.2.2 0 0 0 0 .2.2.2 0 0 0 .2 0 .9.9 0 0 0 .3 0 2.7 2.7 0 0 0 1-.4 10.3 10.3 0 0 0 2.8-2.7 16.7 16.7 0 0 0 1.6-2.8l.8-1.9.2-.5v-.2a1.5 1.5 0 0 0 0 .2l-.3.5c-.1.5-.4 1.1-.8 1.9a16.4 16.4 0 0 1-1.6 2.7 10.4 10.4 0 0 1-2.8 2.7 2.5 2.5 0 0 1-.8.3h-.4a1 1 0 0 1 .3-.5h-.2l-.7 1a21 21 0 0 1-3.6 3.5 21.4 21.4 0 0 1-3.5 2.3 22 22 0 0 1-2.6 1l-.7.3a.9.9 0 0 0-.3 0Z"/><path fill="#d8b4a1" d="m324.8 215.6 8.6 6.6c2.5.4 4.3 2.1 6 4 2.3 2.5 1.8 5 2.5 7.4a9.3 9.3 0 0 0 .6 1.4c.5 1.1 1.9.8 2.6 1a2.5 2.5 0 0 1 1.2 4 4 4 0 0 1-2 .8 15.2 15.2 0 0 1-6.3.5c-2-.4-4-2-4.3-4a6.3 6.3 0 0 1-4.3-.4 10.4 10.4 0 0 1-3.5-2.8 14.5 14.5 0 0 1-1-18.4Z"/><path fill="#263238" d="M331.5 222.2H331.8a6.5 6.5 0 0 1 3.8-.5 7.2 7.2 0 0 1 2 .7 7.8 7.8 0 0 1 2 1.3 10 10 0 0 1 2.6 4.8 14.9 14.9 0 0 1 .2 5.5 2.4 2.4 0 0 0 .1 1.2 1 1 0 0 0 .4.5 1.4 1.4 0 0 0 .6.2l1.1.1a2.5 2.5 0 0 1 2 1.5 2.5 2.5 0 0 1 .2 1.3 2.7 2.7 0 0 1-.4 1 2 2 0 0 0 .2-.2 2.5 2.5 0 0 0 .3-.8 2.6 2.6 0 0 0-.2-1.3 2.6 2.6 0 0 0-2-1.7h-1.2a1.1 1.1 0 0 1-.8-.7 2.2 2.2 0 0 1-.1-1.2 15 15 0 0 0-.2-5.5 10 10 0 0 0-2.8-4.8 8.1 8.1 0 0 0-2-1.4 7.3 7.3 0 0 0-2-.6 6.6 6.6 0 0 0-3 .2 4.7 4.7 0 0 0-1 .4Z"/><path fill="#263238" d="M344.5 240.5a1.4 1.4 0 0 0 .4-.6 2.4 2.4 0 0 0 0-1.6 2.4 2.4 0 0 0-1.2-1.2 1.4 1.4 0 0 0-.6-.2l.6.3a2.4 2.4 0 0 1 1 1.2 2.6 2.6 0 0 1 0 1.5c0 .4-.2.6-.2.6ZM341.3 241.1h.2a2 2 0 0 0 .4-.4 2.2 2.2 0 0 0-.6-3.3 1.9 1.9 0 0 0-.5-.3h-.2a5.6 5.6 0 0 1 .6.4 2.3 2.3 0 0 1 1 1.4 2.3 2.3 0 0 1-.4 1.7 6.9 6.9 0 0 1-.5.5ZM322 225v-2.9a17.1 17.1 0 0 1 .2-1.9 17.5 17.5 0 0 1 1-3.3l.4-.9.1-.3a1.6 1.6 0 0 0-.2.3l-.4 1a14.8 14.8 0 0 0-1 3.2 13.3 13.3 0 0 0-.3 1.8 12.5 12.5 0 0 0 0 1.6 8 8 0 0 0 .2 1 2 2 0 0 0 0 .4ZM340.6 213.9l.2-.1a5 5 0 0 0 .4-.4 7 7 0 0 0 1.2-1.5l-.1-.1a5.3 5.3 0 0 0-.3 2.3 5.7 5.7 0 0 0 .1.7v.2l.2-.1 1.6-2.6.4-.8a1.3 1.3 0 0 0 .2-.3 2.8 2.8 0 0 0-.2.3l-.5.7-1.7 2.6h.2a5.3 5.3 0 0 1 .1-3h-.1a8.6 8.6 0 0 1-1.2 1.5l-.5.6Z"/><path d="M340.7 224.7a11.7 11.7 0 0 1 3.4 5.8 5.5 5.5 0 0 0 .6 1.8 3.7 3.7 0 0 0 3.5 1.2l3.6-.3 1.2 3.8c-2.3.3-6.3.5-6.3.5a2.7 2.7 0 0 0-2.5-1.7 5.3 5.3 0 0 1-1-.1 1.2 1.2 0 0 1-.7-1 4 4 0 0 1 .1-1.3 11.8 11.8 0 0 0-2-8.7ZM372.8 229.5l-10.2 3.5-.3 1.5s9.7-2.9 10.4-5Z" opacity=".3"/><path fill="#fff" d="m361.9 188.4 26.4 13.8a31.6 31.6 0 0 1-12 20.7 42.1 42.1 0 0 1-4.8 3.2 3.8 3.8 0 0 1-2.9.2 4.8 4.8 0 0 1-2.4-2.7 28.2 28.2 0 0 1-1.8-10 5 5 0 0 0-1 2.2c-2-2.7 1.6-12 1.4-15.5-.3-6-4-6-2.9-12Z" opacity=".6"/><path fill="#d8b4a1" d="M388.3 202.2s5.4-12.9 5.5-18.5-4.7-9.8-4.7-9.8a62.7 62.7 0 0 0-3.1-10.4c-2-5-8.4-12.8-10.1-12.3s-2.6 1.5-2.6 6.1a38.3 38.3 0 0 1-.6 7.2s-4.1 1-5.5 2.4a4.2 4.2 0 0 1-2-1.1c-1.2-1-9.5-8.2-11.9-6.5s-1.5 9.9.3 13.4 4.9 8 5 8.4-1.1 5.7-.4 8.4a16.5 16.5 0 0 0 5.9 8.6c3.2 2.5 13 8.6 17.7 7.4s6.5-3.3 6.5-3.3Z"/><path fill="#fff" d="M388.3 202.2s5.4-12.9 5.5-18.5-4.7-9.8-4.7-9.8a62.7 62.7 0 0 0-3.1-10.4c-2-5-8.4-12.8-10.1-12.3s-2.6 1.5-2.6 6.1a38.3 38.3 0 0 1-.6 7.2s-4.1 1-5.5 2.4a4.2 4.2 0 0 1-2-1.1c-1.2-1-9.5-8.2-11.9-6.5s-1.5 9.9.3 13.4 4.9 8 5 8.4-1.1 5.7-.4 8.4a16.5 16.5 0 0 0 5.9 8.6c3.2 2.5 13 8.6 17.7 7.4s6.5-3.3 6.5-3.3Z" opacity=".6"/><path fill="#d8b4a1" d="M353.6 172.7c-1.8-3.5-2.6-11.7-.3-13.4s10.7 5.5 11.8 6.5a4.2 4.2 0 0 0 2.1 1.1 3.3 3.3 0 0 1 .5-.4 18.7 18.7 0 0 1 3.7 3.6 12.4 12.4 0 0 1 2.6 6.2 4.9 4.9 0 0 1-.5 3 5 5 0 0 1-3 2c-4.2 1.3-12.2-1.8-10 7.9a62 62 0 0 0 3.3 7.1 17.3 17.3 0 0 1 1 3c-.3-.2-1.7.2-2 0-3.2-2.5-8-5.6-7-8.3 1.4-4.2 2.9-9.5 2.8-10s-3.1-4.8-5-8.3Z"/><path fill="#fff" d="M353.9 160.9a2 2 0 0 1 2 0 20 20 0 0 1 8.3 7 16.7 16.7 0 0 1-2.8 9.1c-.3.4-.7.9-1.2.8a1.4 1.4 0 0 1-.8-.6 30 30 0 0 1-6-14.3c-.2-.7-.1-1.6.5-2Z" opacity=".6"/><path fill="#d8b4a1" d="M378.1 174.4c-1.3-1.9-2.6-3.8-4.1-5.5a15.8 15.8 0 0 0-4.1-3.5 23.9 23.9 0 0 1 2.8-1 37.6 37.6 0 0 0 .6-7.1c0-4.6.8-5.5 2.6-6s8 7.1 10.1 12.2a62.2 62.2 0 0 1 2.8 9c-1.3.9-2.4 2.1-3.6 3a4.9 4.9 0 0 1-4.4 1.2 6 6 0 0 1-2.7-2.3Z"/><path fill="#263238" d="M377.9 180.3a7.5 7.5 0 0 1 2.4-1.2 1.6 1.6 0 0 1 1.5 0 1.2 1.2 0 0 1 .3 1.3 3.1 3.1 0 0 1-.8 1 2.9 2.9 0 0 1-1.2.8 2.1 2.1 0 0 1-1.8-.3 3.5 3.5 0 0 1-1-.6c-.1-.2-.1-.7.6-1Z"/><path fill="#d8b4a1" d="M374.7 184c1.2 1 1.4 1.1 1.8 2.6s.2 2 1 3.4a3.7 3.7 0 0 0 4 1.8 3.2 3.2 0 0 0 1.9-1.6 5.5 5.5 0 0 0 .6-2.5c0-2.6-1.9-3.9-2.4-4.6a4.5 4.5 0 0 0-1.2.3c-.4.3-2.3 1.4-3.8 1.1l-2-.4Z"/><path fill="#263238" d="M381.1 189a2.9 2.9 0 0 0 0-.7 6.1 6.1 0 0 0-.5-2 6.2 6.2 0 0 0-1-1.6 2.5 2.5 0 0 0-.7-.5s.3.2.6.6a7.5 7.5 0 0 1 1 1.7 7.2 7.2 0 0 1 .5 1.8l.1.8Z"/><path fill="#263238" d="m372.4 182.7.1.1a2.5 2.5 0 0 0 .4.4 4.2 4.2 0 0 0 1.6.9l1.2.3a5.6 5.6 0 0 0 1.5.2 5.5 5.5 0 0 0 3.2-1 2.3 2.3 0 0 1 .7-.4h.9a2 2 0 0 0 1.3-1 2.8 2.8 0 0 0 .4-1.4 3.3 3.3 0 0 0-.3-1.3 3.4 3.4 0 0 0-1.2-1.4 3.5 3.5 0 0 0-.4-.2h-.2l.6.3a3.5 3.5 0 0 1 1.1 1.4 3.3 3.3 0 0 1 .3 1.2 2.5 2.5 0 0 1-.4 1.3 1.8 1.8 0 0 1-1.2.9h-.9a2.3 2.3 0 0 0-.8.5 5.3 5.3 0 0 1-3 1 6.5 6.5 0 0 1-1.5-.2l-1.2-.3a4.3 4.3 0 0 1-1.6-.9 6.3 6.3 0 0 1-.6-.4Z"/><path fill="#fff" d="M386.6 171a53 53 0 0 0-9.4-6 4 4 0 0 1-1.4-.8 3.9 3.9 0 0 1-.7-1.8c-.5-2.4-1-5-.4-7.3.3-.9.8-1.8 1.7-1.8a2.2 2.2 0 0 1 1.4.6c3.1 2.4 5 6 6.7 9.5 1.1 2.4 2.3 4.8 2.5 7.5" opacity=".6"/><path fill="#263238" d="M380.8 183.2a1.5 1.5 0 0 0 0-1.6s.1.4 0 .8v.8Z"/><path fill="#fff" d="M368.9 172.4a4.3 4.3 0 0 1 2.1 0 1 1 0 0 1 .6.5c.2.4-.2.8-.5 1a4.7 4.7 0 0 1-2.2.8 2 2 0 0 1-.8 0 1 1 0 0 1-.6-.6 1 1 0 0 1 .3-1.1 3.1 3.1 0 0 1 1-.6M379.1 169.1a4.3 4.3 0 0 1 2.1.1 1 1 0 0 1 .7.5c.1.4-.2.8-.6 1a4.7 4.7 0 0 1-2.1.7 2 2 0 0 1-.9 0 1 1 0 0 1-.6-.5 1 1 0 0 1 .3-1.2 3.1 3.1 0 0 1 1.1-.6" opacity=".6"/><path fill="#263238" d="m378.5 158.1.8 1.2a9.8 9.8 0 0 1 .8 1.3 11.3 11.3 0 0 1 .7 1.7 12.2 12.2 0 0 1 .3 1.9 10 10 0 0 1 0 1.5l-.1 1.4a2.6 2.6 0 0 0 0-.4l.2-.4a4.6 4.6 0 0 0 0-.6 10 10 0 0 0 0-1.6 11.3 11.3 0 0 0-.3-1.8 10.7 10.7 0 0 0-.7-1.8 9 9 0 0 0-.8-1.3l-.4-.5a2.6 2.6 0 0 0-.3-.3l-.2-.3ZM370.3 176.9a1.4 1.4 0 1 0 1.3-1.4 1.4 1.4 0 0 0-1.3 1.4ZM380.5 173.5a1.4 1.4 0 1 0 1.4-1.4 1.4 1.4 0 0 0-1.4 1.4ZM354.2 163.2l.1.1.4.4 1.4 1.4a31.2 31.2 0 0 1 3.9 5v.2l.1-.2v-.2l.8-2.2h-.1a13 13 0 0 1 1.2 4.9 11 11 0 0 1 0 1.4 2.6 2.6 0 0 0 0 .6 1.1 1.1 0 0 0 0-.2v-.4a11.4 11.4 0 0 0 0-1.4 12.3 12.3 0 0 0-1-5l-.1-.1v.2l-.8 2.1-.1.3h.1a30.2 30.2 0 0 0-4-5.1l-1.4-1.3-.4-.4ZM375.8 206.7a.7.7 0 0 0 0 .2v.7a16 16 0 0 0 .1 2.7h.1a10.8 10.8 0 0 0 2.5-2.8l.3-.4h-.2l-.8 3.3v.2l.1-.2a7.5 7.5 0 0 0 1.5-2.1 7.2 7.2 0 0 0 .3-.7.8.8 0 0 0 0-.3s0 .1 0 .3l-.4.6a7.8 7.8 0 0 1-1.5 2.1l.1.1.9-3.3v-.5l-.2.5-.2.3a11.3 11.3 0 0 1-2.5 2.8h.1a18.1 18.1 0 0 1-.1-2.6v-1Z"/><path fill="#ffbf9d" d="m469 318.1 9.7 23 29.8 10.5-1.8 8.7s-34.9-3.6-38.7-7.7-11.2-27-11.2-27Z"/><path fill="#263238" d="M449.8 258.2c2.7-1 9.7.3 14.5-.8 5.7-1.3 12-9.8 21-4.2l-18.3 46c-2.7 2.7-9 1.4-12-1-4.6-3.4-4.1-9.2-2.1-12.4-3.2 2-7.5-1.4-8.3-5.2a8.7 8.7 0 0 1 4.5-9.3 6.3 6.3 0 0 1-4.3-6.6 7.4 7.4 0 0 1 5-6.5ZM517.4 282.2c-7.6-2.7-8.2-8.9-12.8-11.5L490 305.5c.3 3.6 5 5.8 8.4 4.3s5-5.7 4.4-9.3a6.1 6.1 0 1 0 8.3-8.7c3.3.7 7.7 1.2 9.5-1.7 2.2-3.6-.3-7-3.2-8Z"/><path fill="#263238" d="M499.2 253.2c-5.2-2.4-8.7-2.7-15.6-.8-5.2 1.5-11.5 6.2-12 11.6 7.6 5.4 12.2 7 18.4 14 3.4 3.6 7 8.1 12 8.5a9 9 0 0 0 8.1-3.9c1.7-2.6 0-5.7-1.4-8.5 1.4-.2 4.4-1.2 5.3-2.2 1.8-1.8 2.7-4.4 1.7-6.8a5.6 5.6 0 0 0-4-3 29.4 29.4 0 0 0-3.8-.5s-3.9-6.3-8.7-8.4Z"/><path fill="#ffbf9d" d="M504.5 278.3c1.2-7-4.6-15.6-11.6-16.5l-23.1-1-.8 3.7-5 40.2-1 3s-5 17.9 7.6 20c11.3 1.9 13.4-11 13.4-11l2.1-9.3s9.7 2 13.3-7.6c2-5.6 3.8-13.8 5-21.6Z"/><path fill="#263238" d="M499.6 287.5a1.5 1.5 0 0 1-1.7 1.1 1.4 1.4 0 0 1-1.2-1.7 1.5 1.5 0 0 1 1.8-1.1 1.4 1.4 0 0 1 1.1 1.7ZM501 283.9c-.2.1-1.1-1-2.7-1.4s-3 .2-3 0 .2-.4.8-.7a4.2 4.2 0 0 1 2.5-.2 4 4 0 0 1 2 1.3c.4.5.5.9.4 1ZM485.8 284.6a1.5 1.5 0 0 1-1.8 1.1 1.4 1.4 0 0 1-1.2-1.6 1.5 1.5 0 0 1 1.8-1.2 1.4 1.4 0 0 1 1.2 1.7ZM486.5 280.6c-.2.2-1.2-.9-2.7-1.3s-3 .2-3 0 .1-.5.7-.7a4 4 0 0 1 2.5-.2 3.9 3.9 0 0 1 2.1 1.3c.4.5.5.9.4 1Z"/><path fill="#ff9a6c" d="M486.2 307.5a29.9 29.9 0 0 1-14.3-7.7s1.8 9.3 13.5 11Z"/><path fill="#263238" d="M487.2 275.3c-.3.4-1.6-.3-3.2-.6s-3.2 0-3.2-.6c0-.2.3-.6 1-1a4.6 4.6 0 0 1 2.6-.2 4.1 4.1 0 0 1 2.3 1.2c.5.5.6 1 .5 1.2ZM502.4 278.4c-.4.4-1.5-.2-2.9-.4s-2.6-.2-2.8-.7c0-.2.2-.6.8-1a3.6 3.6 0 0 1 2.4-.3 3.7 3.7 0 0 1 2.1 1.2c.4.6.5 1 .4 1.3Z"/><path fill="#ffbf9d" d="M468.3 277.9c-.1-.1-6.5-3.7-7.9 3.3s6 7 6 6.8l2-10.1Z"/><path fill="#ff9a6c" d="M464.8 285h-.4a1.3 1.3 0 0 1-.9-.1 3 3 0 0 1-.9-3 4.1 4.1 0 0 1 .7-1.7 1.5 1.5 0 0 1 1.1-.8.7.7 0 0 1 .7.5v.4s.2-.1.2-.4a.8.8 0 0 0-.2-.5 1 1 0 0 0-.7-.3 1.7 1.7 0 0 0-1.5.8 4.2 4.2 0 0 0-.8 1.9c-.2 1.4.3 2.9 1.2 3.4a1.3 1.3 0 0 0 1.2 0l.3-.3ZM483.7 291.2a6.7 6.7 0 0 0-1.5 3 2.8 2.8 0 0 0 1 2.6 3.1 3.1 0 0 0 3 .2 9.5 9.5 0 0 0 2.5-1.7l-5-4.1Z"/><path fill="#263238" d="M485.1 297.8a2.8 2.8 0 0 1-2-1 3.7 3.7 0 0 1-1.1-2.1 4 4 0 0 1 .8-3 3.8 3.8 0 0 1 1-.8H484.1a26.6 26.6 0 0 1 3.4 3 6.2 6.2 0 0 1 1.2 1.3c0 .1-2-1.9-4.9-3.9h.2a3.2 3.2 0 0 0-.8.8 3.5 3.5 0 0 0-.8 2.5 3.4 3.4 0 0 0 1 2 5.5 5.5 0 0 0 1.7 1.2ZM470 258l26.6-3.5L509 266a7.4 7.4 0 0 1-7.2 5.9c-2 0-4.2-1.3-4-3.1-.9 1.4-3.6 2.2-4.4 2.3a8.3 8.3 0 0 1-6-1.6 29 29 0 0 1-3.8-3.7c-1.6 4-6 7.4-9.4 10.1-2 1.6-3.3 6.3-5.9 6.6-5 .5-11-.5-11.1-4 1.1-6 11.6-14.4 12.7-20.4Z"/><path fill="#455a64" d="M459.4 264.6a3.9 3.9 0 0 0 .8.8 13.7 13.7 0 0 0 2.5 1.7 15 15 0 0 0 18.1-2.9 14.3 14.3 0 0 0 1.8-2.4 4 4 0 0 0 .5-1 26.3 26.3 0 0 1-2.5 3.1 15.2 15.2 0 0 1-17.8 2.9 27.3 27.3 0 0 1-3.4-2.2ZM496 264.4a3.6 3.6 0 0 0 1-.7c.7-.5 1.5-1.3 2.7-2.1a4.9 4.9 0 0 1 2-.9 3 3 0 0 1 2.5.6 2.7 2.7 0 0 1 .6 2.6 7.1 7.1 0 0 1-1.5 2.7l-.2.3-.6.8.8-.4 3-1.1 1.4-.4a4.6 4.6 0 0 1 1.3-.3c.5 0 .7.3.6.6a3.8 3.8 0 0 1-.7 1 11.8 11.8 0 0 1-1.6 1.7 16.6 16.6 0 0 1-3.8 2.3 4 4 0 0 0 1.2-.3 11.8 11.8 0 0 0 2.8-1.8 12.2 12.2 0 0 0 1.7-1.6 4.3 4.3 0 0 0 .8-1.2.8.8 0 0 0-.2-.8 1 1 0 0 0-.7-.3 5 5 0 0 0-1.5.2 27.5 27.5 0 0 0-4.5 1.6l.3.3.3-.3a7.5 7.5 0 0 0 1.5-3 3.1 3.1 0 0 0-.8-3 3.3 3.3 0 0 0-2.7-.6 5.2 5.2 0 0 0-2.2 1 31.5 31.5 0 0 0-2.6 2.3l-.9.8Z"/><path fill="#263238" d="m462.5 275.1 11.6.6A40 40 0 0 1 464 280c-3.6.8-7.5.5-10.5-1.6a10 10 0 0 1 9-3.2Z"/><path fill="#455a64" d="m456.7 273.8.5.6a7.7 7.7 0 0 0 1.5 1.2 12.2 12.2 0 0 0 6.3 1.7 22.5 22.5 0 0 0 6.3-1 13.4 13.4 0 0 0 2.5-1 16.8 16.8 0 0 0-2.6.7 26.4 26.4 0 0 1-6.2.8 13 13 0 0 1-6.1-1.5 23.5 23.5 0 0 1-2.2-1.5Z"/><path fill="#263238" d="M488.8 291.8a5.2 5.2 0 0 0 1.5.4l.8.1.4.1a1.3 1.3 0 0 0 1.4-.8 1.3 1.3 0 0 0 .1-.6l-.1-.5a28.4 28.4 0 0 0-1.6-5 28.4 28.4 0 0 0 1.1 5c.1.4.2.7 0 1a.8.8 0 0 1-.4.4 1 1 0 0 1-.4 0h-.4l-.8-.1a4.8 4.8 0 0 0-1.6 0Z"/><path fill="#ffbf9d" d="m489.5 472.3-2.3-18.5-18.5 5.2 5.3 17.7 15.5-4.4z"/><path fill="#455a64" d="m489.1 470.1.3 1s18.7 3.1 19.6 6.5l-34 7.8-2.1-11.9a19.5 19.5 0 0 0 16.3-3.4Z"/><path fill="#e0e0e0" d="M507.3 476.1s1.7.4 1.7 1.5l-34 7.8-.6-2.8"/><path fill="#263238" d="m490 475.5-.3-.7a3.7 3.7 0 0 1 .2-1.7 3.4 3.4 0 0 1 .9-1.4l.6-.4a8.5 8.5 0 0 0-1.1 2 9 9 0 0 0-.3 2.2ZM488.1 475.5a3.2 3.2 0 0 1 .1-2.4 3 3 0 0 1 1.4-1.8 18.1 18.1 0 0 0-1 2 19.3 19.3 0 0 0-.5 2.2ZM492.9 475.7a2.4 2.4 0 0 1-.6-1.9 2.4 2.4 0 0 1 .7-1.8s-.3.8-.3 1.9.3 1.8.2 1.8Z"/><path fill="#263238" d="M491.5 471.7s-.4-.3-.8-1.1a7 7 0 0 1-.4-1.4l-.2-.8a2.1 2.1 0 0 1 0-.5.7.7 0 0 1 .2-.5.5.5 0 0 1 .6 0 1.2 1.2 0 0 1 .3.4 4.6 4.6 0 0 1 .3.8 4.7 4.7 0 0 1 .2 1.5 2.3 2.3 0 0 1-.3 1.2V470a5.1 5.1 0 0 0-.2-1.3 4.8 4.8 0 0 0-.3-.8c-.1-.2-.3-.4-.4-.3v.7l.1.8a8 8 0 0 0 .4 1.4c.3.7.6 1.1.5 1.2Z"/><path fill="#263238" d="m491.8 471.5-.2.2v-.1a4.7 4.7 0 0 1 .2-1.5 5 5 0 0 1 .6-1 6.3 6.3 0 0 1 .4-.6 1 1 0 0 1 .3-.2.6.6 0 0 1 .5 0 .5.5 0 0 1 .2.5 2 2 0 0 1-.1.5 5 5 0 0 1-.4.7 5 5 0 0 1-.9 1 2.1 2.1 0 0 1-1 .6l.9-.8a4.9 4.9 0 0 0 .7-1 4.8 4.8 0 0 0 .4-.7v-.5l-.7.7a6.2 6.2 0 0 0-.6 1 10 10 0 0 0-.5 1.4l.1-.2Z"/><path fill="#ffbf9d" d="m369.2 456.1 15.3-10.7-13.2-13.9-13.2 12.9 11.1 11.7z"/><path fill="#455a64" d="m371 454.8-.8.7s6 18 3.5 20.3l-22.9-26.4 9.5-7.4a19.4 19.4 0 0 0 10.7 12.8Z"/><path fill="#e0e0e0" d="M374.2 473.6s.5 1.7-.5 2.2l-22.9-26.4 2.3-1.8"/><path fill="#263238" d="m366.7 458 .5-.5a3.6 3.6 0 0 1 1.5-.6 3.4 3.4 0 0 1 1.7 0l.6.4a9.2 9.2 0 0 0-2.2 0 8.5 8.5 0 0 0-2.1.8ZM365.8 456.4a3.2 3.2 0 0 1 2-1 3 3 0 0 1 2.4.3 20.7 20.7 0 0 0-2.3 0 19.1 19.1 0 0 0-2.1.7ZM367.8 460.7c-.1 0 .4-.9 1.4-1.4a2.4 2.4 0 0 1 2-.3c0 .2-1 .2-1.8.7s-1.5 1-1.6 1Z"/><path fill="#263238" d="M370.8 457.6a2.2 2.2 0 0 1 .5-1.2 7.4 7.4 0 0 1 1-1l.7-.6a2.8 2.8 0 0 1 .4-.3.7.7 0 0 1 .6 0 .5.5 0 0 1 .2.6 1.1 1.1 0 0 1-.2.4 4.7 4.7 0 0 1-.6.7 4.6 4.6 0 0 1-1.2.8 2.4 2.4 0 0 1-1.3.4l1.2-.6a5.2 5.2 0 0 0 1.1-.8 4 4 0 0 0 .5-.6c.2-.3.2-.5.1-.5l-.6.2-.7.5a8.8 8.8 0 0 0-1 1c-.5.5-.7 1-.7 1Z"/><path fill="#263238" d="M371 457.7H370.7l.1-.1a4.4 4.4 0 0 1 1.5-.5 5 5 0 0 1 1.1 0 5 5 0 0 1 .7.2 1.3 1.3 0 0 1 .4 0 .6.6 0 0 1 .2.5.5.5 0 0 1-.3.5 1.9 1.9 0 0 1-.5.1 5.7 5.7 0 0 1-.8 0 4.7 4.7 0 0 1-1.3-.3c-.8-.3-1.1-.6-1-.7s.4.2 1 .4a5.4 5.4 0 0 0 1.3.2 5 5 0 0 0 .8 0l.5-.1-1-.4a6.1 6.1 0 0 0-1.1 0 9.8 9.8 0 0 0-1.5.2h.2ZM455 363s22.8 33.6 28.3 43.6 9 57.6 10 57.5l-24 4.4-8.8-48.4-32.2-36L423 365Z"/><path fill="#263238" d="m443 387.5-17.1 34a19.6 19.6 0 0 1-11 9.5l-40.6 23-14.1-14.8 40.7-33 5.8-19.8a50.2 50.2 0 0 1 1.6-19.9l3.7-8.6 25.2 6.1Z"/><path fill="#d8b4a1" d="M483.7 311.6v11.5c-.3 6.8-5.3 17.2-8.4 24.6-3.6 8.6-10.4 16-10.4 24.5 0 5.6-3.7 6.4-3.7 6.4-22.9 1-35-1.7-49.2-20.7 0 0 14-20.8 25.4-36.9 7.7-10.8 9.4-13.5 17-17.6 2.1-1.1 8.6-3.7 8.6-3.7 3.4 5.6 18.7 16.1 20.7 12Z"/><path fill="#ebebeb" d="M538.4 406.8a3 3 0 0 1 1.7-1.7 9.5 9.5 0 0 1 2.3-.7l6.2-1.2a1.2 1.2 0 0 1 1 0c.3.4.3 1 0 1.4a6.7 6.7 0 0 1-5 4.1 6.4 6.4 0 0 1-6.2-1.9"/><path fill="#e0e0e0" d="M547.4 404.9a5.8 5.8 0 0 1-1.6.9 14.7 14.7 0 0 1-4.2 1.3 8.6 8.6 0 0 1-4.3-.5 3.9 3.9 0 0 1-1.6-.9 16.2 16.2 0 0 1 1.7.6 9.6 9.6 0 0 0 4.2.3 20 20 0 0 0 4-1.2 6.8 6.8 0 0 1 1.8-.5Z"/><path fill="#ebebeb" d="M559.2 348a3.1 3.1 0 0 1-2.3.8 9.8 9.8 0 0 1-2.4-.6l-6-2a1.2 1.2 0 0 1-.8-.7c-.1-.4.2-.9.6-1.2a6.8 6.8 0 0 1 6.6-1 6.4 6.4 0 0 1 4.3 4.8"/><path fill="#e0e0e0" d="M550.5 345.3a5.6 5.6 0 0 1 1.8 0 14.9 14.9 0 0 1 4.2 1 8.6 8.6 0 0 1 3.6 2.5 3.7 3.7 0 0 1 .8 1.6l-1.1-1.3a9.6 9.6 0 0 0-3.5-2.4 20.2 20.2 0 0 0-4-1 6.9 6.9 0 0 1-1.8-.4Z"/><path fill="#d8b4a1" d="M514.4 335c-5.3 0-7.7-1.5-12.3 6.5-7.6 11.8-10.6 15.6-18.3 27.5a21.1 21.1 0 0 0-3.8 8.7c-.7 6.5 10.4 20.8 15.2 25.2 3 2.7 6 5.5 9.5 7.3s7.8 2.7 11.6 1.5c4-1.3 6.9-4.7 9.6-7.9l21.3-25.4c1.7-2 3.5-4.3 3.6-7 .2-3-1.8-5.6-3.8-8-4.5-5.4-9-11-14.5-15.4s-11-12.5-18.2-13"/><path fill="#263238" d="m525 364.3-3 .8a42.6 42.6 0 0 0-7 2.5 38.9 38.9 0 0 0-6.5 3.7 7.9 7.9 0 0 0-1.3 1.8l-.5.7a3.1 3.1 0 0 1 .3-.8 6.8 6.8 0 0 1 1.3-2 32.2 32.2 0 0 1 6.4-4 34.5 34.5 0 0 1 7.2-2.3l2.3-.4a2.9 2.9 0 0 1 .8 0ZM516.3 357.6l-2 2a30.1 30.1 0 0 0-4.3 5.2 30.5 30.5 0 0 0-3 6.1 27.4 27.4 0 0 1-.8 2.7 10.5 10.5 0 0 1 .5-2.8 25.4 25.4 0 0 1 2.9-6.2 25 25 0 0 1 4.4-5.3 10.1 10.1 0 0 1 2.3-1.7ZM499 393.7a13.3 13.3 0 0 1 1.3-9.2c.1 0-.6 2-1 4.5s-.2 4.7-.4 4.7ZM490.3 389.4a16.1 16.1 0 0 1 4.3-3.6 15.8 15.8 0 0 1 5.1-2.4c0 .2-2.2 1.2-4.8 2.8s-4.5 3.3-4.6 3.2Z"/><path fill="#ffbf9d" d="m499 371.6-25.5-17.2-6.4-27.4-17.8 5.7s7.8 27.8 12.7 33.2 29.7 11.9 29.7 11.9Z"/><path fill="#d8b4a1" d="M454.9 310.3s10.3-1 13.2 7.3S473 339 473 339l-26 1.2s-5.2-27.4 7.9-30Z"/><path fill="#263238" d="M454.9 310.3a4 4 0 0 1-.6.2 8.7 8.7 0 0 0-1.7.7 8.6 8.6 0 0 0-2.3 1.8 12.4 12.4 0 0 0-2.1 3.4 28.8 28.8 0 0 0-2 10.4 67.6 67.6 0 0 0 1 13.5l-.2-.2 15.2-.8 10.7-.5-.2.3A163.3 163.3 0 0 0 468 318a10.2 10.2 0 0 0-3-4.5 12.1 12.1 0 0 0-4-2.2 15.5 15.5 0 0 0-3.2-.8 19.4 19.4 0 0 0-2.2-.1 6.2 6.2 0 0 1-.7 0s0 0 .2 0a5.3 5.3 0 0 1 .5 0 15.9 15.9 0 0 1 2.2 0 15.7 15.7 0 0 1 3.4.7 12.1 12.1 0 0 1 4 2.2 10.6 10.6 0 0 1 3.2 4.7l1.9 6.3c1 4.4 2 9.5 2.9 15v.2h-.2l-10.7.6-15.2.7h-.2v-.2a66.2 66.2 0 0 1-1-13.6 28.9 28.9 0 0 1 2-10.5 12.6 12.6 0 0 1 2.3-3.4 8.9 8.9 0 0 1 2.4-1.9 8.1 8.1 0 0 1 1.7-.6 4.2 4.2 0 0 1 .6-.2Z"/><path fill="#ffbf9d" d="M497.8 370.8h10l-1.2 3s9.3 5.1 8.3 6.7-.8 0-3.1 0-.6 2.4-4.2 2.8-4 2.3-7.7 1.2-7.5-6.8-8.3-6.7 6.2-7 6.2-7Z"/><path d="m542.7 374.6.2.1a86.7 86.7 0 0 1-26.9 31.8c7.4-11.5 22.8-30 26.7-32Z" opacity=".3"/><path fill="#ebebeb" d="M513.3 349.2a3.1 3.1 0 0 1 0-2.4 9.2 9.2 0 0 1 1-2.1l3.5-5.3a1.3 1.3 0 0 1 .8-.6c.5 0 .8.4 1 .8a6.7 6.7 0 0 1-.7 6.6 6.4 6.4 0 0 1-5.6 3"/><path fill="#e0e0e0" d="M518.2 341.5a5.8 5.8 0 0 1-.5 1.7 15.1 15.1 0 0 1-2 4 8.5 8.5 0 0 1-3.4 2.7 3.8 3.8 0 0 1-1.7.5l1.6-.8a9.6 9.6 0 0 0 3.1-2.8 19.5 19.5 0 0 0 2-3.7 7 7 0 0 1 .9-1.6Z"/><path fill="#ebebeb" d="M519 404a3.1 3.1 0 0 1 2.2 1 9.4 9.4 0 0 1 1.4 2l3.1 5.5a1.2 1.2 0 0 1 .2 1c-.1.4-.7.5-1.2.5a6.8 6.8 0 0 1-5.6-3.5 6.4 6.4 0 0 1-.1-6.4"/><path fill="#e0e0e0" d="M523.8 412a6 6 0 0 1-1.4-1.3 15 15 0 0 1-2.6-3.5 8.4 8.4 0 0 1-1-4.3 3.7 3.7 0 0 1 .4-1.7v1.7a9.8 9.8 0 0 0 1 4 20.7 20.7 0 0 0 2.4 3.6 7.2 7.2 0 0 1 1.2 1.4Z"/><path fill="#ebebeb" d="M547 384.6a3.1 3.1 0 0 1-1.9 1.5 9.4 9.4 0 0 1-2.4.4l-6.2.5a1.3 1.3 0 0 1-1-.2c-.4-.3-.2-.9 0-1.3a6.7 6.7 0 0 1 5.6-3.5 6.4 6.4 0 0 1 5.8 2.6"/><path fill="#e0e0e0" d="M537.8 385.5a6 6 0 0 1 1.7-.7 14.7 14.7 0 0 1 4.3-.9 8.6 8.6 0 0 1 4.3 1 3.8 3.8 0 0 1 1.4 1.1l-1.6-.8a9.6 9.6 0 0 0-4.1-.7 20.2 20.2 0 0 0-4.2.7 7 7 0 0 1-1.8.3Z"/><path fill="#263238" d="M272.7 66.7a5 5 0 0 0-4.6-4.6c1.4-2.3.2-5.6-2.2-6.8a6.8 6.8 0 0 0-7.4 1.2 5.2 5.2 0 0 0-9.7 2.8c-2.1-.7-4.6 1.1-5 3.4a6 6 0 0 0 2.7 5.9c-1.1.8-1 2.6-.1 3.7a6.3 6.3 0 0 0 3.7 1.8l8.7 2.5a8.3 8.3 0 0 0 6.8 1c2.3-1 3.9-3.6 3-5.8a5 5 0 0 0 4.1-5Z"/><path fill="#455a64" d="M272.6 65.8a1.8 1.8 0 0 0-.3-.3 3.6 3.6 0 0 0-1-.6 4 4 0 0 0-2 0 3.7 3.7 0 0 0-2.2 1.2l.2.1a5.3 5.3 0 0 0-1.3-3.1 6.7 6.7 0 0 0-3.5-2 7.7 7.7 0 0 0-4.4.5 11 11 0 0 0-4 2.8 5.4 5.4 0 0 0-1.2 2 2.7 2.7 0 0 0 .3 2.4 2.2 2.2 0 0 0 1 .8 1.8 1.8 0 0 0 1.1 0 2.2 2.2 0 0 0 1.6-1.5 2.6 2.6 0 0 0-.4-2 3.4 3.4 0 0 0-1.5-1.3 6 6 0 0 0-3.4-.3 7.8 7.8 0 0 0-4.2 2.4 6.6 6.6 0 0 0-.8 1 2.1 2.1 0 0 0-.3.4 13.4 13.4 0 0 1 1.1-1.3 7.8 7.8 0 0 1 4.2-2.2 5.7 5.7 0 0 1 3.2.4 3 3 0 0 1 1.3 1 2.1 2.1 0 0 1 .4 1.8 1.9 1.9 0 0 1-1.3 1.3 1.5 1.5 0 0 1-1.6-.7 2.3 2.3 0 0 1-.3-2 4.7 4.7 0 0 1 1.1-2c2.2-2.3 5.3-3.7 8-3.1a6.3 6.3 0 0 1 3.3 1.8 4.9 4.9 0 0 1 1.3 3v.3l.3-.3a3.6 3.6 0 0 1 2-1.2 4.1 4.1 0 0 1 1.8 0 4.6 4.6 0 0 1 1.5.7Z"/><path fill="#263238" d="M264.6 74.7a.7.7 0 0 0 0 .2 1.9 1.9 0 0 0 .5.5 2.3 2.3 0 0 0 1 .5 2 2 0 0 0 1.5-.3l.8-.4-.9.2-1 .3-1 .4 1.1-.1a2.4 2.4 0 0 0 1.5-4l-.3.2a5 5 0 0 0 9-1.5 4.8 4.8 0 0 0-.3-4 2.6 2.6 0 0 0-3.5-1l.3.3a3.6 3.6 0 0 0 1.2-2.4 4 4 0 0 0-.6-2.5 3.1 3.1 0 0 0-1.7-1.3 3.8 3.8 0 0 0-1.9-.1A3.7 3.7 0 0 0 268 61a2.1 2.1 0 0 0-.4.8s.1-.3.5-.7a3.8 3.8 0 0 1 2.2-1.2 3.5 3.5 0 0 1 1.7.2 3 3 0 0 1 1.6 1.2 3.7 3.7 0 0 1 .4 2.3 3.3 3.3 0 0 1-1 2.1l.2.4a2.2 2.2 0 0 1 2.9.9 4.4 4.4 0 0 1 .3 3.6A4.7 4.7 0 0 1 268 72l-.3.2a2 2 0 0 1 .5 2.3 2 2 0 0 1-1.7 1.2v.3l1-.3-.1-.2a2 2 0 0 1-1.3.2 2.4 2.4 0 0 1-1-.3 3.2 3.2 0 0 1-.6-.7ZM240 69.6a9.2 9.2 0 0 1-.7-1 5 5 0 0 1-.5-3.5 4.7 4.7 0 0 1 3.3-3.5 4.4 4.4 0 0 1 1.5-.2 1.6 1.6 0 0 1 1.2.6.7.7 0 0 1-.2 1 2 2 0 0 1-1.5 0 4 4 0 0 1-2.3-2.2 3.2 3.2 0 0 1 .2-2.9 4.8 4.8 0 0 1 4.3-2.4 5 5 0 0 1 3.2 1.2c.6.5.9 1 1 .9s0-.1-.2-.3a3.8 3.8 0 0 0-.7-.7 5.2 5.2 0 0 0-3.3-1.4 5.3 5.3 0 0 0-2.5.5 4.9 4.9 0 0 0-2.1 2 3.7 3.7 0 0 0-.3 3.2 4.4 4.4 0 0 0 2.5 2.4 2.5 2.5 0 0 0 1.8.1 1 1 0 0 0 .7-.7 1.3 1.3 0 0 0-.2-1 2 2 0 0 0-1.6-.7 4.9 4.9 0 0 0-1.6.2 5 5 0 0 0-3.5 3.9 5.1 5.1 0 0 0 .6 3.5 3.9 3.9 0 0 0 .6.8l.3.2Z"/><path fill="#d8b4a1" d="M266 76.5c-1-1.8-3.6-2-5.5-1.2a3.8 3.8 0 0 0-6-3.7c-.4.4-.9.8-1.5.7s-1-.5-1.4-1a3.9 3.9 0 1 0-4.9 6l.3-1a21.9 21.9 0 0 0 11.8 5.7 8.4 8.4 0 0 0 5.5-.7c1.6-1 2.6-3.1 1.8-4.8Z"/><path fill="#263238" d="M270.8 93a7 7 0 0 0-.3-8 6.5 6.5 0 0 0-2.6-2 8.3 8.3 0 0 0-1.9-4.8c-1.7-2-5-2.6-7-.8a6.3 6.3 0 0 0-8.6-2.7 6.7 6.7 0 0 0-10 .4 4.7 4.7 0 0 0-7.2 4.6 5.1 5.1 0 0 0-5.6 6.8 3.8 3.8 0 0 0-2.2 6.6 5.3 5.3 0 0 0 1 7.8 4.4 4.4 0 0 0 3 5l31.2 9.3c5.2-.3 6.6-3.7 6.9-6.9a4.8 4.8 0 0 0 2.6-6.8 5.4 5.4 0 0 0 .8-8.5Z"/><path fill="#ffbf9d" d="m258.7 86-19.1-4.2c-6-.5-9.9 7.1-10.1 13.2-.2 6.8-.2 15 .7 20.1 2 10.1 9.7 11.2 9.7 11.2l.2 3.1.1 5a8.5 8.5 0 0 0 2 5.3c3 3.4 8.1 3.6 13.9 1 3.3-1.6 3.1-3.5 3.5-8.1l2.7-44.2a5.3 5.3 0 0 0-3.6-2.4Z"/><path fill="#263238" d="M233.5 104.2a1.3 1.3 0 0 0 1.3 1.2 1.2 1.2 0 0 0 1.3-1.2 1.3 1.3 0 0 0-1.3-1.2 1.2 1.2 0 0 0-1.3 1.2ZM231.9 100.2c.1.2 1.1-.6 2.5-.6s2.5.6 2.6.5-.1-.4-.6-.7a3.6 3.6 0 0 0-2-.6 3.4 3.4 0 0 0-2 .7c-.5.3-.6.7-.5.7ZM245.6 103.8a1.3 1.3 0 0 0 1.3 1.2 1.2 1.2 0 0 0 1.3-1.2 1.3 1.3 0 0 0-1.3-1.2 1.2 1.2 0 0 0-1.3 1.2ZM245.1 100.2c.2.2 1.2-.6 2.6-.6s2.4.6 2.5.5 0-.4-.5-.7a3.6 3.6 0 0 0-2.1-.6 3.4 3.4 0 0 0-2 .7c-.4.3-.6.7-.5.7ZM241.2 109.6a9.2 9.2 0 0 0-2.3-.3c-.4 0-.7-.1-.8-.4a1.9 1.9 0 0 1 .2-1l1-2.8c1.4-4 2.3-7.1 2.2-7.2s-1.4 3.1-2.8 7l-.9 2.8a2 2 0 0 0-.1 1.4.9.9 0 0 0 .6.5 2.3 2.3 0 0 0 .6 0 9 9 0 0 0 2.3 0Z"/><path fill="#ff9a6c" d="M239.9 126.3a25.8 25.8 0 0 0 13.5-4s-3.2 7.2-13.4 6.5ZM245.9 112.4a2 2 0 0 0-1.7-.9 2.7 2.7 0 0 0-2.4 1.3 1.7 1.7 0 0 0 0 1.2l.1.2a4.7 4.7 0 0 0 2 1.1 2 2 0 0 0 2-.8 2 2 0 0 0 0-2.1Z"/><path fill="#263238" d="M245.6 110.5c-.3 0-.2 1.5-1.5 2.6s-3 1-3 1.2.5.3 1.1.3a3.8 3.8 0 0 0 2.5-.9 3.3 3.3 0 0 0 1.1-2.2c0-.6-.1-1-.2-1ZM245 94.1c0 .4 1.4.3 3 .5s3 .7 3.3.4c0-.2-.2-.5-.7-1a5.3 5.3 0 0 0-2.3-.8 5.2 5.2 0 0 0-2.5.2c-.6.2-1 .5-.9.7ZM232.2 95.2c.2.3 1.3 0 2.6-.1s2.4 0 2.6-.3c.1-.2 0-.5-.6-.8a4 4 0 0 0-2.1-.4 4 4 0 0 0-2.1.8c-.4.3-.6.7-.4.8ZM239.5 80.7v.2Z"/><path fill="#ffbf9d" d="M259.7 104.1a1.3 1.3 0 0 1 1-1.3c1.7-.4 4.6-.4 4.9 3.7.3 5.7-5.5 5-5.5 4.8l-.4-7.2Z"/><path fill="#7c4236" d="m261.7 109 .3.1a1 1 0 0 0 .7 0 2.5 2.5 0 0 0 1-2.3 3.3 3.3 0 0 0-.3-1.4 1.2 1.2 0 0 0-.8-.7.5.5 0 0 0-.6.3v.3s-.2 0-.2-.3a.6.6 0 0 1 .2-.4.8.8 0 0 1 .6-.2 1.4 1.4 0 0 1 1 .9 3.4 3.4 0 0 1 .5 1.5 2.6 2.6 0 0 1-1.3 2.6 1 1 0 0 1-.9-.1c-.2-.1-.2-.3-.2-.3Z"/><path fill="#263238" d="M227.5 98.4A3.5 3.5 0 0 0 231 94a3.7 3.7 0 0 0 3.6-4.7 4.6 4.6 0 0 0 6.5-3 1.3 1.3 0 0 0 .8 1 2.5 2.5 0 0 0 1.3.3 4.3 4.3 0 0 0 3.5-2.5 3.9 3.9 0 0 0 4.8 1.5c.6-.3 1.1-.8 1-1.5a1.6 1.6 0 0 0-.3-.6 10.6 10.6 0 0 0-8-4.4 22.8 22.8 0 0 0-9.2 1.5 12.2 12.2 0 0 0-4.8 2.6 13.7 13.7 0 0 0-2.9 5.3 21.8 21.8 0 0 0-1.2 4.1 7.5 7.5 0 0 0 .5 4.3h.4"/><path fill="#263238" d="M251.5 85.1a5.4 5.4 0 0 0 4.4 5.1 2.7 2.7 0 0 0 1.4 5.1 6.4 6.4 0 0 0-.6 2.6 2.2 2.2 0 0 0 1.4 2.1 2.5 2.5 0 0 0-.7 2.3 2.1 2.1 0 0 0 2 1.6c1 0 1.6-1 2.4-1.2a4 4 0 0 1 3.5 1l1-10.6-1.2-8.5-5-3.7-9.6 1.8Z"/><path fill="#455a64" d="M267.4 85.4a5.1 5.1 0 0 1-1-.1 2.8 2.8 0 0 1-1.9-1.7l-.2-.6-.1.7a3.3 3.3 0 0 1-1.2 2 3 3 0 0 1-2.7.6 3.1 3.1 0 0 1-1.6-1l-.2-.2-.1.2a4.5 4.5 0 0 1-2.2 1.8 4.4 4.4 0 0 1-2.2.2 7 7 0 0 1-2-.8l.4.4a4.1 4.1 0 0 0 1.5.6 4.3 4.3 0 0 0 2.4 0 4.7 4.7 0 0 0 2.4-2h-.3a3.6 3.6 0 0 0 1.7 1.1 3.4 3.4 0 0 0 3.1-.6 3.5 3.5 0 0 0 1.3-2.4h-.3a2.9 2.9 0 0 0 2.2 1.8 1.6 1.6 0 0 0 1 0ZM252.5 74.3a20.5 20.5 0 0 1 2.1 1.1 4.4 4.4 0 0 1 1.6 2 2.7 2.7 0 0 1-.5 2.8 2.2 2.2 0 0 1-.8.6l-.3.1.2.2a2.7 2.7 0 0 1 0 2.5 4.7 4.7 0 0 1-1.4 1.7l-1.7 1.3a1.6 1.6 0 0 0 .5-.3 10 10 0 0 0 1.4-.7 4.8 4.8 0 0 0 1.5-1.8 3 3 0 0 0 0-3v.4a2.6 2.6 0 0 0 1-.7 3 3 0 0 0 .4-3.2 4.5 4.5 0 0 0-1.8-2.1 6.5 6.5 0 0 0-1.6-.8l-.6-.2Z"/><path fill="#263238" d="m221.5 108.3.2.1a2.2 2.2 0 0 0 .7.2 3.3 3.3 0 0 0 2.2-.7 3.2 3.2 0 0 0-.1-5 2 2 0 0 0-1.2-.5 1.4 1.4 0 0 0-1 .6 1.2 1.2 0 0 0-.2 1.3 2.2 2.2 0 0 0 .9.8 3.1 3.1 0 0 0 2 .3 3.7 3.7 0 0 0 1.8-.9 3.8 3.8 0 0 0 1-1.4 4.6 4.6 0 0 0 .1-2.3 2 2 0 0 0-.2-.9s0 .3 0 .9a4.8 4.8 0 0 1-.3 2.2 3.4 3.4 0 0 1-2.4 2 2.7 2.7 0 0 1-1.8-.3c-.6-.3-1-1-.6-1.5a1 1 0 0 1 .7-.4 1.6 1.6 0 0 1 1 .3 2.7 2.7 0 0 1 1 1.6 2.8 2.8 0 0 1-.9 3 3.2 3.2 0 0 1-2 .7 7 7 0 0 1-.9 0ZM266.4 101.1a2.2 2.2 0 0 0 .8.4 6.4 6.4 0 0 0 2.2.4 9 9 0 0 0 3.4-.6 2.6 2.6 0 0 0 1.4-1.5 1.6 1.6 0 0 0 0-1.1 1.6 1.6 0 0 0-.9-.9 1.2 1.2 0 0 0-.7 0l.1.4a3.5 3.5 0 0 0 1.9-3.4 3 3 0 0 0-.7-1.6 3.4 3.4 0 0 0-3.3-1.2 1.4 1.4 0 0 0-.7.3s.2 0 .7-.1a3.4 3.4 0 0 1 2 .3 2.8 2.8 0 0 1 1.6 2.3 3.1 3.1 0 0 1-1.6 3l.1.4a.8.8 0 0 1 .5 0 1.2 1.2 0 0 1 .6.6 1.3 1.3 0 0 1 0 .9 2.2 2.2 0 0 1-1.2 1.2 9.3 9.3 0 0 1-3.2.7 8.3 8.3 0 0 1-3-.5Z"/><path fill="#ffbf9d" d="m232 274.4-8.6 16.4-12.8-7.2 5.6-17.7Z"/><path fill="#263238" d="M224 288.5s-13 .4-13.4-8l-.7 1.7-19.6 12.9c-3.1 2.2-2.9 4.7-2 6a3 3 0 0 0 2.8 1.4c6.1-.8 28.6-3.7 29.7-5.5l1.2-1.6c1.9-2.2 2.5-5 1.9-6Z"/><path fill="#fff" d="m188.6 301.6 33.4-6.2-.7 1c-.8 1.1-1.5 1.2-2.6 1.5-3 1-10.5 2.4-27.5 4.7a3 3 0 0 1-2.6-1ZM219.7 291.1a1.8 1.8 0 0 0-1.8 1.6 1.7 1.7 0 0 0 1.5 1.8 1.9 1.9 0 0 0 2-1.7c0-.9-1-1.8-2-1.7" opacity=".6"/><path fill="#fff" d="M204.2 293.8c-.2 0 .2-1.7-.7-3.4s-2.4-2.3-2.3-2.5.4 0 1 .3a4.6 4.6 0 0 1 1.8 2 4.7 4.7 0 0 1 .5 2.5c0 .7-.3 1-.3 1ZM200.4 295.1c-.1 0-.3-1.2-1.3-2.5s-2.1-1.8-2-2 1.5.2 2.5 1.6 1 3 .8 3ZM208.4 292.2a26.9 26.9 0 0 0-1.6-3.5 24.8 24.8 0 0 0-2.4-3 7 7 0 0 1 4 6.5ZM208 287a2.8 2.8 0 0 1 .7-.8 7.8 7.8 0 0 1 2.7-1.3 3.4 3.4 0 0 1 2.2 0 1.2 1.2 0 0 1 .7 1.1 2 2 0 0 1-.6 1.3 4.2 4.2 0 0 1-5.4 0 4.9 4.9 0 0 1-1.4-5.3 1.6 1.6 0 0 1 1-1 1.2 1.2 0 0 1 1.3.5 4.3 4.3 0 0 1 .6 2 8.6 8.6 0 0 1-.3 3 2.8 2.8 0 0 1-.4 1 13.7 13.7 0 0 0 .2-4 4 4 0 0 0-.5-1.8.6.6 0 0 0-.7-.2 1.2 1.2 0 0 0-.6.7 4.4 4.4 0 0 0 1.3 4.5 3.7 3.7 0 0 0 4.5.1 1.4 1.4 0 0 0 .5-.8.7.7 0 0 0-.4-.7 3.1 3.1 0 0 0-1.8 0 11.4 11.4 0 0 0-3.7 1.7Z"/><path fill="#ffbf9d" d="m259 295.9-.2 20s-14 2.3-14 1.9l-4-19.6Z"/><path fill="#263238" d="M243.7 312.2s10.2 7.7 15.1.8l.2 1.8 9.1 21.7c1.4 3.5-.2 5.5-1.7 6.1a3 3 0 0 1-3.1-.4c-4.7-4-21.7-19-21.6-21.2v-2c-.4-2.9.6-5.5 1.7-6Z"/><path fill="#fff" d="M266 342.8 241.5 319v1.3c0 1.3.6 1.8 1.3 2.7 2 2.4 7.4 7.9 20.3 19.2a3 3 0 0 0 2.7.6ZM246 316.8a1.8 1.8 0 0 1 .5 2.3 1.7 1.7 0 0 1-2.3.7 1.9 1.9 0 0 1-.6-2.5 1.8 1.8 0 0 1 2.5-.4" opacity=".6"/><path fill="#fff" d="M257.3 327.6c.2 0 .8-1.5 2.5-2.4s3.2-.6 3.3-.8-.4-.2-1-.3a4.6 4.6 0 0 0-2.6.6 4.7 4.7 0 0 0-1.9 1.9c-.3.6-.4 1-.3 1ZM259.6 330.9c.2 0 1-1 2.5-1.4a22.6 22.6 0 0 1 2.9-.5c0-.1-1.4-.7-3-.1s-2.5 1.9-2.4 2ZM254.7 324a27 27 0 0 1 3.2-2 25.7 25.7 0 0 1 3.7-1 7 7 0 0 0-7 3ZM258 320a2.5 2.5 0 0 0-.3-1.1 7.5 7.5 0 0 0-1.5-2.7 3.4 3.4 0 0 0-1.7-1.2 1.2 1.2 0 0 0-1.3.6 2 2 0 0 0-.2 1.3 4.2 4.2 0 0 0 4.5 3 4.9 4.9 0 0 0 4.1-3.5 1.7 1.7 0 0 0-.2-1.4 1.2 1.2 0 0 0-1.4-.3 4.1 4.1 0 0 0-1.6 1.4 8.6 8.6 0 0 0-1.4 2.6 3 3 0 0 0-.2 1 13.7 13.7 0 0 1 2-3.4 3.7 3.7 0 0 1 1.4-1.2.6.6 0 0 1 .8.2 1.2 1.2 0 0 1 0 1 4.3 4.3 0 0 1-3.5 3 3.7 3.7 0 0 1-3.9-2.5 1.4 1.4 0 0 1 0-1 .7.7 0 0 1 .8-.3 3 3 0 0 1 1.5 1 11.4 11.4 0 0 1 2 3.4Z"/><path fill="#263238" d="M272.6 197s12.4 14.6 12 26.4a44.3 44.3 0 0 1-5.5 20.2l-16.4 1s-1.5-7.8-7.4-7.8c-1.3 0-22.7 41.1-22.7 41.1l-21-9.6 17.2-44.9c3.4-8.5 6.5-12.7 11-13.9l5-12.7Z"/><path fill="#455a64" d="m269 211.1 2-.2a12.1 12.1 0 0 1 4.9.6 10.5 10.5 0 0 1 4.1 2.5c.9.9 1.3 1.6 1.4 1.5s-.1-.2-.3-.5a8 8 0 0 0-.9-1.2 9.7 9.7 0 0 0-4.2-2.7 10.9 10.9 0 0 0-5-.5 5.7 5.7 0 0 0-2 .5ZM249 208a37.4 37.4 0 0 0 .1-5.6 37.4 37.4 0 0 0-.2-5.6 36.5 36.5 0 0 0-.2 5.6 36.5 36.5 0 0 0 .2 5.7ZM263.4 196.7l.3.7a9.7 9.7 0 0 0 .9 1.7 12.5 12.5 0 0 0 4.6 4.1 12.7 12.7 0 0 0 6 1.4 10.9 10.9 0 0 0 1.9-.2 1.8 1.8 0 0 0 .7-.2s-1 .2-2.6.1a13.2 13.2 0 0 1-10.4-5.4c-1-1.3-1.3-2.2-1.4-2.2Z"/><path fill="#263238" d="M220 196.4a34 34 0 0 0-8.5 17c-1.7 10.1-1.8 23.4 1.1 28.4l8.3 1.8 7.3 7.4 10.4 56.4 23.5-3.2s2.2-49 1.5-53.7l-1-5.9s.6-7.7-5-13.2a137.3 137.3 0 0 0-13.5-11.4l.8-23.3Z"/><path fill="#455a64" d="M214.9 204.4a2.9 2.9 0 0 0 .7.3 11.6 11.6 0 0 0 2.3.5 12.4 12.4 0 0 0 7.3-1.1 9.9 9.9 0 0 0 1.8-1.3l1.4-1.3a29.9 29.9 0 0 0 2.3-2.5l1.4-1.7a3 3 0 0 0 .5-.7 24.2 24.2 0 0 0-2.1 2.2l-2.3 2.4a16.4 16.4 0 0 1-3.2 2.5 13 13 0 0 1-7.1 1.2c-1.9-.1-3-.6-3-.5ZM262.7 244.6l-.2-.8a6.5 6.5 0 0 0-.2-1 8.7 8.7 0 0 0-2.8-4.3 9.3 9.3 0 0 0-4.8-2h-.1l-22.2 41.2h.3l-21-9.7v.3l3.5-8.6 11.3-29 5-13a13.2 13.2 0 0 1 3.4-5.2 11.8 11.8 0 0 1 5.2-2.8 43.4 43.4 0 0 1 13.9-1.5 44 44 0 0 1 10.5 1.7 45 45 0 0 1 6.3 2.4l1.6.8.6.3-.6-.4-1.5-.8a42.4 42.4 0 0 0-6.3-2.5A43.6 43.6 0 0 0 254 208a43.1 43.1 0 0 0-14 1.6 12.3 12.3 0 0 0-5.3 2.9 13.6 13.6 0 0 0-3.5 5.3l-5.1 13-11.4 29-3.4 8.5v.2l.1.1 21 9.6.2.1.1-.2 22-41.2h-.1a9.2 9.2 0 0 1 4.8 2 7.9 7.9 0 0 1 2.3 2.9 9 9 0 0 1 .5 1.2 6.5 6.5 0 0 1 .2 1l.3.7Z"/><path fill="#455a64" d="m214.9 214.2 2.5-1.3a18.2 18.2 0 0 1 3-1 19.7 19.7 0 0 1 3.7-.4 20 20 0 0 1 3.8.4 17.9 17.9 0 0 1 3 1c1.6.6 2.5 1.2 2.6 1.1a2.9 2.9 0 0 0-.6-.4 8.7 8.7 0 0 0-.8-.5 10.5 10.5 0 0 0-1.1-.6 16.3 16.3 0 0 0-3-1 17.7 17.7 0 0 0-3.8-.4 18.9 18.9 0 0 0-3.9.5 15.9 15.9 0 0 0-3 1 10.5 10.5 0 0 0-1 .6 6.5 6.5 0 0 0-.8.5 2.6 2.6 0 0 0-.6.5Z"/><path d="M254.7 236.7s-6.3 26.6-13 34-8.7 9-8.7 9l-.4-1.8Z" opacity=".3"/><path fill="#ffbf9d" d="m227.2 177.6-9.4 12.7-11.2-10.3 7.2-18 4.2-7.3Z"/><path fill="#d8b4a1" d="m277.2 136.8-17.4-6.6s-4.4 7.5-12 6.9c-8-.7-7.7-6.5-7.7-6.5l-21.9 6.2s-1.4 29.5 0 34.1 5.6 10.6 5.6 10.6-4.4 10-4.5 12.9 1.1 2 1.1 2l52.7.7Z"/><path d="M230.8 167c.7-.5 1.8-.1 2.6.3 4.5 2.5 9 5 13.4 7.8 5.4 3.5 10.4 7.7 15.7 11.5 3.2 2.2 6.4 4.2 9.7 6.1l1.2 2a6.4 6.4 0 0 1-6 2.7 14 14 0 0 1-6.3-2.5c-9-5.6-15.3-14.8-24.2-20.5-2.2-1.4-4.7-2.6-6-4.9-.4-.8-.7-1.8 0-2.4Z" opacity=".3"/><path fill="#263238" d="M228.8 181a11.1 11.1 0 0 0 2.2.2 77.7 77.7 0 0 1 10.4.8 12.2 12.2 0 0 0 2.2.2 9.7 9.7 0 0 0-2.2-.5 50.6 50.6 0 0 0-5.2-.7 50 50 0 0 0-5.2-.1 10.4 10.4 0 0 0-2.2.2Z"/><path fill="#ffbf9d" d="M285 172.6s-4.8 13.7-7 17.2-3 8-10 6.2-10.3-6.4-17.9-12.6-12.4-10.8-12.4-10.8l5.3-6.5 22 10 5.3-11.5Z"/><path fill="#ffbf9d" d="m218.5 152 15.1 8 12.4 7.8s-6.2 5.5-7.9 5.4-4-2.6-4-2.6a1.8 1.8 0 0 1-1 1c-.8.3-1.7-.6-1.7-.6a5.3 5.3 0 0 1-1.7.3c-.7 0-1.6-2.8-2-4.8a3.4 3.4 0 0 1 .3-2.8l-.6-.3-.9 1.4 1.3 4.6c.7 2.6-1.8 2.2-1.8 2.2s-2.6-4.6-3-7.3 2.4-4.4 2.4-4.4-5.6-4.8-7-5.7 0-2.2 0-2.2Z"/><path fill="#ff9a6c" d="M266.9 186.3a4 4 0 0 0 .5-1.6 10 10 0 0 0-1.6-7.3 4 4 0 0 0-1-1.2 15.2 15.2 0 0 1 2 4.8 15.5 15.5 0 0 1 0 5.3Z"/><path fill="#d8b4a1" d="M276.3 136.5s9.7 2.9 11.6 13.1c1.1 6.1-1.6 26-1.6 26l-18.8-7Z"/><path fill="#263238" d="M273.1 150.1a20.1 20.1 0 0 0-.7 2.8l-1.6 6.7-1.8 6.7c-.5 1.7-.8 2.7-.7 2.8a2.3 2.3 0 0 0 .3-.7l.7-2a89.3 89.3 0 0 0 3.4-13.5 17.4 17.4 0 0 0 .4-2.8Z"/><path fill="#ffbf9d" d="M218 190s-.8-4-2.8-6.4a45.9 45.9 0 0 0-5.7-5.2h-1l-2.7-6.1-7.7-.4s1.6 15 5.3 19.5 7.5 4.3 9 3.9 5.5-5.2 5.5-5.2Z"/><path fill="#263238" d="m231.2 132.3 6 29.9a2.7 2.7 0 0 1-2.6 3.2H193a2.7 2.7 0 0 1-2.6-2.1l-6.7-30a2.6 2.6 0 0 1 2.6-3.2h42.4a2.6 2.6 0 0 1 2.6 2.2Z"/><path fill="#455a64" d="M231.2 132.3a1.4 1.4 0 0 0-.1-.4 2.6 2.6 0 0 0-.7-1 2.7 2.7 0 0 0-1.8-.8h-2.8l-17.3-.1h-22.1a2.9 2.9 0 0 0-3 2 3.5 3.5 0 0 0 .2 2l.4 1.8.8 3.7 1.7 7.5 3.5 16a4.4 4.4 0 0 0 .3 1 2.8 2.8 0 0 0 .7.9 2.9 2.9 0 0 0 2 .7h41.2a3.5 3.5 0 0 0 1.6-.2 3 3 0 0 0 1.2-1.1 2.8 2.8 0 0 0 .4-1.6 11.4 11.4 0 0 0-.2-1.5l-1.2-5.6a10123.3 10123.3 0 0 1-4.5-21.7l-.3-1.2a3.1 3.1 0 0 0 0-.3v.4l.2 1.2 1 4.6 3.3 17 1.1 5.6a13.1 13.1 0 0 1 .3 1.5 2.4 2.4 0 0 1-.4 1.4 2.5 2.5 0 0 1-1 1 3.3 3.3 0 0 1-1.6.2h-41a2.4 2.4 0 0 1-1.8-.7 2.4 2.4 0 0 1-.6-.7 4.2 4.2 0 0 1-.2-1l-3.6-15.9-1.7-7.5-.8-3.7-.4-1.8a3.1 3.1 0 0 1-.1-1.7 2.5 2.5 0 0 1 2.5-1.8h42.2a2.6 2.6 0 0 1 1.8.6 2.8 2.8 0 0 1 .8 1.2Z"/><path fill="#ffbf9d" d="m206.3 145.9-5.5 9.7c-.5 1.1-2 2.9-2.1 4s-1.3 7.3-1.2 9.5a16.6 16.6 0 0 0 1.3 5l7-1.7a11.1 11.1 0 0 0 2.5-3.6 8 8 0 0 1 2.7-3.5c.8-.7 4.3-2.9 4.7-3.7a1.7 1.7 0 0 0 0-1.7s1.6-.7 1.9-1.6 0-2.3-1.8-1.4-8.5 5.6-9.2 5 .2-1.7.2-1.7 7-6.5 7.4-7.6-.6-2.8-2.3-1.4-7.1 7-7.7 7 0-1.7 0-1.7 2.9-6 3.3-7.6.2-3.8-1.2-3Z"/><path fill="#455a64" d="M183.3 132h43.4a2.2 2.2 0 0 1 1.6.6 2 2 0 0 1 .5.7l.2 1 1.6 7.1 2.6 12.3 1.8 8.2.6 2.2.1.6a.8.8 0 0 0 .1.2v-.2l-.1-.6-.5-2.2-1.7-8.3a745 745 0 0 0-4-19.4l-.3-1a2.3 2.3 0 0 0-.6-.9 2.5 2.5 0 0 0-2-.6h-31.8l-8.4.1h-2.9l-.2.1Z"/><path fill="#ff9a6c" d="M217 184.6a2.5 2.5 0 0 0-.3-.7 8.6 8.6 0 0 0-1-1.6 9.5 9.5 0 0 0-5.1-3.6 9 9 0 0 0-2-.3l.2.1c-1-1.7-1.6-3.3-2.2-4.4a13.2 13.2 0 0 0-1-1.8 9.2 9.2 0 0 0 .8 1.9l2 4.5v.1h.2a8.8 8.8 0 0 1 1.8.3 9.8 9.8 0 0 1 5 3.4c1.1 1.2 1.4 2.2 1.5 2.1ZM208 164.5a23.7 23.7 0 0 0 4-2.2 24 24 0 0 0 3.7-2.5 22.9 22.9 0 0 0-4 2.2 24 24 0 0 0-3.7 2.5Z"/><path fill="#e0e0e0" d="M205.8 139.1a1.4 1.4 0 1 0 .8-1.8 1.5 1.5 0 0 0-.8 1.8Z"/><path fill="#fff" d="m160.5 88.5-5.1 19 19.1-6.6 8.7 14.8 9.9-17.9 19 6.6-11.9-17 15.3-13.7-19.7-7.6 4.3-19.9-17.7 9.4-10.5-13.9-4.9 16.9-17.4-3 9.4 17.2-16.4 9.3 17.9 6.4z"/><path fill="#263238" d="m160.5 88.5-1.2-.4-3.5-1.2-13.2-4.7-.3-.1.3-.1 16.3-9.4v.2l-9.5-17.1-.2-.4h.4l17.5 3-.3.2 4.9-16.9v-.4l.4.3 10.5 14-.3-.1L200 46l.5-.3-.1.6-4.3 19.9-.1-.3 4.4 1.7 15.2 5.9.4.1-.3.3-15.3 13.7v-.3l12 17 .4.6-.7-.2L193 98l.3-.1-10 17.9-.1.3-.2-.3-8.7-14.8h.2l-19 6.7h-.3l.1-.2 3.8-14 1-3.7.4-1.3-.3 1.3-1 3.6-3.7 14.2-.1-.2 19-6.7h.2v.2l8.7 14.7h-.3l10-17.9v-.1h.2l19 6.6-.2.4-12-17-.1-.2.1-.1 15.3-13.8.1.4-15.2-5.8-4.4-1.7-.2-.1v-.2l4.2-20 .4.4-17.7 9.3-.2.1-.1-.2-10.5-13.9h.4l-4.9 16.9v.2h-.2l-17.4-3 .2-.3 9.4 17.1v.2h-.1l-16.4 9.4V82l13.2 4.8 3.5 1.3 1 .4Z"/><path fill="#263238" d="M179 84.3a3 3 0 1 1-2.3-3.8 3.1 3.1 0 0 1 2.2 3.8Z"/><path fill="#263238" d="M178.7 83.2c-.2.1-1.6-2.9-2.5-6.7s-1.6-7-1.3-7.1 1.4 3 2.3 6.8 1.8 6.9 1.5 7Z"/><path fill="#263238" d="M184.9 69c.1.1-1.8 1.8-5 2.2a7.3 7.3 0 0 1-3.8-.5c-1-.4-1.4-1-1.3-1l1.5.3a9.8 9.8 0 0 0 3.5.1c2.8-.3 5-1.5 5-1.2ZM189 83.9a3 3 0 1 1-2.3-3.8 3 3 0 0 1 2.2 3.8Z"/><path fill="#263238" d="M188.7 82.8c-.2 0-1.6-2.9-2.5-6.8s-1.6-7-1.3-7 1.4 3 2.3 6.8 1.8 6.8 1.5 7Z"/><path fill="#263238" d="M185.5 71c.2.2-1.6 2-4.5 2.4s-5.1-.5-5-.8 2.3.2 4.8-.3 4.5-1.6 4.7-1.3Z"/><path fill="#fff" d="m564.8 136.4-9.2 17.9 18.8-2.2 6.2 16.2 12.3-13.6 17 10.9-5.9-20.8 17.6-4.1-16.3-13.2 10.1-16.7-19.6 2.8-5.7-16-9.8 13.8-15.7-8.4 3.7 18.6-18.4 3.2 14.9 11.6z"/><path fill="#263238" d="m564.8 136.4-1-.8-2.9-2.2-11-8.5-.3-.2h.3l18.4-3.2-.2.2c-1-5.6-2.3-11.8-3.7-18.6v-.4l.3.2 15.7 8.3h-.3l9.8-13.7.3-.3.1.4 5.7 16-.3-.2 19.7-2.8h.6l-.3.4-10.2 16.6v-.3l3.2 2.6 13 10.5.5.4-.5.1L604 145l.2-.3 6 20.8.1.6-.5-.3-17-11h.3l-12.4 13.6-.2.3-.1-.3-6.2-16.2h.2l-18.8 2.2h-.3l.1-.2 7-13.2 1.8-3.4.6-1.2-.5 1.2-1.8 3.4-6.8 13.4-.1-.2 18.7-2.3h.2v.2l6.2 16.2h-.3l12.3-13.7.1-.2.2.1 17 11-.4.2-6-20.8v-.3h.2l17.6-4.1v.4l-13.2-10.5-3.2-2.7-.2-.1.1-.2 10.2-16.7.3.4-19.7 2.8h-.2v-.2l-5.8-16h.5l-9.9 13.8v.1h-.3l-15.6-8.4.3-.3 3.6 18.6v.2h-.1l-18.4 3.1v-.2l11 8.7 2.9 2.2Z"/><path fill="#263238" d="m588.6 122.3-.8 12a2 2 0 0 1-2 1.8 2 2 0 0 1-2.1-1.8l-1.4-12a1.6 1.6 0 0 1 1.6-1.6h3a1.6 1.6 0 0 1 1.7 1.6ZM583.2 143.7a3.1 3.1 0 0 0 4 1.8 2.9 2.9 0 0 0 2-3.7 3.1 3.1 0 0 0-4-1.8 2.9 2.9 0 0 0-2 3.7Z"/></svg>