<svg xmlns="http://www.w3.org/2000/svg" viewBox="0 0 750 500"><path fill="#e0e0e0" d="M373.3 57.7h104.9v109.4H373.3z"/><path fill="#ebebeb" d="M366.2 57.7h104.9v109.4H366.2z"/><path fill="#e0e0e0" d="M471.2 167h-105V57.7h105Zm-105 0h105V57.7h-105ZM237.9 55.7v106.5H85L79.5 56.5l158.4-.8z"/><path fill="#ebebeb" d="M79.5 162V56.5h153V162z"/><path fill="#fff" d="M96.1 69.6h119.8v79.3H96.1z"/><path fill="#e0e0e0" d="M215.8 69.6h-33.5L96 70l.3-.4v79.3l-.4-.4h119.8l-.3.4.2-57.7V69.5 75l.1 15.9.2 57.8v.3h-.3l-119.8.1h-.4V69.1h.4l86.4.2H215.1l.7.3Z"/><path fill="#e0e0e0" d="M79.5 56.2a12 12 0 0 1 2.6 1.7A153.3 153.3 0 0 1 94 67.3a11.8 11.8 0 0 1 2.2 2.3c-.2.1-3.9-2.9-8.5-6.6s-8.2-6.6-8.1-6.8ZM232.4 56.5c.1.1-3.5 3.2-8 6.8s-8.4 6.5-8.6 6.3 3.5-3.2 8-6.9 8.5-6.4 8.6-6.2Z"/><path fill="#fff" d="m232.3 162-17-13.8"/><path fill="#e0e0e0" d="M215.2 148.2c.2-.2 4 2.8 8.8 6.6s8.4 7 8.3 7.2-4-2.8-8.8-6.6-8.4-7-8.3-7.2ZM79.5 162c-.1-.2 3.4-3.2 8-6.8s8.3-6.3 8.4-6.2-3.4 3.2-8 6.8-8.3 6.3-8.4 6.2ZM120.4 120.8V94.3h75.4v26.5z"/><path fill="#fff" d="M377.1 73.1h76.7v80h-76.7z"/><path fill="#e0e0e0" d="M380.3 152.9a12.5 12.5 0 0 1-1.9 2.2l-4.8 5c-1.9 2-3.8 3.5-5 4.7a12.7 12.7 0 0 1-2.3 1.9 12 12 0 0 1 2-2.2 303.7 303.7 0 0 1 9.8-9.8 11.8 11.8 0 0 1 2.2-1.8ZM457 152.7a12.3 12.3 0 0 1 2.2 1.9l5 4.8c2 1.8 3.5 3.7 4.7 5a12.2 12.2 0 0 1 1.9 2.3 12.4 12.4 0 0 1-2.2-2 209.1 209.1 0 0 1-9.8-9.8 12.3 12.3 0 0 1-1.8-2.2ZM456.8 72.6a12.5 12.5 0 0 1 2-2.2c1.1-1.3 2.9-3 4.8-5s3.7-3.6 5-4.8a12.9 12.9 0 0 1 2.2-1.8 11.5 11.5 0 0 1-1.9 2.2 303.7 303.7 0 0 1-9.8 9.8 11.8 11.8 0 0 1-2.3 1.8ZM380.1 72.8a12.5 12.5 0 0 1-2.2-2c-1.3-1.1-3-2.9-5-4.8s-3.6-3.7-4.8-5a12 12 0 0 1-1.8-2.2 12 12 0 0 1 2.2 1.9l5 4.9c2 1.9 3.5 3.7 4.7 5a12.3 12.3 0 0 1 2 2.2Z"/><path fill="#e0e0e0" d="M453.7 153v-22l-.2-57.9.3.3h-76.5l.4-.3-.1 80-.3-.3 55.4.1 15.6.1h5.5a1.2 1.2 0 0 1-.3 0h-5l-15.6.1-55.6.2h-.3V72.6h77.2v.3l-.2 58v21.5a2 2 0 0 1-.3.7Z"/><path fill="#ebebeb" d="M405.9 99.5h25.6v25.6h-25.6zM572.9 102.2a6.5 6.5 0 0 0-6.2 2.6 10.4 10.4 0 0 0-1.4 6.2 10 10 0 0 0 1.7 5.8 10.9 10.9 0 0 0 7 4 16.2 16.2 0 0 0 7.7-1 20 20 0 0 0-.6-8.5 13.5 13.5 0 0 0-2.5-5.7 9.3 9.3 0 0 0-5.7-3.4Z"/><path fill="#e0e0e0" d="M628.8 96.2a4.7 4.7 0 0 1-.3 1l-.8 2.4a334.6 334.6 0 0 0-10.5 39.6 280.6 280.6 0 0 0-4.7 40.8l-.1 2.6a3.8 3.8 0 0 1-.1 1 5.8 5.8 0 0 1 0-1V180a177 177 0 0 1 1.6-23.7 252.7 252.7 0 0 1 13.6-56.8l1-2.4a5.3 5.3 0 0 1 .3-.9ZM578.2 114.2a4.8 4.8 0 0 1 .5.7l1.3 2.1a157.2 157.2 0 0 1 10.4 19.8 209 209 0 0 1 15.8 52.6l.3 2.5a4.2 4.2 0 0 1 0 .8 5 5 0 0 1-.1-.8l-.5-2.4-1.8-8.8s-1.8-8.1-3.2-13A244 244 0 0 0 584 125l-4.2-7.8-1.2-2.2a4.6 4.6 0 0 1-.4-.8Z"/><rect width="30.2" height="2.8" x="595" y="176.3" fill="#e0e0e0" rx="1"/><path fill="#e0e0e0" d="M635 208.2c-1-11-9.7-12.6-11.3-13.7a4.6 4.6 0 0 1-1-1 7.3 7.3 0 0 1-1.6-4.6v-11.2h-21.8V189a7.3 7.3 0 0 1-1.6 4.6 5 5 0 0 1-1 1c-1.6 1.1-10.3 2.6-11.3 13.7s-4.7 36.2 1.8 44.2c6 7.4 11.9 7.9 21.7 7.9h2.6c9.8 0 15.7-.5 21.7-7.9 6.5-8 2.9-33.2 1.9-44.2Z"/><path fill="#ebebeb" d="M624.5 179.2c0 .2-6.4.4-14.4.4s-14.4-.2-14.4-.4 6.4-.3 14.4-.3 14.4.2 14.4.3ZM642 87.7a7.8 7.8 0 0 0-6.3-4.4 15.7 15.7 0 0 0-7.9 1.3 12 12 0 0 0-5.6 4 9 9 0 0 0-.6 8.2 16.2 16.2 0 0 0 5.2 6.5 28 28 0 0 0 9.2-4.1 15 15 0 0 0 5.1-4.8 7.6 7.6 0 0 0 .9-6.7ZM571.5 142.6a6.1 6.1 0 0 1 0-6 12.4 12.4 0 0 1 4.4-4.5 9.4 9.4 0 0 1 5.2-1.8 7 7 0 0 1 5.5 3.3 12.7 12.7 0 0 1 1.9 6.3c-1.8 1.8-4.6 3-6.9 4a11.7 11.7 0 0 1-5.3 1.2 6 6 0 0 1-4.8-2.5ZM601.2 129a6 6 0 0 1 0-6.1 12.3 12.3 0 0 1 4.4-4.5 9.3 9.3 0 0 1 5.2-1.8 7 7 0 0 1 5.5 3.3 12.8 12.8 0 0 1 1.9 6.3c-1.8 1.8-4.6 3-6.9 4a11.8 11.8 0 0 1-5.3 1.2 6 6 0 0 1-4.8-2.5ZM640.5 126.8a6.2 6.2 0 0 0 .8-6 12.4 12.4 0 0 0-3.8-5.1 9.4 9.4 0 0 0-5-2.6 7.1 7.1 0 0 0-6 2.6 12.9 12.9 0 0 0-2.7 6c1.6 2.1 4.1 3.7 6.3 5a12 12 0 0 0 5.2 2 6.1 6.1 0 0 0 5.2-1.9ZM599.5 111.4a5.7 5.7 0 0 0-3.7-4.7 7.4 7.4 0 0 0-5.3.9 8.7 8.7 0 0 0-4 3.6 12.6 12.6 0 0 0-1 7.8 16.3 16.3 0 0 0 2.8 6.6 16 16 0 0 0 6.4-3.5 12.7 12.7 0 0 0 3.7-4.3 10.6 10.6 0 0 0 1-6.4ZM612.7 95.7a6.4 6.4 0 0 0-6.2 2.7 10.3 10.3 0 0 0-1.4 6.2 9.8 9.8 0 0 0 1.6 5.8 10.9 10.9 0 0 0 7.1 3.9 16 16 0 0 0 7.7-1c.6-2.6 0-5.7-.6-8.4a13.4 13.4 0 0 0-2.5-5.7 9.3 9.3 0 0 0-5.7-3.5Z"/><path fill="#e0e0e0" d="M589 115.2a20.1 20.1 0 0 1-.2 3.3 68.4 68.4 0 0 0-.1 7.8 52.9 52.9 0 0 0 1 7.8 23.8 23.8 0 0 1 .6 3.2 12.3 12.3 0 0 1-1-3.2 38.7 38.7 0 0 1-1.2-7.8 46.7 46.7 0 0 1 .3-7.9 13.4 13.4 0 0 1 .6-3.2ZM595 148.1c-.3.1-1.4-2.3-3.6-4.7a19 19 0 0 0-3-2.8c-1-.6-1.6-.8-1.5-.9a3 3 0 0 1 1.7.5 13.1 13.1 0 0 1 3.3 2.7c2.3 2.5 3.2 5.2 3 5.2ZM617.5 125.5c.2 0 1 2 1.1 4.5s-.4 4.7-.6 4.6 0-2 0-4.5-.6-4.5-.5-4.6ZM625.3 119.6c.1.2-1.1 2.2-2.8 4.6s-3.1 4.3-3.3 4.2 1.1-2.2 2.8-4.6 3.1-4.3 3.3-4.2ZM621.2 119.2c-.2 0-.3-1.8-.1-4s.3-3.9.5-3.9.2 1.8.1 4-.3 3.9-.5 3.9Z"/><path fill="#fafafa" d="M587.7 227.7a21 21 0 0 1-.5-4.2c-.1-2.6-.2-6.1 0-10 .1-2 .2-3.9.5-5.6a11 11 0 0 1 1.5-4.3 6.3 6.3 0 0 1 2.2-2.2c.6-.4 1-.4 1-.4a7.6 7.6 0 0 0-2.8 2.8 11.3 11.3 0 0 0-1.3 4.2l-.4 5.5c-.2 3.9-.2 7.4-.2 10a31.4 31.4 0 0 1 0 4.2Z"/><path fill="#e0e0e0" d="M557.6 445.4a2.8 2.8 0 0 1-1.1-.2c-1.7-.7-2.8-2.8-2.8-5.3v-64.6h1V440c0 2.2 1.1 3.5 2 3.9s2.3.2 3.2-1.7L590 375l.8.8-30.2 67.2c-.7 1.6-1.9 2.5-3.1 2.5ZM677.4 445.4c-1.3 0-2.4-.9-3.1-2.5L644 375.7l.8-.8 30.2 67.2c.8 1.9 2.2 2.1 3.2 1.7s2-1.7 2-4v-64.5h1V440c0 2.5-1.1 4.6-2.8 5.3a2.7 2.7 0 0 1-1.1.2Z"/><path fill="#ebebeb" d="M537.1 259.5H692v120.3H537.1z"/><path fill="#e0e0e0" d="M683 313.8V302l-.1-32.2.2.2H545.8l.3-.2v43.9l-.3-.3 98.2.2h39H644.1l-98.4.2h-.3v-44.4h.3l137.3.1h.2v.2l-.2 32.3V313.8ZM683 365.8V354l-.1-32.2.2.2-137.3.1.3-.3v43.9l-.3-.3 98.2.2h39-10.3l-28.6.1-98.4.1h-.3V321.6h137.8v.2l-.2 32.3V365.8Z"/><path fill="#e0e0e0" d="m586.2 269.7 4.5 4.5h51.1l5.1-4.5h-60.7zM586.4 321.7l4.5 4.5H642l5.1-4.5h-60.7z"/><path fill="#263238" d="M724.6 448c0 .1-159.3.3-355.7.3S13.2 448 13.2 448s159.2-.3 355.7-.3 355.7.1 355.7.3Z"/><path fill="#fff" d="m414.6 180.3 3.8-11.3a38.5 38.5 0 1 1 8.5 10.9Z"/><path fill="#263238" d="M414.6 180.3H417.7l9.2-.3h.2l-.1-.1-.2.1a38.5 38.5 0 0 0 16.7 8.8 37.5 37.5 0 0 0 6 1 42.9 42.9 0 0 0 6.3 0 38 38 0 0 0 13.5-3.7 38.5 38.5 0 0 0 21.2-41.3 37.8 37.8 0 0 0-7.4-17l-1.4-1.8-1.7-1.8-.8-.8-.9-.8-1.8-1.5-1.9-1.4a17.5 17.5 0 0 0-1.9-1.3 34.5 34.5 0 0 0-4-2.2 38.6 38.6 0 0 0-45.7 10.2 38.5 38.5 0 0 0-7 12.2 41.9 41.9 0 0 0-1.5 6.2 52.3 52.3 0 0 0-.6 6 38.3 38.3 0 0 0 4.4 18.3v-.1l-2.8 8.5-.7 2.1-.2.8.2-.8.8-2.2 2.9-8.3a38.4 38.4 0 0 1-4.3-18.3 49.7 49.7 0 0 1 .6-6 41.8 41.8 0 0 1 1.6-6 38.4 38.4 0 0 1 35-25.6 38.7 38.7 0 0 1 17 3.5 33.6 33.6 0 0 1 4 2.2 17 17 0 0 1 2 1.2l1.8 1.4 1.8 1.5.8.8.9.8 1.6 1.7c.6.5 1 1.3 1.4 1.9a38.2 38.2 0 0 1 6.4 34 38.7 38.7 0 0 1-8 14.3 38.2 38.2 0 0 1-12 9.2 37.7 37.7 0 0 1-13.4 3.7 42.2 42.2 0 0 1-6.3 0 37 37 0 0 1-5.8-.9 38.5 38.5 0 0 1-16.7-8.6l-.5-.5.4.6v-.1l-9 .3-2.5.1Z"/><path fill="#d8b4a1" d="M467.5 147.4a9.2 9.2 0 0 0-2.2-5 8.8 8.8 0 0 0-4.5-3 7.1 7.1 0 0 0-8 3.5 7.1 7.1 0 0 0-2-2.3 7.3 7.3 0 0 0-5.5-1.2 8.8 8.8 0 0 0-4.7 2.7 9.1 9.1 0 0 0-2.5 5 11.1 11.1 0 0 0 1.3 6.8 15.8 15.8 0 0 0 5.3 5.2l8 5s4-2.9 7.7-4.9a15.8 15.8 0 0 0 5.6-5 11.2 11.2 0 0 0 1.5-6.8Z"/><path fill="#263238" d="m630 463.4 45-2.9 36 8a4.6 4.6 0 0 0 5.6-3.9 4.6 4.6 0 0 0-1.3-4c-6.9-6.6-32.2-30.7-35.5-30.3-3.8.5-47.5 0-47.5 0Z"/><path fill="#455a64" d="m716.6 464.6-39.9-34.1 2-.1a7 7 0 0 1 4.5 1.5 465 465 0 0 1 32 28.6 4.6 4.6 0 0 1 1.4 4.1Z"/><path fill="#fff" d="M662.6 440.3a2.8 2.8 0 0 0 3.7.6 2.7 2.7 0 0 0 .6-3.6 3 3 0 0 0-3.8-.6c-1 .9-1.3 3-.3 3.8" opacity=".6"/><path fill="#fff" d="M696.6 455.2c.1.2-2.2 1.3-3.3 4s-.5 5.2-.8 5.3c-.1 0-.5-.5-.7-1.6a7.2 7.2 0 0 1 .5-4 7.1 7.1 0 0 1 2.7-3.2c.9-.5 1.5-.6 1.6-.5ZM702.7 458.1c.2.2-1.2 1.7-1.7 4s-.1 4.4-.4 4.5-1.3-2-.6-4.7 2.6-4 2.7-3.8ZM688.6 449.5c.2.2-2 2.5-3.1 6.1s-1 6.7-1.3 6.7-1-3.2.3-7 4-6 4.1-5.8ZM674.9 449.3c.3 0-.7 2.6-.6 5.8s.9 5.8.6 6-1.6-2.5-1.6-6 1.4-6 1.6-5.8Z"/><path fill="#263238" d="m653.8 390.2 29 33.3s43.6-18.3 49.6-12.7l-62.6 58.6-47.4-50Z"/><path fill="#455a64" d="m669.8 469.4-4.6-5.2 61.7-54.2s4-1.4 5.5.9Z"/><path fill="#fff" d="M683.5 422.2c.3.3-1.1 2-1.7 4.3s-.2 4.4-.6 4.6-1.6-2-.8-5 2.9-4.2 3.1-3.9ZM692.6 418.8c.3.2-.5 2-.3 4.3s1.1 3.9.8 4.1-2.1-1.2-2.3-4 1.5-4.7 1.8-4.4ZM703.7 423.2c-.2.3-2-.8-2.9-3.2s0-4.5.4-4.3.3 1.8 1 3.8 1.8 3.4 1.5 3.7ZM676 415.4c.1.4-1.7 1.3-3.3 3s-2.4 3.5-2.8 3.4-.2-2.4 1.8-4.4 4.3-2.4 4.3-2Z"/><path fill="#ae7461" d="M447 301.3c.3 3.9 1.1 24.8 1.1 24.8l51.4-23.1 7 20.4S422.8 406 417.9 362l-4.1-50.9Z"/><path fill="#ae7461" d="M554.4 300c-.6-1-2.3-1.5-4.6-.8s-6.2 2.5-7.5 2.9l-9 3 16.8-9.5s5.7-2.2 4.3-4.6-5.2.1-7 .6-13.3 6.7-16.7 7-2-.5-2-.5l9.6-4.7c4.3-2 6.5-4.3 6.4-6.4s-9.8 2.7-9.8 2.7l-13.7 6.3h-4.7l3.5-4.2s5.3-1.2 6.9-5.2-1.1-4.4-1.1-4.4L506.2 293a51.4 51.4 0 0 0-7.8 13.8l6.8 18.9 2-.9 12.8-2.2 16-4.2 13-5.5s1.3-1 0-2.6-8.5 1.5-8.5 1.5l-5.5 1.4s-4.5-.2-4.2-.6 7.6-3 7.6-3l15.4-6.6a2.4 2.4 0 0 0 .6-3Z"/><path fill="#6f4439" d="m513.2 315.5 1.9-3.5c1.2-2.1 2.5-5.4 1.6-9a7 7 0 0 0-2.2-3.8l-.4-.3.4-.4 3.8-4.9c1-1.2 1.6-1.8 1.7-1.7a14.6 14.6 0 0 1-1.3 2 62.2 62.2 0 0 1-3.6 5.3v-.7a7.6 7.6 0 0 1 2.6 4.3 10.8 10.8 0 0 1-.2 5.5 16.4 16.4 0 0 1-1.8 4 11.5 11.5 0 0 1-2.5 3.2Z"/><path fill="#263238" d="M415.5 351.8s91.3-59.1 106.4-68c12-7.1 28-5.2 38.5 4.2 32 28.6 115.6 124.5 115.6 124.5l-40.3 33.9-97.7-96.7-81.3 63.7-47-36.7Z"/><path fill="#263238" d="M640 425.6s12 37.2 11.5 38c-2.4 4.1-139.8 1.8-139.8 1.8s-115.6 5-123.4 1.2-33.5-30.2-33.5-30.2l67-64.6 27.7 29.9 37.6 11.4Z"/><path fill="#455a64" d="M515.6 464.1a7 7 0 0 0 1.2-1l1.3-1.3 1.6-1.9a39.6 39.6 0 0 0 3.6-5.4 45.6 45.6 0 0 0 3.2-7.2 45 45 0 0 0 1.8-7.8 40 40 0 0 0 .4-6.4l-.2-2.5a17.1 17.1 0 0 0-.2-1.9 7.2 7.2 0 0 0-.3-1.5c-.2 0 .2 2.2.2 5.9a45.8 45.8 0 0 1-.5 6.3 48.9 48.9 0 0 1-1.8 7.7 49.5 49.5 0 0 1-3.1 7.1 46 46 0 0 1-3.4 5.4c-2.2 2.9-3.9 4.4-3.8 4.5ZM432.2 400.3a12.5 12.5 0 0 0 2 .3l5.5.9a185.3 185.3 0 0 1 40.1 11.4 10.2 10.2 0 0 0 2 .7 11.2 11.2 0 0 0-1.9-.9c-1.1-.6-2.9-1.3-5-2.2a146.4 146.4 0 0 0-35.1-9.5l-5.5-.6a10.3 10.3 0 0 0-2-.1Z"/><path fill="#ae7461" d="m279.6 284-13.7 9 3.4 77.6 4.4 85.6-42.4 8.6s-2 2.8 2.1 3.1l58.4-.4a5.7 5.7 0 0 0 5.6-5.6l6.5-87.5-5-82.6Z"/><path fill="#d8b4a1" d="M418.2 232s19.9 2.9 26.2 39.9c1.9 11.4 4.3 40.4 4.3 40.4l-35.7 5.6Z"/><path fill="#d8b4a1" d="M372.2 215.9 418 232l2.1 66 3.5 41.5 10.9.7s-6.8 52-19.2 70.4-52.5 25.2-62.6 28.6c0 0-31.3-47.9-41.5-66.6S294.7 265 294.7 265l-2.8-38.3 15.1-2.8 27.2-6Z"/><path fill="#d8b4a1" d="M264.3 263.5s5.9-33 27.6-36.9c9.4-1.6 9 74.4 9 74.4l-44.3-1.7Z"/><path fill="#263238" d="M339.5 344.3a3.5 3.5 0 0 0 .6.4l1.9 1.3c.8.5 1.8 1.2 3 1.8l4 2.3a77.5 77.5 0 0 0 11 5 114.6 114.6 0 0 0 28.8 7.3l6.4.5 5.7.2h4.6l3.5-.2 2.3-.2a2.6 2.6 0 0 0 .7-.2 3.5 3.5 0 0 0-.8 0l-2.2.1H401c-1.7 0-3.6 0-5.6-.2l-6.4-.6a121.3 121.3 0 0 1-28.6-7.2l-6-2.5-5-2.4-4.1-2.1-3-1.8-2-1a3.4 3.4 0 0 0-.7-.5ZM346.5 366.1a6.1 6.1 0 0 0 1.4.7l3.9 1.5a252 252 0 0 0 26.2 8l4 1a6.2 6.2 0 0 0 1.5.3 7.4 7.4 0 0 0-1.5-.5l-4-1.2-13-3.9c-5-1.6-9.8-3-13-4.2l-4-1.3a7 7 0 0 0-1.5-.4ZM427 259c-.1 0-2.5 17.5-5.1 39.3s-4.8 39.5-4.6 39.5 2.6-17.6 5.3-39.4 4.7-39.4 4.5-39.5ZM295.7 253.3a3.5 3.5 0 0 0 0 .9l-.1 2.4v8.9c0 7.5.5 18 1.5 29.4a533.4 533.4 0 0 0 4.8 38l.4 2.4a3.6 3.6 0 0 0 .2.8 4.5 4.5 0 0 0 0-.8l-.3-2.4-1.2-8.9a660 660 0 0 1-5.1-67.4v-2.4a4.8 4.8 0 0 0-.2-.9ZM297.8 154.2a8.7 8.7 0 0 1-6.5-16 9 9 0 0 1 5-16.4 10.8 10.8 0 0 1 14.6-11.6 12.2 12.2 0 0 1 14.7-3 8.7 8.7 0 0 1 10.1 13.2"/><path fill="#ae7461" d="m329 115.4-1.9.3a37 37 0 0 0-30.3 39.9c1.8 17.8 3.9 37.4 5.7 46.8 3.7 19.5 23.7 19 23.7 19l.7 3.8a24.4 24.4 0 0 0 28.6 19.5c12.9-2.5 20-13.9 18.1-26.8l-11.1-66.3c-2-20.5-13-38.6-33.5-36.2Z"/><path fill="#6f4439" d="M326 221.5a48 48 0 0 0 24.2-12s-3.5 15-23.3 16.8Z"/><path fill="#263238" d="M304.6 173a2.8 2.8 0 0 0 3.1 2.4 2.7 2.7 0 0 0 2.5-3 2.8 2.8 0 0 0-3.2-2.4 2.7 2.7 0 0 0-2.4 3ZM302.7 164.4c.4.3 2.2-1.7 5.2-2.2s5.5.6 5.8.2c0-.2-.4-.8-1.5-1.3a7.7 7.7 0 0 0-4.6-.6 7.5 7.5 0 0 0-4.1 2.2c-.8.8-1 1.5-.8 1.7ZM330.5 170.1a2.8 2.8 0 0 0 3.1 2.4 2.7 2.7 0 0 0 2.5-3 2.8 2.8 0 0 0-3.2-2.4 2.7 2.7 0 0 0-2.4 3ZM332.3 159.7c.4.3 2.2-1.6 5.2-2.2s5.5.6 5.7.2c.1-.2-.3-.8-1.4-1.3a7.8 7.8 0 0 0-4.7-.6 7.5 7.5 0 0 0-4.1 2.2c-.8.8-1 1.6-.8 1.7ZM325.3 183.8h-5c-.8.1-1.5 0-1.7-.4a4 4 0 0 1 0-2.4l1.3-6.2c1.7-8.9 2.7-16 2.4-16.2s-2 7.1-3.7 16l-1.1 6.2a4.5 4.5 0 0 0 .1 3 2 2 0 0 0 1.5 1 4.7 4.7 0 0 0 1.3 0c3-.5 5-.8 5-1ZM327.6 148.6c.5.7 3-.6 6-1.2s6-.6 6.1-1.5c.1-.4-.6-1-1.8-1.4a9.6 9.6 0 0 0-5-.1 9.2 9.2 0 0 0-4.3 2.2c-1 .9-1.2 1.7-1 2ZM300.4 152c.7.6 3-.6 6-1.1s5.6-.6 6-1.4c.2-.4-.3-1-1.5-1.4a9.9 9.9 0 0 0-5.2-.3 9.8 9.8 0 0 0-4.6 2.3c-.9.9-1.1 1.7-.8 1.9Z"/><path fill="#263238" d="M297 146.3s3-13.1 8.4-17c6.6-4.7 11 2.6 17.5-.6s12.6-7.6 20.5-3.6c8.6 4.4 5.8 9.1 7.8 17.7 8.2 34.7 16.3 43.5 15.2 26.6-.1-1.8 4.7-4.1 4-12-.8-10-2.5-22.2-6-28.8-2.9-5.6-7-9.1-13.9-12.5-10.8-5.5-24-3.3-32.8-.8s-24.1 15.9-20.6 31Z"/><path fill="#ae7461" d="M365 169.1a5.4 5.4 0 0 1 4.9-6.1c3.7-.3 8.1 1 9.2 8.6 2 13.4-12 12.6-12 12.2l-2-14.7Z"/><path fill="#6f4439" d="m369.3 178.3.7.3a2.4 2.4 0 0 0 1.7-.2c1.4-.8 2.2-3.2 2-5.6a7.7 7.7 0 0 0-1.2-3.3 2.7 2.7 0 0 0-2-1.5 1.2 1.2 0 0 0-1.3.8v.7s-.4-.1-.3-.7a1.4 1.4 0 0 1 .4-1 1.8 1.8 0 0 1 1.2-.5 3.3 3.3 0 0 1 2.8 1.8 8.1 8.1 0 0 1 1.3 3.6c.3 2.7-.7 5.4-2.6 6.3a2.6 2.6 0 0 1-2.2 0c-.4-.3-.6-.6-.5-.7Z"/><path fill="#263238" d="M360.2 143.3c-1.5 1.5-3.1 3-5.2 3.6s-4.6-.2-5.3-2.2c-.4-.9-.3-2-1-2.6s-2.2-.2-3.3.1c-3.8 1.1-9.1-2.4-10.8-6a3.5 3.5 0 0 1-4.4 1.8 12.7 12.7 0 0 1-3.8-2.3c-1.4-1.1-3.2-2-5-1.5-1 .4-1.7 1.1-2.7 1.2-1.8.2-3-1.7-3.6-3.4s-1.2-3.7-2.8-4.4-3.2.2-4.8.7-3.7.5-4.4-1a3.2 3.2 0 0 1 .1-2.5 8.8 8.8 0 0 1 9.7-5 11.9 11.9 0 0 1 21-6.2 12 12 0 0 1 19.8 1 8.8 8.8 0 0 1 12 10.8c2.6.9 5 3 5.6 5.7s-1.6 6-4.4 5.7a4.8 4.8 0 0 1-7.4 6.2"/><path fill="#455a64" d="M312.6 123.8a.7.7 0 0 0 0 .3c0 .1 0 .4.2.7a8.5 8.5 0 0 0 1.4 2.4 9.6 9.6 0 0 0 3.5 2.6 9 9 0 0 0 5.8.6l-.3-.3a5 5 0 0 0 .9 3.7 14.2 14.2 0 0 0 2.9 2.8 10.1 10.1 0 0 0 1.7 1.3 4.7 4.7 0 0 0 2.3.4 5 5 0 0 0 4-2.3h-.5a10.1 10.1 0 0 0 5.4 6.1 7.4 7.4 0 0 0 4.7.7 13.4 13.4 0 0 0 4.1-1.7l-.4-.1a10.7 10.7 0 0 0 4 3.5 5.7 5.7 0 0 0 4.8.5 7.5 7.5 0 0 0 4.6-6.8l-.2.2a7 7 0 0 0 4.7-.1 7.5 7.5 0 0 0 2.9-2 6.5 6.5 0 0 0 1.2-2 2.8 2.8 0 0 0 .2-.7 7.8 7.8 0 0 1-1.6 2.5 7.3 7.3 0 0 1-2.9 1.8 6.6 6.6 0 0 1-4.4.1h-.3v.2a7 7 0 0 1-4.4 6.3 5.2 5.2 0 0 1-4.4-.5 10.2 10.2 0 0 1-3.7-3.3l-.1-.3-.3.2a12.8 12.8 0 0 1-4 1.6 6.8 6.8 0 0 1-4.2-.6 9.6 9.6 0 0 1-5.2-5.8l-.2-.6-.3.5a4.4 4.4 0 0 1-3.6 2 4.2 4.2 0 0 1-2-.3 10.5 10.5 0 0 1-1.6-1.2 13.7 13.7 0 0 1-2.8-2.8 4.4 4.4 0 0 1-1-3.2l.1-.4-.3.1a8.7 8.7 0 0 1-5.5-.5 9.7 9.7 0 0 1-3.5-2.4 10.5 10.5 0 0 1-1.7-3.2Z"/><path fill="#263238" d="M326.4 193.5c0-.5 3.4-.4 6-3.2s2.2-6.5 2.7-6.5c.2 0 .6.8.6 2.3a8.4 8.4 0 0 1-2 5.5 7.3 7.3 0 0 1-5 2.5c-1.4 0-2.3-.4-2.3-.6Z"/><path fill="#875244" d="m588.2 370.7-6 17.3 25 8.2 6-20.1Z"/><path fill="#455a64" d="m611.8 383.2.2-2s30-5.3 31.4-12.8l-54.7-12.1-3.7 21.3c9.1-2.6 18.2-.9 26.8 5.6Z"/><path fill="#e0e0e0" d="m588.7 356.3-.9 5 53.4 10s2-1.4 2.2-3Z"/><path fill="#fff" d="M613 373.4c-.1 0-.4.4-.5 1.2a7.1 7.1 0 0 0 .2 3 6 6 0 0 0 1.4 2.5c.5.5.9.7 1 .6s-1.3-1.3-1.8-3.4a16.7 16.7 0 0 1-.4-4ZM609.9 373.4c-.2 0-.7 2 0 4.2s2 3.5 2.1 3.3-1-1.4-1.5-3.5-.4-4-.6-4ZM617.5 372.8c-.1 0-1 1.4-1 3.4s1 3.4 1 3.3-.3-1.5-.3-3.3.5-3.3.3-3.4Z"/><path fill="#fff" d="M615.3 380.1s-.8.6-1.4 2a14 14 0 0 0-.8 2.4l-.3 1.6a6 6 0 0 0-.1.8 1.3 1.3 0 0 0 .4 1 .8.8 0 0 0 1 0 2.3 2.3 0 0 0 .5-.8 8.6 8.6 0 0 0 .5-1.5 9 9 0 0 0 .3-2.6 4.3 4.3 0 0 0-.5-2.3v2.3a9.4 9.4 0 0 1-.3 2.4 8.4 8.4 0 0 1-.5 1.4c-.2.4-.6.7-.7.5s-.2-.6 0-1.1.2-1 .3-1.5a18 18 0 0 1 .6-2.4c.5-1.4 1-2 1-2.2Z"/><path fill="#fff" d="m615.6 380.4-.3-.3v-.1.2a8.6 8.6 0 0 0 .4 2.7 10.1 10.1 0 0 0 .8 1.8 7.7 7.7 0 0 0 .7 1 1.7 1.7 0 0 0 .4.4.8.8 0 0 0 .8 0 1 1 0 0 0 .5-1 3 3 0 0 0-.2-.8 8 8 0 0 0-.6-1.2 7.5 7.5 0 0 0-1.4-1.9c-1-.8-1.7-1-1.7-1l1.4 1.5a9 9 0 0 1 1.2 1.8 9.4 9.4 0 0 1 .5 1.2c.2.4.2.9.1.9-.3.2-.8-.7-1.2-1.2a10.7 10.7 0 0 1-.9-1.7 17.2 17.2 0 0 1-.7-2.5l-.1.1.3.1Z"/><path fill="#455a64" d="M591.8 456.9c.6-1.4 17.9-67.1 17.9-67.1l-21.1-2.7-9.1 57.7Z"/><path fill="#875244" d="m562.5 369 1.1 18.3 26.2-2.2-2.3-20.8Z"/><path fill="#455a64" d="m589 371.3-.5-2s25.6-16.4 24-23.8l-55.2 10 5 21a29.5 29.5 0 0 1 26.7-5.2Z"/><path fill="#e0e0e0" d="m557.4 355.5 1.1 5 53-11.5s1.4-2.1 1-3.6Z"/><path fill="#fff" d="M586.3 361.8v1.3a7.3 7.3 0 0 0 1.4 2.7 6 6 0 0 0 2.3 1.8l1 .2c0-.1-1.5-.8-2.8-2.5a17 17 0 0 1-2-3.5ZM583.5 363c-.2 0 .2 2 1.7 4s3.2 2.3 3.2 2.1-1.5-1-2.8-2.6-2-3.5-2-3.4ZM590.3 359.5c-.2 0-.4 1.7.5 3.5s2.1 2.8 2.2 2.6-1-1.2-1.7-2.8-.8-3.3-1-3.3Z"/><path fill="#fff" d="M591 367.2a4.1 4.1 0 0 0-.4 2.3 14.3 14.3 0 0 0 .2 2.6l.3 1.5a4.9 4.9 0 0 0 .2.8 1.2 1.2 0 0 0 .8.8.8.8 0 0 0 .9-.5 2.3 2.3 0 0 0 .2-1 8.1 8.1 0 0 0-.1-1.5 9 9 0 0 0-.8-2.5 4.4 4.4 0 0 0-1.3-2c-.1.1.4.8 1 2.2a10 10 0 0 1 .5 2.4 8.6 8.6 0 0 1 0 1.4c0 .5-.2 1-.4.8s-.4-.5-.5-1l-.3-1.5a18 18 0 0 1-.3-2.5c0-1.4.2-2.3 0-2.3Z"/><path fill="#fff" d="m591.5 367.3-.3-.2h-.2v.2a8.4 8.4 0 0 0 1.5 2.2 9.7 9.7 0 0 0 1.5 1.4 9.1 9.1 0 0 0 1 .6 1.8 1.8 0 0 0 .6.3.8.8 0 0 0 .8-.3 1 1 0 0 0 0-1.1 3.3 3.3 0 0 0-.5-.7 9 9 0 0 0-1-1 7.6 7.6 0 0 0-2-1.1c-1.2-.4-2-.4-2-.3l1.8.8a8.5 8.5 0 0 1 1.8 1.1 10 10 0 0 1 1 1c.4.3.6.7.5.8-.2.3-1-.4-1.6-.7a11 11 0 0 1-1.5-1.2 18.5 18.5 0 0 1-1.6-2v.1c0 .1.2.1.2 0Z"/><path fill="#455a64" d="M473 413.7s18.9-5.5 31.8-5.6 31.9 12.1 31.9 12.1l25.2 5.8.5-45.4 29.6-1s3.4 54.3 2 67.5c-2 21.2-14.6 21.4-32.2 21.5l-88.2.5Z"/><path fill="#263238" d="M565.3 435.6c-.2 0-.8-2-1.8-4.6s-2.2-4.4-2-4.5 1.5 1.7 2.6 4.3 1.3 4.8 1.2 4.8ZM594.3 442c-.1 0-.8-14-1.4-31.2s-1-31.2-1-31.2.9 14 1.5 31.2 1 31.2 1 31.2Z"/><path fill="#875244" d="M361.5 398c.4-3.2 5-14.9 7.6-19.4s19-4.4 21.3 0 .7 6.2.7 6.2l-1.6.6s.3 4.7-2.8 3.6c0 0-3 4.2-4.8 3.4l-5 5.5v25.8s-16.5-15.8-16.6-16.2 1.2-9.4 1.2-9.4Z"/><path fill="#875244" d="M408 385.4a33.4 33.4 0 0 0-13.8 12L377 423.7l-3.4-19.6L362 396l-.6 2c-1.5 7-3.3 17-4.4 25.2s-1.8 16.7-2.2 21.6c-.3 4 9.8 11 16.7 12s17.4-10 17.4-10l22-27Z"/><path fill="#ebebeb" d="m378.1 420.8 18.9 17.6 3.5-6.6 2-43.7s-5.6 4.2-8.3 8.4l-16 24.3Z"/><path fill="#56352e" d="m377.5 438.8-.2-7.5c-.2-4-.6-7.4-.4-7.4a8.1 8.1 0 0 1 .4 2.1 56.2 56.2 0 0 1 .5 10.6 8 8 0 0 1-.3 2.2Z"/><path fill="#263238" d="M462.5 319.6c-1.5-5.1-7-9-12.5-8.6a11.5 11.5 0 0 0-5.3-10.8 12.7 12.7 0 0 0-12.5-.5c-1.6-8.5-9.2-15.7-18.1-17s-18.6 3-23 10.6a17 17 0 0 0-15 7.1 15.4 15.4 0 0 0-.5 16c1 1.8 2.4 3.4 3.1 5.3 1.2 3 2.3 5.3 2 8.5s-.4 15.7 2.1 18l55.8 11.1 7-11.7a10 10 0 0 0 11.7-2.9 9 9 0 0 0-1-11.6 12 12 0 0 0 6.2-13.5Z"/><path fill="#875244" d="m438.5 312.4-22.5-8.7c-11.5-3.4-26.3 6.5-29.1 18.5-3.2 13.3-6.3 24.9-6.5 35.2a25 25 0 0 0 18.6 25.3l-1.9 15.7 38-10.6 8.5-41.3 6.2-13.1a18.5 18.5 0 0 0-11.3-21Z"/><path fill="#263238" d="M388.5 341.5a2.6 2.6 0 0 0 2 3 2.5 2.5 0 0 0 3-1.8 2.6 2.6 0 0 0-2-3 2.5 2.5 0 0 0-3 1.8ZM388.3 334c.3.3 2.1-.7 4.6-.3s4 1.9 4.3 1.6 0-.7-.8-1.4a6.2 6.2 0 0 0-3.4-1.7 5.7 5.7 0 0 0-3.6.6c-.9.6-1.2 1-1 1.2ZM410.4 345.6a2.6 2.6 0 0 0 2 3 2.5 2.5 0 0 0 3-1.8 2.6 2.6 0 0 0-2-3 2.5 2.5 0 0 0-3 1.8ZM413.3 337.8c.2.3 2.1-.7 4.5-.4s4 2 4.4 1.7c.1-.1-.1-.7-.8-1.4a6.2 6.2 0 0 0-3.4-1.7 5.8 5.8 0 0 0-3.7.7c-.8.4-1.1 1-1 1ZM402.1 355.5a22.3 22.3 0 0 0-4.3-1.5c-.7-.1-1.3-.4-1.4-.8s.3-1 .8-1.5l2.7-3.8c1-1.4 6.1-9.3 6.3-10.1-.3-.2-3.6 4.1-7.4 9.5l-2.6 3.9a2.6 2.6 0 0 0-.7 2 1.8 1.8 0 0 0 1 1 5.6 5.6 0 0 0 1.2.4 22.7 22.7 0 0 0 4.4.9Z"/><path fill="#56352e" d="M398.8 382.7a49.5 49.5 0 0 0 27.6-2.5s-8.8 13.6-28.1 8.2Z"/><path fill="#263238" d="M413.8 330.7c.1 1 2.6.7 5.4 1.4s5 2 5.4 1.2c.2-.4-.1-1.2-1-2.2a7.9 7.9 0 0 0-3.9-2.3 7 7 0 0 0-4.3.3c-1.1.5-1.7 1.2-1.6 1.6ZM389 325.2c.3.9 2.4.6 4.8 1.2s4.1 1.6 4.8 1c.3-.4.1-1.2-.5-2.2a6.2 6.2 0 0 0-3.6-2.2 6.2 6.2 0 0 0-4.2.5c-1 .6-1.4 1.3-1.3 1.7Z"/><path fill="#875244" d="M442.8 347.4s13.5-2.3 11 10-14 7-14 6.7l3-16.7Z"/><path fill="#56352e" d="m444.4 360.3.5.4a2 2 0 0 0 1.5.4c1.4-.2 2.9-2 3.4-4.3a7.3 7.3 0 0 0 0-3.1 2.5 2.5 0 0 0-1.2-2 1 1 0 0 0-1.3.3c-.3.3-.2.5-.3.5s-.2-.2 0-.7a1.4 1.4 0 0 1 .6-.7 1.6 1.6 0 0 1 1.2 0 3 3 0 0 1 1.8 2.4 7.6 7.6 0 0 1 0 3.5c-.6 2.5-2.3 4.5-4.1 4.7a2.3 2.3 0 0 1-1.9-.8c-.3-.3-.3-.6-.2-.6Z"/><path fill="#263238" d="M402.6 361.7c0 .1.5.5 1.5.7a6 6 0 0 0 6.5-3.6c.3-1 .3-1.6.2-1.7s-.3.6-.8 1.4a6.5 6.5 0 0 1-5.8 3.3c-1 0-1.6-.2-1.6 0ZM387.4 306.9a10.8 10.8 0 0 0 19.5 8.1 14.3 14.3 0 0 0 23.1 4.9c-1 3.7-1.3 7.8.6 11.2s6.3 5.4 9.7 3.7a15.1 15.1 0 0 0-4.3 13c.4 2.5 2 5.1 4.4 5s3.6-2.3 4.6-4.4c3.8-8.3 7.7-17.6 5.2-26.4-2.2-7.6-8.9-13.3-16.3-16.3s-15.4-3.6-23.3-4.1"/><path fill="#875244" d="M356.4 446.8s-15.8-6.3-19.4-8-10.5 2.3-10.7 4.2a3.3 3.3 0 0 0 1.3 3s-1 4 1 5.5c0 0-1.6 4.6 1 6.2a5.7 5.7 0 0 0 1.4 6.2c2.9 3 17.7 2.6 21 2.3a87.5 87.5 0 0 1 11 0l3-18.6Z"/><path fill="#ebebeb" d="M394.4 433.7c17.2 20.4 34.2 31 55.3 34.6 11.8 2 45.5 2.4 45.5 2.4 7-23.4 7-43-1.6-61.6l-34.4-1.2s-16.2-22-23.5-23.3c0 0-39 10.8-39.8 15.2-2.6 14.1-1.5 33.9-1.5 33.9Z"/><path fill="#875244" d="M430.4 397.7A17.3 17.3 0 0 0 400 406v.5c-2.4 17.6-3.5 39.2-3.5 39.2l-39.6 1.4-1.8 19s51.7 9.7 61.6 3.4 9.2-22 12-36.2c2.3-12.4 4.3-20.9 4.6-29 .1-2-1-4.3-2.8-6.5Z"/><path fill="#263238" d="M464.8 439.1a30.6 30.6 0 0 1-.5-4 216.6 216.6 0 0 0-3-19.6 27.6 27.6 0 0 1-.8-4 22 22 0 0 1 1.2 4 126.7 126.7 0 0 1 3 19.6 21.4 21.4 0 0 1 .1 4Z"/><path fill="#ebebeb" d="M431.3 397.6c-9.4-11.7-29.3-6.8-31.5 8l-.5 2.9c-2.4 17.6-3 25.2-3 25.2l34.2 5.6c2.4-12.5 3.8-22.5 4.1-30.5.1-2.2-1.6-9-3.3-11.2Z"/><path fill="#263238" d="M419.7 391.3h-1a20.8 20.8 0 0 0-3.3 0 14.7 14.7 0 0 0-2.2.4 16.8 16.8 0 0 0-8.2 4.3 17 17 0 0 0-2.4 3 20.2 20.2 0 0 0-1.9 3.8 19.3 19.3 0 0 0-.5 2.1l-.4 2.3-.7 4.9-2.6 21.6-.2-.3 5 .8 29.3 4.8-.2.2a304.7 304.7 0 0 0 4.1-28.3l.1-1.6a2.3 2.3 0 0 1 0-.6 4.9 4.9 0 0 1 0 .6v1.7a268.9 268.9 0 0 1-3.8 28.3v.2h-.2l-29.4-4.7-4.9-.8h-.3v-.3l2.7-21.6.7-4.9.4-2.3a17 17 0 0 1 .6-2.2 20.8 20.8 0 0 1 1.9-3.8 17 17 0 0 1 2.5-3 15 15 0 0 1 5.7-3.6 14.4 14.4 0 0 1 2.7-.7 14.7 14.7 0 0 1 2.3-.4 17.6 17.6 0 0 1 3.2 0h.8ZM388.6 407.2l.4 4.2a67.3 67.3 0 0 0 4.8 19.5c1 2.4 1.7 3.8 1.6 3.9a5.3 5.3 0 0 1-.5-1l-1.4-2.8a56.4 56.4 0 0 1-4.9-19.6v-3a5.2 5.2 0 0 1 0-1.2Z"/><path fill="#56352e" d="M337.4 439.5a1.5 1.5 0 0 1 .4 0l1 .4 4 1.5 13.7 5.2 9.7-.4 21.4-.5 6.4-.1h1.8a2.4 2.4 0 0 1 .6 0 2.3 2.3 0 0 1-.6 0l-1.8.1-6.4.3-21.3.7-9.8.3h-.1l-13.7-5.3-3.9-1.6-1-.4a1.5 1.5 0 0 1-.4-.2ZM406 458.5a53.7 53.7 0 0 0-4-7 55 55 0 0 0-5.6-6 8.2 8.2 0 0 1 2 1.3 25.6 25.6 0 0 1 4 4.3 26.3 26.3 0 0 1 3 5.1 7.7 7.7 0 0 1 .6 2.3Z"/><path fill="#455a64" d="m460 314.8.3.3a9.4 9.4 0 0 1 .8 1 11.9 11.9 0 0 1 1.2 11 12.2 12.2 0 0 1-5.6 6.1l-.2.2v-.4c1.9 2.3 3 5 2.8 7.7a7.4 7.4 0 0 1-1.2 3.4 11.5 11.5 0 0 1-2.1 2.3 7.4 7.4 0 0 1-4 2 3.3 3.3 0 0 1-1.7-.2 8.5 8.5 0 0 0 1.6 0 7.6 7.6 0 0 0 3.8-2 8.7 8.7 0 0 0 3.1-5.5c.2-2.4-.9-5-2.7-7.3l-.2-.2.3-.2.3-.1a11.9 11.9 0 0 0 5.3-6 11.5 11.5 0 0 0 .7-6.4 12.2 12.2 0 0 0-1.6-4.2l-.9-1.5Z"/><path fill="#875244" d="M276.6 449.8c.1.3 35 9 37.2 11.4 2.4 2.6-.7 5-.7 5h-62.5l1-14Z"/><path fill="#875244" d="M224.5 260.8s17.2 9 22.6 25.8c4 12.6 7.8 67.3 8.6 77.3s22.7 94 22.7 94l-25.4 5-23.3-84.4-8.2-50Z"/><path fill="#e0e0e0" d="m220.3 331.5 34-11.7s-2.8-36-12.2-49.5c-6.4-9.3-22.6-14-22.6-14Z"/><path fill="#e0e0e0" d="M165.6 238.9c-.9 0-45.3 15.1-45.3 15.1l.6 69.9-9.9 78.9 26.4 21.3s96.2-27.4 97.2-28-12.1-28-12.1-29l.1-15.2a47.8 47.8 0 0 0 7.4-16.7c2.3-10-.2-26-.2-26l-10.3-53-6.5-1.8Z"/><path fill="#263238" d="M228.2 299.1a1.6 1.6 0 0 1 .1.4l.5 1.3.6 2.1.7 2.8.7 3.4.5 3.9a73.1 73.1 0 0 1 .4 9 71.6 71.6 0 0 1-.9 9.1l-.8 4-.9 3.3-.8 2.7c-.2.8-.6 1.5-.8 2l-.5 1.2a1.8 1.8 0 0 1-.2.5 1.8 1.8 0 0 1 .1-.5l.5-1.3.6-2 .8-2.7c.2-1 .6-2.1.8-3.4l.8-3.8a69.1 69.1 0 0 0 .5-18l-.5-4a68.4 68.4 0 0 0-1.8-8.2l-.3-1.3a1.8 1.8 0 0 1-.1-.5Z"/><path fill="#875244" d="M118.4 255.2s-14.3 2.5-19.8 17-19.4 75.5-21 81.9-3 19.1 4.2 24.6c8 6.1 32.1 14.3 32.1 14.3l8.9-15.6-14.5-17.8s13.1-37.3 13.9-43.3-3.8-61.1-3.8-61.1Z"/><path fill="#56352e" d="M152.3 377.4a3.7 3.7 0 0 1-.5-.1l-1.5-.3-5.6-1.3-22 2-.1-.2-3.9-4.6-10.5-12.9a15.2 15.2 0 0 0-12.9-3 16.8 16.8 0 0 0-3.6 1.2l-1.3.7.3-.2.9-.6a15 15 0 0 1 3.7-1.4 15.2 15.2 0 0 1 6-.2 15.5 15.5 0 0 1 7.2 3.2l10.6 12.8 3.8 4.7h-.2l22-1.8 5.6 1.4 1.5.4a2 2 0 0 1 .5.2Z"/><path fill="#e0e0e0" d="m82 310.7 38.4 13.2 8-11.4-6.7-58.5s-15.6 1.8-22.5 16.6C92 286.2 82 310.7 82 310.7Z"/><path fill="#263238" d="M82 310.7a3.6 3.6 0 0 1 .7.2l2.1.7 7.6 2.4 25.1 8.4 4.3 1.5-.3.1 5.4-22.7 2.2-9.3v.7l-.4 1.8-1.5 6.8c-1.2 5.8-3.1 13.8-5.3 22.8v.3l-.3-.1-4.2-1.4-25-8.5-7.6-2.7-2-.7a4.5 4.5 0 0 1-.8-.3ZM173.3 129a8.1 8.1 0 0 0-10-6 10.4 10.4 0 0 0-14.1-2.6c-2.1 1.5-3.6 3.7-5.6 5.3s-4.3 2.3-6.4 3.6-4 3.4-4 5.8c0 2.7 2.4 5 5 5.7s5.5.3 8.2-.2a2.8 2.8 0 0 0-.4 3.7 5.7 5.7 0 0 0 3.4 2.2 12.4 12.4 0 0 0 12.3-3.8l4.7-4.4a8.2 8.2 0 0 0 7-9.4Z"/><path fill="#d8b4a1" d="M162.6 147.3a2.7 2.7 0 0 1-3.6.3 3.6 3.6 0 0 1-1.2-3.5 5.7 5.7 0 0 1 2-3.3 13.6 13.6 0 0 1 3.5-2 25.5 25.5 0 0 1 5.8-1.7 5 5 0 0 1 2.2 0 2 2 0 0 1 1.4 1.4c.2 1-.6 1.9-1.3 2.6a63.9 63.9 0 0 1-9 7"/><path fill="#263238" d="M159.6 147.1c-5.4-4.8-17.3-2.7-19.7 1a9.2 9.2 0 0 0-11.5 5.2l-12.5 4.2c-2 .7-4.3 1.4-5.8 3s-2 4.5-.4 6.1c-4.4 1.7-5.4 8.5-1.8 11.4a4.8 4.8 0 0 0 1.5 6.9 48.5 48.5 0 0 0-6.7 15c-.6 2.2-1 4.7 0 6.7s4 3.3 5.8 1.7a5.7 5.7 0 0 0 .4 6.2c-2.2.2-2.5 3.6-.8 5s4 1.4 6.2 1 4.4-.6 6.3.4a2 2 0 0 1-.5 1.5c-3.4 3.4-3.9 8.6-.7 12.2l.8 1c1.4 1.6 4.7 2.9 6.7 3.7 5.1 2 8 1.2 13.5 1.4-1.1 3.7 8.5 10.5 17.8 1.8 20.7 3.3 35.4 3.8 56.3 1.6 3-.3 6.5-1 7.5-3.9a7.4 7.4 0 0 0 6.6-3 21.5 21.5 0 0 0 3.3-6.7A13 13 0 0 0 240 218a16.1 16.1 0 0 0 4.8-12c3.2-2 6.6-8.8 4-13.3a56.8 56.8 0 0 0-8-16.8c3.4-1.1 4.2-5.9 2.4-9s-5-4.7-8.2-6.2c2.6.4 4.5-3 3.6-5.6s-3.3-4-5.7-5.1a47.8 47.8 0 0 0-11.1-3.6c-1.7-4.4-8-8.9-12.4-10.4-17.8-6.2-29.9-7-49.8 11.1"/><path fill="#875244" d="m157.6 166.1 28.6-13.2c11.4-3 21.4 10 24 21.5a209 209 0 0 1 5.9 38.4 29.9 29.9 0 0 1-16.7 27.2s1.8 11.9 1.8 11.9c-.5 9.3-10.2 10.6-10.2 10.6-26.5 3.6-30-11.3-30-11.3l-8.2-73.7c-.7-3.5 1.3-10.5 4.8-11.4Z"/><path fill="#263238" d="M194.7 206.2c0-.2 1.6-.7 4.2-1.5.7-.2 1.3-.4 1.4-1a3.4 3.4 0 0 0-.8-1.9l-2.9-4.8c-4-7-7-12.7-6.7-12.9s3.8 5.4 7.8 12.3l2.7 5a4 4 0 0 1 .8 2.6 1.8 1.8 0 0 1-1 1.2 4.6 4.6 0 0 1-1.1.3l-4.4.7Z"/><path fill="#56352e" d="M199.4 240s-10.7.5-24.9-5.2c0 0 6 11.8 25.7 11Z"/><path fill="#263238" d="M179.8 177.5c-.1.7-2.9.8-6 1.7s-5.4 2.1-6 1.6c-.2-.3.2-1 1-2a10.8 10.8 0 0 1 9.2-2.4c1.2.2 1.9.7 1.8 1ZM205.7 174.1c-.4.7-2.4.4-4.6.7s-4 1-4.5.5c-.3-.3 0-1 .6-1.7a6.7 6.7 0 0 1 7.4-1c.9.6 1.2 1.2 1 1.5Z"/><path fill="#263238" d="M220 182.8a13.5 13.5 0 0 0-4.2-8c-1.3-1.1-2.8-1.9-4-3.1-2.5-2.6-2.7-6.7-4-10a14.8 14.8 0 0 0-10.2-9c-3.8-.8-8-.2-11.6-1.6-2.7-1-5-3.2-7.7-4.1-5.3-1.8-11 1.5-15.4 5-.5 3.9 2.3 7 5 9.8a13.7 13.7 0 0 0 10.7 4.3c3-.1 6.5-1.2 8.9.7s2 6.2 4.2 8.6c3.1 3.4 9 1.3 13.2 3.2 3.3 1.4 5 5 6.9 8s5 6 8.4 5.4a40 40 0 0 0-.2-9.2Z"/><path fill="#263238" d="M171.3 158a69.5 69.5 0 0 0-25.6 7.7c-2.3 1.2-4.8 2.8-6 5.2-1 2-.8 4.5-.5 6.9 1 7.3 4.9 15.9 8.4 22.3l9.8 4.4c6.8-2.4 2.2-14.2 1.2-20.2a14.5 14.5 0 0 0 7-13.7 16 16 0 0 0 5.7-12.6Z"/><path fill="#875244" d="M157 202c-.8-4.2-6-4.4-9.3-1.9-1.9 1.4-3 4-2.3 8.3 2 11.8 13.4 7.3 13.3 7s-.9-8.6-1.7-13.5Z"/><path fill="#56352e" d="m154.3 211.6-.5.4a2.1 2.1 0 0 1-1.5.3c-1.3-.3-2.7-2-3.1-4.2a6.8 6.8 0 0 1 0-3 2.4 2.4 0 0 1 1.3-1.8 1 1 0 0 1 1.3.3l.3.6s.2-.2 0-.7a1.3 1.3 0 0 0-.6-.7 1.6 1.6 0 0 0-1.2 0 2.9 2.9 0 0 0-1.8 2.1 7 7 0 0 0-.2 3.4c.5 2.4 2.1 4.4 3.9 4.6a2.2 2.2 0 0 0 1.8-.7c.4-.3.4-.6.3-.6Z"/><path fill="#455a64" d="M153.6 216.7a1 1 0 0 1 0 .2 1.7 1.7 0 0 1-.1.4 2.7 2.7 0 0 1-1.2 1.4 7.1 7.1 0 0 1-2.9 1 9.9 9.9 0 0 1-2 0 7 7 0 0 1-2-.4 6 6 0 0 1-8.9 4.8h.2a2.5 2.5 0 0 1-1.4 1.1 3.3 3.3 0 0 1-2 0 3.1 3.1 0 0 1-1.6-1 4.1 4.1 0 0 1-.8-1.9 6.1 6.1 0 0 1 .8-4 18.3 18.3 0 0 1 2.8-3.5v.3a4.2 4.2 0 0 1-2.2-2.6 6.1 6.1 0 0 1 0-3.5 9.5 9.5 0 0 1 1.7-3.2 30.5 30.5 0 0 1 2.5-2.7v.3a4.5 4.5 0 0 1-1.5-3.3 6.4 6.4 0 0 1 1-3.7c1.2-2 3.3-3.4 5.2-4.7v.3a8 8 0 0 1 7.4-10.7l-.2.2a6.8 6.8 0 0 1 1-6 6.7 6.7 0 0 1 4.7-3l-.1.2a6.7 6.7 0 0 1 2-5.4 6.5 6.5 0 0 1 4.8-2v.2a6.5 6.5 0 0 1 .5-3.2 8.4 8.4 0 0 1 1.6-2.4 6.8 6.8 0 0 1 3.8-2.2h.9a4.7 4.7 0 0 1 .7 0 7 7 0 0 1 1.2.1l.7.2.2.1h-.2l-.7-.2a9 9 0 0 0-1.2-.1 6.5 6.5 0 0 0-.7 0h-.8a6.7 6.7 0 0 0-3.8 2.2 8.4 8.4 0 0 0-1.5 2.3 6.4 6.4 0 0 0-.6 3v.2a6.3 6.3 0 0 0-4.7 1.9 6.4 6.4 0 0 0-2 5.2v.1h-.1a6.4 6.4 0 0 0-4.5 3 6.5 6.5 0 0 0-.9 5.6v.2h-.2a7.6 7.6 0 0 0-7 10.2v.2h-.1c-2 1.3-4 2.6-5.2 4.6a6.1 6.1 0 0 0-.9 3.5 4 4 0 0 0 1.4 3l.2.1-.2.1a14 14 0 0 0-4.1 5.8 5.8 5.8 0 0 0 0 3.3 3.8 3.8 0 0 0 2 2.4h.2l-.2.2a17.7 17.7 0 0 0-2.7 3.4 5.8 5.8 0 0 0-.8 3.8 3.2 3.2 0 0 0 2.2 2.8 2.6 2.6 0 0 0 3-1.1l.1-.2.2.1a5.8 5.8 0 0 0 6-.1 5.9 5.9 0 0 0 2.6-4.5v-.1a6.5 6.5 0 0 0 2.2.4 9.7 9.7 0 0 0 1.8 0 7.2 7.2 0 0 0 2.9-1 2.7 2.7 0 0 0 1.2-1.3c.3-.2.3-.4.3-.4ZM107 209.1a4 4 0 0 1-.4-.6 6.2 6.2 0 0 1-1-2.3 6 6 0 0 1 .6-3.8 6.3 6.3 0 0 1 4-3.2v.1a8.1 8.1 0 0 1 .3-6 8 8 0 0 1 2-2.7 18 18 0 0 1 3-1.9 6.8 6.8 0 0 0 1.5-1 4 4 0 0 0 1-1.7c.4-1.2.4-2.5.9-3.8a7.3 7.3 0 0 1 6.8-4.4l-.2.2a9.5 9.5 0 0 1 9.3-12l-.2.3a8.4 8.4 0 0 1 12-9.3h-.1a11.4 11.4 0 0 1 3.8-3 17.7 17.7 0 0 1 4.2-1.4 20 20 0 0 1 7-.3 14.2 14.2 0 0 1 4.4 1.2 6.9 6.9 0 0 1 1 .6l.3.2-1.4-.7a14.7 14.7 0 0 0-4.3-1.2 20.3 20.3 0 0 0-7 .4 17 17 0 0 0-4 1.5 11.2 11.2 0 0 0-3.8 3h-.2a8 8 0 0 0-11.5 9v.2h-.2a9.2 9.2 0 0 0-9 11.5l.1.2h-.2a6.9 6.9 0 0 0-6.5 4.2c-.5 1.2-.5 2.6-1 3.8a4.3 4.3 0 0 1-1 1.7 6.4 6.4 0 0 1-1.5 1.2 18.4 18.4 0 0 0-3 1.8 7.6 7.6 0 0 0-2 2.6 8 8 0 0 0-.4 5.8v.1h-.1a6.1 6.1 0 0 0-4 3 5.9 5.9 0 0 0-.5 3.8 6.2 6.2 0 0 0 .8 2.3l.6.6ZM220.6 199.5a1.2 1.2 0 0 1-.1-1 2.2 2.2 0 0 1 .5-1 4 4 0 0 1 1.4-1 7 7 0 0 0 1.8-1 3.7 3.7 0 0 0 1-2 7 7 0 0 0 0-2.7c0-1-.3-2-.5-3.1-.2-2.3.5-4.6.8-7.2a10 10 0 0 0-.3-3.9 4.8 4.8 0 0 0-2.5-3 18 18 0 0 0-4.3-1 7.4 7.4 0 0 1-2.3-.8 4.8 4.8 0 0 1-1.7-1.7 22.5 22.5 0 0 1-1.8-4.5 7.7 7.7 0 0 0-1-2.1 3.6 3.6 0 0 0-2-1.4 13.1 13.1 0 0 0-3.3 0 5.3 5.3 0 0 1-1.7-.3 3.3 3.3 0 0 1-1.4-1 11.4 11.4 0 0 1-1.6-2.8 7.4 7.4 0 0 0-1.8-2.5 7.2 7.2 0 0 0-5.4-1.9 7.4 7.4 0 0 0-4.8 2.4l-.2.2v-.2a11.3 11.3 0 0 0-7.8-5.3 10.3 10.3 0 0 0-4 .1 9.6 9.6 0 0 0-3.1 1.3 8.4 8.4 0 0 0-3.1 3.6 9.3 9.3 0 0 0-.5 1.1l-.1.3a.4.4 0 0 1 0 .1v-.4a7.4 7.4 0 0 1 .5-1.2 8.4 8.4 0 0 1 3-3.7 9.6 9.6 0 0 1 3.3-1.3 10.6 10.6 0 0 1 4-.1 11.6 11.6 0 0 1 8 5.3h-.3a7.7 7.7 0 0 1 5-2.5 7.5 7.5 0 0 1 5.7 2 7.7 7.7 0 0 1 2 2.6 11.5 11.5 0 0 0 1.4 2.8 3.5 3.5 0 0 0 3 1 13 13 0 0 1 3.3.1 4 4 0 0 1 2.2 1.5 8 8 0 0 1 1 2.2 23.7 23.7 0 0 0 1.8 4.5 4.4 4.4 0 0 0 1.6 1.6 6.8 6.8 0 0 0 2.1.7 17.8 17.8 0 0 1 4.4 1 4.7 4.7 0 0 1 1.7 1.4 6 6 0 0 1 1 1.9 10.3 10.3 0 0 1 .3 4c-.3 2.6-1 5-.8 7 .1 1.2.4 2.2.6 3.2a7.4 7.4 0 0 1 0 2.8 3.9 3.9 0 0 1-1.2 2.1 6.7 6.7 0 0 1-1.9 1 4 4 0 0 0-1.3.9 2.1 2.1 0 0 0-.6 1 1.5 1.5 0 0 0 0 1Z"/><path fill="#455a64" d="M241.5 178.6a1 1 0 0 1-.1-.2l-.4-.6-1.6-2.5-2.4-3.8a10.5 10.5 0 0 0-4.4-3.8c-1-.4-2.2-.6-3.4-1a7 7 0 0 1-1.7-.7 4 4 0 0 1-1.4-1.4c-.7-1.2-.9-2.6-1.4-3.8a3.4 3.4 0 0 0-1.4-1.5 6.5 6.5 0 0 0-2-.6 12.2 12.2 0 0 1-2.2-.6 3.7 3.7 0 0 1-1.8-1.5 17.3 17.3 0 0 1-1.5-4.5 5.6 5.6 0 0 0-1-2 3 3 0 0 0-2-1c-1.6-.2-3.2.5-5 .5a4.2 4.2 0 0 1-2.4-1 10.8 10.8 0 0 1-1.7-1.9 23.8 23.8 0 0 0-1.5-1.9 4.5 4.5 0 0 0-2-1.2c-1.4-.5-3 0-4.4.5a10.5 10.5 0 0 1-4.5.9 12 12 0 0 1-4-1.3 20.6 20.6 0 0 0-3.8-1.6 12.3 12.3 0 0 0-7 .6 13.2 13.2 0 0 0-4.9 3.3 14.8 14.8 0 0 0-2.4 3.7 16.6 16.6 0 0 0-1 2.7l-.2.7a.8.8 0 0 1 0 .2 2.1 2.1 0 0 1 0-.2v-.8a14.6 14.6 0 0 1 1-2.7 14.2 14.2 0 0 1 2.4-3.8 13.1 13.1 0 0 1 5-3.3 12.5 12.5 0 0 1 7.2-.7 20.6 20.6 0 0 1 3.8 1.6 12 12 0 0 0 4 1.3 10.2 10.2 0 0 0 4.3-1 15.1 15.1 0 0 1 2.3-.6 5 5 0 0 1 2.4.1 5 5 0 0 1 2 1.4 23.8 23.8 0 0 1 1.6 2 10.5 10.5 0 0 0 1.7 1.7 3.9 3.9 0 0 0 2.2.9c1.6 0 3.2-.7 5-.5a3.4 3.4 0 0 1 2.2 1.1 6.3 6.3 0 0 1 1.1 2.2 17.4 17.4 0 0 0 1.5 4.4 3.4 3.4 0 0 0 1.6 1.4 11.9 11.9 0 0 0 2.2.6 6.7 6.7 0 0 1 2 .7 3.7 3.7 0 0 1 1.5 1.6c.6 1.3.8 2.7 1.5 3.8a4.8 4.8 0 0 0 2.9 2l3.3 1a10.8 10.8 0 0 1 4.5 4l2.4 3.8 1.5 2.4.4.7a.8.8 0 0 1 0 .2Z"/><path fill="#455a64" d="m227.5 167.7.2-.1a1.3 1.3 0 0 1 .7 0 2.6 2.6 0 0 1 1.4 2 6 6 0 0 1 0 1.8 7.6 7.6 0 0 0-.2 2.1 4.6 4.6 0 0 0 1.1 2.1l1.8 2.1a3.4 3.4 0 0 1 .6 3c-.2 1-.9 2-1.1 3a4.4 4.4 0 0 0 .7 3.2l2 3.1a5.4 5.4 0 0 1 .5 2 5 5 0 0 1-.2 2 22.6 22.6 0 0 1-1.9 3.5 5.5 5.5 0 0 0-.8 4 17.4 17.4 0 0 0 1.9 3.7 6.1 6.1 0 0 1 .7 2.2 5 5 0 0 1-.3 2.2 18.5 18.5 0 0 1-2.2 3.6 9.8 9.8 0 0 0-1.7 3.6 27.6 27.6 0 0 1-.8 3.8 4.3 4.3 0 0 1-1 1.6 5.4 5.4 0 0 1-1.6 1 15.3 15.3 0 0 0-1.6.8 6 6 0 0 0-1.2 1.1 12.5 12.5 0 0 0-1.7 2.8l-1.3 2.7a8.2 8.2 0 0 1-3.8 3.5 8.9 8.9 0 0 1-3.8.8 7.6 7.6 0 0 1-2.4-.5 5.4 5.4 0 0 1-.8-.3 9 9 0 0 0 3.2.6 8.9 8.9 0 0 0 3.7-.8 8 8 0 0 0 3.7-3.5l1.3-2.7a12.2 12.2 0 0 1 1.7-2.8 6.1 6.1 0 0 1 1.3-1.1 14.2 14.2 0 0 1 1.6-.8 5.4 5.4 0 0 0 1.5-1 4 4 0 0 0 1-1.5 30 30 0 0 0 .7-3.8 9.8 9.8 0 0 1 1.7-3.7 18 18 0 0 0 2.2-3.6 4.7 4.7 0 0 0 .3-2 6.1 6.1 0 0 0-.7-2 17.8 17.8 0 0 1-1.9-3.9 4.5 4.5 0 0 1 0-2.2 8.7 8.7 0 0 1 .8-2 23 23 0 0 0 1.9-3.5 4.6 4.6 0 0 0 .2-1.9 5.3 5.3 0 0 0-.6-1.8l-1.9-3.1a4.8 4.8 0 0 1-.7-3.4c.3-1.2 1-2.1 1.2-3a3.1 3.1 0 0 0-.6-2.8l-1.8-2a4.8 4.8 0 0 1-1-2.3 7.4 7.4 0 0 1 0-2.1 6.3 6.3 0 0 0 .1-1.8 2.5 2.5 0 0 0-1.3-1.9 1.4 1.4 0 0 0-.8 0Z"/><path fill="#e0e0e0" d="M146.4 215.5a6.3 6.3 0 0 0-1.7 1.3 8.1 8.1 0 0 0-2.3 5 8.5 8.5 0 0 0 .5 3.8 9.6 9.6 0 0 0 2.6 3.7 9.8 9.8 0 0 0 4.4 2.2 9 9 0 0 0 5.3-.4 9.8 9.8 0 0 0 4.2-3.3 8.7 8.7 0 0 0 1.7-4.7 9.2 9.2 0 0 0-3.2-7.5 8.3 8.3 0 0 0-3-1.4 8.4 8.4 0 0 0-2.3-.4 5.2 5.2 0 0 0-1.5.2 2.1 2.1 0 0 0-.5.3 6.8 6.8 0 0 1 2-.3 9 9 0 0 1 5 1.8 9 9 0 0 1 3 7.3 8.3 8.3 0 0 1-1.5 4.4 9.3 9.3 0 0 1-4 3.1 8.5 8.5 0 0 1-5 .5 9.4 9.4 0 0 1-4.3-2.1 9.3 9.3 0 0 1-2.5-3.5 8.3 8.3 0 0 1-.6-3.7 8 8 0 0 1 2.2-5l1.5-1.3Z"/><path fill="#263238" d="M184.5 195.8a2.6 2.6 0 0 1-2 3 2.5 2.5 0 0 1-3-1.9 2.6 2.6 0 0 1 2-3 2.5 2.5 0 0 1 3 1.9ZM208.4 191.8a2.6 2.6 0 0 1-2 3 2.5 2.5 0 0 1-3-1.9 2.6 2.6 0 0 1 2-3 2.5 2.5 0 0 1 3 2ZM206.4 183c-.2.5-2.3-.6-4.8 0s-4 2.4-4.3 2c-.2 0 0-.7.6-1.6a5.8 5.8 0 0 1 7.3-1.6c.9.5 1.3 1.1 1.2 1.3ZM182.5 187.9c-.3.4-2.6-1-5.6-.6s-5 2.2-5.5 1.9c-.2-.2.1-1 1-1.8a7.5 7.5 0 0 1 4.3-2 7.2 7.2 0 0 1 4.5 1c1 .6 1.5 1.3 1.3 1.5ZM234.7 129.9a15.3 15.3 0 0 0-3.4-1.5 11.4 11.4 0 0 0-4.3-.3 10.6 10.6 0 0 0-5.3 2.2l-.2.2-.2-.3a9.8 9.8 0 0 0-6.4-3.6 10 10 0 0 0-8.2 2.2l-.3.3-.2-.3a16 16 0 0 0-10.9-5 15.3 15.3 0 0 0-9 2.4 16 16 0 0 0-5.8 6.4v.2h-.3a24.1 24.1 0 0 0-9.2 3.5 24.8 24.8 0 0 0-5.9 5 33.5 33.5 0 0 0-3.7 5.8s0-.1.1-.4l.5-1.3a23.4 23.4 0 0 1 2.8-4.3 24.8 24.8 0 0 1 5.9-5.3 24.3 24.3 0 0 1 9.5-3.7l-.3.2a16.6 16.6 0 0 1 6-6.7 16 16 0 0 1 9.5-2.6 16.7 16.7 0 0 1 11.4 5.3h-.6a10.7 10.7 0 0 1 8.8-2.4 10.4 10.4 0 0 1 6.8 4h-.4a11 11 0 0 1 5.5-2.3 11.5 11.5 0 0 1 4.5.5 10.2 10.2 0 0 1 2.6 1.2 3.8 3.8 0 0 1 .7.6Z"/><path fill="#263238" d="M154 134.8a7 7 0 0 1-2.8 1 10.7 10.7 0 0 1-8-1.9 10 10 0 0 1-3.5-4.7 11 11 0 0 1-.2-6.9 10.1 10.1 0 0 1 4.9-5.8 10.8 10.8 0 0 1 8.1-1l-.4.2a7.7 7.7 0 0 1 4.1-3 8 8 0 0 1 4.4-.1 7.1 7.1 0 0 1 3.6 2.3 8 8 0 0 1 1.5 7.6l-.6-.5a6.5 6.5 0 0 1 6.1-.8 6.8 6.8 0 0 1 4 3.9 8.7 8.7 0 0 1-1.3 8.7 10.7 10.7 0 0 1-5 3.3 9.8 9.8 0 0 1-1.5.4 2 2 0 0 1-.5 0s.7-.1 2-.6a11 11 0 0 0 4.6-3.4 8.2 8.2 0 0 0 1.2-8.2 6 6 0 0 0-3.7-3.4 5.8 5.8 0 0 0-5.4.7l-1 .8.4-1.2a7.2 7.2 0 0 0-1.4-6.8 6.4 6.4 0 0 0-3.2-2 7.3 7.3 0 0 0-4 0 6.9 6.9 0 0 0-3.6 2.8l-.2.3-.3-.1a10 10 0 0 0-7.5.9 9.4 9.4 0 0 0-4.6 5.3 10.4 10.4 0 0 0 0 6.4 9.4 9.4 0 0 0 3.2 4.6 10.6 10.6 0 0 0 7.8 2 16.7 16.7 0 0 0 2.9-.8ZM101.3 172l-.3-.4a8 8 0 0 1-.6-1.3 12.7 12.7 0 0 1 2.6-13 13.2 13.2 0 0 1 9.6-4.2l-.3.2a15.7 15.7 0 0 1 7-8.4 15.3 15.3 0 0 1 8.3-1.9 15.7 15.7 0 0 1 7.3 2.3h-.4a17.4 17.4 0 0 1 8.2-3 17.9 17.9 0 0 1 6.8.6 16 16 0 0 1 4 1.7 6 6 0 0 1 1.2 1 23 23 0 0 0-5.3-2.3 18 18 0 0 0-6.6-.4 17 17 0 0 0-7.9 3l-.2.1-.2-.1a15 15 0 0 0-7-2 14.5 14.5 0 0 0-7.7 1.7 15.2 15.2 0 0 0-6.8 8v.3h-.4a12.7 12.7 0 0 0-9.1 3.8 12.3 12.3 0 0 0-3.3 7.2 13.3 13.3 0 0 0 .5 5.3c.3 1.1.7 1.7.6 1.8Z"/><path fill="#56352e" d="M183.4 213.4a3.8 3.8 0 0 1 3.5-3.4 4 4 0 0 1 3.3 1.7 4.9 4.9 0 0 1 .7 3.7v.3a4.3 4.3 0 0 1-4.6 1.7 4 4 0 0 1-2.9-4Z"/><path fill="#263238" d="M193 215.4c0-.4-3 .2-5.5-2s-2.8-5.2-3.2-5c-.2 0-.4.7-.2 2a7.3 7.3 0 0 0 2.5 4.3 6.4 6.4 0 0 0 4.6 1.5c1.2-.1 1.9-.6 1.8-.8ZM199.3 405.6c1.2-.8 61.9-16.6 80.7-21.1s29-9 40.4 3.6 7.2 16.4.3 32.5-34.3 29.4-51.1 33-57.7.5-57.7.5l-.3-27Z"/><path fill="#455a64" d="m206.8 433.4.2-.2.5-.6 2-2.2c1.7-2 4.3-4.7 7.6-8a133.8 133.8 0 0 1 12.2-11 75.9 75.9 0 0 1 17.2-10.5 90.2 90.2 0 0 1 19.4-5.6c6.1-1 11.7-1.6 16.3-2s8.5-.5 11.1-.6l3-.1h1a.7.7 0 0 1-.2 0h-.8l-3 .2-11 .8c-4.7.4-10.3 1-16.3 2a91.6 91.6 0 0 0-19.3 5.7 76.5 76.5 0 0 0-17.1 10.3 137.4 137.4 0 0 0-12.3 11c-3.3 3.2-5.9 6-7.7 8l-2 2.1-.6.6Z"/><path fill="#263238" d="M56.1 423.3s21.1 27.3 38.4 33.4 108.5-.9 108.5-.9l-4.9-43.5-75-3.7Z"/><path fill="#ae7461" d="m208.9 340.3 13.5 25.7 27.6 9.6-6.7 11c-.5.5-24.2 2-31 .6s-24.8-38.8-24.8-38.8Z"/><path fill="#d8b4a1" d="M217 341.5s-7-10.4-10-15.3c-4.2-7.3-14.5-9.2-14.5-9.2l8 32.9Z"/><path fill="#263238" d="M130.9 251.7a10.6 10.6 0 0 1-.8 20.2c-3.6 1-8.2-.6-9-4.2a9.8 9.8 0 0 1-3.6 9 7.9 7.9 0 0 1-9.6 0c-2.5-2.3-3-6.8-.5-9.2a12.5 12.5 0 0 1-11-.9 10.5 10.5 0 0 1-5-9.7 9.1 9.1 0 0 1 7.3-7.9 10 10 0 0 1 15.3-12.7 9.9 9.9 0 0 1 19.2 2 8 8 0 0 1 0 15.7"/><path fill="#263238" d="M123.1 266.9c-3-4.9-2.3-6.4-.5-10.1a9 9 0 0 1 8.8-5.1c-.7-4.3-1.6-7.2 1.4-10.4 3.3-3.3 5.2-3.4 9.9-4a17.2 17.2 0 0 1 10.4-5.9 16 16 0 0 1 11.5 2.6c4.9-1.7 10.6-.3 13.8 3.3 1.5 1.7 2.5 3.9 4.4 5a11.3 11.3 0 0 1 3.7 3.3c1.6 2.5 1.7 4 1.6 7.2-.1 2.3-.8 5.7 1 7.2 6.8 5.6 2.5 15.7.4 17l-35.8 26.7a10.4 10.4 0 0 1-9.3 5.1 8.9 8.9 0 0 1-8-6 13 13 0 0 1-10.2-13.7c-6.2-2.9-9-12.8-3-22.2Z"/><path fill="#ae7461" d="M181.4 255.8c-4-9.7-17.6-16-26.8-11.7l-17.8 10.2a15.7 15.7 0 0 0-6.7 19l6.9 10.2 15.8 46.8-1.4 1s9.8 20.4 26.8 13.3c15.3-6.5 5.2-24.3 5.2-24.3L179 308s15.2-6.2 12.3-23.6c-1.5-8.6-5.6-17.8-10-28.6Z"/><path fill="#263238" d="M182.2 273.5a2.2 2.2 0 0 1-1.2 2.8 2 2 0 0 1-2.8-1.2 2.2 2.2 0 0 1 1.3-2.8 2 2 0 0 1 2.7 1.2ZM181.7 266c-.2.2-2-.4-3.9.2s-3.1 2.2-3.4 2 0-.6.4-1.3a5.2 5.2 0 0 1 2.7-1.9 4.9 4.9 0 0 1 3.1.1c.8.3 1.1.7 1 .8ZM163.7 279a2.2 2.2 0 0 1-1.2 2.8 2 2 0 0 1-2.8-1.2 2.2 2.2 0 0 1 1.3-2.8 2 2 0 0 1 2.7 1.2ZM161.2 272.3c-.1.3-1.8-.4-3.8.3s-3.2 2.1-3.5 2c0-.2 0-.7.5-1.4a5.2 5.2 0 0 1 2.6-1.9 4.9 4.9 0 0 1 3.2.1c.8.3 1.1.7 1 .9ZM172.9 285.7a20.2 20.2 0 0 1 3.4-1.8c.5-.2 1-.5 1-.9s-.3-.7-.8-1.2l-2.7-2.8c-1-1-6.4-7-6.6-7.6.2-.2 3.5 3 7.4 7l2.7 3c.3.3.9.8.8 1.6a1.5 1.5 0 0 1-.7 1 4.9 4.9 0 0 1-1 .4 19 19 0 0 1-3.5 1.3Z"/><path fill="#6f4439" d="M179.2 308a42 42 0 0 1-23.5 1.4s9.3 10 24.9 3Z"/><path fill="#263238" d="M159.9 266.4c0 .8-2 1-4.3 1.9s-4 2.3-4.4 1.7c-.3-.3-.1-1 .5-2a6.6 6.6 0 0 1 3-2.4 5.9 5.9 0 0 1 3.7-.3c1 .3 1.5.7 1.5 1.1ZM180 258.6c-.2.8-2 .8-4 1.6s-3.2 1.9-3.8 1.4c-.3-.2-.3-1 .1-1.8a5.3 5.3 0 0 1 6.3-2.4c.9.3 1.4.8 1.3 1.2Z"/><path fill="#ae7461" d="M137.8 284.2s-11.7-.2-8 9.7 12.7 4.1 12.6 3.8l-4.7-13.5Z"/><path fill="#6f4439" d="M138 295.1s0 .2-.3.4a1.8 1.8 0 0 1-1.2.6c-1.2 0-2.7-1.4-3.4-3.1a6.4 6.4 0 0 1-.5-2.7 2.1 2.1 0 0 1 .8-1.8.9.9 0 0 1 1.2 0l.3.5s.1-.2-.1-.6a1.1 1.1 0 0 0-.6-.5 1.4 1.4 0 0 0-1 .1 2.6 2.6 0 0 0-1.2 2.2 6.4 6.4 0 0 0 .5 3c.8 2 2.5 3.5 4 3.4a1.9 1.9 0 0 0 1.5-.9c.2-.3.1-.6 0-.6Z"/><path fill="#263238" d="M173.3 291s-.4.5-1.2.7a5 5 0 0 1-5.9-2.2c-.4-.7-.5-1.3-.4-1.3l.8 1a5.8 5.8 0 0 0 2.4 1.7 5.7 5.7 0 0 0 3 .3c.7-.2 1.2-.3 1.3-.2Z"/><path fill="#6f4439" d="M157 286a3.4 3.4 0 0 1 1.6-1.5 7.2 7.2 0 0 1 1.7-.4 2.5 2.5 0 0 1 1.7.5 1.5 1.5 0 0 1 .5 1.5 2 2 0 0 1-.9 1 6.8 6.8 0 0 1-2.1 1 2.4 2.4 0 0 1-2-.3 1.4 1.4 0 0 1-.5-1.8ZM181.5 278.6a3.4 3.4 0 0 1 1.6-1.6 7.7 7.7 0 0 1 1.7-.4 2.5 2.5 0 0 1 1.7.5 1.5 1.5 0 0 1 .5 1.5 2 2 0 0 1-.9 1 6.6 6.6 0 0 1-2.1 1 2.5 2.5 0 0 1-2-.3 1.5 1.5 0 0 1-.5-1.7Z" opacity=".4"/><path fill="#263238" d="M126.8 273a13.4 13.4 0 0 1 .4-8.3c1-2.7.6-7.4 2.3-9.7 3.8-4.9 10.4-7 15.8-9.9s13.4-8.9 19.5-8l17.8 11c.2 2.8-3.3 5.3-5.2 4.7a5.4 5.4 0 0 1-3.6-4.5c-2.5 2.3-9 2.3-11-.5-1.8 5-5.9 7.6-11 6.2a8.3 8.3 0 0 1-9.2 10.7 9.8 9.8 0 0 1 3.7 6.3c.2 2.5-1.4 5.3-3.8 5.7a11.4 11.4 0 0 1 4.2 4.1 6.5 6.5 0 0 1 .4 5.7 4.6 4.6 0 0 1-4.7 2.8 8 8 0 0 1-4-2.6l-5.5-5.4a20 20 0 0 1-6-8.2Z"/><path fill="#455a64" d="m120.6 273.4.3-1.9a8.5 8.5 0 0 1 2.4-4.5v-.2a9.8 9.8 0 0 1-1.3-7.6 9.5 9.5 0 0 1 6.3-6.8 9.7 9.7 0 0 1 3-.4h.5l-.1-.4a10 10 0 0 1 .1-8.2 9.4 9.4 0 0 1 4.9-4.6 10.4 10.4 0 0 1 4.4-.9l1.7.1a1.7 1.7 0 0 0-.4 0 7 7 0 0 0-1.3-.3 10 10 0 0 0-4.6.7 9.7 9.7 0 0 0-5.1 4.8 10.4 10.4 0 0 0-.3 8.6l.3-.4a9.8 9.8 0 0 0-3.2.5 10 10 0 0 0-6.7 7.2 10.2 10.2 0 0 0 1.5 7.9v-.3a8.4 8.4 0 0 0-2.4 4.8 8 8 0 0 0 0 1.4 1.6 1.6 0 0 0 0 .5Z"/><path fill="#d8b4a1" d="m135.4 314.6 11.3-2.1c18.5 13 34.5 11.3 34.4 1.5l11.3 3s14.8 39 16 46.3S219 400 219 400s-39 16.3-49.4 16-46.4-4.5-46.4-4.5l12.6-74.3Z"/><path fill="#263238" d="m218.9 400 21.4-5.5-27 18.8-13.9-5.7 19.5-7.6z"/><path fill="#ae7461" d="M252.8 388.4c9-2.2 17.3 5.5 15.5 14.4l-.3.9c-2.8 10.5-24.4 30.2-28.8 33s-35.1 13.7-35.1 13.7l-10.2-32S232.4 401 241 394a30 30 0 0 1 11.8-5.6Z"/><path fill="#ae7461" d="M283 430.8c-3-3.5-7-3-11.4-2-3.6 1-10.3 2.2-14 2.9a34.5 34.5 0 0 1-22.7-5.3l-14 18.2a29.9 29.9 0 0 1 18 5.9c3.3 2.5 6.2 6.4 10.4 6.3a14 14 0 0 0 8.5-3c2.7-2.5 7.5-3.6 11.2-3.7 8.8-.4 11.4-2.2 14.2-5.9s1.6-11.3-.3-13.4Z"/><path fill="#ae7461" d="M130.1 407.2c1.4 0 35.5-12.7 47.6-13.6 8.6-.6 20.2 8.2 34.5 17 17.3 10.7 35.4 21.7 35 22.1l-12.5 18.6-48.4-23.7-16.8 2.1c-12.8 0-39.4-22.5-39.4-22.5Z"/><path fill="#6f4439" d="m130.1 407.2.4-.1 1.2-.5 4.7-1.5 17-5.5 11.9-3.8a52.4 52.4 0 0 1 14-2.2h2a12.3 12.3 0 0 1 1.9.4 33.8 33.8 0 0 1 3.6 1.3 89.5 89.5 0 0 1 10.8 5.7l3.6 2.2 7.2 4.7 24.4 15.6a63 63 0 0 0 9.7 6.2 21 21 0 0 0 10.1 1.8l4.8-.2a18.4 18.4 0 0 0 4.5-.5c2.8-.6 5.3-1.5 7.7-2a30.3 30.3 0 0 1 6.4-1.2 8.9 8.9 0 0 1 4.7.9 6 6 0 0 1 2.2 2 6.4 6.4 0 0 1 .5 1s-.2-.3-.6-1a6 6 0 0 0-2.2-2 8.7 8.7 0 0 0-4.6-.7 31 31 0 0 0-6.3 1.2c-2.4.6-5 1.5-7.8 2.1a18.9 18.9 0 0 1-4.5.5c-1.5.1-3.1.3-4.8.3a32.1 32.1 0 0 1-5.1-.2 15.8 15.8 0 0 1-5.2-1.6 62 62 0 0 1-9.7-6.3L208 408.3l-7.2-4.6-3.5-2.2c-1.1-.8-2.4-1.4-3.6-2.1a85.3 85.3 0 0 0-7.2-3.6 31.6 31.6 0 0 0-3.6-1.3 11 11 0 0 0-1.8-.4h-1.9a52.7 52.7 0 0 0-14 2l-11.8 3.8-17.1 5.4-4.7 1.4-1.2.4Z"/><path fill="#875244" d="m176.6 384.1-20.2 1s17.5-1.4 18.2-2.4a1.9 1.9 0 0 0 .2-.6 2.5 2.5 0 0 0-1.9-2.9 42.8 42.8 0 0 0-9.8-1.2c-5-.2-9.2 0-9.2 0s-7.2-2.6-9.2-2.4l-25 2-9.9 12.7s19.6 14.4 32.5 14.2a18.5 18.5 0 0 0 7.6-1.9c3.2-1.8 11.3-5.6 11.3-5.6s15.6-2.3 15.5-6.7c0 0 3.2-1.4 3.1-3.5a2.8 2.8 0 0 0-3.2-2.7Z"/><path fill="#56352e" d="M119.8 377.6h.6l1.8-.2 6.9-.7 10.8-.9 3.3-.3 1.7-.1a8.1 8.1 0 0 1 1.8.2 66.5 66.5 0 0 1 7.2 2c5.9.3 12.5-.4 19.5 1.5a2.8 2.8 0 0 1 1.7 2.2 2.3 2.3 0 0 1-.3 1.5 1.3 1.3 0 0 1-.7.4l-.7.1a321.3 321.3 0 0 1-17 2v-.4l13.7-.7 4.2-.2h2a4.5 4.5 0 0 1 2 .2 2.8 2.8 0 0 1 1.6 1.5 3.9 3.9 0 0 1 .2 1 2.5 2.5 0 0 1-.2 1.1 4.4 4.4 0 0 1-1.4 1.6 9 9 0 0 1-1.7 1l.1-.1a2.8 2.8 0 0 1-1 2.1 9.3 9.3 0 0 1-2 1.3 26.5 26.5 0 0 1-4.3 1.6 66.2 66.2 0 0 1-8.4 1.9c-3.7 1.8-7.3 3.5-10.7 5.3a15.3 15.3 0 0 1-5.2 1.9 20.7 20.7 0 0 1-2.7.3l-2.6-.1a38.2 38.2 0 0 1-9.3-2.5 74 74 0 0 1-7.5-3.4 112.1 112.1 0 0 1-10-6 70 70 0 0 1-2.6-1.8l-.6-.5-.2-.1.2.1.7.4 2.5 1.8a126 126 0 0 0 10 5.8 73 73 0 0 0 7.5 3.4 38 38 0 0 0 9.3 2.4h2.5a22.3 22.3 0 0 0 2.7-.3 15 15 0 0 0 5.1-1.9c3.4-1.8 7-3.5 10.7-5.3a65 65 0 0 0 8.4-1.9 25.8 25.8 0 0 0 4.2-1.6 9.2 9.2 0 0 0 1.8-1.1 2.5 2.5 0 0 0 1-1.8v-.2h.1a5.8 5.8 0 0 0 2.9-2.5 1.8 1.8 0 0 0 .1-.8 3.5 3.5 0 0 0-.2-1 2.2 2.2 0 0 0-1.2-1.2 3.9 3.9 0 0 0-1.9-.2h-2l-4.1.3-13.7.6v-.4c3.9-.4 7.7-.7 11.4-1.2 1.9-.2 3.7-.4 5.5-.8l.6-.2a1.1 1.1 0 0 0 .5-.2 1.9 1.9 0 0 0 .2-1.2 2.4 2.4 0 0 0-1.4-1.8 26 26 0 0 0-5-1l-5-.4h-9.4a69.5 69.5 0 0 0-7.2-2.2 8 8 0 0 0-1.7-.2l-1.7.1-3.3.3-10.8.8-6.9.5-1.8.2h-.6Z"/><path fill="#56352e" d="M177 390.5a4 4 0 0 1-1 .1l-2.6.2-8.7.8-8.7.7-2.6.1a3.8 3.8 0 0 1-1 0 3.9 3.9 0 0 1 1-.2l2.6-.2 8.6-.9 8.7-.6h2.7a3.7 3.7 0 0 1 1 0Z"/><path fill="#6f4439" d="M161.8 396.7a50 50 0 0 1-6.7 1.3l-4.7.9a10 10 0 0 1-1.9.4 23.9 23.9 0 0 1 6.5-1.8l4.8-.7a8.3 8.3 0 0 1 2-.1Z"/><path fill="#ae7461" d="m168.3 370.4-28 5.3-1.5-27.9-7.5-24.6c.3-.3-12.5 8.7-12.9 24-.3 10-.1 21.7 0 26.2s.8 14 4.3 17 9.6 4.8 15.6 3.8a148.7 148.7 0 0 0 16-4l19.2-6.2Z"/><path fill="#6f4439" d="m168.3 370.4.4 1 1 2.5 3.9 10.1v.1h-.2l-16.2 5.2a184.6 184.6 0 0 1-15.9 4.4 33 33 0 0 1-6 .9 21.6 21.6 0 0 1-6.4-.8 16.2 16.2 0 0 1-6-2.9 7.7 7.7 0 0 1-2.1-2.7 20 20 0 0 1-1.1-3.2 45 45 0 0 1-1.1-7c-.5-4.8-.5-9.7-.6-14.7s0-10.1.2-15.3a29.6 29.6 0 0 1 3.7-14.2 36.5 36.5 0 0 1 6.6-8.5l1.3-1.2.6-.6.4-.2.2-.2h.1c.2-.2.4.5.2.4l.1-.3 7.6 24.6 1.4 27.9-.1-.2 20.6-3.7 5.6-1 1.4-.3h.5-.5l-1.5.3-5.5 1.1-20.6 4h-.2v-.3l-1.5-27.8-7.5-24.6.1-.1a.6.6 0 0 1 0 .2c.1.1.2 0 .2 0l-.1.1-.2.1-.3.3-.7.6a35.2 35.2 0 0 0-3.6 3.7 35.2 35.2 0 0 0-4 5.8 29.2 29.2 0 0 0-3.8 14 494.6 494.6 0 0 0 .4 30 46.1 46.1 0 0 0 1 7c.7 2 1.5 4.4 3.2 5.7a16 16 0 0 0 5.8 2.9 21.1 21.1 0 0 0 6.3.7 31.8 31.8 0 0 0 6-.9 133.8 133.8 0 0 0 15.8-4.3l16.2-5v.1l-3.8-10.1-1-2.6-.3-1Z"/><path fill="#d8b4a1" d="m114.3 359.6 29.5-.3-6.6-45s-9.2-.6-14.3 9.8c-6 12.5-8.6 35.4-8.6 35.4Z"/><path fill="#6f4439" d="m140.8 375.7-1.5.5a10.3 10.3 0 0 0-3.3 2 10.2 10.2 0 0 0-2.2 3.1 12.5 12.5 0 0 1-.7 1.5 3.6 3.6 0 0 1 .4-1.6 9 9 0 0 1 5.7-5.3 3.4 3.4 0 0 1 1.6-.2Z"/><path fill="#ae7461" d="M168 370.3a78.6 78.6 0 0 1 6.6-5.9c2.4-1.6 5.5-6.6 5.5-6.6a3.3 3.3 0 0 1 1.4 3c-.4 2-3.6 7.1-3.3 8a4.8 4.8 0 0 0 3.2 1.8c.5 0 12.8-2.6 13.6-1.6s.8 2.8-.5 3.3-8.1 1-8 1.9 9 .4 9.3 1.5a2 2 0 0 1-1.3 2.8c-1.4.2-8 .5-7.9 1.3s7.1.1 7.5.8-.4 2.1-1.2 2.2-9.3.6-9.5 1.7 4.6 2.3 5.2 2.8-.7 2-2.8 1.4c-.6-.2-15.4-3.8-17.1-4.5s-.7-14-.7-14Z"/><path fill="#263238" d="M114.3 359.6a1.9 1.9 0 0 1 .6-.1h1.5l5.7-.2 18.7-.2h2.6l-.2.2V336a2.2 2.2 0 0 1 0-.5 1.7 1.7 0 0 1 0 .5V342.3l.3 17v.2H140.7l-18.8.1H114.7a2.8 2.8 0 0 1-.4 0Z"/><path fill="#ae7461" d="M243 387.1c.2 0 .7.1 2.1 2.6a15.9 15.9 0 0 0 4.7 4.4s7 3.6 9.4 4.6 4.6 1.7 4.7-.6-1.2-3.5-5.5-5l-2-2 2.1-.7 7.2 1.7s3.3 6.9 4.7 6.8 1.6-1.1 1.6-1.1l1-.7-3.2-10-8.7-5.7-11.1-5.8-8.3-2.3-5.9 14Z"/><path fill="#6f4439" d="M258.9 379.9a5 5 0 0 1 .7.4l2.2 1.4 8.1 5.2 3.2 10v.2l-.1.1-1 .8.1-.2a1.5 1.5 0 0 1-.8 1.1 2.1 2.1 0 0 1-.7.2 1.2 1.2 0 0 1-.8-.1 7 7 0 0 1-1.7-2 44.8 44.8 0 0 1-2.7-4.8l.2.1-7.3-1.7h.2l-1.8.6-.3.1v-.4l2 2v-.1a24.3 24.3 0 0 1 3.1 1.3 4.4 4.4 0 0 1 2.4 2.5 4.3 4.3 0 0 1 .1 1.8 2.2 2.2 0 0 1-.3.8 1.7 1.7 0 0 1-.8.6 3.4 3.4 0 0 1-1.7 0 12.2 12.2 0 0 1-1.5-.6c-3.7-1.7-7.1-3.5-10.1-5a17 17 0 0 1-4.1-3.6c-.6-.6-1-1.4-1.3-2a8.3 8.3 0 0 0-.6-.8c-.3-.3-.5-.5-.8-.5h-6.5a2.5 2.5 0 0 1-.5 0 2 2 0 0 1 .5 0h1.4l5.2-.3a1.4 1.4 0 0 1 1 .6 8.5 8.5 0 0 1 .6.9l1.3 2a16.8 16.8 0 0 0 4 3.5l10.2 4.9a5.1 5.1 0 0 0 2.9.5c.8-.2.8-1.6.6-2.5a4 4 0 0 0-2.1-2.2 27.3 27.3 0 0 0-3.2-1.3l-2-2-.3-.3.4-.1.4-.1 1.8-.6h.1l7.3 1.7.2.1a42 42 0 0 0 2.6 4.8 6.5 6.5 0 0 0 1.6 1.8c.2.2.6 0 1 0a1 1 0 0 0 .5-.8v-.1h.1l1-.8v.3a3029 3029 0 0 0-3.2-10h.1l-8-5.3-2.1-1.4a6.8 6.8 0 0 1-.8-.7Z"/><path fill="#455a64" d="M256.8 447c-2.7-3.8-7.4-5.6-12-6s-9 .6-13.6 1-9.3.4-13.4-1.6c-2.6-1.3-4.7-3.3-7.3-4.5-4-1.8-12-.3-18.8 5a49.9 49.9 0 0 1-15-4.5l-3.2 23.4c18.6 2.5 42 5.6 62.7 10.7 2.9.7 10 2.5 13 2.4s7.6.3 9.4-2c2-2.5 2.4-6.3 2.5-9.4a26.6 26.6 0 0 0-4.3-14.6Z"/><path fill="#263238" d="M103 390.3s-38.7-26.3-51.1-8.2-1 36.2 4.2 41.2c10.7 10.1 48.2 26 70.6 32.4s50.7 5.8 50.7 5.8l11.2-23.2s-72.2-36.7-85.6-48Z"/><path fill="#455a64" d="M142.7 459.1a3.7 3.7 0 0 1-.7 0l-2-.5a410.4 410.4 0 0 1-31.4-8c-4.6-1.4-9-3-12.9-4.6-1.9-.8-3.8-1.5-5.4-2.3l-4.8-2.3-3.8-2-2.8-1.6-1.7-1a4 4 0 0 1-.6-.4 3 3 0 0 1 .6.3l1.8 1 2.9 1.5 3.8 2a92 92 0 0 0 10.2 4.4c4 1.6 8.3 3.1 12.9 4.6 9.2 3 17.8 5 24 6.5l7.3 1.7 2 .5a5.8 5.8 0 0 1 .6.2Z"/></svg>