<svg xmlns="http://www.w3.org/2000/svg" viewBox="0 0 750 500"><path fill="#ebebeb" d="M39 201s-10.7 4.8 2.7 27.5S64 262.4 64 262.4s2.5 5.3-2 6.4-14.8.1-16.5 5.9c-1.8 6 2.7 11.2 11.6 15.5s27.9 14.4 29.6 15.4 3.5 3.3.6 4.6-25.6 5-23.2 15.5 29 18.6 32 19.5 3.6 2 3.5 3.7-7.9 2-14.2 3.4-13.6 4-11.7 10 18.1 17.9 55.8 19.3l17.6-.4 8.6-15.4c16.5-34 13.7-53.8 9.3-58.3s-10.1.5-14.3 5.5-8.3 11.5-9.7 11-2.1-1.9-1.6-4.9 6.1-30.2-2.1-37.3-22.1 11-24.7 13-3.8-.7-3.8-2.6 0-23.5.4-33.4-2-16.3-8.1-17.5c-6-1.2-9.8 8.2-13 11.7s-6.6-1.2-6.6-1.2-5.6-13.1-19.4-35.7-23.2-15-23.2-15"/><path fill="#e0e0e0" d="M148.2 385.2c-10-16.6-27.4-46.3-42.4-71.8S77 264.9 67 248.3l-11.8-19.7-3.2-5.3-.8-1.4-.3-.5a5 5 0 0 1 .3.5l.9 1.3 3.3 5.3 12 19.6 38.8 65c15 25.4 32.3 55.2 42.3 71.9M59.7 276.7a5.3 5.3 0 0 1 1.2.2l3.4 1c2.7.8 6.6 2 10.8 3.6l10.7 3.7 3.2 1.2a5.3 5.3 0 0 1 1.2.4 6.5 6.5 0 0 1-1.3-.2l-3.3-1-10.8-3.7-10.7-3.7-3.3-1a5.6 5.6 0 0 1-1.1-.5ZM91.3 285.6c-.1 0 2.1-8 5-17.8s5.4-17.8 5.6-17.7-2.1 8-5 17.8-5.4 17.8-5.6 17.7Z"/><path fill="#e0e0e0" d="M112.7 325.8a6.5 6.5 0 0 1 .6-1.2l2-2.9a335.9 335.9 0 0 0 11.7-20l1.6-3.1a5.6 5.6 0 0 1 .7-1.1 6.5 6.5 0 0 1-.5 1.2l-1.5 3.2a158 158 0 0 1-11.7 20l-2 2.9a5.4 5.4 0 0 1-1 1ZM82.3 324a4.8 4.8 0 0 1 1.2 0h3.2c2.8 0 6.6.2 10.7.4l10.8.6 3.2.2a5.1 5.1 0 0 1 1.2.2 5.2 5.2 0 0 1-1.2 0H108a606.9 606.9 0 0 1-21.4-1l-3.3-.2a5.9 5.9 0 0 1-1.1-.2ZM96.6 361.8a8.4 8.4 0 0 1 1.5 0h4.2a999.5 999.5 0 0 1 27.5 1l4.1.3a7.6 7.6 0 0 1 1.6.1 9.2 9.2 0 0 1-1.6 0h-4.1a1482.2 1482.2 0 0 1-27.5-1L98 362a7.3 7.3 0 0 1-1.5-.2ZM134.5 363a10 10 0 0 1 .8-1.5l2.3-3.8a450.2 450.2 0 0 0 14.2-25.8l2-4a10.5 10.5 0 0 1 .8-1.4 9.3 9.3 0 0 1-.6 1.5 284.1 284.1 0 0 1-18.5 33.6 10.3 10.3 0 0 1-1 1.3Z"/><path fill="#ebebeb" d="M597 334.8c-24.3-17.2-29.6-48.9-28.4-77.3.2-4.7-.3-9.7 2-13.9s7.6-7 11.8-4.9c3.5 1.7 5 5.8 7 9.2a27.8 27.8 0 0 0 11 10.7c3 1.6 6.8 2.6 9.8 1 4.1-2.3 4.6-8 4.6-12.7v-26.3c0-4.7 0-9.6 1.6-14s4.7-8.6 9.2-9.9 10 1.4 11 6c.4 2 0 4 .1 6s1 4 2.9 4.6 3.8-.8 5.2-2.1c4.9-4.7 8.2-10.9 11.4-17s6.1-12.3 10.6-17.4 10.6-9.3 17.4-9.6 13.9 3.9 15.5 10.5-2.2 13.4-6.5 18.8a105.5 105.5 0 0 1-22 20.7c-1.6 1-3.2 2.2-3.8 4-1 3 2 6.2 5 7.3 3.5 1.2 7.4.8 11 1.3s7.7 2.1 9 5.6c2 4.8-2.1 9.9-6.1 13.2a90.4 90.4 0 0 1-26.8 15.2c-3.5 1.2-7.2 2.3-10 4.7s-4.6 6.7-3 10 6 4.5 9.7 3.8 7-2.6 10.4-3.9c6.5-2.4 14.9-1.9 19 3.8 2.7 3.7 3 8.8 1.5 13.2s-4.2 8.1-7.2 11.6C669.4 319 656 328.8 641 334s-29 6.4-44 .8"/><path fill="#e0e0e0" d="M604.5 317a420.7 420.7 0 0 1 17-45.4l5.2-11.7c1.7-3.8 3.3-7.6 5.2-11.2a211.3 211.3 0 0 1 11.9-20.1 441.7 441.7 0 0 1 23.2-32 165.6 165.6 0 0 1 18.4-19.1c2.3-2.1 4.2-3.7 5.5-4.7l1.5-1.2a4 4 0 0 1 .5-.3 3.4 3.4 0 0 1-.5.4l-1.4 1.2-5.4 4.8a177.4 177.4 0 0 0-18.1 19.4c-3.6 4.3-7.3 9.2-11.1 14.6s-8 11.1-12 17.3a215 215 0 0 0-11.8 20.1 199 199 0 0 0-5.2 11.2l-5 11.7c-6.8 15.8-12.8 31-17.2 45.3"/><path fill="#e0e0e0" d="M632.1 248.7a9.9 9.9 0 0 1-.4-2l-.8-5.6c-.7-4.7-1.3-11.2-2-18.4a387 387 0 0 0-3-23.9 10.9 10.9 0 0 1-.3-2 8.5 8.5 0 0 1 .6 2 224.4 224.4 0 0 1 3.5 23.9l1.7 18.4.6 5.6a9.2 9.2 0 0 1 .1 2Z"/><path fill="#e0e0e0" d="M692.9 237.8a13.7 13.7 0 0 1-2.4.3l-6.6.6a289 289 0 0 0-43 7.7l-6.4 1.7a14 14 0 0 1-2.4.6 12.8 12.8 0 0 1 2.3-.9l6.4-2c5.4-1.5 12.9-3.4 21.3-4.9a211.7 211.7 0 0 1 21.7-2.9l6.7-.3a11.4 11.4 0 0 1 2.4.1ZM605.2 316a3.2 3.2 0 0 1-.4-.8l-1-2.2-3.5-8.2c-2.9-7-6.5-16.8-10.4-27.6s-7.5-20.6-10.3-27.6l-3.2-8.3-.9-2.3a3 3 0 0 1-.2-.8 4.4 4.4 0 0 1 .4.8l1 2.2 3.5 8.2c2.9 7 6.5 16.7 10.4 27.5s7.5 20.6 10.2 27.6l3.3 8.3.9 2.3a3.2 3.2 0 0 1 .2.8ZM686 290.5a3.1 3.1 0 0 1-.8.3l-2.4.8-8.6 2.7-28.5 9.3c-11 3.6-21.2 7-28.5 9-3.7 1.2-6.7 2-8.8 2.5l-2.3.7a3.3 3.3 0 0 1-.9.1 3.3 3.3 0 0 1 .8-.3l2.4-.8 8.6-2.7 28.5-9.3a883.8 883.8 0 0 1 37.3-11.5l2.4-.6a3 3 0 0 1 .8-.2Z"/><path fill="#ebebeb" d="M341.8 95.2a18.6 18.6 0 0 0-6.9-8.8 17.8 17.8 0 0 0-10.3-3.5 14.4 14.4 0 0 0-13.9 10.7 14.4 14.4 0 0 0-5.2-3.5 14.7 14.7 0 0 0-11.5.3 17.9 17.9 0 0 0-7.8 7.7 18.6 18.6 0 0 0-2.4 10.9 22.7 22.7 0 0 0 5.8 13c3.5 3.6 8.3 6 13 7.6 8 2.7 18.5 5.9 18.5 5.9s6.5-7.7 12.6-13.5a32 32 0 0 0 8.4-12.5 22.7 22.7 0 0 0-.3-14.3Z"/><path fill="#f5f5f5" d="M362.1 56.3a9.3 9.3 0 0 0-.2-5.6 9 9 0 0 0-3.1-4.5 7.3 7.3 0 0 0-8.8.3 7.3 7.3 0 0 0-5.9-6.3 9 9 0 0 0-5.4.8 9.3 9.3 0 0 0-4.2 3.7 11.4 11.4 0 0 0-1.5 7 16.1 16.1 0 0 0 3 7l5.8 7.9s4.9-1.2 9-1.8a16 16 0 0 0 7.2-2.5 11.3 11.3 0 0 0 4.1-6ZM480.3 100.3a6.9 6.9 0 0 0-.5-4 6.7 6.7 0 0 0-2.6-3.2 5.4 5.4 0 0 0-4.2-.6 5.5 5.5 0 0 0-2.2 1.3 5.3 5.3 0 0 0-4.7-4.2 6.6 6.6 0 0 0-4 .9 6.8 6.8 0 0 0-2.8 3 8.4 8.4 0 0 0-.7 5.2 12 12 0 0 0 2.7 5l4.7 5.4s3.5-1.2 6.5-1.9a12 12 0 0 0 5.1-2.3 8.4 8.4 0 0 0 2.7-4.6Z"/><path fill="#e0e0e0" d="M257.8 58v124H97.6L91.8 58.9l166-.9z"/><path fill="#fff" d="M91.9 182V58.7H252V182z"/><path fill="#e0e0e0" d="M252.6 182.6H91.2V58.1h161.4Zm-160.2-1.2h159v-122h-159Z"/><path fill="#fff" d="M109.2 71.4h125.5v94.4H109.2z"/><path fill="#e0e0e0" d="M234.7 71.4h-35l-90.5.2.2-.3v94.4l-.3-.3h125.5l-.3.3.1-68.5.1-19.1v-6.8V97l.2 68.7v.3h-126V71.2h.3l90.7.1 25.6.1h8.6Z"/><path fill="#e0e0e0" d="M91.8 58.4a16 16 0 0 1 2.8 1.7 171.1 171.1 0 0 1 12.2 9.1 14.7 14.7 0 0 1 2.4 2.2 16.8 16.8 0 0 1-2.7-1.8l-6-4.6-6.2-4.6a16.2 16.2 0 0 1-2.5-2ZM252 58.7c.1.2-3.7 3.1-8.5 6.6s-8.7 6.2-8.8 6 3.7-3 8.4-6.5 8.8-6.2 8.9-6Z"/><path fill="#fff" d="m252 182-18-16.2"/><path fill="#e0e0e0" d="M234 165.8c.1-.2 4.2 3.4 9.2 7.8s8.9 8.3 8.8 8.4-4.2-3.4-9.2-7.9-9-8.2-8.8-8.3ZM91.8 182c0-.1 3.7-3.7 8.4-8s8.7-7.6 8.8-7.5-3.6 3.7-8.4 8-8.6 7.6-8.8 7.5Z"/><path fill="#f5f5f5" d="M202.2 117.7a15.1 15.1 0 1 1-11.7-18 15.2 15.2 0 0 1 11.7 18Z"/><path fill="#e0e0e0" d="m182.4 129 1.4-4.2a25 25 0 0 0 1.3-10.2 14.2 14.2 0 0 0-4.4-8.9c-2-1.8-3.6-2.1-3.6-2.3s1.9 0 4.2 1.7a14 14 0 0 1 5 9.4 22.3 22.3 0 0 1-1.8 10.6c-1 2.5-2 3.9-2 3.9Z"/><path fill="#e0e0e0" d="M202 112.7c0 .4-4-1-8.8.3s-7.3 4.8-7.6 4.5c0 0 .4-1 1.6-2.2a13.4 13.4 0 0 1 12.3-3.6c1.6.3 2.6.9 2.5 1Z"/><path fill="#e0e0e0" d="M195.2 112c-.2 0-.1-1-.7-2.5a6.8 6.8 0 0 0-9.8-3.9c-1.4.7-2 1.6-2.2 1.5s.3-1.2 1.7-2.2a7.1 7.1 0 0 1 11.1 4.3c.4 1.7 0 2.8-.1 2.8Z"/><path fill="#e0e0e0" d="M190.3 113.6c-.3-.1 0-2.2-.7-4.6s-1.7-4.2-1.4-4.4 2 1.4 2.6 4.1-.2 5-.5 4.9Z"/><path fill="#e0e0e0" d="M190.2 108.8c0 .4-1.3.4-2.6 1.1s-2.3 1.5-2.5 1.3.4-1.5 2-2.4 3.2-.3 3.1 0Z"/><path fill="#f5f5f5" d="M166 116a11.5 11.5 0 1 1-16.2 1.3A11.5 11.5 0 0 1 166 116Z"/><path fill="#e0e0e0" d="M166.4 133.1a19 19 0 0 1-2.3-2.3 19.2 19.2 0 0 0-6.3-4.6 10.8 10.8 0 0 0-7.6-.2 19.6 19.6 0 0 0-2.8 1.6 5 5 0 0 1 2.6-2.2 10.5 10.5 0 0 1 8.1 0 17 17 0 0 1 6.5 5 9.3 9.3 0 0 1 1.8 2.7Z"/><path fill="#e0e0e0" d="M162.6 114.3c.2.1-2.2 2.3-3 6s.6 6.6.4 6.6c-.2 0-.6-.6-1-1.8a10.2 10.2 0 0 1 2-9.5c.8-1 1.5-1.4 1.6-1.3Z"/><path fill="#e0e0e0" d="M159.6 118.6s-.7-.3-2-.5a5.2 5.2 0 0 0-6 5.2c0 1.2.3 2 .2 2s-.7-.6-.8-2a5.4 5.4 0 0 1 6.8-5.9c1.3.4 1.9 1.1 1.8 1.2Z"/><path fill="#e0e0e0" d="M159 122.4c-.2.2-1.5-.7-3.3-1.2s-3.4-.3-3.5-.6 1.7-.8 3.7-.2 3.2 1.8 3.1 2Z"/><path fill="#e0e0e0" d="M155.7 120.8c.3.1-.2 1-.2 2s.2 2.2 0 2.2-.8-.8-.8-2.1.9-2.3 1-2.1Z"/><path fill="#ebebeb" d="M166.5 112a23 23 0 0 1-8.2-12 22.5 22.5 0 0 1-.2-14.2 18.7 18.7 0 0 1 9.8 10.4c1.7 4.6.7 11.4-1.4 15.8"/><path fill="#fff" d="M161.7 93.3a161.4 161.4 0 0 1 4.4 18"/><path fill="#e0e0e0" d="M166.1 111.3a12.7 12.7 0 0 1-.7-2.6l-1.5-6.4-1.6-6.4a13.5 13.5 0 0 1-.6-2.7 10.2 10.2 0 0 1 1 2.6 87.3 87.3 0 0 1 3.1 12.8 11.4 11.4 0 0 1 .3 2.7Z"/><path fill="#ebebeb" d="M176.7 132.6c4.8-1 9.9.6 14.3 2.6a22.4 22.4 0 0 1 10.2 10 18.6 18.6 0 0 1-14.3-.4c-4.4-2-8.5-7.6-10.2-12.2"/><path fill="#fff" d="M193.3 142.5a162 162 0 0 1-15.8-9.7"/><path fill="#e0e0e0" d="M177.5 132.8a11.5 11.5 0 0 1 2.3 1.3l5.6 3.5 5.6 3.4a12.2 12.2 0 0 1 2.3 1.5 11.3 11.3 0 0 1-2.5-1.1 90.6 90.6 0 0 1-11.3-6.9 11 11 0 0 1-2-1.7Z"/><path fill="#ebebeb" d="M172.1 134.8c1 2.8.3 6-.7 8.6a13.4 13.4 0 0 1-5.3 6.7 11.1 11.1 0 0 1-.6-8.5c1-2.8 4-5.5 6.6-6.8"/><path fill="#fff" d="M167.2 145.3a95.8 95.8 0 0 1 4.9-10"/><path fill="#e0e0e0" d="M172 135.3c.2 0-.9 2.3-2.2 5s-2.4 5-2.6 5 .7-2.5 2-5.2 2.7-4.9 2.9-4.8ZM622.8 71.2v97H507.2L503 71.9l119.8-.7z"/><path fill="#fff" d="M503 168.2V71.8h115.6v96.4z"/><path fill="#e0e0e0" d="M619.4 169H502.2V71h117.2Zm-115.6-1.6h114V72.6h-114Z"/><path fill="#fff" d="M515.5 81.7h90.6v73.8h-90.6z"/><path fill="#e0e0e0" d="M606.1 81.7h-25.2l-65.4.3.4-.4v73.8l-.4-.4H606l-.4.4.2-53.5V81.5 86.7l.2 15c0 13 0 31.4.2 53.7v.3h-91l-.4-.3V81.2h.4l65.6.2h18.5l4.8.1h1.3a1.6 1.6 0 0 1 .6.2Z"/><path fill="#e0e0e0" d="M503 71.5c.1-.1 3 2 6.5 4.8s6.2 5.2 6 5.4-3-2-6.5-4.8-6.1-5.2-6-5.4ZM618.6 71.8c.2.2-2.5 2.5-6 5.3s-6.4 4.8-6.5 4.6 2.6-2.6 6-5.3 6.4-4.8 6.5-4.6Z"/><path fill="#fff" d="m618.6 168.2-13-12.7"/><path fill="#e0e0e0" d="M605.6 155.5c.2-.1 3.2 2.6 6.8 6s6.4 6.6 6.2 6.7-3.2-2.5-6.8-6-6.3-6.5-6.2-6.7ZM503 168.2c-.2-.1 2.5-3 6-6.3s6.2-6 6.4-5.8-2.5 3-6 6.3-6.2 6-6.4 5.8Z"/><path fill="#ebebeb" d="M544.3 127.5H536a1 1 0 0 1-.5-.2 1.4 1.4 0 0 1-.5-1l2.3-16.8a2.2 2.2 0 0 1 0-.3.9.9 0 0 1 .8-.6 1 1 0 0 1 1 1l-.5 4.6-1.5 11.3h7a1.5 1.5 0 0 1 .5.1 1 1 0 0 1 .6 1.3 1.1 1.1 0 0 1-1 .6ZM546 119.7a14.8 14.8 0 0 1 .6-4 12.9 12.9 0 0 1 2.8-5.1 5.4 5.4 0 0 1 4-2.2 4.1 4.1 0 0 1 3.3 1.8 9.2 9.2 0 0 1 1.7 5.2l1.2-.6a3.8 3.8 0 0 1 1.5-.5.9.9 0 0 1 .4.2.9.9 0 0 1 .5.7 1.3 1.3 0 0 1-.5 1 6.2 6.2 0 0 1-3.1 1.2 14.9 14.9 0 0 1-.5 2.7 12.5 12.5 0 0 1-2.7 5.3 5.5 5.5 0 0 1-4.1 2 3.2 3.2 0 0 1-.6 0 4.4 4.4 0 0 1-3-2.1 10.2 10.2 0 0 1-1.4-5.6Zm2.1-.3a10.8 10.8 0 0 0 .7 3.9c.5 1.4 1.4 2.2 2.5 2.2a2 2 0 0 0 .9-.2 6.1 6.1 0 0 0 2.4-2.7 13.1 13.1 0 0 0 1.7-5 6 6 0 0 1-3.3-1 7.2 7.2 0 0 1-2.8-4 12.1 12.1 0 0 0-2 6.8Zm5.7-8.8a1.2 1.2 0 0 0-.6.2 1.6 1.6 0 0 0-.7 1.5 3.4 3.4 0 0 0 0 .4 3.3 3.3 0 0 0 1.7 2.3 4.4 4.4 0 0 0 2.1.7 13 13 0 0 0-.3-2c-.4-2-1.1-3-2.2-3Z"/><path fill="#ebebeb" d="M566.2 108.6a1 1 0 0 1 1 1l-.8 6.2-.7 6.4c0 2 .5 3.1 1.6 3.1a6.7 6.7 0 0 0 5.2-2.7 16.4 16.4 0 0 0 3-6 5.9 5.9 0 0 1-3.5-1.2 4.2 4.2 0 0 1-1.6-3.5 3.4 3.4 0 0 1 1.2-2.6 3.6 3.6 0 0 1 2.4-.9 3.8 3.8 0 0 1 2.8 1.1 4.5 4.5 0 0 1 1.3 3.4l-.1 1.5a5.3 5.3 0 0 0 .5-.1 8.2 8.2 0 0 0 1.7-.9 2.3 2.3 0 0 1 1-.4.8.8 0 0 1 .5.1.8.8 0 0 1 .4.8c0 .5-.4 1-1.2 1.4a9 9 0 0 1-3.4 1.1 19.6 19.6 0 0 1-3.3 7.2q-3 4-7.3 4a3 3 0 0 1-1-.2c-1.4-.5-2.1-2.2-2.1-5a39.2 39.2 0 0 1 .5-5.7l.7-5-2 1.2a5.3 5.3 0 0 1-1.3.7 1 1 0 0 1-1-1 1.1 1.1 0 0 1 .5-.9h.1a33 33 0 0 1 4.9-3.1Zm6.1 3.6a2.2 2.2 0 0 0 .3 1q.7 1.4 3.3 1.4a10.2 10.2 0 0 0 .2-1.8 3.2 3.2 0 0 0-.1-1 1.7 1.7 0 0 0-1.7-1.3 2.2 2.2 0 0 0-1.2.3 1.6 1.6 0 0 0-.8 1.4Z"/><path fill="#ebebeb" d="M582.6 108.6h7.8a1.6 1.6 0 0 1 .5 0 .9.9 0 0 1 .7 1 .8.8 0 0 1-.1.3 1.2 1.2 0 0 1-1 .7h-7l-1 6.6h5.1a1.5 1.5 0 0 1 .6.1 1 1 0 0 1 .6 1 1 1 0 0 1 0 .3 1.2 1.2 0 0 1-1 .6h-5.5l-.8 6.3h7a1.5 1.5 0 0 1 .5 0 1 1 0 0 1 .6 1 1 1 0 0 1 0 .3 1.1 1.1 0 0 1-1 .7h-8a1 1 0 0 1-.6-.2 1.1 1.1 0 0 1-.5-1l2.2-16.8a1.2 1.2 0 0 1 0-.3 1 1 0 0 1 .9-.6Z"/><path fill="#d8b4a1" d="m379.6 307-6-17.8-20.3-16.7-43-17-65-3.9-29.1 134.7s-12.4 67.1-13.6 77.2c-.2 1.3 153.8 1.1 153.8 1.1L340 425.3l31.3-76.6Z"/><path fill="#d8b4a1" d="M205.6 267.2c-9 11-70.3 77.2-72.2 81.2s-16 28.7-7.2 40.2l10.6 15L162 370c-.3 1.3 70.1-57.3 70.1-57.3l13.3-61.1s-29 2.4-39.8 15.6Zm-43.5 102.4c0-.2 0-.2 0 0Z"/><path fill="#263238" d="m290 395.4-.4-.4-.8-1.1c-.4-.5-.8-1.2-1.4-1.8l-1.8-2.3-2.4-2.7-2.9-3a73.6 73.6 0 0 0-7.2-6 72.5 72.5 0 0 0-8-4.8l-3.7-1.8-3.3-1.4-2.7-1-2.2-.7-1.3-.5a2 2 0 0 1-.5-.1 2.8 2.8 0 0 1 .5 0l1.4.4 2.2.6c.9.3 1.7.5 2.8 1l3.3 1.3 3.7 1.8a63.9 63.9 0 0 1 15.3 11l2.9 3 2.3 2.7 1.8 2.4 1.3 1.8.7 1.2a2.2 2.2 0 0 1 .3.4ZM422.7 196.2c5.4-3.8 7-11.6 4.6-17.8s-7.7-10.7-13.7-13.4-12.7-3.8-19.2-4.8a21 21 0 0 0-36.2-9.7 13.4 13.4 0 0 0-22.9 6l19 24.7-4 65c3.5 12 16.5 20.1 28.8 18.2s22-13.7 21.7-26.1a22 22 0 0 0 6.8-2.2 22.6 22.6 0 0 0 16.4-6 23.7 23.7 0 0 0-1.3-33.9Z"/><path fill="#ffbe9d" d="m341.8 284.4 6-14.6s18.2 3.8 30.4-17.2a256.4 256.4 0 0 0 17.5-44.2c4.4-13.7 2-33.6-12-37.4l-45.8-5.7c-4.3-1.2-7 1.7-8.5 5.8l-1.1 1.8-23 64.8-10.6 28.8a25.2 25.2 0 0 0 13.1 31.4 25.3 25.3 0 0 0 34-13.5Z"/><path fill="#263238" d="M381 220.7a3 3 0 0 1-3.9 1.8 3 3 0 0 1-2-3.7 3 3 0 0 1 3.9-1.8 3 3 0 0 1 2 3.7ZM387.7 217c-.5.2-2-2.2-5.1-3.4s-6-.5-6.2-1c0-.2.6-.8 1.8-1.1a8.5 8.5 0 0 1 5.1.4 8 8 0 0 1 4 3.1c.6 1 .7 1.9.4 2ZM350.2 210a3 3 0 0 1-3.9 1.8 3 3 0 0 1-2-3.7 3 3 0 0 1 4-1.8 3 3 0 0 1 2 3.7ZM357.3 206.3c-.5.2-2-2.3-5.2-3.5s-6-.5-6.1-1c-.1-.2.5-.7 1.8-1a8.6 8.6 0 0 1 5 .3 8 8 0 0 1 4 3.2c.6 1 .7 1.9.5 2ZM359.8 232.4c0-.2 2.1.2 5.4 1 .8.2 1.6.4 2-.1a4.3 4.3 0 0 0 .4-2.6v-6.9c0-9.8.4-17.7.8-17.7s.7 8 .6 17.8l-.1 6.9a5 5 0 0 1-.8 3.2 2.1 2.1 0 0 1-1.8.7 5.5 5.5 0 0 1-1.4-.4c-3.2-1-5.1-1.7-5.1-1.9Z"/><path fill="#eb996e" d="M347.7 269.8A61 61 0 0 1 321 250s1.4 18.7 24.6 25.4Z"/><path fill="#263238" d="M361.3 196.7c-.7.7-3.5-1-7.3-2.2s-7-1.4-7.2-2.4c0-.4.8-1 2.3-1.3a12.7 12.7 0 0 1 6 .5 12.5 12.5 0 0 1 5 3c1.1 1.1 1.5 2 1.2 2.4ZM390.3 208.9c-1 .4-3.2-1.3-6.2-2.5s-5.7-1.7-6-2.7c-.2-.4.5-1 1.9-1.2a10.5 10.5 0 0 1 5.5.8 10.3 10.3 0 0 1 4.4 3.3c.7 1.2.8 2 .4 2.3Z"/><path fill="#263238" d="M355 157.8a16.4 16.4 0 0 0 12.1 22.1c3.7.8 8 .5 10.3 3.5 2.4 3.1.7 7.8 2.5 11.3 2.6 5 10.1 4.2 14.5 7.7 3.5 2.6 4.4 7.3 5.8 11.4s4 8.6 8.3 9a48.5 48.5 0 0 0 2.5-11 16.4 16.4 0 0 0-2.6-10.7c-1.1-1.6-2.8-3-3.8-4.8-2.2-3.8-1.1-8.6-1.7-13a18 18 0 0 0-9.4-13.5c-4.3-2.1-9.3-2.6-13.2-5.3-2.8-2-4.8-5.2-7.8-7-5.7-3.7-13.3-1.5-19.6 1.2"/><path fill="#263238" d="M371.5 174.5c-2.5-1.9-7.5-6-8-9a18.4 18.4 0 0 0-11.6-14.4 15.2 15.2 0 0 0-17.1 6.2c-7.2-2.8-15.9-1-21.9 4.4a25.3 25.3 0 0 0-8 22.1 45.5 45.5 0 0 1 .2 6.3 36.9 36.9 0 0 0-6.5 2.8c-10.2 6.5-1.2 17.5-1.2 17.5-4 6.2 1.7 10 5.4 12.3s-.7 13.5 2.4 15l16.9-32.1a4.4 4.4 0 0 0 1.2 1c6.8 4.7 13.5-9.5 13.5-14.4a46.6 46.6 0 0 0 10.7-5c3.2-2.3 8.3-9.9 9.4-13.8 2.7 1.2 15.7 2 14.6 1.1Z"/><path fill="#ffbe9d" d="M322.1 207.8c1.6-4.8-2.3-10-7.4-9.2-2.7.4-5.5 2.3-7.3 7.5-4.7 13.6 10 15.6 10.2 15.2l4.5-13.5Z"/><path fill="#eb996e" d="M315.2 214.7c0-.1-.3 0-.8 0a2.6 2.6 0 0 1-1.8-.5c-1.2-1-1.7-3.7-.9-6.2a8.4 8.4 0 0 1 1.9-3.2 2.9 2.9 0 0 1 2.4-1.2 1.3 1.3 0 0 1 1.2 1.1v.7s.3 0 .4-.7a1.6 1.6 0 0 0-.3-1 1.9 1.9 0 0 0-1.2-.8 3.5 3.5 0 0 0-3.2 1.3 8.5 8.5 0 0 0-2.1 3.5c-.9 2.8-.4 5.9 1.4 7.1a2.7 2.7 0 0 0 2.3.4c.6-.2.7-.5.7-.5Z"/><path fill="#455a64" d="M395.9 232.6c0-.1 1.6-.1 4.3-1a20.6 20.6 0 0 0 9.6-6.8 20 20 0 0 0 3.8-7.2 17.3 17.3 0 0 0 0-9.2 20.5 20.5 0 0 0-14.6-14.2l-2-.3-2-.2h-1l.5-.8a7 7 0 0 0 1-4.8 11.2 11.2 0 0 0-1.8-4.6 14.8 14.8 0 0 0-7.4-5.7c-5.8-2.2-11.6-2.7-16-4.8s-7-5.3-7.9-7.8a8.7 8.7 0 0 1-.6-3 4 4 0 0 1 .2-1 12.9 12.9 0 0 0 .8 3.8c1 2.4 3.7 5.3 7.9 7.2a38 38 0 0 0 7.3 2.3 66.3 66.3 0 0 1 8.7 2.3 19.1 19.1 0 0 1 4.3 2.3 15 15 0 0 1 3.7 3.8 12.2 12.2 0 0 1 2 5 8.1 8.1 0 0 1-1.2 5.6l-.5-.9a21.7 21.7 0 0 1 4.2.5 21.4 21.4 0 0 1 15.4 15 18.2 18.2 0 0 1-.1 9.8 20.7 20.7 0 0 1-4 7.5 20.4 20.4 0 0 1-10.2 6.6 14 14 0 0 1-3.3.6 4.3 4.3 0 0 1-1.1 0ZM420.4 189.8a16 16 0 0 0-3-3.8 11.9 11.9 0 0 0-4.7-2.6 10.6 10.6 0 0 0-6.8.4l-.9.3.2-.9a16.4 16.4 0 0 0-5.7-15.5c-3.7-3-8.5-3.7-12.7-3.9s-8.2-.3-11.4-1.2a16 16 0 0 1-6.9-3.4 9.9 9.9 0 0 1-1.4-1.6l-.4-.6 2 1.9a16.7 16.7 0 0 0 6.9 3c3 .7 6.9.7 11.2.9a34 34 0 0 1 6.7.8 16.6 16.6 0 0 1 6.7 3.2 17.2 17.2 0 0 1 6 16.7l-.7-.6a11.3 11.3 0 0 1 7.4-.2 12 12 0 0 1 5 2.9 10.3 10.3 0 0 1 2.1 3 3.7 3.7 0 0 1 .4 1.2Z"/><path fill="#d8b4a1" d="M354.5 237.4a4.7 4.7 0 0 0-2.6-3 5.6 5.6 0 0 0-4.6.2l-.3.1h.1a2.7 2.7 0 0 0-1.2 1.2 4 4 0 0 0 .3 3.7 5 5 0 0 0 5.2 2.4 4 4 0 0 0 3-4.6Z"/><path fill="#263238" d="M348.1 231.6c.2 0 0 .8.1 2a7.6 7.6 0 0 0 5.2 7c1.2.5 2 .5 2 .7s-.9.5-2.2.2a7.2 7.2 0 0 1-5.8-7.9c.1-1.3.6-2 .8-2Z"/><path fill="#d8b4a1" d="M313.7 221.3c.1 0 0 1.3-1.7 2.2a4.4 4.4 0 0 1-3 .5 4.5 4.5 0 0 1-3-6.4 4.4 4.4 0 0 1 2.4-2c1.8-.6 2.8.1 2.8.2s-1.1-.1-2.5.6a4 4 0 0 0-1.8 1.7 3.6 3.6 0 0 0 2.3 5 4 4 0 0 0 2.5-.3c1.4-.6 1.8-1.6 2-1.5Z"/><path fill="#fafafa" d="M295 343.6a26.8 26.8 0 0 1-.9-2.7 38.8 38.8 0 0 0-2.6-6.3 38.2 38.2 0 0 0-3.7-5.8 27.6 27.6 0 0 1-1.7-2.2 10.8 10.8 0 0 1 2 2 30.9 30.9 0 0 1 3.9 5.7 29.8 29.8 0 0 1 2.4 6.5 11 11 0 0 1 .5 2.8Z"/><path fill="#fafafa" d="M285.5 323.7a12.3 12.3 0 0 1 2.2 4.6 12.7 12.7 0 0 1-2.2-4.6Z"/><path fill="#fafafa" d="m284.4 324.8 1.5 1.3c.8.8 1.5 1.4 1.4 1.5s-.9-.3-1.7-1.1-1.4-1.6-1.2-1.7Z"/><path fill="#fafafa" d="M283.6 326.3c0-.1 1 .1 2 .6s2 1 1.9 1.1-1-.1-2-.6-2-1-2-1.1Z"/><path fill="#fafafa" d="M283.5 328.1c0-.1.8-.2 1.9-.2s1.9.1 1.9.3-.9.2-2 .2-1.8-.1-1.8-.3ZM285.6 334.1a2.4 2.4 0 0 1 1.3-.3 7 7 0 0 1 5.6 2.5l.7 1a12.4 12.4 0 0 0-3.4-2.4 12.7 12.7 0 0 0-4.2-.8Z"/><path fill="#fafafa" d="M283.6 332.6c0-.1.8 0 1.7.5s1.5 1 1.5 1.2-.8-.3-1.7-.7-1.6-.9-1.6-1Z"/><path fill="#fafafa" d="M283 334s.8-.4 1.8-.3 1.8.4 1.7.6-.8 0-1.8-.1-1.7 0-1.7-.1Z"/><path fill="#fafafa" d="M283.4 336s.5-.6 1.2-1 1.4-.9 1.4-.8-.4.7-1.1 1.2-1.4.8-1.5.7Z"/><path fill="#fafafa" d="M285.5 336.5V335c.2-.7.6-1.3.7-1.3s0 .7-.1 1.4-.5 1.3-.6 1.3ZM293.7 328.3a14.4 14.4 0 0 0-.6 8.2 8.1 8.1 0 0 1 .6-8.2Z"/><path fill="#fafafa" d="M291.7 325.4c.1-.1.7.6 1 1.7s.6 2 .5 2l-1-1.8c-.4-1-.6-1.9-.5-2ZM294.6 325.3c.1 0 0 .9-.4 1.9s-.5 1.8-.7 1.7 0-.9.2-1.9.8-1.8.9-1.7ZM296.9 327.5l-1.5.8c-.8.4-1.4.9-1.5.8s.4-.8 1.2-1.2 1.7-.5 1.8-.4ZM296.4 330c-.1.2-.7 0-1.5-.2s-1.4 0-1.4-.1.6-.5 1.5-.4 1.5.7 1.4.8ZM281.5 286.8l-.8-2.8a38 38 0 0 0-2.6-6.3 37.5 37.5 0 0 0-3.7-5.8c-1-1.4-1.8-2.2-1.8-2.2a10.6 10.6 0 0 1 2 2 30.6 30.6 0 0 1 6.4 12.2 10.7 10.7 0 0 1 .5 2.9Z"/><path fill="#fafafa" d="M272 266.9a6.4 6.4 0 0 1 1.4 2.1 6.3 6.3 0 0 1 .8 2.4 6.6 6.6 0 0 1-1.3-2.1 6.4 6.4 0 0 1-.8-2.4Z"/><path fill="#fafafa" d="m271 267.9 1.5 1.3c.8.7 1.5 1.4 1.4 1.6s-1-.4-1.8-1.2-1.3-1.6-1.2-1.7Z"/><path fill="#fafafa" d="M270.1 269.4a4.7 4.7 0 0 1 2.1.6c1 .5 2 1 1.9 1.1a4.6 4.6 0 0 1-2.1-.6c-1-.5-2-1-1.9-1.1ZM270 271.2c0-.1.9-.2 2-.2s1.8.2 1.8.3-.9.2-1.9.2-1.9-.1-1.9-.3ZM272.2 277.2l1.2-.3a7 7 0 0 1 5.7 2.5c.5.6.7 1 .6 1a12.8 12.8 0 0 0-3.4-2.4 12.6 12.6 0 0 0-4.1-.8Z"/><path fill="#fafafa" d="M270.1 275.7c0-.1.9 0 1.8.5s1.5 1 1.4 1.2-.8-.3-1.6-.7-1.6-.8-1.6-1Z"/><path fill="#fafafa" d="M269.5 277.2c0-.1.8-.5 1.8-.4s1.8.5 1.7.6-.8 0-1.7-.1-1.8 0-1.8-.1Z"/><path fill="#fafafa" d="M270 279.2c0-.1.4-.6 1.2-1.1s1.4-.9 1.4-.8-.4.7-1.1 1.2-1.5.8-1.5.7Z"/><path fill="#fafafa" d="m272 279.6.2-1.4c.2-.7.4-1.3.6-1.3s0 .7-.1 1.4-.5 1.3-.6 1.3ZM280.3 271.4a25.4 25.4 0 0 0-1 4.1 24.9 24.9 0 0 0 .3 4.2 8 8 0 0 1 .7-8.3Z"/><path fill="#fafafa" d="M278.3 268.4s.6.7 1 1.8.6 2 .4 2-.5-.8-.9-1.8-.7-1.9-.5-2ZM281.1 268.4c.2 0 0 .9-.3 1.9s-.6 1.8-.7 1.7-.1-.9.2-1.9.7-1.8.8-1.7ZM283.4 270.6l-1.5.8c-.9.4-1.4.9-1.5.8s.4-.8 1.3-1.2 1.7-.6 1.7-.4ZM283 273.2c-.2.1-.7-.2-1.5-.3s-1.4 0-1.5-.1.6-.5 1.6-.4 1.4.7 1.3.8ZM194.1 327.2a27.6 27.6 0 0 1-.8-2.7 38.4 38.4 0 0 0-2.6-6.4 38 38 0 0 0-3.7-5.7 27.4 27.4 0 0 1-1.7-2.3 10.5 10.5 0 0 1 2 2 30.1 30.1 0 0 1 6.3 12.2 10.7 10.7 0 0 1 .5 2.9Z"/><path fill="#fafafa" d="M184.7 307.3a6.4 6.4 0 0 1 1.3 2.2 6.3 6.3 0 0 1 .8 2.4 6.5 6.5 0 0 1-1.3-2.2 6.4 6.4 0 0 1-.8-2.4Z"/><path fill="#fafafa" d="m183.5 308.3 1.6 1.4c.8.8 1.5 1.4 1.4 1.5s-1-.4-1.7-1.2-1.4-1.6-1.3-1.7ZM182.8 309.9a4.6 4.6 0 0 1 2 .6l1.9 1a4.8 4.8 0 0 1-2-.5c-1.2-.5-2-1-2-1.1ZM182.6 311.7c0-.2.9-.3 2-.2s1.8.1 1.8.2-.8.3-1.9.3-1.9-.2-1.9-.3ZM184.8 317.6s.4-.2 1.2-.2a7 7 0 0 1 3.2.5 6.9 6.9 0 0 1 2.5 2c.5.5.7 1 .7 1a12.4 12.4 0 0 0-3.5-2.5 12.5 12.5 0 0 0-4.1-.8Z"/><path fill="#fafafa" d="M182.7 316.1s.9 0 1.8.5 1.5 1.1 1.4 1.2-.8-.3-1.6-.7-1.6-.8-1.6-1Z"/><path fill="#fafafa" d="M182.1 317.6c0-.1.8-.5 1.8-.4s1.8.5 1.7.6-.8 0-1.7 0-1.7 0-1.8-.2Z"/><path fill="#fafafa" d="M182.6 319.6c-.1-.1.4-.6 1.2-1.1s1.3-.8 1.4-.7-.4.6-1.1 1.1-1.4.8-1.5.7Z"/><path fill="#fafafa" d="M184.7 320c-.2 0-.1-.7 0-1.4s.5-1.3.7-1.3 0 .7-.1 1.4-.5 1.4-.6 1.3ZM193 311.9a24 24 0 0 0-1 4 24.8 24.8 0 0 0 .3 4.2 8 8 0 0 1 .6-8.2ZM190.9 308.9c.1 0 .6.7 1 1.7a3.6 3.6 0 0 1 .4 2l-.8-1.8c-.4-1-.8-1.8-.6-1.9Z"/><path fill="#fafafa" d="M193.8 308.8c.1.1-.1 1-.4 2s-.5 1.7-.7 1.7 0-1 .2-2 .7-1.7.9-1.7ZM196 311l-1.5.8c-.8.4-1.4.9-1.5.8s.4-.8 1.3-1.2 1.7-.5 1.7-.4ZM195.5 313.6l-1.4-.2c-.8-.1-1.4 0-1.4-.2s.6-.5 1.5-.3 1.4.6 1.3.7ZM145.7 380.6a24.6 24.6 0 0 1-.8-2.8 38 38 0 0 0-2.6-6.3 37.5 37.5 0 0 0-3.7-5.8 26.3 26.3 0 0 1-1.7-2.2 11 11 0 0 1 2 2 30.2 30.2 0 0 1 6.3 12.2 11.6 11.6 0 0 1 .5 2.9Z"/><path fill="#fafafa" d="M136.3 360.6a6.5 6.5 0 0 1 1.3 2.2 6.4 6.4 0 0 1 .9 2.4 12.2 12.2 0 0 1-2.2-4.6Z"/><path fill="#fafafa" d="m135.2 361.7 1.5 1.3c.8.7 1.5 1.4 1.4 1.6s-.9-.4-1.7-1.2-1.3-1.6-1.2-1.7Z"/><path fill="#fafafa" d="M134.4 363.2a4.6 4.6 0 0 1 2 .6c1.1.5 2 1 1.9 1.1a4.7 4.7 0 0 1-2-.6c-1.2-.5-2-1-2-1.1ZM134.3 365c0-.1.8-.3 1.9-.2s1.9.1 1.9.3-.9.2-2 .2-1.8-.1-1.8-.3ZM136.4 371s.5-.3 1.3-.3a7.1 7.1 0 0 1 5.6 2.5l.7 1a12.4 12.4 0 0 0-3.4-2.4 12 12 0 0 0-4.2-.8Z"/><path fill="#fafafa" d="M134.3 369.5c0-.1 1 0 1.8.5s1.6 1 1.5 1.2-.8-.3-1.7-.7-1.6-.9-1.6-1Z"/><path fill="#fafafa" d="M133.8 371c0-.1.7-.5 1.7-.4s1.8.5 1.8.6h-1.8c-.9 0-1.7 0-1.8-.2Z"/><path fill="#fafafa" d="M134.2 373c0-.1.4-.6 1.2-1.1s1.4-.8 1.4-.7-.4.6-1.1 1-1.4.9-1.5.8Z"/><path fill="#fafafa" d="M136.3 373.4c-.2 0-.1-.7 0-1.4s.5-1.3.7-1.3 0 .7-.1 1.4-.5 1.3-.6 1.3ZM144.5 365.2a23.6 23.6 0 0 0-.9 4.1 24.6 24.6 0 0 0 .3 4.2 8 8 0 0 1 .6-8.3Z"/><path fill="#fafafa" d="M142.5 362.3c.1-.1.7.6 1 1.7a3.5 3.5 0 0 1 .5 2c-.2 0-.5-.8-1-1.8s-.6-1.9-.5-2ZM145.4 362.2c.1 0 0 .9-.4 1.9s-.5 1.7-.7 1.7 0-.9.2-1.9.8-1.8.9-1.7ZM147.7 364.4l-1.5.8c-.8.4-1.4.9-1.5.8s.4-.8 1.2-1.2 1.7-.6 1.8-.4ZM147.2 367c-.1.1-.7-.2-1.5-.3s-1.4 0-1.4 0 .6-.6 1.5-.5 1.4.7 1.4.8ZM236.4 440.5l-.8-2.7a38 38 0 0 0-2.6-6.4 37.5 37.5 0 0 0-3.7-5.7c-1-1.4-1.8-2.2-1.7-2.3a10.2 10.2 0 0 1 2 2 30.4 30.4 0 0 1 6.4 12.3 10.7 10.7 0 0 1 .4 2.8Z"/><path fill="#fafafa" d="M227 420.6a6.4 6.4 0 0 1 1.3 2.2 6.2 6.2 0 0 1 .9 2.4 6.6 6.6 0 0 1-1.3-2.2 6.4 6.4 0 0 1-.9-2.4Z"/><path fill="#fafafa" d="m225.9 421.7 1.5 1.3c.8.8 1.5 1.4 1.4 1.5s-.9-.3-1.7-1.1-1.3-1.7-1.2-1.7Z"/><path fill="#fafafa" d="M225 423.2a4.7 4.7 0 0 1 2.1.6c1.1.5 2 1 1.9 1.1a4.7 4.7 0 0 1-2-.6c-1.2-.5-2-1-2-1.1ZM225 425c0-.1.9-.3 2-.2s1.8.1 1.8.3-.9.2-1.9.2-1.9-.2-1.9-.3ZM227.1 431l1.3-.3a7 7 0 0 1 5.6 2.5l.7 1a12.8 12.8 0 0 0-3.4-2.4 12.6 12.6 0 0 0-4.2-.8Z"/><path fill="#fafafa" d="M225 429.5c0-.2.9 0 1.8.5s1.5 1 1.4 1.1-.8-.2-1.6-.7-1.6-.8-1.6-1Z"/><path fill="#fafafa" d="M224.4 431c0-.2.8-.5 1.8-.5s1.8.5 1.8.6h-1.8c-.9 0-1.7 0-1.8-.2Z"/><path fill="#fafafa" d="M224.9 433c0-.2.4-.7 1.2-1.2s1.4-.8 1.4-.7-.4.6-1.1 1.1-1.4.9-1.5.7Z"/><path fill="#fafafa" d="M227 433.3c-.1 0-.1-.6.1-1.4s.5-1.3.6-1.2 0 .6-.1 1.4-.5 1.3-.6 1.2ZM235.2 425.2a23.6 23.6 0 0 0-.9 4 24.9 24.9 0 0 0 .3 4.2 6.7 6.7 0 0 1-.8-4.2 6.6 6.6 0 0 1 1.4-4Z"/><path fill="#fafafa" d="M233.2 422.2c.1 0 .7.7 1 1.7a3.6 3.6 0 0 1 .5 2c-.2 0-.5-.7-1-1.8s-.6-1.8-.5-1.9ZM236 422.2c.2 0 0 .8-.3 1.8s-.5 1.8-.7 1.8 0-.9.2-2 .8-1.7.9-1.6ZM238.4 424.4l-1.5.8c-.8.4-1.4.8-1.5.7s.4-.7 1.2-1.2 1.7-.5 1.8-.3ZM237.9 427l-1.5-.3-1.4-.1c0-.2.6-.6 1.5-.4s1.5.6 1.4.7ZM255.8 336a26.8 26.8 0 0 1-.8-2.7 36.9 36.9 0 0 0-6.3-12 24.7 24.7 0 0 1-1.7-2.3 11.7 11.7 0 0 1 2 2 30.6 30.6 0 0 1 6.3 12.2 11.2 11.2 0 0 1 .5 2.9Z"/><path fill="#fafafa" d="M246.4 316.2a6.3 6.3 0 0 1 1.3 2.1 6.4 6.4 0 0 1 .9 2.4 6.3 6.3 0 0 1-1.4-2.1 6.5 6.5 0 0 1-.8-2.4Z"/><path fill="#fafafa" d="M245.2 317.2c.2 0 .8.6 1.6 1.4s1.5 1.4 1.4 1.5-.9-.4-1.7-1.2-1.4-1.6-1.3-1.7Z"/><path fill="#fafafa" d="M244.5 318.7a4.8 4.8 0 0 1 2 .7c1.1.4 2 1 1.9 1a4.6 4.6 0 0 1-2-.6c-1.2-.4-2-1-2-1ZM244.3 320.6c0-.2.9-.3 2-.3s1.8.2 1.8.3-.8.3-1.9.2-1.8-.1-1.8-.2ZM246.5 326.5s.4-.2 1.3-.3a6.8 6.8 0 0 1 3 .6 7 7 0 0 1 2.6 1.9l.7 1.1a13 13 0 0 0-3.5-2.5 12.4 12.4 0 0 0-4.1-.8Z"/><path fill="#fafafa" d="M244.4 325c0-.1.9 0 1.8.5s1.5 1 1.5 1.2-.8-.3-1.7-.7-1.6-.8-1.6-1Z"/><path fill="#fafafa" d="M243.8 326.5c0-.1.8-.5 1.8-.4s1.8.5 1.7.6-.8 0-1.7 0-1.7 0-1.8-.2Z"/><path fill="#fafafa" d="M244.3 328.5c-.1-.1.4-.6 1.2-1.1s1.3-.8 1.4-.7-.4.6-1.2 1.1-1.3.8-1.4.7Z"/><path fill="#fafafa" d="M246.4 328.9c-.2 0-.1-.7 0-1.4s.5-1.3.7-1.3 0 .7-.1 1.4-.5 1.3-.6 1.3ZM254.6 320.8a24.2 24.2 0 0 0-1 4 25.3 25.3 0 0 0 .4 4.2 6.6 6.6 0 0 1-.8-4.2 6.5 6.5 0 0 1 1.4-4Z"/><path fill="#fafafa" d="M252.6 317.8c.1 0 .6.7 1 1.7s.6 2 .5 2l-1-1.8c-.4-1-.7-1.9-.5-2ZM255.5 317.7l-.4 1.9c-.3 1-.5 1.8-.7 1.8s0-1 .2-2 .7-1.7.9-1.7ZM257.8 320l-1.5.8c-.8.4-1.5.8-1.6.7s.5-.8 1.3-1.2 1.7-.5 1.8-.4ZM257.3 322.5c-.1.1-.7-.2-1.5-.3s-1.4 0-1.5 0 .7-.6 1.6-.5 1.4.7 1.3.8ZM325.9 324.2l2.6-1a37.7 37.7 0 0 0 6-3.2 38.6 38.6 0 0 0 5.5-4.2 22.8 22.8 0 0 1 2-2 11.8 11.8 0 0 1-1.8 2.2 29.7 29.7 0 0 1-5.3 4.4 30.3 30.3 0 0 1-6.3 3 11 11 0 0 1-2.7.8Z"/><path fill="#fafafa" d="m344.8 313-2 1.5a6.5 6.5 0 0 1-2.3 1s.8-.8 2-1.5a6.7 6.7 0 0 1 2.3-1Z"/><path fill="#fafafa" d="m343.6 312-1.1 1.6c-.7 1-1.3 1.6-1.4 1.5s.2-1 1-1.8 1.4-1.5 1.5-1.4Z"/><path fill="#fafafa" d="M342 311.3a4.8 4.8 0 0 1-.4 2c-.3 1.2-.8 2-.9 2a4.6 4.6 0 0 1 .4-2c.4-1.2.8-2 1-2ZM340.2 311.3c.2 0 .4.9.4 2s0 1.8 0 1.8-.4-.8-.5-1.9 0-1.8.1-1.9ZM334.5 314s.3.4.4 1.2a7 7 0 0 1-1.9 5.9l-1 .8a9.4 9.4 0 0 0 2.5-7.9Z"/><path fill="#fafafa" d="M335.8 311.8c.1 0 0 1-.3 1.9s-1 1.6-1 1.5l.5-1.7c.3-1 .6-1.7.8-1.7ZM334.3 311.4c.1 0 .5.7.5 1.7s-.3 1.8-.4 1.8v-1.8c0-1-.3-1.7-.1-1.7Z"/><path fill="#fafafa" d="M332.3 312c.1-.1.7.4 1.3 1s1 1.3.8 1.4-.7-.4-1.2-1-1-1.3-.9-1.4Z"/><path fill="#fafafa" d="M332.1 314.1h1.4c.7.1 1.4.4 1.3.5s-.6.2-1.4 0-1.3-.3-1.3-.5ZM341 321.6a24.6 24.6 0 0 0-4.1-.6 25.8 25.8 0 0 0-4.1.7 8.1 8.1 0 0 1 8.2-.1Z"/><path fill="#fafafa" d="M343.8 319.3s-.6.7-1.6 1.2-2 .7-2 .6l1.7-1c1-.5 1.8-1 1.9-.8ZM344.1 322.1c0 .2-.9 0-1.9-.2s-1.8-.3-1.8-.5.9-.1 2 0 1.8.6 1.7.7ZM342.2 324.6c-.2 0-.5-.6-1-1.4s-1-1.3-1-1.4.9.3 1.4 1.1.7 1.7.6 1.7ZM339.5 324.4c-.1-.1.1-.7.1-1.5s-.1-1.4 0-1.5.6.6.6 1.5-.6 1.5-.7 1.5ZM208.8 296.3a26.7 26.7 0 0 1 2.7-1.1 37.3 37.3 0 0 0 6-3.2 38.6 38.6 0 0 0 5.4-4.2 26.2 26.2 0 0 1 2-2 11.3 11.3 0 0 1-1.7 2.2 30.6 30.6 0 0 1-5.4 4.4 30.3 30.3 0 0 1-6.2 3.1 10.8 10.8 0 0 1-2.8.8Z"/><path fill="#fafafa" d="M227.7 285c.1.1-.8.8-2 1.5a6.5 6.5 0 0 1-2.3 1.1l2-1.5a6.5 6.5 0 0 1 2.3-1.1Z"/><path fill="#fafafa" d="m226.6 284-1.2 1.6c-.7.8-1.2 1.6-1.4 1.6s.3-1 1-1.9 1.5-1.5 1.6-1.4Z"/><path fill="#fafafa" d="M225 283.3a4.8 4.8 0 0 1-.4 2.1c-.4 1.1-.8 2-1 2a4.8 4.8 0 0 1 .5-2.1c.4-1.2.8-2 .9-2Z"/><path fill="#fafafa" d="M223.2 283.4c.1 0 .3.8.4 1.8s0 2-.1 2-.4-.9-.4-2-.1-1.8 0-1.8ZM217.4 286c.1 0 .3.5.4 1.3a7.1 7.1 0 0 1-1.8 5.8c-.6.6-1 .9-1.1.8a13 13 0 0 0 2.2-3.6 12 12 0 0 0 .3-4.2Z"/><path fill="#fafafa" d="M218.7 283.9c.2 0 .1.9-.3 1.8s-.9 1.6-1 1.5.2-.8.6-1.7.6-1.7.7-1.6Z"/><path fill="#fafafa" d="M217.2 283.4c.2 0 .6.7.6 1.8s-.3 1.8-.5 1.7 0-.8 0-1.7-.2-1.7 0-1.8Z"/><path fill="#fafafa" d="M215.3 284s.6.4 1.2 1.1 1 1.3.9 1.4-.7-.4-1.3-1-1-1.3-.8-1.4Z"/><path fill="#fafafa" d="M215 286.2c0-.2.7-.2 1.5 0s1.3.3 1.3.5-.7.1-1.4 0-1.3-.4-1.3-.5ZM224 293.6a24.6 24.6 0 0 0-4.1-.5 26 26 0 0 0-4.1.7 8.1 8.1 0 0 1 8.2-.2Z"/><path fill="#fafafa" d="M226.7 291.3c.1.1-.6.7-1.6 1.2s-1.9.8-2 .6.8-.5 1.7-1 1.9-1 2-.8ZM227 294.2l-1.8-.2c-1-.2-1.9-.4-1.8-.5s.8-.2 1.9 0 1.8.5 1.8.7ZM225.1 296.6l-1-1.4c-.5-.7-1-1.3-.9-1.4s.8.3 1.4 1.2.6 1.6.5 1.6ZM222.5 296.4c-.2 0 0-.7 0-1.5s0-1.4 0-1.4.7.5.6 1.5-.5 1.5-.6 1.4ZM157.8 344.8a26.4 26.4 0 0 1 2.6-1.1 38.6 38.6 0 0 0 6-3.2 39.2 39.2 0 0 0 5.4-4.2l2.1-2a11 11 0 0 1-1.8 2.2 31.1 31.1 0 0 1-5.4 4.4 30.2 30.2 0 0 1-6.2 3 10.8 10.8 0 0 1-2.8.9Z"/><path fill="#fafafa" d="M176.7 333.4c0 .2-.9.9-2 1.6a6.4 6.4 0 0 1-2.3 1 12.4 12.4 0 0 1 4.3-2.6Z"/><path fill="#fafafa" d="M175.5 332.4c.1.1-.5.9-1.2 1.7s-1.2 1.6-1.4 1.5.3-.9 1-1.8 1.5-1.5 1.6-1.4Z"/><path fill="#fafafa" d="M174 331.8a4.5 4.5 0 0 1-.5 2.1 4.8 4.8 0 0 1-1 2 4.5 4.5 0 0 1 .5-2.1c.4-1.2.8-2 1-2Z"/><path fill="#fafafa" d="M172.1 331.9c.2 0 .3.8.4 1.8s0 2-.1 2-.3-.9-.4-2 0-1.8.1-1.8ZM166.4 334.6l.4 1.2a7 7 0 0 1-.3 3.1 7 7 0 0 1-1.6 2.7l-1 .8a12.4 12.4 0 0 0 2.1-3.6 12.5 12.5 0 0 0 .4-4.3Z"/><path fill="#fafafa" d="M167.7 332.4c.1 0 0 .8-.3 1.8s-1 1.6-1 1.5l.5-1.7c.4-.9.6-1.7.8-1.6ZM166.2 332c0-.1.5.6.5 1.7s-.3 1.8-.4 1.7l-.1-1.7c-.1-1-.2-1.7 0-1.8Z"/><path fill="#fafafa" d="M164.2 332.6c.1-.1.7.3 1.2 1s1 1.3.9 1.4-.7-.4-1.3-1-1-1.4-.8-1.4Z"/><path fill="#fafafa" d="M164 334.7c0-.2.7-.2 1.4 0s1.3.3 1.3.5-.6.1-1.4 0-1.3-.4-1.3-.5ZM172.9 342a24.8 24.8 0 0 0-4.1-.4 25.8 25.8 0 0 0-4.2.6 8.1 8.1 0 0 1 8.3-.1Z"/><path fill="#fafafa" d="M175.7 339.8c0 .1-.7.7-1.7 1.2s-1.9.7-2 .6.8-.6 1.8-1 1.8-1 1.9-.8ZM176 342.6c0 .2-.9 0-1.9-.1s-1.8-.4-1.8-.5.9-.2 2 0 1.7.5 1.7.6ZM174 345.1l-1-1.4c-.5-.8-1-1.3-.9-1.4s.8.3 1.3 1.2.8 1.6.6 1.6ZM171.4 344.9l.1-1.5V342c.1 0 .6.5.6 1.4s-.6 1.6-.7 1.5ZM287.9 424.2l2.6-1a38.7 38.7 0 0 0 6-3.2 37.8 37.8 0 0 0 5.5-4.2 24.7 24.7 0 0 1 2-2 11.1 11.1 0 0 1-1.8 2.2 30.2 30.2 0 0 1-5.3 4.4 30.7 30.7 0 0 1-6.3 3 11 11 0 0 1-2.7.8Z"/><path fill="#fafafa" d="m306.8 413-2 1.5a6.3 6.3 0 0 1-2.3 1s.8-.8 2-1.5a6.3 6.3 0 0 1 2.3-1Z"/><path fill="#fafafa" d="m305.6 412-1.1 1.6c-.7 1-1.3 1.6-1.4 1.5s.2-1 1-1.8 1.4-1.5 1.5-1.4Z"/><path fill="#fafafa" d="M304 411.3a4.8 4.8 0 0 1-.4 2c-.3 1.2-.8 2-.9 2a4.6 4.6 0 0 1 .4-2c.4-1.2.8-2 1-2ZM302.2 411.3c.2 0 .4.9.4 2s0 1.8 0 1.8-.4-.8-.5-1.9 0-1.8.1-1.9ZM296.5 414s.3.4.4 1.2a7.1 7.1 0 0 1-1.9 5.9l-1 .8a12.4 12.4 0 0 0 2.1-3.7 12.7 12.7 0 0 0 .4-4.2Z"/><path fill="#fafafa" d="M297.8 411.9c.1 0 0 .8-.3 1.8s-1 1.6-1 1.5l.5-1.7c.3-1 .6-1.7.8-1.6ZM296.3 411.4c.1 0 .5.7.5 1.7s-.3 1.8-.4 1.8v-1.8c0-1-.3-1.7-.1-1.7Z"/><path fill="#fafafa" d="M294.3 412c.1 0 .7.4 1.3 1s1 1.4.8 1.5-.7-.4-1.2-1.1-1-1.3-.9-1.4Z"/><path fill="#fafafa" d="M294.1 414.1h1.4c.7.1 1.4.4 1.3.5s-.6.2-1.4 0-1.3-.3-1.3-.5ZM303 421.6a24.6 24.6 0 0 0-4.1-.6 24 24 0 0 0-4.1.7 6.6 6.6 0 0 1 4-1.2 6.7 6.7 0 0 1 4.2 1Z"/><path fill="#fafafa" d="M305.8 419.3s-.6.7-1.6 1.2-2 .7-2 .6l1.7-1c1-.5 1.8-1 1.9-.8ZM306.1 422.1c0 .2-.9 0-1.9-.1s-1.8-.4-1.8-.6.9-.1 2 0 1.8.6 1.7.7ZM304.2 424.6c-.2 0-.5-.6-1-1.4s-1-1.3-1-1.4.9.3 1.4 1.1.7 1.7.6 1.7ZM301.5 424.4c-.1-.1.1-.7.1-1.5s-.1-1.4 0-1.4.6.5.6 1.4-.6 1.6-.7 1.5ZM318 455.1a24.3 24.3 0 0 1 2.6-1.1 37.7 37.7 0 0 0 6-3.2 39.2 39.2 0 0 0 5.4-4.2l2.1-2a11 11 0 0 1-1.8 2.2 30.7 30.7 0 0 1-5.4 4.4 30.2 30.2 0 0 1-6.2 3.1 11 11 0 0 1-2.7.8Z"/><path fill="#fafafa" d="m336.9 443.8-2 1.5a6.4 6.4 0 0 1-2.3 1.1 12.4 12.4 0 0 1 4.3-2.6Z"/><path fill="#fafafa" d="m335.7 442.8-1.1 1.7c-.7.9-1.3 1.6-1.5 1.5s.3-1 1-1.9 1.5-1.4 1.6-1.3Z"/><path fill="#fafafa" d="M334.1 442.1a4.5 4.5 0 0 1-.4 2.1c-.4 1.2-.8 2-1 2a4.5 4.5 0 0 1 .5-2.1c.4-1.1.8-2 1-2Z"/><path fill="#fafafa" d="M332.3 442.2c.1 0 .3.8.4 1.9s0 1.9-.1 1.9-.3-.8-.4-1.9 0-1.9.1-1.9ZM326.6 444.9l.4 1.2a7 7 0 0 1-2 5.9c-.5.6-1 .8-1 .8a9.4 9.4 0 0 0 2.6-8Z"/><path fill="#fafafa" d="M327.9 442.7c.1 0 0 .9-.3 1.8s-1 1.6-1 1.6l.5-1.8c.4-.9.6-1.6.8-1.6ZM326.4 442.3c0-.1.5.6.5 1.7s-.3 1.8-.4 1.8l-.1-1.8c-.1-.9-.2-1.7 0-1.8Z"/><path fill="#fafafa" d="M324.4 442.9c.1-.1.7.4 1.2 1s1 1.4.9 1.4-.7-.3-1.3-1-1-1.3-.8-1.4Z"/><path fill="#fafafa" d="M324.2 445c0-.1.7-.2 1.4 0s1.3.3 1.3.5-.6.1-1.4 0-1.3-.4-1.3-.5ZM333 452.4a24.8 24.8 0 0 0-4-.5 25.8 25.8 0 0 0-4.2.7 8.1 8.1 0 0 1 8.3-.2Z"/><path fill="#fafafa" d="M335.9 450.1c0 .1-.7.7-1.7 1.2s-1.9.8-2 .7.8-.6 1.8-1.1 1.8-.9 1.9-.8ZM336.2 453l-1.9-.2-1.8-.5s.9-.2 1.9 0 1.8.6 1.8.7ZM334.2 455.5l-1-1.4c-.6-.7-1-1.4-.8-1.5s.7.4 1.3 1.2.7 1.6.5 1.7ZM331.6 455.2l.1-1.4v-1.5c.1-.1.6.6.5 1.5s-.5 1.5-.6 1.4ZM262.4 456.3a27.2 27.2 0 0 1 2.6-1.1 38.7 38.7 0 0 0 6-3.2 37.8 37.8 0 0 0 5.4-4.2 22.8 22.8 0 0 1 2.1-2 11.4 11.4 0 0 1-1.8 2.2 30.2 30.2 0 0 1-5.3 4.4 30.7 30.7 0 0 1-6.3 3 11 11 0 0 1-2.7.9Z"/><path fill="#fafafa" d="m281.3 445-2 1.5a6.3 6.3 0 0 1-2.3 1.1c-.1-.1.8-.8 2-1.5a6.3 6.3 0 0 1 2.3-1.1Z"/><path fill="#fafafa" d="M280.1 444c.1 0-.4.8-1.1 1.6s-1.3 1.6-1.4 1.6.2-1 1-1.9 1.4-1.5 1.5-1.4ZM278.6 443.3a4.8 4.8 0 0 1-.5 2.1l-.9 2a4.6 4.6 0 0 1 .4-2.1c.4-1.2.8-2 1-2ZM276.7 443.4c.2 0 .4.8.4 1.8s0 2 0 2-.4-.9-.5-2 0-1.8.1-1.8ZM271 446s.3.5.4 1.3a7 7 0 0 1-.3 3.1 6.8 6.8 0 0 1-1.6 2.8l-1 .7a12.4 12.4 0 0 0 2.1-3.6 12.7 12.7 0 0 0 .4-4.2Z"/><path fill="#fafafa" d="M272.3 443.9c.1 0 0 .8-.3 1.8s-1 1.6-1 1.5l.5-1.7c.4-.9.6-1.7.8-1.6ZM270.8 443.4s.5.7.5 1.8-.3 1.8-.4 1.7v-1.7c0-1-.3-1.7-.1-1.8Z"/><path fill="#fafafa" d="M268.8 444c.1 0 .7.4 1.2 1.1s1 1.3.9 1.4-.7-.4-1.2-1-1-1.4-.9-1.4Z"/><path fill="#fafafa" d="M268.6 446.2c0-.2.7-.2 1.4 0s1.4.3 1.3.5-.6.1-1.4 0-1.3-.4-1.3-.5ZM277.5 453.6a24.6 24.6 0 0 0-4.1-.5 24 24 0 0 0-4.1.6 6.6 6.6 0 0 1 4-1.2 6.7 6.7 0 0 1 4.2 1Z"/><path fill="#fafafa" d="M280.3 451.3c0 .1-.7.7-1.7 1.2s-1.9.7-1.9.6l1.7-1c1-.5 1.8-1 1.9-.8ZM280.6 454.1c0 .2-.9 0-1.9-.1s-1.8-.4-1.8-.5.9-.2 2 0 1.8.5 1.7.6ZM278.6 456.6l-1-1.4c-.6-.8-1-1.3-.8-1.4s.7.3 1.3 1.2.7 1.6.5 1.6ZM276 456.4l.1-1.5v-1.4c.1 0 .6.5.5 1.4s-.5 1.6-.6 1.5ZM315.5 377.2a26.7 26.7 0 0 1 2.6-1.1 37 37 0 0 0 11.5-7.4 28.3 28.3 0 0 1 2-2 10.8 10.8 0 0 1-1.8 2.2 30.6 30.6 0 0 1-5.3 4.4 30.1 30.1 0 0 1-6.2 3 11.8 11.8 0 0 1-2.8.9Z"/><path fill="#fafafa" d="M334.4 365.9a6.5 6.5 0 0 1-2 1.5 6.4 6.4 0 0 1-2.3 1l2-1.5a6.4 6.4 0 0 1 2.3-1Z"/><path fill="#fafafa" d="M333.3 364.8c0 .1-.5.9-1.2 1.7s-1.3 1.6-1.4 1.6.2-1 1-1.9 1.4-1.5 1.6-1.4Z"/><path fill="#fafafa" d="M331.7 364.2a4.7 4.7 0 0 1-.5 2.1 4.8 4.8 0 0 1-.9 2 4.5 4.5 0 0 1 .4-2.1c.4-1.2.8-2 1-2ZM329.8 364.3c.2 0 .4.8.4 1.8s0 2 0 2-.4-.9-.5-2 0-1.8.1-1.8ZM324.1 367s.3.4.4 1.2a7 7 0 0 1-1.9 5.9l-1 .8a12.3 12.3 0 0 0 2.1-3.7 12.5 12.5 0 0 0 .4-4.2Z"/><path fill="#fafafa" d="M325.4 364.8c.1 0 0 .8-.3 1.8s-1 1.6-1 1.5l.5-1.7c.3-.9.6-1.6.8-1.6Z"/><path fill="#fafafa" d="M323.9 364.3c.1 0 .5.7.6 1.8s-.4 1.8-.5 1.7v-1.7c0-1-.3-1.7-.1-1.8Z"/><path fill="#fafafa" d="m322 365 1.2 1c.6.7 1 1.4.8 1.5s-.7-.4-1.2-1.1-1-1.3-.9-1.4Z"/><path fill="#fafafa" d="M321.7 367h1.4c.7 0 1.4.4 1.4.6s-.7.1-1.4 0-1.4-.4-1.4-.5ZM330.6 374.5a24.8 24.8 0 0 0-4.1-.5 24.3 24.3 0 0 0-4.1.7 6.7 6.7 0 0 1 4-1.2 6.6 6.6 0 0 1 4.2 1Z"/><path fill="#fafafa" d="M333.4 372.2c0 .1-.6.7-1.6 1.2s-2 .8-2 .6.7-.5 1.7-1 1.8-1 1.9-.8ZM333.7 375c0 .2-.8 0-1.9-.1s-1.8-.4-1.8-.5.9-.2 2 0 1.8.5 1.7.7ZM331.8 377.6c-.2 0-.5-.7-1-1.4s-1-1.4-1-1.5.9.3 1.4 1.2.7 1.6.6 1.7ZM329.1 377.3l.1-1.5v-1.4s.6.5.6 1.5-.6 1.5-.7 1.4ZM251.7 400.7a26.1 26.1 0 0 1 .8-2.7 38 38 0 0 0 1.4-6.8 38.6 38.6 0 0 0 0-6.8 27 27 0 0 1-.2-2.8 11.2 11.2 0 0 1 .6 2.8 30.6 30.6 0 0 1 0 7 29.9 29.9 0 0 1-1.4 6.7 11.4 11.4 0 0 1-1.2 2.6Z"/><path fill="#fafafa" d="M254.8 378.9a12.6 12.6 0 0 1-.7 5 6.2 6.2 0 0 1 0-2.6 6.1 6.1 0 0 1 .7-2.4Z"/><path fill="#fafafa" d="M253.3 379.1a5.8 5.8 0 0 1 .5 2c.3 1.1.5 2 .3 2s-.5-.8-.8-1.9a3.5 3.5 0 0 1 0-2ZM251.8 380s.7.7 1.3 1.7 1.1 1.8 1 1.9-.7-.7-1.4-1.6-1-2-1-2ZM250.7 381.4s.8.3 1.7.9 1.5 1.2 1.4 1.3-.9-.3-1.7-.9-1.5-1.1-1.4-1.3ZM249.2 387.6a2.5 2.5 0 0 1 1.2.4 7 7 0 0 1 2.3 2.2 7 7 0 0 1 1 3 2.4 2.4 0 0 1 0 1.3 12.6 12.6 0 0 0-1.5-4 12.7 12.7 0 0 0-3-3Z"/><path fill="#fafafa" d="M248.3 385.2s.7.5 1.2 1.4.7 1.7.6 1.8-.6-.7-1-1.5-1-1.6-.8-1.7Z"/><path fill="#fafafa" d="M247 386.1c0-.1.9 0 1.7.6s1.2 1.4 1.1 1.5-.6-.5-1.4-1-1.5-1-1.4-1Z"/><path fill="#fafafa" d="M246.3 388c0-.1.7-.3 1.5-.3s1.7 0 1.7.2-.7.3-1.6.3-1.6 0-1.6-.2Z"/><path fill="#fafafa" d="M247.8 389.5c-.1 0 .3-.6.8-1.1s1.1-.8 1.2-.7-.3.6-.8 1-1.1 1-1.2.8ZM259.1 387.2a26.4 26.4 0 0 0-3 3 25.9 25.9 0 0 0-2 3.6 6.7 6.7 0 0 1 1.7-4 6.6 6.6 0 0 1 3.3-2.6Z"/><path fill="#fafafa" d="M259 383.6c.2 0 .2 1 0 2s-.6 2-.8 2 0-1 .3-2 .4-2 .6-2ZM261.5 385.2c.1 0-.5.7-1.3 1.3s-1.4 1.2-1.5 1.1.3-.8 1.1-1.5 1.6-1.1 1.7-1ZM262.2 388.2c0 .2-.8 0-1.7 0s-1.6-.1-1.7-.3.8-.4 1.8-.3 1.7.5 1.6.6ZM260.4 390.1c-.2 0-.5-.5-1-1s-1.3-.7-1.2-.9.8 0 1.5.5.8 1.4.7 1.4Z"/><path d="M283.2 407.9c-1.3-3.2-3.6-5.9-6-8.5q-10.6-12.1-20.3-25.2c-3.5-4.7-7-10-7-16 0-5.1 2.5-9.9 4.2-14.8 3.4-10.2 2.6-21.5 7-31.3 2-4.6 5.2-8.6 7-13.3 4.2-10.6 1-22.5-2.2-33.5l-6.5-14.7c-9.4 10.5-27.4 3.3-28.5 7.2-1 3.7 5.3 41.4 4.3 45.1-4 14.4-7 28.9-10.1 41-2.1 8.1-4.1 16.7-1.2 24.5 2.7 7.2 9.2 12.2 15.1 17.2a168.5 168.5 0 0 1 23.2 24.2c2.5 3.1 5 6.5 8.4 8.4s8.4 2.2 11.2-.6c2.4-2.5 2.6-6.5 1.4-9.7Z" opacity=".3"/><path fill="#a86e63" d="M283.9 260.8s-13.5-12.6-15.4-15.6-12-10-12-10-8.5-9-23.5-7-21.8 22-21.8 22-1.4 30.9 1.8 31.1 6 .9 6.2-1.3-.1-10.5-.1-10.5l5.8-7.2s3 28.4 6.6 28.9 6.2 1.7 6.5-1.4-3.3-26.5-2.9-27.5 7.3 25.3 7.3 25.3 2.3 6.3 5.3 6 5-2.3 4.2-5-3.7-31.6-3.7-31.6l7 16.8 3.5 14.6s4 2.6 5.3-.8-.4-17.8-.4-17.8l-4.2-19.2 5.1 3.5s6.5 7.2 9.9 8.6c3.8 1.7 9.5-2 9.5-2Z"/><path fill="#455a64" d="M618.7 312.7c-2.2-6.8-59.7-73.3-73.8-95.3-9.7-15-22.9-14.4-25.2-14.2l-50.7-.4-38.9 9.8a21.5 21.5 0 0 1-22.8 23.3 22.3 22.3 0 0 1-6.8 2.2 26.7 26.7 0 0 1-21.7 26.1 24.5 24.5 0 0 1-10.2-.6l.1.3a28 28 0 0 1-8 4.4c-5.7 2.3-13 1.5-13 1.5l-.2.3 5.8 2.4 20.3 16.7 4.9 14.2.8 3.3-31.9 158.5h168l13.5-164-1.8-23.8 64.6 72.6Z"/><path fill="#fafafa" d="M548.2 223.9h-.5l-1.6-.3a53.3 53.3 0 0 0-27.9 4.4 52.2 52.2 0 0 0-13 8.4 114.3 114.3 0 0 0-12.3 12.8c-4.1 4.8-8.3 10-13.1 14.9a59.5 59.5 0 0 1-17.2 12.3 35.9 35.9 0 0 1-10.4 3 28.4 28.4 0 0 1-10.5-.7 40.6 40.6 0 0 1-9.3-4l-8.3-4.8a41.1 41.1 0 0 0-16.8-5.4 44.8 44.8 0 0 0-15.4 1.2 47.3 47.3 0 0 0-11.8 4.8l-2.3 1.5-2 1.5a37.3 37.3 0 0 0-3.4 2.8 14 14 0 0 0-1.4 1.3l-1.1 1.2a19.3 19.3 0 0 0-1.7 2l-1 1.3c-.3.2-.3.4-.3.4l.3-.5 1-1.3a19.8 19.8 0 0 1 1.5-2l1.2-1.2a15.2 15.2 0 0 1 1.3-1.3 37 37 0 0 1 3.4-3l2-1.4 2.3-1.5a47.4 47.4 0 0 1 11.9-5 45 45 0 0 1 15.5-1.2 41.5 41.5 0 0 1 17 5.5l8.3 4.8a40.1 40.1 0 0 0 9.2 3.9 27.6 27.6 0 0 0 10.3.6 35.4 35.4 0 0 0 10.2-3 59.1 59.1 0 0 0 17.1-12.1c4.8-4.9 9-10 13-14.8A114 114 0 0 1 505 236a52.7 52.7 0 0 1 35-13 49.6 49.6 0 0 1 6.2.4l1.6.3ZM491.2 202.3v.2l-.4.7c-.3.6-.6 1.6-1.3 2.7a63.6 63.6 0 0 1-5.9 9.4 67.4 67.4 0 0 1-11.4 11.8 66.4 66.4 0 0 1-36.7 14.9 71 71 0 0 1-8.8.2 71.8 71.8 0 0 1-7.6-.8 64.4 64.4 0 0 1-10.7-2.5c-1.3-.4-2.2-.9-2.9-1l-.7-.3a1 1 0 0 1-.2-.2l.2.1.8.3 2.8.9a70.2 70.2 0 0 0 10.8 2.4 74.7 74.7 0 0 0 7.5.7 72.4 72.4 0 0 0 8.7-.2 66.7 66.7 0 0 0 36.5-14.8 69 69 0 0 0 11.4-11.7 69.8 69.8 0 0 0 6-9.2c.7-1.1 1-2 1.4-2.7l.4-.6a2 2 0 0 1 .1-.3ZM528 309l-.2.3-1 .8-1.4 1.2-2.1 1.6a46.7 46.7 0 0 1-15.5 6.6 72 72 0 0 1-25 1c-9.4-1.2-19.4-4-29.7-7.3s-20.3-6.3-29.6-7.9a79.3 79.3 0 0 0-24.9-.5 50.4 50.4 0 0 0-15.9 5.1l-2.3 1.3-1.6 1-1 .7-.4.2a1.9 1.9 0 0 1 .3-.2l1-.7 1.6-1.1 2.3-1.4a49.3 49.3 0 0 1 16-5.3 78.9 78.9 0 0 1 25 .5c9.4 1.5 19.3 4.6 29.7 7.8s20.3 6.1 29.6 7.3a72.5 72.5 0 0 0 24.8-.9 47.4 47.4 0 0 0 15.5-6.4l2.2-1.5 1.5-1.2.9-.7ZM367.8 368l.3.3 1 .7 1.6 1.3 2.2 1.6a45.5 45.5 0 0 0 16.3 6.2 70 70 0 0 0 25.9-.6c9.6-1.9 19.7-5.8 30.2-10s20.5-8.5 30.1-10.8a77.1 77.1 0 0 1 26-2.2 48 48 0 0 1 16.9 4.8l2.4 1.3 1.7 1.2 1 .7a2 2 0 0 1 .3.2 2.2 2.2 0 0 1-.4-.2l-1-.7-1.7-1-2.5-1.3a48.8 48.8 0 0 0-16.8-4.6 77.3 77.3 0 0 0-25.8 2.3c-9.5 2.3-19.5 6.5-30 10.7s-20.6 8.2-30.3 10.1a69.7 69.7 0 0 1-26 .4 44.8 44.8 0 0 1-16.4-6.4l-2.3-1.6c-.6-.5-1-1-1.5-1.3l-1-.8-.2-.3ZM516.2 436.5a1.9 1.9 0 0 1-.4-.1l-1-.6-1.8-1-2.5-1a71.5 71.5 0 0 0-16.7-5 125.2 125.2 0 0 0-25.8-1.3c-9.7.4-20.4 1.5-31.6 1.9a160.5 160.5 0 0 1-56.8-8.3 145.9 145.9 0 0 1-16.2-6.5l-4.3-2.1-1-.6a2.4 2.4 0 0 1-.4-.2 2.3 2.3 0 0 1 .4.2l1 .5 4.4 2a157.8 157.8 0 0 0 16.2 6.3 162.6 162.6 0 0 0 56.6 8.1c11.3-.3 22-1.4 31.7-1.7a123.2 123.2 0 0 1 25.8 1.4 69.4 69.4 0 0 1 16.7 5 45.5 45.5 0 0 1 5.7 3ZM577.5 260.7a1.8 1.8 0 0 1-.5.2l-1.4.5c-.5.2-1.3.4-2 .8s-1.8.6-2.8 1l-3.3 1.7c-1.1.7-2.4 1.2-3.6 2a57 57 0 0 0-14.3 12.4c-1 1.1-1.8 2.2-2.5 3.3l-2 3-1.5 2.6a22.4 22.4 0 0 0-1 2l-.7 1.3-.3.4a1.7 1.7 0 0 1 .2-.5l.5-1.3 1-2 1.5-2.6 2-3.1 2.5-3.4a54.5 54.5 0 0 1 14.4-12.5c1.3-.8 2.5-1.5 3.7-2l3.3-1.6 2.8-1 2.2-.7 1.3-.4a2.5 2.5 0 0 1 .5 0ZM604 293a1.6 1.6 0 0 1-.2.5l-.5 1.2a21 21 0 0 1-1 2l-1.4 2.4c-.6 1-1.1 2-1.9 3l-2.3 3.2a57.5 57.5 0 0 1-13.4 12.3c-1.2.8-2.3 1.5-3.4 2l-3.1 1.7-2.6 1.2c-.7.4-1.5.5-2 .7l-1.3.5a1.4 1.4 0 0 1-.5 0 1.8 1.8 0 0 1 .4-.1l1.3-.5 2-1 2.6-1.1c1-.5 2-1 3-1.7l3.3-2.1a59.8 59.8 0 0 0 13.4-12.2c.9-1.1 1.7-2.1 2.4-3.2l1.9-2.8c.6-.8 1-1.8 1.4-2.5l1-1.9.7-1.2a1.9 1.9 0 0 1 .2-.4Z"/><path fill="#a86e63" d="M366.3 147.7a41.7 41.7 0 0 1 21.3-52.4l2-1c21.6-8.7 41 4.9 49.1 26.7l36 86a4.2 4.2 0 0 1-.7 4.4l-37 44.4-19.2-45s-21.8 6.4-31.5-13.8a746.7 746.7 0 0 1-20-49.3Z"/><path fill="#8c5249" d="M417.6 210.9s13.3-5.3 22.8-20.3c0 0 .7 17.5-20.4 25.2Z"/><path fill="#263238" d="M378.1 161.5c.6.2 2-2.5 5.1-4s6.1-1 6.3-1.4c.1-.3-.6-.8-2-1a8.8 8.8 0 0 0-5.2.7 8.4 8.4 0 0 0-3.8 3.6c-.6 1.2-.6 2-.4 2ZM409.8 148.5c.5.2 2-2.4 5-4s6.2-1 6.3-1.4c.1-.3-.6-.8-1.9-1a8.8 8.8 0 0 0-5.3.7 8.5 8.5 0 0 0-3.8 3.6c-.6 1.2-.6 2-.3 2ZM405.8 170c-.1-.1-2.2.5-5.5 1.5-.9.3-1.7.5-2 0a4.5 4.5 0 0 1-.6-2.6l-.5-7.1c-.8-10.2-1.8-18.4-2.2-18.3s0 8.3.7 18.4l.6 7.2c.1 1 .1 2.3 1 3.3a2.2 2.2 0 0 0 2 .5 5.7 5.7 0 0 0 1.4-.4c3.2-1.3 5.1-2.3 5-2.4ZM416 167.9c-.6.2 1 3.6-.8 7.3s-5.5 5.1-5.3 5.6c0 .2 1.1.3 2.6-.4a9.2 9.2 0 0 0 4.6-4.4 8 8 0 0 0 .4-6.1c-.6-1.5-1.4-2.1-1.6-2ZM399.6 129.9c.7.7 3.6-1.2 7.5-2.5s7.3-1.6 7.4-2.6c0-.5-.8-1-2.4-1.3a13.7 13.7 0 0 0-11.3 3.9c-1.1 1.1-1.5 2.1-1.2 2.5ZM372.2 146c1 .5 2.7-1.3 5.3-2.5s5-1.8 5.1-2.8c0-.4-.6-1-1.9-1.2a8 8 0 0 0-4.8.9 8.1 8.1 0 0 0-3.5 3.3c-.6 1.2-.6 2-.2 2.3Z"/><path fill="#a86e63" d="M442.7 137.5c.3-.3 12-10.7 18 3.3s-9.3 17.3-9.5 16.9l-8.5-20.2Z"/><path fill="#8c5249" d="M452 151s.4.2.9.2a2.7 2.7 0 0 0 1.8-.8c1.3-1.2 1.5-4 .5-6.6a8.8 8.8 0 0 0-2.2-3.2 3.1 3.1 0 0 0-2.7-1.1 1.4 1.4 0 0 0-1.1 1.3c0 .4.2.7 0 .7s-.3 0-.4-.7a1.8 1.8 0 0 1 .1-1.1 2 2 0 0 1 1.2-1 3.8 3.8 0 0 1 3.5 1.1 9.2 9.2 0 0 1 2.6 3.6c1 2.8.8 6.1-1 7.6a2.9 2.9 0 0 1-2.4.6c-.6-.2-.8-.5-.7-.5Z"/><path fill="#263238" d="M446 125.7c-1.8-8.1-3.3-16.6-7.7-23.7 0 0-5.8-7.7-13.7-10.3a54.4 54.4 0 0 0-41.7 2c-20.5 10.3-23.5 26.4-19.6 36.1 1.8 4.5.3-22 21.8-11.4 4-12 9.4-15.8 21-17.7a15 15 0 0 1 6.7.4c5.7 1.8 6 5.5 6.7 7.2 4.7 16.6 17.6 19.3 17.6 19.3l4.6 11c1 3.4 3.9 5.7 5.4 5.3l.8-9.6-2-8.6Z"/><path fill="#8c5249" d="M422.7 150a.4.4 0 0 0-.2-.8.4.4 0 0 0-.2.5.4.4 0 0 0 .4.3ZM416.2 151.5a.5.5 0 1 0-.5-.4.4.4 0 0 0 .5.4ZM412.1 153.3c.2-.1.3-.4.2-.7s-.4-.6-.6-.5-.2.4-.1.7.3.5.5.5ZM421.6 155.1c.2 0 .3-.2.2-.3s-.2-.2-.4-.1-.3.3-.3.4.3.1.5 0ZM415.5 156.4a.4.4 0 1 0-.5-.2.4.4 0 0 0 .5.2ZM385.6 166.4a.4.4 0 0 0 .2-.5.4.4 0 0 0-.4-.3.4.4 0 0 0-.3.5.4.4 0 0 0 .5.3ZM381.4 168a.5.5 0 0 0 .1-.6c0-.2-.3-.4-.5-.3a.4.4 0 0 0-.2.6.4.4 0 0 0 .6.3ZM389.2 164.8a.3.3 0 1 0-.5-.2.3.3 0 0 0 .5.2ZM388.1 170.3a.4.4 0 1 0-.4-.4.4.4 0 0 0 .4.4ZM384.3 171.2a.3.3 0 1 0-.5 0 .4.4 0 0 0 .5 0Z"/><path fill="#263238" d="M234.7 248a74.3 74.3 0 0 0-31.6-8.1l.2-.1a17.6 17.6 0 0 0 5.3-5.1 7.2 7.2 0 0 0 .5-7.1c-1.2-2.1-4.4-3.2-6.4-1.7a8.3 8.3 0 0 0 3.2-5.4 6 6 0 0 0-2.3-5.6 4.8 4.8 0 0 0-5.9.2c1.7-3.5 0-8-3.2-10.3s-7.4-2.6-11.3-2a9.6 9.6 0 0 0-4.9 2 4.3 4.3 0 0 0-1.3 4.8 12.2 12.2 0 0 0-22.4 8.3c-1.9-.7-3.9.7-5.1 2.3a12.5 12.5 0 0 0 4 18.7c-3 2.3-3 7-.6 9.9s6.6 3.5 10.2 2.5a6 6 0 0 0 8.7 7.3l.3-.1a46.1 46.1 0 0 0-5.1 13.4c-1.3 6.8-.6 13.9.1 20.8a30.4 30.4 0 0 0 1.5 7.8c1.5 4 6.5 13.3 9.5 16.3l69.3-51.3c.2-5.9-9-15.9-12.7-17.5Z"/><path fill="#bc857a" d="m271 416-9.7-12.8-28.8 16.5c.8 1 22.7 33.3 30.7 32.8s71.3-40.6 71.3-40.6l2.5-25.4ZM249.8 286c1.6-12.3-9.2-27-21.6-28.1l-40.8-.1-1.2 6.6L173 346s-1.4 20.5 21 23.3c20.1 2.5 22.9-12.4 22.9-12.4l2.7-16.5s17.4.2 23.3-17.4c3.3-10 5.2-23.4 7-37.1Z"/><path fill="#263238" d="M242.6 298a2.6 2.6 0 0 1-3 2 2.5 2.5 0 0 1-2.2-2.8 2.6 2.6 0 0 1 3-2.2 2.5 2.5 0 0 1 2.2 3ZM244.6 294c-.4.2-2.1-1.6-5-2.2s-5 .5-5.3.1c-.1-.2.4-.7 1.4-1.2a7.3 7.3 0 0 1 4.4-.5 7 7 0 0 1 3.8 2.1c.7.8.9 1.5.7 1.6ZM216 293.3a2.6 2.6 0 0 1-3 2.1 2.5 2.5 0 0 1-2.2-2.9 2.6 2.6 0 0 1 3-2.1 2.5 2.5 0 0 1 2.2 2.9ZM216.9 289.1c-.4.3-2-1.5-4.9-2s-5.1.4-5.4 0c0-.2.4-.7 1.4-1.2a7.2 7.2 0 0 1 4.4-.5 7 7 0 0 1 3.8 2.1c.7.9.9 1.5.7 1.6Z"/><path fill="#8c5249" d="M219.5 340.6a52.6 52.6 0 0 1-25.9-12.5s4.4 15.4 25.1 17.4Z"/><path fill="#263238" d="M214.2 309.6c.5 0-.1 3.1 2 5.8s5.6 3 5.5 3.4c0 .2-.8.4-2.2.2a7.8 7.8 0 0 1-4.6-2.7 6.8 6.8 0 0 1-1.5-4.8c.1-1.2.6-2 .8-1.9ZM220.7 281.3c-.6 1.3-4.1 0-8.5-.2s-8 .7-8.4-.5c-.1-.6.7-1.8 2.3-2.8a12 12 0 0 1 6.7-1.6 10.8 10.8 0 0 1 6.2 2.2c1.4 1.2 2 2.3 1.7 3ZM246.1 287.6c-.8 1-2.8-.6-5.5-1.2s-5.2-.2-5.5-1.5c-.2-.6.4-1.6 1.6-2.5a6.1 6.1 0 0 1 5-1 6.5 6.5 0 0 1 4 3.2c.7 1.3.8 2.5.4 3Z"/><path fill="#263238" d="M248.6 275.6s-3.2-10.4-8.5-8-10.6 3.5-13.8 1.2-9-6.3-17.6-5-12.8 8.4-14.5 20c-2.6 16.9-16.6 34.4-16.6 34.4s-8.2-7-6.3-17.4l.6-22.4s7.8-24.8 9.4-27.4 20.7-6.4 20.7-6.4 26.5-1.4 34.8 4.3c13.4 9.1 11.8 26.7 11.8 26.7Z"/><path fill="#bc857a" d="M193 290.3c-.3-.3-10.7-7.7-14.4 4.3s9 13.2 9.1 12.9l5.3-17.2Z"/><path fill="#8c5249" d="m185.5 301.8-.7.1a2.2 2.2 0 0 1-1.5-.4c-1.1-.9-1.6-3.2-1-5.4a7.4 7.4 0 0 1 1.6-2.8 2.5 2.5 0 0 1 2-1 1.1 1.1 0 0 1 1.1 1v.5c.1 0 .3 0 .4-.6a1.4 1.4 0 0 0-.3-.9 1.6 1.6 0 0 0-1-.7 3 3 0 0 0-2.7 1.2 7.3 7.3 0 0 0-1.8 3.1c-.7 2.5-.1 5.1 1.4 6.2a2.4 2.4 0 0 0 2 .2c.4-.2.6-.4.5-.5Z"/><path fill="#263238" d="M223.2 310.8a14.2 14.2 0 0 1 2.8.2l1.4.1a1.4 1.4 0 0 0 1.1-.6 1.4 1.4 0 0 0 .3-.6 2.8 2.8 0 0 0-.1-.9 230.5 230.5 0 0 1-1.4-8.4 15.1 15.1 0 0 1-.3-2.7 14.2 14.2 0 0 1 .7 2.7l1.2 6.5.3 1.9v.4a2.2 2.2 0 0 1 0 .5 1.9 1.9 0 0 1-.3 1 1.8 1.8 0 0 1-1.6.7l-1.4-.2a15 15 0 0 1-2.7-.6Z"/><path fill="#8c5249" d="M204.8 300.7c-.2 0-.3 0-.4-.2s-.1-.3 0-.4.3 0 .4.2 0 .3 0 .4ZM209.2 301.7v-.6c0-.3.2-.6.3-.5s.1.3 0 .6-.2.6-.3.5ZM213.6 301.6c-.1 0-.2-.3-.1-.5s.2-.3.3-.2.2.2.1.4-.2.3-.3.3ZM206.7 305.7s-.3-.1-.4-.4 0-.5 0-.5.3 0 .4.3.1.5 0 .6ZM210.6 305.2s-.1-.2 0-.4.3-.3.4-.3.1.3 0 .5-.3.3-.4.2ZM236.2 306.5c-.2 0-.3-.2-.4-.4l-.1-.6s.3 0 .5.4 0 .6 0 .6ZM239.1 307l.2-.6c.1-.3.4-.5.5-.4s0 .3-.2.6-.4.5-.5.4ZM242 308.1v-.5c0-.2.4-.4.5-.3s0 .3 0 .5-.4.4-.5.3ZM236.1 311.4s-.2 0-.3-.2v-.5s.2 0 .3.3.2.4 0 .4ZM239.2 311.1v-.3l.2-.3c.1 0 .2.2.1.4s-.1.3-.3.3ZM223.7 305.8c-.2 0-.2-.3-.1-.6s.2-.5.3-.4.2.3.1.5-.2.6-.3.5ZM231.2 305.3a.2.2 0 0 1-.2-.2.2.2 0 0 1 .2-.2.2.2 0 0 1 .3.2.2.2 0 0 1-.3.2ZM222.9 301.1c-.1 0-.3-.1-.3-.3s.1-.4.2-.4.3.1.3.4-.1.3-.2.3ZM217 304v-.5c0-.2.2-.4.3-.3s.2.2.1.4-.2.4-.3.3ZM223.7 294.1c-.1 0-.1-.2 0-.4s.1-.4.3-.4.1.3 0 .5-.2.4-.3.3Z"/><path fill="#455a64" d="m155.6 357.1-49.8 107.5h96.6l11-56.1 10.2 16.4 40.8-23.8s-34-54.6-40-58.8c-3.7-2.7-17.8-9.1-34-8.6a40 40 0 0 0-34.8 23.4Z"/><path fill="#fafafa" d="M205.6 448.3c0 .1-20.4.2-45.6.2s-45.6 0-45.6-.2 20.4-.3 45.6-.3 45.6.1 45.6.3ZM211.4 420.4a7.8 7.8 0 0 1-.9 0l-2.4-.1-9-.5a1261.8 1261.8 0 0 0-59-2h-11.3a4.3 4.3 0 0 1-.9 0 6.2 6.2 0 0 1 .9-.1h2.4l9-.2a927 927 0 0 1 67.9 2.6l2.4.3a4.4 4.4 0 0 1 .9 0ZM205 392.1c0 .2-14.3-.3-32-1.1s-31.9-1.5-31.8-1.7 14.3.4 31.9 1.2S205 392 205 392ZM258.2 388.8c.1.1-8.6 6.4-19.5 14.2s-19.6 13.8-19.7 13.7 8.6-6.5 19.5-14.2 19.6-13.8 19.7-13.7ZM239.5 363l-18.8 10.6c-10.4 5.8-19 10.2-19.1 10s8.3-4.8 18.8-10.5 19-10.2 19-10.1ZM227 344.9s-2.2-.2-5.7 0l-1.3.1-1.4.2-3.2.6a45.7 45.7 0 0 0-7 2.4 49.6 49.6 0 0 0-11.5 7l-1.8 1.6-1.3 1.1a8.2 8.2 0 0 1-1.1 1 8 8 0 0 1 1-1c.3-.4.7-.9 1.3-1.3s1-1 1.7-1.6a46.6 46.6 0 0 1 11.5-7.3 43.6 43.6 0 0 1 7-2.3l3.3-.6 1.5-.2h1.4a23.2 23.2 0 0 1 2.3 0 14 14 0 0 1 1.8 0 9.5 9.5 0 0 1 1.4.3ZM194 365.6c0 .1-9.4-.2-21-.7s-21.2-1-21.2-1.2 9.5.2 21.2.7 21 1 21 1.2ZM194.6 342c0 .2-6.1.4-13.6.4s-13.7 0-13.7-.2 6.1-.3 13.6-.3 13.7 0 13.7.2Z"/><path fill="#263238" d="M205.2 337.2a20.9 20.9 0 0 0-3 1 15 15 0 0 0-6.6 5.7 20.2 20.2 0 0 0-3 12.5c.2 5 2 10.2 4.1 15.5 4.4 10.6 8.8 20 12.1 26.7l4 8 1.1 2.2a4.6 4.6 0 0 1 .4.7 7.1 7.1 0 0 1-.5-.7l-1.2-2.1a343.6 343.6 0 0 1-16.3-34.6c-2.2-5.3-4-10.6-4.2-15.6a20.4 20.4 0 0 1 3.2-12.7 14.9 14.9 0 0 1 6.7-5.8 9 9 0 0 1 1.3-.5 5.5 5.5 0 0 1 1-.2 5.3 5.3 0 0 1 1 0Z"/><path fill="#d8b4a1" d="m235.4 421.6 82.7-19.2 55.5-113.2s26.3 15.2 23.1 39c-1.6 12.4-13.8 50.8-24.7 83a65 65 0 0 1-58.7 44.3l-90.7.3Z"/><path fill="#263238" d="m352.6 440-1.9 2a35.5 35.5 0 0 1-6.1 4.7 60.3 60.3 0 0 1-11.2 5.2 64.7 64.7 0 0 1-16 3.3c-12 1-26.4 1.4-42.5 1.5s-33.7-.1-52.4-.7h-.3l.1-.3 1.9-5 10.9-29.2v-.2h.1l41.9-10 17.9-4.1 15.4-3.6a72 72 0 0 1 12.9-1.7 34 34 0 0 1 9.7 1.1c.6.2 1.3.3 1.8.6l1.5.6 2.3 1.1 1.3.9.5.3-.5-.3-1.3-.8-2.3-1.1-1.6-.6-1.7-.5a34 34 0 0 0-9.6-1 72 72 0 0 0-12.8 1.7l-15.4 3.6-18 4.3-41.8 10 .2-.2-10.9 29.3-1.9 5-.2-.4c18.6.6 36.3.8 52.3.8s30.5-.4 42.6-1.5a64.7 64.7 0 0 0 15.8-3.2 60 60 0 0 0 11.2-5 36.7 36.7 0 0 0 6.2-4.7l1.4-1.4.5-.5Z"/><path fill="#263238" d="M349.8 329.1a4.2 4.2 0 0 1-.3.8l-1 2.1-3.7 7.9c-3 6.6-7 15.9-11.2 26.2a1360.8 1360.8 0 0 1-14.5 34.2l-1 2.2a4.8 4.8 0 0 1-.3.7 4.7 4.7 0 0 1 .2-.8l1-2.2 3.3-8 10.8-26.3a591.2 591.2 0 0 1 15.2-34l1-2.1a6.8 6.8 0 0 1 .5-.7Z"/><path fill="#fafafa" d="M365.5 329.2a26.7 26.7 0 0 1 2.6-1 38.2 38.2 0 0 0 6.1-3.2 39.8 39.8 0 0 0 5.4-4.3l2-2a11 11 0 0 1-1.8 2.2 31.1 31.1 0 0 1-5.3 4.5 30.2 30.2 0 0 1-6.2 3 10.8 10.8 0 0 1-2.8.8Z"/><path fill="#fafafa" d="M384.4 317.9c0 .1-.8.8-2 1.5a6.4 6.4 0 0 1-2.3 1.1 12.4 12.4 0 0 1 4.4-2.6Z"/><path fill="#fafafa" d="m383.3 316.9-1.2 1.7c-.7.9-1.3 1.6-1.4 1.5s.3-1 1-1.9 1.5-1.4 1.6-1.3Z"/><path fill="#fafafa" d="M381.7 316.2a4.5 4.5 0 0 1-.4 2.2 4.8 4.8 0 0 1-1 1.9 4.5 4.5 0 0 1 .5-2.1c.3-1.1.8-2 .9-2Z"/><path fill="#fafafa" d="M379.9 316.3c.1 0 .3.8.4 1.9s0 1.9-.2 1.9-.3-.8-.4-1.9 0-1.9.2-1.9ZM374.1 319s.3.4.4 1.2a7 7 0 0 1-1.9 5.9c-.5.6-1 .8-1 .8a12.4 12.4 0 0 0 2.2-3.7 12.5 12.5 0 0 0 .3-4.2Z"/><path fill="#fafafa" d="M375.4 316.8c.2 0 0 .9-.3 1.8s-1 1.6-1 1.6l.5-1.8c.3-1 .7-1.6.8-1.6Z"/><path fill="#fafafa" d="M373.9 316.4c.1-.1.5.7.6 1.7s-.4 1.8-.5 1.8V318c0-1-.3-1.7-.1-1.8Z"/><path fill="#fafafa" d="M372 317c.1 0 .7.4 1.2 1s1 1.4.9 1.5-.7-.4-1.3-1.1-1-1.3-.8-1.4Z"/><path fill="#fafafa" d="M371.8 319.1c0-.1.6-.2 1.4 0s1.3.3 1.3.5-.7.2-1.4 0-1.4-.4-1.4-.5ZM380.6 326.5a24.8 24.8 0 0 0-4-.5 25.6 25.6 0 0 0-4.2.7 8.1 8.1 0 0 1 8.2-.2Z"/><path fill="#fafafa" d="M383.4 324.2c0 .1-.6.7-1.6 1.3s-2 .7-2 .5.7-.5 1.7-1 1.8-.9 2-.8ZM383.7 327c0 .2-.8 0-1.8 0s-1.9-.5-1.9-.6 1-.2 2 0 1.8.6 1.7.7ZM381.8 329.6c-.2 0-.5-.7-1-1.4s-1-1.4-.9-1.5.8.4 1.3 1.2.7 1.6.6 1.7ZM379.1 329.3l.2-1.4c0-.7-.2-1.4 0-1.5s.5.6.5 1.5-.5 1.5-.7 1.4ZM369.4 379.7a25.6 25.6 0 0 1-1.5-2.4 38.8 38.8 0 0 0-4.2-5.5 40 40 0 0 0-5-4.5 27.6 27.6 0 0 1-2.4-1.7 10.8 10.8 0 0 1 2.5 1.4 30.5 30.5 0 0 1 9.4 10.1 11.5 11.5 0 0 1 1.2 2.6Z"/><path fill="#fafafa" d="M355 363c.1-.1 1 .7 1.9 1.8s1.5 2 1.4 2-1-.7-1.8-1.7a6.3 6.3 0 0 1-1.5-2.1Z"/><path fill="#fafafa" d="M354.2 364.3c0-.1.9.3 1.9.9s1.8 1 1.7 1-1 0-2-.6-1.7-1.2-1.6-1.3ZM353.9 366a4.5 4.5 0 0 1 2.1 0 4.7 4.7 0 0 1 2 .6 4.7 4.7 0 0 1-2 0 4.6 4.6 0 0 1-2.1-.6ZM354.2 367.8c0-.2.8-.5 1.8-.8s1.9-.3 1.9-.2-.8.5-1.8.7-1.8.4-1.9.3ZM357.9 373s.3-.4 1.1-.6a7 7 0 0 1 6.1.9c.7.4 1 .8 1 .9a12.3 12.3 0 0 0-4-1.6 12.5 12.5 0 0 0-4.2.4Z"/><path fill="#fafafa" d="M355.5 372s.8-.2 1.8 0 1.8.7 1.7.8-.8 0-1.8-.2-1.7-.4-1.7-.5Z"/><path fill="#fafafa" d="M355.3 373.6s.6-.6 1.6-.8 1.9 0 1.8.1l-1.7.4c-.9.2-1.6.5-1.7.3Z"/><path fill="#fafafa" d="M356.3 375.4c-.2 0 .2-.7.8-1.4s1.1-1.1 1.2-1-.2.7-.8 1.4-1.1 1.1-1.2 1Z"/><path fill="#fafafa" d="M358.4 375.3c-.2 0-.3-.7-.3-1.4s.1-1.4.2-1.4.3.6.3 1.4 0 1.4-.2 1.4ZM364.2 365.3a23.9 23.9 0 0 0 .2 4.1 26.1 26.1 0 0 0 1.3 4 6.7 6.7 0 0 1-1.8-3.9 6.5 6.5 0 0 1 .3-4.3Z"/><path fill="#fafafa" d="M361.4 363c.1-.2.8.4 1.5 1.3s1 1.8 1 1.8l-1.4-1.5c-.7-.9-1.2-1.6-1-1.7ZM364.2 362c.1 0 .2 1 .1 2s0 1.8-.2 1.9-.3-.9-.3-2 .3-1.8.4-1.8ZM367 363.6l-1.2 1.2c-.7.6-1.2 1.2-1.3 1.1s.2-.8 1-1.5 1.4-1 1.5-.8ZM367.2 366.2c0 .2-.7 0-1.5.2s-1.3.4-1.4.2.5-.6 1.4-.8 1.5.3 1.5.4ZM319.6 438.2a27.8 27.8 0 0 1-1.5-2.4 37.9 37.9 0 0 0-4.2-5.5 37.2 37.2 0 0 0-5-4.5 26.1 26.1 0 0 1-2.3-1.8 11 11 0 0 1 2.5 1.5 30.5 30.5 0 0 1 9.3 10 10.5 10.5 0 0 1 1.2 2.7Z"/><path fill="#fafafa" d="M305.3 421.5c0-.1.9.7 1.8 1.7a6.4 6.4 0 0 1 1.5 2.1c-.2.1-1-.7-1.9-1.7s-1.6-2-1.4-2.1Z"/><path fill="#fafafa" d="M304.4 422.8c.1-.1 1 .3 2 .9s1.7 1 1.7 1-1 0-2-.6-1.8-1.2-1.7-1.3ZM304 424.4a9.2 9.2 0 0 1 4.3.7 4.5 4.5 0 0 1-2.1 0c-1.2-.3-2.1-.5-2.1-.7Z"/><path fill="#fafafa" d="M304.5 426.3c0-.2.7-.5 1.7-.8s1.9-.3 2-.2-.8.5-1.8.7-2 .4-2 .3ZM308 431.4l1.2-.6a6.9 6.9 0 0 1 3.2-.2 7 7 0 0 1 3 1.1c.6.5 1 .9.9 1a12.6 12.6 0 0 0-4-1.6 13 13 0 0 0-4.2.3Z"/><path fill="#fafafa" d="M305.7 430.5c0-.1.9-.2 1.9 0s1.7.7 1.7.8-.9 0-1.8-.2-1.8-.4-1.8-.6Z"/><path fill="#fafafa" d="M305.5 432.1c0-.1.6-.6 1.6-.9s1.9 0 1.9.2-.8.2-1.8.4-1.6.4-1.7.3Z"/><path fill="#fafafa" d="M306.5 434c-.1-.2.3-.8.8-1.5s1.1-1.1 1.3-1-.3.7-.9 1.4-1 1.1-1.2 1Z"/><path fill="#fafafa" d="M308.6 433.8c-.1 0-.3-.7-.3-1.4s.1-1.4.3-1.4.3.6.3 1.4-.1 1.4-.3 1.4ZM314.4 423.7a25 25 0 0 0 .2 4.2 24.2 24.2 0 0 0 1.4 4 8 8 0 0 1-1.6-8.2Z"/><path fill="#fafafa" d="M311.7 421.4c0-.1.8.5 1.5 1.4s1 1.7.9 1.8-.7-.6-1.4-1.5-1.1-1.6-1-1.7ZM314.4 420.6c.2 0 .2.8.2 1.9s0 1.8-.2 1.8-.4-.8-.3-1.8.2-2 .3-2ZM317.2 422c0 .2-.5.7-1.2 1.3s-1.1 1.2-1.3 1.1.2-.8 1-1.5 1.4-.9 1.5-.8ZM317.4 424.7c0 .2-.7 0-1.4.2s-1.4.3-1.5.2.5-.6 1.4-.8 1.6.3 1.5.4ZM344 421.9a25.1 25.1 0 0 1 2-2.1 37 37 0 0 0 7.1-11.6 25 25 0 0 1 1-2.6 10.7 10.7 0 0 1-.7 2.7 30.3 30.3 0 0 1-7.2 11.7 11.3 11.3 0 0 1-2.2 1.9Z"/><path fill="#fafafa" d="M356.3 403.6a6.4 6.4 0 0 1-1.2 2.2c-.7 1.2-1.5 2-1.6 2a6.4 6.4 0 0 1 1.2-2.2c.8-1.2 1.5-2 1.6-2Z"/><path fill="#fafafa" d="M354.9 403.1c.1.1-.1 1-.4 2s-.4 2-.6 2a3.6 3.6 0 0 1 .1-2c.3-1.2.7-2 .9-2Z"/><path fill="#fafafa" d="M353.2 403.3a9 9 0 0 1 .5 4.2 4.7 4.7 0 0 1-.5-2 4.5 4.5 0 0 1 0-2.3ZM351.5 404c.2 0 .7.7 1.2 1.6s.8 1.7.7 1.8-.6-.6-1.2-1.5-.8-1.7-.7-1.8ZM347.5 409s.4.3.9 1a7 7 0 0 1 .8 6c-.3.8-.6 1.2-.7 1.2a12.6 12.6 0 0 0 .4-4.2 12.2 12.2 0 0 0-1.4-4Z"/><path fill="#fafafa" d="M347.7 406.4c.2 0 .5.8.5 1.8s-.1 1.9-.3 1.9-.1-.9-.2-1.9-.1-1.7 0-1.8Z"/><path fill="#fafafa" d="M346.2 406.7c0-.1.8.4 1.2 1.3s.5 1.8.4 1.8l-.8-1.6c-.4-.9-1-1.4-.8-1.5Z"/><path fill="#fafafa" d="M344.7 408s.7.1 1.5.5 1.5.8 1.4 1-.8-.1-1.6-.5-1.4-.8-1.3-1Z"/><path fill="#fafafa" d="m345.4 410 1.3-.6c.7-.2 1.3-.2 1.3 0s-.5.3-1.2.6-1.4.2-1.4 0ZM356.6 413a24.3 24.3 0 0 0-4 1.3 25.2 25.2 0 0 0-3.4 2.3 8.1 8.1 0 0 1 7.3-3.6Z"/><path fill="#fafafa" d="M358.1 409.8c.1 0-.2.9-1 1.7s-1.3 1.5-1.4 1.4.4-.8 1-1.7 1.3-1.5 1.4-1.4ZM359.6 412.2c0 .1-.8.4-1.7.6s-1.9.5-2 .4.8-.6 1.8-.9 2-.2 2 0ZM359 415.3l-1.6-.9c-.8-.5-1.4-.8-1.4-1s.9 0 1.7.6 1.3 1.2 1.2 1.3ZM356.4 416.2l-.5-1.4c-.3-.7-.7-1.2-.6-1.3s.7.3 1.1 1.1.2 1.6 0 1.6ZM255.8 441.8a26.3 26.3 0 0 1 2-2 39.1 39.1 0 0 0 4-5.5 38.6 38.6 0 0 0 3.1-6.1 25.9 25.9 0 0 1 1-2.7 10.6 10.6 0 0 1-.7 2.8A30.1 30.1 0 0 1 258 440a10.5 10.5 0 0 1-2.2 1.8Z"/><path fill="#fafafa" d="M268 423.6a6.4 6.4 0 0 1-1.1 2.2c-.8 1.2-1.5 2-1.6 2a6.6 6.6 0 0 1 1.2-2.2c.7-1.2 1.5-2.1 1.6-2Z"/><path fill="#fafafa" d="M266.6 423.1c.1 0 0 1-.3 2s-.5 2-.6 2a3.6 3.6 0 0 1 0-2c.3-1.2.8-2 1-2Z"/><path fill="#fafafa" d="M265 423.2a8.9 8.9 0 0 1 .4 4.3 8.9 8.9 0 0 1-.5-4.3ZM263.3 424l1.1 1.6c.6.9.9 1.7.8 1.7s-.7-.6-1.2-1.5-.8-1.7-.7-1.8ZM259.2 429s.5.2 1 .9a7 7 0 0 1 .7 6c-.3.9-.6 1.3-.6 1.2a12.5 12.5 0 0 0 .4-4.2 12.3 12.3 0 0 0-1.5-4Z"/><path fill="#fafafa" d="M259.5 426.4c.1 0 .4.8.5 1.8s-.2 1.8-.3 1.8l-.2-1.8c0-1-.2-1.8 0-1.8Z"/><path fill="#fafafa" d="M258 426.6s.7.4 1.2 1.4.5 1.7.3 1.8-.4-.8-.8-1.6-.9-1.5-.8-1.6Z"/><path fill="#fafafa" d="M256.4 428s.8.1 1.6.5 1.4.8 1.3.9-.7 0-1.5-.4-1.4-.8-1.4-1Z"/><path fill="#fafafa" d="M257.1 430s.6-.4 1.3-.6 1.4-.2 1.4-.1-.5.4-1.3.6-1.3.3-1.4.2ZM268.3 433a25 25 0 0 0-4 1.3 24.6 24.6 0 0 0-3.4 2.3 8.1 8.1 0 0 1 7.4-3.6Z"/><path fill="#fafafa" d="M269.9 429.7s-.3 1-1 1.8-1.4 1.5-1.5 1.4.4-.8 1.1-1.7 1.3-1.6 1.4-1.5ZM271.4 432.2c0 .1-.8.4-1.8.6s-1.8.5-1.9.3.8-.5 1.8-.8 1.9-.3 1.9-.1ZM270.7 435.3l-1.5-.9c-.8-.5-1.5-.8-1.4-1s.8 0 1.7.6 1.3 1.2 1.2 1.3ZM268.2 436.1c-.2 0-.2-.6-.5-1.3s-.7-1.2-.7-1.4.8.3 1.2 1.2.1 1.6 0 1.5Z"/><path fill="#ffbe9d" d="M138 375.1a10.8 10.8 0 0 0-3.8 11.1c1.7 7.2 11.4 29.5 11.4 29.5s9.7 13 13.3 13.8 12.5 1.1 12.5 1.1 1.1-2.2-2-2.7-8.2-4.8-8.2-4.8l-7-9.1s10.2 8.3 13.6 9.4 16.3 1.7 16.3 1.7l5.3-10-3-6.4-8-4.1L166 392v-4.8l9 6.4s7.2 5 11.5 1.1l-7.7-6.4s-10.9-11.9-13.6-13.3-13.6-3.9-13.6-3.9Z"/><path fill="#eb996e" d="M186.2 420.4a5.7 5.7 0 0 1-1.2.2 12.3 12.3 0 0 1-1.5.1h-1.9a27.8 27.8 0 0 1-5-.5 28.8 28.8 0 0 1-11.2-5 27.6 27.6 0 0 1-3.8-3.2l-1.2-1.5a11.6 11.6 0 0 1-1-1.1 5.4 5.4 0 0 1-.6-1.1c.1 0 1.1 1.4 3.1 3.4a29 29 0 0 0 3.8 3.2 32.8 32.8 0 0 0 5.2 3 34 34 0 0 0 5.8 1.9 31 31 0 0 0 5 .6h4.5ZM187.6 417.3a6.1 6.1 0 0 1-1.2-.2c-.8-.1-2-.3-3.4-.7a32.3 32.3 0 0 1-10.4-4.2 23.2 23.2 0 0 1-4.6-4.2l-3.2-4c-.9-1.1-1.7-2-2.3-2.5a8 8 0 0 1-.8-.9 5 5 0 0 1 1 .8 28.5 28.5 0 0 1 2.4 2.4l3.3 3.9a23.4 23.4 0 0 0 4.5 4 34.7 34.7 0 0 0 10.2 4.4l3.3.9a5.4 5.4 0 0 1 1.2.3Z"/><path fill="#ffbe9d" d="M196.1 389.5a1.7 1.7 0 0 0-2.6 1.2 14.2 14.2 0 0 0 .1 4.8c.8 3.6 7 7.5 7 7.5l9.3 9.4h-12.6l-7.4 9.2 1.7 6.5 9.8 23 22.3 1.7 11.2-29.9s-16.7-21.3-18.6-22.1l-10.6-4.4Z"/><path fill="#eb996e" d="M210 410.4a2.7 2.7 0 0 1 0 1.4 7.5 7.5 0 0 1-1.4 3.2 7.6 7.6 0 0 1-2.7 2.3 2.8 2.8 0 0 1-1.3.4 12 12 0 0 0 3.6-3 11.8 11.8 0 0 0 1.8-4.3Z"/><path fill="#263238" d="M531.4 191.7c0-3 3-7 5.4-8.8a20.5 20.5 0 0 1 8.5-3.5 43.4 43.4 0 0 1 42.3 15.9c2 2.6 3.7 5.7 3.9 9s-1.8 6.9-5 7.7a7 7 0 0 1-.7 12.4c1.5 4.5-1 9.3-4 13-11.4 14.2-30.5 20.7-48.8 20.5-6.2 0-12.7-1-17.8-4.6-7.4-5.2-10.2-14.8-11.6-23.7a4 4 0 0 1-5 2.3 5.4 5.4 0 0 1-3.3-4.8 8.8 8.8 0 0 1 2-5.7 10 10 0 0 1-4 .7 3.4 3.4 0 0 1-3.2-2.4 3.8 3.8 0 0 1 1.7-3.5c1-1 2.4-1.4 3.5-2.3 4.1-3 4.4-9 6.3-13.7a19.6 19.6 0 0 1 29.8-8.5"/><path fill="#ffbe9d" d="M580.1 215.6c-2.2-12-16.6-22.5-28.5-19.8l-38.2 12.1 1 6.5 12 80.2s6.4 25.6 28.2 21.5c19.5-3.7 16-24.4 16-24.4l-1.8-11.3s15-4.4 15.9-25c.4-10.1-2.1-26.5-4.6-39.8Z"/><path fill="#263238" d="M573.7 232.4a2.6 2.6 0 0 1-2.2 2.9 2.5 2.5 0 0 1-2.9-2 2.6 2.6 0 0 1 2.2-3 2.5 2.5 0 0 1 3 2ZM577.7 225.3c-.3.4-2.4-.9-5.2-.5s-4.7 2-5 1.7c-.2-.2 0-.8.9-1.6a7.2 7.2 0 0 1 4-1.7 6.9 6.9 0 0 1 4.2.8c.9.6 1.2 1.1 1 1.3ZM548.4 235.7a2.6 2.6 0 0 1-2.2 2.9 2.5 2.5 0 0 1-3-2 2.6 2.6 0 0 1 2.2-3 2.5 2.5 0 0 1 3 2ZM550.9 229.4c-.3.4-2.4-.8-5.2-.5s-4.7 2-5 1.7c-.2-.2 0-.8.9-1.6a7 7 0 0 1 4-1.7 6.8 6.8 0 0 1 4.1.8c1 .6 1.3 1.1 1.2 1.3ZM562.9 247.8c0-.2 1.7-.6 4.4-1.3.7-.1 1.4-.3 1.5-.8s-.3-1-.7-1.7l-2.6-4.3c-3.6-6.2-6.4-11.3-6-11.4s3.5 4.7 7.1 10.9l2.5 4.4a3 3 0 0 1 .7 2.3 1.8 1.8 0 0 1-1 1 5.8 5.8 0 0 1-1.3.3 21.5 21.5 0 0 1-4.6.6Z"/><path fill="#eb996e" d="M568.8 280.4a51.6 51.6 0 0 1-27.9-4s8.7 13.1 28.6 8.8Z"/><path fill="#263238" d="M555.3 248c.5 0 .8 3 3.7 4.8s6 1 6 1.5c.1.2-.6.7-2 .9a7.5 7.5 0 0 1-5-1.1 6.5 6.5 0 0 1-2.9-4c-.2-1.3 0-2.1.2-2.1ZM551 223.7c-.4 1-3.2.6-6.4 1.2s-6 1.8-6.4 1c-.2-.5.2-1.5 1.3-2.5a9.1 9.1 0 0 1 4.7-2.3 8.2 8.2 0 0 1 5 .7c1.2.6 1.8 1.4 1.7 1.9ZM576.7 218.5c-.4 1.1-3 1-6 1.7s-5.2 2.2-6 1.5c-.4-.4-.3-1.4.6-2.6a7.8 7.8 0 0 1 4.3-3 8 8 0 0 1 5.3.5c1.3.6 1.9 1.4 1.8 2Z"/><path fill="#eb996e" d="M545.3 245.4h-.3l-.2-.4h.4c.1 0 .2.3.1.4ZM549.8 245l-.3-.5.2-.6c.1 0 .3.2.3.6s0 .6-.2.6ZM553.9 243.6c-.2 0-.3-.2-.3-.4s.1-.3.2-.3.3.1.3.3-.1.4-.2.4ZM548.7 249.5c-.1 0-.3 0-.5-.2s-.3-.5-.2-.5.3 0 .5.2.3.4.2.5ZM552.2 247.9l-.2-.4c0-.2.2-.3.3-.3s.2.2.1.4 0 .3-.2.3ZM576.4 241.5l-.5-.3-.3-.5c0-.1.4 0 .6.2s.3.5.2.6ZM579.3 241v-.5c0-.3.2-.6.3-.5s.2.3 0 .6-.2.5-.3.5ZM582.3 241.2v-.5c0-.3.1-.4.3-.4s.1.2 0 .5-.2.4-.3.4ZM577.8 246c0 .2-.2 0-.4 0s-.2-.4 0-.5.2 0 .3.2.2.3.1.4ZM580.6 244.9l-.2-.3c0-.1.1-.3.3-.3s.2 0 .2.3-.1.3-.3.3ZM564.5 244.6l-.2-.6c0-.3 0-.5.2-.5s.2.2.2.5 0 .6-.2.6ZM571.4 241.8a.2.2 0 0 1-.2 0 .2.2 0 0 1 .4-.2.2.2 0 0 1-.2.2ZM562.4 240.4c-.1 0-.3 0-.3-.2v-.5l.4.3-.1.4ZM557.8 244.8l-.2-.4c0-.2 0-.4.2-.4s.2.1.2.4 0 .4-.2.4ZM561 233.6l-.1-.4c0-.3 0-.4.2-.4s.2.2.2.4 0 .4-.2.4Z"/><path fill="#ffbe9d" d="M519 237.6c-.5 0-16-2-13.1 13s17.3 9.1 17.3 8.7l-4.3-21.7Z"/><path fill="#eb996e" d="m518.8 254.2-.6.5a2.6 2.6 0 0 1-2 .4c-1.7-.2-3.5-2.5-4.1-5.2a8.8 8.8 0 0 1 0-4 3 3 0 0 1 1.6-2.3 1.3 1.3 0 0 1 1.7.4c.3.4.2.7.3.7s.3-.3 0-.9a1.7 1.7 0 0 0-.7-.8 2 2 0 0 0-1.5-.1 3.8 3.8 0 0 0-2.3 2.8 9.1 9.1 0 0 0-.1 4.4c.6 3 2.7 5.6 5 5.8a2.9 2.9 0 0 0 2.3-.8c.5-.5.5-.9.4-.9Z"/><path fill="#263238" d="M578 200c-2.8-4-7.8-6-12.6-6.6s-9.8.2-14.7 1l-40.9 9.4 3.4 33 4.3 4.9 3.6 2.9c4-2 7.6-7.9 7-14.3a14.3 14.3 0 0 0 9.1-8.7 18.8 18.8 0 0 0 0-12.8 14 14 0 0 0 8.6 6.8 9 9 0 0 0 4.4.1c4.2-1 6.3-6.7 3.9-10.2a29.3 29.3 0 0 0 14.6 7.6c3.3.6 7.1.5 9.5-1.9 3-2.8 2.3-7.9-.1-11.2Z"/><path fill="#455a64" d="M641 379c4.6 1.7 9.8-1.2 12.3-5.3s2.9-9.1 3-14c0-2.5.4-5.7 2.8-6.3 1.6-.4 3.2.6 4.4 1.7a21.2 21.2 0 1 1-29.2 30.8"/><path fill="#d8b4a1" d="m604.4 292.4-34.3-4c-12.1 8.8-27.3 5.5-44.1 0l-35 14 25 104-5.1 58.8 122-.5-11.4-132Z"/><path fill="#455a64" d="M533.9 312.2c4.5 5.9 12 10 17.3 15.5 2.7 2.7 9 5.6 12.4 7.5a29.7 29.7 0 0 0 7.8 2.5q9.8 2.3 19.5 5.3c2.7.8 5.5 1.7 7.6 3.5a19.4 19.4 0 0 1 3.6 4.3c4.6 6.7 13 14 11 21.8-.5 1.4-3.7 14.4-3.7 14.4l-66.8 21-32-64.3-2.2-29.2Z"/><path fill="#d8b4a1" d="M494 299.8s-16.4 7.8-17.4 22.7c-.9 13 3.5 44.6 6.2 58.8 3.3 17.8 13.6 32.3 21.2 34s64.4-20 64.4-20l27.1-10-13.5-26.6s-54.9 17.6-57 16.1-31-75-31-75Z"/><path fill="#d8b4a1" d="M542.6 408c-.7-.1-.5 20.5.7 26s88.4-13.5 96.8-22.5 5-22.7 5-22.7l-12-62.9c-4-16.2-9.7-28.5-24.3-32.3l-4.4-1.2 3.4 42.2 3.8 51.2Z"/><path fill="#263238" d="M623.7 393.2a13.7 13.7 0 0 0-2.3-2.5 15 15 0 0 0-8.4-3.2 23.6 23.6 0 0 0-6.4.5 63.1 63.1 0 0 0-7 2l-16 5.1-29 9.4-8.8 2.8-2.4.7a4 4 0 0 1-.9.2s.3 0 .8-.3l2.4-.8 8.8-3 29-9.4 16-5.2a60.5 60.5 0 0 1 7-2 24.3 24.3 0 0 1 6.5-.4 14.9 14.9 0 0 1 8.5 3.4 10.7 10.7 0 0 1 1.7 2l.4.5v.2Z"/><path fill="#ffbe9d" d="M607.9 358.3c.7-2.8-1.5-6.6-3-5.5-.2.2 4.3-8.2-1.8-8.6a4.7 4.7 0 0 0-1.5.2 14.7 14.7 0 0 0-5.2 2.7c-1 .8-2.2 1.3-2-.9a10.4 10.4 0 0 0-2.6-8.2c-.8-.8-2.8.8-2.6 4.5a16 16 0 0 1-3 10.3c-1.2 2-2.7 9-2.7 9l10.5 21s12.6-7.6 14-17c.7-5.2-.8-5-.1-7.5Z"/><path fill="#263238" d="M676 373c-.2 0 0-1.2-.2-3.2a34 34 0 0 0-1-7.6 34.5 34.5 0 0 0-3-7.1l-1.5-2.9.6.7a22.1 22.1 0 0 1 1.3 2 29 29 0 0 1 4 15 20.7 20.7 0 0 1-.1 2.3 2.6 2.6 0 0 1-.2.8ZM683.1 371.1l.6-3.6a31.7 31.7 0 0 0 .1-4 33.2 33.2 0 0 0-.5-4.9 34.5 34.5 0 0 0-1.3-4.6 32.3 32.3 0 0 0-1.6-3.6c-1-2-2-3.2-1.8-3.2a3.4 3.4 0 0 1 .6.7 20.2 20.2 0 0 1 1.5 2.3 27.1 27.1 0 0 1 1.7 3.6 30 30 0 0 1 1.4 4.8 30.5 30.5 0 0 1 .5 5 26.2 26.2 0 0 1-.3 4 19.4 19.4 0 0 1-.6 2.6 3.5 3.5 0 0 1-.3 1ZM656.2 344.9a39.6 39.6 0 0 0-5.6 4.9 39.2 39.2 0 0 0-4.2 6.1 6.8 6.8 0 0 1 .8-2 20.3 20.3 0 0 1 3-4.5 20.6 20.6 0 0 1 4-3.5 7.1 7.1 0 0 1 2-1ZM656.2 339.9a25 25 0 0 0-5.5 1.8 24.1 24.1 0 0 0-4.6 3.5 11.9 11.9 0 0 1 10.1-5.3Z"/><path fill="#ebebeb" d="M663.4 356.2a19.4 19.4 0 0 0 2.3 24.5c.3.4.7.7 1.2.6a1.4 1.4 0 0 0 .8-.8 21 21 0 0 0-3.7-24.7M586.5 341.7c1 2.8.5 5-.7 7.7a12 12 0 0 1-6.4 6 6.8 6.8 0 0 1-4.7.3 3.8 3.8 0 0 1-2.6-3.7c.2-1.5 1.5-3 1-4.4-.5-1.1-2-1.5-3-2.3a4.7 4.7 0 0 1-1.5-3.8 13.9 13.9 0 0 1 1-4.2Z"/><path fill="#263238" d="M606.7 320.6a3.4 3.4 0 0 1 0 .7l.2 1.9.5 7c.4 5.9 1.2 14 2 23a1002.7 1002.7 0 0 1 2.2 30v2a2.8 2.8 0 0 1 0 .6 3.5 3.5 0 0 1 0-.7l-.2-1.9-.5-7-2-23a1002.5 1002.5 0 0 1-2.2-30v-2a2.8 2.8 0 0 1 0-.6Z"/><path d="M490.4 321.6a6.9 6.9 0 0 0 .8 8.8c1 1 2.2 1.6 3 2.7 1.5 2.5-.2 5.6.2 8.5.8 6 9.6 7.4 11.8 13 1.6 4-.6 8.4-2.5 12.2-2.7 5.3-4.8 11-4.4 17s4 11.9 9.6 13.7a13 13 0 0 0 10.6-1.5 16.4 16.4 0 0 0 6.7-8.4c2.1 2.5 4.6 5 7.6 6.1s7 .8 9.2-1.5c2.7-2.8 2.6-7.2 4.5-10.4 2.2-3.7 6.5-5.3 10.2-7.3s7.4-5.6 6.8-9.8a95.8 95.8 0 0 0-22 5.6c-4.7 1.8-9.9 4-14.4 2-3.9-1.8-5.9-6-7.6-10l-10-23c-4-9.4-8.6-19.3-17.4-24.2" opacity=".3"/><path fill="#455a64" d="M514.6 350.3c.5 2.5 3.4 8.3 3.7 10.5.5 2.8-1.5 4.6-3.6 6.7-4 4.1-7.8 8.8-9.4 14.4s-.6 12.2 3.8 16a8 8 0 0 0 6.6 2 7.6 7.6 0 0 0 5.5-5.3c.8-2.6.2-4.8-.4-7.5a9.1 9.1 0 0 1 .1-4.8c.6-1.5 2.3-2.3 3.7-3.1a30 30 0 0 0 10.8-10.4l-2.8 1a8.5 8.5 0 0 0 1.4-4.6l-.8 2.3a27.3 27.3 0 0 0-7-14.8"/><path fill="#263238" d="m526 352.8.1.2.5.6 1.8 2.5a32 32 0 0 1 4.3 10.5h-.3l1.4-2.1.3-.6v.7a11.8 11.8 0 0 1-1.6 6l-.3-.2 2.5-1.2.6-.2-.3.5a19.6 19.6 0 0 1-4.9 6.3 29 29 0 0 1-3.4 2.5l-3.8 2.2a5.3 5.3 0 0 0-1.5 1.5 4.1 4.1 0 0 0-.6 2 18 18 0 0 0 .6 4.6 13.7 13.7 0 0 1 .2 4.8 8.7 8.7 0 0 1-1.9 4.6 7 7 0 0 1-6 2.3 8.6 8.6 0 0 1-5.5-2.9 16.8 16.8 0 0 1-4-11 18.7 18.7 0 0 1 3-10.1l2.9-4a36.7 36.7 0 0 1 2.9-3.3c2-2 4.1-3.6 5-5.7a4.4 4.4 0 0 0 0-3 17.8 17.8 0 0 0-.8-2.4l-1.3-3.4a6.7 6.7 0 0 1-.2-1.3s0 .4.3 1.2l1.4 3.4a18.9 18.9 0 0 1 1 2.5 4.6 4.6 0 0 1-.2 3.1 9.2 9.2 0 0 1-2 3l-3 2.9a36 36 0 0 0-2.7 3.4l-2.9 3.8a18.4 18.4 0 0 0-2.9 10 16.3 16.3 0 0 0 3.9 10.6 8 8 0 0 0 5.2 2.7 6.6 6.6 0 0 0 5.5-2.1 8.4 8.4 0 0 0 1.8-4.4 13 13 0 0 0-.3-4.6 19 19 0 0 1-.5-4.7 4.7 4.7 0 0 1 .7-2.3 5.8 5.8 0 0 1 1.6-1.6l3.8-2.3a30.6 30.6 0 0 0 3.4-2.5 19.2 19.2 0 0 0 4.8-6l.3.3-2.5 1-.6.3.3-.5a11.6 11.6 0 0 0 1.6-5.9l.3.1-1.3 2.1-.3.4v-.4a33 33 0 0 0-4.2-10.5l-1.7-2.5-.5-.6c-.2-.1 0-.3 0-.3Z"/><path fill="#263238" d="M511.9 399.7a4.1 4.1 0 0 1-2.7-4.6 16.4 16.4 0 0 0 1 2.6c.7 1.3 1.8 1.9 1.7 2ZM516 400a4.7 4.7 0 0 1-2.7-2.2 5.6 5.6 0 0 1-1-3.3c.1 0 .5 1.5 1.5 3s2.4 2.3 2.3 2.4ZM520.5 396.5a5.5 5.5 0 0 1-4.3-3.6c0-.1.7 1 2 2s2.3 1.5 2.3 1.6Z"/><path fill="#455a64" d="M543.7 344.8c1.3 1.6 2.8 3.6 2.7 5.7-.2 3-3 4.9-5.4 6.4-4.8 3.2-9.6 7-12.3 12s-3.2 11.9.3 16.5a8 8 0 0 0 6 3.5 7.6 7.6 0 0 0 6.5-4.1c1.4-2.4 1.3-4.7 1.3-7.3a9.2 9.2 0 0 1 1.1-4.7c1-1.4 2.7-1.8 4.3-2.3a30 30 0 0 0 12.8-7.8l-3 .4a8.6 8.6 0 0 0 2.4-4.3L559 361a27.4 27.4 0 0 0-3.6-16"/><path fill="#263238" d="M531.3 387.8a4.1 4.1 0 0 1-1.7-5 17 17 0 0 0 .4 2.6 17.7 17.7 0 0 0 1.3 2.4ZM535.3 388.9a4.7 4.7 0 0 1-2.2-2.7 5.6 5.6 0 0 1-.3-3.5c.1 0 .1 1.6.8 3.3a19 19 0 0 0 1.7 2.9ZM540.4 386.5a5.5 5.5 0 0 1-3.5-4.5c.2 0 .6 1.2 1.5 2.4s2 2 2 2.1Z"/><path fill="#ebebeb" d="M546 355.8c-1.5-1-2.8 0-4.4.9a57.4 57.4 0 0 0-6 4.2c-1.2 1-3.3 2.6-3.2 3.1v.3a4.2 4.2 0 0 0 6.5 1.6c1.2-1 2-3 3.7-3.2 1 0 1.9.5 2.8.3 1.4-.3 2-2 2-3.3s-.3-3-1.4-3.9Z"/><path fill="#263238" d="M555.1 345a1 1 0 0 1 .1.3l.4.7 1.2 2.8a32 32 0 0 1 2 11.2l-.3-.2 1.8-1.8.4-.4v.6a11.9 11.9 0 0 1-3 5.6l-.2-.3 2.7-.6.6-.1-.4.4a19.5 19.5 0 0 1-6 5 28.4 28.4 0 0 1-3.8 1.7c-1.3.6-2.7 1-4 1.4a4.6 4.6 0 0 0-3 2.7 14.6 14.6 0 0 0-.6 4.5 15.4 15.4 0 0 1-.6 4.6 9.5 9.5 0 0 1-2.5 4.2 7 7 0 0 1-6 1.7 8.2 8.2 0 0 1-5.1-3.5 16.3 16.3 0 0 1-2.2-11.2 18.7 18.7 0 0 1 4.5-9.5 33.5 33.5 0 0 1 3.5-3.2l3.4-2.8c2.3-1.7 4.6-2.7 6.2-4.2a5.6 5.6 0 0 0 1.6-2.5 6.7 6.7 0 0 0 .2-2.5 9.2 9.2 0 0 0-1.2-3.4l-.7-1a4.7 4.7 0 0 1 .8 1 8.8 8.8 0 0 1 1.3 3.4 6.7 6.7 0 0 1-.1 2.6 5.8 5.8 0 0 1-1.7 2.7c-1.6 1.6-4 2.6-6.2 4.3L535 362a33.4 33.4 0 0 0-3.5 3.2 18.4 18.4 0 0 0-4.4 9.1 16.5 16.5 0 0 0 0 5.6 17.4 17.4 0 0 0 .8 2.7 10.2 10.2 0 0 0 1.3 2.6 7.6 7.6 0 0 0 4.8 3.3 6.5 6.5 0 0 0 5.6-1.6 9 9 0 0 0 2.4-4 14.8 14.8 0 0 0 .5-4.5 14.8 14.8 0 0 1 .6-4.6 4.3 4.3 0 0 1 1.4-1.9 6.5 6.5 0 0 1 2-1c1.4-.6 2.7-1 4-1.4a27.6 27.6 0 0 0 3.8-1.7 19.2 19.2 0 0 0 5.9-4.8l.2.3-2.7.6-.7.1.5-.5a11.5 11.5 0 0 0 2.8-5.4l.3.2-1.8 1.8-.2.3v-.4a32.7 32.7 0 0 0-1.9-11.1l-1-2.8-.4-.8a1 1 0 0 1-.1-.3Z"/><path fill="#455a64" d="m526 294 9.5 19.4-5.4 13.4s-3.9 11-10.2 14-12.4 3.1-17 1-5.2-9-5-11.2.5-12 .5-12-2.5-4.1-2.6-7.2.8-15.7 6.6-17.5 23.7 0 23.7 0Z"/><path fill="#455a64" d="m539.3 295.7 3.2 2.6a11.8 11.8 0 0 1 4.2 7.1c1 5.7 2.8 10.8.2 16-1.6 3.2-3.3 2.9-5.7 2.6s-5.7-10.6-5.7-10.6l-8.1-11.8-1.3-7.7 1.6-.5a12.5 12.5 0 0 1 11.6 2.3ZM503 293.8l-2.5-.2a11.3 11.3 0 0 0-9 3.2 11.3 11.3 0 0 0-3.3 8.4l.5 19.4s2.4 2 4.8 1.1 5.6-7.1 5.6-7.1l.5-14Z"/><path fill="#263238" d="M519 317a3.2 3.2 0 0 1 .3-1.6 6.3 6.3 0 0 1 2.7-3.2 3.4 3.4 0 0 1 2.3 0 6.1 6.1 0 0 1 1.7.8c.9.6 1.2 1.2 1.2 1.2l-1.4-.9a6.8 6.8 0 0 0-1.6-.6 3.1 3.1 0 0 0-2 0 5.4 5.4 0 0 0-1.6 1.3 7.6 7.6 0 0 0-1 1.5l-.6 1.5Z"/><path fill="#263238" d="M522 313a1.5 1.5 0 0 1 1.2.6 2.8 2.8 0 0 1 1 1.9 2.4 2.4 0 0 1-1 1.8 2.2 2.2 0 0 1-.6.4 1.8 1.8 0 0 1-1.8-.6 3.2 3.2 0 0 1-.8-1.8 2.9 2.9 0 0 1 0-1.4 1.5 1.5 0 0 1 1.2-1M514 333.9a3.5 3.5 0 0 0-1.6-2 8.2 8.2 0 0 0-6.8-.6 9.8 9.8 0 0 0-1.8.8 4 4 0 0 0-.9.5 2.7 2.7 0 0 0-1 2.2 1 1 0 0 0 .3.6c.4.3.9.1 1.3 0s1 .1 1 .6a1.2 1.2 0 0 1-.3.5 2 2 0 0 0 1 2.6 4.6 4.6 0 0 0 2.8.4 4.6 4.6 0 0 0 3.4-1.5 1 1 0 0 0 .2-1c-.4-.7-1.7-.1-2-.8-.3-.4.1-1 .6-1a2 2 0 0 1 1.3.3 2.7 2.7 0 0 0 1.3.4 1.6 1.6 0 0 0 1.3-2ZM533.9 317.3a6.9 6.9 0 0 1 0 1.4 25.5 25.5 0 0 1-.6 3.7 23.6 23.6 0 0 1-1.9 5.3A30.6 30.6 0 0 1 518 341a25.9 25.9 0 0 1-3.5 1.4 6.2 6.2 0 0 1-1.3.4 7.3 7.3 0 0 1 1.2-.6l3.4-1.5a31.6 31.6 0 0 0 9.5-7.7 31 31 0 0 0 3.8-5.6 24.6 24.6 0 0 0 2-5.1c.7-3 .8-5 .9-5Z"/><path fill="#263238" d="M512.7 342.4s-.3.2-.9.2a3.5 3.5 0 0 1-2-.6 3.5 3.5 0 0 1-1.3-1.9c-.2-.5-.1-.9 0-.9a4.4 4.4 0 0 0 4.3 3.2ZM546.3 303.9a2.3 2.3 0 0 1 .2.6l.3 1.5 1.4 5.9a23.7 23.7 0 0 1 .4 4 16.9 16.9 0 0 1-.1 2.4 11 11 0 0 1-.7 2.4 14.4 14.4 0 0 1-1.1 2.4 5.7 5.7 0 0 1-1.9 2 4.2 4.2 0 0 1-2.9.3 10 10 0 0 1-2.7-1 13.5 13.5 0 0 1-2.4-1.7 9.9 9.9 0 0 1-1.8-2.2 16.2 16.2 0 0 1-1.8-5c-.7-3.3-.9-6.3-1.5-8.7a12.8 12.8 0 0 0-2.7-5.3 13.6 13.6 0 0 0-1.6-1.4 1.8 1.8 0 0 1 .5.2 8 8 0 0 1 1.3 1.1 12.4 12.4 0 0 1 2.8 5.3c.8 2.4 1 5.4 1.6 8.7a15.6 15.6 0 0 0 1.9 4.8 8.9 8.9 0 0 0 1.7 2 12.8 12.8 0 0 0 2.3 1.6 9.4 9.4 0 0 0 2.6 1 3.7 3.7 0 0 0 2.5-.2 5.3 5.3 0 0 0 1.7-1.9 13.4 13.4 0 0 0 1-2.2 10.3 10.3 0 0 0 .7-2.3 19.3 19.3 0 0 0 .1-2.3 24.4 24.4 0 0 0-.3-4c-.4-2.5-1-4.5-1.2-5.9l-.2-1.6a2.2 2.2 0 0 1 0-.5ZM501.7 300.6l-1 .8a7.2 7.2 0 0 0-1.8 3 12.7 12.7 0 0 0-.4 5.1c0 2 .5 4.2.5 6.5 0 4.8-2.9 8.8-5.9 9.7a4.5 4.5 0 0 1-3.5-.3 3.2 3.2 0 0 1-.8-.6l-.2-.3a7.7 7.7 0 0 0 1 .7 4.3 4.3 0 0 0 3.4.2c2.8-1 5.6-4.8 5.5-9.4 0-2.3-.4-4.4-.5-6.5a12.7 12.7 0 0 1 .6-5.3 6.9 6.9 0 0 1 2-3 4.6 4.6 0 0 1 .8-.5l.3-.1Z"/><path fill="#ebebeb" d="M498.3 322.2a8.6 8.6 0 0 0 10.8-10.3 7.6 7.6 0 0 1-.5-2.5c.2-1.2 1-2.1 1.1-3.2a3.7 3.7 0 0 0-1.4-3.2 8.1 8.1 0 0 0-3.4-1.4 6.3 6.3 0 0 0-3.3 0 5.2 5.2 0 0 0-3.1 4.2 22.5 22.5 0 0 0 .2 5.6 63.4 63.4 0 0 1-.3 11.2"/><path fill="#263238" d="m505.6 315.5-.7-.8a6 6 0 0 0-1.6-1.8 2.5 2.5 0 0 0-2.2-.3l-.8.5s0-.5.7-.8a2.4 2.4 0 0 1 1.2-.3 3 3 0 0 1 1.4.5 4.8 4.8 0 0 1 1.6 2l.4 1Z"/><path fill="#263238" d="M502.7 312.8a1.4 1.4 0 0 1 1.2.5 2.5 2.5 0 0 1 1 1.7 2.2 2.2 0 0 1-1 1.6 2.3 2.3 0 0 1-.6.4 1.6 1.6 0 0 1-1.7-.5 2.9 2.9 0 0 1-.7-1.6 2.7 2.7 0 0 1 .1-1.4 1.4 1.4 0 0 1 1-.8"/><path fill="#263238" d="m545.8 302.6-1-1.5a21.5 21.5 0 0 0-10-7.3 12.1 12.1 0 0 0-4.6-.5 10.8 10.8 0 0 0-5 1.4h-6.9a.3.3 0 0 1-.2-.2 10 10 0 0 0-3-5.2 9.6 9.6 0 0 0-6-2.3l.1-.4a10.4 10.4 0 0 1 3.2 2.6 10.7 10.7 0 0 1 1.8 3.8.3.3 0 0 1-.2.3.3.3 0 0 1-.2 0 7 7 0 0 0-2.8-1.8 11.4 11.4 0 0 0-1.3-.4l.2-.5a2.5 2.5 0 0 1 .9.9 7.7 7.7 0 0 1 .6 1 15 15 0 0 1 .7 2.3.3.3 0 0 1-.1.3H507.6a.2.2 0 0 1-.1 0 12 12 0 0 0-16 2.3 14.1 14.1 0 0 0-3 6.9 26.6 26.6 0 0 0-.2 6.6 86.7 86.7 0 0 1 .6 9.6 16.6 16.6 0 0 1-.4 3.5.6.6 0 0 1 0-.2v-.7l.2-2.6c0-2.2-.3-5.5-.7-9.5a26.8 26.8 0 0 1 0-6.8 14.4 14.4 0 0 1 3.1-7.1 12.4 12.4 0 0 1 16.7-2.5h-.2 4.3l-.3.3a16.8 16.8 0 0 0-.7-2.1 3.7 3.7 0 0 0-1.2-1.7.3.3 0 0 1-.1-.4.3.3 0 0 1 .3-.1 11.3 11.3 0 0 1 1.3.4 7.6 7.6 0 0 1 3 2l-.5.2a10.2 10.2 0 0 0-1.7-3.6 9.9 9.9 0 0 0-3-2.6.3.3 0 0 1-.1-.3.2.2 0 0 1 .2-.1 10.1 10.1 0 0 1 6.4 2.4 10.5 10.5 0 0 1 3.1 5.5l-.2-.2h6.8-.1a11 11 0 0 1 5.1-1.4 12.4 12.4 0 0 1 4.8.5 20 20 0 0 1 6.7 4 18.5 18.5 0 0 1 3.3 3.6 7.8 7.8 0 0 1 .8 1.6Z"/><path fill="#ebebeb" d="M545.5 302.4a5.4 5.4 0 0 0-4.6 4.9c-.1 1.6.6 3.3.2 4.9-.5 1.8-2.3 3-2.8 4.9-.6 2 .7 4.1 2.1 5.6a4.6 4.6 0 0 0 2.8 1.7c1.8.1 3.2-1.7 4-3.5a21 21 0 0 0-1.2-18.2"/><path d="M543.3 434c-10.6 5.9-18.3 5.2-23-1.9 3.7 17.6 41 15.5 58.4 16.4a54 54 0 0 0 50.4-30.6c-28.3 6.2-57.6 9.9-85.8 16.1Z" opacity=".3"/><path fill="#ffbe9d" d="m542.7 409.7-8.5-2.1-11.6 3.7s5.8 4.8 3.2 5-8-3.8-8-3.8l-5.6 1.7s2.3 9.3 5.7 12c0 0 .4 4.2 2.8 6 0 0 4.8 6.7 9.3 7s13.7-6 13.7-6Z"/><path fill="#263238" d="m594 385.5-.2.1-.6.3-2.5 1.1-9.3 3.8a644 644 0 0 1-72.2 24l-2.6.7-.7.2a.6.6 0 0 1-.2 0l.2-.1.7-.2 2.6-.8 9.6-2.8a863.2 863.2 0 0 0 62.5-21.3l9.3-3.7 2.5-1 .7-.2.3-.1Z"/><path fill="#fafafa" d="m578.7 317 2-6.6c1-3.6 1.2-6.8 1.4-6.8a6.6 6.6 0 0 1 0 2 33.5 33.5 0 0 1-.8 4.8 35.5 35.5 0 0 1-1.6 4.7 7 7 0 0 1-1 1.9ZM597.9 331.6l-2.4-4.8c-1.4-2.6-2.6-4.6-2.5-4.7a24 24 0 0 1 4.9 9.5ZM615.3 304.5a29 29 0 0 1-5.1 1.6 27.9 27.9 0 0 1-5.3 1.1 27.6 27.6 0 0 1 5.1-1.6 27.2 27.2 0 0 1 5.3-1ZM618.7 339.5a53.8 53.8 0 0 1 3-6.8 54.7 54.7 0 0 1 3.6-6.6 52.4 52.4 0 0 1-3 6.8 54.7 54.7 0 0 1-3.6 6.6ZM628.2 370.7a43.8 43.8 0 0 1-5-4.6 45.2 45.2 0 0 1-4.5-5 43.8 43.8 0 0 1 5 4.6 45.2 45.2 0 0 1 4.5 5ZM629 401a46.1 46.1 0 0 1 4-5.5 47.4 47.4 0 0 1 4.5-5.2 46.1 46.1 0 0 1-4.1 5.5 44 44 0 0 1-4.5 5.2ZM607.3 408c-.2 0 .7-2.5 1.3-5.6s.8-5.6 1-5.6a24.4 24.4 0 0 1-2.3 11.2ZM581.7 419.6a31.5 31.5 0 0 1-3.4-4.5 30.7 30.7 0 0 1-3-4.9 32.3 32.3 0 0 1 3.4 4.6 31.6 31.6 0 0 1 3 4.8ZM552.5 416.9a20.2 20.2 0 0 1-1 4.5 20.7 20.7 0 0 1-1.5 4.3 20.2 20.2 0 0 1 1-4.5 21.7 21.7 0 0 1 1.5-4.3ZM561.6 387a21.2 21.2 0 0 1 5.3-11.2c.2.1-1.5 2.3-3 5.4s-2.2 5.8-2.3 5.8ZM531.5 403.8s-1.6-1.6-3.9-3.2-4.4-2.4-4.3-2.6a11.7 11.7 0 0 1 4.6 2.2 11.5 11.5 0 0 1 3.6 3.6ZM498 391.3a18.6 18.6 0 0 1-.5 4.3 18.3 18.3 0 0 1-1 4.2 18 18 0 0 1 .5-4.3 17.5 17.5 0 0 1 1-4.2ZM498.6 365.5a74.7 74.7 0 0 1-8-4 78.1 78.1 0 0 1-7.6-4.5 74.7 74.7 0 0 1 8 4 79.6 79.6 0 0 1 7.6 4.5ZM488.2 342c-.1-.2 2-2.5 3.8-6s2.9-6.3 3-6.2a6.7 6.7 0 0 1-.4 2 27 27 0 0 1-4.9 8.7 6.9 6.9 0 0 1-1.5 1.4ZM565.3 332.2a58.6 58.6 0 0 1-3.4-10.6 60.8 60.8 0 0 1 3.4 10.6ZM565.3 299.3a35.7 35.7 0 0 1-5.4 2.8 35 35 0 0 1-5.6 2.3 36.2 36.2 0 0 1 5.4-2.8 35.5 35.5 0 0 1 5.6-2.3ZM612.8 442.5a53.7 53.7 0 0 1 2.4-7.2 55.3 55.3 0 0 1 2.8-7 53.5 53.5 0 0 1-2.4 7.2 55.5 55.5 0 0 1-2.8 7ZM529.7 456.8a26.7 26.7 0 0 1-7.6-9.1c.2-.1 1.6 2 3.7 4.6s4 4.3 4 4.4ZM549.4 445.8c0 .1-2 2-4.2 4.6s-4 4.7-4 4.6a22.7 22.7 0 0 1 3.6-5 23.3 23.3 0 0 1 4.6-4.2ZM575.7 459.3l-2.9-4.7c-1.6-2.6-3-4.6-2.9-4.7a19.1 19.1 0 0 1 3.4 4.4 18.6 18.6 0 0 1 2.4 5ZM591.8 435.9a16.7 16.7 0 0 1-3.1-2.8 17.1 17.1 0 0 1-2.8-3.2 18 18 0 0 1 3.1 2.8 17.2 17.2 0 0 1 2.8 3.2ZM614.9 456.5a12.6 12.6 0 0 1-2.4 0l-5.7-.3H601a11.3 11.3 0 0 1-2.4 0 10 10 0 0 1 2.3-.4 57.5 57.5 0 0 1 11.5.3 9.7 9.7 0 0 1 2.4.4Z"/><path fill="#a86e63" d="M579.5 299.7s13.4-7.4 15.5-9.4 11.8-5.7 11.8-5.7 4.8-3.4 16.5 1.3 13.3 22.2 13.3 22.2-2 25-4.5 24.6a3.5 3.5 0 0 1-3.2-4.2l1.2-8.6-3.3-7s-8.5 22.3-11.2 23-5.3-.8-4.9-3.4 8-20.7 7.9-21.6-11 19-11 19-3.1 4.6-5.5 3.7-3.6-2.9-2.4-4.8 9.4-24.8 9.4-24.8l-9.1 12-5 9.8a3 3 0 0 1-3.3 1.5 2.1 2.1 0 0 1-1.6-1.9c-.5-3 4-14.3 4-14.3l7.2-14.7-4.8 1.8s-7 3.6-10 4.1c-3.5.6-7-2.6-7-2.6Z"/><path fill="#8c5249" d="M608.9 285.9a28 28 0 0 0-8 10.7 5.6 5.6 0 0 1 .6-2 18.6 18.6 0 0 1 2.3-4.2 19 19 0 0 1 3.4-3.4 6 6 0 0 1 1.7-1.1Z"/><path fill="#263238" d="M714.2 464.6c0 .2-153.2.3-342.2.3s-342.3-.1-342.3-.3 153.2-.2 342.3-.2 342.2.1 342.2.3Z"/></svg>