<svg xmlns="http://www.w3.org/2000/svg" width="1024" height="1024" viewBox="0 0 1024 1024"><g fill="var(--alt)"><path d="M440 931.1c0 1.2-1.2 1.8-2.4 1.8s-1.8-1.2-1.8-2.4l3.6-30.7c1.2-9.6 1.8-19.2 2.4-27 .6-6.7.6-12.7.6-18.7 0-7.8 0-14.4 1.2-21 .6-3 .6-6 1.2-8.5a75 75 0 0 0 1.2-28.9c-1.2-7.2-4.2-15.6-7.8-24-4.2-8.5-9-16.9-14.4-24.1-7.3-9-15-16.9-22.3-24a125.1 125.1 0 0 1-25.9-30.8l-4.2-6.6c-1.8-1.8-3-2.4-3.6-2.4-1.2 0-2.4-.6-3-1.8-.6-.6-.6-1.8-.6-3 0-2.4-.6-6-2.4-10.8a94.4 94.4 0 0 0-7.2-12.7c-3-4.8-6.7-9-9.7-12.6-3-3.6-6.6-6.6-9.6-9-3-3-6-5.5-9-9-3-3.7-6-7.9-9-12.7-3-4.8-6-10.8-9.7-18-3.6-7.3-7.2-15.1-11.4-24.1-3.6-8.5-7.2-16.9-10.8-26-1.2-3.5-2.4-6.5-3.7-9.5a170.2 170.2 0 0 0-16.8-36.1c-3-4.9-6.6-7.9-9.6-10.3a16.2 16.2 0 0 0-6.6-3 17 17 0 0 1 3 6.6c1.2 4.3 1.8 9 1.8 13.3 0 4.2 0 8.4-.6 10.8-.6 1.2-.6 1.8-1.2 3l5.4 12.7c5.4 13.8 8.4 28.8 12 45l5.4 25.4c2.4 8.4 4.8 16.2 7.9 23.4 3.6 8.5 7.8 15.7 11.4 22.3 3 5.4 5.4 9.6 7.2 13.8 2.4 5.4 3 10.3 3 12.7 0 .6 0 1.8-.6 1.8-.6 1.2-1.8 1.8-3 1.2-.6 0-1.2-1.2-1.8-1.8A37.9 37.9 0 0 1 295 665a244 244 0 0 0-7.8-21.6l-7.3-14.5c-4.2-7.2-8.4-15.6-12.6-25.8a365.2 365.2 0 0 1-13.8-50c-1.2-4.8-2.4-10.2-3-13.8-2.4-10.3-4.9-20.5-7.9-30.1-.6-.6-.6-1.2-.6-2.4-1.8-4.2-3-9-3.6-13.3-1.8-6-3.6-11.4-5.4-16.2-3-7.8-5.4-13.2-8.4-18a60.5 60.5 0 0 0-34.3-25.3c1.8.6 3 2.4 4.8 3.6 2.4 2.4 3.6 6 4.8 9.6 1.2 4.2 2.4 8.4 2.4 12 0 1.9 0 3-.6 4.3a4.7 4.7 0 0 1-2.4 2.4c-1.2.6-2.4.6-3.6 0 0 0-.6 0-.6-.6 1.8 3 4.2 6.6 6.6 10.2 7.2 11.4 16.3 25.3 24 41.5a501.4 501.4 0 0 1 20.5 49.4c2.5 6.6 4.9 13.2 7.3 19.2 6 15 11.4 27 15 34.3 1.2 2.4 2.4 4.2 3 6 .6 1.8 1.2 2.4 1.2 3 .6 3-.6 3.7-3 2.4-.6 0-.6-.6-1.2-1.2-.6-1.2-2.4-4.2-4.8-7.8-1.2-2.4-3-5.4-4.2-8.4-2.4-4.8-4.8-9.6-7.2-13.2.6 2.4 1.8 4.8 2.4 7.2 2.4 5.4 5.4 10.2 9 16.2 1.8 2.4 3.6 5.4 5.4 8.5 3 4.8 6 10.8 9.6 17.4 3 6.6 6 13.8 9 21 1.9 5.5 3.7 11.5 5.5 18.1 3 10.8 6.6 22.9 12 36.1 5.4 13.9 13.3 30.1 20.5 44 3.6 7.8 7.2 15 10.2 20.4 3.6 8.4 6 15 7.2 21 1.2 6 1.2 12.1 1.2 20-.6 8.3-1.2 18.6-3 30a306.1 306.1 0 0 1-15.6 62.6c-3.6 10.8-7.8 21-11.5 30.7-.6 1.2-1.2 1.8-2.4 1.2-1.2-.6-1.2-1.2-1.2-2.4a634 634 0 0 0 11.5-30.7c3.6-10.2 6.6-21 9.6-31.9 2.4-10.2 4.2-20.5 6-30 1.8-11.5 2.4-21.8 3-30.2.6-7.8 0-13.2-1.2-18.6a90 90 0 0 0-7.2-19.9c-3-6-6-13.2-9.6-20.4-7.3-13.9-15-30.1-20.5-44.6a367 367 0 0 1-12-36.7c-1.8-6.6-3.6-12-5.4-18-2.4-7.9-5.5-14.5-8.5-21.1-3-6-6-12-9-16.8l-5.4-8.5c-3.6-6-6.6-10.8-9.6-16.2a54.3 54.3 0 0 1-4.2-13.3v-2.4c.6-1.8 1.2-2.4 3-1.8.6 0 1.2.6 1.8 1.2.6.6.6 1.2 1.2 1.8-1.2-2.4-1.8-4.8-3-7.8-2.4-6-4.9-12.6-7.3-19.2-6-16.3-12.6-33.7-19.8-49.4-7.8-15.6-16.9-29.5-24-40.9-3.1-4.8-6.1-9-8.5-12.6-1.2-2.4-2.4-4.2-3.6-6.7-1.2-1.2-2.4-3-3.6-4.2a28.6 28.6 0 0 1-4.9-10.8c-.6-1.2-.6-3 0-4.2 0-2.4 1.3-4.2 2.5-6 1.2-1.8 3.6-3 6-3 1.2 0 3-.6 4.2 0 3.6.6 8.4 2.4 12.6 4.8 4.8 3 10.3 6.6 14.5 10.2 4.2 3.6 7.2 7.2 10.2 12 3 4.9 5.4 10.9 8.4 18.7.6 2.4 1.8 4.8 3 7.8 0-.6.6-.6.6-1.2 1.2-2.4 3.6-3.6 6.7-4.2h.6c3 0 7.2 1.2 11.4 4.2 3.6 2.4 7.2 6 10.2 10.8 6 9 11.4 22.3 16.9 36.8l3.6 9.6 10.8 25.9c3.6 8.4 7.8 16.8 11.4 23.4 3.7 6.6 6.7 12.7 9.7 17.5 3 4.8 5.4 9 8.4 12s6 6 9 8.4c3 3 6.6 5.4 9.6 9 3.7 3.7 7.3 8.5 10.3 13.3 3 4.8 6 9.6 7.2 13.2 2.4 5.5 2.4 9.7 3 12v1.9c1.2 0 3.6.6 6 3.6l4.8 6.6c3 4.8 7.3 10.8 12.7 17.5 3.6 4.2 7.8 7.8 12 12 7.2 7.2 15.7 15 22.9 24 6 7.9 10.8 16.3 15 24.7a92.3 92.3 0 0 1 8.4 24.7 82 82 0 0 1-1.2 30c-.6 3.1-1.2 6.1-1.2 8.5-.6 6.6-.6 13.3-1.2 20.5 0 5.4 0 11.4-.6 18.6-.6 8.5-1.2 17.5-2.4 27.7l-3.6 30.7zm-71.6-249.7ZM249.9 515.9c.6-2.4.6-5.4.6-9 0-4.2-.6-9-1.8-12.7-.6-3-1.9-4.8-2.5-6h-.6s-.6 0-.6.6c-.6.6-1.2 1.2-1.2 2.4-.6 1.8-.6 4.3-.6 7.3.6 4.8 3.6 10.8 6.7 17.4zm4.2 19.3c-1.2-3.6-3-7.3-4.8-10.9 1.8 6 3 12 4.2 17.5 1.2 5.4 2.4 9.6 3 13.8 4.2 18.7 8.4 36.1 13.8 49.4.6 2.4 1.8 4.2 2.4 6l-1.8-6c-2.4-8.5-4.2-16.9-6-25.3-3.6-16.3-6.6-31.3-12-44.5zm-65-74 4.8 4.8c1.2.6 1.8 1.2 2.4 1.8h.6l.6-.6c0-.6.6-1.8.6-3 0-3-.6-6.7-1.8-10.9-1.2-3-2.4-6-4.2-8.4-1.2-1.8-3-3-4.8-3.6-.6 0-1.8-.6-2.4-.6-.6 0-1.2 0-1.2.6l-.6.6c-.6 1.8 0 4.8 1.2 9 1.2 3 2.4 6 4.8 10.3z"/><path d="M186.7 818.6c-1.2 0-1.8-1.2-1.8-1.8 0-1.2 1.2-1.8 1.8-1.8 13.8.6 28.3 1.2 41.5 1.2s26.5-.6 38.5-2.4a184 184 0 0 0 33.7-8.4c10.8-3.7 21-7.9 31.3-12 1.2-.7 2.4 0 2.4 1.1.6 1.2 0 2.4-1.2 2.4-10.2 4.2-20.5 8.5-31.3 12a204.2 204.2 0 0 1-73.4 10.9c-13.8 0-27.7-.6-42.1-1.2h.6z"/><path d="M388.3 706c-.6.7-1.8 1.3-2.4.7-.6-.6-1.2-1.8-.6-2.4 2.4-4.3 5.4-9 5.4-15 0-3.7 0-7.3-1.2-11.5-.6-4.2-1.8-9-3-13.9 0-1.2.6-1.8 1.2-2.4 1.2 0 1.8.6 2.4 1.2 1.2 4.9 1.8 9 3 13.9.6 4.2 1.2 8.4 1.2 12-.6 7.2-3 12-6 16.9v.6z"/><path d="M577.8 958.2c0 1.2-1.2 1.8-2.4 1.8s-1.8-1.2-1.8-2.4c2.4-24 4.8-48.1 4.8-70.4 0-10.2 0-20.5-.6-29.5-.6-10.2-1.8-19.9-2.4-28.3-.6-2.4-.6-4.8-1.2-7.2-1.8-12.6-3.6-23.5 0-35.5 1.8-7.2 5.4-15 10.2-22.9 4.9-7.8 10.3-16.2 16.3-24.6 3-4.3 5.4-7.9 8.4-11.5 9.6-13.2 19.9-27 27.7-40.9 4.8-8.4 9-17.4 12.6-24.7 3.6-7.8 7.2-15 10.3-19.8 3-4.8 6.6-8.4 10.2-11.5 3.6-3.6 7.2-7.2 10.8-12.6 3-4.8 6-11.4 9.6-18 4.3-9 8.5-18.7 13.9-26.5 6-9 12.6-15.7 19.2-22.9 4.3-4.8 8.5-9 12.7-13.8 5.4-6.6 10.8-15 15.6-22.3 4.2-6 7.9-12 12-16.8.7-1.2 1.9-2.4 2.5-3-.6 0-1.2 0-1.8-.7-1.8-1.2-2.4-4.2-1.2-9 .6-4.2 2.4-9.6 4.2-15.6 1.8-6 4.8-12 7.2-18 2.4-5.5 4.8-11 7.2-15.7-1.2.6-1.8.6-3 0 0 0-.6 0-.6-.6-1.2-1.2-1.8-4.8-1.8-8.4 0-3.7 1.2-8.5 2.4-12.7 1.2-4.2 3-8.4 4.8-11.4.6-1.2 1.8-2.4 2.4-3.6h-1.8c-1.8 0-3.6.6-5.4 1.2 0 1.2-1.2 1.8-1.8 1.8h-.6c-.6.6-1.2.6-1.8 1.2-.6.6-1.2 1.2-1.8 1.2a76.3 76.3 0 0 0-12 14.4c-4.3 6.6-7.9 14.5-11.5 23.5-3.6 9-6.6 18.7-10.2 28.3-3 9-5.4 17.4-9 24.7a276 276 0 0 1-12.7 26.4c-1.8 3.6-4.2 7.2-5.4 10.9-2.4 4.8-4.2 9.6-6 14.4-1.8 5.4-3 10.2-4.2 15-.6 1.9-.6 4.3-1.2 6.7a47.4 47.4 0 0 1-4.8 16.2c-1.8 2.4-4.2 4.2-6.7 6-1.8 1.2-3.6 2.4-5.4 4.2-1.8 3.7-3.6 7.3-4.8 10.3-2.4 5.4-4.8 9.6-5.4 10.8-.6.6-1.2.6-1.2.6-1.8 0-2.4-.6-2.4-3 0-.6 0-1.2.6-2.4a63 63 0 0 1 7.8-15.7c1.2-1.2 1.8-2.4 3-3.6.6-1.8 1.8-3 2.4-4.8l4.2-6.6c2.4-3.6 4.3-6.6 6-12.6 1.3-3.6 1.9-8.5 3-13.3 1.9-9 3.7-19.2 7.3-28.9a137 137 0 0 1 9-21.6c3-6.6 6.6-13.9 9.6-22.9 3-9 6-19.2 9-30 3-10.3 5.5-20.5 8.5-29.6 3-9.6 7.2-18 10.8-25.8a77.9 77.9 0 0 1 12-18c3.7-4.3 7.3-6.7 10.9-8.5 4.2-1.8 8.4-2.4 11.4-1.8 3 .6 6 1.8 7.8 4.2 1.9 1.8 3 4.8 3.7 7.8a23 23 0 0 1-1.8 11.4c0 .7-.6 1.3-.6 1.3-.6 1.2-1.9 1.8-3 1.2-.7 0-1.3-.6-1.3-1.2v-4.9c0-3.6.6-9 0-10.8 0 0 0-.6-.6-.6h-.6c-.6 0-1.2.6-1.8.6-1.2 1.2-2.4 2.4-3.6 4.2a40 40 0 0 0-3.6 15.7c1.8-.6 3-.6 4.8-.6 2.4 0 4.8.6 6.6 1.2h.6c1.2 0 2.5 1.2 3 2.4.7 1.2 1.3 2.4 1.3 3.6.6 2.4.6 4.8 0 7.8-1.2 6-4.3 12.6-8.5 21L786 436c-2.4 4.8-5.4 10.8-7.8 16.8-2.4 6-5.4 12-7.2 18-1.8 6.1-3.6 11.5-4.2 15.1-.6 3-.6 4.8 0 4.8.6.6 4.8-3 9.6-7.2 1.8-1.2 3.6-3 5.4-4.2 1.2-1.2 3-2.4 4.8-4.2 6.6-5.4 13.9-10.8 19.9-18.7 3.6-4.2 6.6-9.6 9.6-14.4 3.6-6 7.2-12 10.8-15.6 3.7-3.7 7.3-4.9 10.3-4.9 3.6 0 6.6 1.2 8.4 3.6 1.8 2.5 3 5.5 3.6 8.5 0 1.8 0 4.2-.6 6.6 0 1.8-1.2 4.8-2.4 7.2-1.8 3.6-3.6 7.2-6 11.4-2.4 3.7-4.8 7.9-7.8 12-3 4.3-6.7 9.7-10.9 16.3l-.6.6c-9 13.3-22.2 32.5-33 50.6-5.5 9-10.3 18-15.1 26.5-4.8 9-9 18-12.6 26.4-3.7 8.5-7.3 16.3-9 22.3-1.3 3.6-1.9 6-2.5 7.8.6-.6 1.8-1.2 2.4-1.8 3-2.4 7.2-6 12.7-7.8a32.5 32.5 0 0 1 15-1.8c4.8.6 9 3 10.8 6 .6 1.2 1.2 3 1.2 4.8 1.2.6 1.8 1.2 1.8 2.4 0 .6 0 1.8-.6 2.4-1.8 3-7.8 7.9-14.4 13.9a175 175 0 0 0-27 25.9c-4.3 4.8-8.5 10.8-12.1 15.6a117 117 0 0 1-7.8 9.6c-1.2 1.2-2.4.6-3 0-1.2-1.2 0-3.6 1.8-7.8 1.2-3.6 3.6-9 4.8-13.8 3-10.9 4.2-23 5.4-35.5v-3c1.2-11.5 2.4-23.5 1.8-27.7l-.6.6a51.1 51.1 0 0 0-5.4 11.4c-1.8 5.4-3 12-4.2 16.2-.6 1.9-.6 3-1.2 4.3 0 .6-.6 1.2-.6 1.8 0 .6-.6.6-.6 1.2-.6.6-1.2.6-1.8 0h-.6c-.6-.6-1.3-3-1.3-6.7 0-2.4.7-6.6 1.9-10.2.6-3.6 1.8-7.2 3.6-10.2 3-6.6 6.6-12 10.8-18 3-4.9 6.6-9.7 9.6-14.5 3-5.4 5.4-11.4 7.8-18 3-7.3 5.5-13.9 9-20.5 4.3-7.8 10.3-15 15.1-21.7l1.8-1.8h-3.6a4.7 4.7 0 0 1-2.4-2.4c-.6-.6-.6-1.8-.6-3 0-2.4 1.2-6 3-9.6 1.2-3 3-6 5.4-9 1.8-1.9 3.6-3.7 5.4-4.3l4.3-1.8h.6a10.2 10.2 0 0 0-6-1.8h-2.5c-3.6 0-6.6 1.8-10.2 4.2a51.2 51.2 0 0 0-11.4 11.5c-3.6 4.8-7.9 10.8-11.5 16.8a208.6 208.6 0 0 1-15.6 22.3c-4.2 5.4-8.4 9.6-12.6 14.4a135.4 135.4 0 0 0-18.7 22.3c-5.4 7.8-9.6 17.4-13.8 25.9-3.7 7.2-6.7 13.8-9.7 18.6-3.6 6-7.2 9.6-11.4 13.3-3 3-6.6 6.6-9.6 10.8-3 4.8-6.6 12-10.3 19.8-3.6 7.9-7.8 16.3-12.6 25.3-7.8 13.9-18 27.7-28.3 41-3 4.1-6 7.8-8.4 11.4-6 8.4-11.4 16.8-16.3 24.6-4.8 7.9-7.8 15-9.6 21.7a82.3 82.3 0 0 0 0 34.3c.6 2.4.6 4.8 1.2 7.2 1.2 8.4 2.4 18 2.4 29 .6 9 .6 19.2.6 29.4-.6 22.3-3 46.3-4.8 71v-1.2zm207.6-479c1.2 0 2.4-.6 3.6-.6h3c3 0 6 1.2 8.5 3 2.4 1.8 3.6 4.2 4.2 7.2v1.8c0 3-1.8 6.7-4.2 10.3-.6 1.2-1.8 2.4-3 3.6a132.2 132.2 0 0 1-10.2 13.8c-4.9 6.6-10.9 13.9-15.1 21-3.6 6.7-6.6 13.3-9 20.5-2.4 6.7-4.9 12.7-7.9 18.7-3 5.4-6 10.2-9.6 15-.6 1.2-1.8 2.4-2.4 3.6L786 479.2h-.6zm1.8 28.9c1.8-1.8 4.2-3.6 6.7-6 1.8-3 3-5.4 3.6-7.9 1.2-3 1.2-4.8.6-6h-1.2c-.6 0-1.8.6-2.4 1.2-1.3.6-3 1.8-4.3 3.6a34.1 34.1 0 0 0-4.8 7.9c-1.2 3-2.4 6-2.4 7.8v1.2h.6c1.2 0 2.4-1.2 3.6-2.4zm-4.2 2.4zM744 599c1.7 4.2 0 17.4-1.3 30v3a226.5 226.5 0 0 1-5.4 36.2c-1.2 3.6-2.4 7.2-3.6 10.2l1.2-1.2c3.6-4.8 7.8-10.9 12.6-15.7 4.2-4.8 8.4-9 12-13.2 3-3 6.7-6 9.7-8.4-1.2 0-1.8-.6-1.8-1.8 0-.6-.6-1.2 0-1.8.6-1.8 2.4-4.9 4.8-7.3 2.4-2.4 6-5.4 9-6.6 2.4-1.2 4.2-2.4 6-2.4 0-1.2 0-1.8-.6-2.4a9.7 9.7 0 0 0-7.8-3.6c-4.2-.6-9 0-13.2 1.8A53 53 0 0 0 754 623c-1.8 1.8-3.6 3-4.8 3-1.8.6-3 .6-3.6-1.2-.6-1.8 0-6 2.4-12s5.4-13.8 9-22.3a217 217 0 0 1 13.3-26.4c4.8-8.5 9.6-17.5 15-26.5 10.9-18 24.1-37.3 33.1-50.6l.6-.6c4.8-6.6 7.8-12 10.9-16.2l.6-.6c-1.2 0-2.4 0-3-1.2-.7-.6-1.3-1.2-1.3-2.4-.6-1.8 0-4.2 0-6.7.6-3.6 1.9-7.2 3.7-10.8 1.2-3 3-6 5.4-8.4a17 17 0 0 1 6.6-4.2h4.2v-1.2c0-2.4-.6-4.8-2.4-6a9 9 0 0 0-5.4-2.4c-2.4 0-5.4 1.2-7.8 3.6-3.7 3-6.7 9-10.3 15-3 4.8-6 10.2-9.6 14.4-6 7.9-13.8 13.9-20.5 19.3-1.2 1.2-2.4 1.8-3.6 3l-41.5 119.8-1.2-2.4zm40.8 24.6c-.6.6-1.8.6-2.4 1.2a76.2 76.2 0 0 0-7.8 6.6c-1.8 1.9-3 3.7-3.6 4.9h.6c1.8-.6 4.2-1.8 6.6-3.6 2.4-2.5 5.4-5.5 7.2-8.5zM844.4 439v-1.2H842.6c-1.8.6-3.6 1.2-4.8 3-1.8 1.8-3 4.2-4.8 7.2-1.2 3-2.4 6.6-3 10.2-.6 2.5-.6 4.3 0 5.5v.6s.6 0 .6-.6a37 37 0 0 0 6.6-8.5c2.4-3.6 4.8-7.8 6-11.4.6-1.2 1.2-2.4 1.2-3.6zm-54.2-39.1a32.4 32.4 0 0 0-7.8 13.8c-1.2 4.2-1.8 7.8-2.4 11.4v5.5l1.2-1.2a52 52 0 0 0 10.2-22.3c.6-3 0-5.4-1.2-7.2zm-18-1.2c1.2-.6 1.8-1.2 3-1.8.6-7.3 1.8-13.9 4.8-19.3 1.2-2.4 3-4.2 4.2-5.4.6-.6 1.2-.6 1.8-1.2-.6 0-1.2-.6-1.8-.6-2.4-.6-6 0-9.6 1.8-3 1.2-6.6 3.6-9.6 7.8a87.6 87.6 0 0 0-11.5 17.5c-3.6 7.2-7.2 15.6-10.8 25.2-3 9-6 19.3-8.4 29.5-3 10.9-6 21-9 30.1-3 8.4-6.7 16.3-9.7 22.9-3 7.2-6.6 13.8-9 21-2.4 7.9-4.2 16.3-6 24.7l1.8-5.4c1.8-4.8 3.6-9.6 6-15 1.8-3.7 3.6-7.3 6-11.5a208.5 208.5 0 0 0 21-50.5c3-9.7 6.7-19.3 10.3-28.3 3.6-9 7.8-17.5 12-24 4.3-6.7 8.5-12.1 12.7-15.7.6-.6 1.2-1.2 2.4-1.8zm-80 182.9c1.8-3 3-7.2 3.6-12-1.8 6-3.6 9-6 12.6-.7 1.2-1.3 2.4-2.5 3.6 1.8-1.2 3-2.4 4.3-3.6z"/><path d="M660.3 626c.6-1.2 1.2-1.8 2.4-1.2 1.2.6 1.8 1.2 1.2 2.4A178 178 0 0 1 650 664c-4.8 9-11.4 16.3-21 27.1-2.4 2.4-4.8 5.4-7.3 8.4a583.6 583.6 0 0 0-21 26.5 151.4 151.4 0 0 0-17.5 29.5c-7.8 18.7-7.2 36.1-6.6 53 0 1.2-.6 1.8-1.8 1.8-1.2 0-1.8-.6-1.8-1.8-.6-17.5-1.8-35 6.6-54.2 4.2-9.6 10.9-19.9 18-30 7.3-9.7 14.5-19.3 21.1-26.6 2.4-3 4.9-6 7.3-8.4 9-10.2 15.6-18 20.4-26.5 6-10.8 9.6-23.4 13.9-36z"/><path d="M809.5 837.2c1.2 0 1.8 1.2 1.2 2.5 0 1.2-1.2 1.8-2.4 1.2-31.3-7.3-62-14.5-81.2-22.3a98 98 0 0 1-21.7-12.6c-5.4-4.3-9-8.5-12.6-12.7-.6-.6-.6-1.8 0-3 .6-.6 1.8-.6 3 0a81.2 81.2 0 0 0 33.1 24c19.2 7.9 50 15.1 81.2 22.3z"/><path d="M698.2 936.5c0 1.2-.6 1.8-1.8 2.4-1.2 0-1.8-.6-2.4-1.8-4.9-30-9.7-60.7-10.3-84.8 0-24 4.2-42.1 8.5-60.8l1.2-4.2c4.2-18 9-36.7 14.4-53.6 3-9 6-16.8 9-24.6 3-7.9 6.6-15 10.3-22.9.6-1.2 1.8-1.2 2.4-1.2 1.2.6 1.2 1.8 1.2 2.4-3.6 7.2-6.7 15-10.3 22.9-3 7.8-6.6 15.6-9 24.6-5.4 16.3-9.6 35.5-13.8 53.6l-1.2 4.2c-4.2 18.7-8.5 36.1-8.5 59.6 0 24 5.5 54.1 10.3 84.2z"/><path d="M276.3 421.4c0 1.2-.6 1.8-1.8 1.8-1.2 0-1.8-.6-1.8-1.8-1.2-7.8-3-16.2-.6-21.6 0-.6.6-1.2 1.2-1.8 1.2-2.4 3.6-3.6 6-4.2 2.4-.6 5.5-.6 7.9.6.6 0 1.2.6 1.8 1.2a26 26 0 0 1 7.8 9.6 96.4 96.4 0 0 1 6.6 17.4c3 9.7 5.4 21.1 8.4 34.3 1.2 5.5 2.4 10.3 3 15a1201 1201 0 0 1 7.3 30.8c2.4 10.8 5.4 22.2 8.4 33.7 3 11.4 6 22.8 9.6 33.7 3.6 10.8 6.6 21 10.9 30.7 4.2 9 8.4 17.4 13.2 25.2a142 142 0 0 0 15.6 21.7 269.6 269.6 0 0 0 39.2 38.5c7.8 6 15.6 11.4 24 16.9 8.4 5.4 17.5 10.2 25.3 14.4 7.8 3.6 14.4 6.6 21 9a84 84 0 0 0 44.5 1.2c7.3-1.8 15.1-4.8 22.4-8.4a201.1 201.1 0 0 0 40.9-35.5l3-3 4.8-4.8c13.2-13.3 26.5-27.1 37.3-42.1a146 146 0 0 0 15.7-26.5c4.8-9.7 8.4-19.9 11.4-31.3 3.6-12.7 6-26.5 8.4-39.7v-.6c-.6-3.6 0-7.9 2.4-12v-.7l.6-2.4c1.2-6 1.8-12 3-16.8 1.2-7.8 3-15 4.2-21.7 2.4-12 4.3-22.3 5.5-33 .6-4.3.6-9.1 1.2-13.3-.6-.6-1.2-1.8-.6-2.4l.6-1.2a141 141 0 0 1 3.6-29.5c1.8-6 4.8-10.8 7.8-13.9 3.6-3.6 7.8-4.8 11.4-4.2 3.6.6 6.6 3.6 9 8.5 1.9 4.2 3 9.6 3 16.2 0 9.6-2.3 22.3-4.1 33.7-.7 4.2-1.3 7.8-2.5 12-1.2 6-1.8 12-2.4 17.5-1.2 7.8-1.8 15.6-3.6 22.3-1.8 9-4.8 16.8-7.8 24-.6 2.4-1.8 4.2-2.4 6 0 .6-.6 1.8-1.2 3-2.4 7.9-4.8 13.9-10.2 15.7-.6 0-.6 0-1.2.6-3 .6-6.7.6-9.7-1.2-1.8-.6-3-1.8-4.2-2.4-2.4 12-4.8 24.7-7.8 36-3 11.5-7.2 22.4-11.4 32a201.6 201.6 0 0 1-16.3 27c-10.8 15.1-24.7 29-37.9 42.8l-4.8 4.8-3 3C585 700 571.8 714 556.8 722.3a90.3 90.3 0 0 1-48.2 11.4 62 62 0 0 1-21-3.6c-7.3-2.4-13.9-5.4-21.7-9-7.8-4.2-16.9-9-25.9-14.4a416.8 416.8 0 0 1-24-16.9c-7.9-6-15.1-12.6-21.7-18.6a269.6 269.6 0 0 1-18-19.9c-5.5-7.2-11-14.4-15.7-22.3a211.7 211.7 0 0 1-24-57.2c-3.7-10.8-6.7-22.2-9.7-33.6-3-11.5-6-22.9-8.4-34.3-2.4-10.9-4.9-21-7.3-30.7-1.2-6-2.4-10.2-3-15-3-13.3-5.4-24.7-8.4-34.4a75.6 75.6 0 0 0-6.6-16.8 25.6 25.6 0 0 0-6.6-8.4c-.6-.6-.6-.6-1.2-.6-1.8-.6-3.7-.6-4.9-.6-1.8.6-3 1.8-4.2 3 0 .6-.6.6-.6 1.2-1.8 4.2-.6 12 .6 19.2v.6zm408 101.7a552 552 0 0 0-1.8 12c1.2 1.9 3 3 4.8 4.3a10 10 0 0 0 7.3.6h.6c3.6-1.2 5.4-6.6 7.8-13.3.6-.6.6-1.8 1.2-3 .6-2.4 1.8-4.2 2.4-6 2.4-7.2 5.4-14.4 7.8-23.5-.6 1.3-1.2 1.9-1.2 3-3.6 6.7-8.4 9-13.2 12-2.4 1.3-4.8 3.1-7.2 5-3 2.3-6 6-7.9 9.5zm3.6-19.8-1.8 10.8c1.2-1.2 2.4-3 4.2-4.2 2.5-1.8 4.9-3.6 7.9-4.8 4.2-2.4 9-5.4 12-10.9a53.7 53.7 0 0 0 5.4-18c1.2-7.2 2.4-16.3 3-25.3.6-9 1.8-19.2 1.8-27 0-7.9 0-14.5-.6-17.5-.6-1.2-1.2-.6-2.4 0a39.4 39.4 0 0 0-7.2 9c-2.4 3.6-4.2 6.6-6 9.6-1.8 2.5-3 4.3-4.2 6.7-.6 5.4-.6 10.8-1.2 16.2-1.2 10.8-3.6 21.7-6 33.7-1.2 6.6-3 13.9-4.3 21.7zm15-101.1c-1.7 6-2.3 13.2-3 21.6l.7-.6c1.8-3 4.2-6 6-9.6a42 42 0 0 1 7.8-9.6c3.6-3 6.6-3.6 8.4 1.2a74.6 74.6 0 0 1 1.2 18.6c0 5.5-.6 12-1.2 18.1v-1.2c2.5-11.4 4.3-23.5 4.3-33.1a35 35 0 0 0-3-15c-1.9-3.7-3.7-6-6-6-2.5-.7-5.5.5-7.9 3-3 2.4-5.4 6.6-6.6 12z"/><path d="M248.7 486.4c0 1.2-.6 1.8-1.3 2.4-1.2 0-1.8-.6-2.4-1.2l-5.4-21c-1.8-6.7-3-13.3-4.8-19.3v-.6c-.6-1.2-1.8-3-2.4-4.8-1.2-3.6-2.4-9-1.8-13.8v-7.3c.6-1.8 1.2-3 1.8-3.6.6-.6 1.8-1.2 3-1.2h1.2c1.8-.6 3.6-1.2 5.4-.6-1.2-4.2-1.8-8.4-3-12-1.8-4.8-3-9-4.8-11.4-.6-1.3-1.2-1.9-2.4-1.9h-1.2c-.6 0-.6.6-1.2 1.2-.6 1.3-1.2 2.5-1.2 4.3 0 2.4 0 5.4.6 8.4.6 1.8.6 3 1.2 4.8.6 2.4 1.2 4.2 1.2 6v1.2c0 1.2 0 1.8-.6 2.4-1.2.6-1.8 0-2.4-1.2-.6-1.2-1.8-6-3-11.4-.6-1.8-.6-3-1.2-4.8-.6-3.6-1.2-6.6-1.2-8.4a9 9 0 0 1 2.4-6.7c1.8-1.8 4.8-3 8.4-3a40.5 40.5 0 0 1 26.5 10.9c4.2 3.6 8.4 8.4 11.4 14.4 6 10.8 9 25.9 13.3 44a117 117 0 0 0 3 12c3.6 16.2 8.4 33.7 12.6 50l5.4 19.2c1.2 5.4 2.4 10.2 3.6 14.4 4.2 15.6 7.9 30 12 42.7 1.9 6.6 4.3 12 6.7 17.5.6.6.6 1.8 1.2 2.4 2.4 4.2 3.6 7.8 4.8 9.6.6.6.6 1.2.6 1.8.6.6.6.6.6 1.2.6 3-.6 3.6-3 1.2l-.6-.6c-.6-1.2-3-5.4-5.4-12-1.2-2.4-3-4.8-4.2-7.8-1.8-3-4.2-6-6-9.7a138.5 138.5 0 0 1-15-26.4 181 181 0 0 1-8-25.3 205 205 0 0 1-5.3-28.9l-1.8-11.4a410.3 410.3 0 0 0-9-45.8 76.1 76.1 0 0 0-8.5-18.6 58.8 58.8 0 0 0-10.8-12.7c-2.4-1.8-4.8-3.6-7.2-4.2 0 .6-.6 1.8-1.8 1.8-1.3 0-1.9-.6-2.5-1.2l-.6-1.8h-2.4a36.3 36.3 0 0 1 3.6 15c.6 4.9 0 9.1-.6 12.1-.6 1.2-1.2 2.4-1.8 3-.6.6-1.8 1.2-2.4 1.2 1.2 4.8 2.4 10.3 4.2 15.7 1.9 6.6 3.7 13.8 5.5 21zm-13.3-56c.6 4.3 1.8 9 3 13.9 0 0 0 .6.6.6s.6.6.6.6.6-.6.6-1.2c.6-2.4.6-6.6.6-10.8-.6-4.2-1.2-8.5-2.4-11.5-.6-1.2-1.2-1.8-1.8-2.4-1.2 1.2-1.8 3-2.4 5.4 0 1.9.6 3 .6 5.5zm11.4-15.6c3.7 1.2 7.3 3 10.9 6 4.2 3.6 8.4 7.9 12 13.9a97 97 0 0 1 8.4 19.2c4.3 12.7 6.7 29.5 9.7 45.8l1.8 11.4c1.8 10.2 3.6 19.9 5.4 28.9 2.4 9 4.8 17.4 7.8 24.7a133 133 0 0 0 15 25.8v.6l-.5-1.2a668.7 668.7 0 0 1-12-42.7c-1.3-4.8-2.5-10.2-3.7-13.8-1.8-6-3.6-12.7-5.4-19.3-4.2-16.8-9-34.3-12.6-50a117 117 0 0 0-3-12 182.3 182.3 0 0 0-12.7-42.7 40 40 0 0 0-10.8-13.2 52.5 52.5 0 0 0-14.5-8.5 18.5 18.5 0 0 0-9.6-1.2h-1.8c.6 0 1.2 0 1.8.6 1.2.6 2.4 1.8 3.6 3 2.4 3 4.2 7.3 5.4 12.7 1.2 4.2 2.4 9 3.6 13.8l1.2-1.8z"/><path d="M332.3 543.6c.6.6 1.2 1.8.6 2.4-.6.6-1.8 1.2-3 .6l-6.6-4.8a28.1 28.1 0 0 0-6-3 30 30 0 0 0-12.7-.6c-1.2 0-1.8-.6-1.8-1.8 0-1.2.6-1.8 1.8-1.8 4.8-.6 9-.6 13.9.6 2.4.6 4.8 1.8 7.2 3.6 2.4 1.2 4.2 3 6.6 4.8z"/><path d="M302.8 421.4c.6.6 1.2 1.8 0 3-.6.6-1.8 1.2-3 0-3-3-6.6-5.4-9-7.2-2.4-1.2-4.2-2.4-5.4-1.8-1.2.6-1.8 3-2.4 6.6-.6 4.3 0 10.3.6 17.5a157.4 157.4 0 0 0 13.8 47 41.8 41.8 0 0 0 15 14.4l5.5 3.6c5.4 4.8 7.2 11.4 9 18v1.2c0 .6-.6 1.2-1.2 1.2s-1.2 0-1.8-.6c-.6 0-.6-.6-.6-1.2-1.2-6-3-12-7.9-15.6-1.2-1.2-3-2.4-4.8-3-4.8-3-10.8-6.6-16.2-15.7-3-5.4-6-12.6-8.4-20.4-3-9.7-4.9-19.3-6-27.7a67.3 67.3 0 0 1-.7-18.7c.6-5.4 1.8-8.4 4.3-9.6 2.4-1.2 6 0 9 1.8s6 4.8 9.6 7.2z"/><path d="M532 410.6c.7-1.2 1.9-1.2 2.5-1.2 1.2.6 1.2 1.8 1.2 2.4-6 12-11.4 24-12 39.1 0 6.6 1.2 13.3 2.4 19.9a137 137 0 0 0 7.2 23.4c2.4 6 4.8 10.3 6.6 13.9 1.8 3 3 5.4 4.2 8.4 0 .6.6.6.6 1.2 1.2 2.4 2.4 5.4 3 8.4v.6c0 .6 0 1.2.6 2.4.6 3.7.6 7.9.6 11.5-.6 3.6-1.8 6.6-3.6 9-1.8 3-4.8 4.8-7.2 6-3 1.2-5.4 1.8-7.2 1.8H529c-.6-.6-1.2-1.2-1.2-1.8 0-.6 0-1.2.6-1.8.6-.6 1.8-1.2 3-2.4 1.8-1.2 4.8-2.4 6-4.2 0-.6.6-.6.6-1.2v-1.8c0-.6-.6-1.2-1.2-1.8-.6-.6-1.2-.6-1.2-.6-1.8-.6-4.2-.6-7.2 0-2.4.6-5.4 1.2-7.2 3-2.5 1.8-3.7 4.2-5.5 6-1.2 1.8-2.4 3.6-3.6 4.8 0 1.8.6 3 1.2 4.8.6 2.4 1.8 5.5 2.4 7.9a41 41 0 0 1 3 13.8c0 3.6-1.2 6.6-3.6 8.4a12.6 12.6 0 0 1-7.8 4.2c-3.6.6-7.2-.6-10.8-1.8l-7.8-1.8c-3-.6-6 0-9 .6-3.7.6-7.3 1.8-11.5 3l-1.2.6c-8.4 2.4-18 5.5-25.9 6h-1.8.6c3 1.3 6.6 2.5 10.8 3 4.9 1.3 10.3 1.9 15 2.5 6.7.6 12.7.6 17.5.6 4.3 0 7.3-.6 10.3-.6 3 0 4.8-.6 7.8-.6 2.4 0 5.4 0 7.8.6h2.4c2.4-.6 4.2-1.2 6-1.8 3-1.2 4.9-2.4 6.7-3.6 1.2-1.2 1.8-3 2.4-4.9.6-1.8 0-3.6-.6-4.8-.6-1.8-2.4-2.4-3.6-3-.6-.6-1.2-.6-1.2-1.2-.6-1.2 0-1.8 1.2-2.4.6 0 3 0 7.2.6 2.4 0 4.8.6 7.2 1.2 4.8.6 10.8 1.2 17.4 2.4 4.9.6 9.7 1.2 13.9 1.2 1.8 0 3 0 4.8.6 4.8.6 8.4.6 10.2 1.2 1.8.6 2.4 1.8 1.8 3.6-.6 1.2-1.8 1.8-3.6 3-1.2 1.9-1.8 4.3-3 6a65.6 65.6 0 0 1-3.6 6.7c-1.2 2.4-3 4.2-4.8 6.6a91 91 0 0 1-38 22.9 123 123 0 0 1-44.4 3 76 76 0 0 1-18.7-5.4c-5.4-2.4-10.2-6-15-9.7l-3.7-3.6a57.6 57.6 0 0 1-8.4-10.2c-2.4-3.6-3-7.2-1.2-9l.6-.6c-.6-.6-1.8-.6-2.4-1.2a32 32 0 0 1-9.6-4.8c-1.2-1.2-1.8-1.9-.6-3 .6-1.3 1.8-1.3 3-.7 1.8.6 5.4 1.2 9.6.6 7.2-.6 16.9-3.6 25.3-6l1.2-.6c4.2-1.2 7.8-2.4 11.4-3 3.6-.6 7.2-1.2 10.3-.6l8.4 1.8c3.6 1.2 6.6 1.8 9 1.8 2.4 0 4.2-1.2 5.4-3 1.2-1.8 2.4-3.6 2.4-6a38 38 0 0 0-3-12.6c-.6-2.4-1.8-5.5-2.4-8.5 0-1.2-.6-2.4-.6-3.6-1.2.6-3 .6-4.2 0a26.2 26.2 0 0 1-12-7.2c-2.4-2.4-4.8-4.8-7.9-5.4-2.4-.6-4.8-.6-6.6 0-1.8.6-3.6 1.2-3.6 2.4 0 .6 0 1.8 1.2 3l4.2 4.2c.6.6 1.2 1.2 1.8 1.2 1.8 1.2 3 2.4 2.4 3.6-.6 1.2-1.2 1.8-3.6 1.2-1.8-.6-5.4-1.8-9-3.6-2.4-1.2-4.8-3-6.6-4.8a19 19 0 0 1-4.8-9A17 17 0 0 1 461 531c1.2-3 3-5.5 4.2-7.3 2.4-3 5.4-5.4 6.6-6 1.8-.6 2.4 0 3 1.2v5.4a7.3 7.3 0 0 0 3 3c1.2.6 3 1.2 4.8.6 2.4-.6 4.9-1.8 7.3-3 2.4-1.2 4.2-2.4 6.6-3 3-1.2 5.4-1.2 8.4-1.2s5.4.6 8.4 1.8c2.4.6 4.2 1.8 6 3 1.9 1.2 3.7 2.4 6 3 1.9.6 3.7.6 5.5 0 1.8-.6 4.2-1.2 5.4-1.8 1.2-.6 1.8-1.8 2.4-2.4.6-1.2.6-1.8 1.2-3.6v-2.4c0-1.8 0-3 .6-3.6-.6-1.8-1.8-3-2.4-4.8-1.8-3.6-4.2-7.8-6.6-14.4-2.4-6.7-5.4-15-7.8-24.1a87 87 0 0 1-2.4-21c0-15.7 6-28.4 12-41l-1.2 1.2zM543.6 528c-.6-1.8-.6-3.6-1.2-5.4 0 1.2-.6 2.4-1.2 3.6-.6 1.8-2.4 3-4.2 4.3a20.3 20.3 0 0 1-7.2 2.4c-2.4.6-4.8 0-7.2-.6-2.5-.6-4.9-2.4-7.3-3.7-1.8-1.2-3.6-2.4-5.4-3-1.8-.6-4.2-1.2-6.6-1.2-2.4 0-4.8.6-7.2 1.2-1.8.6-4.2 1.8-6 3-3 1.9-6 3-8.5 3.7-2.4.6-4.8 0-7.2-1.2-2.4-1.2-4.2-3-4.8-4.9-.6-1.2-.6-2.4-.6-3-1.2.6-2.4 1.8-3.6 3.6-1.8 1.8-3 4.3-3.6 6.7-1.2 3-1.2 5.4-.6 8.4s1.8 5.4 3.6 7.2c1.8 1.8 3.6 3 6 4.2.6 0 .6.6 1.2.6-.6-.6-.6-1.2-1.2-1.2-1.8-2.4-2.4-4.2-1.8-6.6.6-1.8 3.6-3.6 6.6-4.2 2.4-.6 6-.6 8.4 0 3.7 1.2 6.7 3.6 9.7 6.6 1.2 1.2 2.4 2.4 4.2 3.6 1.8 1.2 4.2 2.4 6 2.4h3V549c.6-4.2 2.4-8.4 6.6-10.2 4.2-1.8 9.7-2.4 15-3 5.5-.6 10.3-1.2 12.7-3 1.2-.6 1.8-2.4 1.8-3.7zm.6 12.7c0-1.8.6-3.6 0-6l-.6.6c-2.4 1.8-6.6 2.4-10.8 3 1.2 0 2.4.6 3 .6 1.2.6 1.8.6 2.4 1.2 1.2 1.2 2.4 2.4 2.4 3.6.6 1.2.6 3 0 4.2l.6-.6a20 20 0 0 0 3-7.2zm-26.5 1.2c1.8-1.2 3.7-1.8 5.5-3l-7.9 1.8c-3 1.8-4.2 4.2-4.8 7.8v1.8l1.2-1.2c1.8-2.4 3.6-4.8 6-7.2zm1.2 69.8h-8.4c-1.8.6-3.6.6-5.4 1.2l-16.8 1.8c-6 .6-13.3 0-19.9-.6-4.8-.6-9.6-1.8-13.8-2.4-6.7-1.2-12-2.4-13.3-1.2-.6.6.6 2.4 1.8 4.8a55 55 0 0 0 11.5 12.6c4.2 3.6 9 6.7 13.8 9a53.4 53.4 0 0 0 17.4 4.9 109.7 109.7 0 0 0 42.1-3c6.7-1.8 12.1-4.2 17-6.7 4.7-2.4 8.3-5.4 12-7.8 3-2.4 5.4-4.8 7.2-6.6 1.8-2.4 3-4.2 4.8-6 1.2-1.8 2.4-4.2 3.6-6.6l.6-1.2c-3 1.2-7.2 2.4-10.8 3.6-6.6 1.8-13.9 1.8-19.9 2.4-2.4 0-5.4.6-7.2.6-3 .6-6 .6-7.8 1.2-3 .6-6 1.2-9 1.2zm3.7-4.2c1.8 0 3-.6 4.8-.6 2.4-.6 5.4-1.2 8.4-1.2 2.4 0 4.8-.6 7.8-.6 6-.6 12.7-.6 19.3-2.4 4.2-1.2 8.4-2.4 11.4-4.2 1.2-.7 1.8-1.3 3-1.3.6-.6 1.2-1.2 1.8-1.2-1.8-.6-4.2-.6-7.8-.6-1.8 0-3 0-4.8-.6-4.2-.6-9-.6-13.9-1.2-6-.6-12.6-1.2-17.4-2.4-3-.6-5.4-.6-7.2-1.2l.6.6c1.2 1.8 1.2 4.8.6 7.2-.6 2.5-1.8 4.9-3.6 6.7-.6 1.2-1.8 1.8-3 2.4v.6z"/><path d="M634.4 684.4c0 1.2-.6 1.8-1.8 2.4-1.2 0-1.8-.6-2.4-1.8 0-3-.6-6-.6-8.4 0-3-.6-5.4-.6-8.4v-9c0-3 0-6 .6-9.1 0-1.2 1.2-1.8 1.8-1.8 1.2 0 1.8 1.2 1.8 1.8 0 3 0 6-.6 9v9c0 3 0 5.5.6 8.5 0 3 .6 5.4.6 8.4z"/><path d="M375 383a195 195 0 0 0-11.4-51.8c-3-7.8-7.2-14.5-10.8-19.3-4.3-6-9-9.6-12.7-11.4-.6 0-1.2-.6-1.2-.6-2.4-.6-4.2-.6-5.4 0-1.8.6-3 2.4-3.6 4.2 0 .6-.6 1.2-.6 1.8-1.2 3-1.8 7.2-1.8 11.4 0 3-.6 6.7-1.2 9.7-.6 3-1.8 6.6-2.4 9.6-1.2 4.2-2.4 8.4-3 12 0 3 .6 5.4 1.2 8.5 1.2 3 3 5.4 5.4 8.4 1.8 2.4 4.2 4.8 7.2 7.8a102.7 102.7 0 0 1 24.7 19.9V395c-.6 1.8-1.2 1.8-3 1.2-.6 0-.6-.6-1.2-.6-2.4-1.2-6.7-4.9-11.5-8.5-3.6-3-7.2-6-10.8-9.6l-.6-.6c-1.2-.6-1.8-1.2-3-1.8a42 42 0 0 0-10.2-3.6c-3-.6-5.5-.6-7.3 0-1.8.6-3.6 1.8-4.8 3-1.2 1.8-2.4 3.6-3.6 6a54 54 0 0 0-1.2 10.8c0 4.9.6 10.9 1.2 16.9.6 4.8 1.8 9.6 3.6 13.2 1.8 3.6 4.2 6 6.6 7.3 3 1.2 6 1.8 10.3 1.8 4.2 0 8.4-.6 13.2-1.8 4.8-1.2 9.6-3 13.9-4.9a100.2 100.2 0 0 0 15.6-9.6c1.2-.6 2.4 0 2.4 1.2.6.6 0 1.8-.6 2.4l-1.8 1.8a54.3 54.3 0 0 0-5.4 6l-4.8 6.7a10.5 10.5 0 0 0-1.8 4.2c.6-.6 1.8-1.2 3-2.4 1.8-1.8 3.6-3.6 5.4-6 3.6-3.7 6.6-7.9 9-7.3 2.4.6 2.4 3 1.8 6 0 1.3-.6 3-1.2 4.9l-1.8 7.8a22.6 22.6 0 0 0 1.8 14.4c.6 1.2 1.8 1.8 3.6 1.8h6c2.5-.6 4.9-.6 7.9-1.8 3-1.2 6-2.4 9.6-4.8 3.6-2.4 7.2-5.4 11.4-9 3.6-3.6 6.6-7.2 9-10.2 2.5-3.6 4.3-6.7 4.3-9 0-2.5-.6-4.3-2.4-6a20 20 0 0 0-7.3-3c-2.4-.7-5.4-1.3-7.8-1.9-1.8 0-3-.6-3.6-.6h-1.2c-10.8-.6-16.2-2.4-16.8-3.6h-.6c-.7 0-1.3 0-1.9-.6-1.2-1.2-.6-1.8 0-2.4 1.2-1.2 4.3-4.8 5.5-7.8.6-1.2.6-1.8.6-2.4-1.2.6-2.4 3-4.2 5.4l-1.3 1.2c-1.2 1.8-2.4 3.6-3.6 4.8-2.4 2.4-4.2 3-4.8.6-.6-.6 0-1.8 0-3 0-2.4.6-7.8 0-16.9zm-.6-29c2.4 10.9 3.6 21.1 4.2 28.3a56 56 0 0 1 0 14.5l1.8-1.8 1.2-1.2c2.4-3 4.9-6 6.7-7.3h1.8c1.2 0 1.8.6 2.4 1.2.6.6.6 1.2.6 2.4v1.2c1.2-.6 1.8-1.8 3-2.4l8.4-6.6a407 407 0 0 0 11.4-7.8c4.3-3 9-6 15-9 5.5-3 12.1-6.6 18.1-10.3 6-3 12-6 17.5-8.4 5.4-1.8 10.2-3 13.8-3.6 4.2-.6 7.3.6 8.5 3 1.2 2.4.6 4.8-1.2 8.4-1.9 3-4.3 6.7-7.3 10.9s-6.6 8.4-10.2 12.6c-3.6 4.2-7.2 7.8-10.8 11.4-3.6 3.7-7.3 7.3-11.5 10.3-3.6 3-7.2 5.4-11.4 6.6a26 26 0 0 1-11.4 2.4h-1.2l.6.6c3 2.4 4.2 5.4 4.2 9-.6 3.6-2.4 7.2-4.8 10.9-2.4 3.6-6 7.2-9.7 10.8a81 81 0 0 1-11.4 9.6 57 57 0 0 1-10.2 5.4c-3 1.2-6 1.8-8.5 2.4-2.4.6-4.8.6-7.2 0-2.4-.6-4.2-1.2-6-3a20 20 0 0 1-3-7.2c-.6-3 0-6.6 0-10.2l1.8-8.4c.6-1.8.6-3.7 1.2-4.9v-.6l-4.2 4.9c-1.8 2.4-4.2 4.2-5.4 6-1.8 1.8-3.6 3-4.8 3-1.2 0-1.8.6-2.4 0-1.2 0-1.8-.6-1.8-1.8-.6-.6-.6-1.8-.6-2.4 0-1.8 1.2-3.6 2.4-6l3.6-5.5c-1.8.6-3 1.8-4.8 2.4-4.9 1.8-9.7 3.7-14.5 4.9a58.3 58.3 0 0 1-13.8 1.8c-4.8 0-8.4-.6-12-2.4-3.7-1.8-6-4.9-8.5-9-1.8-3.7-3-9.1-4.2-14-1.2-6-1.2-12.5-1.2-17.4 0-4.8.6-9 1.8-12 1.2-3 2.4-6 4.2-7.8 1.8-1.8 4.2-3.6 6.6-4.2 2.4-.6 5.5-.6 9 0 1.9.6 3 .6 4.9 1.2l-.6-.6c-2.4-3-4.8-6-6-9-1.2-3-1.8-6.7-1.8-10.3 0-4.2 1.8-8.4 3-13.2 1.2-3 1.8-6 2.4-9.7.6-3 1.2-6 1.2-9 .6-4.2.6-8.4 2.4-12 0-.6.6-1.2.6-1.8 1.2-2.4 3-4.8 5.4-6 2.4-1.2 5.4-1.2 9 0 .6 0 1.2.6 1.8.6a43 43 0 0 1 13.9 12.6c4.2 5.4 7.8 12 11.4 20.5 3 7.8 5.4 16.2 7.8 24.6zm-3 69.2-.6.6c.6-.6 1.2-.6.6-.6zm31.3-18.6c.6 0 2.4 0 4.2.6 1.8 0 4.2.6 6.6.6 3.6.6 6.7.6 10.3.6 3.6 0 6.6-.6 10.2-2.4 3.6-1.2 6.6-3.6 10.2-6.6 3.6-3 7.2-6 10.9-10.3 3.6-3.6 7.2-7.2 10.2-11.4 3.6-4.2 7.2-8.4 10.2-12.6 3-3.6 5.4-7.3 6.6-10.3 1.2-2.4 1.8-4.2 1.2-4.8-.6-.6-1.8-1.2-4.8-.6-3 0-7.8 1.2-12.6 3.6a143 143 0 0 0-17.5 7.9c-6 3-12 6.6-17.4 9.6-5.4 3-10.2 6-14.5 9-4.2 3-7.8 5.4-11.4 7.8-3 2.4-6 4.2-8.4 6.7-2.4 1.8-4.8 3.6-6.6 5.4-3 2.4-4.8 4.8-6 6 1.8-.6 7.2-1.2 16.8.6h.6z"/><path d="M632 228.9c1.2-2.4 2.4-6.6 3-10.9.6-3.6 1.8-7.8 1.8-12 .6-4.8.6-9.6 0-13.8 0-4.2-1.2-7.9-1.8-10.9-.6-2.4-1.8-4.2-3-4.8-1.2-.6-1.8-1.2-2.4-.6-.6 0-1.8 1.2-2.4 2.4-1.2 1.2-1.8 3-3 4.8l-.6 1.2c-1.9 3-3.7 6.7-6 9.7-1.3 1.2-1.9 2.4-3 3.6-1.9 1.8-3 3.6-3.7 4.8-.6 1.2-.6 2.4-1.2 3 0 1.2 0 1.8.6 3s1.2 1.8 1.8 2.4c.6.6 1.2 1.2.6 2.4s-1.2 1.8-2.4 1.2c0 0-.6 0-1.2-.6-1.2-.6-3.6-1.8-6-1.8-1.2 0-3 0-4.2.6-1.2.6-2.4 1.8-3.6 3-1.2 1.8-2.4 3.7-3 5.5-.6 2.4-1.8 4.8-1.8 7.8-.6 2.4-.6 5.4 0 7.2.6 1.8 1.2 3 1.8 3.6 2.4 1.8 6.6 1.8 10.8 1.2h5.4c2.4 0 4.8 0 7.2-.6 2.4 0 4.2-.6 4.8-1.2 1.2-.6 2.5-.6 3 1.2.7 1.2 0 1.8-1.2 2.4h-.6c-1.2.6-4.2 1.2-6 2.4-1.2.6-2.4 1.2-3 1.8.6-.6 1.8-1.2 3-1.8 1.8-1.2 4.2-1.8 6-2.4 2.5-.6 4.3-1.2 5.5-1.2 1.8 0 2.4.6 3 1.8 0 1.2-1.2 2.4-3 4.2-.6.6-1.2 1.2-1.8 1.2-1.8 1.2-3.7 3.6-5.5 5.5-1.8 1.8-3.6 4.2-5.4 6-1.8 1.8-3 3-3.6 4.2-.6.6-.6 1.2-.6 1.2 0 .6 1.2.6 2.4.6 1.8 0 4.2 0 6.6-.6 3-.6 6.7-1.8 9.7-3.6 3-1.2 6-3 7.8-4.8a8 8 0 0 0 3-3.7v-.6c-1.2-.6-1.8-1.2-1.8-1.8-.6-.6-.6-1.8 0-2.4 0-.6.6-.6 1.2-1.2h1.2c1.2 0 2.4.6 3 2.4 1.2 0 2.4.6 4.2 0 2.4-.6 5.4-1.2 9-3 3.7-1.2 7.3-3.6 10.9-5.4a175 175 0 0 0 17.4-10.2c1.2-1.2 2.4-1.8 2.4-1.8 0-.6 0 .6-.6.6-1.2 0-3.6-.6-6-.6-3 0-6.6.6-10.2.6-3.6.6-7.2.6-11.4 1.2l-9.7 1.8c-6 1.2-9.6 3-12.6 4.2a8.6 8.6 0 0 1-3.6 1.2h-.6c-1.2 1.2-2.4 1.2-3.6 1.2-3 .6-3-.6 0-3-.6 0-1.2-.6-1.2-1.2s0-1.2.6-1.8c.6-.6 1.8-2.4 3-5.4zm7.2-9.6a87.2 87.2 0 0 1-3.6 11.4c0 .6-.6 1.2-.6 1.2 1.2-.6 2.4-.6 3-.6.6 0 1.2 0 1.2.6.6.6.6.6.6 1.2 2.4-1.2 5.4-1.8 9-3l9.7-1.8c3.6-.6 7.8-1.2 11.4-1.2 3.6-.6 7.2-.6 10.2-.6 3 0 5.4 0 6.6.6 3 .6 4.2 1.8 3.6 4.2 0 1.2-1.2 3-3.6 4.2-1.8 1.2-4.2 3-7.2 4.8a175 175 0 0 1-10.8 6l-10.8 5.4c-3.7 1.9-7.3 3-9.7 3-1.8.7-3.6 0-4.8 0 0 .7 0 .7-.6 1.3-.6 1.2-1.8 3-4.2 4.8a59.4 59.4 0 0 1-19.3 9c-3 .6-6 1.2-7.8 1.2-3 0-4.8-1.2-5.4-2.4-1.2-1.8-.6-3 .6-5.4.6-1.2 2.4-3 4.2-4.8 1.8-1.8 3.6-4.2 5.4-6l4.2-4.3-3.6 1.8c-1.8.6-3 1.8-4.2 2.4-1.2 1.3-2.4 1.9-3.6 1.9H608c-.6 0-1.2-.6-1.8-1.9v-1.8c0-.6.6-1.8 1.2-3a7.3 7.3 0 0 1 3-3H603.7c-4.8 0-10.2.6-13.2-2.4-1.9-1.2-3-3.6-3.7-6-.6-2.4-.6-5.4 0-8.4l1.8-8.4c1.3-2.5 2.5-4.9 3.7-6.7 1.2-1.8 3-3 4.8-4.2 1.8-1.2 4.2-1.2 6-1.2 1.2 0 1.8.6 3 .6 0-1.2-.6-2.4 0-3 0-1.8.6-3 1.2-4.8 1.2-1.8 2.4-3.6 4.2-5.4 1.2-1.2 1.8-2.4 3-3.6l5.4-9c.6-.7-.6.5.6-1.3s1.8-3.6 3-5.4c1.3-1.8 3-3 4.9-3.6 1.8-.6 4.2 0 6 1.8 1.8 1.2 3 3.6 3.6 6.6 1.2 3 1.8 7.3 1.8 12 .6 4.9 0 9.7 0 14.5l-1.8 12.7h1.2z"/><path d="M479.7 229.5c-1.8-6-3.6-14.5-4.8-24a84.2 84.2 0 0 1-1.2-21.2c0-6.6 1.8-12.6 3.6-16.8 2.4-5.4 5.4-9 8.4-10.2 3-1.8 6-1.2 8.5.6 2.4 1.8 4.2 4.2 6 6.6 1.2 1.8 2.4 4.2 3.6 6 1.8 3 3 6 5.4 8.4l3.6 3.6c2.4 2.5 5.4 5.5 6 8.5.6 2.4.6 4.8 0 7.2 0 .6-.6 1.8-.6 2.4h3a22.9 22.9 0 0 1 15.6 7.2c2.5 2.4 4.3 5.4 6.1 9a29.6 29.6 0 0 1 3.6 19.9 20 20 0 0 1-3 7.2c-1.8 2.4-4.2 3.6-6 4.8a34 34 0 0 1-7.2 2.4c-2.4.6-5.4.6-8.4.6-2.5 0-4.9 0-6.7-.6.6 0 .6.6 1.2.6 1.8 1.2 3 2.5 3.6 3.7.7.6.7 1.2.7 1.8 0 1.2 0 1.8-.7 2.4-.6 0-.6.6-1.2.6-2.4.6-6-1.8-10.8-4.2h-.6l-3.6-1.8c1.2 1.2 2.4 3 4.2 4.2l3.6 3.6c4.8 4.8 9.7 9.6 12 12.6 1.9 3 1.9 5.4 0 6.6-1.1 1.2-3.6 1.8-6.6 1.8-3 0-6.6 0-10.2-.6-3.6-.6-6.6-1.8-10.2-3-3.6-1.2-7.2-3.6-10.3-5.4a58.8 58.8 0 0 1-8.4-6.6c-2.4-2.4-3-4.2-3.6-6v-3c-.6 0-1.2.6-1.2.6-2.4.6-4.8 1.2-7.2.6-2.4-.6-4.8-1.2-8.4-2.4-5.5-2.4-12.7-6-20.5-9.7l-3-1.2-1.8-.6c-7.8-4.2-15-7.8-17.5-10.2-3-3-2.4-4.8 1.8-5.4 1.9-.6 5.5-.6 10.9 0l19.2 1.8a184.3 184.3 0 0 1 27.7 4.8v-.6c0-.6.6-1.2 1.2-1.8.6-.6 1.8-.6 3.6-.6 1.2 0 3 .6 4.2 1.2.6 0 .6 0 1.2.6-.6-1.8-1.2-3.6-1.8-6zm-1.2-24.7c1.2 9 3 17.5 4.8 23.5 1.8 6 3 8.4 3.7 9.6 0 .6 0 .6.6.6 1.2 4.2.6 4.2-1.9 3-.6 0-1.2 0-1.8-.6h-.6s0 .6.6.6c.6 1.8 0 3-2.4 2.4h-1.2c-1.2-.6-3.6-1.2-5.4-1.8l-1.2-.6c-3-.6-7.2-1.8-11.4-2.4-5.4-1.2-12.7-1.8-19.3-3-7.2-1.2-13.8-1.8-19.2-1.8-3.6 0-6.7-.6-8.5 0 3 1.8 9 5.4 15.7 8.4l1.8.6 3 1.2c7.2 3.6 14.4 7.2 19.9 9.7 3 1.2 5.4 1.8 7.2 2.4 1.8 0 3.6 0 5.4-.6l4.2-1.8c2.4-1.3 4.2-2.5 4.8-3 7.2-6 13.9-9.7 17.5-11.5 3-1.8 3.6-1.8 3-1.2 1.8.6-3 5.4-18 15.7h-.7c-1.2.6-3 2.4-4.2 3.6-.6 1.2-1.2 1.8-.6 3 0 1.2 1.2 2.4 2.4 4.2 1.8 1.8 4.8 4.2 7.8 6a71.8 71.8 0 0 0 19.3 7.8c3.6.6 6.6 1.2 9.6.6 1.8 0 3.6-.6 4.2-.6 0 0 0-.6-.6-1.8a67 67 0 0 0-11.4-12l-3.6-3.6c-2.4-2.4-3.6-4.2-5.4-5.4a10.6 10.6 0 0 1-2.4-3c-.6-1.3-.6-3 0-3.7 1.2-1.2 3-.6 5.4.6 1.8.6 3.6 1.8 6 3h.6l6 3c-.6-.5-1.2-1.1-1.8-1.1-1.2-1.2-3.6-1.9-4.8-3-1.2-.7-2.4-1.3-3-1.9l-.6-.6c-.6-1.2-.6-1.8.6-2.4 1.2-.6 4.2 0 7.8 0 2.4 0 5.4.6 7.8.6 3 0 5.5 0 7.9-.6 2.4-.6 4.2-1.2 6-1.8 1.8-1.2 3.6-2.4 4.8-4.2 1.2-1.2 1.8-3 2.4-5.4.6-2.4.6-5.4 0-8.4s-1.8-6.6-3-9.7a26.7 26.7 0 0 0-12-12.6c-2.4-.6-4.3-1.2-6.7-1.2-1.8 0-3.6 0-4.8.6-1.2 1.2-1.8 1.8-3 1.8-.6 0-1.8 0-1.8-.6-.6-.6-.6-1.8 0-2.4.6-.6 1.2-1.2 2.4-1.8h.6c.6-1.2 1.2-2.4 1.8-4.2.6-1.8.6-3.6 0-4.8-.6-2.4-3-4.2-4.8-6.6l-4.2-4.3a36 36 0 0 1-5.4-9c-1.2-1.8-1.8-3.6-3-5.4-1.2-2.4-3-4.2-4.8-5.4a3.7 3.7 0 0 0-4.3-.6c-2.4 1.2-4.2 4.2-6 8.4a38 38 0 0 0-3 15.7c0 6 .6 13.2 1.2 20.4v-.6zm-1.8 33.1c1.8.6 3 .6 4.2 1.2-.6 0-1.2-.6-1.8-.6-1.2-.6-2.4-.6-3-.6z"/><path d="M405.7 288.5v-9c0-7.3 0-15.7 1.2-23a35 35 0 0 1 3.6-12.6c1.8-4.2 3.6-6.6 5.4-7.2 2.5-.6 4.3 1.2 5.5 4.2.6 2.4 1.2 5.4 1.8 9l1.8 14.5c.6 3 .6 5.4.6 7.2v1.8c1.2 7.2 1.8 13.8.6 18.7-.6 1.8-1.2 3-1.8 4.2 1.2 0 2.4.6 3.6 1.8 1.8 1.2 3.6 4.2 4.8 7.2 1.2 3 1.8 6.6 3 9.6l1.8 9.7c0 3 .6 5.4 0 6.6-.6 2.4-1.8 4.2-3.6 3.6-1.2 0-3-1.2-5.4-3-3.6-3.6-9-10.3-12.7-15v-.7c-.6-1.2-1.8-1.8-2.4-3v1.2c0 1.2.6 3 .6 4.2 0 2.4.6 5.5 0 7.3 0 .6 0 1.2-.6 1.8-.6 1.2-1.2 1.8-2.4 1.2-.6 0-.6-.6-1.2-.6-.6-1.2-1.8-3-3-5.4-.6 1.2-.6 3-1.2 4.2-1.2 3-3 6-5.4 9-2.4 2.4-4.8 4.8-7.2 6-3 1.2-6 1.2-8.4.6-3-.6-5.5-2.4-7.3-5.4a21 21 0 0 1-4.2-9c-.6-3-1.2-6.7-.6-9 .6-2.5 1.8-4.9 3-6-2.4 0-6.6 0-10.2-1.9a56.5 56.5 0 0 1-10.8-7.2c-3.6-3-6.7-6.6-9.7-10.2l-7.2-9c-1.8-3.7-1.8-6 1.2-7.9 1.8-.6 6-.6 10.2 0 5.5.6 11.5 1.8 17.5 3.6 5.4 1.2 10.2 3 14.4 4.2 4.3 1.8 7.9 3.7 11.5 5.5 3 1.8 5.4 4.2 7.8 6 1.8 1.8 3.6 3 4.8 3.6 0 0 .6-.6.6-1.2.6-1.8 1.2-4.8 1.2-9zm4.2-9v9.6c0 4.2-.6 7.8-1.2 10.2-1.2 3-3 4.2-5.4 4.2-1.8-.6-3.6-1.8-6.6-4.2a37.5 37.5 0 0 0-7.2-5.4c-3-1.8-6.7-3.6-10.9-5.4-4.2-1.9-9-3-13.8-4.3-5.4-1.2-11.4-3-16.9-3.6-3.6-.6-6.6-.6-8.4 0-.6 0 0 1.2.6 2.4 1.2 2.4 3.6 5.5 6.6 8.5 3 3 6 6.6 9.7 9.6 3 3 6.6 5.4 9.6 6.6 4.2 1.8 8.4 1.2 10.8 1.2 1.2 0 2.4 0 3.6.6 1.2 1.2 1.2 2.4 0 3.6 0 0-.6.6-.6 1.2-1.2 1.2-3 3.6-3.6 6a10 10 0 0 0 .6 7.3c.6 3 1.8 5.4 3.6 7.2 1.8 1.8 3.6 3.6 5.5 4.2 1.8.6 3.6.6 6-.6 1.8-.6 4.2-2.4 6-4.8a55 55 0 0 0 4.8-7.8c1.2-2.4 1.2-4.9 1.8-6.7 0-1.8.6-2.4 1.2-3 1.2-1.2 1.8-1.2 3 0 .6.6 1.2 2.4 2.4 4.2v-1.2c0-1.2-.6-3-.6-4.2-.6-3-.6-5.4 0-6.6 1.2-2.4 3-2.4 4.8.6 1.2 1.2 2.4 3 4.3 5.4v.6c3.6 4.8 8.4 11.5 12 14.5 1.2 1.2 2.4 1.8 3 2.4v-6.6c0-3-.6-6-1.8-9-.6-3-1.8-6.7-2.4-9-1.2-2.5-1.8-5-3.6-5.5-1.8-1.2-4.2-.6-5.4-.6-.6 0-1.2.6-1.8 0-1.2-.6-1.2-1.2-1.2-2.4 0-.6.6-.6.6-1.2.6-.6 3-2.4 4.2-5.4 1.2-4.3 0-10.9-.6-17.5v-1.8c-.6-3-.6-5.4-.6-7.2l-1.8-14.5-1.8-8.4c-.7-1.2-.7-1.8-.7-1.8-.6 0-1.8 1.8-3 5.4a50 50 0 0 0-3 12c-1.2 6.7-1.2 15.1-1.2 22.3l-.6-1.2zm0 48c-.6-.5-.6-1.7 0-2.3z"/><path d="M535.7 413c-.6.6-1.2 1.2-1.8 1.2.6 1.8 1.8 4.2 2.4 5.4 1.2 3 2.4 4.8 3.6 7.3 1.8 3.6 3.6 6 3 9 1.2 0 2.4-.6 3-.6 3 0 6 0 9 1.8 3 1.2 6.7 3 10.3 6 3.6 3 8.4 6.6 12 10.8 3 3.6 6 7.3 7.2 10.9 1.8 3.6 1.8 7.2 1.2 10.2-.6 3.6-2.4 6.6-4.8 8.4a13 13 0 0 1-8.4 3c1.2 0 2.4 0 3 .6a17 17 0 0 0 11.4-2.4c3-1.8 4.9-4.8 7.3-8.4a77 77 0 0 0 6.6-12 42 42 0 0 0 3.6-11.5c.6-3.6 1.2-7.2.6-10.2 0-3.6-1.2-6-1.8-8.4-1.2-1.8-2.4-3.6-3.6-4.8a9.7 9.7 0 0 0-4.2-2.4H591c-1.2 0-1.8.6-2.5 0-1.2-.6-1.8-1.3-1.2-3 0-.7.6-1.3 1.2-1.9 1.3-1.8 3.7-4.8 4.9-9.6.6-3.6 1.2-7.8 1.2-12.6 0-4.2.6-9 1.2-13.9.6-4.8 2.4-10.2 3.6-14.4 1.2-4.2 2.4-8.4 3-12 .6-3 0-5.5-.6-7.9-.6-1.8-1.8-3-3-3.6-1.2-.6-3-.6-4.8 0-2.4.6-5.5 1.8-8.5 3.6a77.7 77.7 0 0 0-24 19.3c-9 10.2-17.5 25.3-26.5 40.3zm-3-2.4c9-15 18-30 27-41a83.9 83.9 0 0 1 25.3-20.4c3.6-1.8 6.7-3 9-4.2 3-.6 5.5-.6 7.9 0 2.4 1.2 4.2 3 4.8 6 .6 2.4 1.2 5.4.6 9-.6 3.7-1.8 7.9-3 12.7l-3.6 14.4c-.6 4.2-1.2 9-1.2 13.3-.6 4.8-.6 9.6-1.8 13.2a31.4 31.4 0 0 1-4.2 9h2.4c1.8.6 4.2 1.2 6 3 1.8 1.9 3 3.7 4.2 6 1.2 3 1.8 6 2.4 9.7 0 3.6 0 7.2-.6 10.8-.6 3.6-2.4 7.8-4.2 12-1.8 4.3-4.2 9-6.6 12.7a32.4 32.4 0 0 1-8.5 9.6 19.9 19.9 0 0 1-13.8 3c-4.2 0-9.6-1.2-14.4-3-7.9-2.4-15.7-5.4-17.5-6.6-1.8-.6-1.8-1.8-1.2-3 .6-1.8 3-1.2 6.6 0 3.6 1.2 8.5 2.4 12.7 3 4.2.6 7.8 1.2 10.2 1.2 3 0 4.8-1.2 6.6-2.4 1.8-1.2 3-3.6 3.6-6 .6-2.4 0-5.4-1.2-8.4s-3.6-6.7-6.6-9.7c-3.6-3.6-7.2-7.2-11.4-10.2a88.3 88.3 0 0 0-9-5.4c-3-1.2-5.5-1.2-7.9-1.2-1.8 0-3.6.6-4.8 1.2-1.2.6-1.8.6-2.4 1.2-.6 0-.6.6-1.2.6s-.6.6-.6.6c-1.2.6-2.4.6-3-.6V438.9s.6-.6 1.2-.6l.6-.6c1.2-.6 3-1.8 3-3.6 0-1.2-.6-3.6-2.4-6.6a40 40 0 0 1-3.6-7.3 78.6 78.6 0 0 1-4.8-12.6c-1.8-4.8-3.6-10.2-5.4-13.8-1.9-3.7-3-6-4.9-7.9-1.2-1.2-3-1.8-4.2-2.4-1.2 0-3 .6-4.2 1.8a21 21 0 0 0-4.2 6.7 71.9 71.9 0 0 0-3 13.2 81.9 81.9 0 0 0 3 39.1c1.2 3 2.4 5.4 3 6.6 1.2 2.4 1.8 3.6 0 4.8-1.2.6-2.4 0-4.2-.6a8.6 8.6 0 0 0-3.6-1.2h-.6v.6c.6 1.2 1.8 3 3.6 4.8 1.8 1.9 3.6 3.7 6 5.5 2.4 1.8 4.8 3.6 7.8 4.8 2.4 1.2 4.9 2.4 6.7 3 .6 0 1.2 0 1.8.6v-.6c-.6-1.8-3.6-4.8-4.2-6l-.7-.6c-.6-1.2-.6-1.8.7-3 .6-.6 1.2-.6 1.8 0h.6s.6.6 1.2.6c1.2 1.2 3 3 4.8 4.2 1.8 1.2 3 2.4 4.8 3.6 1.8 1.2 3.6 2.4 5.4 3 1.2.6 1.2 1.8.6 2.4-.6 1.2-1.8 1.2-2.4.6-1.8-1.2-3.6-2.4-5.4-3-.6-.6-1.2-1.2-2.4-1.2 0 1.2 0 1.8-.6 2.4-.6.6-1.2 1.2-2.4 1.2s-2.4 0-3.6-.6c-1.8-.6-4.9-1.8-7.9-3.6a65.9 65.9 0 0 1-14.4-11.4 26.7 26.7 0 0 1-4.2-5.5c-.6-1.2-.6-2.4-.6-3.6 0-.6.6-1.2.6-1.2l1.2-1.2c.6-.6 1.8-.6 3 0 .6 0 1.2.6 1.8.6-.6-1.2-1.2-3-1.8-4.8-1.2-3-2.4-7.2-3.6-12.6a90.1 90.1 0 0 1 0-29c.6-5.3 1.8-10.1 3.6-13.8 1.2-3.6 3-6.6 4.8-8.4 2.4-2.4 4.8-3 7.2-3 2.4 0 4.2 1.2 6.6 3a34 34 0 0 1 5.5 8.4c1.8 4.3 3.6 9 5.4 14.5.6 1.2 1.2 2.4 1.2 3.6zM506.2 454c.6-.6 0 0 0 0z"/><path d="M524.9 316.1c0-3.6 0-9 .6-15.6.6-5.4 1.2-11.4 2.4-16.9 1.2-6 3-12 4.8-18 2.4-6.6 4.8-12.7 7.2-18 2.4-5.5 4.8-10.3 7.2-14.5 2.4-4.2 4.8-7.8 7.2-10.8 2.5-3 5.5-5.5 7.9-7.3a9.6 9.6 0 0 1 7.8-1.8c2.4.6 4.2 1.8 6 4.8 1.8 2.5 3 5.5 4.2 9.7 1.2 4.8 1.8 10.2 3 15.6.6 3 1.2 6.6 1.2 9l1.8 8.5c1.2 4.2 1.8 7.8 1.8 11.4 0 3 0 5.4-1.2 7.8-.6 1.8-1.2 3-1.8 4.2h1.2c2.4 0 4.3 1.2 6.7 3 1.8 1.9 3.6 4.3 5.4 7.3 1.2 3 2.4 6 3.6 10.2.6 3.6 1.2 7.8.6 12 0 4.2-1.2 7.9-2.4 12-1.2 4.3-3 8.5-5.4 12.1a26.6 26.6 0 0 1-7.9 8.4c-3 2.4-6 3.6-9 3.6-3 .6-6 0-9.6 0l-9.6-1.8c-3-1.2-6-1.8-8.5-3 .6.6.6 1.2 1.2 1.8 1.2 1.8 1.8 4.2 1.8 5.4.6 2.5.6 4.3-.6 4.9-1.2 1.8-3 1.2-4.8-.6l-3.6-3.7c-.6-.6-1.8-1.8-2.4-3-1.8-2.4-3.6-4.8-6-7.2l-.6-.6c.6.6.6 1.2 1.2 2.4 1.2 3 1.8 6 2.4 9 .6 2.5.6 5.5.6 7.9 0 3-1.2 4.8-2.4 6.6-1.8 1.8-4.2 2.4-7.8 1.8a76.2 76.2 0 0 1-24.7-12c-3.6-3-7.8-6-10.8-9a81.5 81.5 0 0 1-10.3-10.3c-2.4-3-4.2-4.8-4.8-7.2-.6-1.8-.6-3.6.6-4.8H478c-3.6-.6-6-1.2-9-3a27 27 0 0 1-8.4-6.7c-3.6-3-7.2-7.8-10.9-12-3-3.6-6-7.2-9.6-10.2l-7.2-7.2c-3.6-3.7-6.6-6.7-8.4-9-1.2-1.9-1.2-3-1.2-4.9 0-1.2 0-1.8.6-2.4l1.8-1.8c1.2-.6 2.4-1.2 4.8-1.2 3 0 6.6 1.2 11.4 3 4.8 1.8 10.9 4.8 17.5 8.4 7.2 3.6 16.2 9 24.6 13.9 7.9 4.8 15 9 20.5 13.2 4.8 3.6 8.4 6.6 10.8 9l.6.6c.6-.6 1.2-1.2 2.4-1.2h2.5l3.6 1.8.6.6v-4.2zm4.2-15c-.6 6-.6 11.4-.6 15 0 3.6.6 6 1.2 6.7v.6c.6 4.2 0 4.2-2.4 2.4-.6 0-1.2-.6-1.2-1.2-.6-.6-2.4-1.8-3.6-3-1.2-.7-1.8-1.3-2.5-1.3v.6c1.9 1.9 3 3 3 3.7 0 .6.7.6.7 1.2.6 3-.6 3.6-3 1.8l-.7-.6c-.6-.6-1.8-2.4-3-3.6l-3.6-3.7c-2.4-2.4-6-5.4-10.8-8.4-5.4-4.2-12.6-8.4-20.5-13.2l-24.6-13.9c-7.3-3.6-12.7-6-17.5-7.8a27 27 0 0 0-10.2-2.4c-1.2 0-1.8 0-2.4.6l-.6.6v.6c0 .6.6 1.8 1.2 3 1.2 2.4 4.2 4.8 7.8 8.4l7.2 7.3c3 3 6.6 7.2 9.7 10.8 3.6 4.2 7.8 8.4 10.8 12 3 3 5.4 4.8 7.8 6 2.4 1.3 4.8 1.9 7.8 2.5 4.8.6 11.5.6 13.9.6H494.8c.6.6 1.2 1.2.6 2.4s-1.2 1.2-2.4 1.2a30 30 0 0 0-9.7 1.8c-.6 0-.6.6-.6 1.2.6 1.2 1.8 3 4.3 5.4 2.4 3 6 6.6 10.2 10.2 3 3 6.6 6 10.8 9 4.2 3 8.4 5.5 12.7 7.9a53 53 0 0 0 10.2 3.6 6 6 0 0 0 4.8-.6c.6-.6 1.2-2.4 1.2-4.2 0-1.8 0-4.2-.6-6.6-.6-3-1.2-6-2.4-8.5-.6-1.8-1.8-4.2-2.4-5.4-1.2-2.4-1.8-4.2-.6-5.4.6-.6 1.8-.6 3.6 0 .6.6 1.2 1.2 2.4 1.8l3.6 3.6c1.8 2.4 4.2 4.8 6 7.2.6 1.2 1.8 1.8 2.4 3l1.8 1.8c-.6-1.2-.6-3-1.8-4.2a26 26 0 0 0-4.2-6c-.6-.6-1.2-1.2-1.2-1.8v-.6c-.6-1.2 0-2.4 1.2-2.4 1.2-.6 1.8 0 3 .6s3 1.8 5.4 3c2.5 1.2 5.5 1.8 8.5 3 3 .6 6 1.8 9 1.8 3 .6 5.4.6 8.4 0 2.4-.6 4.8-1.2 7.2-3 2.4-1.8 4.9-4.2 6.7-7.8 2.4-3.6 3.6-7.2 5.4-10.8a34 34 0 0 0 1.8-10.9c0-3.6 0-7.2-.6-10.8-.6-3-1.8-6.6-3-9-1.2-2.4-3-4.8-4.8-6.6-1.2-1.2-3-1.8-4.3-2.5-1.2 0-3 0-4.8 1.3h-.6c-.6.6-1.2 1.8-2.4 2.4a12.8 12.8 0 0 1-5.4 3.6c-.6 0-1.2 0-1.2-.6-.6-.6-1.2-1.8 0-3 0 0 .6-.6.6-1.2 1.2-1.2 3-3.7 5.4-4.9.6-.6 1.2-1.2 1.8-2.4 1.2-1.8 2.4-3.6 3-5.4.6-1.8.6-4.2.6-6 0-3-1.2-6.6-1.8-10.8l-1.8-8.5c-.6-3-1.2-6-1.2-9.6a94.9 94.9 0 0 0-3-15c-1.2-3.6-1.8-6-3.6-8.4-1.2-1.9-2.4-2.5-3.6-3a8 8 0 0 0-4.8 1.1 54.4 54.4 0 0 0-6.6 6c-2.4 3-4.9 6-7.3 10.3a125.9 125.9 0 0 0-13.8 31.9c-1.8 5.4-3.6 11.4-4.8 17.4-1.2 6-1.8 11.5-2.4 16.9z"/><path d="M679.5 350.4A135.3 135.3 0 0 0 688 312c.6-7.8.6-15.6 0-22.8a112 112 0 0 0-3-18.1 21 21 0 0 0-4.8-9c-1.8-1.8-3.6-2.4-5.4-1.8a8 8 0 0 0-4.8 4.2 34.1 34.1 0 0 0-4.8 7.8c-.6 1.2 0 .6-1.2 2.4-3 5.4-6 10.2-9.7 15-1.8 1.9-3 4.3-4.8 6-2.4 3-4.8 5.5-6.6 8.5a9.7 9.7 0 0 0-1.8 5.4c0 1.8 0 3.6.6 5.4.6 1.8 1.8 3 2.4 4.2.6 1.2 1.2 1.8 1.2 3-.6 1.3-1.2 1.9-3 1.3-.6 0-.6-.6-1.2-.6-1.8-1.3-6-3-10.2-3.7-2.4 0-5.4 0-7.8 1.2-2.5 1.2-4.3 3-6.7 5.5a36 36 0 0 0-4.8 9.6c-1.2 4.2-2.4 8.4-3 12.6-.6 4.2-.6 9 0 12s1.8 5.5 3.6 6.7c4.2 3 12 3 18.7 2.4h8.4c4.2 0 8.4 0 12-.6 3.6-.6 7.3-1.2 8.5-1.8 1.8-.6 2.4-.6 3 1.2.6 1.2 0 1.8-1.2 2.4l-.6.6a94 94 0 0 0-10.3 4.2 21 21 0 0 0-5.4 3.6l-3.6 3.6c-.6.6-.6 1.2-1.2 1.8.6-.6 1.8-1.2 2.4-1.8l7.8-4.8c3-1.8 6.7-3 9.7-4.2 3.6-1.2 6.6-2.4 8.4-2.4 1.8 0 3 .6 3 1.8v.6c-.6 1.2-1.8 3-4.2 5.4l-2.4 2.4-8.5 8.4c-3 3.7-6.6 6.7-9 9.7-2.4 3-4.8 5.4-6 7.2-.6 1.2-1.2 2.4-.6 3 .6.6 2.4 1.2 5.4 1.8 3 0 6.6 0 11.5-1.2a108.8 108.8 0 0 0 30-13.8c3-2.4 4.9-4.2 5.5-6 .6-.7.6-1.9.6-2.5-1.8-1.2-3-2.4-3.7-3-.6-1.2-.6-1.8 0-3 .6-.6 1.3-1.2 1.9-1.2h1.2c1.2 0 3 1.2 4.2 3 0 .6 0 .6.6 1.2h.6c1.8.6 4.8.6 7.8 0 4.2-.6 9-2.4 15-4.8 5.5-2.4 11.5-5.4 17.5-8.4 6.6-3.6 12.6-6.6 17.4-9.6 4.9-2.4 8.5-5.5 10.9-7.3 2.4-1.8 4.2-3.6 4.2-4.2 0 0-.6-.6-1.8-.6-2.4-.6-6-.6-10.2-.6-4.9 0-10.9.6-16.9 1.2-6 .6-12.6 1.2-18.7 2.4-5.4 1.2-10.8 1.8-15.6 3-9.6 2.5-16.2 4.9-21 7.3h-.7c-2.4 1.2-4.2 1.8-5.4 2.4-.6 0-1.2.6-1.8.6-.6.6-1.8.6-2.4.6-4.2 1.2-4.2 0 1.2-4.8.6-.6 1.8-1.2 3-1.8l.6-.6c-1.2.6-1.8 1.2-3 1.2-1.2.6-1.8 1.2-2.4 1.2-1.2.6-2.4 0-2.4-1.2s0-1.2.6-2.4 3-3.7 4.8-9v1.1zm9-16.8a186 186 0 0 1-5.4 18.6c-.6 1.8-1.8 3.6-2.4 4.9 1.2-.7 1.8-.7 3-1.3 1.8-.6 3-.6 4.2-.6.6 0 1.2.6 1.8.6.6.6 1.2 1.3.6 2.5v.6a112 112 0 0 1 16.9-5.5c4.8-1.2 10.2-2.4 16.2-3 6-1.2 12.7-1.8 18.7-2.4 6-.6 12-1.2 16.8-1.2 4.9 0 8.5 0 10.9.6 3.6.6 5.4 2.4 4.8 4.8-.6 1.8-2.4 4.2-5.4 6.7a63 63 0 0 1-11.5 7.2c-5.4 3-11.4 6.6-18 9.6l-18 9c-6 2.4-11.5 4.2-15.7 5.4-3.6.6-6.6.6-9 0a18 18 0 0 1-7.8 10.2 94.3 94.3 0 0 1-31.3 14.4 53 53 0 0 1-12.7 2c-4.2 0-7.2-1.3-8.4-3-1.2-1.9-1.2-4.3.6-7.3a35 35 0 0 1 6.6-7.8c3-3 6-6.6 9-10.3 3-3 6-6 8.5-9l2.4-2.4c-1.2.6-1.8.6-3 1.2l-9 3.6c-3 1.8-5.5 3-7.3 4.2-2.4 1.2-3.6 2.4-5.4 3h-1.8c-1.2-.6-1.8-1.2-1.8-1.8v-2.4c0-1.2.6-3 1.8-4.2 1.2-1.8 2.4-3 4.2-4.8 1.2-1.2 2.4-1.8 4.2-3h-15c-7.2 0-16.3.6-21-3.6a14.7 14.7 0 0 1-4.9-9 53.2 53.2 0 0 1 3.6-27.7c1.2-4.2 3.6-7.8 5.4-10.9a27 27 0 0 1 7.8-6.6c3-1.2 6.7-1.8 9.7-1.8 2.4 0 4.8 1.2 7.2 1.8-1.2-1.8-1.2-4.2-1.2-7.2 0-2.4.6-4.8 2.4-7.2 1.8-3 4.2-6 6.6-9 1.8-1.8 3-3.7 4.8-5.5 3.6-4.8 6.7-9.6 9-15l1.3-2.4c1.8-3 3.6-6 5.4-8.4 1.8-2.4 4.2-4.8 6.6-5.4 3-.6 6 0 9 2.4a27 27 0 0 1 6 10.2c1.8 4.8 3 12 3 19.2a152.7 152.7 0 0 1-3 44.6z"/><path d="m456.3 463 3-10.3c1.2-3 3-6.6 4.8-10.2 1.8-3.6 4.2-7.2 6.6-10.8 2.4-3 4.8-6 7.2-7.9 2.4-1.8 4.2-3 6-3 2.4-.6 4.3.6 5.5 1.8 1.2 1.2 1.8 3 1.8 4.9V434c0 3-.6 6 0 9 0 1.2 0 2.4.6 3.6.6 2.4.6 4.2.6 6 0 1.8-.6 3-1.2 4.2l-1.8 1.8c.6 0 1.2.6 1.8.6 1.8.6 3 2.5 4.2 3.7a9.7 9.7 0 0 1 1.8 5.4c0 1.8 0 4.2-.6 6.6-.6 2.4-1.2 4.8-2.4 7.2-1.2 2.4-2.4 4.8-4.2 6-1.8 1.8-3.7 2.4-5.5 3-3.6 0-7.8-2.4-10.8-4.8l-.6-.6c-.6-.6-1.8-1.2-2.4-1.8l-.6-.6c.6 1.2.6 2.4.6 3 0 1.2 0 1.8-.6 2.4 0 .6-.6.6-.6 1.2-.6.6-1.2.6-2.4.6-.6 0-.6-.6-1.2-.6-.6-.6-1.2-1.8-1.8-3-.6-1.2-1.2-2.4-1.8-4.2-.6-.6-.6-1.2-1.2-1.8 0 1.2.6 2.4.6 4.2.6 2.4.6 4.8 1.2 7.2.6 2.5.6 4.3.6 5.5 0 2.4-.6 3.6-2.4 4.2-1.2.6-3 0-5.4-1.2a33 33 0 0 1-5.5-4.2c-1.8-2.5-4.2-4.9-6-7.9-1.8-3-3-6-4.2-7.8-.6-2.4-1.2-4.2-.6-5.4v-1.2c-1.2-.6-2.4-1.2-3.6-2.4a37.5 37.5 0 0 1-5.4-7.2l-5.4-9c-1.8-3.7-3.6-6.7-4.8-9.7a58.6 58.6 0 0 1-3-6.6c-.7-2.4-1.3-4.2-.7-5.4.6-1.8 2.5-2.4 4.9-1.2 1.2.6 3 1.8 5.4 3 2.4 1.2 4.8 3.6 7.2 5.4 2.4 1.8 5.4 4.2 7.8 6.6 2.4 1.8 4.2 4.2 6 6 2.4 2.4 3.6 4.2 5.5 6 0 0 .6-.6 1.2-.6h1.2c.6 0 1.2.6 1.8 1.3v-.7zm6.6-8.5c-1.2 3.6-2.4 6.7-3 9.7-.6 3-.6 4.8-.6 5.4 0 .6 0 1.2-.6 1.8-.6.6-1.2.6-1.2.6v.6c.6 1.8.6 3 0 3l.6.6 1.8 1.8c0-.6 0-1.2 1.2-1.8 1.2-.6 1.8-.6 3 .6l3 3c1.2 1.2 3 2.4 4.8 3.6.6.6 1.2 1.2 3 1.8l.6.6c3 1.8 6 4.2 8.4 4.2 1.2 0 1.8-.6 3-1.8a21 21 0 0 0 3.7-5.4c1.2-1.8 1.8-4.2 2.4-6.6.6-1.8.6-3.6.6-5.4 0-1.8-.6-3-1.2-3.6-.6-1.2-1.8-1.8-2.4-2.4-1.8-1.2-4.3-1.2-5.5-1.2h-1.2c-1.2-.6-1.8-1.2-1.8-2.4 0-1.3.6-1.3 1.8-1.9.6 0 1.2-.6 2.4-1.2l1.9-1.8c.6-.6.6-1.8.6-2.4 0-1.8 0-3.6-.6-5.4 0-1.2-.6-2.4-.6-4.2V428.7c0-1.2-.7-2.4-.7-2.4-.6-.7-1.2-.7-1.8-.7-1.2 0-2.4.7-4.2 2.5a59.6 59.6 0 0 0-13.2 17.5c-1.8 3-3 6.5-4.2 9.5zm-7.8 21c.6-.5 1.2-.5 1.8-.5l-.6-.6c-.6 0-1.8-1.2-2.4-3l-.6-.6c-.6-.6-1.3-1.2-1.9-2.4-1.8-2.4-3.6-5.4-7.2-9l-6-6c-2.4-2.5-4.8-4.3-7.2-6.7l-7.2-5.4c-1.8-1.2-3-1.8-4.2-2.4 0 .6 0 .6.6 1.2.6 1.8 1.8 3.6 3 6 1.2 3 3 6 4.8 9.6l5.4 9c1.8 2.5 3.6 4.9 4.8 6 1.2 1.3 2.4 1.9 3 1.9 1.2-.6 2.4-.6 3.6-.6.6 0 .6.6 1.2.6.6.6.6 1.2.6 1.8 0 .6-.6 1.2-1.2 1.8-.6 0-1.2.6-2.4.6v.6c0 1.2 0 2.4.6 3.6.6 1.8 1.8 4.8 3.6 7.2 1.8 2.4 3.6 5.4 5.5 7.3 1.8 1.8 3 3 4.2 3.6 1.2.6 1.8.6 1.8.6v-.6c0-1.2 0-3-.6-4.9-.6-1.8-.6-4.8-1.2-7.2-.6-2.4-.6-4.8-1.2-6l-.6-1.8c-.6-1.8-.6-3-.6-4.2v-.6zm-35.5-37.2s0-.6 0 0z"/><path d="M641 439.5c0-1.8 0-4.2-.6-7.2 0-2.4-.6-4.8-1.2-7.9-.6-3-1.2-5.4-2.4-8.4s-2.4-6-3-8.4a65.6 65.6 0 0 0-6.6-11.4c-1.2-1.2-1.8-2.4-3-3-.6-.6-1.2-.6-1.9-.6-.6 0-.6.6-1.2 1.2s-1.2 1.8-1.8 3.6c-.6 1.8-1.2 4.8-1.2 7.2 0 1.2-.6 3-.6 4.2 0 1.8-.6 3-1.2 4.2-.6 1.8-.6 3.6-1.2 4.8 0 1.2 0 1.8.6 2.4 0 .6.6 1.8 1.2 2.4l.6.6c1.2.6 2.4 1.8 3 2.4l.6.7c.6 1.2.6 1.8 0 2.4-.6.6-.6.6-1.2.6s-1.8-.6-3-2.4l-1.2-1.3c-.6 0-1.2-.6-1.8-.6-.6 0-1.2.6-1.2.6-.6.7-1.2 1.9-1.8 3-.6 1.3-1.2 2.5-1.2 4.3-.6 1.8-.6 3-.6 4.8 0 1.8.6 3.6 1.2 4.8.6 1.8 1.2 3.6 2.4 4.8a16 16 0 0 0 3 3.6c1.2.6 1.8 1.2 3 1.2h3.6c1.3 0 3-.6 4.3-1.2 1.2-.6 3-.6 3.6-1.2 1.2-.6 1.8-1.2 2.4-1.2.6-.6 1.2-.6 2.4-.6.6 0 1.2.6 1.2 1.2l1.8-1.8 1.2-1.2c1.2-.6 1.8-.6 3 0 .6 1.2.6 1.8-.6 3.6-.6.6-.6 1.8-1.2 2.4-.6 1.2-.6 2.4-1.2 3.6 0 1.2-.6 1.8 0 3 0 .6 0 1.2.6 1.2h1.2c1.2 0 3-.6 4.8-1.8 1.8-1.2 4.2-2.4 6-3.6 1.8-1.2 3.6-3 4.8-4.2l4.9-4.8c.6-.6 1.2-1.2 1.2-1.8-1.2-.6-3-.6-3.6-.6-1.2 0-1.8 0-1.8-1.2 0-.6 0-1.8.6-2.4.6 0 .6-.6 1.2-.6h.6c1.2 0 4.2 0 6.6-.6 1.2 0 2.4-.6 3.6-1.2 1.2-.6 2.4-1.2 3.6-2.4 1.8-1.2 3-3.6 4.8-5.4 1.8-1.8 3-3.7 4.8-4.9l3.6-3.6 3.6-3.6v-.6h-.6c-1.2 0-2.4.6-4.2 1.2-2.4.6-4.8 1.8-8.4 3.6-3.6 1.8-7.8 4.2-11.4 6.7-3.6 2.4-7.2 4.2-9.7 6a39.3 39.3 0 0 0-7.8 7.8l-.6.6c-1.8 1.2-3 1.2-3-.6h-.6c-1.8 1.8-2.4 1.8-1.8-3v-.6c0-.6.6-1.2.6-3zm3.6-7.2c0 2.4.6 4.8.6 6.6h2.4c.6 0 .6 0 1.2.6 1.2-1.2 3-2.4 4.8-4.2 3-1.8 6-4.2 9.7-6.6 4.2-2.4 8.4-4.9 12-6.7l8.4-4.2c2.4-1.2 4.2-1.2 6-1.2 1.3 0 1.9 0 3 .6.7.6 1.3.6 1.3 1.2s.6 1.2.6 1.8c0 .6 0 1.8-.6 3s-2.4 3-4.3 4.9l-3.6 3.6c-1.2 1.8-3 3-4.2 4.8-1.8 2.4-3.6 4.2-5.4 6-1.8 1.8-3 2.4-4.2 3-1.2.6-2.4 1.2-3.6 1.2v1.8c-.6 1.2-1.2 2.4-2.4 3.6l-4.8 4.8c-1.8 1.8-3.6 3-5.5 4.3-2.4 1.8-4.2 3-6.6 4.2a13.9 13.9 0 0 1-5.4 1.8c-1.8.6-3.6 0-4.8-1.2-1.2-1.2-1.8-2.4-1.8-3.6 0-1.2 0-2.5.6-4.3v-.6l-1.2 1.2-1.8 1.9c-1.2 1.2-2.4 1.2-3.6 0-.6-.7-.6-1.9-.6-3 0-.7 0-.7.6-1.3-.6 0-1.2.6-1.8.6-1.8.6-3 .6-4.8 1.2-1.8 0-3 .6-4.9 0-1.8 0-3-.6-4.8-1.8-1.2-1.2-3-2.4-3.6-4.2-1.2-1.8-1.8-3.6-3-6-.6-1.8-1.2-4.2-1.2-6 0-1.8 0-4.2.6-6 .6-1.8 1.2-3.6 1.8-4.8.6-1.8 1.8-3 3-3.7.6-.6 1.8-1.2 3-1.8 0-.6 0-.6-.6-1.2-.6-1.2-.6-2.4-.6-4.2 0-1.8.6-3.6 1.2-5.4 0-1.2.6-2.4.6-4.2 0-1.2.6-3 .6-4.2.6-2.4.6-5.4 1.2-7.2.6-1.8 1.2-3.6 1.8-4.8 1.2-1.3 2.4-2.5 3.7-2.5 1.2 0 3 0 4.2 1.2 1.2.7 2.4 1.9 3.6 3.7a21 21 0 0 1 3.6 5.4 40 40 0 0 1 3.6 7.2c1.2 3 2.4 5.4 3.6 9 1.2 3 1.8 5.4 2.4 8.4.6 3 1.2 5.5 1.2 8.5z"/><path d="M379.2 159.7c1.2-2.4 1.8-5.4 3-9.7l1.8-10.8c.7-4.2.7-8.4 0-12a23 23 0 0 0-4.2-13.9c-.6-.6-1.2-.6-1.8-.6-.6 0-1.2.6-2.4 1.8-.6 1.3-1.8 2.5-2.4 4.3l-.6 1.2c-1.8 3-3 5.4-5.4 8.4-.6 1.2-1.8 2.4-2.4 3-1.2 1.8-2.4 3-3.6 4.2-.6 1.2-.6 1.8-.6 2.4 0 .6 0 1.8.6 2.4.6.6 1.2 1.8 1.2 1.8.6.6 1.2 1.2.6 2.4s-1.2 1.8-2.4 1.2c0 0-.6 0-.6-.6-1.2-.6-3-1.8-5.4-1.8-1.2 0-2.4 0-3.6.6-1.3.6-2.5 1.2-3 2.4-1.3 1.2-1.9 3-2.5 4.9l-1.8 6.6c-.6 2.4-.6 4.2 0 6 0 1.2.6 2.4 1.8 3 1.8 1.2 6 1.2 9.7 1.2h4.2c2.4 0 4.2 0 6-.6 1.8 0 3.6-.6 4.2-.6 1.2-.6 1.8-.6 2.4 1.2.6.6 0 1.2 0 1.8 1.2-.6 1.8-.6 2.4-.6h.6c0-.6.6-1.2 1.8-3-.6 0-.6-.6-.6-1.2s0-1.2.6-1.8a16 16 0 0 0 2.4-4.8zm6.7-8.4c-1.2 4.2-1.9 7.8-3 10.2 0 0 0 .6-.7.6.6 0 1.8-.6 2.5 0 .6 0 .6 0 1.2.6.6 0 .6.6.6 1.2 2.4-.6 4.8-1.8 7.8-2.4l8.4-1.8a53 53 0 0 1 10.2-1.2c3.6-.6 6.7-.6 9-.6 2.5 0 4.9 0 6 .6 2.5.6 3.7 1.8 3.7 3.6 0 1.2-1.2 2.4-3.6 4.2l-6 4.2c-3 1.8-6 3.6-9.7 5.4a71.8 71.8 0 0 1-18 7.8H390s0 .6-.6.6c-.6 1.3-1.8 3-3.6 4.3-1.9 1.8-4.9 3-7.9 4.8-3 1.2-6.6 2.4-9 3.6-3 .6-4.8 1.2-7.2.6-2.4 0-4.2-.6-4.8-1.8-1.2-1.2-.6-3 .6-4.8.6-1.2 1.8-2.4 3.6-4.2 1.2-1.8 3-3.7 4.8-5.5 1.2-1.2 1.8-2.4 3-3-.6.6-1.8.6-2.4 1.2-1.2.6-3 1.8-3.6 2.4-1.2.6-2.4 1.2-3 1.8h-1.2c-.6 0-1.2-.6-1.8-1.8v-1.8c0-.6.6-1.8 1.2-2.4.6-.6 1.2-1.8 2.4-2.4h-4.8c-4.2 0-9 .6-12-1.8-1.9-1.2-2.5-3-3-5.4-.7-2.4-.7-4.8 0-7.8.5-2.4 1.1-5.4 1.7-7.2.6-2.4 1.8-4.3 3-6 1.2-1.9 3-3 4.9-3.7 1.8-.6 3.6-1.2 5.4-1.2.6 0 1.8 0 2.4.6v-2.4c0-1.2.6-3 1.2-4.2 1.2-1.8 2.4-3.6 3.6-4.8.6-1.2 1.8-1.8 2.4-3 1.8-2.4 3-4.8 4.8-7.2v-.6.6-.6l.6-1.2 3-4.9a7 7 0 0 1 4.2-3c1.8-.6 4.2 0 6 1.8 1.3 1.2 2.5 3 3.7 6 1.2 3 1.8 6.7 1.8 10.3v12.6l-1.8 11.5zm-9.7 19.8c.6.6.6.6.6 1.8 0 1.2-1.2 2.4-2.4 3.6l-1.2 1.2-4.8 4.8c-1.8 1.8-3.6 3.7-4.8 5.5-1.2 1.8-2.4 3-3 3.6 0 .6-.6.6-.6.6s1.2.6 1.8.6c1.2 0 3.6 0 6-.6a73 73 0 0 0 8.4-3c3-1.2 5.4-3 7.2-4.2 1.3-1.3 2.5-1.9 2.5-3v-.7l-1.9-1.8c-.6-.6-.6-1.8 0-2.4l1.3-1.2h1.2c1.2 0 2.4.6 3 2.4 1.2 0 2.4.6 3.6 0 2.4-.6 4.8-1.2 7.8-2.4s6-3 9.6-4.8c3.6-1.8 6.6-3.6 9.7-5.4a53 53 0 0 0 6-3.6c.6-.6 1.2-.6 1.2-1.2h-4.8a52 52 0 0 0-9 .6c-3 .6-6.7.6-9.7 1.2l-8.4 1.8a56 56 0 0 0-13.9 4.8h-.6c-1.8 1.2-3 1.2-3.6 1.2h-1.2zM428 161z"/><path d="M510.4 114c0-1.9 0-4.3.6-6.7 0-2.4.6-5.4 1.2-8.4s1.2-6 2.4-8.4l3.6-9 3.7-7.3 3.6-5.4c1.2-1.8 2.4-3 3.6-3.6 1.2-.6 3-1.2 4.2-1.2 1.2 0 2.4 1.2 3.6 2.4.6 1.2 1.8 3 1.8 4.8.6 2.4 1.2 4.8 1.2 7.2 0 1.8.6 3 .6 4.3 0 1.2.6 3 .6 4.2.6 1.8 1.2 3.6 1.2 5.4 0 1.2 0 3-.6 4.2 0 .6 0 .6-.6 1.2 1.2 0 1.8.6 3 1.8 1.2 1.2 1.8 2.4 3 3.6.6 1.2 1.2 3 1.8 4.8.6 1.8.6 3.6.6 6 0 1.9-.6 4.3-1.2 6-.6 1.9-1.8 4.3-3 6-1.2 1.9-2.4 3.7-3.6 4.3-1.8 1.2-3 1.8-4.8 1.8h-4.8c-1.8 0-3-.6-4.8-1.2-.6 0-1.2-.6-1.8-.6 0 .6.6 1.2.6 1.2 0 1.2 0 2.4-.6 3-1.2 1.2-2.4 1.2-3.6 0l-1.9-1.8-1.2-1.2v.6c0 1.2.6 3 .6 4.2 0 1.8-.6 3-1.8 3.6-1.2 1.2-2.4 1.2-4.8 1.2-1.8 0-3.6-1.2-5.4-1.8-1.8-1.2-4.2-2.4-6.6-4.2-1.8-1.2-3.6-3-5.4-4.2l-4.8-4.8a12.6 12.6 0 0 1-2.4-3.6v-1.8c-1.2 0-2.5-.6-3.7-1.2-1.2-.6-3-1.8-4.2-3a54.3 54.3 0 0 1-5.4-6c-1.2-1.9-3-3.7-4.2-4.9l-3.6-3.6c-1.8-1.8-3.6-3-4.2-4.8-.6-1.2-.6-1.8-.6-3 0-.6 0-1.2.6-1.8 0-.6.6-1.2 1.2-1.2.6-.6 1.8-.6 3-.6s3.6.6 6 1.2 5.4 2.4 8.4 4.2c3.6 1.8 7.9 4.2 12 6.6 3.7 2.4 7.3 4.2 9.7 6.6 1.8 1.2 3.6 3 4.8 4.2 0 0 .6 0 1.2-.6h2.4zm4.2-6.7c0 3-.6 5.4-.6 7.2 0 1.9.6 2.5.6 3v.7c.6 4.2 0 4.2-1.8 3h-.6c0 1.8-1.2 1.8-3 .6-.6-.6-1.2-1.2-1.2-1.8l-1.8-1.8c-1.2-1.2-3-2.4-4.8-4.3-2.4-1.8-6-4.2-9.6-6l-11.5-6.6c-3-1.8-6-3-8.4-3.6-1.8-.6-3.6-1.2-4.2-1.2h-.6v.6c.6 1.2 1.8 2.4 3.6 3.6l3.6 3.6c1.2 1.8 3 3.6 4.8 4.8 1.8 1.8 3.6 4.2 4.8 5.4 1.2 1.3 2.4 1.9 3.7 2.5 1.2.6 2.4.6 3.6 1.2 2.4.6 5.4.6 6.6.6h1.2c.6.6 1.2 1.2.6 2.4s-1.2 1.2-1.8 1.2c-.6 0-2.4 0-3.6.6 0 .6.6 1.2 1.2 1.8l4.8 4.8c1.8 1.2 3 3 4.8 4.2 1.8 1.2 4.2 2.4 6 3.6 1.8.6 3.6 1.2 4.8 1.8h1.2s.6-.6.6-1.2v-3c0-1.2-.6-2.4-1.2-3.6-.6-1.2-.6-1.8-1.2-2.4-.6-1.8-1.2-2.4-.6-3.6v-.6c.6-.6 1.8-.6 3 0 .6 0 .6.6 1.2 1.2l1.9 1.8c0-.6.6-.6 1.2-1.2 1.2-.6 1.2 0 2.4.6.6.6 1.2.6 2.4 1.2s2.4 1.2 3.6 1.2c1.2.6 3 .6 4.2 1.2h3.6c1.2 0 1.8-.6 3-1.2s1.8-1.8 3-3.6a18 18 0 0 0 2.4-4.8c.6-1.8.6-3.6 1.2-4.8 0-1.9 0-3.7-.6-4.9-.6-1.2-.6-3-1.2-4.2-.6-1.2-1.2-2.4-1.8-3-.6-.6-1.2-.6-1.2-.6-.6 0-1.2 0-1.8.6l-1.2 1.2c-1.2 1.2-2.4 2.4-3 2.4-.6 0-1.2 0-1.2-.6-.6-.6-.6-1.8 0-2.4l.6-.6c.6-.6 1.8-1.8 3-2.4l.6-.6c.6-.6 1.2-1.8 1.2-2.4 0-.6.6-1.8.6-2.4 0-1.2-.6-3-1.2-4.8 0-1.2-.6-2.4-1.2-4.2 0-1.8-.6-3-.6-4.2-.6-2.5-.6-4.9-1.2-7.3-.6-1.8-1.2-3-1.8-3.6-.6-.6-.6-1.2-1.2-1.2s-.6 0-1.8.6c-.6.6-1.8 1.2-3 3-1.2 1.2-2.4 3-3 4.8-1.2 1.9-2.4 4.3-3.6 6.7a34.8 34.8 0 0 0-3 8.4c-.7 2.4-1.9 5.4-2.5 8.4-.6 2.4-1.2 5.4-1.2 7.8l-1.8-3.6z"/><path d="M277 265c0-1.8 0-4.2.5-6.6 0-2.4.6-5.5 1.2-8.5s1.2-6 2.4-8.4l3.7-9 3.6-7.2 3.6-5.4c1.2-1.9 2.4-3 3.6-3.7 1.2-.6 3-1.2 4.2-1.2 1.2 0 2.4 1.2 3.6 2.4.6 1.2 1.8 3 1.8 4.9.6 2.4 1.2 4.8 1.2 7.2 0 1.8.6 3 .6 4.2 0 1.2.6 3 .6 4.2.6 1.8.6 3.6 1.2 5.4 0 1.2 0 3-.6 4.2 0 .6 0 .6-.6 1.2 1.2 0 1.8.6 3 1.8 1.2 1.2 1.8 2.4 3 3.7.6 1.2 1.2 3 1.8 4.8.7 1.8.7 3.6.7 6a28.1 28.1 0 0 1-4.2 12c-1.3 1.8-2.5 3.6-3.7 4.2-1.8 1.2-3 1.8-4.8 1.8h-4.8c-1.8 0-3-.6-4.8-1.2-.6 0-1.2-.6-1.8-.6 0 .6.6 1.2.6 1.2 0 1.2 0 2.4-.6 3-1.2 1.2-2.4 1.2-3.6 0l-1.8-1.8c0-.6-.6-.6-1.2-1.2v.6c0 1.2.6 3 .6 4.2 0 1.9-.6 3-1.8 3.7-1.2 1.2-2.5 1.2-4.9 1.2-1.8 0-3.6-1.2-5.4-1.8-1.8-1.2-4.2-2.5-6.6-4.3-1.8-1.2-3.6-3-5.4-4.2L257 277a12.6 12.6 0 0 1-2.4-3.6v-1.8c-1.2 0-2.4-.6-3.6-1.2-1.2-.6-3-1.8-4.3-3-1.8-1.8-3.6-3.6-5.4-6-1.2-1.8-3-3.6-4.2-4.8l-3.6-3.7c-1.8-1.8-3.6-3-4.2-4.8-.6-1.2-.6-1.8-.6-3 0-.6 0-1.2.6-1.8 0-.6.6-1.2 1.2-1.2.6-.6 1.8-.6 3-.6s3.6.6 6 1.2 5.4 2.4 8.5 4.2c3.6 1.8 7.8 4.2 12 6.6 3.6 2.5 7.2 4.3 9.6 6.7 1.8 1.2 3.6 3 4.8 4.2 0 0 .6 0 1.2-.6h2.4L277 265zm4.1-6.6c0 3-.6 5.4-.6 7.2 0 1.8.6 2.4.6 3v.6c.6 4.2 0 4.2-1.8 3h-.6c0 1.8-1.2 1.8-3 .6-.6-.6-1.2-1.2-1.2-1.8l-1.8-1.8c-1.2-1.2-3-2.4-4.8-4.2-2.4-1.8-6-4.2-9.6-6l-11.5-6.7c-3-1.8-6-3-8.4-3.6-1.8-.6-3.6-1.2-4.2-1.2h-.6v.6c.6 1.2 1.8 2.4 3.6 3.6l3.6 3.7c1.2 1.8 3 3.6 4.8 4.8 1.8 1.8 3.7 4.2 4.9 5.4 1.2 1.2 2.4 1.8 3.6 2.4 1.2.6 2.4.6 3.6 1.2 2.4.6 5.4.6 6.6.6H266.1c.6.6 1.2 1.2.6 2.4s-1.2 1.2-1.8 1.2c-.6 0-2.4 0-3.6.6 0 .6.6 1.2 1.2 1.8l4.8 4.8c1.8 1.2 3 3 4.8 4.2 1.8 1.2 4.2 2.4 6 3.7 1.8.6 3.6 1.2 4.9 1.8h1.2s.6-.6.6-1.2v-3c0-1.3-.6-2.5-1.2-3.7-.6-1.2-.6-1.8-1.2-2.4-.7-1.8-1.3-2.4-.7-3.6.7-.6 1.9-.6 3 0 .7 0 .7.6 1.3 1.2l1.8 1.8c0-.6.6-.6 1.2-1.2 1.2-.6 1.2 0 2.4.6.6.6 1.2.6 2.4 1.2s2.4 1.2 3.6 1.2c1.2.6 3 .6 4.2 1.2h3.6c1.2 0 1.8-.6 3-1.2s1.8-1.8 3-3.6a18 18 0 0 0 2.4-4.8c.6-1.8.6-3.6 1.2-4.8 0-1.8 0-3.6-.6-4.8-.6-1.2-.6-3-1.2-4.2-.6-1.2-1.2-2.4-1.8-3-.6-.6-1.2-.6-1.2-.6-.6 0-1.2 0-1.8.6l-1.2 1.2c-1.2 1.2-2.4 2.4-3 2.4-.6 0-1.2 0-1.2-.6-.6-.6-.6-1.8 0-2.4l.6-.6c.6-.6 1.8-1.8 3-2.4l.6-.7c.6-.6 1.2-1.8 1.2-2.4 0-.6.6-1.8.6-2.4 0-1.2-.6-3-1.2-4.8 0-1.2-.6-2.4-1.2-4.2 0-1.8-.6-3-.6-4.2-.6-2.4-.6-4.8-1.2-7.2-.6-1.2-1.2-3-1.8-3.6-.6-.6-.6-1.2-1.2-1.2s-.6 0-1.8.6c-.6.6-1.8 1.2-3 3-1.2 1.2-2.4 3-3 4.8-1.2 1.8-2.4 4.2-3.6 6.6a34.8 34.8 0 0 0-3 8.4c-.6 2.4-1.8 5.4-2.4 8.5-.6 2.4-1.2 5.4-1.2 7.8z"/><path d="m733.7 275.2-.6.6c0 .6.6 1.2.6 1.8l1.8 3.6c.6 1.8 1.8 3 1.8 4.2h.6c1.8 0 3.6 0 5.4.6 1.8.6 3.6 1.8 5.4 3a60 60 0 0 1 6.6 6c1.8 1.9 3 4.3 4.3 6a7.3 7.3 0 0 1 .6 6.1c-.6 1.8-1.3 3.6-3 4.8.5 0 1.7-.6 2.4-1.2 1.2-1.2 2.4-2.4 3.6-4.2 1.2-1.8 2.4-4.2 3.6-6.6.6-1.8 1.8-3.6 1.8-6 .6-1.8.6-3.6.6-4.8 0-1.9-.6-3-1.2-4.3-.6-1.2-1.2-1.8-1.8-2.4-.6-.6-1.2-.6-1.8-.6h-3.6c-1.2-.6-1.9-1.2-1.2-2.4 0-.6.6-.6.6-1.2.6-.6 1.8-2.4 2.4-4.8.6-1.8.6-4.2.6-6.6 0-2.4 0-4.8.6-7.2l1.8-7.9c.6-2.4 1.2-4.2 1.2-6v-3.6c0-.6-.6-1.2-1.2-1.2h-1.8c-1.2.6-2.4 1.2-4.2 1.8a53 53 0 0 1-6 3.6 34.3 34.3 0 0 0-6.7 6.6c-4.8 5.5-9 13.3-13.8 21.1zm-2.4-3.6c4.2-7.2 9-15 13.2-19.9a40.9 40.9 0 0 1 13.8-11.4c1.9-1.2 3.7-1.8 5.5-2.4 1.8-.6 3-.6 4.8 0 1.2.6 2.4 1.8 3 3.6.6 1.2.6 3 .6 5.4 0 1.8-.6 4.2-1.8 6.7l-1.8 7.2c-.6 2.4-.6 4.8-.6 6.6 0 2.4-.6 5.4-.6 7.2-.6 1.2-.6 2.4-1.2 3.6 1.2 0 2.4.6 3.6 1.8 1.2.6 1.8 1.8 2.4 3.6.6 1.8 1.2 3.6 1.2 5.5 0 1.8 0 4.2-.6 6-.6 1.8-1.2 4.2-2.4 6.6a65.6 65.6 0 0 1-3.6 6.6c-1.2 1.8-2.4 3.6-4.8 5.4a10.2 10.2 0 0 1-7.9 1.8c-2.4 0-4.8-.6-7.8-1.8-4.2-1.2-8.4-3-9.6-3.6-.6-.6-1.2-.6-1.2-1.2-.6.6-1.2.6-2.4 0s-1.8-1.2-3-1.8l-.6.6c-.6.6-1.2.6-1.8.6h-2.4c-1.3-.6-2.5-1.2-4.3-1.8-1.2-.6-3-1.8-4.2-3-1.2-1.2-2.4-2.4-3.6-3-1.2-1.2-1.8-2.4-2.4-3-.6-.6-.6-1.8-.6-2.4 0-.6 0-.6.6-1.2 0-.6.6-.6 1.2-.6h1.2s0-.6-.6-.6c-.6-1.8-1.2-4.2-1.8-6.7-.6-2.4-.6-4.8-.6-7.2 0-3 0-6 .6-8.4l1.8-7.8c.6-2.4 1.8-3.6 3-4.8 1.2-1.2 3-1.8 4.2-1.8 1.2 0 3 .6 4.2 1.8a9.5 9.5 0 0 1 3 4.8c1.3 2.4 1.9 4.8 3 7.8zm5.4 36.7h1.2c.6 0 1.2 0 1.8.6 1.8.6 4.2 1.2 6.6 1.8 1.8.6 3.6.6 5.4.6 1.2 0 2.4-.6 3-1.2.6-.6 1.2-1.8 1.8-2.4 0-1.2 0-2.4-.6-3.6-.6-1.8-1.8-3-3.6-4.8a54.3 54.3 0 0 0-6-5.4c-1.8-1.2-3-2.4-4.8-3-1.2-.6-2.4-.6-3.6-.6-.6 0-1.8 0-2.4.6h-1.2l-.6.6h-.6c-1.2.6-2.4 0-3-.6V289l.6-.6c.6 0 1.2-.7 1.2-1.3 0-.6-.6-1.2-1.2-3l-1.8-3.6c-.6-1.8-1.8-4.2-2.4-6.6-1.2-2.4-1.9-5.4-3-7.2-.7-1.8-1.9-3-2.5-3.6-.6-.6-1.2-.6-1.8-.6-.6 0-1.2 0-1.2.6-.6.6-1.2 1.8-1.8 3-.6 1.8-1.2 4.2-1.8 6.6-.6 2.4-.6 5.4-.6 7.8 0 2.4 0 4.2.6 6.6.6 2.5 1.2 4.3 1.8 6 .6 1.9 1.2 2.5 1.8 3.7 1.2 1.8 1.2 2.4 0 3.6-.6.6-1.8.6-2.4 0l.6.6 3 3c1.2 1.2 2.4 1.8 3.6 2.4.6.6 1.2.6 1.8.6l-1.2-1.2-.6-.6c-.6-1.2-.6-1.8.6-3s1.9-.6 3 .6c.7.6 1.9 1.2 2.5 2.4.6.6 1.8 1.2 2.4 1.8 1.2.6 1.8 1.2 3 1.8.6 0 .6.6.6.6s.6 0 .6-.6l1.2-.6z"/></g></svg>