<svg xmlns="http://www.w3.org/2000/svg" xmlns:xlink="http://www.w3.org/1999/xlink" viewBox="0 0 1024 1024"><path fill="#ffeee2" d="M0 0h1024v1024H0z"/><g fill="#2b2929"><path d="M982.4 411.6c-4.9 0-9.8-.3-14.6-.7-10.1-.9-20.1-2.6-29.9-5.3-14.7-4-28.6-15.3-41-25.3l-2.1-1.7c-.7-.6-2.1-1.5-3.6-2.5-3.3-2.2-11.4-7.6-12.5-10.8 8.1.2 15.9 2.1 23.2 5.7 11.6 5.3 23.1 11.3 34.2 17 16.2 8.7 32.8 16.6 49.8 23.5l-3.5.1zm-94.8 20.1c.6.8 1.1 1.7 1.4 2.7-.1-.2-.1-.5-.3-.7L794 344.6c39.7 18 70.7 55.6 93.6 87.1zm-64-30.1c-13.5-15.9-23.1-34.7-31.9-53.5l93.5 88c-21.7-1.4-44.1-14-61.6-34.5zm-64.8-20.5c17.4 20.2 32.7 41.8 46 64.9-16.8-12.4-32.1-26.5-45.9-42.2 1.9-1.3 3-3.2 3.1-5.5-.2-3.9-2.2-6.4-5.9-7.6-2.8-.9-5.7-1.1-8.6-.7l-.8-1c2.4-3.6 4.3-8.8 3.4-12.9-.1-.6-.3-1.1-.6-1.6-2.4-4.5-9.6-3.3-13.5-.9-.1 0-.1.1-.2.2-7.5-11-14.1-22.5-20.1-34.5l11.7 11.1c12.6 12 26.9 25.6 31.4 30.8v-.1zm-.3 59.5c-.1 0-.3 0-.4.1-31.4 27.7-76.8 36.3-113.1 21.4l-4.3-3c1.5 0 3 .2 4.5.2 19.5 0 37.4-5.3 53.9-15.9 4.2.3 8.3-.4 12.2-2.1.9-.4 1.7-.9 2.4-1.4h2.1l1.8-.1c.8-.1 1.4-.5 1.7-1.3.3-.8.1-1.5-.5-2.1l-1.2-1.3c-1.2-1.4-2.5-2.7-3.8-4.1-.8-.9-1.6-1.7-2.4-2.6l-1.2-1.2c0-1.2-.4-2.3-1.2-3.2-1-1.1-2.2-1.7-3.7-1.9l-1.2-1.3c-2.6-2.7-4.8-5.2-6.9-7.7 8.8-1.2 17.1-4 24.8-8.4.4-.2.8-.4 1.1-.7.4-.2 0-.1.1-.2 4.2.9 13 2.6 14.1 2.8l2.5.3c1.2 1.9 2.5 3.8 3.8 5.6 5.2 7.1 11.1 13.5 17.8 19.3-1.5 2.8-2.4 5.8-2.7 9l-.2-.2zm-140.1 3.3 6.4-2.1c10.3-3.3 22.9-7.4 32-15.9 12.4 7.2 25.7 11.7 39.9 13.5h.2c0 .5-.1 1.1-.2 1.6-18.6 11.8-38.9 16.7-60.8 14.7h-.2l-3.6-2.4c-4.5-2.9-9.1-6.1-13.7-9.2v-.2zm-12.1 41.5c2.5 9.5 5.2 19.4 8.5 28.5.6 1.7 1.2 3.3 1.9 5 12.7 31.7 32.9 57.3 60.8 77 .2.2.5.3.7.5-.8 1-1.5 2-2.1 3.2-2.1 5-2.8 10.2-2.1 15.6 1.3 17.8 5.8 34.8 13.4 50.9-5.3 31.6-11.5 67.2-36.5 91.2-3.8 3.6-8 6.9-12.1 10.2-3 2.4-6.1 4.7-9 7.3-11.2 9.7-20.5 21.5-29.5 32.9-6 7.6-12.2 15.4-18.9 22.5-5.3 6-11.4 10.9-18.4 14.8-15.2 7.5-32.8 5.2-52.7 1.6-.5 0-1.1.1-1.5.4-5.7-10.9-14.9-19.8-22.7-27.2-23.5-22.5-47.7-45.7-74.7-64.9l-5.4-3.8c-8.8-6.2-18-12.4-25-20.6-6.5-7.5-11.3-16-14.5-25.5-3.8-10.9-4.4-20.5-1.9-28.3 2.2-5.7 5.2-11 9-15.8 1.9-2.8 3.9-5.5 5.6-8.3 3.2-5.2 5.1-10.8 5.5-16.8.2-4.4.5-10.9-5.6-14.1-3.7-1.9-7.4.4-10.1 2.1-.6.4-1.2.7-1.7 1l-20.7 11c-3.8 1.8-7.2 4.2-10.3 7 .2-1.3.3-2.6.2-3.9v-.8c-.1-.9 0-1.9.2-2.8.4-.8 1.8-1.4 3.5-2.1 4.7-2.2 9-5 12.8-8.6 3.8-3.6 6.9-7.6 9.4-12.2s4.2-9.5 5.1-14.6c.9-5.1 1-10.3.2-15.5-.5-3.1-1.5-8-5.3-10.8.7-1.4 1.3-2.7 1.9-4.1.9 2.4 2 4.6 3.3 6.8 2.2 3.1 4.6 6.1 7.3 8.7 1 1 1.9 2.1 2.8 3 4.4 4.9 8.1 10.3 11.2 16.1.4.7 1 1.1 1.8 1.1s1.4-.4 1.8-1.1c1-2.1 1.8-4.3 2.5-6.5l12.9 16.6c3 3.8 6 7.3 10.5 8.2h.4c.4 0 .8-.1 1.2-.4.5-.4.8-.8.8-1.4l1.5-14.6c1.3-7.7.7-15.3-2.1-22.6-.6-2.1-1.2-4.1-1.6-6.1h.4c.3 0 .6-.1.9-.2.5-.3.9-.7 1.1-1.3 1.9-6.2 3.1-12.6 3.6-19.2.7.5 1.3 1 2.1 1.5 2.6 1.5 5.3 2.8 7.9 4.1 3 1.3 5.9 2.9 8.7 4.6 3.8 2.5 7.3 5.4 10.6 8.5 2.8 2.6 5.6 5 8.7 7.2 7.6 5.5 16 8.8 25.3 10h.2c.6 0 1.1-.2 1.5-.7.5-.5.6-1.2.4-1.9-.7-2.5-1.2-5-1.7-7.5-.4-1.7-.7-3.5-1.1-5.2-5.3-23-19.7-41.7-35.9-59.9 1.7.6 3.3 1.3 5 1.9 8 2.8 16.2 4.4 24.7 4.6 6.2.1 12.2-1.1 17.9-3.7 1-.5 1.4-1.2 1.1-2.3-1.7-5.9-4.7-11.1-9-15.4-10-11.2-21.6-20.2-35-26.9 7.6-5.3 16-8.4 25.1-9.4 1-.1 1.6-.7 1.8-1.7.1-1-.2-1.7-1.2-2.2-2.6-1.2-5.2-2.5-7.9-4 8.6-.2 16.8-2.2 24.5-6.1-.5 2.3-.8 4.7-1 7-1.9 21.1 9.2 43.8 26.5 53.9 1.2.8 2.5 1.2 3.9 1.3 1 0 2-.3 3-.7 14.7-5.5 28.4-12.9 41-22.2-3 6.9-4.8 14.1-5.4 21.6h-.1c-5.1 7.3-14.9 13-24.6 15.1-5.6.3-11.2.1-16.7-.7-3.1-.3-11.4-.3-13.4 2.9-1.6 2.5 0 6.2 2.7 7.7 2.8 1.3 5.8 1.7 8.9 1.3-2.2 1.5-4 3.4-5.5 5.7-1.5 2.6-1.4 5.1.5 7.4 2.5 2.6 7.1 1.6 9.7-.9 3-3.4 4.3-7.8 5.8-11.9 1.3-3 3.2-5.6 5.5-7.8 10.4-1.6 19.4-6.1 26.9-13.5-.1 4 .1 8 .5 12 1.7 14.5 6.5 28.6 11.1 40.4.1.3.4.6.7.7-.3 1.4-.6 2.7-.8 3.4-.9 2.9-2.2 5.7-3.3 8.5-1.3 2.6-1.9 5.3-1.9 8.1.2 3.4 2 5.2 5.3 5.6 2-.2 3.5-1.2 4.5-3 .9-1.7 1.5-3.4 1.8-5.3.5 3.8 2.7 5.9 6.5 6.2 3.7.2 6.3-1.4 7.9-4.7 1.4-3.3 1.1-6.4-.9-9.3-2.3-3.4-6.1-4.4-9.3-6.7-2.8-2.1-5.5-4.1-8.3-6.5-4.9-12.1-8.2-24.6-10-37.6-1.7-14.9.4-28.6 6-39.6.7-1.5 1.7-2.9 2.6-4.3 2.4-2.2 4.8-4.6 6.9-7.1 4.9-5.7 9.2-11.8 12.8-18.4 3.1 8.8 5.7 18.1 8.1 27.1l.1-.3zm60.5 43.3c-2.1 6-2.9 12.1-2.4 18.4 1 7.5 3.1 14.6 6.4 21.5 1.4 2.9 3 5.9 4.6 8.8 2.8 5 5.3 10.1 7.4 15.3-.8.4-1.6.9-2.4 1.5l-1.2-.8c-26.1-18.4-45.4-42.3-58.1-71.6 12.1 5 26 5.9 39.4 6.8 2.1 0 4.1.2 6.1.4l.2-.3zm12.1-1.9c.1-.7.2-1.4.4-2.1l.3.3c.6.6 1.1 1.3 1.6 2.1-.7.1-1.5 0-2.2-.1l-.1-.2zm19.6 7.8c-1.3.2-2.4.8-3.5 1.6-.8-1.2-1.6-2.3-2.4-3.5 2.1.8 4.1 1.5 6 2.1l-.1-.2zm9.7 19.3c-1.8-1.5-3.3-3.2-4.6-5.2-1.1-1.9-1.8-4-2.1-6.2l.3.5c2.2 3.8 4.3 7.5 6.4 11.1v-.2zm56.3 112.6c.3 2.7.3 5.4 0 8 .1-3-.1-6-.6-9-1.8-9-7.3-16.4-12.6-23.5l-2.7-3.8c-11.6-16.2-20.1-35-28.4-53.2-3.4-7.6-6.9-15.3-10.6-22.8 1.4.9 2.9 1.6 4.5 1.9 14.7 25.9 28.8 52.2 41.8 78.5 4.4 8.8 7.8 16.1 8.7 24l-.1-.1zm-8.7 82.6c-.2 7.6-2.2 14.6-6.2 21 .1-.9.1-1.7 0-2.6-.2-2.9-.8-5.7-1.6-8.5-.3-1.2-.6-2.5-.9-3.7-1.2-7.1-1.3-14.3-.5-21.5.2-3.7.5-7.4.5-11 0-21.5-7.8-41.6-16.1-58 .4-.5.5-1 .5-1.6-1.2-19.2-10.6-36.5-19.6-53.1-1.7-3.1-3.3-6.1-4.9-9.1-.1-2-.9-3.6-2.5-4.8-6.1-12-10.8-24-11.6-37.1v-.7c0-.7 0-1.4-.1-2.1 1.3.4 2.6.6 3.9.6 1.2 0 2.4-.2 3.6-.5 5.4 10.2 10.2 20.7 14.9 31.1 8.3 18.4 17 37.5 28.9 54.2l2.8 3.8c4.9 6.6 10 13.5 11.6 21.3 1.3 6.2.3 12.7-.6 19.1l-4.7 32c-.4 2 .4 3.2 2.4 3.4h.4c-.2 4.4-.2 8.9-.1 13.2.1 5 .2 10-.1 14.9v-.3zm-40.4-112.3c-4-6.8-8-13.7-11.8-20.7.1-.2.3-.3.4-.5 1-2.2.9-4.2-.5-6.2-1.3-1.8-2.9-3.3-4.9-4.5 1.3.2 2.6.2 4 0l4.1 7.8c6.8 12.4 13.7 25.4 17 38.9-2.7-4.8-5.5-9.7-8.3-14.6v-.2zm-18-85.7c-2.7.1-5.2-.6-7.4-2.2-3.4-2.8-6-6.2-7.8-10.2-1.5-2.7-2.6-5.6-3.2-8.7 1.8.2 3.5.6 5.2.9 4.9 6.5 9.3 13.3 13.3 20.5l-.1-.3zm-24.8-21.9h.6c.5 4.3 1.8 8.3 3.9 12 2.2 4.8 5.4 8.9 9.5 12.2.1.1.3.1.5.2-.1 1.6-.1 3.2 0 4.9v.7c1 11.6 4.1 22.7 9.3 33.2-1.4-.1-2.8-.1-4.1 0-.4-.5-.8-.8-1.4-1-.8-.2-1.7-.3-2.6-.3-2.3-5.7-5-11.2-8-16.6-1.6-2.9-3.1-5.7-4.5-8.6-3-6.3-4.9-12.8-5.9-19.7-.5-5.4 1-11.4 2.7-16.8v-.2zm23.6 152.6c.9 1.4 1.7 2.8 2.5 4.1-.3 0-.6-.1-.9 0-3.6 1.8-6.8 4.1-9.6 7 1.4-6.3 2.5-12.6 3.6-18.8 1.2 2.2 2.5 4.4 3.8 6.5l.6 1.2zM534 957.7c-1.1 11-2.2 21.8-3.3 32.1l-6.7 63.5c-1.1-12.4-2.8-24.9-4.5-37.1l-1.1-7.8c-5.3-38.2-4.5-77.6-3.8-115.6l.2-10.8c.2-8.5.3-17.2-2.1-25.7-.4-1.3-.8-2.4-1.3-3.6 9.1 1.8 18.2 2.8 27.5 3 2.9 0 5.8-.2 8.6-.5-6 27-9.9 65.5-13.6 102.9l.1-.4zM362 633.8l8.1-4.3c.6-.3 1.4-.8 2.1-1.2 1.4-.9 3.6-2.3 4.5-1.9.7.4 1.3 1 1.7 1.7-.1 0-.2 0-.3.2-4.2 5.1-9.5 7-15.9 5.8l-.2-.3zm-39.8 33.5c-.7.9-1.4 1.8-2.1 2.8-.2-.7-.5-1.3-.9-1.9 2.2-2 4.4-4 6.4-6.2l-.6 1.2c-.8 1.6-1.8 3-2.8 4.4v-.3zm20.6-77.7c-3.8 3.1-7.9 5.9-12.2 8.3-.2.1-.4.2-.6.4 0-.1-.1-.2-.1-.3-.2-.5-.3-1.1-.5-1.7 0-.4-.1-.8-.3-1.1-.8-4.2-.9-8.4-.2-12.7v-.1c.3-2.2.7-4.4 1.1-6.6l5.7-32.1c.3-.3.7-.6 1-1 5.3-5.9 10.1-12.1 14.2-18.9 2-3.1 3.6-6.5 4.9-9.9 2.4 6.9 6.2 13 11.5 18.2l.5.4c.2 9.9-1.5 19.4-5.2 28.5-1.5 3.7-3.2 7.2-5.2 10.7-3.6 7.1-8.5 13.1-14.7 18.2l.1-.3zm-39.2 28.8c3.1-8 6.2-16 9.4-24.4.1-.3 0-.6 0-1 4.1-2.2 7.9-4.6 11.7-7.2-.2 2.6-.1 5.2.3 7.9 0 0-.2 0-.3.1-7.5 7.8-14.6 16-21 24.7l-.1-.1zm-12.4-21.2c-1.6.3-3.3.5-4.9.8-3.7.4-7.3 1.2-10.8 2.4-1.8.6-4.7 1.7-5.5.6-.5-.7-.2-2.1.1-3.4 2.8-10.9 6-23.4 14.5-31.9 0-.1 0-.2.1-.4 2.4-.5 4.7-1.3 6.9-2.3 6.5-3 11.6-8.3 16.2-12.8l1.9-1.9 4.1-4c.6 1.6 1.6 3 3 4.1 1.8 1.4 3.9 2.1 6.2 2.1 1.9 0 3.7-.4 5.4-1.2.9-.5 1.8-1.1 2.6-1.7l-4.8 27.3c-.4 1.9-.7 3.9-1 5.9-5 3.5-10.1 6.6-15.4 9.5-.4.1-.8.3-1.2.6-5.5 3-11.3 5.2-17.4 6.5v-.2zm-20.5-33.9c-5 .3-9.9 1-14.8 2.2-.4-10.1 1.3-19.9 5.1-29.4 3.8-9.4 9.3-17.7 16.6-24.7 7.8-1.8 14.9-5 21.5-9.5 3 .4 6 .7 9 .7 5.7-.1 11.4-.8 17-2.3-5.8 10.3-9.8 21.3-12 32.9-.4 2.2-.5 4.4-.4 6.6l-5.9 5.9-2.1 1.9c-4.3 4.3-9.2 9.2-15 12-5.8 2.7-12.1 3.3-18.9 3.9l-.1-.2zm-14-53.9c-14.7-1-28.5-5.3-41.2-12.9 10.2-9.9 23.5-21 39-25.6 8.7 4.5 18 7 27.8 7.7-4.4 3.2-6.6 6.7-6.2 10.4.4 4.1 3.8 7.5 9.9 9.7 2.3.8 4.6 1.5 7 2.1-11.2 6.6-23.3 9.5-36.2 8.8l-.1-.2zm-32.8-75.8c9.8-5.1 20.2-7.2 31.2-6.2 1.4.1 2.8.3 4.1.5 13.7 2.3 27.4 9.3 35 17.9 2.2 4.5 5 8.5 8.4 12.1 4.5 4.8 9.9 7.7 16.4 8.7v.2c-10.9.1-21.1 2.8-30.6 8.2-.1 0-.2-.1-.4-.1-11.5.2-22.4-2.4-32.6-7.8-14.4-7.4-24.9-18.5-31.5-33.4v-.1zm20.4-70.5c7.7 3.2 14.7 7.5 21 13-.1 4.2.3 8.4 1.2 12.5 2.5 12 9.3 24.7 19.4 37 1.2 3.8 2.8 7.5 4.3 11.2-9.1-6.6-19.2-10.8-30.3-12.8-1.1-.2-2.3-.3-3.5-.5-6.2-8.7-10.2-18.4-12-29-1.4-10.3-.9-20.9-.1-31.4zm26.6 1.8c2.1.5 4.1 1.2 6 2.1 6.1 2.9 11.8 6.5 17.2 10.6l7.7 5.5c2.1 1.5 4.5 3.2 7 5l8.9 6.2c-.4 4.3.1 8.6 1.3 12.7 2.1 5.9 6.2 10.8 9.8 15l3.8 4.5 3.5 4.1c.5 8.1 4.6 16.3 9.9 22.8-4.9-4.5-9.2-9.4-13-14.8-1.1-1.6-2.3-3.3-3.4-5-4.3-7-9.3-13.4-15-19.4-5-4.9-15.5-13.1-28.5-12.1-1.2 0-2.3.4-3.3 1.1-2.4 1.9-1.7 5.3-1.4 6.5.4 1.8 1 3.5 1.4 5.3-6-8.3-10.1-17.4-12.5-27.3-.9-4.1-1.3-8.3-1.1-12.6.4-3.4.9-6.8 1.7-10.2zm19-8.3c-5.8-9.8-11.6-21.2-10.8-33.2 14.5 4.5 26.9 12.2 37.4 23.1 2.4 2.5 4.7 5.2 6.9 7.9 5.9 7.6 10.4 16 13.6 25.1-1.8-1.8-3.9-3.2-6.3-4.1-3-1.4-5.9-1.1-8.6.9-1.6 1.7-2.6 3.7-2.7 6.1l-.1.8c-.4 2.1-.7 4.3-1 6.5l-7-5-6.7-4.7-10.6-16.8c-1.4-2.2-2.7-4.4-4.1-6.6zm-4.1-50.4c21.6-6.2 47.8-9.5 70.4-4.1 7.6 2.3 15.5 4.9 23.6 7.6-10.3 7.9-15 21.4-16.9 31.6l-.1.5c-5.3-.5-10.6-.8-15.9-.7-.2-.3-.4-.7-.6-1-3.9-6.7-8.8-12.5-14.7-17.4-.9-.7-1.8-.7-2.7.1-4.9 4.8-7.1 11.6-6.9 20.7v.4l-1.9.4c-.3-.3-.5-.6-.8-.9-11.4-11.9-25-20.1-40.8-24.6 2.8-4.1 5.1-8.4 7.3-12.6zm139.4 16c-6.6-5.5-12.5-11.7-17.7-18.5 1.5.1 3.1.3 4.5.7 3.2 1 6.4 2.1 9.5 3.5 2.6 6 5.9 11.7 9.8 17l-6.1-2.4c.1-.1.1-.3 0-.3zm-26.9-23c-9.8 0-20 0-24.8-7.7-.6-1-.9-2.1-.8-3.3 5.6.9 11.1.9 16.7 0 3.5 3.5 6.8 7.1 9.8 11h-.9zm-3.6-31.9c3.9-2.5 7.2-4.6 9.5-6.6 3.6-3.1 7.7-5.5 12.1-7.3-1.5 1.6-2.5 3.5-3.2 5.6-.6 2.5-.7 5-.3 7.6 1.1 12.6 2.6 24.4 6.7 36-2.1-.8-4.2-1.5-6.3-2.1-3-.7-6.1-1.1-9.2-1.1-3.7-4.6-7.5-9-11.7-13.2 1.5-5.6 1-11-1.5-16.2l3.9-2.7zm17-38.6c-6 .6-11.1 1-17.4-4.1-11.1-9.1-15.2-19.9-12.7-34.2.2-.9.3-1.8.4-2.6 1.8-8.7 1.1-17.2-2.1-25.5-.4-1.3-1-2.7-1.6-4.1-2.7-6.4-4.1-10.6.1-13.9 5.6-4.5 14.9 1.3 21.8 5.5 1.6 1 3.1 1.9 4.4 2.6 4 2 8 3.7 12.2 5.1 5.6 1.7 10.9 4.1 15.8 7.3 24.3 17.3 11.3 38-3.6 62l-2.2 3.6-.9-.3-.4-.4c-5-4.1-8.1-6.7-10.5-12.3-.8-2.2-1.5-4.5-1.9-6.9-.8-4.1-1.7-8.4-5-12.1-.9-.7-1.8-.6-2.6.1-.8.8-1 1.6-.4 2.6 2.3 3 3.7 6.4 4.1 10.2.4 2.6 1.1 5.2 2.1 7.6 1.5 3.7 3.8 6.9 6.7 9.6h-1.8c-.3-.1-.7-.1-1 0-1.2.1-2.3.1-3.5.2zm12 4.8 7.8 6.5c-3.3-2.1-6.5-4.5-9.6-7 .6.1 1.2.3 1.8.5zm57.9 5.2c-.2.5-.5 1-.7 1.6-.5 1.6-.9 3.3-1.2 5 0 0 0 .2-.1.3-.1.1 0 0 0 .1-1.2 7.6-.2 14.9 3.1 21.9 0 .1.1.2.2.3 3.6 7.8 8.6 14.5 15.2 20.1-3.8 4.7-7.3 9.6-10.3 14.8-1.7 2.6-3 5.3-3.8 8.3-.4 2-.6 4-.6 6 0 1 0 2.1-.1 3-.2 1.7-.5 3.4-.9 5.1-.3 1.5-.6 3-.8 4.5-3-.5-6-1-8.9-1.4-11.3-1.7-22.7-2-34-.9-1-1.2-2.1-2.5-3.1-3.8-14.3-18.5-16.9-36.9-18.6-57.3-.3-2.1-.3-4.2.1-6.2.9-2.3 2.2-4.3 4-6 16.7-17.6 36-22.5 60.5-15.4zm5.5-23.9c2.1-6.8 5.4-7.5 10.2-8.6 2.9-.6 5.7-1.5 8.3-2.9-5.3 7.4-10.6 14.7-15.9 22.1l-.5.6c-.7 1-1.3 2.1-2.1 3-1.6-4.7-1.7-9.5 0-14.2zm51-40.6 3.8 1.5c14.6 5.8 20.8 8.4 25.3 21.4-12.2-5.7-24.9-10.2-37.9-13.7-1.1-.3-2.3-.6-3.5-.8 4.2-4.6 8.4-8.3 12.3-8.4zm15.9-5.1c3.9-.8 7 1 10.6 3 1 .6 2.1 1.2 3.2 1.8 4.4 2.2 8.9 4.1 13.3 6 7.2 2.8 14.1 6.3 20.7 10.4 7.5 4.8 13.6 10.9 18.4 18.3.9 1.4 1.7 2.8 2.3 4.3-1.5.2-2.9.4-4.3.8-8.6-9.8-22.5-12.9-36-15.8-4-.8-7.7-1.7-11.4-2.7-4.6-12.6-10.9-16.6-22.6-21.3 1-2.7 2.9-4.3 5.8-4.8zm84.3 48h.5c1.3.2 2.6.5 3.8.8 6.4 1.5 12.6 3.8 18.5 6.7 2.5.9 4.6 2.4 6.3 4.4.6.8 1.1 1.7 1.4 2.7.5 1.7.9 3.5 1.2 5.3v.5l.9 6.3c.2 1.3.4 2.6.5 3.8l2.1 14.7c1.9 13.5 4.3 30.3-1.8 44.2-2.8 6.2-6.8 11.4-12.1 15.8-2.4-1.3-5-2.1-7.7-2.2-1.5-.1-2.9 0-4.4.3-.5.1-1.1.2-1.6.4-.3 0-.7.1-1 .2-2.8.9-5.4 2.1-8 3.5l-2.1 1c-1.9 1-3.8 2.1-5.8 2.9-3.7 1.6-7.5 2.5-11.5 2.7-2.2.1-4.3 0-6.4-.1.9-.8 1.6-1.8 2.1-2.9 1.1-2.8 1.4-5.7 1-8.7-1.4-14.6-8-26.4-19.7-35.2 7.3-8.3 11.6-18 13-29 .7-9.9-1.5-19.2-6.4-27.8 4.1-3.9 8.8-6.9 14.1-8.9l2.7-.9c2.5-.7 5-1.1 7.5-1.3 4.3-.2 8.6 0 12.9.8zm163.6-61.4c3 .4 6 .7 8.9 1 6.7.5 13.3 1.4 19.9 2.9 5 1.3 14.7 5.9 14.8 7.9 0 0-.4.7-2.9 1.5-13.3 4.1-29.3 3.4-45-2.1-6.8-2.1-13-5.4-18.6-9.7l-1.6-1.3c-2.1-1.8-4.3-3.4-6.7-4.9 6.7.2 13.3 1.1 19.9 2.6 3.9 1 7.6 1.7 11.3 2.1zm-101.3 66.1c-2.4 5.2-5.6 9.9-9.6 14.1l-7.2 8.5c-2.9-.9-5.9-1.7-9-2.4l-.2-1.2c9.9-9.5 18.7-19.9 26.3-31.3 1.5 4.1 1.3 8.3-.3 12.3zm24 62.2c-.2 3.2-1.2 5.1-2.9 5.8-4.1 1.5-12.3-3.2-16.3-7.3-4.6-4.9-8.7-10.1-12.4-15.7-5.2-7.3-10.5-14.9-17.6-20.3v-.1c8.3 1.9 16.2 4.8 23.8 8.8 10.9 5.9 26.1 18.8 25.4 28.8zm-48.3-31.6c.1.1.3.2.4.3l-.3.3c0-.1 0-.3-.1-.6zm-2.4-16.5c-.2-1.8-.7-3.6-1.2-5.4-.4-1.3-1-2.4-1.8-3.5 7.6-6.4 15.9-11.9 24.6-16.6-6.4 9.1-13.6 17.6-21.6 25.5zm42.2 81.4c.4-1.1.7-2.1.9-2.4 2.1-4.4 4.4-8.7 7.2-12.7.9-1.3 1.7-2.7 2.6-4.1 10-16.4 22.9-29.9 38.7-40.7 6.2-4 12.6-7.6 19.2-10.7 2.2-1.1 4.3-2.1 6.5-3.3 1.2-.6 7.7-3.5 12.9-5.8l.5-.2c-26.9 29.3-57.5 56.1-89.4 82.8.2-.9.6-1.8.9-2.9zm67.7-40.8c-6.7 5.6-13.6 10.9-20.8 15.8l-29.9 21.2c-4.8 3.5-9.8 6.7-15 9.5 32.2-26.9 63.2-54 90.3-83.8-3.8 16.1-15 29-24.6 37.3zm-86.4 152.2c-7.6-4.1-14.6-9.1-21-14.9 2.7.2 5.4.4 8.1.4 2.7 0 5.1-.2 7.6-.4 2.5 2.9 5.3 6.1 8.5 9.5-1.7 1.4-2.8 3.2-3.2 5.4zm10.8 4.6h-.3c.4-.4.7-.8.9-1.2l.8.8-1.4.4zm-41.5-21.1 2.3.5.3.2.2.2c7.9 7.8 16.8 14.3 26.6 19.5l.9.4v2.6c-13.2-1.7-25.5-5.9-37.1-12.4 2.7-3.4 5-7 6.8-11zm5.4-2.2-.2-.2c-1-.9-1.9-1.8-2.8-2.7l-.2-.2c1.7-4.8 3.1-9.6 4.3-14.5.2-1 .5-2.1.7-3.1 4.9 7.1 10.1 14.4 15.8 21.4-5.9.4-11.7.2-17.5-.7h-.1zm-170.4 47.5c.3-3.3.9-6.6 1.7-9.8 1.2-.7 2.5-1.5 3.7-2.3 13.3-9.2 22.5-23.4 27.4-42.1v-.5c3.8 1.6 7.7 2.5 11.7 2.6h1.2c3.4 0 6.7-.4 10-1.2 13.1-3 20.4-7.5 22.2-13.8.5-1.9-.3-4.4-1.5-7.8l-.2-.5c-.6-1.3-1-2.7-1.3-4.1v-2.7c3.3 3.4 5.6 7.4 6.8 12 1.9 8.1-1.2 16.6-4.1 24.9l-1 2.9c-2.6 6.5-3.7 13.2-3.4 20.2v.5c.3 3.4 1.4 6.6 3.2 9.6 1.6 2.8 4 4.8 7 6.1 1.4.5 2.9.8 4.4.8 1.7 0 3.5-.3 5.1-.8-2.2 7.5-6.9 13.9-11.9 20.7-1.7 2.3-3.4 4.6-5 6.9-10.9 10.8-26.8 20.2-48.2 28.7-.5.2-1.1.7-1.5.4-.7-.1-1.3-.4-1.9-.8-15.8-9.2-26.1-30.3-24.4-49.9zm-35.4-5.7c-9.4-1.1-18.5-3.2-27.4-6.4-3.5-1.1-7.1-2.4-10.7-3.7-7.4-2.5-14.5-5.7-21.2-9.7 11.6 4.9 24.8 7 38.6 8.7l5.5.6c5.9.8 11.7 1.3 17.6 1.5h2.7c5.1 0 10.2-.5 15.2-1.6 14.5-3.2 28.3-12.4 39.3-25.9-4.5 10.9-11.6 19.7-21.1 26.5-1.3.9-2.8 1.8-4.1 2.7-10.6 6.3-22 8.7-34.2 7.4l-.2-.1zm-14.2 19.4c-1.6-.7-3.3-1.5-5-2.1.9-2.3-.3-4.9-3.2-7-4.2-3-8.7-5.3-13.5-7.1 2.9-1.6 5.7-3.4 8.3-5.4 8.7 3.1 17.7 5.1 26.9 6.2 3.1 1.8 6.1 3.6 9 5.1-8.3 1.8-15.8 5.2-22.5 10.3zm-7 37.2c-4.2-1.9-8.4-4-12.4-6.2-.8-1.5-1.7-2.9-2.5-4.4-5.8-9.7-12.2-19.5-22.7-23.7h-.2 3.5c2.3.2 4.7.6 7 .9 3.3.6 6.6.9 9.9 1.1 5.9.5 11.4-.7 16.5-3.9 2.5 1 5 2.1 7.5 3.2 14.1 6.7 26.3 15.9 36.6 27.6 3.4 3.5 5.9 7.5 7.6 12-10 4-22.5 3.5-38-1.7-4.4-1.5-8.6-3.1-12.7-4.9h-.1zm-27.3 62-.9-.4c-8.1-3.7-15.2-8.8-21.4-15.3-6.4-6.7-11.4-14.4-14.8-23.1.4-.5.8-1 1.1-1.6.9-2.4 1.4-4.9 1.5-7.5.5-6.4 1-14.3-2.4-21 2.2 2.4 4.7 4.6 7.2 6.6 5.6 4.4 11.6 8.4 17.4 12.3 1.7 1.2 3.5 2.4 5.3 3.7.8 2.9 1.8 5.6 3.1 8.3.6 1.2 1.3 2.4 1.9 3.7 1.4 2.4 2.6 5 3.6 7.6.8 2.3 1.2 4.7 1.3 7.2v.1c.1 6.7-.9 13.2-2.9 19.6v-.2zm-20.2-8.2c5.1 4.4 10.6 8.1 16.7 11 .5 3.1 1.2 6.2 2.2 9.2 2.6 6.9 3.2 14 1.8 21.3l-1.2 11.8c-2.4-1.6-4.4-3.5-6-5.9l-14.5-18.7c2.5-9.4 2.8-19 1-28.6v-.1zm-25.7-27.4c.8.3 1.7.5 2.5.5h.6c.9-.1 1.8-.3 2.6-.8 3.5 8.4 8.4 15.9 14.6 22.5 3.3 11.3 3.4 22.5.2 33.8-.6 1.9-1.2 3.8-2 5.7-2.8-4.8-6-9.2-9.8-13.3-1-1.1-1.9-2.1-2.9-3.1-2.5-2.5-4.8-5.2-6.9-8.2-1.9-3.2-3.4-6.5-4.3-10.1 3.4-8.6 5.1-17.6 5.2-26.8l.2-.2zm-15.7-43.7c3 .4 5.9.6 7.5.9.8.2 1.7.2 2.5 0 3.1 2.5 8.9 7.2 11 11.2 3 5.7 2.5 12.8 2.1 19 0 2.1-.4 4.1-1.1 6.1-.3.6-.7 1.2-1.2 1.7-.6.7-1.4 1.1-2.3 1.2-1.3 0-2.4-.4-3.3-1.2h-.1c-.4-.3-.7-.6-1-.9-6.2-5.6-9.5-13.9-12.4-21.9-1.8-4.9-3-11.8-1.5-16l-.2-.1zm-5-12.1c-.2.3-.5.5-.7.8-.3-.2-.5-.3-.9-.3-3.9.2-11.2 0-16.3-2.5-4.1-2-7.3-5-9.4-9.1-.4-.7-.6-1.4-.9-2.1-.2-.4-.3-.9-.4-1.3-.5-1.6-.3-3.2.6-4.6 1.1-1.3 3.2-1.7 6.6-1.5 8.1.9 15.8 3 23.3 6.2-.3.2-.5.3-.8.4-1 0-1.9 0-2.8-.2-2.2-.1-3.6 1-3.9 3.2-.4 2.2.5 3.6 2.7 4.3 1 .1 1.9.4 2.8.7 2.1 1.2 1.6 4.4.1 6.2v-.2zm-8.1-58.2c2.1-1.6 5.2-2.1 9.5-1.2 3 .6 10.1 2.6 11.9 8.2.1.4.3.9.3 1.3.2 1.3.3 2.6.2 3.9v6.8c-.2 6.2-.9 12.2-2.4 18.2-1.5-1.5-3.4-3.1-5.3-2.3-.8.4-1.3 1-1.6 1.8-7.8-6.7-15.3-17.9-15.6-28 0-2.8.5-6.7 3-8.7zm82.3 32.3c-5.6-1.7-11.4-2.5-17.2-2.4-5.5.2-10.9 1.1-16.2 2.7 4.3-5.6 6.2-12 5.8-19 .9-.6 1.9-1.2 2.9-1.7 8.1 5.6 16.9 9.9 26.2 13 2.4.8 4.7 1.6 7.1 2.4-2.7 2-5.6 3.7-8.6 5.2v-.2zm-56 33.2c.1-.1.2-.2.4-.2 1.3 2.6 2.8 5.1 4.5 7.4-1.9-1.7-3.8-3.4-5.7-4.8 0-.9.3-1.6.8-2.4zm-.3-45.4c3.4-3 7.3-5.4 11.6-7.1 4.3-1.7 8.7-1.8 13.1-.4v.2c.5 5.1-.5 9.9-2.9 14.4s-5.8 7.9-10.3 10.4l-.1.1c-1.9 1.1-3.6 2.2-5.4 3.5v-1c-.4-1.9-2.6-3.4-4.1-2.4-.8.5-1.1 1.4-1.8 1.9-.8.6-1.7.7-2.6.2 1.4-6.5 2.3-13.1 2.5-19.8zm27.6-10.4c-.1 0-.1-.3-.3-.3-4.4-1.9-9-2.2-13.7-1.1 1.4-3.6 2.7-7.2 4-10.8 2.8 4.6 6.3 8.6 10.5 11.9l-.5.3zm-10.3-55.1c-5.4 12.4-6.7 25-3.3 35.2.3 1 .7 1.8 1.1 2.7 0 .1-.1.3-.1.4-2.1 5.6-4.1 11.2-6.2 16.9-3.1 1.4-6.1 3.1-8.8 5.2v-2.7c0-1.3-.1-2.7-.2-4 1.6-6.2 2.7-12.6 3.3-19 .5-3.3.6-6.6.2-9.9-.3-1.5-.7-2.9-1.3-4.3 2-2.7 3.8-5.5 5.3-8.5 1.7-3.9 4.1-7.4 7.1-10.4.7-.8 1.8-1.3 2.9-1.6zm22.3-35.5c-5.3 6.4-10 13.2-14.1 20.4l-1.6 2.6c.8-3.6 1.3-7.2 1.6-10.9 4.7-6.7 7.9-14 9.5-22 .1-1 .4-1.9 1-2.8 1-.6 1.9-.6 2.9 0 1.3.9 2.4 2.1 3.2 3.6.9 1.5 1.6 3 2.4 4.5-1.8 1.5-3.4 3-4.9 4.6zm-54.1 76.2c-1.7-7.4-4.2-14.6-7.5-21.5.8-1.7 1.8-3.3 2.8-5 1-1.6 2.1-3.6 3.1-5.4.2-.5.5-1 .7-1.6.9.6 1.7 1.2 2.6 1.9 1.4 1 2.8 2.2 4.1 3.4 2.7 2.3 4.9 5.1 6.6 8.3.7 1.4 1.1 2.9 1.4 4.5.3 3 .2 5.9-.3 8.8-.5 4.3-1.1 8.7-2.1 13-3.1-3.4-6.9-5.6-11.4-6.4zm81.3 113.5c0 1-.4 1.9-1.1 2.6-.6.3-1.2.5-1.9.4-3.7-.2-7.3-2.9-10.2-5-2.9-2.1-6.1-4.3-9.2-6.4-.1-.1-.2-.2-.4-.3-1.8-1.2-3.6-2.5-5.4-3.8-5.7-3.9-11.7-7.9-17.2-12.2-6.9-5.4-12.5-11.9-16.7-19.6h.2c3 .3 5.6-.5 7.9-2.4 1.3-1.4 1.8-3.1 1.5-5 1.8-.2 3.5-.4 5.3-.6 6.1-.8 11.9-1.6 17.1.5 9.3 3.8 15.3 13 20.7 22s11 19.2 9.4 29.5v.3zm6.6-60.9c-4.5 3.4-10.5 3.8-14.8 3.6-3.2-.2-6.3-.6-9.5-1.1-2.4-.4-4.8-.7-7.2-1-7.6-.7-15-.1-22.3 1.8-1.7.5-4.3 1.4-6.2 2.1l-.5.2c-.2 0-.2.3-.4.4-.2.1-.4.2-.5.4-2.2-1.1-5.1-.9-6.7-2.8-1-1.8-1.2-3.6-.4-5.5v-.2c.6.2 1.2.1 1.8-.2 9.6-7.4 20.5-11.1 32.6-11.4 5.7 0 11.4.7 16.9 2.4 6 1.8 11.5 4.6 16.5 8.3 1.3.9 1.9 1.9 1.8 2.3-.3.3-.6.5-1 .6l-.1.1zm59.6-179.5c2.6-2.9 5.5-5.2 8.9-7.1l.4-.2c1.8-.5 3.2 0 4.4 1.3.9 1 1.5 2.3 1.6 3.7v.9c-.1 1.7-.3 3.4-.7 5l-1.2 5.6c-1.2 6.2-2.5 12.4-3.8 18.7 0 .3-.1.6-.3.9-.3.3-.6.5-1 .7-2.6 2.2-4.2 5.1-4.8 8.4-.3 1-.6 2-1 3-2.1 5.7-8.5 11.4-15.2 11-.9-.3-1.7-.8-2.4-1.5-1.8-2.2-2.6-4.7-2.2-7.6v-.9c.2-1.7.6-3.4.9-5.1.4-1.8.8-3.7 1-5.6.1-1.1.1-2.2.1-3.3-.2-4.5 1-8.6 3.8-12.2 3.2-5.7 7-11 11.2-15.9l.3.2zm107.5 37.7c-1.1 2.2-2.8 3.4-5.3 3.5h-.9c-3.4 0-6.8-.4-10.2-1.2-4.7-1.1-9.3-2.5-13.9-4.1-2.1-.7-4.1-1.4-6.2-2.1l-.8-.2c-.1-.1-.2-.1-.3-.2-6.4-2.2-12-5.6-16.8-10.4-1.4-1.3-2.7-2.8-3.8-4.3-4.2-5.4-6.6-11.5-7.2-18.3-.7-3.8.3-7 2.9-9.8 4.7-4.5 14.1-3.9 19.2-3.2 9 1.3 17.1 4.6 24.5 9.9 11.7 8.1 18.3 19.3 19.7 33.6.1 2.4-.1 4.6-.9 6.8zm-29.4 9.1c-1.2-.9-3-1.7-2.7-3.2.1-.7.7-1.2 1-1.7.1-.2.2-.5.2-.7.1-.3.1-.7 0-1 0 0-.1-.1-.1-.2 4.6 1.6 9.2 3 13.9 4.1.4 0 .7.1 1 .2-.2.3-.4.6-.6.8-3 3.4-6.6 6.1-10.9 7.9.1-.3.4-.5.4-.8.4-2.3-.3-4.2-2.2-5.5v.1zm-26.8 29c1.6.4 2.6-.1 3-1.7 1.7 1.2 3.5 1.7 5.6 1.5 1.9-.4 3.4-2.9 2.1-4.4 2.3 1 4.6 1.1 7 .4.5-.2 1-.6 1.3-1l.4 18.2c.2 1.6.6 3.2 1.2 4.7-1.1.8-2.3 1-3.6.8-1.6-.4-3.1-1.1-4.4-2.1-3.3-2.6-5.9-5.7-8-9.3-2-3-4.3-5.7-6.7-8.3l-1-1.1c.9 1 1.9 1.7 3.1 2.1v.2zm-28.3-48c-.6 1 0 2.2.8 3.2.9 1.3 1.9 2.7 2.8 4-2.8 1.4-7.3.3-8.6 3.2-.7 2.4.1 4 2.6 4.6-4.6.9-9.1 2.2-13.4 3.9h-.3c-1.1.4-2.1.9-3.2 1.4l-.8.4c1.6-1.8 2.9-3.9 3.8-6.2.4-1.1.7-2.1 1.1-3.3.4-2.6 1.6-4.7 3.5-6.4.6-.4 1.2-.9 1.6-1.5.5-.8.9-1.6 1-2.5 1.3-6.2 2.5-12.4 3.8-18.5l1.2-5.6c.2-.9.4-1.9.5-2.8 3.1 2.3 6.2 4.7 9.4 7.4 4.5 3.8 9 8 13.4 12.3-.7.1-1.2.5-1.5 1.2-.2.8 0 1.5.6 2.1-.1.2-.2.4-.4.5-1.4 1-3.7-.7-5-1.1-.3-.1-.6-.2-.9-.2-1.5-.4-2.6 0-3.4 1.3-.4.7-.3 1.5-.7 2.2-1.7 2.2-6.4-2-7.8.4h-.1zm-8.3 20.8h-.3c2.9-.9 5.8-1.6 8.7-2.1-.6.6-1.2 1.2-1.9 1.7l-.3.2c-.5.5-.8 1.1-1.1 1.7-1.7-.7-3.3-1.2-5-1.7l-.1.2zm59 51.6c-.9 3.2-5 7.7-19.2 11-3.4.8-6.8 1.1-10.3 1.1-4.3-.1-8.4-1.1-12.3-3l-.5-.3c-2.1-1.3-4.1-2.7-6-4.3l-.2-.1-2.8-2.6-1-.8-.6-.5c-2-1.5-4-3-6.1-4.4-2.7-1.8-5.4-3.8-7.9-5.9-4.9-4.1-7.8-8.7-8.7-13.2-.5-2.4-.3-4.9.4-7.2.7-2.4 1.9-4.5 3.6-6.3 1.7-1.8 3.7-3.1 6-4 2.3-.8 4.7-1.1 7.2-.8 2.9.5 5.6 1.4 8.3 2.6l1.4.6h.1l1.8.7.6.2c.6.2 1.1.4 1.7.5 1.5.9 4.9 3.1 8.3 5.6l.8.6c1.3.9 2.5 2 3.6 3.1.5.5 1 1 1.8 1.9l2.4 2.6c2.4 2.5 4.6 5.1 6.5 7.9 2.2 4 5.2 7.3 8.8 10.1 1.8 1.4 3.8 2.3 6 2.8.6.1 1.1.1 1.7.1 1.4 0 2.7-.4 3.9-1.1.4.9.6 1.9.6 2.9l.1.2zm70.4-64.2c.2-.1.3-.1.5-.1 2.4 0 4.2.9 5.6 2.8 2.3 2.7 4 5.8 5.2 9.2 1.7 5.4 2.4 11 2.1 16.7-.1 3.7-.5 7.4-1.2 11.1 0 .2 0 .5-.2 1s0 .4-.1.8c-.8 4.4-1.9 8.9-3 13.2-1.1 4.3-2.1 8.8-3 13.2h.2c-.1.2-.2.3-.2.5h.1c-.5 2.5-.9 5.1-1.2 7.7-.2 1.5-.4 2.9-.5 4.4l-.4 3v1.7c.1 1.2.1 2.3 0 3.5-.8 0-1.6-.1-2.4-.3-.5-.1-1.1-.2-1.6-.2l-2.1-.1h-3.2c-11.9.5-20.9 6.2-30.7 12.8l-5.1 3.4c-5.8 3.7-11.8 7-18 9.9-2.8 1.3-4.7 1.6-5.7.7-1.2-1.3-2-2.8-2.3-4.5 0-.2 0-.4-.1-.6-.5-5.1.5-11 3.2-18.7l1-2.9c3.1-8.8 6.3-17.9 4.1-27.2-1.8-6.8-5.4-12.4-10.8-16.9l-.3-14.5c.9-.1 1.8-.3 2.7-.7 1.1-.5 1.9-1.3 2.5-2.4.5-.9.6-1.9.4-2.9-.3-.8-.8-1.5-1.5-2.1 6-1.9 11.1-5.3 15.4-10 .7-.8 1.5-1.8 2.1-2.7 1.7.2 3.4.3 5.2.3h1.3c4.5 1 9 1.3 13.6 1.1 4.5-.2 8.8-1.2 12.9-3.1 2.1-.9 4-2 6-3l2.1-1c2.4-1.2 4.9-2.3 7.4-3.1zM486.3 266c0-.1-.1-.2-.2-.3-2.8-6.1-3.7-12.5-2.7-19.1 1.2-3.9 3.1-7.5 5.6-10.8 3.7-4.7 7.9-9.1 12.4-13l.4-.3c2.1-2.1 4.4-3.9 6.7-5.8 6.2-5.2 12.6-10.5 16.5-17.9.3-.9.9-1.7 1.7-2.4.5-.1 1-.1 1.5 0 8 .4 15.1 4.1 22.7 8.3 5 2.9 10.2 5.3 15.7 7.2 1.1.4 2.3.7 3.5 1 1.1.3 2.7.6 4.1.9 3.2.6 6.4 1.5 9.5 2.6 5.4 2.1 9.5 5.7 12.4 10.7l.7 1.2c5.1 8.3 7.4 17.2 6.7 26.9-1.1 11.4-7 20.7-12.2 27.1-7.5-5.1-15.7-8.3-24.7-9.6-7.1-1.1-16.8-1.2-22.5 4.2-3.3 3.1-4.7 7.5-4.1 13.2.5 5.4 2 10.4 4.6 15.1-3.7-3.5-7.4-6.9-11.2-10.1-4.1-3.5-8.1-6.5-12-9.4-.3-2-1.1-3.8-2.5-5.3-2.4-2.7-5.4-3.5-8.8-2.3l-1.2.6c-3 1.7-5.7 3.8-8.1 6.3-6.3-5.3-11.1-11.6-14.5-19zM599 224l-.1-.1c0-.1-.1-.2-.1-.2-1-1.4-2-2.8-3-4.1-4.1-5.2-8.8-9.8-14.1-13.7-3-2.2-6.1-4.1-9.4-5.9 3 .7 6 1.5 9 2.1 12.1 2.6 24.6 5.4 32.5 13.1-5.5 1.9-10.4 4.9-14.8 8.8zm-86-24.4 7.3-10.1c.6-1.1 1.4-1.9 2.5-2.6 1.8-.5 3.6-.3 5.3.4 13.9 4.1 28.3 8.3 41.1 15.3.1.1.2.2.3.2 3.4 1.9 6.6 3.9 9.8 6.2 1.1.8 2.1 1.7 3.1 2.6-2.4-.7-4.8-1.4-7.2-1.9l-3.9-.9c-1.1-.2-2.1-.5-3.2-.9-5.2-1.9-10.2-4.2-14.9-7-7.6-4.1-15.4-8.3-24.3-8.8-1.2-.1-2.3 0-3.4.4-1.7.9-3 2.3-3.7 4.1-3.5 6.6-9.4 11.5-15.6 16.6-2.3 1.9-4.7 3.9-7.2 6.2l-.6.6 14.6-20.4zm-31.8 134c-.1 3.4 1 6.3 3.3 8.7 1.2 1.2 2.6 2 4.1 2.5h.7c1.3.4 2.6.6 3.9.6 1.2 0 2.3-.1 3.5-.4 3-.7 5.9-1.9 8.7-3.3l2.1-1 2.4-1.1c1.9.5 3.9 1.1 5.8 1.7 2 .6 3.4 1 5.2 1.6l1.2.4c.1.3.3.6.4.8 2 2.4 4.2 2.6 6.6.8 0 .9.2 1.7.3 2.6l-.7-.2h-.1l-1.3-.5c-3-1.4-6.1-2.4-9.4-2.9-6.6-.8-12.1 1.2-16.7 6-4.5 4.8-6.2 10.5-5 17 1 5.5 4.4 10.7 10 15.5 2.6 2.2 5.4 4.3 8.3 6.2 2.1 1.4 4 2.8 5.8 4.1l.6.5c.4.3.8.6 1.1.9l3.1 2.6.2.2c1.8 1.5 3.7 2.8 5.6 4l-.1.6c-11.2 18.9-27.6 32-45 35.8-5.6 1.2-11.3 1.6-17 1.4-5.8-.2-11.5-.6-17.2-1.4l-5.5-.6c-14.8-1.8-29.1-3.9-41.1-9.9-6.5-3.1-11.9-7.5-16.3-13.3-.2-.4-.4-.7-.6-1.1-.5-1-.9-2.1-1.2-3.2-3.3-10-1.8-22.8 4.1-35 1-2 2-3.9 3.2-5.8 1.3-2.1 2.5-4.1 3.7-6.1 4-7 8.6-13.6 13.7-19.8 1.7-1.9 3.5-3.6 5.6-5.1 5.6-4.1 11.5-5 20.5-6.2 11.4-1.2 22.8-.9 34.1.8 3.3.6 6.3 1.2 9.4 1.6zm-50.6-5.3c-4.9.7-9.4 2.3-13.6 4.8-.7-1.5-1.4-3-2.3-4.4-1.1-2-2.7-3.7-4.6-5-2.8-1.7-5.4-1.4-7.8.7-1.2 1.4-1.9 3.1-2.1 5-1 4.9-2.7 9.6-5 14h-.2c0-10.4-1.8-20.5-5.4-30.3 13.3 4.7 26.8 9.7 41 15.2zm-46-16.9h.3c4.4 11 6.5 22.5 6.2 34.4v1.9c-.1.2-.1.4-.1.6 0 .9 0 1.8-.2 2.8-.6 6.8-2 13.5-4.3 20-2.2.3-4.2 1.2-5.8 2.7-3.4 3.3-6.1 7.2-8 11.5-1.1 2.2-2.4 4.3-3.8 6.4-1.6-2.5-3.6-4.8-5.8-6.8-1-1-2.1-1.8-3.2-2.6.7-1.9 1.3-3.9 1.8-5.8.2-.7.4-1.4.5-2.1 1.3-6.1 2.2-12.2 2.9-18.3.5-4.4 1.1-9 1.8-13l.1-.6c1.5-8.6 5.9-24 17.6-31.1zm-57.6 41c-.5-2.9-.8-5.8-.9-8.8-.2-7.1 1.2-12.4 4.4-16.4 4.9 4.4 9 9.4 12.4 15.1 5.6 9.5 9.5 19.9 13.7 31.7l.8 2.4c-.3 1.2-.7 2.4-1 3.5-.4-.3-.8-.6-1.2-.8l-1.4-1c-.5-.4-1.1-.5-1.8-.3-.6.2-1.1.6-1.3 1.2-.4 1.2-.9 2.4-1.5 3.6-.9 1.7-1.9 3.4-2.9 5.1-.5.9-1 1.8-1.4 2.6-.2-.3-.3-.7-.5-1l-.4-.8-.2-.4c-3-13.1-8.6-25-16.8-35.7zm9.6 72.5-.8-.9c-1.3-1.6-2.7-3.1-3.8-4.5-3.6-4.1-7.3-8.5-9-13.7-1.3-4.1-1.6-8.2-1.1-12.4.3-3.1.8-6.3 1.4-9.4l.1-.8c.1-1.4.6-2.6 1.4-3.7 1.5-.8 3-.9 4.5-.1 4 1.5 7.4 4.9 10.9 10.9.1.2.3.5.4.7l.2-.2c.2.1.3.1.5.2l-.4.5c.8 1.4 1.5 2.8 2.1 4.1 3.1 6.4 5.5 13 7.1 19.9-3.6-.5-6.8.3-9.7 2.4-2.1 1.8-3.3 4.2-3.8 7zm-38.9 18.8v-.1c-.8-1.6-1.6-3.2-2.3-4.7-4.3-9.6-7.6-19.6-9.8-29.8-.4-2.1 0-2.4 0-2.4.4-.1.7-.2 1.1-.2 8.5-.6 17.6 3.4 25.3 11 5.5 5.7 10.3 11.9 14.5 18.7l3.4 5c4.2 6 9 11.4 14.5 16.2-4.6-1.4-9.3-2.3-14.1-2.8-3-.3-7.4-.2-10 2.8-1.2 1.6-1.7 3.3-1.6 5.3-5.1-1.1-9.4-3.6-13-7.4-3.2-3.5-5.9-7.4-8-11.6zm1.1 54.2c-3.9-.6-7.8-1.5-11.5-2.9-2.6-.9-6.9-2.9-7.2-6.2-.2-2.3 1.5-4.7 5.1-7.2 10.8-7.4 22.7-11 35.8-10.6 2.5 4.3 6 7.5 10.4 9.7 4.9 2.2 10.1 3.2 15.5 3h.6c-.2.3-.4.7-.6 1-.1.4-.1.8 0 1.2-.2 0-.5 0-.7.2-5.4 4-11.4 7.1-17.8 9.2-9.6 3.1-19.5 4-29.6 2.6zm35 42.2c-2 2.4-4.3 4.4-7.1 5.8-2.6 1.3-5.1 1.2-7.5-.3-2.5-1.9-3.2-5.8-2.1-11.7 2.3-12.5 6.8-24.2 13.5-35.1 6.5-2.2 12.6-5.3 18.2-9.4.1 0 .1-.2.2-.3 1.1.7 2.3 1.1 3.5 1.4-1.6 5-.5 11.8 1.1 16.8 0 0-.1.1-.1.2-.9 5.2-2.8 9.9-5.8 14.2-4.1 6.6-8.7 12.7-13.9 18.4zm90.9 9.7c-.2-2.5-.7-4.9-1.4-7.3-1.1-2.9-2.3-5.6-3.9-8.3-.6-1.2-1.3-2.3-1.8-3.5-.4-.7-.6-1.5-.9-2.3 1.2.9 2.4 1.7 3.6 2.5 3.3 2.5 7.4 5.5 12.4 5.8h.5c1.5.1 2.8-.3 4-1.1 1.7-1.4 2.6-3.2 2.7-5.5 1.2-7.5-1-14.9-4.1-21.8 2.4 1.2 4.8 2.5 7.3 3.6 18 19.8 34.7 39.5 40.4 64.1.4 1.7.7 3.4 1.1 5.1.4 1.7.6 3.2 1 4.7-7.5-1.4-14.3-4.3-20.5-8.8-2.9-2.1-5.7-4.6-8.3-7-3.5-3.3-7.2-6.2-11.2-8.9-2.9-1.8-6-3.4-9.1-4.8-2.5-1.2-5.1-2.5-7.6-3.9-1.4-.7-2.8-1.6-4.2-2.6zm171.2-102.6c-3 1.2-6.1 1.4-9.2.7-1.6-.7-2.9-1.7-3.9-3.2h.2c2.1-.1 4.1-.7 5.9-1.6 6.4-3 12.5-6.4 18.5-10.2 1.7-1.1 3.5-2.3 5.2-3.5 9.2-6.3 17.8-11.6 28.6-12.1h2.9l1.9.1c.3 0 .7 0 1.1.2 1.9.4 4.4.8 5.9-.6s1.4-3.7 1.3-6.7V409l.2-2.9c.1-1.4.3-2.8.5-4.1.3-2.5.7-5 1.2-7.4.1-.2.1-.4.1-.6.8-4.4 1.9-8.7 2.9-13 1.1-4.3 2.1-8.9 3-13.3.1-.3.2-.7.2-1 0-.4.2-.8.2-1 .7-3.8 1.1-7.7 1.2-11.5.3-6.2-.4-12.2-2.3-18.1-1.3-4-3.3-7.5-6.1-10.7 1.3.4 2.6.9 3.7 1.7l2.1 1.5c3.2 2.6 5.7 5.7 7.5 9.4 7.6 14.9 5.2 32.6 2.3 46.4-.5 2.5-1.1 4.9-1.7 7.4-1.2 5.2-2.7 10.4-4.6 15.4-.3.9-.7 1.8-1.1 2.7-1.8 4.3-4.2 8.2-7.3 11.7-.3.4-.7.7-1.1 1.1-8.4 8.5-20.7 12.4-31.5 15.9l-27.8 8.6zm125.4-45.6h-.2c-.1 0-.6.4-1 .6-8 4.5-16.5 7.2-25.6 8.3-6.4-7.6-12.2-16-17.8-24L675 384c3-14.3 5.1-32.4-2.8-48.2-1.3-2.5-2.9-4.9-4.8-7 13.1.3 26.3 1.1 39.4 2.1l2.8 8.5c4.8 15.7 10.7 31 17.6 46-.8 2.1-1.6 4.1-2.4 6.2-1.1 3.3-2.3 6.5-3.5 9.8v.2zm8.3-20.8c-4-8.6-7.4-17.4-10.5-26.2 4.2 7.6 8.8 15 13.7 22.1-1.2 1.3-2.3 2.7-3.2 4.1zm41.5 42.2c-3.4.5-6 2.2-7.9 5l-.1.2c-6.1-5.4-11.7-11.4-16.5-18.1-.7-.9-1.2-1.8-1.9-2.7 2.3.1 4.5 0 6.8-.4 1.3-.2 2.6-.6 3.9-1.1 5.2 5.9 10.5 11.6 16.1 17.1h-.4zm11.4 14.3c-2.3-1.4-4.9-2.2-7.6-2.4 2.5-.5 3.8-2 4.1-4.5 7.2 6.6 14.8 12.8 22.7 18.7-5.7-1.3-11.1-3.2-16.4-5.7.3-2.8-.7-4.7-2.8-6.1zm14-110.4c3.1-3.6 6.7-6.7 10.7-9.3 8.6-5.2 17.7-9.4 27.3-12.4 19.1-6.4 39.5-8.3 59.2-10.1 5.6-.6 11.2-1 16.9-1-16.1 7-34.4 11.7-52.3 16.2-22.9 5.8-46.6 11.9-66.4 22.8 1.4-2.1 3-4.2 4.6-6.2zm27.1 9.1-2.4.2c-5.2.5-10.1.9-15.2 1-2.1 0-3.9.1-5.9.2-1.6.1-3.3.2-4.9.3h-3c19.7-11.3 43.7-17.5 67-23.4 17.5-4.5 35.6-9.1 51.7-15.9-25.1 21.7-54.2 34.3-87.3 37.6zm77.9 26.6c7.2 1.5 14.3 3.4 21.3 5.8l1.6.6h.2c24 8.4 45.1 21.4 63.4 39-17.1-7-33.9-14.9-50.2-23.6-11.2-5.8-22.7-11.8-34.4-17.1-5.9-2.7-12.1-4.6-18.5-5.6 1.5-.2 3-.3 4.6-.3 4 0 8 .4 12 1.2zM279.2 758.9c-2.7 8.3-5.5 16.8-4.6 25.6 0 .8.2 1.5.4 2.2-1.5-1.9-2.9-3.9-4.3-5.8-2.2-2.5-3.7-5.4-4.4-8.6-.1-2.9.4-5.6 1.5-8.3 3.6-11.2 8.4-24.6 12.9-36.6l2.4 5.7v.2c1.8 8.2-1 16.6-3.9 25.6zM314 184c-1.5 3.6-3.3 7-5.4 10.4-9.3 14.1-24.2 14.2-46.8.3-4.1-2.2-8.4-4.1-12.8-5.6-12.5-4.8-28.1-10.7-25.4-21 1.6-5.9 7.6-8.9 13.4-11.8 3.1-1.4 6-3.2 8.8-5.2 12.7-10.4 22.9-17.7 39-19.5 1.2-.1 2.3-.2 3.5-.2 9.5 0 20.7 4 25.7 12.4 1.4 2.3 2.3 4.8 2.8 7.5.8 4.8 3 8.7 6.8 11.6-11.1 1.8-21.7 3.5-33.7 1.1-1.3-.2-2.1.3-2.4 1.6-.2 1.3.3 2.1 1.6 2.4 12.8 2.5 24.3.7 35.3-1.1h.3c-4.5 5.1-8.1 10.8-10.7 17.1zm1.5-93.1h-4.4c-3.5.2-7 .1-10.4-.3-14.1-2.1-23.8-10.8-27.9-25.3-1.2-4.6-1.8-9.4-1.9-14.2-.1-5.1-.8-10.2-2.1-15.2-.9-2.7-2.2-5.2-3.6-7.6-3-5.4-5.8-10.4-2.7-15.8 3.6-6.2 5.2-5.6 9.9-3.9 1.9.8 3.8 1.4 5.8 1.9 6.3 1.2 12.7 1.9 19.1 2.2 9.4.6 19.1 1.3 26.9 4.5 12.7 5.3 23.4 23.2 22.5 37.6-.5 4.3-1.8 8.4-3.9 12.3-1.5 3.1-2.7 6.3-3.6 9.6-.5 2.3-1.3 4.6-2.1 6.9-1 3-1.8 6.1-2.5 9.1-8.8-16.1-19.8-30.6-32.9-43.5-.9-.5-1.8-.4-2.5.3-.8.8-.9 1.6-.3 2.5 12.3 12.1 22.7 25.7 31.1 40.7-4.8-1.3-9.6-2-14.5-1.8zm320.2 59.7c-2.3 11.8-4.3 25.2-1.8 38.8-2.4-4-5.1-7.8-7.6-11.3-2.7-3.5-5.1-7.3-7.2-11.3-4.1-10.2-6.6-24.9-2.1-33.2 2-3.7 5-5.8 9.2-6.4 1.4-.3 2.9-.4 4.3-.4 2.2-.2 4.1.4 5.7 1.8 3.4 3.5 1.6 12 .2 18.8l-.7 3.2zm43.1-1.7c-10.5-13.8-20.3-26.9-17.8-43 .2-1.2 1-5 3.2-5.4.4-.1.8-.1 1.2-.1 9 0 13.1 19.8 15 29.5.4 2.1.8 3.7 1.1 4.9 2.1 8 4.4 17.8 6.6 26.9-2.8-4.2-6.1-8.5-9.3-12.8zm26.5-23c3.7-12.3 13.5-34.7 24.6-34.7.4 0 .8 0 1.2.1 3.2.5 3.8 2 4 2.4 2.7 6.4-9.5 23.2-13.5 28.7-.7 1-1.3 1.9-1.8 2.5-7.4 10.5-12.9 21.9-16.5 34.2-.9-12.6-.8-23.8 2-33.2zm100.9-31.3c8.1-10.7 15.8-17.3 22.6-19.5 1.8-.6 3.7-.9 5.6-1 1.2-.1 2.3.2 3.3.9.6.7.3 2.3-.7 4.3-5.1 10-15.5 17-25.6 23.9-6.3 4-12.2 8.5-17.7 13.5 3.4-7.9 7.5-15.3 12.5-22.1zm30.3 29.6c9.1-1.7 37.1-2.4 45.5-.7-9.9 2.9-20.2 6.7-30.3 10.4l-.8.3c-17.2 6.4-31.9 6-44.8 5.6 7.1-7.5 20.5-13.8 30.4-15.6zm-82.1 63.6c7.1-1.5 14.5-3.1 21.6-4 5.1-.6 21.3.6 22.6 3.6 0 .2-.1 1.1-2.2 2.8-9.6 7.5-24.6 6.5-36.9 5.7-9.1-.5-18-1.8-26.9-3.9 7.4-1.2 14.7-2.7 21.8-4.2zm243.1 224c-20.1-21.4-43.9-37-71.6-46.6l-.7 1.9.4-2.1-1.7-.6c-7.1-2.4-14.4-4.4-21.8-5.9-6.2-1.3-15-1.9-20.7-.5-2.1.4-3.9 1.3-5.5 2.7-23.5-7.8-47.3-14.3-71.4-19.6h1.4c5.2 0 10.5-.3 15.7-1l2.3-.2c34.1-3.4 64-16.4 89.9-38.9 3.6-3.1 4.5-6.7 2.4-9.2-1.5-1.4-3.2-2.1-5.3-1.9-6 0-11.9.4-17.8 1-19.9 1.9-40.6 3.8-60.1 10.4-9.9 3.2-19.3 7.5-28.2 12.9-4.3 2.8-8.2 6.1-11.5 10.1-1.8 2.2-3.6 4.5-5.2 6.9-1.3 2.1-2.8 4-4.3 5.8-22-4.1-44.3-7.2-66.5-9.3 6.4-3 12.4-6.6 18-10.9l30-21.2c7.3-5 14.4-10.4 21.2-16.1 11.5-10.1 25.6-26.5 27.2-47.4 0-.8-.3-1.4-1-1.8-.7-.4-1.4-.4-2.1 0-.7.3-4.1 1.9-8.3 3.6-5.8 2.5-11.8 5.2-13.1 5.9l-6.4 3.2c-6.8 3.2-13.4 6.9-19.7 11-16.3 11.1-29.6 25.1-39.9 41.9-.9 1.4-1.7 2.7-2.5 4-2.8 4.2-5.3 8.7-7.5 13.3-.2.5-.6 1.5-1 2.7-1.1 3.4-2.4 6.6-3.9 9.8l-1.2 1c-14.5-1.2-29.1-2.1-43.6-2.3 5.1-4.5 9.1-9.9 12-16.1 6.5-15 4.1-32.4 2.1-46.5l-.5-3.4 2.3-2.7c3.7 4.2 7.2 8.6 10.3 13.2 3.8 5.8 8.1 11.2 12.8 16.2 3.2 3.2 10.9 8.8 17.3 8.8 1.1 0 2.2-.2 3.2-.5 2.3-.9 5.1-3.2 5.5-9.3.9-14-19.6-28.3-27.6-32.6-4.2-2.3-8.6-4.2-13.1-5.8l6.2-7.2c4.2-4.5 7.7-9.6 10.2-15.3 2.6-6.8 2.1-14.1-1.5-19-.1-.1-.3-.2-.4-.3-.1-.1 0-.2-.2-.2-.2-.1-.2 0-.2 0-.3-.1-.7-.2-1-.2H700.3c-11 3.8-21.7 11.8-32.7 20.5-1.6-1.2-3.2-2.2-5-3-4.9-2.3-10-4.3-15.3-5.8 14.5-10.7 29.7-21.2 45.7-30.9 4.2.9 8.2 2.1 12.2 3.7 4.1 1.6 8.2 2.9 12.5 3.8 13.4 4.5 27.2 7.2 41.3 8 3.9.3 8.3.6 12.7.6 9.4 0 19.4-1.3 26.7-7.1 3.3-2.6 4.5-5.1 3.5-7.5-3.1-7.3-26.6-6.1-26.9-6-7.4 1-14.8 2.5-22 4.1-8.8 2.1-17.8 3.6-26.8 4.5-2.6.2-5.1.1-7.6-.4h-1c-3.8-.9-7.5-2.1-11.1-3.5-2.8-1-5.8-2.1-8.8-2.8 19.5-11.8 40-21.4 61.6-28.6 5.7-1.5 10.6 2.6 15 6.2l1.6 1.3c6 4.6 12.6 8.1 19.8 10.4 9 3.2 18.3 4.8 27.9 4.9 6.7 0 13.2-.9 19.6-2.8 3.9-1.2 5.8-3.1 5.7-5.5-.2-6.7-17.7-11.7-17.9-11.8-6.8-1.5-13.6-2.6-20.5-3.1-2.9-.3-5.9-.6-8.8-.9-3.5-.4-7.1-1.2-10.9-1.9-3.8-.8-7.9-1.6-11.8-2.1 7.4-1.7 14.7-3.1 22.1-4.1.1.1.3.1.4.1l4 .1c3.3 0 6.7.2 10.2.2 12.4.3 24.5-1.8 36.2-6l.8-.3c11.2-4.1 22.7-8.5 33.7-11.4 1-.3 1.5-.9 1.5-1.9 0-1.1-.4-2-1.2-2.7-6.2-5.2-44.5-2.8-51.3-1.6-10.1 1.8-27 9.1-34.5 19.4-6.5.8-13.1 2-19.6 3.4 1.7-3.2 3.3-6.4 4.8-9.8 2-3.7 4.3-7.2 7-10.5 5.3-6.2 12.6-11.1 20.3-16.4 10.5-7.1 21.3-14.5 26.9-25.3 2.4-4.7 1.4-7.4.2-8.8-2.6-3.2-8.6-2.7-13.3-1.2-7.7 2.5-16 9.6-24.6 21-7.2 9.5-12.2 20.9-16.9 32-1.1 2.5-2.2 5-3.2 7.4-2.5 4.5-4.7 9.1-6.3 12.9-5.3 1.3-10.5 2.5-15.7 4.1-.7.2-1.4.4-2.1.7-18.5 6.1-36.3 13.9-53.3 23.5 1-17.1 10.1-34 17.8-45.4.4-.6 1-1.4 1.7-2.3 8.6-12 17.1-25.2 13.9-32.7-1.4-3.1-3.8-4.7-7.2-4.9-17.2-2.5-28.3 30.7-30.3 37.3-4.1 13.7-2.7 30.9-.4 50.3-1.7 1-3.3 1.9-5 2.8-3-12.8-7.2-30.7-10.6-44.1-.3-1.2-.6-2.8-1-4.7-2.5-12.3-7-35.2-21-32.6-3.3.6-5.7 3.8-6.4 8.8-2.8 17.9 8.1 32.2 18.6 46.1 7.3 9.6 14 18.7 16.7 28.8-17.4 10.5-33.9 22.1-49.6 33.7l-1-.2c1.4-5.5.3-9.8-1.4-15.8-.4-1.3-.8-2.6-1.2-4.1-4.1-14.5-1.8-29.5.6-42.4l.6-3.1c1.6-7.8 3.6-17.4-1.3-22.4-2.8-2.9-7.3-3.8-13.7-2.6-5.4.8-9.4 3.6-12 8.4-5.9 10.8-1.6 28.1 2 36.7 2.1 4.3 4.7 8.3 7.6 12.1 7 9.8 15.4 21.9 14.1 32.6-3.4-.5-6.9-.7-10.3-.5-.8-2.1-1.8-4.1-3-6.1-5.1-8-11.7-14.5-19.6-19.6-6.8-4.2-13.9-7.7-21.3-10.6-4.3-1.8-8.8-3.7-13.1-5.9-1-.5-2.1-1.1-3-1.7-4-2.3-8.1-4.6-13.5-3.5-4.3.8-7.1 3.2-8.6 7.2l-1.1-.5-4.1-1.7c-.3-.1-.6-.2-1-.1-7.5 0-14.5 8.4-21.4 16.6-4.1 4.8-8.3 9.7-12 12.3-2.6 1.6-5.4 2.7-8.4 3.2-5 1.1-10.3 2.3-13.1 11.3-2.3 6.7-1.9 13.2 1.2 19.6-.4.6-.7 1.3-1.1 1.9-18.1-5.3-33.9-4.3-47.9 3l-5.8-4.8 2.7-4.4c14.8-23.6 30-48 2.7-67.3-5.2-3.4-10.8-6-16.8-7.9-4-1.3-7.9-2.9-11.7-4.7-1.2-.6-2.6-1.5-4.1-2.4-7.4-4.6-18.6-11.5-26.4-5.2-6.9 5.5-3.7 13.1-1.3 18.7.6 1.3 1.1 2.6 1.5 3.8 2.1 5.6 3 11.4 2.5 17.3-8.5-14.8-15.8-30.2-22.9-45.3-5.9-12.7-11.8-25.1-18.2-37 .4-4.7 1.4-9.3 3.1-13.7.8-2.5 1.5-4.9 2.1-7.2.8-3 2-6 3.4-8.8a37 37 0 0 0 4.2-13.7c1.1-16.1-10.6-35.6-24.9-41.6-8.3-3.5-18.4-4.1-28.1-4.8-6.2-.3-12.5-.9-18.6-2.1-1.8-.4-3.5-1-5.2-1.7-4.9-1.8-9.5-3.5-14.8 5.6-4.3 7.4-.6 14 2.7 19.9 1.3 2.1 2.4 4.4 3.2 6.7 1.2 4.7 1.9 9.4 2.1 14.2.1 5.1.8 10.1 2.1 15 4.5 16.1 15.4 25.8 31.1 28.2 3.7.4 7.4.5 11.1.3 10-.2 20.4-.4 24.1 8.1.2.4.4.7.8.9 5.7 10.8 10.9 21.9 16.2 33.3 4.8 10.4 9.8 20.9 15.2 31.2-5.8-4.5-12-7.9-20.2-8-6 0-12 .5-18 1.5-6.7-4.1-7.6-7.5-8.6-11.6-.6-3.1-1.7-6-3.3-8.7-6.9-11.5-22-15.4-33.1-14.3-17.2 1.9-27.9 9.6-41.1 20.4-2.5 1.8-5.2 3.4-8 4.7-6.3 3.2-13.5 6.8-15.5 14.5-3.6 13.8 13.8 20.5 27.9 25.9 4.2 1.4 8.2 3.2 12.2 5.3 5.5 3.4 17.8 10.9 30.2 10.9 7.9 0 15.9-3.1 22.1-12.4 2.2-3.5 4.1-7.1 5.7-10.9 3.3-7.2 6.7-14.5 13.5-19.2.2-.2.4-.4.6-.7 5.1-.8 10.3-1.2 15.4-1.3 9.5.1 15.9 5.5 23.3 11.6l1.4 1.2c.1 0 .2 0 .4.1 1.9 3.4 3.8 6.8 5.8 10.1-.1.7-.2 1.3-.3 2.1-2.7 15.9 1.8 28 14.1 38.1 7.5 6.2 14.3 5.5 20.3 5l3-.2c4.1 3.7 8.4 7 13 10-2.2 1.5-4.2 3.2-6.2 5-7.8 1.4-14.6 4.7-20.4 10-2.1 1.8-5.5 4-9.1 6.2l-3.8 2.5c-13.9-21.5-57.3-34-76-40.8 9.1 11.5 11 27.2 19.7 39.4 7.2 10.1 21.3 18.9 36.2 22.4-.3 2.3.2 4.3 1.5 6.2 6.1 9.5 17.9 9.6 28.3 9.6h4.1c0 .1.2.2.3.4 4.2 5.3 8.6 10.4 13.3 15.2-9.6-3.6-18.9-7-28-10.1l-.2-.6-.3-.6c-.2-.6-.6-.9-1.2-1.2-.5-.2-1.1-.2-1.6 0s-.9.5-1.3.7c-9.2-3.2-17.9-5.9-26.4-8.5h-.2c-11.7-3.6-22.5-6.7-33.3-9.5-17.7-6.6-33.1-23.1-45.5-40 14.9-42.8-59.7-61.8-79.2-83.1 12.4 12.2 18.2 26.3 25.7 41.6 11.2 22.8 25 31.1 49.6 42.2 10 13.7 21.8 27.2 35.4 36-27.8-6.8-56-11.3-84.6-13.6l-.1-.1c-11.2-4-20.6-10.6-28.3-19.7-4.8-16.4.5-31.7-4.6-46.5-6.8-20.1-34.5-37.6-47.2-54 17 33.9.6 71.1 45.1 97.8 6.6 9.5 15 16.9 25.2 22.2-16.9-.9-33.7-.6-50.5.8-2.3.1-4.5.4-6.8.6-12.3-3-24.1-7.4-35.3-13.4-36.4-18.5-62-19.3-96.6 1.9 26 9 50 21.6 79.1 21.3 20.1-.2 40.1-3.9 61.5-7 12.7-1 25.4-1.3 38.1-.9-7 3.6-13.5 7.9-19.4 13.1-7.8 6.2-15.8 12.4-24.8 15.1-17-3.3-31.5-9.2-49.1 1.9-12.1 7.6-16.3 20.7-26.9 30-6.9 6-16.1 8.5-22.2 13.6 16.5-1.8 32.3-12.2 48.6-16.2 14.8-3.6 36.4-7.1 50.6-25.9 9.7-2.9 18-9.3 26-15.7 9.8-7.9 19.3-15.3 30.6-15.6l4.8.3c.6.1 1.2 0 1.8.2h.3c33 2.6 65.4 8.1 97.4 16.6l.4.1c.1.1.2.1.3.1h.4c3.8 1 7.6 2.1 11.5 3.1-19.4-.2-38.4 2.8-56.8 8.9-14.2-1.6-30.6-1-43.1 3.8-10.3 3.9-18.1 13.7-28.5 17.2-12.9 4.4-27.5 0-40.2-2.4 22.5 9.6 46.9 24.9 71.1 26.7 17.3 1.4 28.9-10.9 37.9-25.1-.2 12.3 5.5 23.8 11.3 33.6 1.3 2.3 2.7 4.5 4.1 6.7l5.4 8.6c-5.4-4.1-11.2-7.7-17.4-10.6-2.8-1.2-5.7-2.1-8.6-2.7-1.2-.2-1.9.3-2.3 1.4-.9 3.1-1.5 6.2-1.8 9.3-6.8-5.6-14.4-9.9-22.7-12.8-1.6-.5-2.4.1-2.6 1.8-1 11.5-1.9 23.3 0 34.9 1.7 10.2 5.4 19.6 11.1 28.3-11.1-.3-21.5 2.2-31.2 7.6-1 .6-1.3 1.4-.9 2.5 6.2 15 16.3 26.7 30.2 34.9-15.7 5.7-28.9 17.3-39 27.2-.5.5-.7 1-.6 1.7.1.7.4 1.2 1 1.5 13.9 8.7 29 13.6 45.3 14.7 1.3 0 2.5.1 3.8.1 3.5 0 6.9-.3 10.3-.8-14 15.9-20.2 34.5-18.6 55.7.1.7.4 1.2.9 1.6.3.2.7.3 1.1.3.2 0 .4 0 .7-.1 5.3-1.6 10.8-2.5 16.4-2.8 2.4-.2 4.9-.5 7.3-.8-6.8 9-9.8 20.5-12.3 30-.9 2.4-.7 4.7.6 7 1.1 1.5 2.6 2.1 4.4 2.1 2-.1 3.9-.6 5.7-1.4 3.2-1 6.6-1.7 10-2.1 1.7-.2 3.4-.5 5.1-.8 4.9-1 9.5-2.6 14-4.7l-13.7 35.5c-.3.7-.3 1.5 0 2.2-6.4 9.5-12.9 18.9-19.5 28.6-2.3 3-4 6.3-5.2 9.9-.7 2.8-.9 5.7-.7 8.5.6 7 2 13.8 4.4 20.4-17.9.8-36.3 1.8-53.9 7.2-6.7 2.1-13.1 4.7-19.4 7.3-7 3.1-14.2 5.7-21.5 7.9-9.4 2.3-18.9 4-28.6 4.9-5.8.7-11.6 1.4-17.3 2.4-40.2 7-72 29.3-84.9 59.6-.7 1.7-.2 3 1.5 3.7.4.1.7.2 1.1.2 1.3 0 2.1-.6 2.6-1.7 12.2-28.5 42.3-49.5 80.8-56.1 5.6-1 11.3-1.7 17-2.4 9.9-1 19.7-2.7 29.4-5.1 7.5-2.3 14.9-5 22.1-8.1 6.2-2.5 12.5-5.2 18.9-7.1 17.4-5.3 36.1-6.2 54.1-7.1 0 .3.2.6.3.9 1.3 3.7 2.6 7.4 4 11.1-5.1 13.3-10.9 29.7-15.2 42.8-1.4 3.5-2 7.1-1.7 10.9.9 4.2 2.7 8 5.5 11.2 5.6 7.6 11.3 15.4 18.6 21.7 4.8 3.9 9.8 7.5 15.1 10.7l4.5 2.9c7.7 5 15.1 10.6 22.2 16.6 3.5 3 6.9 6.1 10.3 9.2 4.4 4.1 9 8.3 13.8 12.2 4.8 3.9 9.6 7.5 14.4 10.9 7.6 5.3 14.9 11.2 21.7 17.5 11 10.2 16.7 22.8 17 37.8 0 .2.2.4.2.6.1.2-.4.6-.4 1 .4 15.9.5 34.1-1.8 47.7-.7 4.4-1.7 8.7-2.7 13.1-1.2 5.3-2.5 10.8-3.3 16.4-1 8.1-1.4 16.3-1.3 24.5v5.8c-1.2 60.3-16.5 120.1-31.3 177.9-6.2 24.4-12.7 49.6-18 74.6-.4 1.8.3 2.9 2.1 3.4h.6c1.5 0 2.4-.7 2.7-2.1 5.3-24.9 11.7-50 18-74.3 14.9-58 30.3-118.1 31.5-179.2v-5.8c-.1-8 .4-15.9 1.3-23.8.7-5.3 2.1-10.7 3.2-15.9 1-4.5 2.1-8.9 2.8-13.4 2.4-14.1 2.2-32.6 1.8-48.8 0-.3-.1-.5-.2-.8 0-.3.3-.5.3-.8-.3-16.6-6.5-30.6-18.7-41.9-7-6.5-14.5-12.4-22.3-17.9-4.7-3.5-9.6-7-14.1-10.8-4.5-3.7-9.2-8-13.6-12-3.5-3.2-6.9-6.2-10.4-9.3-7.2-6.2-14.8-11.9-22.7-17.1l-4.4-2.9c-5.1-3-9.9-6.4-14.5-10.2-1.3-1.1-2.5-2.4-3.8-3.6v-.1l-.5-1.2c-2-4.1-3.3-8.4-4-13-.8-7.6 1.7-15.2 4.3-23.2 1.9-5.3 3.3-10.7 4.3-16.2.6 1 1.1 1.9 1.7 2.9 2.5 3.9 4.6 8 6.3 12.2.5 1.2.8 2.5 1.2 3.8.7 2.4 1.6 4.8 2.6 7.1 1.5 3.5 3.7 6.5 6.4 9.2.6.6 1.3.9 2.1.8.8 0 1.5-.2 2.1-.8 1.4-1.3 1.4-2.7 0-4-2.3-2.2-4-4.8-5.3-7.7-.9-2-1.7-4.1-2.3-6.2-.4-1.3-.8-2.7-1.3-4-1.8-4.6-4.1-9-6.8-13.2-.9-1.6-1.9-3.2-2.8-4.8-5.6-10.7-10.2-21.8-13.8-33.3-2.8-8.3-5.7-16.7-6.2-25.2-.2-2.3 0-4.5.5-6.8 1.1-3.1 2.6-5.9 4.5-8.4l21-31c2.6-3.8 5.2-7.5 7.9-11.2 6.2-8.2 12.8-16 20-23.4.3.7.8 1.2 1.5 1.5.5.3 1.1.5 1.7.5 1-.1 1.9-.3 2.7-.8 4.6-2.6 8.9-5.5 13-8.7 5.7-4.6 10.4-10.1 14.1-16.5 1.5 2 2.4 4.3 2.5 6.8 3 17.8-7.6 37.5-24.5 44.9-2.5.8-4.5 2.3-5.8 4.6-.8 1.8-1.1 3.7-.9 5.6v.7c.2 10.6-8.8 19.4-17.3 26.8-.6.5-.9 1.2-1 2-.1.8.2 1.5.7 2.1 1.7 1.9 2.5 4.1 2.6 6.5.1.5.3.9.6 1.3-2.3 8-.1 16.6 2.4 24.9l16.5 54.7c.5 1.8 1.7 2.5 3.5 1.9 1.8-.5 2.4-1.7 1.9-3.6L324.3 701c-2.6-8.7-4.8-17.1-1.5-24.1 1.1-2.1 2.4-4.1 3.9-6 1.1-1.5 2.2-3 3.2-4.6 1.6-2.7 2.9-5.6 4-8.5 2.2-8.4 7.4-14.1 15.5-17.2l6-3.2c.2.2.2.4.5.5 2.9 1.4 6 2.1 9.2 2.1 5.2 0 9.9-1.6 14.1-4.9v.1c-.4 5.1-2 9.8-4.7 14.1-1.6 2.8-3.5 5.4-5.3 8-4.1 5.3-7.3 11.1-9.7 17.3-2.9 9-2.3 19.8 1.9 31.9 3.4 10.2 8.6 19.3 15.5 27.4 7.5 8.6 16.9 15.2 26 21.5l5.4 3.8c26.7 19 50.7 42.1 74.1 64.4 9.8 9.4 21 20.1 25 33.9 2.2 7.7 2.1 16 1.9 24l-.2 10.8c-.7 38.3-1.4 77.9 3.9 116.5l1.1 7.8c3.1 22.5 6.4 45.7 5.5 68.6 0 .8.3 1.5.9 2.1-10.7 100-21.4 203-24.8 304.9-.1 1.9.8 2.9 2.7 2.9h.1c1.8 0 2.8-.9 2.8-2.8 3.6-107.8 15.3-216.7 26.6-322.1l8.7-79.9c1.1-10.2 2.2-21.1 3.3-32.1 3.8-38.1 7.7-77.5 13.7-104.3v-.1c4.2-.9 8.3-2.2 12.2-4.1 7.6-4.1 14.3-9.4 20-15.9 6.8-7.3 13.1-15.3 19.2-22.9 8.8-11.2 18-22.8 28.8-32.1 2.9-2.5 5.8-4.8 8.7-7.1 4.1-3.3 8.6-6.7 12.5-10.5 14.7-14.1 23.1-31.7 28.7-50.1.6-.4 1-.9 1.2-1.6 2.4-8.4 7.6-14.5 15.4-18.2.3-.1.4-.5.6-.7.4 1 .6 2.1.7 3.2 0 3.5-.7 6.9-2.1 10.1-.6 1.7-1.2 3.5-1.6 5.2-.6 2.6-1 5.2-1 7.9-5.1 2.9-8.9 8.5-11 16.9-2.4 9.3-2.9 18.7-1.5 28.1.2 1.6 1.2 2.4 2.8 2.4h.4c1.9-.3 2.6-1.4 2.4-3.2-1.3-8.7-.8-17.3 1.4-25.9.9-4.5 2.9-8.5 6.1-11.9.9 5.4 2.9 10.3 6 14.8 1.1 1.8 2.4 2.1 4.1.8 1.7-1.2 1.8-2.6.5-4.2-5.3-7.4-6.8-15.6-4.6-24.4.4-1.6 1-3.2 1.5-4.8 1.6-3.9 2.4-8.1 2.4-12.3-.4-5.6-3.4-10.4-6.1-14.5l-.7-1.1c-2.7-4.3-5.1-8.8-7.3-13.4-.1-.5-.3-1-.7-1.4-7.1-15.3-11.3-31.3-12.6-48.1-.6-4.3-.1-8.5 1.4-12.6l.3.4 1.7 2.3c.5 3.9 1.9 7.4 4.3 10.6 3.5 4.5 8.1 7.1 13.7 7.7 3.1 5.6 6.2 11 9.4 16.4 3.5 6 7 12 10.3 18.1 9.5 17.4 20.4 40.4 20.4 65 0 3.5-.2 7.1-.4 10.7-.8 7.7-.6 15.4.7 23 .3 1.3.6 2.7 1 4 .7 2.4 1.2 4.9 1.4 7.4.4 6.3-2.9 13.3-8.9 19.3-4.1 3.9-8.6 7.3-13.3 10.4-1.9 1.3-3.8 2.6-5.7 4-28.1 20.5-46.6 51.8-62.9 79.5-2.8 4.3-4.9 9-6.2 14-1.4 6.9 0 13.7 1.5 20.2.5 2.1 1 4.2 1.3 6.4 2.7 15.7-.3 30.3-8.7 43.8-4.8 7.6-5.8 21-6.3 28.2-.7 12.1-.6 24.2.2 36.3 4.5 86.1 13 173 25.3 258.2l1.6 10.8c6.5 44.4 13.2 90.3 7.2 134.9-.3 1.9.6 2.9 2.4 3.2h.4c1.7 0 2.6-.8 2.8-2.5 6.1-45.5-.7-91.7-7.3-136.5l-1.6-10.8c-12.3-85.1-20.8-171.8-25.2-257.7-.9-11.8-.9-23.7-.3-35.6.5-6.2 1.4-19.2 5.5-25.6 9.3-14.7 12.4-30.7 9.5-47.9-.4-2.2-.9-4.4-1.4-6.6-1.4-6.2-2.7-12.1-1.5-17.8 1.2-4.4 3.1-8.5 5.6-12.3 12.8-21.7 27-45.6 46-64.5 25 0 38.7 7.9 51.5 16.8 10.7 7.5 22.9 16 29.5 28.1 5.4 9.8 7.4 22.5 6.2 38.8-.4 5.6-1.1 11.1-1.9 16.7-1.2 8.2-2 16.5-2.3 24.7 0 3.4 0 6.7.1 10.1.1 4.3.2 8.7 0 13.1-.8 9.7-2.5 19.2-5 28.6l-34.5 146c-.4 1.8.3 3 2.1 3.4h.7c1.5 0 2.4-.7 2.7-2.2l34.5-146c2.6-9.7 4.3-19.6 5.1-29.6.2-4.5.1-9.1 0-13.5-.1-3.3-.2-6.5-.1-9.8.3-8.1 1-16.1 2.2-24.1.7-5.7 1.5-11.3 1.9-17 1.3-17.4-.9-31.1-6.9-42-7.3-13.3-20-22.2-31.3-30-12.1-8.4-26-16.5-49.1-17.6 3.1-2.8 6.3-5.4 9.7-7.8 1.8-1.3 3.7-2.6 5.6-3.9 5-3.2 9.7-6.9 14.1-11 2.7-2.6 4.9-5.6 6.8-8.8.2-.1.5 0 .7-.2 9.2-7.5 14.1-18.2 15-32.7.3-5.1.2-10.4 0-15.3-.3-7.1-.1-14.1.7-21.1.9-5.7 2.2-11.2 3.8-16.7 2.6-9.8 5.4-19.9 4.1-30.4-1.1-9.6-5.6-18.5-9.1-25.7-16.7-33.7-34.9-67.3-54.3-100.1-.5-.9-1.1-1.8-1.8-2.7 5.9 2.8 10.9 6.8 15 11.9 1 2.3 1.7 4.7 2.1 7.1.4 2.8.4 5.6 1 8.3.4 2.9 1.7 5.3 3.8 7.3 1.3 1.1 2.8 1.5 4.5 1.1s2.9-1.3 3.7-2.8c1.2-2.1 1.4-4.2.4-6.4 3.3 1.4 8.4 1.9 11.1-.5 1.2-1.1 1.7-2.5 1.7-4.1.2-6.2-7.6-8.8-12.4-9.8-4.3-.9-8.7-1.5-13.1-1.9-6.9-9-17.7-15.2-32.7-18.7-1.9-2.5-3.8-5-5.9-7.4-1.5-2.2-3.6-3.6-6.2-4.1-4.1-.5-7.9 2.6-9.9 8.4-2.3-.2-4.5-.4-6.8-.5-14.4-.9-29.2-1.9-41.5-7.9-.6-1.5-1.1-2.9-1.7-4.4-3-8.3-5.5-17.3-7.8-26.1 5.9 3.5 13.6 4.7 21.1 5.4 5.8.6 12.7 1.4 18.2 4.4 1.6 1.3 2.7 2.8 3.5 4.7.8 2.3 1.6 4.6 2.7 6.8 1.1 2.4 3 3.8 5.6 4.3 6 .6 3.9-6.8 1.5-9.6 4.1.6 12.7-2.6 7.8-7.7-2.6-2.7-8.4-2.3-11.7-1.4-1.9.5-3.7 1.1-5.6 1.5-6.5-4.5-14.8-5.5-21.6-6.2-8.5-.8-17.2-2.1-22.6-6.8-2.5-9.4-5.2-19-8.5-28 .2-.5.5-1 .7-1.5.5-1.2 1-2.5 1.5-3.7l12.2-3.9c5.3 3.6 10.5 7.2 15.8 10.9 12.5 8.7 25.5 17.7 38.6 26 47.5 30.2 87.3 44.6 125.3 45.1h.8c1.8 1 3.5 2.1 5.1 3.3 1.7 1.5 3.2 3.2 4.5 5.1 3.9 4.6 8.7 8.1 14.2 10.5 4.3 1.6 9.7 1.4 12.9-1.7 3.2-3.6 3.5-7.4.9-11.4-2.5-3.8-6-6.1-10.5-6.8 3.8 1.2 7.3.5 10.3-2.1 2.9-2.6 3.9-5.8 3-9.6-1.4-5.3-7.4-8.9-13.1-9-6.4 0-10.8 3.1-14.7 7-3.9 4-7 8.2-11.2 11.4h-2.2c-37.4-.5-76.7-14.7-123.6-44.6-5.4-3.5-10.9-7.1-16.2-10.7 9.2 2.6 18.6 3.8 28.2 3.8 5.2 0 10.3-.4 15.5-1.2 0 .3 0 .6.2.9 3.7 5.6 10.4 9.2 20.1 10.8 2.2.4 4.4.6 6.7.9 3.6.4 7.1 1 10.5 1.8 1 .7 1.8 1.5 2.6 2.4 1.6 1.9 3.3 3.8 5.2 5.4 2 1.8 4.3 2.5 7 2.1 3.6-.8 5.5-5.8 2.6-8.3-1-.8-2.2-1.5-3.4-1.9 1.8-.1 3.2-1 3.9-2.7.6-1 .8-2.1.4-3.3-.4-1.1-1.2-1.9-2.3-2.3-.9-.2-1.7-.2-2.6 0-4.4.8-8 4.1-12.2 5.8-3.8-.9-7.5-1.6-11.4-2.1-2.2-.3-4.4-.5-6.5-.9-8.5-1.4-14.3-4.4-17.6-9 22-3.6 41.4-12.7 58.3-27.3 3 3.3 14.1 4.4 17.8 4.4 2.1 0 4-.5 5.8-1.5 8.7 4.3 17.9 6.9 27.6 7.9h.2c.7 0 1.3-.3 1.7-.9.4-.7.4-1.4 0-2.1-14.4-26.1-31.3-50.4-50.7-73-4.6-5.3-19-19-31.7-31.1-6.3-6-13.2-12.4-17-16.2 23.6 2.1 47.1 5.2 70.3 9.5.2.1.3.2.5.3 10.1 21.8 20.7 44.2 36.5 62.9 18.2 21.5 41.7 34.5 64.4 35.9h1c4.2 0 6-1.8 6.7-3.3 1.4-3.1-.8-6.2-1.8-7.5-21.4-29.4-49.7-64.1-85.8-83.7 23.4 5.2 46.6 11.5 69.4 19.1.2 4.8 6.9 9.7 14.5 14.7 1.4 1 2.6 1.8 3.3 2.3l2.1 1.7c12.7 10.2 27 21.8 42.5 26 10.1 2.7 20.3 4.5 30.6 5.4 4.9.4 10 .7 14.9.7h.4c2.4 0 10.1-.1 13.5-.4.8-.1 1.4-.5 1.7-1.3-.5-.1-.6-.8-1-1.4z"/><path d="M564.4 774c-12.1 5.9-27.3 6.6-42.7 1.7-10.8-3.4-22.4-10.8-33.7-19.1h1.4c4.9-.1 9.8-.5 14.7-1.2 5.8-1 11.6-1.3 17.5-1.1 1.9.1 3.9.4 5.8.7 1.9.3 4.3.6 6.4.7 5.6.2 11.2-.2 16.7-1 4.1-.6 8.1-.9 12.2-1.1 2.7 0 5.3.1 8 .4 5.8.7 11.6.7 17.4-.1-6.8 7.8-14.7 15.8-23.7 20.1zm-61.9-36.3c6.1-2.7 15.1-6 23.9-4.7 1.2.2 2.5.5 3.7.8 3 .9 6.1 1.2 9.3 1.1 2.3-.3 4.5-.7 6.7-1.3 1.3-.3 2.5-.6 3.8-.8 3.1-.5 6.1-.3 9.1.6 11.8 3.1 23 7.5 33.7 13.4h-.9c-5.3 2.7-13.4 2.1-20.4 1.6-3-.2-6-.4-8.5-.4-4.3.1-8.6.5-12.8 1.1-5.2.8-10.4 1.1-15.7 1-2.1-.1-4-.4-6-.7-2-.3-4.1-.6-6.2-.7-6.2-.2-12.4.1-18.6 1.1-7.6 1-14.9 1.8-21.9.4 6.3-5 13.4-9.1 20.8-12.5zm57.9-9.8c-3.8-1.1-7.7-1.4-11.6-.7-1.3.2-2.7.6-4.1.9a56 56 0 0 1-5.9 1.2c-2.5.1-5-.2-7.5-1-1.3-.3-2.7-.6-4.1-.9-10.2-1.6-20.3 2.1-27 5.1-9.2 4.1-17.7 9.3-25.5 15.6-.9.6-1.2 1.5-1.1 2.6.1 1.1.7 1.8 1.7 2.2 0 .9.4 1.5 1 2.1 14.3 11 29.4 21.7 43.7 26.2 7.1 2.3 14.4 3.4 21.9 3.5 8.8.1 17.1-1.7 25-5.5 12.8-6.2 23.2-18.7 31.5-28.7.5-.6.7-1.3.6-2.1.3-.2.7-.3.9-.7.9-1.6.6-2.9-1-3.9-12.1-7.1-24.9-12.4-38.5-15.9zM509.1 699.4h.4c1.8 0 2.8-.8 2.9-2.6.1-1.8-.7-2.8-2.5-3-3.1-.6-5.7-2.1-7.7-4.5s-3.1-5.2-3.1-8.4c.4-4.1 1.6-7.9 3.7-11.4 1.8-3.5 3.2-7.1 4-10.9.3-1.9-.4-3-2.3-3.3-1.8-.3-2.9.5-3.3 2.3-.7 3.3-1.9 6.5-3.5 9.5-2.4 4.3-3.8 8.9-4.1 13.8 0 4.6 1.5 8.6 4.5 12.1 2.8 3.5 6.5 5.6 11 6.4zM569.3 660.2c2.7 4.3 4.8 8.9 6.5 13.7 1.2 2.6 1.9 5.4 2.1 8.3-.3 3.1-1.5 5.7-3.6 8-2.4 2.5-4.9 4.7-7.8 6.6-1.5 1.1-1.7 2.4-.6 4 .6.8 1.3 1.2 2.3 1.2.6 0 1.2-.2 1.7-.5 3.2-2.1 6.1-4.6 8.7-7.4 3-3.3 4.6-7.1 5-11.5-.1-3.7-.9-7.3-2.5-10.7-1.8-5.2-4.2-10.1-7.1-14.8-.6-.8-1.2-1.7-1.8-2.5-1.8-2.1-3.1-4.5-4-7.2-.4-1.8-1.6-2.5-3.4-2.1-1.8.4-2.5 1.6-2.1 3.4 1 3.4 2.7 6.4 4.9 9.2.6.7 1.2 1.5 1.7 2.3z"/><path d="m511.3 689.6.3-.9.4-1.8zM525.3 699.3c3.7 4.3 8.3 6.5 14 6.5h1c5.5.2 10-1.8 13.5-6.2 4.2-4.5 7.8-6.4 12.2-6.6 1.9-.1 2.8-1 2.7-2.9-.1-1.9-1.1-2.8-2.9-2.8-7.5.3-12.4 4.4-16.1 8.3-2.9 3.2-4.8 4.6-10.1 4.3-5.3-.3-7.4-2.1-10.2-4.8-.6-.6-1.2-1.1-1.8-1.7-4.4-4-10.2-5.4-15.3-6.6l-.5 1.8-.8 3.7c4.7 1.1 9.5 2.3 12.8 5.3.4.6 1 1.2 1.5 1.7z"/></g></svg>