<svg xmlns="http://www.w3.org/2000/svg" viewBox="0 0 1024 1024"><path fill="#ffeee2" d="M0 0h1024v1024H0Z"/><path fill="#b27a61" d="M93.087 573.684c-2.258-.27-4.246-.542-5.962-.632l-5.33-.452-4.878-.27a42.275 42.275 0 0 0-5.78.36c-1.988.181-4.427.543-7.137.994l.723-5.149q5.239-1.084 7.046-2.98c1.174-1.356 1.716-3.524 1.716-6.685v-47.424q0-3.704-.813-4.878c-.542-.813-1.626-1.265-3.342-1.265l-3.794.18-.271-.45.813-4.97 4.336.182h12.375l5.69-.181 6.685-.18a42.727 42.727 0 0 1 19.422 4.245 31.164 31.164 0 0 1 13.008 11.833 32.61 32.61 0 0 1 4.697 17.705 41.282 41.282 0 0 1-2.981 15.718 40.378 40.378 0 0 1-8.31 12.737 38.752 38.752 0 0 1-12.376 8.491 42.817 42.817 0 0 1-15.537 2.98zm-5.872-68.2a7.678 7.678 0 0 0-3.161.451c-.542.271-.813.994-.904 1.988-.542 13.008-.903 23.938-1.264 32.61-.362 8.671-.452 14.362-.452 16.892a13.64 13.64 0 0 0 1.174 6.323 6.775 6.775 0 0 0 4.246 3.161 31.616 31.616 0 0 0 8.762.904c8.13 0 14.543-2.8 19.15-8.401 4.607-5.6 6.956-13.279 6.956-23.125 0-6.594-1.355-12.195-3.975-16.802a25.564 25.564 0 0 0-11.743-10.478c-5.058-2.349-11.382-3.523-18.789-3.523zm72.898 67.93.723-5.15c3.342-.451 5.69-1.355 6.955-2.62 1.265-1.264 1.897-3.613 1.897-6.865v-47.424q0-3.703-.813-4.878c-.542-.813-1.626-1.264-3.342-1.264h-1.807l-2.077.18-.271-.451.813-4.968h4.606l5.601.18h20.596c4.065-.09 7.588-.18 10.568-.451 2.981-.271 5.601-.452 8.13-.813l.362.722a157.805 157.805 0 0 0-1.084 6.052c-.362 2.259-.723 4.427-.904 6.595-.18 2.168-.451 4.245-.542 6.142l-5.42.452c.09-.723.09-1.536.181-2.53.09-.993.09-1.806.09-2.348a14.092 14.092 0 0 0-.542-4.336 4.155 4.155 0 0 0-2.168-2.439 13.188 13.188 0 0 0-5.148-.994c-2.35-.18-5.51-.18-9.485-.18l-5.33.18c-1.174.181-1.806.542-2.077 1.175a9.846 9.846 0 0 0-.542 3.071l-1.175 26.287-.451 23.666a12.827 12.827 0 0 0 .542 4.427 3.433 3.433 0 0 0 2.439 1.897 30.442 30.442 0 0 0 5.961.451c4.427 0 8.04-.18 10.75-.451a14.634 14.634 0 0 0 6.233-1.807 7.498 7.498 0 0 0 3.161-4.155 34.687 34.687 0 0 0 1.717-7.407l4.968-.542.361.542q-.813 3.523-1.626 8.942c-.542 3.614-.993 6.956-1.445 10.027l-.542.723-13.46-.361-12.104-.271h-8.581l-7.95.27a47.605 47.605 0 0 0-7.768.723zm16.35-34.327.994-6.775h12.465c1.265 0 3.252-.09 5.962-.361l7.86-.813.45.542-1.625 6.685-7.859-.181h-7.95l-5.058.27a31.074 31.074 0 0 0-5.239.543zm85.454 34.597a40.198 40.198 0 0 1-9.304-.993 48.87 48.87 0 0 1-8.401-2.891l-.542-1.084c.27-2.078.542-3.975.722-5.69.181-1.717.271-3.885.452-6.234.18-2.348.18-4.968.18-7.678l5.06-.542c0 5.42.36 9.575 1.174 12.375a8.491 8.491 0 0 0 4.245 5.782c2.078.993 5.15 1.535 9.214 1.535 4.065 0 8.491-1.084 11.382-3.342a10.93 10.93 0 0 0 4.336-9.123 9.033 9.033 0 0 0-2.53-6.414 26.738 26.738 0 0 0-6.413-4.968c-2.62-1.536-5.33-2.981-8.31-4.517a105.046 105.046 0 0 1-8.763-5.058 27.46 27.46 0 0 1-6.955-6.233 13.37 13.37 0 0 1-2.71-8.401 18.157 18.157 0 0 1 3.432-10.75 23.306 23.306 0 0 1 9.304-7.497 31.074 31.074 0 0 1 13.189-2.8 51.94 51.94 0 0 1 8.943.722 56.728 56.728 0 0 1 8.31 2.168l.362.723c-.633 3.432-1.175 6.684-1.536 9.575-.361 2.89-.723 6.052-.903 9.575l-4.427.452-.632-.542c.18-2.168.361-4.155.361-5.872 0-3.974-.993-6.775-2.89-8.22-1.897-1.445-5.42-2.258-10.569-2.258-5.149 0-7.588.993-10.208 3.071a9.304 9.304 0 0 0-3.974 7.769 9.394 9.394 0 0 0 2.168 6.052 22.673 22.673 0 0 0 5.6 4.787 98.713 98.713 0 0 0 7.588 4.246c2.71 1.355 6.594 3.433 9.756 5.33a33.784 33.784 0 0 1 7.95 6.413 13.008 13.008 0 0 1 3.16 8.762 19.15 19.15 0 0 1-3.522 11.382 23.125 23.125 0 0 1-9.846 7.769 38.933 38.933 0 0 1-14.453 2.62zm60.07-25.112-.813-.903.633-5.872 19.602-2.258 7.316-.994.813.994-.542 6.052zm88.977 24.028.452-4.426a51.58 51.58 0 0 0 6.142-.813 6.504 6.504 0 0 0 3.072-1.265 2.71 2.71 0 0 0 .903-2.168 13.46 13.46 0 0 0-.271-2.529 20.144 20.144 0 0 0-.813-2.89l-3.704-12.286h-11.743a61.426 61.426 0 0 0-6.865.362l-5.51.542-4.156 11.743a18.247 18.247 0 0 0-.993 4.426 3.884 3.884 0 0 0 1.626 3.523q1.626 1.084 5.149 1.084h6.413l.18.452-.722 4.878-8.31-.633-7.317-.18h-5.6l-6.866.27.903-5.329a7.859 7.859 0 0 0 5.059-2.168c1.265-1.174 2.53-3.342 3.704-6.504l22.04-57.722 7.137-1.897h.903l2.8 10.027 3.072 10.75c1.174 4.064 2.439 8.31 3.703 12.827 1.265 4.516 2.71 9.123 4.155 13.73l4.246 13.279a11.562 11.562 0 0 0 3.704 5.871c1.535 1.175 3.974 1.807 7.136 2.168l.18.452-.813 4.607-7.226-.271h-4.697c-2.89 0-5.6.09-8.22.27l-8.672.814-.181-.903zm-16.26-31.164h9.937l5.42-.18 5.058-.362-8.943-29.539h-.813zm69.104 31.797.813-5.15c3.342-.632 5.51-1.445 6.594-2.619 1.084-1.174 1.536-3.342 1.536-6.594v-47.424q0-3.704-.813-4.878c-.542-.813-1.716-1.265-3.342-1.265l-3.794.18-.271-.45.813-4.97 7.497.272h8.491l4.788-.18 5.962-.181a39.204 39.204 0 0 1 10.298 1.264 21.499 21.499 0 0 1 7.588 3.884 16.35 16.35 0 0 1 4.697 6.324 21.409 21.409 0 0 1 1.626 8.581 20.325 20.325 0 0 1-2.168 9.214 27.19 27.19 0 0 1-5.781 7.859 27.912 27.912 0 0 1-8.22 5.51 23.848 23.848 0 0 1-9.666 2.078h-9.395l-.18 11.02a53.928 53.928 0 0 0 .361 7.588 4.607 4.607 0 0 0 1.445 3.252 6.233 6.233 0 0 0 3.252.723c1.084 0 3.162-.09 6.053-.362l.18.452-.993 5.149-3.794-.18h-11.743l-5.51.27-4.337.271-1.987.452zm29.358-33.423c9.123-1.536 13.64-7.407 13.64-17.615 0-5.781-1.716-10.027-5.059-12.737-3.342-2.71-8.762-3.974-16.169-3.974a12.195 12.195 0 0 0-2.53.18c-.27.09-.45.542-.541 1.446a5800.76 5800.76 0 0 0-.813 15.627 474.22 474.22 0 0 0-.542 15.447zm100.539 34.326c-1.897 0-3.884-.994-6.052-2.89a30.351 30.351 0 0 1-5.962-7.77l-12.105-21.86h-9.394l-.361 16.802a25.022 25.022 0 0 0 .542 6.052 3.523 3.523 0 0 0 2.258 2.62 16.079 16.079 0 0 0 5.33.632l.27.452-.993 4.697-3.975-.18h-8.04a61.714 61.714 0 0 0-5.78 0l-7.137.36.994-5.058c3.523-.361 5.872-1.174 6.955-2.348 1.084-1.175 1.626-3.343 1.626-6.595v-47.604q0-3.704-.813-4.878c-.542-.813-1.716-1.265-3.342-1.265l-3.884.18-.18-.45.812-4.97 4.607.182h11.653l4.607-.181 5.51-.18c6.956 0 12.556 1.535 16.621 4.696 4.065 3.162 6.052 7.498 6.052 13.008a19.692 19.692 0 0 1-4.336 12.376 30.442 30.442 0 0 1-12.285 9.214l12.376 19.602c2.168 3.522 4.336 6.052 6.413 7.407a12.917 12.917 0 0 0 7.588 2.168l.452.451-.723 3.794-9.394 1.446zm-21.59-37.85a24.932 24.932 0 0 0 6.053-3.251 17.253 17.253 0 0 0 4.246-5.059 16.26 16.26 0 0 0 1.897-8.22c0-4.968-1.717-8.672-5.15-11.2-3.432-2.53-8.58-3.705-15.536-3.705a1.897 1.897 0 0 0-1.536.542 4.155 4.155 0 0 0-.542 2.078c-.271 5.962-.542 11.02-.723 15.356-.18 4.336-.361 8.401-.361 12.376zm56.187 37.127.632-5.149c3.343-.451 5.691-1.355 6.956-2.62 1.265-1.264 1.897-3.613 1.897-6.865v-47.424q0-3.703-.813-4.878c-.542-.813-1.626-1.264-3.342-1.264h-1.807l-2.078.18-.18-.451.813-4.968h4.607l5.6.18h20.596c4.065-.09 7.588-.18 10.569-.451 2.98-.271 5.69-.452 8.13-.813l.36.722a157.805 157.805 0 0 0-1.083 6.052c-.362 2.259-.723 4.427-.904 6.595-.18 2.168-.451 4.245-.541 6.142l-5.42.452c.09-.723.09-1.536.18-2.53.09-.993.09-1.806.09-2.348a14.092 14.092 0 0 0-.541-4.336 4.155 4.155 0 0 0-2.168-2.439 13.188 13.188 0 0 0-5.15-.994c-2.348-.18-5.51-.18-9.484-.18l-5.33.18c-1.084.181-1.806.542-2.077 1.175a9.846 9.846 0 0 0-.542 3.071l-1.084 26.287-.452 23.666a12.827 12.827 0 0 0 .542 4.427 3.433 3.433 0 0 0 2.439 1.897 30.442 30.442 0 0 0 5.962.451c4.426 0 8.04-.18 10.75-.451a14.634 14.634 0 0 0 6.232-1.807 7.498 7.498 0 0 0 3.162-4.155 34.687 34.687 0 0 0 1.716-7.407l4.968-.542.362.542q-.813 3.523-1.626 8.942c-.542 3.614-.994 6.956-1.446 10.027l-.542.723-13.459-.361-12.104-.271h-8.582l-7.95.27a47.966 47.966 0 0 0-7.948.633zm16.35-34.326.994-6.775h12.466c1.264 0 3.251-.09 5.961-.361l7.86-.813.45.542-1.625 6.685-7.859-.181h-7.95l-5.058.27a31.074 31.074 0 0 0-5.239.543zm125.11 37.759c-5.51-8.582-10.75-16.621-15.809-24.119-5.058-7.497-9.484-14.091-13.459-19.782-3.975-5.691-8.13-11.743-12.737-18.247h-.542l-.542 48.237a5.962 5.962 0 0 0 .813 3.523 3.162 3.162 0 0 0 2.71.993h5.781l.271.452-.993 5.059-4.155-.181-3.885-.18h-3.884l-4.697.27-5.781.633.542-5.15a8.491 8.491 0 0 0 5.148-2.077c1.084-1.084 1.717-2.71 1.807-5.059l1.445-49.32c0-2.35-.722-3.975-2.077-4.969-1.355-.994-3.975-1.626-7.769-2.078l-.361-.542.903-4.155 5.781.362 3.885.18h3.613l3.975-.361 11.11 16.892c3.614 5.51 7.137 10.569 10.298 15.356 3.162 4.788 6.052 8.853 8.582 12.376 2.529 3.523 5.149 7.317 7.859 11.291h.542v-46.069a6.052 6.052 0 0 0-.904-3.704 3.252 3.252 0 0 0-2.8-1.174h-4.246l-.27-.452.993-5.058 3.975.18 3.523.181h3.251l4.969-.27 6.233-.633-.542 5.149a9.665 9.665 0 0 0-5.691 2.168 6.594 6.594 0 0 0-1.988 4.968l-1.626 63.413-3.252 1.716zm69.555-3.162c-2.258-.27-4.246-.542-5.962-.632l-5.33-.452-4.877-.27a42.275 42.275 0 0 0-5.782.36c-1.987.181-4.426.543-7.136.994l.632-5.149q5.24-1.084 7.046-2.98c1.175-1.356 1.717-3.524 1.717-6.685v-47.424q0-3.704-.813-4.878c-.542-.813-1.626-1.265-3.343-1.265l-3.884.18-.18-.45.812-4.97 4.336.182h12.376l5.69-.181 6.685-.18a42.727 42.727 0 0 1 19.421 4.245 31.164 31.164 0 0 1 13.008 11.833 32.61 32.61 0 0 1 4.698 17.705 41.282 41.282 0 0 1-2.981 15.718 40.107 40.107 0 0 1-8.401 12.737 38.21 38.21 0 0 1-12.466 8.491 40.288 40.288 0 0 1-15.266 2.98zm-5.872-68.2a7.678 7.678 0 0 0-3.161.451c-.542.271-.813.994-.904 1.988-.542 13.008-.903 23.938-1.264 32.61-.362 8.671-.452 14.362-.452 16.892a13.64 13.64 0 0 0 1.174 6.323 6.775 6.775 0 0 0 4.246 3.161 31.616 31.616 0 0 0 8.762.904c8.13 0 14.544-2.8 19.15-8.401 4.607-5.6 6.956-13.279 6.956-23.125 0-6.594-1.355-12.195-3.975-16.802a25.564 25.564 0 0 0-11.743-10.478c-5.058-2.349-11.291-3.523-18.789-3.523zm72.988 67.93.633-5.15c3.342-.451 5.69-1.355 6.955-2.62 1.265-1.264 1.897-3.613 1.897-6.865v-47.424q0-3.703-.813-4.878c-.542-.813-1.626-1.264-3.342-1.264h-1.807l-2.077.18-.181-.451.813-4.968h4.607l5.6.18h20.596c4.065-.09 7.588-.18 10.569-.451 2.98-.271 5.69-.452 8.13-.813l.361.722a157.786 157.786 0 0 0-1.084 6.052c-.361 2.259-.723 4.427-.903 6.595-.18 2.168-.452 4.245-.542 6.142l-5.42.452c.09-.723.09-1.536.18-2.53.09-.993.09-1.806.09-2.348a14.092 14.092 0 0 0-.541-4.336 4.155 4.155 0 0 0-2.168-2.439 13.188 13.188 0 0 0-5.149-.994c-2.349-.18-5.51-.18-9.485-.18l-5.33.18c-1.083.181-1.806.542-2.077 1.175a9.846 9.846 0 0 0-.542 3.071l-1.084 26.287-.452 23.666a12.827 12.827 0 0 0 .542 4.427 3.433 3.433 0 0 0 2.44 1.897 30.442 30.442 0 0 0 5.961.451c4.426 0 8.04-.18 10.75-.451a14.634 14.634 0 0 0 6.233-1.807 7.498 7.498 0 0 0 3.161-4.155 34.687 34.687 0 0 0 1.716-7.407l4.969-.542.361.542q-.813 3.523-1.626 8.942c-.542 3.614-.994 6.956-1.445 10.027l-.542.723-13.46-.361-12.104-.271h-8.582l-7.949.27a47.153 47.153 0 0 0-7.949.633zm16.35-34.327.994-6.775h12.466c1.264 0 3.252-.09 5.962-.361l7.859-.813.451.542-1.626 6.685-7.859-.181h-7.949l-5.058.27a30.17 30.17 0 0 0-5.24.543z"/><g fill="#2b2929"><path d="M311.499 685.696c-9.666-.181-22.854 7.316-34.507 13.91-9.665 5.42-20.686 11.653-23.757 9.305-.813-.633-1.987-2.62-.452-9.575 3.433-15.357 10.57-42.547 16.892-64.588 7.588-26.738 11.563-37.758 13.55-42.275 0 .633-.09 1.626-.18 2.71a1.632 1.632 0 1 0 3.251.271c.542-6.052.452-8.762-1.806-9.123-2.259-.362-4.156-.633-17.163 45.166-6.504 22.763-14.002 51.037-17.615 67.116-1.626 6.865-1.084 11.02 1.626 12.917a6.323 6.323 0 0 0 3.794 1.084c5.42 0 13.73-4.697 23.576-10.207 11.292-6.323 24.029-13.64 32.79-13.46a1.536 1.536 0 0 0 1.627-1.535 1.626 1.626 0 0 0-1.626-1.716z"/><path d="M312.944 642.336c-.361 1.355-1.806 4.065-5.781 8.13 2.258-4.878 4.607-7.317 5.781-8.13zm17.705 11.292a1.536 1.536 0 0 0-2.258.451c-6.323 8.853-11.472 14.454-16.621 18.157-2.53 1.807-4.968 2.078-6.594.903-1.626-1.174-4.156-4.155-.542-15.988 8.22-6.775 12.736-13.189 11.472-16.621a2.89 2.89 0 0 0-2.53-1.717c-3.342.09-8.581 5.962-11.923 16.892-4.156 13.46-.723 18.338 1.626 20.054a6.504 6.504 0 0 0 4.065 1.355 10.569 10.569 0 0 0 6.233-2.258c5.42-3.885 10.749-9.666 17.343-18.88a1.716 1.716 0 0 0-.27-2.348z"/><path d="M398.127 622.554c-1.084-1.536-6.052-2.44-58.625-1.265 1.716-6.865 3.252-13.008 4.607-18.066a1.536 1.536 0 0 0-1.084-1.988 1.716 1.716 0 0 0-1.988 1.084c-1.445 5.33-3.07 11.743-4.787 19.06l-15.266.362-15.718.361a1.716 1.716 0 1 0 0 3.342l15.808-.451 14.363-.362c-3.613 15.447-7.769 33.875-11.472 51.941-2.71 13.188-4.878 24.66-6.324 33.061-.722 4.427-1.264 7.86-1.535 10.208-.271 2.349-.542 5.058 1.084 5.69h.632c1.445 0 2.168-1.986 2.89-3.883a1.536 1.536 0 0 0-.903-2.078h-.451c.813-6.594 3.342-21.409 8.31-44.805 3.614-17.705 7.588-35.41 11.201-50.134 23.306-.542 53.477-.903 57 .271a1.536 1.536 0 0 0 1.987.09 1.897 1.897 0 0 0 .271-2.438z"/><path d="M342.663 646.401c4.336.271 4.246-5.149.723-3.974-1.716.542-3.975 3.794-.723 3.974zm19.964 6.865a1.445 1.445 0 0 0-2.168.542c-5.691 9.124-15.176 17.796-18.067 16.621-.361-.18-3.07-1.806.633-16.079a1.632 1.632 0 1 0-3.162-.813c-3.071 11.924-2.62 18.247 1.174 19.873a4.336 4.336 0 0 0 1.807.362c6.323 0 16.079-11.382 20.415-18.247a1.626 1.626 0 0 0-.632-2.259z"/><path d="M387.287 653.266a1.536 1.536 0 0 0-2.168.542c-5.781 8.763-15.356 23.306-21.589 21.951a3.794 3.794 0 0 1-2.439-1.987c-1.716-3.072-1.445-9.124.542-14.453 1.987-5.33 4.697-7.137 5.149-7.046.452.09.632 1.174-.09 3.794a1.536 1.536 0 0 0 1.084 1.987 1.716 1.716 0 0 0 1.987-1.174c1.626-6.053-1.174-7.407-1.987-7.769-3.162-.903-6.956 2.8-9.214 9.033-2.259 6.233-2.8 12.737-.271 17.163a6.233 6.233 0 0 0 4.607 3.523 4.517 4.517 0 0 0 1.535.181c7.408 0 15.357-11.11 23.487-23.486a1.807 1.807 0 0 0-.633-2.259z"/><path d="M389.184 646.401c4.336.271 4.246-5.149.723-3.974-1.807.542-4.065 3.794-.723 3.974zm19.963 6.865a1.445 1.445 0 0 0-2.167.542c-5.691 9.124-15.176 17.796-18.067 16.621-.361-.18-3.071-1.806.632-16.079a1.632 1.632 0 1 0-3.161-.813c-3.071 11.924-2.62 18.247 1.174 19.873a4.336 4.336 0 0 0 1.807.362c6.323 0 16.079-11.382 20.415-18.247a1.807 1.807 0 0 0-.633-2.259z"/><path d="M441.215 653.718a1.626 1.626 0 0 0-2.077.723c-6.414 13.098-11.292 17.253-13.55 16.892-.903-.18-3.975-1.988-4.697-16.802a1.716 1.716 0 0 0-1.084-1.445 1.626 1.626 0 0 0-1.807.632l-1.536 1.987a96.745 96.745 0 0 1-8.31 10.389 5.42 5.42 0 0 1-1.174 1.084c-.633-2.981 2.529-14.273 7.497-17.886 1.445-.994 3.342-1.807 6.052 1.264a1.716 1.716 0 0 0 2.259.181 1.807 1.807 0 0 0 .27-2.258c-3.251-3.704-6.232-3.613-8.31-2.981-6.504 2.258-10.93 14.814-11.11 20.596-.091 2.348.632 3.884 1.987 4.426 1.354.542 4.245-1.446 4.877-2.168a106.682 106.682 0 0 0 7.408-9.124c.903 9.666 3.252 14.453 7.046 15.357h.993c5.781 0 11.924-10.117 16.08-18.699a1.626 1.626 0 0 0-.814-2.258zm128.09-54.199c-.27-4.878-1.806-7.497-4.516-7.768-8.491-.994-23.757 27.731-37.578 69.465 5.872-41.372 2.168-48.328-1.987-49.321-1.988-.452-8.04-1.807-24.39 35.861a602.783 602.783 0 0 0-21.59 58.535c5.692-27.732 16.893-76.872 20.687-92.41 2.348-10.026 1.897-15.898-1.445-18.066-1.807-1.083-5.06-1.535-10.93 2.981-5.872 4.517-12.466 12.828-17.073 21.319-3.162 5.871-7.95 16.892-5.15 25.112 2.801 8.22 10.75 9.575 17.073 9.665a1.536 1.536 0 0 0 1.626-1.626 1.536 1.536 0 0 0-1.626-1.626c-7.678-.18-12.375-2.62-14.091-7.497-3.794-11.472 10.117-34.145 21.228-42.817 3.252-2.44 5.962-3.523 7.226-2.71 1.265.813 2.71 2.8-.09 14.453-1.536 6.504-8.04 34.507-14.092 61.696-3.252 14.815-5.781 26.648-7.407 35.14-.903 4.877-1.626 8.762-1.987 11.381-.633 3.975-.723 5.691.903 6.143l.632.18c1.355 0 1.988-1.897 2.8-3.884 0-.09 0-.09.09-.18a605.674 605.674 0 0 1 26.287-74.614c15.086-34.688 20.506-33.965 20.777-33.875.27.09 2.71.723 2.348 15.176-.361 11.562-2.439 29.267-6.323 52.392a1.716 1.716 0 0 0 1.265 1.897 1.536 1.536 0 0 0 1.897-1.084c9.936-34.145 18.97-55.283 24.931-67.026 8.582-16.982 14.002-21.409 15.718-21.409h.09c.633.09 1.446 1.536 1.626 4.698.633 10.659-4.426 38.571-8.852 63.232-7.678 42.275-8.491 49.863-5.15 51.037 1.988.723 3.614-1.626 4.97-3.974a1.536 1.536 0 0 0-.633-2.168 1.626 1.626 0 0 0-2.259.632l-.722 1.265c-.18-6.504 3.794-28.274 7.046-46.16 4.516-26.106 9.394-53.024 8.672-64.045zm36.675 54.2a1.626 1.626 0 0 0-2.077.722c-6.414 13.098-11.292 17.253-13.55 16.892-.903-.18-3.975-1.988-4.697-16.802a1.716 1.716 0 0 0-1.084-1.445 1.626 1.626 0 0 0-1.807.632l-1.536 1.987a96.745 96.745 0 0 1-8.31 10.389 5.42 5.42 0 0 1-1.174 1.084c-.633-2.981 2.529-14.273 7.497-17.886 1.445-.994 3.342-1.807 6.052 1.264a1.716 1.716 0 0 0 2.259.181 1.807 1.807 0 0 0 .27-2.258c-3.251-3.704-6.232-3.613-8.31-2.981-6.504 2.258-10.93 14.814-11.11 20.596-.091 2.348.632 3.884 1.987 4.426 1.354.542 4.245-1.446 4.877-2.168a106.682 106.682 0 0 0 7.408-9.124c.903 9.666 3.252 14.453 7.046 15.357h.993c5.781 0 11.924-10.117 16.08-18.699a1.626 1.626 0 0 0-.814-2.258z"/><path d="M605.077 647.485a19.06 19.06 0 0 1 6.955-9.846c-.18 1.355-1.084 5.149-6.503 14.543-.633-.903-1.084-2.258-.452-4.697zm34.236 5.872a1.536 1.536 0 0 0-2.168.722c-9.756 20.506-18.97 30.984-20.957 30.623-.181-.09-3.162-2.981 6.413-32.339.271-.723.813-2.53-.542-3.432-1.355-.904-2.71-.09-5.058 1.535-2.349 1.626-6.053 3.884-8.762 3.523 8.671-14.905 7.768-18.247 5.871-19.512-1.897-1.264-7.407 3.343-9.485 6.324-4.155 6.413-4.065 12.285.362 15.266 4.426 2.98 10.297-.633 13.82-2.981l.181-.18c-3.342 10.387-5.42 18.607-6.143 24.298-.722 5.691-.27 9.576 2.078 10.479l1.174.18c6.775 0 18.518-20.866 24.029-32.429a1.807 1.807 0 0 0-.813-2.077z"/><path d="M707.332 622.554c-1.084-1.536-6.052-2.44-58.625-1.265 1.716-6.865 3.252-13.008 4.607-18.066a1.536 1.536 0 0 0-1.084-1.988 1.716 1.716 0 0 0-1.987 1.084c-1.446 5.33-3.072 11.743-4.788 19.06l-15.266.362-15.718.361a1.716 1.716 0 1 0 0 3.342l15.808-.451 14.363-.362c-3.613 15.447-7.768 33.875-11.472 51.941-2.71 13.188-4.878 24.66-6.323 33.061-.723 4.427-1.265 7.86-1.536 10.208-.27 2.349-.542 5.058 1.084 5.69h.632c1.446 0 2.168-1.986 2.891-3.883a1.536 1.536 0 0 0-.903-2.078h-.452c.813-6.594 3.342-21.409 8.31-44.805 3.614-17.705 7.589-35.41 11.202-50.134 23.305-.542 53.476-.903 57 .271a1.536 1.536 0 0 0 1.986.09 1.897 1.897 0 0 0 .271-2.438z"/><path d="M672.013 653.537a1.536 1.536 0 0 0-2.168.542c-5.691 9.124-15.176 17.886-18.067 16.621-.36-.09-3.07-1.716.633-16.079a1.807 1.807 0 0 0-1.175-1.987 1.626 1.626 0 0 0-1.987 1.174c-3.071 11.924-2.62 18.247 1.174 19.873a4.336 4.336 0 0 0 1.807.362c6.323 0 16.08-11.382 20.415-18.247a1.807 1.807 0 0 0-.632-2.259zm-20.596-5.058a1.536 1.536 0 0 0 .994.361 1.445 1.445 0 0 0 1.264-.632l5.51-6.775a1.716 1.716 0 0 0-.27-2.349 1.536 1.536 0 0 0-2.259.271l-5.51 6.866a1.626 1.626 0 0 0 .271 2.258z"/><path d="M702.725 653.628a1.536 1.536 0 0 0-2.168.632c-1.987 3.433-7.407 12.827-10.388 12.556-.632-.09-2.258-.903-3.974-6.865-1.175-4.155-2.8-8.04-5.962-8.22-3.162-.18-4.788 1.626-8.762 8.852a324.456 324.456 0 0 1 2.98-10.207 21.138 21.138 0 0 0 .814-2.981 1.626 1.626 0 0 0-1.084-1.987 1.626 1.626 0 0 0-1.988 1.174c-.27.813-.542 1.897-.813 2.89-2.168 7.498-5.51 18.97-6.323 25.926a1.626 1.626 0 0 0 1.174 1.716h.452a1.807 1.807 0 0 0 1.536-.994c7.949-19.782 11.2-21.137 11.924-21.137.722 0 1.354.361 2.98 5.962 1.626 5.6 3.885 8.762 6.775 9.123 4.336.542 8.22-4.787 13.55-14.182a1.897 1.897 0 0 0-.723-2.349z"/><path d="M709.862 642.336c-.362 1.355-1.807 4.065-5.782 8.13 2.168-4.878 4.517-7.317 5.782-8.13zm17.705 11.292a1.536 1.536 0 0 0-2.259.451c-6.323 8.853-11.472 14.454-16.62 18.157-2.53 1.807-4.969 2.078-6.595.903-1.626-1.174-4.155-4.155-.542-15.988 8.22-6.775 12.737-13.189 11.472-16.621a2.89 2.89 0 0 0-2.529-1.717c-3.342.09-8.582 5.962-11.924 16.892-4.155 13.46-.722 18.338 1.626 20.054a6.504 6.504 0 0 0 4.065 1.355 10.569 10.569 0 0 0 6.233-2.258c5.42-3.885 10.75-9.666 17.344-18.88a1.807 1.807 0 0 0-.271-2.348z"/><path d="M741.026 705.027c-8.4 16.892-21.138 25.834-27.28 25.744-1.807 0-2.168-.903-2.258-1.174-1.265-2.981 1.716-11.472 14.272-25.925 7.859-9.034 15.718-17.344 24.932-26.106a137.304 137.304 0 0 1-9.666 27.46zm33.784-51.49a1.716 1.716 0 0 0-2.258-.18c-6.233 5.42-11.924 10.478-17.254 15.356.452-5.33-.09-9.665-1.896-12.104-1.807-2.44-3.433-2.71-6.053-2.349a23.757 23.757 0 0 0-7.588 2.62c0-.09.09-.18.09-.271l1.627-3.614c3.703-8.581 4.607-13.91 2.71-16.26a3.613 3.613 0 0 0-3.614-1.174c-5.33.994-12.194 10.298-14.543 17.796a1.536 1.536 0 0 0 1.084 1.987 1.536 1.536 0 0 0 1.987-1.084c2.349-7.678 8.401-14.182 11.472-15.356.633-.271.904-.271.904-.181 0 .09 1.626 1.987-3.072 12.917l-1.626 3.523c-1.987 4.698-2.348 5.51-1.264 6.414 1.084.903 2.168.18 3.342-.632 1.174-.813 4.697-3.072 8.853-3.614a2.89 2.89 0 0 1 2.89 1.084c1.626 2.168 1.807 7.227.813 13.55a390.685 390.685 0 0 0-28.364 29.448c-11.924 13.64-17.163 24.028-14.814 29.268a5.24 5.24 0 0 0 5.149 3.161h.18c8.04 0 21.68-10.388 30.08-27.641 5.06-10.298 9.215-22.583 10.84-32.7 6.053-5.6 12.647-11.472 19.964-17.796a1.355 1.355 0 0 0 .361-2.168z"/></g><g fill="#2b2929"><path d="M545.82 421.114a13.82 13.82 0 0 1-10.118.452 30.351 30.351 0 0 1-8.04-4.517h.362l3.523-.27a21.409 21.409 0 0 1 4.155-.272l1.355.18 1.536.181a19.602 19.602 0 0 0 3.974-.27l2.891-.272h1.897a15.989 15.989 0 0 0 4.155 0 18.88 18.88 0 0 1-5.69 4.698zm-14.725-8.582a10.388 10.388 0 0 1 5.691-1.083l.903.18a8.943 8.943 0 0 0 2.168.271l1.626-.27.904-.181a4.426 4.426 0 0 1 2.168.18 36.313 36.313 0 0 1 8.04 3.162h-.181c-1.265.632-3.162.451-4.878.361h-1.988a17.615 17.615 0 0 0-3.071.271 25.564 25.564 0 0 1-3.704.271l-1.445-.18-1.445-.181a18.247 18.247 0 0 0-4.426.27 14.634 14.634 0 0 1-5.24.091 16.44 16.44 0 0 1 4.878-3.071zm13.821-2.348a5.872 5.872 0 0 0-2.8-.18l-.994.18-1.355.27a6.233 6.233 0 0 1-1.807-.27l-.993-.18a11.833 11.833 0 0 0-6.414 1.174 31.977 31.977 0 0 0-6.052 3.703.813.813 0 0 0-.271.632.632.632 0 0 0 .361.542.452.452 0 0 0 .271.452c3.433 2.62 6.956 5.149 10.388 6.233a17.163 17.163 0 0 0 5.24.813 13.73 13.73 0 0 0 5.962-1.355c3.07-1.445 5.51-4.426 7.497-6.775.09-.18.18-.27.18-.452 0-.18.181-.09.181-.18s.181-.723-.27-.904a37.94 37.94 0 0 0-9.124-3.703zm-12.195-6.775h.09c.452 0 .633-.18.723-.632.09-.452-.18-.633-.632-.723a2.89 2.89 0 0 1-1.807-1.084 3.162 3.162 0 0 1-.722-1.987 5.69 5.69 0 0 1 .903-2.71 9.033 9.033 0 0 0 .903-2.62.723.723 0 1 0-1.355-.27 9.575 9.575 0 0 1-.813 2.257 8.04 8.04 0 0 0-.993 3.252 4.246 4.246 0 0 0 1.084 2.891 3.884 3.884 0 0 0 2.62 1.626zm14.273-9.304a13.46 13.46 0 0 1 1.535 3.252 4.878 4.878 0 0 1 .452 1.987 3.613 3.613 0 0 1-.813 1.897 9.575 9.575 0 0 1-1.807 1.536c-.361.27-.451.542-.18.903a.632.632 0 0 0 .542.271h.36a12.917 12.917 0 0 0 2.079-1.807 4.607 4.607 0 0 0 1.174-2.71 4.968 4.968 0 0 0-.632-2.529 15.898 15.898 0 0 0-1.717-3.523l-.451-.632a4.517 4.517 0 0 1-.904-1.716.632.632 0 0 0-.813-.542c-.451.09-.632.36-.451.813a6.323 6.323 0 0 0 1.174 2.167 3.162 3.162 0 0 1 .452.723zM533.263 401.06Z"/><path d="M536.515 403.319a4.336 4.336 0 0 0 3.342 1.535h.271a3.523 3.523 0 0 0 3.162-1.445 3.704 3.704 0 0 1 2.89-1.536c.452 0 .633-.27.633-.722 0-.452-.271-.633-.723-.633a5.33 5.33 0 0 0-3.794 1.988 2.62 2.62 0 0 1-2.439.993 3.162 3.162 0 0 1-2.439-1.174l-.451-.361a8.4 8.4 0 0 0-3.613-1.536v.452l-.181.903a7.136 7.136 0 0 1 3.071 1.265z"/><path d="M648.797 335.028a43.36 43.36 0 0 0-16.982-11.11l-.18.45v-.45l-.362-.182a36.133 36.133 0 0 0-5.149-1.355 12.737 12.737 0 0 0-4.878-.09 4.607 4.607 0 0 0-1.355.632 157.538 157.538 0 0 0-16.982-4.697h.361a24.66 24.66 0 0 0 3.704-.27h.542a37.578 37.578 0 0 0 21.408-9.215c.813-.722 1.084-1.626.542-2.168a1.536 1.536 0 0 0-1.264-.451 33.513 33.513 0 0 0-4.246.27c-4.787.452-9.665.904-14.272 2.44a29.9 29.9 0 0 0-6.685 3.071 13.37 13.37 0 0 0-2.71 2.349l-1.264 1.626-.994 1.355c-5.24-.994-10.569-1.717-15.808-2.259a18.518 18.518 0 0 0 4.246-2.62l7.136-5.058a67.099 67.099 0 0 0 5.058-3.794c1.626-1.355 6.053-6.323 6.504-11.291a.452.452 0 0 0-.27-.452.361.361 0 0 0-.452 0l-1.988.903-3.161 1.355-1.536.813a34.416 34.416 0 0 0-4.697 2.62 33.874 33.874 0 0 0-8.31 8.13 1.807 1.807 0 0 0 .18-.813c.18-3.342-4.697-6.685-6.594-7.769a22.764 22.764 0 0 0-3.072-1.355l1.446-1.716a14.092 14.092 0 0 0 2.439-3.613 4.878 4.878 0 0 0-.362-4.517h-.542c-2.62.903-5.149 2.8-7.768 4.878l-1.174-.723a24.75 24.75 0 0 0-3.614-1.355c3.433-2.529 7.046-5.058 10.84-7.316a15.356 15.356 0 0 1 2.89.903 18.699 18.699 0 0 0 2.982.903 36.584 36.584 0 0 0 9.846 1.897h2.98c2.259 0 4.608-.27 6.324-1.716 1.716-1.445 1.084-1.174.813-1.807-.271-.632-6.323-1.445-6.414-1.445l-5.239.994a77.076 77.076 0 0 1-6.323 1.084 6.052 6.052 0 0 1-1.807-.09h-.27a12.646 12.646 0 0 1-2.62-.814l-2.078-.632a71.814 71.814 0 0 1 14.634-6.775c1.355-.361 2.53.632 3.613 1.445l.361.271a15.537 15.537 0 0 0 4.698 2.44 20.776 20.776 0 0 0 6.684 1.174 16.35 16.35 0 0 0 4.697-.633c.904-.27 1.355-.722 1.355-1.264s-4.245-2.8-4.245-2.8a30.261 30.261 0 0 0-4.878-.723l-2.078-.18-2.62-.453-2.8-.451 5.24-.994h3.523a22.854 22.854 0 0 0 8.581-1.445h.18c2.62-.994 5.42-1.987 8.04-2.71.271-.09.362-.18.362-.452a.813.813 0 0 0-.271-.632c-1.446-1.265-10.57-.632-12.195-.361-1.626.27-6.414 2.168-8.22 4.606l-4.698.813 1.175-2.348a15.085 15.085 0 0 1 1.626-2.53 26.377 26.377 0 0 1 4.787-3.884c2.53-1.716 5.059-3.432 6.414-6.052.542-1.084.361-1.716.09-2.078-.27-.36-2.078-.632-3.162-.27-1.084.36-3.793 2.258-5.871 4.968a38.21 38.21 0 0 0-4.065 7.588l-.813 1.716c-.632 1.084-1.084 2.168-1.536 3.071l-3.703.723-.452.18a69.013 69.013 0 0 0-12.646 5.601c.27-4.065 2.439-8.04 4.245-10.84l.362-.542c2.077-2.8 4.065-5.962 3.342-7.768a1.987 1.987 0 0 0-1.716-1.175c-4.065-.542-6.685 7.317-7.227 8.853-.994 3.252-.632 7.317-.09 11.924l-1.175.632c-.722-3.071-1.716-7.317-2.529-10.479a9.394 9.394 0 0 1-.27-1.083c-.633-2.891-1.717-8.401-4.97-7.769-.812.18-1.354.903-1.535 2.078-.632 4.245 1.897 7.678 4.426 10.93 2.53 3.252 3.343 4.426 3.975 6.865-4.155 2.53-8.04 5.24-11.833 8.04h-.271a6.233 6.233 0 0 0-.362-3.794l-.27-.994c-.994-3.433-.452-7.046.18-10.117l.18-.723c.362-1.807.904-4.155-.27-5.33-1.175-1.174-1.717-.903-3.252-.632a3.704 3.704 0 0 0-2.89 1.988c-1.446 2.529-.362 6.684.45 8.762a19.331 19.331 0 0 0 1.807 2.89c1.626 2.349 3.704 5.24 3.343 7.769a11.02 11.02 0 0 0-2.44-.09 7.227 7.227 0 0 0-.722-1.446 15.537 15.537 0 0 0-4.697-4.697 37.759 37.759 0 0 0-5.059-2.53l-3.071-1.445-.723-.361a4.336 4.336 0 0 0-3.252-.813 2.53 2.53 0 0 0-2.077 1.716h-.271l-.994-.361h-.27c-1.808 0-3.434 1.987-5.06 3.975a14.453 14.453 0 0 1-2.89 2.89 5.24 5.24 0 0 1-1.987.723 3.613 3.613 0 0 0-3.162 2.71 6.052 6.052 0 0 0 .271 4.697l-.271.452c-4.336-1.265-8.04-.994-11.382.722l-1.355-1.264.633-1.084c3.522-5.6 7.136-11.382.632-15.989a16.079 16.079 0 0 0-3.975-1.897 25.745 25.745 0 0 1-2.8-1.084l-.994-.542c-1.716-1.084-4.426-2.71-6.323-1.265-1.897 1.446-.903 3.162-.27 4.427l.36.903a9.304 9.304 0 0 1 .633 4.155c-1.988-3.523-3.794-7.226-5.42-10.75-1.626-3.522-2.8-5.961-4.336-8.761a14.001 14.001 0 0 1 .723-3.252 12.014 12.014 0 0 0 .451-1.717 8.31 8.31 0 0 1 .813-2.077 8.04 8.04 0 0 0 .994-3.252c.27-3.884-2.53-8.491-5.962-9.846a22.493 22.493 0 0 0-6.685-1.175 36.765 36.765 0 0 1-4.426-.451l-1.264-.362c-1.175-.451-2.259-.813-3.523 1.355-1.265 2.168-.181 3.343.632 4.698a12.827 12.827 0 0 1 .723 1.626 14.182 14.182 0 0 1 .451 3.342 16.53 16.53 0 0 0 .452 3.613 8.762 8.762 0 0 0 7.407 6.685h2.62c2.348-.09 4.878-.09 5.69 1.897a.18.18 0 0 0 .181.18c1.355 2.53 2.62 5.24 3.885 7.95 1.264 2.71 2.348 4.968 3.613 7.407a7.588 7.588 0 0 0-4.788-1.897 21.86 21.86 0 0 0-4.245.361 3.794 3.794 0 0 1-2.078-2.8 8.31 8.31 0 0 0-.813-2.078c-1.626-2.71-5.24-3.703-7.859-3.432-4.065.451-6.594 2.258-9.756 4.877l-1.897 1.084c-1.535.723-3.252 1.626-3.703 3.433-.904 3.252 3.252 4.878 6.594 6.143a16.53 16.53 0 0 1 2.89 1.264c1.265.813 4.246 2.62 7.227 2.62a5.872 5.872 0 0 0 5.24-2.981 14.363 14.363 0 0 0 1.354-2.62c.813-1.716 1.626-3.432 3.162-4.516.09 0 .09-.09.18-.18a24.66 24.66 0 0 1 3.704-.272c2.259 0 3.794 1.265 5.51 2.8l.362.271h.09l1.355 2.44a.813.813 0 0 1-.09.45 8.853 8.853 0 0 0 3.342 9.034 5.69 5.69 0 0 0 4.788 1.174h.722a18.518 18.518 0 0 0 3.072 2.35l-1.446 1.173a10.207 10.207 0 0 0-4.878 2.349 12.737 12.737 0 0 1-2.168 1.445l-.903.633c-3.342-5.15-13.64-8.04-18.066-9.666 2.168 2.71 2.62 6.504 4.697 9.395a14.995 14.995 0 0 0 8.582 5.33 2.078 2.078 0 0 0 .36 1.444c1.446 2.259 4.246 2.259 6.685 2.259h1.084c.994 1.264 2.078 2.439 3.162 3.613l-6.685-2.439v-.361l-.27-.271a.271.271 0 0 0-.362 0l-.361.18c-2.168-.722-4.246-1.445-6.233-1.987-1.987-.542-5.33-1.626-7.95-2.258-4.245-1.536-7.858-5.51-10.84-9.485 3.524-10.207-14.181-14.724-18.788-19.783 2.98 2.891 4.336 6.233 6.142 9.847 2.62 5.42 5.962 7.407 11.834 10.026 2.349 3.252 5.149 6.504 8.4 8.582a126.464 126.464 0 0 0-20.143-3.252 15.808 15.808 0 0 1-6.685-4.697c-1.174-3.885.09-7.498-1.084-11.02-1.174-3.524-8.22-8.944-11.2-12.828 4.064 8.04.09 16.892 10.749 23.215a16.17 16.17 0 0 0 5.961 5.33 88.886 88.886 0 0 0-12.014.18l-1.626.181a37.488 37.488 0 0 1-8.4-3.161c-8.672-4.427-14.725-4.607-22.945.451 6.143 2.168 11.924 5.15 18.79 5.059 4.787 0 9.574-.903 14.633-1.626a75.427 75.427 0 0 1 9.033-.18 25.564 25.564 0 0 0-4.607 3.07c-1.806 1.446-3.794 2.981-5.871 3.614-4.065-.813-7.498-2.168-11.653.451-4.155 2.62-3.884 4.969-6.414 7.137-2.529 2.168-3.794 1.987-5.239 3.252 3.975-.452 7.678-2.891 11.563-3.885 3.884-.993 8.671-1.716 12.014-6.142 2.348-.723 4.245-2.259 6.233-3.704 1.987-1.445 4.607-3.613 7.226-3.703h1.716a125.11 125.11 0 0 1 23.125 3.974h.271l2.71.723a40.83 40.83 0 0 0-13.55 2.077c-3.342-.36-7.226-.27-10.297.904-3.072 1.174-4.336 3.252-6.775 4.065-2.44.813-6.504 0-9.575-.542 5.33 2.258 11.2 5.871 16.892 6.323 4.155.361 6.865-2.62 9.033-5.962 0 2.89 1.355 5.69 2.71 7.95l.994 1.625 1.264 2.078a21.228 21.228 0 0 0-4.155-2.53 7.95 7.95 0 0 0-2.078-.632c-.27-.09-.451.09-.542.362a16.621 16.621 0 0 0-.451 2.258 17.886 17.886 0 0 0-5.42-3.071c-.362-.09-.542 0-.633.451a31.977 31.977 0 0 0 0 8.31 15.989 15.989 0 0 0 2.62 6.685 14.272 14.272 0 0 0-7.407 1.807c-.271.18-.271.361-.18.632a16.621 16.621 0 0 0 7.226 8.31c-3.704 1.356-6.866 4.156-9.304 6.505a.723.723 0 0 0-.181.361c0 .18.09.27.27.361a22.944 22.944 0 0 0 10.75 3.523h.904l2.439-.18a17.434 17.434 0 0 0-4.427 13.278.452.452 0 0 0 .181.362h.452a14.001 14.001 0 0 1 3.884-.633l1.716-.18a19.24 19.24 0 0 0-2.89 7.136 1.716 1.716 0 0 0 .18 1.626.994.994 0 0 0 1.084.451 3.794 3.794 0 0 0 1.355-.36 7.227 7.227 0 0 1 2.349-.453l1.174-.18a20.686 20.686 0 0 0 3.342-1.084l-3.252 8.4a.542.542 0 0 0 0 .543l-4.606 6.775a8.491 8.491 0 0 0-1.265 2.348 7.407 7.407 0 0 0-.18 1.987 18.97 18.97 0 0 0 1.083 4.878c-4.245.181-8.672.452-12.827 1.717a34.687 34.687 0 0 0-4.607 1.716 43.269 43.269 0 0 1-5.149 1.897 59.077 59.077 0 0 1-6.775 1.174l-4.064.542c-9.576 1.717-17.163 6.956-20.235 14.182-.18.452-.09.723.362.904h.27a.542.542 0 0 0 .633-.452c2.89-6.775 10.027-11.743 19.24-13.37l4.065-.541a58.806 58.806 0 0 0 6.956-1.174 51.58 51.58 0 0 0 5.24-1.897 38.752 38.752 0 0 1 4.516-1.717c4.155-1.264 8.581-1.445 12.827-1.716 0 .09 0 .18.09.18s.633 1.717.904 2.62c-1.175 3.162-2.62 7.046-3.614 10.208a6.414 6.414 0 0 0-.451 2.62 6.233 6.233 0 0 0 1.264 2.71 30.261 30.261 0 0 0 4.426 5.148 32.52 32.52 0 0 0 3.614 2.53l1.084.722a44.443 44.443 0 0 1 5.239 3.975l2.439 2.168 3.252 2.89 3.432 2.62a45.076 45.076 0 0 1 5.15 4.155 12.285 12.285 0 0 1 4.064 9.033c0 .09 0 .09.09.181.09.09-.09.18-.09.271a64.768 64.768 0 0 1-.451 11.292c-.181 1.084-.452 2.077-.633 3.07-.18.994-.632 2.53-.813 3.885a28.816 28.816 0 0 0-.361 4.878h1.355c.09-1.626.09-3.162.271-4.788.18-1.626.452-2.529.723-3.794.27-1.264.451-2.077.632-3.161a68.833 68.833 0 0 0 .452-11.563v-.18c0-.09.09-.09.09-.18a13.279 13.279 0 0 0-4.426-9.937 47.785 47.785 0 0 0-5.33-4.246l-3.342-2.53-3.252-2.89-2.44-2.258a60.522 60.522 0 0 0-5.419-4.065l-1.084-.723a29.629 29.629 0 0 1-3.433-2.439l-.903-.813v.181a9.214 9.214 0 0 1-.903-3.071 13.46 13.46 0 0 1 .993-5.51 18.88 18.88 0 0 0 .994-3.885c.09.271.271.452.361.723a17.705 17.705 0 0 1 1.536 2.89l.271.904a13.188 13.188 0 0 0 .632 1.716 7.317 7.317 0 0 0 1.536 2.168c.09.18.271.18.452.18l.451-.18a.632.632 0 0 0 0-.994 5.962 5.962 0 0 1-1.264-1.806l-.542-1.446-.271-.993a20.867 20.867 0 0 0-1.626-3.162c-.18-.361-.452-.722-.633-1.174a40.83 40.83 0 0 1-3.252-7.95 23.938 23.938 0 0 1-1.445-5.961 4.968 4.968 0 0 1 .09-1.626 8.491 8.491 0 0 1 1.084-1.987l4.969-7.408 1.897-2.71a56.006 56.006 0 0 1 4.787-5.6.723.723 0 0 0 .362.361h.451l.633-.18a22.944 22.944 0 0 0 3.07-2.078 15.266 15.266 0 0 0 3.343-3.884 3.252 3.252 0 0 1 .632 1.626 10.207 10.207 0 0 1-5.78 10.659 2.078 2.078 0 0 0-1.356 1.084 2.349 2.349 0 0 0-.18 1.355v.18c.09 2.53-2.078 4.607-4.065 6.414-.181.09-.181.27-.271.452-.09.18 0 .36.18.451a2.53 2.53 0 0 1 .633 1.536v.27c-.542 1.898 0 3.975.542 5.872l3.974 13.008a.658.658 0 0 0 1.265-.361l-3.975-13.008c-.632-2.078-1.174-4.065-.361-5.69a7.769 7.769 0 0 1 .903-1.446 7.498 7.498 0 0 0 .723-1.084 20.415 20.415 0 0 0 .994-1.987 5.6 5.6 0 0 1 3.703-4.065l1.445-.723h.09a3.794 3.794 0 0 0 2.169.452 5.059 5.059 0 0 0 3.342-1.175 7.317 7.317 0 0 1-1.084 3.343c-.361.632-.813 1.264-1.265 1.897a17.073 17.073 0 0 0-2.348 4.155c-.723 2.168-.542 4.697.451 7.588a19.331 19.331 0 0 0 3.704 6.504 33.784 33.784 0 0 0 6.233 5.149l1.265.903c6.323 4.516 12.104 10.027 17.614 15.356 2.349 2.258 4.968 4.788 5.962 8.04a19.963 19.963 0 0 1 .452 5.69v2.8c-.18 9.124-.362 18.519.903 27.733l.271 1.897a9.936 9.936 0 0 1 .18 1.626h1.627l-.271-1.988-.271-1.897c-1.265-9.123-1.084-18.427-.904-27.46v-2.62a23.757 23.757 0 0 0-.451-6.143l-.271-.903a39.836 39.836 0 0 0 6.504.723h2.077c-1.355 6.504-2.258 15.717-3.161 24.57l-.813 7.588-.904 8.22h.904l.813-7.769c.27-2.438.542-4.968.813-7.678.903-9.033 1.806-18.427 3.252-24.75a10.93 10.93 0 0 0 2.89-.994 17.795 17.795 0 0 0 4.788-3.794c1.626-1.716 3.161-3.613 4.607-5.42a54.922 54.922 0 0 1 6.865-7.678l2.078-1.717c.993-.813 2.077-1.626 2.98-2.529 3.523-3.342 5.51-7.497 6.866-11.924.18-.09.27-.18.27-.361a6.594 6.594 0 0 1 3.704-4.336l.181-.18a2.8 2.8 0 0 1 .18.722 7.769 7.769 0 0 1-.451 2.44 6.685 6.685 0 0 0-.361 1.264 6.865 6.865 0 0 0-.271 1.897c-1.265.722-2.078 1.987-2.62 4.065a16.621 16.621 0 0 0-.361 6.684.632.632 0 0 0 .632.542h.09a.632.632 0 0 0 .542-.813 15.627 15.627 0 0 1 .362-6.142 5.6 5.6 0 0 1 1.445-2.8 8.582 8.582 0 0 0 1.445 3.522c.271.452.542.452.994.18a.632.632 0 0 0 .09-.993 6.685 6.685 0 0 1-1.084-5.781l.362-1.174a7.859 7.859 0 0 0 .542-2.89 7.317 7.317 0 0 0-1.446-3.434l-.18-.27a21.409 21.409 0 0 1-1.717-3.162l-.18-.361a31.255 31.255 0 0 1-2.981-11.473 5.69 5.69 0 0 1 .361-2.98h.09l.362.541a5.149 5.149 0 0 0 .993 2.53 4.246 4.246 0 0 0 3.252 1.806 54.51 54.51 0 0 0 2.258 3.885c.813 1.264 1.717 2.89 2.44 4.336 2.258 4.155 4.877 9.575 4.877 15.446 0 .813-.09 1.717-.09 2.53a18.88 18.88 0 0 0 .18 5.51l.272.993a11.653 11.653 0 0 1 .361 1.717 6.504 6.504 0 0 1-2.078 4.607 26.829 26.829 0 0 1-3.161 2.439l-1.355.903c-6.685 4.878-11.111 12.285-14.905 18.88a11.02 11.02 0 0 0-1.445 3.342 10.66 10.66 0 0 0 .361 4.787c.09.452.271.994.361 1.536a14.453 14.453 0 0 1-2.077 10.388c-1.175 1.807-1.355 4.968-1.536 6.684a47.063 47.063 0 0 0 0 7.137h1.355q-.18-3.523 0-7.046c.09-1.446.361-4.607 1.265-6.052a15.808 15.808 0 0 0 2.258-11.382 7.678 7.678 0 0 0-.361-1.536 9.846 9.846 0 0 1-.362-4.245 8.491 8.491 0 0 1 1.355-2.891c3.072-5.149 6.414-10.84 10.93-15.356a19.692 19.692 0 0 1 12.286 3.974c2.529 1.807 5.42 3.794 7.046 6.685 1.625 2.89 1.716 5.33 1.445 9.214-.09 1.354-.271 2.62-.452 3.974-.18 1.355-.451 3.884-.542 5.872v2.439c0 .993.09 2.077 0 3.07a33.242 33.242 0 0 1-1.174 6.776l-1.536 6.504h1.355l1.446-6.233a38.3 38.3 0 0 0 1.174-7.046c.09-1.084 0-2.168 0-3.252v-2.349a65.56 65.56 0 0 1 .542-5.78c.27-1.988.361-2.71.451-4.066.271-4.155-.18-7.407-1.626-9.936-1.445-2.53-4.787-5.24-7.407-7.136a20.957 20.957 0 0 0-11.652-4.156l2.348-1.897 1.355-.903a23.757 23.757 0 0 0 3.342-2.62 11.743 11.743 0 0 0 1.626-2.077h.181c2.168-1.807 3.342-4.336 3.523-7.769.09-1.264 0-2.439 0-3.613a31.616 31.616 0 0 1 .18-5.059 28.274 28.274 0 0 1 .904-3.974 19.421 19.421 0 0 0 .994-7.227 20.596 20.596 0 0 0-2.168-6.142 355.995 355.995 0 0 0-12.918-23.758l-.451-.632a10.027 10.027 0 0 1 3.613 2.8 5.33 5.33 0 0 1 .451 1.717 14.995 14.995 0 0 0 .271 1.987 2.439 2.439 0 0 0 .904 1.716 1.084 1.084 0 0 0 1.084.271 1.265 1.265 0 0 0 .903-.632 1.536 1.536 0 0 0 .09-1.536 2.71 2.71 0 0 0 2.62-.09 1.084 1.084 0 0 0 .361-.994c0-1.445-1.806-2.077-2.98-2.348l-3.162-.452c-1.626-2.168-4.246-3.613-7.769-4.426a13.188 13.188 0 0 0-1.445-1.716 2.349 2.349 0 0 0-1.445-.994c-.994-.09-1.897.632-2.349 1.987h-1.626c-3.433-.18-6.956-.451-9.846-1.897a6.865 6.865 0 0 1-.361-.993c-.723-1.988-1.265-4.156-1.897-6.233a13.008 13.008 0 0 0 5.058 1.264 10.93 10.93 0 0 1 4.336 1.084 2.439 2.439 0 0 1 .813 1.084 12.104 12.104 0 0 0 .632 1.626 1.716 1.716 0 0 0 1.355.813c1.446.18.904-1.626.362-2.258.993.18 2.98-.632 1.897-1.807-1.084-1.174-1.988-.542-2.8-.361l-1.356.361a9.936 9.936 0 0 0-5.149-1.445c-1.987-.18-4.064-.452-5.42-1.626-1.354-1.174-1.264-4.517-1.987-6.685l.18-.36.362-.904 2.89-.903 3.795 2.62c2.98 2.077 6.052 4.245 9.214 6.232 11.291 7.227 20.776 10.569 29.81 10.75h.18l1.174.812 1.084 1.175a10.207 10.207 0 0 0 3.342 2.53 3.071 3.071 0 0 0 3.072-.362 2.078 2.078 0 0 0 .18-2.71 3.704 3.704 0 0 0-2.529-1.626 2.62 2.62 0 0 0 2.439-.452 2.168 2.168 0 0 0 .723-2.258 3.252 3.252 0 0 0-3.162-2.168 4.968 4.968 0 0 0-3.523 1.626 25.564 25.564 0 0 1-2.71 2.71h-.542c-8.852-.09-18.247-3.523-29.358-10.66l-3.884-2.529a23.848 23.848 0 0 0 6.685.904 25.564 25.564 0 0 0 3.703-.271v.18c.903 1.355 2.44 2.168 4.788 2.53l1.626.18 2.529.452.632.542a8.4 8.4 0 0 0 1.265 1.265 1.536 1.536 0 0 0 1.626.451 1.174 1.174 0 0 0 .632-1.987l-.813-.452a.994.994 0 0 0 .904-.632.903.903 0 0 0 .09-.813.813.813 0 0 0-.542-.542h-.632c-1.084.18-1.897.994-2.891 1.355l-2.71-.452-1.536-.18c-1.987-.362-3.432-1.084-4.155-2.168a27.28 27.28 0 0 0 13.82-6.504c.724.813 3.343 1.084 4.246 1.084a2.349 2.349 0 0 0 1.355-.361 20.505 20.505 0 0 0 6.595 1.896l.451-.18a.361.361 0 0 0 0-.452 96.203 96.203 0 0 0-12.104-17.344c-1.084-1.264-4.517-4.516-7.498-7.407l-4.065-3.884c5.601.452 11.202 1.265 16.712 2.258h.09c2.439 5.15 4.878 10.479 8.672 14.995 3.794 4.517 9.936 8.22 15.356 8.492h.271a1.626 1.626 0 0 0 1.626-.813c.362-.723-.18-1.446-.451-1.807-5.059-6.956-11.834-15.266-20.415-19.873 5.6 1.265 11.11 2.71 16.53 4.517 0 1.174 1.626 2.258 3.433 3.522l.813.542.452.452c2.98 2.44 6.413 5.24 10.117 6.233a38.752 38.752 0 0 0 7.317 1.265l3.523.18h3.342a.452.452 0 0 0 .451-.27c.09-.362.09-.543-.09-.633zm-57.722-53.296 5.15-.993c1.264-.181 5.058.09 5.329.813.27.722 0 .27-.542.632-2.258 1.806-5.872 1.535-8.762 1.355a39.114 39.114 0 0 1-6.414-.903 48.78 48.78 0 0 0 5.24-.904zm19.512-15.085a54.56 54.56 0 0 1 10.84-.18l-7.227 2.438h-.18a26.016 26.016 0 0 1-10.66 1.355 13.55 13.55 0 0 1 7.227-3.613zm-7.226-7.046c1.897-2.53 3.703-4.155 5.42-4.607l1.354-.271a1.355 1.355 0 0 1 .813.18c.181.181.09.543-.18.994-1.175 2.349-3.704 4.065-6.052 5.691a37.036 37.036 0 0 0-4.246 3.162 24.209 24.209 0 0 1 2.89-5.15zm-3.794 14.182 2.71.361 2.168.271a26.829 26.829 0 0 1 4.697.723c1.174.271 3.523 1.445 3.523 1.897 0 .452-.09.18-.723.361a17.344 17.344 0 0 1-10.659-.451 13.911 13.911 0 0 1-4.426-2.349l-.362-.271a10.66 10.66 0 0 0-1.626-1.174 26.738 26.738 0 0 1 4.698.632zm-20.235-6.775c.904-2.89 3.252-8.22 5.872-8.22h.27a1.265 1.265 0 0 1 .995.542c.632 1.536-2.259 5.51-3.162 6.865l-.452.542a30.893 30.893 0 0 0-3.974 8.13 24.3 24.3 0 0 1 .451-7.859zm-6.233 5.51c-2.529-3.252-4.787-6.413-4.245-10.207 0-.271.27-1.174.723-1.265h.27c2.169 0 3.072 4.697 3.614 7.046a11.743 11.743 0 0 0 .27 1.174c.452 1.897 1.085 4.246 1.536 6.414a27.732 27.732 0 0 0-2.168-3.162zm-10.297.362a25.835 25.835 0 0 0-.452 9.214l-1.807-2.71a19.873 19.873 0 0 1-1.716-2.71c-.994-2.44-1.536-5.872-.452-7.86a2.8 2.8 0 0 1 2.168-1.535h.994a1.536 1.536 0 0 1 1.355.452c.813.813.361 2.89 0 4.426zm-71.543-13.821a43.72 43.72 0 0 0-7.859-10.388.542.542 0 0 0-.632.09.542.542 0 0 0-.09.632 45.076 45.076 0 0 1 7.407 9.666 14.272 14.272 0 0 0-3.433-.361h-3.523a7.678 7.678 0 0 1-6.594-6.053 14.182 14.182 0 0 1-.452-3.342 15.808 15.808 0 0 0-.451-3.613 6.775 6.775 0 0 0-.904-1.807c-.722-1.264-1.355-2.439-.632-3.794s1.265-1.355 2.349-.903l1.355.452a38.481 38.481 0 0 0 4.516.542c2.258.18 4.517.27 6.414 1.084 1.897.813 5.6 5.51 5.33 8.942a8.31 8.31 0 0 1-.904 2.891 23.486 23.486 0 0 0-.903 2.258 10.93 10.93 0 0 1-.452 1.626 9.485 9.485 0 0 0-.542 2.078zm-4.968 21.77a20.686 20.686 0 0 1-1.265 2.439c-2.258 3.342-5.781 3.342-11.11.09a18.699 18.699 0 0 0-3.072-1.355c-2.98-1.174-6.685-2.53-6.052-4.968.632-2.439 1.806-2.078 3.161-2.8a9.846 9.846 0 0 0 2.078-1.265c2.981-2.439 5.42-4.246 9.304-4.607h.813c2.258 0 4.878.994 6.143 2.981a4.336 4.336 0 0 1 .632 1.807 4.246 4.246 0 0 0 1.626 2.8 21.68 21.68 0 0 1-8.04.271.46.46 0 0 0-.18.903 21.59 21.59 0 0 0 8.4-.27h.091a12.014 12.014 0 0 0-2.53 3.974zm-7.95 129.174.543 1.355c.542 1.897-.181 3.975-.904 6.052-.722 2.078-1.355 3.975-1.084 6.053 0 .18.09.36.09.542l-.993-1.355a4.607 4.607 0 0 1-1.084-2.078 4.878 4.878 0 0 1 .361-1.987c.904-2.53 1.988-5.782 3.072-8.582zm10.66-15.266-.723.994-.452.632-.18-.452 1.535-1.445zm109.03-91.867c-1.626 1.355-3.252 2.62-4.968 3.794l-7.136 5.058a30.17 30.17 0 0 1-3.614 2.259 216.164 216.164 0 0 0 21.5-19.964c-.814 3.794-3.524 6.866-5.782 8.853zm-20.144-5.059c2.62 1.355 6.233 4.427 6.052 6.775-.09.723-.27 1.174-.722 1.355-.452.18-2.891-.723-3.885-1.716a38.21 38.21 0 0 1-2.98-3.704 23.667 23.667 0 0 0-4.156-4.787 25.293 25.293 0 0 1 5.691 2.077zm.452-10.93a4.517 4.517 0 0 1-.09 2.89 12.104 12.104 0 0 1-2.259 3.343l-1.716 1.987-2.168-.542v-.27a44.443 44.443 0 0 0 6.233-7.408zm-1.265.271a46.792 46.792 0 0 1-5.149 6.052l-.27-1.264a3.704 3.704 0 0 0-.452-.813 37.217 37.217 0 0 1 5.871-3.975zm-16.802 1.355a12.195 12.195 0 0 1 3.162.18h.09l.904.181a20.054 20.054 0 0 1 4.426 1.626 4.065 4.065 0 0 1 1.535.994 2.258 2.258 0 0 1 .362.632l.27 1.265.181 1.536c0 .27.09.632.09.903 0 .27.362 2.349.452 3.523.452 3.252.994 7.226-.451 10.478a10.66 10.66 0 0 1-2.89 3.794 5.962 5.962 0 0 0-1.807-.542h-1.717a8.582 8.582 0 0 0-1.897.813l-.451.271-1.355.723a7.407 7.407 0 0 1-2.71.632h-1.536a1.987 1.987 0 0 0 .452-.722 4.065 4.065 0 0 0 .27-2.078 11.562 11.562 0 0 0-4.697-8.4 12.285 12.285 0 0 0 3.072-6.866 11.201 11.201 0 0 0-1.536-6.594 11.833 11.833 0 0 1 3.342-2.168l.633-.18zm6.595 42.095h-.09l-.272 1.806a4.065 4.065 0 0 0-.09.994v1.987h-2.168c-2.8.09-4.968 1.446-7.317 3.072l-1.174.812a38.933 38.933 0 0 1-4.246 2.35c-.632.27-1.084.36-1.355.18a2.078 2.078 0 0 1-.542-1.084 10.93 10.93 0 0 1 .723-4.426l.271-.723c.723-2.078 1.536-4.246.994-6.414a7.046 7.046 0 0 0-2.62-3.974v-3.433l.632-.18a1.174 1.174 0 0 0 .633-.543.994.994 0 0 0 .09-.722.903.903 0 0 0-.361-.452 8.13 8.13 0 0 0 3.613-2.348l.452-.633h1.625a9.936 9.936 0 0 0 3.252.271 8.943 8.943 0 0 0 3.072-.722l1.445-.723.452-.271a2.89 2.89 0 0 1 1.535-.903h.09a1.626 1.626 0 0 1 1.356.632 6.504 6.504 0 0 1 1.264 2.168 11.743 11.743 0 0 1 .452 3.974 12.285 12.285 0 0 1-.271 2.62v.452c-.18 1.084-.452 2.077-.723 3.161-.27 1.084-.451 2.078-.722 3.162zm-54.56 35.5a13.279 13.279 0 0 0-.904-1.987l-.452-.813c-.09-.18-.09-.362-.18-.542l.903.632a5.33 5.33 0 0 0 2.98 1.355h.091a2.078 2.078 0 0 0 .994-.271 1.897 1.897 0 0 0 .632-1.265 9.304 9.304 0 0 0-.994-5.149l1.717.904c4.336 4.697 8.22 9.394 9.575 15.266l.27 1.174.272 1.084a11.743 11.743 0 0 1-4.878-2.077 17.344 17.344 0 0 1-1.987-1.626 18.88 18.88 0 0 0-2.62-2.078l-2.168-1.174a11.201 11.201 0 0 1-1.806-.904l-1.084-.813a5.24 5.24 0 0 0-.362-1.716zm-6.143 4.697a16.802 16.802 0 0 0 3.974 2.62 9.485 9.485 0 0 0 .542 2.168 9.665 9.665 0 0 1 .452 5.058l-.271 2.8a6.775 6.775 0 0 1-1.445-1.354l-3.433-4.427a16.079 16.079 0 0 0 .18-6.865zm4.787 1.897h-.18a16.711 16.711 0 0 1-5.059-3.613 16.892 16.892 0 0 1-3.523-5.51l.271-.362a5.872 5.872 0 0 0 .361-1.806c.09-1.536.271-3.433-.542-4.968a13.911 13.911 0 0 0 1.717 1.535c1.355 1.084 2.8 1.987 4.155 2.89l1.265.904a12.917 12.917 0 0 0 .722 1.987l.452.904a6.504 6.504 0 0 1 .813 1.806 5.24 5.24 0 0 1 .27 1.717 13.008 13.008 0 0 1-.722 4.516zm-19.963-7.226a4.246 4.246 0 0 1-1.716 1.355 1.626 1.626 0 0 1-1.807-.09c-.632-.452-.723-1.356-.452-2.8a24.39 24.39 0 0 1 3.162-8.311 16.53 16.53 0 0 0 4.336-2.259h.09l.813.362a7.498 7.498 0 0 0 .271 3.974 7.317 7.317 0 0 1-1.355 3.342 27.1 27.1 0 0 1-3.342 4.427zm-11.02-10.75c-.633-.18-1.626-.722-1.717-1.445-.09-.723.362-1.084 1.175-1.716a13.64 13.64 0 0 1 8.49-2.53 6.775 6.775 0 0 0 2.44 2.349 8.762 8.762 0 0 0 3.703.723h.09l-.18.27v.272h-.18a12.646 12.646 0 0 1-4.246 2.168 13.37 13.37 0 0 1-6.866.632 15.085 15.085 0 0 1-2.71-.723zm7.497-7.678a5.781 5.781 0 0 1-3.071-1.716 11.653 11.653 0 0 1-1.988-2.71l-.542-1.175a36.675 36.675 0 0 1-2.348-7.136c-.09-.451 0-.542 0-.542h.27c1.988-.18 4.156.813 6.053 2.62a27.551 27.551 0 0 1 3.433 4.426l.813 1.174a23.486 23.486 0 0 0 3.432 3.885 13.64 13.64 0 0 0-3.342-.633 2.62 2.62 0 0 0-2.349.633 1.626 1.626 0 0 0-.361 1.174zm7.046 2.168.632.18a1.265 1.265 0 0 1 0 1.627l-.18.18h-.181a9.124 9.124 0 0 1-3.884-.632 4.788 4.788 0 0 1-2.259-2.168l-.18-.452c0-.09-.09-.18-.09-.361a1.174 1.174 0 0 1 .18-1.084 1.807 1.807 0 0 1 1.536-.361 19.06 19.06 0 0 1 5.51 1.445h-.813a.813.813 0 0 0-.903.723c-.09.451.09.813.632.903zm-1.897-10.027a2.349 2.349 0 0 1 .632-2.077 2.89 2.89 0 0 1 2.259-.271c.722.18 2.439.632 2.8 1.987v.27c0 .272.09.633.09.904v1.626a17.795 17.795 0 0 1-.542 4.336c-.361-.361-.813-.723-1.264-.542a.903.903 0 0 0-.362.452c-1.806-1.626-3.523-4.246-3.613-6.685zm7.678-6.955-.27-.994 1.264-1.987a7.498 7.498 0 0 1 1.716-2.44c0-.27.271-.36.542-.45-1.265 2.98-1.626 5.961-.813 8.4l.271.632c-.452 1.355-.994 2.71-1.445 3.975a9.846 9.846 0 0 0-2.078 1.264v-.542a3.704 3.704 0 0 0-.09-.993 36.223 36.223 0 0 0 .813-4.517 10.207 10.207 0 0 0 .09-2.348zm5.149-7.588.903-1.446a43.36 43.36 0 0 1 3.252-4.697 6.052 6.052 0 0 1 1.355-1.264c1.355-.994 2.71-1.175 4.878-1.446a34.958 34.958 0 0 1 8.13.18l2.078.453a2.98 2.98 0 0 0 .813 2.077 3.704 3.704 0 0 0 .993.633h.181l.903.18h.813a8.31 8.31 0 0 0 2.078-.813l.452-.27.542-.272 1.355.362 1.264.36h.271c0 .091.09.091.09.182l.271.27-1.355-.36a4.426 4.426 0 0 0-3.974 1.445 4.517 4.517 0 0 0-1.174 4.064 7.317 7.317 0 0 0 2.348 3.704l1.987 1.445c.452.362.994.633 1.355.994h.09l.272.18.722.633h.09l1.356.994v.18c-2.71 4.517-6.595 7.588-10.66 8.491a20.596 20.596 0 0 1-4.064.362 30.893 30.893 0 0 1-4.065-.362l-1.265-.18c-3.523-.452-6.955-.904-9.756-2.349a10.93 10.93 0 0 1-3.884-3.161.361.361 0 0 1-.09-.271l-.271-.723c-.813-2.349-.452-5.42.993-8.31zm-.361-1.175a22.944 22.944 0 0 0 .361-2.62 14.182 14.182 0 0 0 2.258-5.238.813.813 0 0 1 .271-.633.542.542 0 0 1 .723 0 2.078 2.078 0 0 1 .723.813l.542 1.084-1.175 1.084a35.862 35.862 0 0 0-3.342 4.878zm25.925-17.614a9.124 9.124 0 0 1 2.078-1.717h.09a.994.994 0 0 1 1.084.362 1.626 1.626 0 0 1 .361.903v.18a5.33 5.33 0 0 1-.18 1.085l-.272 1.355c-.27 1.445-.632 2.98-.903 4.426 0 .09 0 .18-.09.18l-.271.181a3.433 3.433 0 0 0-1.174 1.988l-.271.722a3.884 3.884 0 0 1-3.614 2.62l-.542-.361a2.168 2.168 0 0 1-.542-1.807v-.18a4.607 4.607 0 0 1 .181-1.175l.271-1.355v-.813a4.155 4.155 0 0 1 .903-2.89c.994-1.265 1.897-2.53 2.89-3.704zm25.564 8.943a1.265 1.265 0 0 1-1.265.813h-.18a11.201 11.201 0 0 1-2.44-.271l-3.342-.994-1.445-.452h-.271a10.478 10.478 0 0 1-3.975-2.439l-.903-.993a8.31 8.31 0 0 1-1.716-4.336 2.53 2.53 0 0 1 .722-2.349c1.084-1.084 3.343-.903 4.517-.723a12.827 12.827 0 0 1 5.872 2.35 10.569 10.569 0 0 1 4.697 7.948 4.246 4.246 0 0 1-.271 1.536zm-6.956 2.168c-.27-.181-.722-.452-.632-.723.09-.271.18-.271.27-.452v-.451l3.343.993h.271l-.18.18a7.769 7.769 0 0 1-2.62 1.898c0-.09.09-.09.09-.18a1.174 1.174 0 0 0-.542-1.265zm-3.884 5.78a2.078 2.078 0 0 0 1.626.091c.09-.09.27-.09.361-.27v4.335a4.788 4.788 0 0 0 .271 1.084.903.903 0 0 1-.813.18l-1.084-.451a6.504 6.504 0 0 1-1.897-2.258 14.092 14.092 0 0 0-1.445-1.807l.361.271a.542.542 0 0 0 .723-.452 2.168 2.168 0 0 0 1.355.362c.542-.09.903-.723.542-1.084zm-2.349 3.524a10.66 10.66 0 0 0 2.078 2.439 2.98 2.98 0 0 0 1.445.632h.362a1.536 1.536 0 0 0 .903-.271.452.452 0 0 1 .361.632c-.18.723-1.174 1.807-4.607 2.62a11.201 11.201 0 0 1-2.439.271 6.504 6.504 0 0 1-2.89-.723h-.09a8.22 8.22 0 0 1-1.446-.993h-.09l-.632-.633-.271-.18h-.181l-1.445-1.084-1.897-1.355a5.51 5.51 0 0 1-2.078-3.162 3.704 3.704 0 0 1 .09-1.716 5.059 5.059 0 0 1 .813-1.536 3.071 3.071 0 0 1 1.446-.903 3.613 3.613 0 0 1 1.716-.18 7.317 7.317 0 0 1 1.987.631h.361l.452.181h.542l1.987 1.355.181.18a3.071 3.071 0 0 1 .813.723l.452.452.542.632a10.84 10.84 0 0 1 1.535 1.988zm-6.775-6.956.723-.27c0 .18.09.45.09.632h-.451zm4.065-8.31a.361.361 0 0 0 .09.451.09.09 0 0 1-.09.09c-.36.272-.903-.18-1.174-.27h-.18a.723.723 0 0 0-.814.27c-.09.181-.09.362-.18.543-.09.18-1.446-.09-1.807.451a.723.723 0 0 0 .18.723l.633.994c-.632.36-1.716.09-2.078.722-.36.633 0 .904.633 1.084a18.157 18.157 0 0 0-3.162.904h-.09l-.723.36h-.18a4.878 4.878 0 0 0 .903-1.444l.27-.813a2.53 2.53 0 0 1 .814-1.536l.361-.361.271-.633c.271-1.445.633-2.98.904-4.426l.27-1.355c0-.18.09-.452.09-.632l2.26 1.716 3.16 2.89c-.18 0-.27.091-.36.272zm-4.155 5.962-.452.36h-.09l-.27.362-1.175-.361zM513.3 349.3l-2.258-.27-1.717-.272a15.266 15.266 0 0 0-5.33.452l-1.445.452h-.18a.09.09 0 0 0-.09.09c-.543-.271-1.175-.18-1.627-.632a1.265 1.265 0 0 1-.09-1.265c.18.09.271 0 .452-.09a13.279 13.279 0 0 1 7.768-2.71 14.543 14.543 0 0 1 3.975.542 13.64 13.64 0 0 1 3.975 1.987 1.084 1.084 0 0 1 .451.542c-.18.18-.18.271-.361.271a5.24 5.24 0 0 1-3.523.903zm-12.647 5.15-1.355-1.175a1.265 1.265 0 0 1 .181-.542 19.331 19.331 0 0 0 1.174 1.716zm-.09-1.988h.09a2.349 2.349 0 0 0 1.897-.542 1.445 1.445 0 0 0 .362-1.174l1.264-.181a8.762 8.762 0 0 1 4.065.09c2.168.904 3.614 3.072 4.878 5.24 1.265 2.167 2.53 4.697 2.168 7.136a.813.813 0 0 1-.27.632h-.452c-.904 0-1.717-.723-2.44-1.174l-2.167-1.536h-.09l-1.265-.903c-1.355-.904-2.8-1.897-4.065-2.89a14.363 14.363 0 0 1-3.975-4.698zm12.195-7.588a12.646 12.646 0 0 0-4.065-.542 14.001 14.001 0 0 0-3.884.632 6.865 6.865 0 0 0 1.355-4.516l.722-.452a22.312 22.312 0 0 0 6.233 3.071l1.717.542a9.846 9.846 0 0 1-2.078 1.265zm-6.775-5.42a4.788 4.788 0 0 0-3.342-.361c.361-.813.632-1.716.993-2.62a9.394 9.394 0 0 0 2.53 2.8zm-3.884.723a4.517 4.517 0 0 1 3.071-.09 5.781 5.781 0 0 1-.723 3.432 5.33 5.33 0 0 1-2.439 2.44l-1.264.812v-.27c-.09-.453-.633-.814-.994-.543-.361.271-.27.361-.451.452a.542.542 0 0 1-.633.09 16.44 16.44 0 0 0 .723-4.697 10.569 10.569 0 0 1 2.71-1.626zm-2.981-5.6c-.09.993-.271 2.077-.452 3.07a4.246 4.246 0 0 0-2.71-1.625 19.873 19.873 0 0 0-1.806-5.059l.632-1.174c.27-.362.452-.813.723-1.265l.18-.361.633.451.993.813a5.6 5.6 0 0 1 1.536 1.988 5.059 5.059 0 0 1 .361 1.084 5.33 5.33 0 0 1-.09 2.077zm-2.71-7.227-.271-.181-.361-.27h-.452l-.271.27a3.252 3.252 0 0 1-.361.813 5.149 5.149 0 0 1-.723 1.174l-.361.633v-.542h-.09a20.776 20.776 0 0 0-3.975-8.31 16.17 16.17 0 0 1-.18-2.078 5.149 5.149 0 0 1 1.083-3.885 16.26 16.26 0 0 1 2.981 3.614 40.74 40.74 0 0 1 3.252 7.497l.18.542zm-3.704 2.71h.09a4.878 4.878 0 0 1 .452.993 29.267 29.267 0 0 1 1.717 4.698 3.613 3.613 0 0 0-2.35.542 2.89 2.89 0 0 0-.902 1.716l-.181-.18-.903-1.085a11.382 11.382 0 0 1-2.168-3.252 8.4 8.4 0 0 1-.271-2.98 19.602 19.602 0 0 1 .361-2.259v-.18a.903.903 0 0 1 1.445-.904 5.962 5.962 0 0 1 2.62 2.62c0 .18.09.18.09.27zm3.614 23.847 1.806.18h.633a12.466 12.466 0 0 1 2.62 2.71 7.769 7.769 0 0 1 .45 4.517 3.704 3.704 0 0 1-.27 1.446l-.271.451a.813.813 0 0 1-.542.271 1.445 1.445 0 0 1-.813-.27l-.271-.181a13.64 13.64 0 0 1-2.981-5.24 8.491 8.491 0 0 1-.361-3.884zm3.703 10.388h.813l.632-.18a16.17 16.17 0 0 0 3.523 5.33 14.363 14.363 0 0 1 .09 8.039 7.95 7.95 0 0 1-.45 1.355 15.989 15.989 0 0 0-2.35-3.162l-.722-.722a15.176 15.176 0 0 1-1.626-1.897 7.317 7.317 0 0 1-.994-2.44 19.512 19.512 0 0 0 1.084-6.323zm14.453-7.768a3.704 3.704 0 0 0-.632-.994c-1.355-2.258-2.89-4.607-5.42-5.6h.723l1.626.18 2.348.271a6.775 6.775 0 0 0 3.975-.903l1.806.723a27.01 27.01 0 0 1 8.672 6.594 7.498 7.498 0 0 1 1.807 2.89c-2.349.994-5.33.813-9.033-.36a28.274 28.274 0 0 0-2.89-1.356zm3.523-7.859a1.445 1.445 0 0 0-.722-1.626 15.356 15.356 0 0 0-3.162-1.716 14.814 14.814 0 0 0 1.987-1.265 26.377 26.377 0 0 0 6.414 1.445l2.168 1.265a12.646 12.646 0 0 0-5.51 2.349zm4.517-4.155a26.287 26.287 0 0 1-6.504-1.536l-2.53-.903a25.745 25.745 0 0 1-5.058-2.349 32.7 32.7 0 0 0 9.214 2.078l1.264.18 4.156.362h.632a16.35 16.35 0 0 0 3.613-.362 17.615 17.615 0 0 0 9.304-6.142 13.911 13.911 0 0 1-5.058 6.323l-.994.632a12.466 12.466 0 0 1-8.04 1.717zm8.4 1.355a21.138 21.138 0 0 1 .362-2.349l.903-.542c3.162-2.168 5.33-5.6 6.504-10.027a9.756 9.756 0 0 0 2.8.633h.271a9.846 9.846 0 0 0 2.349-.271c3.071-.723 4.878-1.807 5.33-3.252a4.246 4.246 0 0 0-.362-1.897 4.065 4.065 0 0 1-.27-.994v-.632a5.781 5.781 0 0 1 1.625 2.89c.452 1.897-.27 3.975-.993 5.872l-.271.723a10.93 10.93 0 0 0-.813 4.787 6.594 6.594 0 0 0 .722 2.258 3.162 3.162 0 0 0 1.626 1.446l1.084.18 1.265-.18a17.073 17.073 0 0 1-2.8 4.968l-1.175 1.626c-2.62 2.53-6.323 4.788-11.472 6.865-.09.09-.27.18-.361.09l-.452-.18c-3.794-2.349-6.233-7.317-5.871-12.014zm23.126-55.645-.723-.993a16.26 16.26 0 0 0-3.342-3.252l-2.259-1.446 2.168.452c2.89.632 5.872 1.265 7.678 3.071a15.085 15.085 0 0 0-3.432 2.259.09.09 0 0 0-.09-.09zm-10.66-12.917a3.794 3.794 0 0 1 2.53.723l.722.451 3.162 1.446a30.713 30.713 0 0 1 4.878 2.439 14.182 14.182 0 0 1 4.336 4.335l.542.994-.994.18c-2.078-2.348-5.33-3.07-8.581-3.793l-2.71-.632c-1.084-2.981-2.62-3.975-5.33-5.06a1.716 1.716 0 0 1 1.445-1.083zm-3.794 1.174.904.362c3.432 1.355 4.968 1.987 6.052 5.058a51.128 51.128 0 0 0-9.033-3.252l-.813-.18c.993-1.084 1.987-1.897 2.89-1.988zm-5.961 6.052 1.716-2.438a2.078 2.078 0 0 1 .632-.633 2.078 2.078 0 0 1 1.265.09 52.663 52.663 0 0 1 9.756 3.614h.09l2.349 1.445.722.632-1.716-.451-.903-.18-.723-.182a20.957 20.957 0 0 1-3.523-1.626 13.55 13.55 0 0 0-5.781-2.077h-.813a1.626 1.626 0 0 0-.904.993 15.266 15.266 0 0 1-3.703 3.975l-1.716 1.445c-.09 0-.09.09-.181.181zm-6.143 3.614c.452-1.626 1.265-1.807 2.439-2.078a5.24 5.24 0 0 0 1.987-.723l-3.794 5.24v.18a3.162 3.162 0 0 0-.451.723 4.246 4.246 0 0 1-.181-3.342zm-.903 7.588a6.865 6.865 0 0 1 1.355-2.53 23.938 23.938 0 0 1 2.98-3.07h.09l1.627-1.356a17.795 17.795 0 0 0 3.974-4.246c.09-.27.181-.451.452-.541h.361a12.827 12.827 0 0 1 5.42 1.987 19.602 19.602 0 0 0 3.704 1.716l.813.271.994.18 2.258.633a6.233 6.233 0 0 1 2.98 2.53l.181.27a11.382 11.382 0 0 1 1.626 6.414 11.743 11.743 0 0 1-2.89 6.413 13.73 13.73 0 0 0-5.872-2.258c-1.716-.27-3.974-.27-5.33.994a3.704 3.704 0 0 0-.993 3.161 8.762 8.762 0 0 0 1.084 3.614l-2.71-2.44-2.89-2.258a2.439 2.439 0 0 0-.633-1.264 1.807 1.807 0 0 0-2.077-.542l-.271.18a7.859 7.859 0 0 0-1.897 1.536 13.46 13.46 0 0 1-3.614-4.697 8.31 8.31 0 0 1-.722-4.697zm.722 4.607zm-19.421-15.628a4.878 4.878 0 0 1 .994 2.44 10.569 10.569 0 0 0 .451 1.806 5.781 5.781 0 0 0 1.626 2.258h-.542a1.536 1.536 0 0 1-.903.271c-1.445.09-2.62.271-4.155-.994a7.859 7.859 0 0 1-2.981-8.13c0-.18.09-.451.09-.632a10.66 10.66 0 0 0-.452-6.052c-.09-.271-.27-.632-.36-.994-.091-.361-.995-2.529 0-3.342.993-.813 3.522.271 5.148 1.265l.994.632a16.17 16.17 0 0 0 2.89 1.174 14.363 14.363 0 0 1 3.794 1.717c5.781 4.065 2.71 9.033-.903 14.724l-.542.813c-.09 0-.18 0-.18-.09h-.091a8.491 8.491 0 0 1-2.53-2.891 10.93 10.93 0 0 1-.451-1.626 5.33 5.33 0 0 0-1.174-2.89.48.48 0 0 0-.723.632zm4.155 7.769h.362l1.897 1.535zm-1.174 6.504a3.794 3.794 0 0 1 .994-1.446c3.884-4.245 8.49-5.42 14.272-3.703-.09.09-.09.27-.18.361l-.272 1.174a9.575 9.575 0 0 0 .723 5.24 13.46 13.46 0 0 0 3.613 4.787 24.39 24.39 0 0 0-2.439 3.523 5.6 5.6 0 0 0-.903 1.987 3.794 3.794 0 0 0-.09 1.446v.722c-.09.452-.09.813-.181 1.175a4.517 4.517 0 0 0-.18 1.084l-2.078-.362a34.958 34.958 0 0 0-8.13-.18l-.723-.904c-3.432-4.426-3.974-8.762-4.426-13.64a3.884 3.884 0 0 1 0-1.264zm-4.517 9.213c-2.348 0-4.787 0-5.871-1.806a1.355 1.355 0 0 1-.18-.813 14.634 14.634 0 0 0 3.974 0 32.339 32.339 0 0 1 2.348 2.62zm-1.355-2.98a5.24 5.24 0 0 0-.36-3.885l.902-.722 2.259-1.536a9.394 9.394 0 0 1 2.89-1.716 2.53 2.53 0 0 0-.722 1.355 6.052 6.052 0 0 0-.09 1.806 34.326 34.326 0 0 0 1.625 8.582l-1.535-.452a8.943 8.943 0 0 0-2.168-.271c-.904-1.084-1.807-2.168-2.8-3.162zm3.523 4.064 1.084.181 2.259.813a22.673 22.673 0 0 0 2.348 4.065l-1.445-.632a32.79 32.79 0 0 1-4.246-4.427zm5.51 5.872a8.31 8.31 0 0 0-3.251 1.174l-.542-1.084a3.342 3.342 0 0 0-1.084-1.174 1.536 1.536 0 0 0-1.897.18 1.897 1.897 0 0 0-.452 1.175 14.724 14.724 0 0 1-1.174 3.342 22.131 22.131 0 0 0-1.265-7.226c3.071 1.084 6.323 2.258 9.666 3.613zm-10.93-4.065a18.247 18.247 0 0 1 1.536 8.22v1.265a22.583 22.583 0 0 1-.994 4.787 2.349 2.349 0 0 0-1.355.633 9.214 9.214 0 0 0-1.897 2.71l-.903 1.535a5.872 5.872 0 0 0-1.355-1.626l-.722-.632.451-1.355a3.884 3.884 0 0 1 .09-.452c.271-1.445.542-2.89.723-4.336a27.732 27.732 0 0 1 .452-3.07v-.181c.18-2.168 1.174-5.782 3.974-7.498zm-23.486-1.174c5.15-1.446 11.382-2.259 16.712-.994l5.6 1.807c-2.439 1.897-3.613 5.058-3.974 7.497l-3.794-.18-.181-.271a14.182 14.182 0 0 0-3.523-4.156.452.452 0 0 0-.632 0 6.233 6.233 0 0 0-1.626 4.969h-.452l-.18-.181a21.86 21.86 0 0 0-9.666-5.872 30.442 30.442 0 0 0 1.716-2.62zm1.897 13.46-.903-1.537c-1.355-2.348-2.71-5.058-2.53-7.858a20.957 20.957 0 0 1 8.943 5.51l1.626 1.897a23.848 23.848 0 0 1 3.252 5.962 4.517 4.517 0 0 0-1.535-.994 1.897 1.897 0 0 0-2.078.18 2.168 2.168 0 0 0-.632 1.446v.18l-.271 1.536-1.717-1.174-1.626-1.084zm-5.42.45 1.446.452a23.486 23.486 0 0 1 4.064 2.53l1.807 1.355 1.716 1.174 2.078 1.445a7.227 7.227 0 0 0 .361 3.072 10.84 10.84 0 0 0 2.349 3.613l.903 1.084.813.993a9.756 9.756 0 0 0 2.349 5.42 22.583 22.583 0 0 1-3.071-3.523l-.813-1.174a28.906 28.906 0 0 0-3.614-4.607c-1.174-1.174-3.703-3.071-6.774-2.89l-.813.27c-.542.452-.362 1.265-.362 1.536 0 .271.271.813.362 1.265a17.705 17.705 0 0 1-2.981-6.504 16.621 16.621 0 0 1-.271-2.98 21.047 21.047 0 0 1 .451-2.53zm-6.413 7.137a41.462 41.462 0 0 1 .09-7.498 17.615 17.615 0 0 1 4.968 3.072 16.621 16.621 0 0 0 .271 2.98 20.686 20.686 0 0 0 4.607 8.763c.271.903.632 1.806.994 2.71a17.705 17.705 0 0 0-7.227-3.071h-.813a17.163 17.163 0 0 1-2.89-6.956zm-4.788 9.214a13.188 13.188 0 0 1 7.407-1.446h.994a15.266 15.266 0 0 1 8.31 4.246 12.646 12.646 0 0 0 1.988 2.89 6.594 6.594 0 0 0 3.884 2.078 14.363 14.363 0 0 0-7.226 1.897h-.09a15.718 15.718 0 0 1-7.77-1.897 15.537 15.537 0 0 1-7.497-7.768zm7.769 18.066a21.77 21.77 0 0 1-9.756-3.071c2.439-2.349 5.6-4.968 9.304-6.052a15.356 15.356 0 0 0 6.594 1.806c-1.084.813-1.535 1.626-1.445 2.44.09.812.903 1.806 2.349 2.258l1.625.451a14.634 14.634 0 0 1-8.671 2.168zm3.342 12.737-3.523.542a16.621 16.621 0 0 1 1.174-6.956 16.17 16.17 0 0 1 3.975-5.871 16.26 16.26 0 0 0 5.149-2.258l2.168.18a15.718 15.718 0 0 0 4.065-.542 26.467 26.467 0 0 0-2.89 7.859 9.304 9.304 0 0 0-.091 1.536l-1.355 1.355-.452.451a12.466 12.466 0 0 1-3.613 2.8 11.291 11.291 0 0 1-4.607.904zm12.917 7.317a51.218 51.218 0 0 0-5.058 5.871 250.36 250.36 0 0 1 2.258-5.78v-.272l2.8-1.716a13.37 13.37 0 0 0 .09 1.897zm.181-4.607-.271 1.355c-1.174.813-2.439 1.535-3.704 2.258l-.27.18a9.756 9.756 0 0 1-3.975 1.627l-1.174.18a11.472 11.472 0 0 0-2.53.542c-.451.181-1.084.452-1.355.181a1.265 1.265 0 0 1 0-.813c.633-2.62 1.446-5.51 3.433-7.588a5.781 5.781 0 0 0 1.626-.542 14.634 14.634 0 0 0 3.884-3.071l.452-.452.993-.993a2.53 2.53 0 0 0 .723.993 2.168 2.168 0 0 0 1.445.452 2.89 2.89 0 0 0 1.265-.271l.632-.452zm7.498-.632a12.917 12.917 0 0 1-3.433 4.245 32.7 32.7 0 0 1-2.89 1.987h-.181v-.36a.361.361 0 0 0-.09-.272 8.22 8.22 0 0 1 0-2.98l.27-1.536 1.355-7.679.271-.27a27.822 27.822 0 0 0 3.343-4.517 11.382 11.382 0 0 0 1.174-2.349 11.02 11.02 0 0 0 2.71 4.336h.09a15.898 15.898 0 0 1-1.264 6.775 13.279 13.279 0 0 1-1.355 2.62zm1.084 14.724 1.896-.994.452-.271c.361-.18.903-.542 1.084-.452.18.09.271.271.361.362h-.09a3.252 3.252 0 0 1-3.703 1.355zm78.407 9.575a8.582 8.582 0 0 0 .904 1.535l.18.271a5.42 5.42 0 0 1 .542.994h-.18a8.491 8.491 0 0 0-2.259 1.626 41.824 41.824 0 0 0 .813-4.426zm5.691-8.853c-.903-1.626-1.897-3.252-2.8-4.968h.09a1.355 1.355 0 0 0-.09-1.445 3.342 3.342 0 0 0-1.174-1.084h.903l.994 1.897a41.553 41.553 0 0 1 4.065 9.214 46.227 46.227 0 0 0-1.988-3.614zm-.361-17.343c3.523 6.142 6.865 12.375 9.936 18.698a16.892 16.892 0 0 1 2.078 5.691 6.685 6.685 0 0 1 0 1.897 8.762 8.762 0 0 0-.18-2.168 14.634 14.634 0 0 0-2.981-5.6l-.633-.904c-2.8-3.884-4.787-8.31-6.775-12.646-.813-1.807-1.626-3.613-2.529-5.42zm-2.8-4.969a24.3 24.3 0 0 0 1.445 2.62 4.788 4.788 0 0 1-1.084-1.265 2.98 2.98 0 0 1-.452-1.445zm3.071 10.57a76.872 76.872 0 0 0 6.865 12.917l.633.903a13.188 13.188 0 0 1 2.71 5.058 12.646 12.646 0 0 1-.181 4.517l-1.084 7.588a.632.632 0 0 0 .542.813h.09v3.162a15.356 15.356 0 0 1 .09 3.522 9.665 9.665 0 0 1-1.445 4.969v-.633a12.917 12.917 0 0 0-.361-1.987 3.252 3.252 0 0 1-.18-.903 16.44 16.44 0 0 1-.091-5.15 25.383 25.383 0 0 0 .09-2.619c0-5.149-1.897-9.846-3.794-13.82a.542.542 0 0 0 .09-.362c-.27-4.607-2.529-8.672-4.697-12.646l-1.174-2.168a1.445 1.445 0 0 0-.632-1.175c-1.446-2.89-2.62-5.69-2.8-8.852v-.632l.903.18h.903c1.265 2.349 2.439 4.878 3.523 7.317zm-3.975-12.557-.813.361-.542-.813zm-4.516-2.349h.09l.361.452h-.542a3.884 3.884 0 0 1 .09-.452zm1.174 1.355a48.327 48.327 0 0 1 3.071 4.878 2.8 2.8 0 0 1-1.716-.542 6.414 6.414 0 0 1-1.897-2.439 5.69 5.69 0 0 1-.723-2.077zm-2.8-.27h.18a8.31 8.31 0 0 0 .904 2.89 7.859 7.859 0 0 0 2.258 2.89.09.09 0 0 1 .09.09v1.356a21.318 21.318 0 0 0 2.259 7.859h-.994l-.361-.271h-.633a32.068 32.068 0 0 0-1.897-3.975l-1.084-2.077a14.092 14.092 0 0 1-1.355-4.698 12.195 12.195 0 0 1 .633-4.065zm-2.71-.272a3.342 3.342 0 0 0 1.355.09 9.214 9.214 0 0 0-.542 4.427 15.718 15.718 0 0 0 1.536 5.059l1.083 2.077a67.35 67.35 0 0 1 1.807 3.613l-.542.362-.27-.18a38.752 38.752 0 0 1-13.822-17.074c2.891 1.175 6.143 1.446 9.395 1.626zm-14.544-17.163a53.928 53.928 0 0 0 1.536 6.956c.632 2.258 1.265 4.607 1.987 6.775.181.361.271.813.452 1.174a40.65 40.65 0 0 0 14.453 18.337h.18a3.162 3.162 0 0 0-.45.723 7.407 7.407 0 0 0-.453 3.704 32.88 32.88 0 0 0 3.162 12.104c-1.265 7.498-2.71 15.989-8.672 21.68l-2.89 2.439-2.168 1.716a57.722 57.722 0 0 0-7.046 7.859 63.955 63.955 0 0 1-4.517 5.33 16.17 16.17 0 0 1-4.336 3.522c-3.613 1.807-7.768 1.265-12.556.362h-.361a25.654 25.654 0 0 0-5.42-6.504c-5.6-5.33-11.382-10.84-17.795-15.447l-1.265-.903a34.326 34.326 0 0 1-5.962-4.878 17.524 17.524 0 0 1-3.432-6.052c-.904-2.62-1.084-4.878-.452-6.685a15.898 15.898 0 0 1 2.168-3.794l1.355-1.987a9.033 9.033 0 0 0 1.355-3.975c.09-.993.09-2.62-1.355-3.342a2.439 2.439 0 0 0-2.349.452l-.452.27-4.877 2.62a11.472 11.472 0 0 0-2.44 1.626c0-.27.09-.632.09-.903v-.18a1.536 1.536 0 0 1 .091-.633 1.355 1.355 0 0 1 .813-.452 11.472 11.472 0 0 0 3.071-2.077 11.833 11.833 0 0 0 2.259-2.891 9.665 9.665 0 0 0 1.174-3.433 10.207 10.207 0 0 0 0-3.703 3.613 3.613 0 0 0-1.265-2.53l.452-.993a6.865 6.865 0 0 0 .813 1.626 19.06 19.06 0 0 0 1.716 2.077l.633.723a17.795 17.795 0 0 1 2.62 3.794.542.542 0 0 0 .903 0 11.02 11.02 0 0 0 .632-1.536l3.071 3.975a4.336 4.336 0 0 0 2.53 1.897h.36a.452.452 0 0 0 .182-.361l.36-3.523a10.117 10.117 0 0 0-.45-5.42 8.491 8.491 0 0 1-.362-1.445h.27l.272-.271a25.022 25.022 0 0 0 .903-4.517l.452.361 1.897.994 2.077 1.084 2.53 1.987a19.06 19.06 0 0 0 2.077 1.717 13.098 13.098 0 0 0 6.053 2.348h.09a.452.452 0 0 0 .361-.18.361.361 0 0 0 .09-.452 10.66 10.66 0 0 1-.36-1.807l-.272-1.264c-1.264-5.51-4.697-9.937-8.491-14.273l1.174.452a21.77 21.77 0 0 0 5.872 1.084 9.936 9.936 0 0 0 4.245-.904.361.361 0 0 0 .271-.542 7.769 7.769 0 0 0-2.168-3.703 28.906 28.906 0 0 0-8.31-6.414 13.008 13.008 0 0 1 5.962-2.258c.27 0 .361-.18.452-.361a.542.542 0 0 0-.271-.542l-1.897-.904a13.46 13.46 0 0 0 5.871-1.445l-.27 1.626c-.453 5.059 2.167 10.388 6.322 12.827a1.716 1.716 0 0 0 .904.271l.722-.18a36.584 36.584 0 0 0 9.756-5.33 14.363 14.363 0 0 0-1.265 5.149 10.117 10.117 0 0 1-5.871 3.613 19.512 19.512 0 0 1-3.975-.18c-.722-.09-2.71-.09-3.161.722a1.355 1.355 0 0 0 .632 1.807 4.065 4.065 0 0 0 2.078.27 3.613 3.613 0 0 0-1.265 1.356 1.536 1.536 0 0 0 .09 1.806 1.716 1.716 0 0 0 2.259-.18 8.04 8.04 0 0 0 1.355-2.8 5.42 5.42 0 0 1 1.264-1.898 11.201 11.201 0 0 0 6.414-3.252c0 .994 0 1.897.09 2.8a38.12 38.12 0 0 0 2.62 9.576.18.18 0 0 0 .18.18 4.607 4.607 0 0 0-.18.814 13.098 13.098 0 0 1-.813 1.987 4.878 4.878 0 0 0-.452 1.897 1.355 1.355 0 0 0 1.265 1.355 1.445 1.445 0 0 0 1.084-.723 5.24 5.24 0 0 0 .451-1.265 1.536 1.536 0 0 0 1.536 1.446 1.897 1.897 0 0 0 1.897-1.084 2.258 2.258 0 0 0-.18-2.258c-.543-.813-1.446-.994-2.169-1.626l-1.987-1.536a34.416 34.416 0 0 1-2.349-8.943 16.711 16.711 0 0 1 1.446-9.394 3.704 3.704 0 0 1 .632-.994 14.634 14.634 0 0 0 1.626-1.716 25.745 25.745 0 0 0 3.071-4.427zm-.993-2.077a3.613 3.613 0 0 1-2.168.18 2.439 2.439 0 0 1-.903-.722 3.794 3.794 0 0 0 1.445-.362 42.185 42.185 0 0 0 4.426-2.439l1.265-.813c2.168-1.535 4.245-2.8 6.775-2.89h1.445a1.626 1.626 0 0 0 1.445-.18c.362-.362.362-.904.362-1.627v-.993c0-.362.09-.633.09-.994l.27-1.807v-.18a30.532 30.532 0 0 1 .724-3.072c.27-.993.451-2.077.722-3.161v-.271a.361.361 0 0 1 .09-.271 13.82 13.82 0 0 0 .271-2.71 11.924 11.924 0 0 0-.542-4.336 7.046 7.046 0 0 0-1.445-2.53l.903.362.452.361a7.407 7.407 0 0 1 1.807 2.259c1.806 3.522 1.264 7.768.542 11.02-.09.542-.271 1.174-.362 1.716a28.635 28.635 0 0 1-1.084 3.704l-.27.632a11.11 11.11 0 0 1-1.717 2.8l-.27.272c-1.988 1.987-4.879 2.98-7.498 3.793zm19.15-7.95h3.704l1.987 2.259a2.89 2.89 0 0 0-.723 1.264 24.66 24.66 0 0 1-4.968-3.522zm4.878 4.517v.632a25.654 25.654 0 0 1-8.852-2.98 9.665 9.665 0 0 0 1.716-2.53h.632a26.377 26.377 0 0 0 6.323 4.607zm-5.871-5.42a5.42 5.42 0 0 1-.723-.722c.361-1.175.723-2.259.993-3.433.271-1.174.09-.452.181-.723a67.102 67.102 0 0 0 3.794 5.059 16.53 16.53 0 0 1-4.245-.18zm-8.582 10.93-.813-.542-3.342-2.348 1.535-.452c2.44-.813 5.42-1.807 7.588-3.794a25.745 25.745 0 0 0 9.485 3.252h.09v.361a22.673 22.673 0 0 1-14.453 3.523zm29.087-3.703h-.09c-7.498 6.594-18.247 8.672-26.92 5.058l-.993-.722h1.084a23.125 23.125 0 0 0 12.827-3.794 6.323 6.323 0 0 0 2.89-.452l.543-.361h.903a.452.452 0 0 0 .452-.271.361.361 0 0 0-.09-.452l-.272-.27-.903-.995-.542-.632-.27-.27a1.445 1.445 0 0 0-.272-.814 1.716 1.716 0 0 0-.903-.451l-.271-.271-1.626-1.807a16.711 16.711 0 0 0 5.871-1.987l.271-.181c.09-.09 0 0 0-.09l3.343.632h.632l.903 1.355a25.745 25.745 0 0 0 4.246 4.607 3.704 3.704 0 0 0-.813 2.168zm-11.924-1.717.18-.27.181.18zm5.059-12.465c-.904-2.078-1.717-4.156-2.53-6.233a63.055 63.055 0 0 0 3.252 5.239zm7.949 11.2a26.016 26.016 0 0 1-3.975-4.335l-.451-.632h1.626l.903-.271 3.794 4.065a2.71 2.71 0 0 0-1.897 1.174zm5.33 3.704a1.355 1.355 0 0 0-.723-1.445 3.252 3.252 0 0 0-1.807-.542 1.174 1.174 0 0 0 .994-1.084 64.226 64.226 0 0 0 5.42 4.426 15.266 15.266 0 0 1-3.885-1.355zm-14.002-22.221c3.252 2.98 6.594 6.233 7.678 7.407A97.378 97.378 0 0 1 603 343.158a76.601 76.601 0 0 1-10.93-10.027 1.626 1.626 0 0 0 .723-1.355 1.897 1.897 0 0 0-1.446-1.807 5.24 5.24 0 0 0-2.077-.18l-.18-.271a4.697 4.697 0 0 0 .812-3.072.723.723 0 0 0-.18-.36c-.542-1.085-2.259-.814-3.252-.182h-.09a67.297 67.297 0 0 1-4.788-8.22zm.09 8.491-.542 1.445a14.543 14.543 0 0 1-.813 2.349l-.27.18a15.989 15.989 0 0 1-6.053 1.988c-1.536-1.807-2.89-3.794-4.246-5.691l-.451-.542c.722-3.433 1.264-7.678-.633-11.472a5.33 5.33 0 0 0-1.174-1.626l9.395.452.632 1.987a93.764 93.764 0 0 0 4.155 10.93zm-3.523-16.711a25.022 25.022 0 0 1-.903 2.348l-.271.271a199.957 199.957 0 0 0-10.388-.542 11.743 11.743 0 0 0 2.89-3.794c1.536-3.523.994-7.678.452-11.02v-.813l.542-.632a26.829 26.829 0 0 1 2.44 3.161 30.442 30.442 0 0 0 3.07 3.884 6.775 6.775 0 0 0 4.156 2.078h.813l.36-.18-.36.541-.633.994a35.862 35.862 0 0 0-1.806 3.162c-.181 0-.181.27-.362.542zm.994.451.18-.542a15.989 15.989 0 0 1 1.717-2.98l.632-.994a30.351 30.351 0 0 1 9.214-9.666 28.454 28.454 0 0 1 4.607-2.53l1.536-.812 3.07-1.355H603a221.584 221.584 0 0 1-21.228 19.692 2.168 2.168 0 0 1 .18-.722zm19.06 2.259a11.924 11.924 0 0 1 2.53-2.259 30.17 30.17 0 0 1 6.503-2.98c4.517-1.536 9.395-1.988 14.092-2.44l3.974-.27a87.26 87.26 0 0 1-12.465 3.884c-5.42 1.355-11.111 2.8-15.808 5.42a5.781 5.781 0 0 0 1.174-1.355zm6.504 17.795a56.548 56.548 0 0 1-7.588-12.737l22.222 20.957c-5.15-.361-10.479-3.342-14.634-8.22zm15.176 7.136.27.452-22.492-21.228c9.394 4.336 16.802 13.279 22.222 20.776zm-20.777-22.312h-1.897c4.698-2.71 10.388-4.155 15.899-5.6a88.344 88.344 0 0 0 12.285-3.794 37.126 37.126 0 0 1-20.686 8.852h-.542l-3.613.271zm43.36 17.525-3.523-.181a38.12 38.12 0 0 1-7.137-1.265c-3.523-.903-6.775-3.613-9.756-6.052l-.451-.452-.903-.632c-.813-.542-2.71-1.807-2.981-2.53a14.543 14.543 0 0 1 5.51 1.356c2.8 1.264 5.51 2.71 8.13 4.065a117.793 117.793 0 0 0 11.833 5.6zm-10.57-6.414c-2.619-1.355-5.42-2.8-8.22-4.065a19.24 19.24 0 0 0-4.426-1.355h1.084a15.627 15.627 0 0 1 2.89.271 46.25 46.25 0 0 1 5.06 1.355l.36.18h.091a40.288 40.288 0 0 1 15.085 9.305 119.238 119.238 0 0 1-11.923-5.691z"/></g></svg>