<svg xmlns="http://www.w3.org/2000/svg" width="1024" height="1024" viewBox="0 0 1024 1024"><circle cx="512" cy="512" r="512" fill="#f9f5f2"/><path d="M469 546a850 850 0 0 0-50-226c-13-34-31-63-47-84-18-26-39-42-55-50-3 0-5-2-5-2-11-3-19-3-24 0-8 2-13 10-16 18l-2 8c-5 13-8 31-8 50 0 13-3 29-5 42l-11 42-13 52c0 13 3 24 5 37 6 13 13 24 24 37l31 34a448 448 0 0 1 79 58l29 28v8c-3 8-5 8-13 6-3 0-3-3-5-3-11-5-29-21-50-37-16-13-32-26-47-42l-3-2-13-8c-16-8-32-13-45-16s-23-3-31 0-16 8-21 13l-16 26c-3 13-5 29-5 48 0 21 2 47 5 73 3 21 8 42 16 58 8 15 18 26 29 31 13 5 26 8 44 8 19 0 37-3 58-8s42-13 60-21c27-13 50-29 61-37l8-5c5-2 10 0 10 5 3 3 0 8-3 11l-7 8-24 26-21 29c-5 8-8 16-8 18l13-10 24-26c16-16 29-35 39-32 11 3 11 13 8 26 0 6-3 13-5 21l-8 34a98 98 0 0 0 8 63c2 6 8 8 16 8h26c10-2 21-2 34-8 13-5 26-10 42-21 16-10 31-23 50-39 15-16 29-31 39-45 11-15 18-28 18-39 0-10-2-18-10-26-8-5-18-11-32-13l-34-8c-8 0-13-3-15-3h-6c-47-2-70-10-73-15h-3c-2 0-5 0-8-3-5-5-2-8 0-11 6-5 19-21 24-34 3-5 3-8 3-10-6 2-11 13-19 23l-5 6c-5 8-10 15-16 21-10 10-18 13-21 2-2-2 0-8 0-13 0-10 3-34 0-73zm-2-126c10 47 15 92 18 123 3 29 3 50 0 63l8-8 5-5c11-13 21-26 29-31h8c5 0 8 2 10 5 3 2 3 5 3 10v6l13-11 37-29 50-34c18-13 39-26 65-39 24-13 53-29 79-45l76-37c24-8 45-13 61-15 18-3 31 2 36 13 6 10 3 21-5 36l-31 48-45 55-47 50c-16 15-32 31-50 44-16 13-32 24-50 29-16 8-34 11-50 11h-5l2 2c14 11 19 24 19 40-3 15-11 31-21 47-11 16-26 31-42 47s-34 32-50 42c-16 11-31 18-45 24-13 5-26 8-36 10-11 3-21 3-32 0-10-2-18-5-26-13-5-8-11-18-13-31-3-14 0-29 0-45l8-37c2-8 2-16 5-21v-2l-18 21c-8 10-19 18-24 26-8 8-16 13-21 13s-8 3-11 0c-5 0-7-3-7-8-3-3-3-8-3-10 0-8 5-16 10-27l16-23c-8 2-13 8-21 10-21 8-42 16-63 21s-42 8-60 8c-21 0-37-3-53-10-15-8-26-21-36-40-8-16-14-39-19-60-5-26-5-55-5-76s3-40 8-53 10-26 18-34 19-16 29-18c11-3 24-3 39 0 8 2 14 2 21 5l-2-3c-11-13-21-26-26-39-6-13-8-29-8-45 0-18 8-36 13-57 5-13 8-27 10-42 3-13 6-26 6-40 2-18 2-36 10-52 0-3 3-5 3-8 5-10 13-21 23-26 11-5 24-5 40 0l8 2c18 8 39 29 60 56 18 23 34 52 50 89 13 34 23 71 34 107zm-13 302-3 2c3-2 5-2 3-2zm136-82c3 0 10 0 18 3 8 0 19 3 29 3 16 2 29 2 45 2s29-2 44-10a369 369 0 0 0 92-73c16-17 32-32 45-51a822 822 0 0 0 73-99c6-11 8-19 6-21-3-3-8-6-21-3a624 624 0 0 0-131 50c-27 13-53 29-77 42-23 13-44 26-63 39l-50 34c-13 11-26 19-36 29-11 8-21 16-29 24-13 10-21 21-26 26 8-3 31-5 73 3h3z"/></svg>