<svg xmlns="http://www.w3.org/2000/svg" width="1024" height="1024" viewBox="0 0 1024 1024"><circle cx="512" cy="512" r="512" fill="#f9f5f2"/><g id="logo-desaprende" fill="#b27a61"><path d="M150.2 508.8a248.3 248.3 0 0 0-2.4 19.4 101.8 101.8 0 0 0 .6 16.5l-8.6-1.2c-.5-3.6-1.4-6.2-3-7.5-1.4-1.4-4-2.2-7.6-2.3l-49.2-2a13 13 0 0 0-5.5.5c-1 .5-1.5 1.5-1.6 3.2l.1 2.7v1.7l-1.2.6L64 539l.5-6.7a252.5 252.5 0 0 0 .8-21.4v-8.5a50 50 0 0 1 5.6-22 33 33 0 0 1 14-14 49 49 0 0 1 44.6 2.5 41.8 41.8 0 0 1 15.7 16.6c3.7 7 5.3 14.7 5 23.3zm-74.3 1c0 1.4.1 2.3.6 2.8.4.5 1.2.9 2.4 1 23.9 2.1 40.8 3.4 50.6 3.8 2.6.1 4.6-.1 6-.7a5 5 0 0 0 2.8-3.2c.6-1.5 1-3.8 1-6.8.4-7.6-2-13.5-7.3-17.7a39 39 0 0 0-23.2-7c-10.9-.4-19 1.7-24.3 6.3-5.4 4.5-8.2 11.7-8.6 21.5zm0 0"/><path d="M161.2 351c5.7 3.6 12.7 7.5 21 11.7l1 1.7c-6.5 15.2-11.5 27.6-15.2 37.2-2.6 6.8-4.7 13.9-6.6 21.2l-7.8-4c.8-3.5.7-6.2-.3-8-1-1.8-3.2-3.3-6.8-4.6l-46-17.7c-2.6-1-4.4-1.4-5.4-1.2-1 .2-1.8 1.1-2.5 2.7l-1.2 3.8-1.4.3-6.9-3.7 1-2.3c2.4-5.7 5-12.1 7.7-19.4a307 307 0 0 0 12.5-37.3l1.7-.4a122.8 122.8 0 0 0 20.8 11l-3.3 11-4.8-2c-2.4-1-4.2-1.2-5.5-1-1.2.4-2.4 1.5-3.6 3.4a66.9 66.9 0 0 0-5.9 14.6c-.1.8 0 1.5.5 2s1.3 1 2.6 1.5l18.6 8 4.5-11.2A542.4 542.4 0 0 0 134 354l1.4-.6 9.6 5.7-1 2.3-5.3 13.3c-1 2.5-1.9 5.7-2.8 9.6l17.2 6.9a16 16 0 0 0 5 1.2c1.1 0 2-.4 2.7-1.3a57.4 57.4 0 0 0 6-17c.2-2.6-.3-4.8-1.8-6.5a29.6 29.6 0 0 0-8.2-6l3-10.1zm0 0"/><path d="M222 303a50.5 50.5 0 0 1-17.6 15l-2-.4-2.8-2.8a221.3 221.3 0 0 0-13.5-12.3l6-8.9c3.8 3 7 5 9.6 5.9a9 9 0 0 0 7 0c2-1 4.2-3 6.6-6 2.5-3.3 3.8-6.4 4-9.5 0-3-1.2-5.6-3.7-7.5-2.3-1.8-5-2.2-8.1-1.3a76.8 76.8 0 0 0-16 6.8 59 59 0 0 1-17 5.9c-4.9.7-9.5-.6-14-4-3.8-3-6.4-6.8-7.7-11.5-1.3-4.8-1.2-9.9.3-15.3a45.1 45.1 0 0 1 8.2-16.1 67.7 67.7 0 0 1 13.2-13c1.6-1.1 2.7-1.8 3-2.2l2 .3a101 101 0 0 0 8.2 9c2.3 2.4 4.7 4.7 7.3 7l-5.3 8-1.4.5-1-1.1-2.4-2c-3-2.4-5.9-3.3-8.4-2.7-2.4.5-5 2.6-7.9 6.2-2.2 2.9-3.4 5.8-3.4 8.8a8 8 0 0 0 9 8.6c2.3-.2 4.5-.7 6.8-1.6l9.4-4.4c4.8-2.4 8.9-4.3 12.3-5.6 3.4-1.3 7-1.9 10.6-1.7 3.6 0 7 1.3 10.3 3.8 4 3.2 6.7 7.2 8 11.9 1.2 4.7 1 9.9-.6 15.5a49.5 49.5 0 0 1-9 16.8zm0 0"/><path d="m262 219.8-5.3-8.5 15.5-14.7 4.7-4.7 2-2 2 .5 5.2 8.7-22.1 21.2zm0 0"/><path d="m379.3 181.5-2.2-7.3 5.6-3c1.1-.9 1.8-1.6 2.1-2.3.3-.7.2-1.6-.2-2.7-.4-1-1.1-2.2-2.2-3.9L376 154a131.5 131.5 0 0 0-19.9 8.4l-2.4 1.2.7 10.5c.2 2 .4 3.3.8 4 .5 1.5 1.3 2.3 2.4 2.5 1 .2 2.6-.1 4.7-1l5.2-2 1 .6 2 7.7-7.4 2.4a244.2 244.2 0 0 0-24.7 10l-2.3-8.2c1.7-1 3-2.5 3.7-4.1.8-1.7 1.1-4 1-7.2l-2.7-69.3 17.5-9.4h1.6c3 4.2 9.3 12.5 18.7 25.1a864.6 864.6 0 0 0 23.4 30.2c2 2.5 3.9 4 5.7 4.7 1.8.7 4.1.6 7-.2l.8.6 2 7.3-6 2.1a267.3 267.3 0 0 0-28.6 12.4zm-18-32.5 8.8-4-17.9-23.9-1.5.6 2 30.7zm0 0"/><path d="M454.4 152.2c3.4-.8 5.7-2 6.8-3.5 1-1.6 1.5-4.2 1.2-7.9L459 91.6c-.2-2.8-.6-4.6-1.3-5.4-.6-1-1.7-1.4-3.3-1.2-1 0-1.9.1-2.7.3l-1.6.3-1-1 .6-7.8 16.2-1a567.5 567.5 0 0 0 19.3-2c11-.7 19.1 1 24.2 5.4 5.2 4.3 8 10 8.5 17 .4 5.2-.7 10-3.3 14.8a32.8 32.8 0 0 1-10.6 11.6 30 30 0 0 1-14.8 5.2l-10.8.8.4 9.7c.2 3.4.6 5.8 1 7.4.4 1.5 1 2.5 2 3 .8.5 2.1.7 3.9.5 1.2 0 2.3-.2 3.4-.4l2.3-.3.4.7-.6 8.3-6.5.4a232 232 0 0 0-30.7 3zm34.9-34.1c7.8-2.3 11.4-8.5 10.7-18.6-.4-5.5-2.2-9.3-5.5-11.7-3.3-2.3-8.3-3.2-15-2.8-1.1.1-1.9.3-2.2.6-.2.2-.4.8-.4 1.9 0 7.7.3 17.6.8 29.7zm0 0"/><path d="M621.3 174.9c-5.4-1.4-9-6.4-10.8-15L605 135l-9-2.2-3.6 14.2c-.8 2.9-1 5-1 6.4.2 1.4.8 2.4 1.8 3.2 1 .7 3 1.5 5.9 2.3l.2.7-3 7.5-7.8-2.2a512.5 512.5 0 0 0-20-4.8l-6.6-1.1 3.1-8.1c3.7.5 6.3.2 7.8-1 1.6-1.1 2.8-3.5 3.7-7l11.8-48.6c.6-2.5.7-4.2.3-5.1-.3-1-1.2-1.6-2.8-2a35.1 35.1 0 0 0-4.3-.9l-.5-1.1 3-7.3 6.3 1.7a480.3 480.3 0 0 0 28.3 6.4c9.6 2.4 16.4 6 20.5 10.9 4.2 5 5.5 10.9 3.8 17.9-1.2 4.8-3.8 9-7.7 12.4a35 35 0 0 1-15.1 7.3l6.7 20.6c1.4 4.4 3 7.7 4.7 9.9a12 12 0 0 0 6.7 4.3l.6 1.4-2.4 6.3zM610.1 126c3-.5 6-1.6 8.8-3.4 2.8-1.7 4.8-5 6-9.9 1-4.6.4-8.4-2.2-11.4-2.5-3-7-5.3-13.5-6.9-.8-.2-1.4-.1-1.8.1-.4.3-.7 1-1 2.2-2.6 8.5-5 17-7.3 25.3zm0 0"/><path d="M743.5 207.5c-4.7 5-9.9 11-15.5 18.4l-1.8.6c-13.7-9.2-25-16.5-33.8-22-6.1-3.7-12.6-7.2-19.4-10.4l5.3-6.9c3.3 1.5 6 1.9 7.9 1.3 1.9-.7 3.9-2.6 5.9-5.8l26-42c1.4-2.3 2.1-4 2.1-5 0-1.1-.6-2-2.1-3-1-.6-2.1-1.2-3.5-1.8v-1.5l4.9-6 2.1 1.3c5.1 3.5 11 7.2 17.6 11.3a316.7 316.7 0 0 0 34.2 19.3l.1 1.7a175.3 175.3 0 0 0-14.8 18.3l-10.1-5.3 2.8-4.3c1.4-2.2 2-3.9 2-5.2 0-1.3-.9-2.7-2.6-4.2a76 76 0 0 0-13.1-8.5c-.8-.3-1.5-.2-2.1.1-.6.4-1.3 1-2.1 2.2L722 167l10.3 6.4a262.5 262.5 0 0 0 13.4 7l.3 1.5-7.4 8.4-2.1-1.5-12.1-7.7c-2.3-1.5-5.2-3-8.9-4.6l-10 15.6c-1.2 2-2 3.6-2.1 4.7-.3 1 0 2 .8 3a50.1 50.1 0 0 0 15.5 9c2.5.7 4.7.6 6.7-.5s4.5-3.4 7.4-7l9.5 4.8zm0 0"/><path d="M802.3 306.9a1422.6 1422.6 0 0 0 20.4-66.7l-.7-.8-31.5 25.8c-1.7 1.5-2.7 2.7-3 3.6-.2 1 .2 2.2 1.3 3.5l3.8 4.2-.2 1-7 4.2a413.6 413.6 0 0 0-10.2-13 95.6 95.6 0 0 0-6.2-6.9l-4.4-4.5 7.1-4.7c2 1.8 3.8 2.8 5.5 3 1.8 0 3.6-.6 5.7-2.2l40.6-31.5c2-1.7 3-3.5 3-5.3 0-1.7-1.2-4.4-3.5-8l.3-1.4 6.3-4 3.5 5a223.8 223.8 0 0 0 10 12.2 47 47 0 0 0 3.5 3.6 1107.8 1107.8 0 0 0-19 61.3l.7 1 30.2-25.4c1.5-1.3 2.3-2.5 2.6-3.6.2-1-.1-2-1-3.2l-3-3.3.4-.9 6.8-4.4a140.3 140.3 0 0 0 10 12.9c1.7 2 3.6 4.2 5.8 6.5l4.4 4.8-7 4.9c-2.2-2-4.1-3-5.9-3.3-1.7-.2-3.6.5-5.6 2L811.9 316zm0 0"/><path d="M850.3 393.2a199.2 199.2 0 0 0-5-18.9 116 116 0 0 0-6.9-15l8.4-2.1c1.9 3.2 3.7 5.1 5.6 5.8 1.9.8 4.5.5 8-.8l46.2-16.7c2.6-1 4.2-1.8 5-2.6.7-.8.8-2 .2-3.6l-1-2.4-.8-1.5 1-1 7.7-1.8 2.1 6.4a247.2 247.2 0 0 0 7.3 20.1l3.3 8c2.9 8 4 15.6 3.2 22.5-.8 7-3.4 13-7.7 18.2a49.8 49.8 0 0 1-42.3 14.5c-7.9-1.2-14.8-4.3-20.8-9.4-6-5-10.5-11.6-13.5-19.7zm68.5-29c-.5-1.3-1-2.1-1.6-2.5-.6-.3-1.4-.3-2.7 0-23 7.1-39 12.3-48.2 15.7a14 14 0 0 0-5.3 2.9c-1 1-1.5 2.3-1.5 4 0 1.6.6 3.9 1.7 6.7 2.5 7.1 7 11.7 13.4 13.7s14.5 1.1 24.2-2.4c10.3-3.7 17-8.7 20.2-15 3.2-6.2 3.1-13.9-.2-23.2zm0 0"/><path d="M900 543.6c-6.8-1.3-14.8-2.3-24-3l-1.5-1.2c.2-16.5.2-29.9-.1-40.2-.2-7.3-.8-14.6-1.8-22l8.7.6c.6 3.6 1.7 6 3.2 7.3 1.6 1.3 4.3 1.8 8.1 1.8l49.3-1.2c2.8 0 4.6-.4 5.5-1 .9-.5 1.3-1.6 1.2-3.3 0-1.1 0-2.4-.3-4l1.1-.8 7.9.9v2.5c-.1 6.1 0 13 .2 20.8.4 19.2 1.3 32.3 2.5 39.3l-1.4 1a136.5 136.5 0 0 0-23.5-2.4l-1-11.5 5.2.2c2.5 0 4.3-.5 5.4-1.2 1-.8 1.7-2.2 2-4.4a74.8 74.8 0 0 0 0-15.8c-.2-.9-.6-1.4-1.2-1.7-.6-.3-1.6-.4-3-.5l-20.3-.4.2 12.2a88 88 0 0 0 1.5 14.9l-1 1.1-11.1-1.6v-16.8c-.1-2.8-.5-6-1.1-10l-18.5.2c-2.4 0-4.1.3-5.1.7-1 .4-1.7 1.2-2 2.2a56.8 56.8 0 0 0 1 18 8.6 8.6 0 0 0 4 5.4c2 1 5.2 1.8 9.8 2.4l1.2 10.5zm0 0"/></g><g id="logo-icon"><g id="logo-icon-face"><path d="M468.2 803c0 .7-.8 1-1.5 1-.8 0-1.1-.7-1.1-1.5l2.2-19c.7-5.9 1-11.8 1.5-16.7.3-4.1.3-7.8.3-11.5 0-4.9 0-9 .8-13 .3-1.9.3-3.7.7-5.3a46.4 46.4 0 0 0 .8-17.9c-.8-4.4-2.6-9.6-4.9-14.8a96 96 0 0 0-8.9-15c-4.5-5.5-9.3-10.4-13.8-14.8a77.4 77.4 0 0 1-16-19l-2.6-4.1c-1.1-1.2-1.9-1.5-2.2-1.5a2 2 0 0 1-1.9-1.1c-.4-.4-.4-1.2-.4-1.9 0-1.5-.3-3.7-1.4-6.7a58.4 58.4 0 0 0-4.5-7.8c-1.9-3-4.1-5.6-6-7.8-1.9-2.3-4-4.1-6-5.6-1.8-1.9-3.7-3.4-5.5-5.6a78.5 78.5 0 0 1-5.6-7.8c-1.8-3-3.7-6.7-6-11.2l-7-14.9c-2.3-5.2-4.5-10.4-6.7-16a78 78 0 0 0-2.3-6 105.3 105.3 0 0 0-10.4-22.3 24 24 0 0 0-6-6.4 10 10 0 0 0-4-1.8 10.5 10.5 0 0 1 1.8 4c.8 2.7 1.1 5.6 1.1 8.3 0 2.6 0 5.2-.3 6.7l-.8 1.8 3.4 7.9c3.3 8.5 5.2 17.8 7.4 27.8l3.3 15.8c1.5 5.2 3 10 5 14.4 2.1 5.3 4.7 9.8 7 13.8 1.8 3.4 3.3 6 4.4 8.6 1.5 3.3 1.9 6.4 1.9 7.8 0 .4 0 1.1-.4 1.1-.4.8-1.1 1.2-1.8.8-.4 0-.8-.8-1.2-1.1a23.5 23.5 0 0 1-2.2-6.5 151 151 0 0 0-4.8-13.3l-4.5-9c-2.6-4.5-5.2-9.7-7.8-16a226 226 0 0 1-8.6-31c-.7-2.9-1.5-6.2-1.8-8.4-1.5-6.4-3-12.7-5-18.7-.3-.3-.3-.7-.3-1.5a33.2 33.2 0 0 1-2.2-8.2c-1.1-3.7-2.2-7-3.4-10a63.6 63.6 0 0 0-5.1-11.2 37.4 37.4 0 0 0-21.3-15.6c1.1.4 1.9 1.5 3 2.2a15 15 0 0 1 3 6c.7 2.6 1.4 5.2 1.4 7.4 0 1.2 0 1.8-.3 2.6a3 3 0 0 1-1.5 1.5c-.7.4-1.5.4-2.2 0 0 0-.4 0-.4-.3l4 6.3c4.5 7 10.2 15.6 15 25.7a310.3 310.3 0 0 1 12.6 30.5l4.5 12c3.7 9.2 7 16.6 9.3 21.1.8 1.5 1.5 2.6 1.9 3.7.3 1.2.7 1.5.7 1.9.4 1.9-.4 2.3-1.8 1.5-.4 0-.4-.4-.8-.8-.4-.7-1.5-2.6-3-4.8-.7-1.5-1.8-3.3-2.6-5.2-1.4-3-3-6-4.4-8.2l1.5 4.5c1.5 3.3 3.3 6.3 5.5 10 1.2 1.5 2.3 3.4 3.4 5.3 1.8 3 3.7 6.7 6 10.8l5.5 13c1.2 3.4 2.3 7 3.4 11.2 1.9 6.6 4 14.1 7.4 22.3a298 298 0 0 0 12.7 27.2c2.2 4.9 4.5 9.3 6.3 12.7 2.3 5.1 3.7 9.2 4.5 13 .7 3.7.7 7.4.7 12.3-.3 5.2-.7 11.5-1.8 18.6a189.4 189.4 0 0 1-9.7 38.7c-2.2 6.7-4.8 13-7.1 19-.4.8-.7 1.1-1.5.8-.7-.4-.7-.8-.7-1.5a392.4 392.4 0 0 0 7-19c2.3-6.3 4.2-13 6-19.8 1.5-6.3 2.6-12.6 3.7-18.5 1.2-7.1 1.5-13.5 1.9-18.7.4-4.8 0-8.2-.7-11.5a55.7 55.7 0 0 0-4.5-12.3c-1.9-3.7-3.7-8.2-6-12.7-4.5-8.6-9.2-18.6-12.6-27.6a227.1 227.1 0 0 1-7.5-22.7c-1-4-2.2-7.4-3.3-11.1a132 132 0 0 0-10.8-23.5l-3.4-5.2-6-10a33.6 33.6 0 0 1-2.5-8.3V594c.4-1 .7-1.5 1.8-1 .4 0 .8.3 1.2.7.3.3.3.7.7 1-.7-1.4-1.1-2.9-1.9-4.8a408 408 0 0 1-4.5-11.8c-3.7-10.1-7.8-20.9-12.2-30.6-4.8-9.7-10.5-18.3-14.9-25.3l-5.2-7.8-2.3-4.2-2.2-2.6a17.7 17.7 0 0 1-3-6.6c-.4-.8-.4-1.9 0-2.6 0-1.5.8-2.6 1.5-3.8a4.6 4.6 0 0 1 3.7-1.8c.8 0 1.9-.4 2.6 0 2.3.4 5.2 1.5 7.8 3 3 1.8 6.4 4 9 6.3 2.6 2.2 4.5 4.4 6.3 7.4 1.9 3 3.4 6.7 5.2 11.6.4 1.5 1.1 3 1.9 4.8 0-.4.3-.4.3-.7.8-1.5 2.3-2.3 4.2-2.6h.4c1.8 0 4.4.7 7 2.6a22 22 0 0 1 6.3 6.6c3.7 5.6 7 13.8 10.5 22.8l2.2 6 6.7 16a177 177 0 0 0 7 14.5c2.3 4 4.2 7.8 6 10.8 2 3 3.4 5.6 5.3 7.4 1.8 1.9 3.7 3.7 5.5 5.2 1.9 1.9 4.1 3.4 6 5.6 2.3 2.3 4.5 5.2 6.3 8.2 1.9 3 3.8 6 4.5 8.2 1.5 3.4 1.5 6 1.9 7.4v1.2c.7 0 2.2.4 3.7 2.2l3 4.1c1.8 3 4.5 6.7 7.8 10.8 2.2 2.6 4.8 4.9 7.4 7.5 4.5 4.4 9.7 9.2 14.2 14.8a96 96 0 0 1 9.3 15.3 57.1 57.1 0 0 1 5.2 15.3 50.7 50.7 0 0 1-.8 18.5c-.3 2-.7 3.8-.7 5.3-.4 4-.4 8.2-.8 12.7 0 3.3 0 7-.3 11.5-.4 5.3-.8 10.8-1.5 17.1l-2.2 19zm-44.4-154.6ZM350.5 546c.4-1.5.4-3.4.4-5.6 0-2.6-.4-5.6-1.1-7.9-.4-1.8-1.2-3-1.6-3.7h-.4s-.3 0-.3.4c-.4.4-.8.7-.8 1.5-.3 1.1-.3 2.6-.3 4.5.3 3 2.2 6.7 4.1 10.8zm2.6 12c-.7-2.3-1.9-4.6-3-6.8 1.1 3.7 1.9 7.4 2.6 10.8.8 3.3 1.5 6 1.9 8.5 2.6 11.6 5.2 22.4 8.5 30.6.4 1.5 1.1 2.6 1.5 3.7l-1.1-3.7c-1.5-5.2-2.6-10.4-3.7-15.6-2.2-10.1-4-19.4-7.4-27.6zM313 512l3 3c.7.4 1 .7 1.4 1.1h.4l.4-.4c0-.3.4-1 .4-1.8a22.7 22.7 0 0 0-3.7-12 5.8 5.8 0 0 0-3-2.2c-.4 0-1.1-.4-1.5-.4-.4 0-.8 0-.8.4l-.3.4c-.4 1 0 3 .7 5.5.8 1.9 1.5 3.8 3 6.4z"/><path d="M311.4 733.3c-.7 0-1.1-.7-1.1-1.1 0-.8.7-1.1 1.1-1.1 8.5.3 17.5.7 25.7.7 8.1 0 16.4-.4 23.8-1.5a113.9 113.9 0 0 0 20.9-5.2c6.6-2.3 13-4.9 19.3-7.4.8-.4 1.5 0 1.5.7.4.7 0 1.5-.7 1.5-6.3 2.6-12.7 5.2-19.4 7.4a126.4 126.4 0 0 1-45.4 6.7c-8.6 0-17.2-.3-26-.7z"/><path d="M436.2 663.6c-.4.4-1.2.8-1.5.4-.4-.3-.8-1-.4-1.4 1.5-2.7 3.3-5.6 3.3-9.3 0-2.3 0-4.5-.7-7.1-.4-2.6-1.1-5.6-1.9-8.6 0-.8.4-1.2.8-1.5.7 0 1.1.3 1.5.7.7 3 1 5.6 1.8 8.6.4 2.6.8 5.2.8 7.4-.4 4.5-1.9 7.5-3.7 10.5v.4z"/><path d="M553.4 819.7c0 .7-.7 1.1-1.5 1.1-.7 0-1-.7-1-1.5 1.4-14.8 2.9-29.7 2.9-43.5 0-6.4 0-12.7-.4-18.3-.3-6.3-1-12.3-1.5-17.5-.3-1.5-.3-3-.7-4.5-1.1-7.8-2.2-14.5 0-22a53 53 0 0 1 6.3-14.1c3-4.8 6.4-10 10.1-15.2 1.9-2.7 3.3-5 5.2-7.2 6-8.1 12.3-16.7 17.1-25.3 3-5.2 5.6-10.7 7.8-15.3 2.3-4.8 4.5-9.2 6.4-12.2 1.9-3 4.1-5.2 6.3-7.1 2.3-2.3 4.5-4.5 6.7-7.8 1.9-3 3.7-7 6-11.2 2.6-5.5 5.2-11.5 8.6-16.4 3.7-5.5 7.7-9.7 11.8-14.1 2.7-3 5.3-5.6 7.9-8.6 3.3-4 6.7-9.3 9.6-13.8 2.6-3.7 5-7.4 7.5-10.4.4-.7 1.1-1.5 1.5-1.8-.4 0-.7 0-1-.5-1.2-.7-1.6-2.6-.8-5.5.3-2.6 1.4-6 2.6-9.7 1-3.7 3-7.4 4.4-11.1 1.5-3.4 3-6.8 4.5-9.7-.8.3-1.1.3-1.9 0 0 0-.4 0-.4-.4-.7-.8-1-3-1-5.2 0-2.3.7-5.3 1.4-7.9a31 31 0 0 1 3-7c.4-.8 1.1-1.5 1.5-2.2h-1.1c-1.2 0-2.3.3-3.4.7 0 .7-.7 1.1-1.1 1.1h-.4c-.3.4-.7.4-1 .8-.5.3-.8.7-1.2.7a47.2 47.2 0 0 0-7.4 8.9c-2.7 4-5 9-7.1 14.5-2.3 5.6-4.1 11.6-6.4 17.6-1.8 5.5-3.3 10.7-5.5 15.2a170.8 170.8 0 0 1-7.9 16.4c-1 2.2-2.6 4.4-3.3 6.7-1.5 3-2.6 6-3.7 9-1.1 3.3-1.9 6.3-2.6 9.2-.4 1.2-.4 2.7-.8 4.2a29.3 29.3 0 0 1-3 10 18.4 18.4 0 0 1-4 3.7c-1.2.8-2.3 1.5-3.4 2.6-1.1 2.3-2.3 4.5-3 6.4-1.5 3.3-3 6-3.3 6.7-.4.3-.8.3-.8.3-1.1 0-1.5-.3-1.5-1.8 0-.4 0-.8.4-1.5a39 39 0 0 1 4.8-9.7c.8-.8 1.1-1.5 1.9-2.2.4-1.2 1-1.9 1.5-3l2.6-4.1c1.4-2.2 2.6-4 3.7-7.8.8-2.2 1.2-5.3 1.8-8.2 1.2-5.6 2.3-12 4.6-18a84.8 84.8 0 0 1 5.5-13.3c1.9-4 4.1-8.6 6-14.2 1.8-5.5 3.7-11.8 5.5-18.5 1.9-6.4 3.4-12.7 5.3-18.3 1.8-6 4.4-11.2 6.7-16a48.2 48.2 0 0 1 7.4-11.1c2.3-2.7 4.5-4.2 6.7-5.3 2.6-1.1 5.2-1.5 7.1-1.1 1.9.4 3.7 1.1 4.8 2.6 1.2 1 1.9 3 2.3 4.8a14.2 14.2 0 0 1-1.1 7c0 .5-.4.9-.4.9-.3.7-1.1 1-1.8.7-.5 0-.8-.4-.8-.7v-3c0-2.3.3-5.6 0-6.7 0 0 0-.4-.4-.4h-.4c-.3 0-.7.4-1 .4-.8.7-1.6 1.4-2.3 2.6a24.8 24.8 0 0 0-2.2 9.7c1-.4 1.8-.4 3-.4 1.4 0 2.9.4 4 .7h.4c.7 0 1.5.8 1.8 1.5.5.8.8 1.5.8 2.3.4 1.4.4 3 0 4.8-.7 3.7-2.6 7.8-5.2 13l-1.1 2.3c-1.5 3-3.4 6.7-4.9 10.4-1.4 3.7-3.3 7.4-4.4 11.2-1.1 3.7-2.2 7-2.6 9.3-.4 1.9-.4 3 0 3 .4.3 3-1.9 6-4.5l3.3-2.6 3-2.6c4-3.3 8.5-6.7 12.3-11.6 2.2-2.5 4-5.9 5.9-8.9 2.2-3.7 4.5-7.4 6.7-9.6a9 9 0 0 1 6.4-3c2.2 0 4 .7 5.2 2.2 1 1.5 1.8 3.4 2.2 5.2 0 1.2 0 2.6-.4 4.1 0 1.1-.7 3-1.5 4.5-1 2.2-2.2 4.4-3.7 7-1.5 2.3-3 5-4.8 7.5-1.9 2.6-4.2 6-6.8 10l-.3.4c-5.6 8.3-13.8 20.1-20.5 31.3-3.4 5.6-6.3 11.2-9.3 16.4a214 214 0 0 0-7.8 16.4c-2.3 5.2-4.5 10-5.6 13.8-.8 2.2-1.1 3.7-1.5 4.8l1.5-1.1c1.8-1.5 4.4-3.7 7.8-4.8a20.1 20.1 0 0 1 9.3-1.2c3 .4 5.6 1.9 6.7 3.8.4.7.7 1.8.7 3 .8.3 1.2.7 1.2 1.4 0 .4 0 1.1-.4 1.5-1.1 1.9-4.8 4.9-9 8.6a108.3 108.3 0 0 0-16.6 16c-2.7 3-5.3 6.7-7.5 9.7a72.4 72.4 0 0 1-4.8 6c-.8.7-1.5.3-2 0-.6-.8 0-2.3 1.2-4.9.8-2.2 2.2-5.6 3-8.5 1.8-6.8 2.6-14.3 3.3-22v-1.9c.8-7 1.5-14.5 1.1-17.1l-.3.4a31.6 31.6 0 0 0-3.4 7c-1 3.4-1.8 7.4-2.6 10-.3 1.2-.3 1.9-.7 2.7 0 .4-.4.7-.4 1.1 0 .4-.4.4-.4.8-.3.3-.7.3-1 0h-.4c-.4-.4-.9-1.9-.9-4.2 0-1.5.5-4 1.2-6.3.4-2.2 1.1-4.5 2.3-6.3 1.8-4.1 4-7.4 6.6-11.2l6-9c1.8-3.3 3.3-7 4.8-11 1.9-4.6 3.4-8.7 5.6-12.8 2.6-4.8 6.3-9.2 9.3-13.4l1.1-1.1h-2.2a3 3 0 0 1-1.5-1.5c-.4-.4-.4-1-.4-1.8 0-1.5.8-3.8 1.9-6 .7-1.8 1.9-3.7 3.3-5.5a9.7 9.7 0 0 1 3.4-2.7l2.6-1.1h.4a6.3 6.3 0 0 0-3.7-1.1h-1.5c-2.3 0-4.1 1-6.4 2.6a31.7 31.7 0 0 0-7 7 126 126 0 0 0-7.1 10.5 129 129 0 0 1-9.7 13.8c-2.6 3.3-5.2 6-7.8 8.9a83.8 83.8 0 0 0-11.6 13.8c-3.3 4.8-5.9 10.8-8.5 16-2.3 4.5-4.1 8.6-6 11.5-2.2 3.7-4.4 6-7 8.3a54 54 0 0 0-6 6.6c-1.8 3-4 7.5-6.4 12.3-2.2 4.9-4.8 10-7.8 15.7A213.7 213.7 0 0 1 575 679c-1.8 2.6-3.7 4.9-5.2 7-3.7 5.3-7 10.5-10 15.3-3 4.9-4.9 9.3-6 13.4a51 51 0 0 0 0 21.3c.4 1.4.4 3 .7 4.4.8 5.2 1.5 11.2 1.5 18 .4 5.5.4 11.8.4 18.2-.4 13.8-1.9 28.6-3 43.9v-.7zM682 523.3c.7 0 1.5-.4 2.2-.4h1.9c1.8 0 3.7.7 5.2 1.8a6.9 6.9 0 0 1 2.6 4.5v1.1c0 1.9-1 4.2-2.6 6.4-.3.7-1 1.5-1.8 2.2a81.8 81.8 0 0 1-6.3 8.6c-3 4-6.8 8.6-9.4 13-2.2 4.1-4 8.2-5.5 12.6a79 79 0 0 1-10.8 20.9l-1.6 2.2 26.5-73zM683 541l4.2-3.7c1-1.8 1.8-3.3 2.2-4.9.7-1.8.7-3 .4-3.7h-.8c-.4 0-1.1.4-1.5.8a7 7 0 0 0-2.6 2.2 21.1 21.1 0 0 0-3 4.9 17 17 0 0 0-1.5 4.8v.8h.4c.7 0 1.5-.8 2.2-1.5zm-2.6 1.5zm-24.1 54.8c1 2.6 0 10.8-.8 18.6v1.8a140.2 140.2 0 0 1-3.4 22.4l-2.2 6.3.7-.7c2.3-3 4.9-6.8 7.8-9.7 2.6-3 5.2-5.6 7.5-8.2 1.8-1.8 4.1-3.7 6-5.2-.8 0-1.1-.4-1.1-1.1 0-.4-.4-.7 0-1.1.3-1.1 1.4-3 3-4.5 1.4-1.5 3.6-3.4 5.5-4.1 1.5-.8 2.6-1.5 3.7-1.5 0-.7 0-1.1-.4-1.5a6 6 0 0 0-4.8-2.2c-2.6-.4-5.6 0-8.2 1a32.8 32.8 0 0 0-7.1 4.6c-1.1 1-2.3 1.8-3 1.8-1.1.4-1.9.4-2.2-.7-.4-1.1 0-3.7 1.5-7.5l5.5-13.8a134.3 134.3 0 0 1 8.3-16.3c3-5.3 5.9-10.8 9.2-16.4 6.8-11.1 15-23 20.5-31.3l.4-.4c3-4 4.8-7.4 6.7-10l.4-.4c-.7 0-1.5 0-1.8-.7-.5-.4-.8-.8-.8-1.5-.4-1.1 0-2.6 0-4.2.3-2.2 1.1-4.4 2.2-6.6.8-1.9 1.9-3.8 3.4-5.2a10.5 10.5 0 0 1 4-2.6h2.7v-.8c0-1.5-.4-3-1.5-3.7a5.6 5.6 0 0 0-3.4-1.5c-1.4 0-3.3.8-4.8 2.3-2.3 1.8-4.1 5.5-6.4 9.2-1.8 3-3.7 6.3-5.9 9-3.7 4.8-8.5 8.5-12.7 11.9l-2.2 1.8-25.7 74.2-.7-1.5zm25.2 15.2c-.3.4-1 .4-1.5.8a47.2 47.2 0 0 0-4.8 4 13.5 13.5 0 0 0-2.2 3h.4c1-.3 2.6-1 4-2.1 1.5-1.6 3.4-3.5 4.5-5.3zm37-114.2v-.8h-1.2c-1.1.4-2.2.8-3 1.9-1 1.1-1.8 2.6-3 4.5-.7 1.8-1.4 4-1.8 6.3-.4 1.5-.4 2.6 0 3.4v.3s.4 0 .4-.3a22.9 22.9 0 0 0 4-5.3 32.3 32.3 0 0 0 4.5-9.3zm-33.6-24.2a20 20 0 0 0-4.9 8.5c-.7 2.6-1 4.9-1.4 7v3.5l.7-.8a32.2 32.2 0 0 0 6.3-13.8c.4-1.8 0-3.3-.7-4.4zm-11.2-.8c.8-.3 1.1-.7 1.9-1 .4-4.6 1.1-8.7 3-12 .7-1.5 1.8-2.6 2.6-3.4.3-.3.7-.3 1-.7-.3 0-.7-.4-1-.4-1.5-.3-3.8 0-6 1.1-1.8.8-4 2.3-6 4.9a54.2 54.2 0 0 0-7 10.8c-2.3 4.5-4.5 9.7-6.7 15.6-1.9 5.6-3.7 12-5.2 18.3-1.9 6.7-3.7 13-5.6 18.6-1.8 5.2-4.1 10-6 14.1-1.9 4.5-4 8.6-5.6 13-1.4 5-2.6 10.1-3.7 15.3l1.1-3.3 3.7-9.3 3.8-7.1a129 129 0 0 0 13-31.3c1.8-6 4.1-12 6.3-17.5a89.7 89.7 0 0 1 7.5-14.8 44.8 44.8 0 0 1 9.3-10.9zm-49.5 113.2c1.1-1.8 1.9-4.4 2.3-7.4a25.4 25.4 0 0 1-3.8 7.8c-.4.7-.8 1.5-1.5 2.2 1.1-.7 1.8-1.5 2.7-2.2z"/><path d="M604.5 614.1c.4-.7.7-1.1 1.5-.7.7.3 1 .7.7 1.4a110.2 110.2 0 0 1-8.6 22.8c-3 5.6-7 10.1-13 16.8-1.5 1.5-3 3.3-4.5 5.2a361.2 361.2 0 0 0-13 16.4 93.7 93.7 0 0 0-10.8 18.2 73.4 73.4 0 0 0-4.1 32.8c0 .8-.4 1.2-1.1 1.2-.8 0-1.1-.4-1.1-1.2-.4-10.8-1.2-21.6 4-33.5 2.6-6 6.8-12.3 11.2-18.6 4.5-6 9-11.9 13-16.4 1.5-1.9 3-3.7 4.6-5.2 5.5-6.3 9.6-11.2 12.6-16.4 3.7-6.7 6-14.5 8.6-22.3z"/><path d="M696.8 744.8c.8 0 1.1.8.8 1.6 0 .7-.8 1-1.5.7a393 393 0 0 1-50.3-13.8 60.6 60.6 0 0 1-13.4-7.8c-3.3-2.7-5.6-5.3-7.8-7.9-.4-.3-.4-1 0-1.8.4-.4 1.1-.4 1.9 0a50.3 50.3 0 0 0 20.4 14.8c12 5 31 9.4 50.3 13.8z"/><path d="M628 806.3c0 .7-.4 1-1.2 1.4-.7 0-1-.3-1.5-1-3-18.6-6-37.6-6.3-52.5 0-14.9 2.6-26.1 5.2-37.7l.8-2.6a440 440 0 0 1 8.9-33.1c1.8-5.6 3.7-10.4 5.5-15.3 1.9-4.9 4.1-9.2 6.4-14.1.4-.8 1.1-.8 1.5-.8.8.4.8 1.1.8 1.5-2.3 4.5-4.2 9.3-6.4 14.2-1.9 4.8-4.1 9.6-5.6 15.2-3.3 10-6 22-8.5 33.2l-.8 2.6c-2.6 11.5-5.2 22.3-5.2 36.9 0 14.8 3.4 33.4 6.3 52z"/><path d="M366.8 487.5c0 .7-.3 1.1-1 1.1-.8 0-1.2-.4-1.2-1.1-.7-4.8-1.8-10-.4-13.4 0-.3.4-.7.8-1 .7-1.6 2.2-2.3 3.7-2.7 1.5-.4 3.4-.4 4.9.4.4 0 .7.4 1.1.7a16 16 0 0 1 4.8 6 59.7 59.7 0 0 1 4.1 10.7c1.9 6 3.4 13 5.2 21.3.8 3.4 1.5 6.3 1.9 9.2a743.2 743.2 0 0 1 4.5 19.1c1.5 6.7 3.3 13.7 5.2 20.9 1.8 7 3.7 14 6 20.8 2.2 6.7 4 13 6.7 19 2.6 5.6 5.2 10.8 8.1 15.6a87.9 87.9 0 0 0 9.7 13.4 166.8 166.8 0 0 0 24.3 23.9c4.8 3.7 9.6 7 14.8 10.4 5.2 3.4 10.8 6.3 15.7 9 4.8 2.2 8.9 4 13 5.5a52 52 0 0 0 27.5.7c4.5-1 9.3-3 13.9-5.2a124.5 124.5 0 0 0 25.3-22l1.8-1.8 3-3c8.2-8.2 16.4-16.7 23-26a90.4 90.4 0 0 0 9.8-16.4c3-6 5.2-12.3 7-19.4 2.3-7.8 3.8-16.4 5.3-24.5v-.4c-.4-2.2 0-4.9 1.4-7.4v-.5l.4-1.5c.8-3.7 1.1-7.4 1.9-10.4.7-4.8 1.8-9.2 2.6-13.4 1.4-7.4 2.6-13.8 3.4-20.4.3-2.7.3-5.6.7-8.2-.4-.4-.7-1.2-.4-1.5l.4-.8A87.3 87.3 0 0 1 628 476c1.2-3.7 3-6.7 4.9-8.6 2.2-2.3 4.8-3 7-2.6 2.2.3 4.1 2.2 5.6 5.2 1.2 2.6 1.8 6 1.8 10 0 6-1.4 13.9-2.5 21-.4 2.5-.8 4.7-1.5 7.3-.8 3.8-1.2 7.5-1.5 10.9-.8 4.8-1.1 9.6-2.3 13.8-1 5.5-3 10.4-4.8 14.8-.4 1.5-1 2.6-1.5 3.7 0 .4-.3 1.2-.7 1.9-1.5 4.9-3 8.6-6.3 9.7-.4 0-.4 0-.8.4-1.8.4-4.1.4-6-.8-1-.3-1.8-1-2.6-1.4-1.4 7.4-3 15.2-4.8 22.2-1.8 7.2-4.4 13.9-7 19.8a124.8 124.8 0 0 1-10.1 16.7c-6.7 9.4-15.3 18-23.5 26.5l-3 3-1.8 1.9c-8.6 8.5-16.8 17.2-26 22.3a55.9 55.9 0 0 1-29.9 7 38.4 38.4 0 0 1-13-2.2c-4.5-1.5-8.6-3.3-13.4-5.5-4.8-2.6-10.5-5.6-16-9a258 258 0 0 1-14.9-10.4c-4.9-3.7-9.3-7.8-13.4-11.5a166.8 166.8 0 0 1-11.2-12.3c-3.4-4.5-6.8-9-9.7-13.8a131 131 0 0 1-14.8-35.4c-2.3-6.7-4.2-13.8-6-20.8-1.9-7.1-3.8-14.2-5.2-21.3-1.5-6.7-3-13-4.6-19-.7-3.7-1.4-6.3-1.8-9.2-1.9-8.3-3.4-15.3-5.2-21.3a46.8 46.8 0 0 0-4.1-10.4 15.8 15.8 0 0 0-4-5.2c-.5-.4-.5-.4-.8-.4-1.1-.4-2.3-.4-3-.4-1.2.4-2 1.2-2.7 1.9 0 .4-.3.4-.3.7-1.1 2.6-.4 7.5.3 12zm252.5 63a341.6 341.6 0 0 0-1 7.4c.7 1.1 1.8 1.8 2.9 2.6a6.2 6.2 0 0 0 4.5.4h.4c2.2-.8 3.3-4.1 4.8-8.2.4-.4.4-1.2.8-1.9.3-1.5 1-2.6 1.4-3.7 1.5-4.5 3.4-9 4.9-14.6-.4.8-.8 1.2-.8 1.9-2.2 4.1-5.2 5.6-8.1 7.4-1.5.8-3 2-4.5 3.1a19.7 19.7 0 0 0-4.9 5.9zm2.3-12.3-1.2 6.7c.8-.8 1.5-1.9 2.6-2.6 1.6-1.2 3-2.3 5-3 2.5-1.5 5.5-3.4 7.4-6.8a33.2 33.2 0 0 0 3.3-11.1c.7-4.5 1.5-10 1.9-15.7.3-5.5 1-11.8 1-16.7 0-4.9 0-9-.3-10.8-.4-.7-.7-.4-1.5 0a24.4 24.4 0 0 0-4.4 5.6 138.2 138.2 0 0 0-6.3 10c-.4 3.4-.4 6.7-.8 10-.7 6.8-2.2 13.5-3.7 21-.7 4-1.9 8.5-2.7 13.4zm9.2-62.6c-1 3.7-1.4 8.2-1.8 13.4l.4-.4c1.1-1.9 2.6-3.7 3.7-6a26 26 0 0 1 4.9-5.9c2.2-1.8 4-2.2 5.2.8a46.2 46.2 0 0 1 .7 11.5c0 3.4-.4 7.4-.7 11.2v-.8c1.5-7 2.6-14.5 2.6-20.5a21.7 21.7 0 0 0-1.8-9.2c-1.2-2.3-2.3-3.7-3.7-3.7-1.6-.5-3.5.3-5 1.8a13 13 0 0 0-4 7.4z"/><path d="M349.8 527.7c0 .8-.4 1.1-.8 1.5-.8 0-1.2-.4-1.5-.7l-3.4-13c-1-4.2-1.8-8.3-3-12v-.4c-.3-.7-1-1.8-1.4-3-.8-2.2-1.5-5.5-1.1-8.5v-4.5a6 6 0 0 1 1-2.2c.4-.4 1.2-.8 2-.8h.7c1-.3 2.2-.7 3.3-.3-.7-2.6-1.1-5.2-1.8-7.4-1.2-3-1.9-5.6-3-7.1-.4-.8-.8-1.2-1.5-1.2h-.7c-.4 0-.4.4-.8.8-.4.8-.7 1.5-.7 2.6 0 1.5 0 3.4.3 5.2.4 1.1.4 1.9.8 3 .4 1.5.7 2.6.7 3.7v.7c0 .8 0 1.2-.3 1.5-.8.4-1.2 0-1.5-.7-.4-.8-1.1-3.7-1.9-7-.3-1.2-.3-2-.7-3-.4-2.3-.8-4.1-.8-5.2a5.6 5.6 0 0 1 1.5-4.2c1.1-1 3-1.8 5.2-1.8a25 25 0 0 1 16.4 6.7c2.6 2.2 5.2 5.2 7 9 3.8 6.6 5.6 16 8.3 27.2a72.4 72.4 0 0 0 1.9 7.4c2.2 10 5.2 20.8 7.8 31l3.3 11.8c.7 3.3 1.5 6.3 2.2 9 2.6 9.6 5 18.5 7.5 26.3 1.1 4.1 2.6 7.5 4.1 10.9.4.3.4 1 .7 1.5 1.5 2.6 2.3 4.8 3 5.9.4.4.4.7.4 1.1.4.4.4.4.4.8.3 1.8-.4 2.2-1.9.7l-.4-.4c-.3-.7-1.8-3.3-3.3-7.4-.8-1.5-1.9-3-2.6-4.8-1.1-1.9-2.6-3.7-3.7-6a85.7 85.7 0 0 1-9.3-16.4 112 112 0 0 1-5-15.6 126.9 126.9 0 0 1-3.2-18l-1.2-7a254 254 0 0 0-5.5-28.3 47 47 0 0 0-5.3-11.5 36.4 36.4 0 0 0-6.7-7.9c-1.5-1.1-3-2.2-4.4-2.6 0 .4-.4 1.1-1.1 1.1-.8 0-1.2-.3-1.6-.7l-.4-1.1h-1.4a22.5 22.5 0 0 1 2.2 9.3c.4 3 0 5.6-.4 7.4-.4.8-.7 1.5-1.1 1.9-.4.4-1.1.7-1.5.7.8 3 1.5 6.4 2.6 9.8 1.2 4 2.3 8.5 3.4 13zm-8.3-34.6c.4 2.6 1.1 5.5 1.9 8.6 0 0 0 .3.4.3.3 0 .3.4.3.4s.4-.4.4-.7c.4-1.5.4-4.1.4-6.7-.4-2.6-.8-5.3-1.5-7.1-.4-.8-.8-1.2-1.1-1.5-.8.7-1.1 1.8-1.5 3.3 0 1.2.4 1.9.4 3.4zm7-9.7c2.4.7 4.6 1.9 6.8 3.7 2.6 2.2 5.2 5 7.5 8.6a60 60 0 0 1 5.2 11.9c2.6 7.9 4.1 18.3 6 28.3l1 7.1 3.4 17.9c1.5 5.6 3 10.8 4.8 15.3a82.3 82.3 0 0 0 9.3 16v.3l-.3-.7a413.8 413.8 0 0 1-7.4-26.5c-.8-3-1.6-6.3-2.3-8.5l-3.3-12c-2.6-10.3-5.6-21.2-7.8-30.9a72.4 72.4 0 0 0-1.9-7.4 112.8 112.8 0 0 0-7.9-26.4 24.8 24.8 0 0 0-6.6-8.2 32.5 32.5 0 0 0-9-5.3 11.4 11.4 0 0 0-6-.7h-1c.3 0 .7 0 1 .4.8.3 1.5 1 2.3 1.8 1.5 1.9 2.6 4.5 3.3 7.9.8 2.6 1.5 5.5 2.2 8.5z"/><path d="M401.5 563.1c.4.4.7 1.1.4 1.5-.4.4-1.1.7-1.9.4l-4-3a17.4 17.4 0 0 0-3.8-1.9 18.6 18.6 0 0 0-7.8-.3c-.8 0-1.2-.4-1.2-1.1 0-.8.4-1.2 1.2-1.2 3-.3 5.5-.3 8.6.4 1.4.4 3 1.1 4.4 2.2 1.5.8 2.6 1.9 4.1 3z"/><path d="M383.2 487.5c.4.4.8 1.1 0 1.8-.3.4-1 .8-1.8 0-1.9-1.8-4.1-3.3-5.6-4.4-1.5-.8-2.6-1.5-3.3-1.1-.8.3-1.1 1.8-1.5 4-.4 2.7 0 6.4.4 10.9a97.4 97.4 0 0 0 8.5 29 25.9 25.9 0 0 0 9.3 9l3.4 2.2c3.3 3 4.4 7 5.6 11.2v.7c0 .4-.4.7-.8.7s-.7 0-1.1-.3c-.4 0-.4-.4-.4-.8-.7-3.7-1.8-7.4-4.9-9.6a8 8 0 0 0-3-1.9c-2.9-1.8-6.6-4-10-9.7a68.2 68.2 0 0 1-5.2-12.6c-1.8-6-3-12-3.7-17.2a41.6 41.6 0 0 1-.4-11.5c.4-3.4 1.1-5.2 2.7-6 1.4-.7 3.7 0 5.5 1.1 1.9 1.1 3.7 3 6 4.5z"/><path d="M525 480.8c.5-.7 1.3-.7 1.6-.7.8.3.8 1 .8 1.4-3.7 7.5-7 14.9-7.5 24.2 0 4.1.8 8.3 1.5 12.4a84.8 84.8 0 0 0 4.5 14.4c1.5 3.8 3 6.4 4 8.6a34 34 0 0 1 2.7 5.2c0 .4.3.4.3.8.8 1.5 1.5 3.3 1.9 5.2v.4a46.1 46.1 0 0 1 .7 8.6c-.3 2.2-1 4-2.2 5.5-1.1 1.9-3 3-4.4 3.7-1.9.8-3.4 1.2-4.5 1.2h-1.2c-.3-.4-.7-.8-.7-1.2 0-.3 0-.7.4-1l1.8-1.6c1.1-.7 3-1.4 3.7-2.6 0-.3.4-.3.4-.7v-1.1c0-.4-.4-.8-.7-1.1-.4-.4-.8-.4-.8-.4a9 9 0 0 0-4.4 0c-1.5.4-3.4.7-4.5 1.9-1.5 1-2.3 2.6-3.4 3.7l-2.2 3c0 1 .3 1.8.7 3l1.5 4.8a25.4 25.4 0 0 1 1.9 8.5c0 2.3-.8 4.1-2.3 5.2a7.8 7.8 0 0 1-4.8 2.6c-2.2.4-4.5-.3-6.7-1l-4.8-1.2c-1.9-.4-3.7 0-5.6.4-2.3.4-4.5 1-7.1 1.8l-.7.4c-5.2 1.5-11.2 3.4-16 3.7h-1.2.4c1.8.8 4 1.6 6.7 1.9 3 .8 6.3 1.2 9.3 1.5 4.1.4 7.8.4 10.8.4 2.6 0 4.5-.4 6.4-.4 1.8 0 3-.3 4.8-.3 1.5 0 3.3 0 4.8.3h1.5c1.5-.3 2.6-.7 3.7-1 1.9-.8 3-1.6 4.2-2.3.7-.8 1-1.9 1.4-3a4 4 0 0 0-.3-3c-.4-1.1-1.5-1.5-2.3-1.9-.3-.3-.7-.3-.7-.7-.4-.8 0-1.1.7-1.5.4 0 1.9 0 4.5.4 1.5 0 3 .3 4.5.7 3 .4 6.6.8 10.7 1.5 3 .4 6 .7 8.6.7 1.1 0 1.9 0 3 .4 3 .4 5.2.4 6.3.8 1.1.3 1.5 1 1.1 2.2-.3.7-1 1-2.2 1.8-.7 1.2-1.1 2.7-1.9 3.7a40.6 40.6 0 0 1-2.2 4.2c-.7 1.5-1.8 2.6-3 4a56.3 56.3 0 0 1-23.5 14.3 76.1 76.1 0 0 1-27.5 1.8A47 47 0 0 1 486 622a46.6 46.6 0 0 1-9.3-6l-2.3-2.3a35.6 35.6 0 0 1-5.2-6.3c-1.5-2.2-1.9-4.4-.7-5.5l.3-.4c-.3-.4-1-.4-1.5-.8a19.8 19.8 0 0 1-5.9-3c-.7-.7-1.1-1.1-.4-1.8.4-.8 1.1-.8 1.9-.4 1.1.4 3.3.7 6 .4 4.4-.4 10.4-2.3 15.6-3.8l.7-.3c2.6-.8 4.9-1.5 7-1.9 2.3-.4 4.5-.7 6.5-.4l5.2 1.2c2.2.7 4 1 5.5 1s2.6-.7 3.4-1.8c.7-1.1 1.5-2.2 1.5-3.7a23.5 23.5 0 0 0-1.9-7.8c-.4-1.5-1.1-3.4-1.5-5.3 0-.7-.4-1.4-.4-2.2-.7.4-1.8.4-2.6 0a16.2 16.2 0 0 1-7.4-4.4c-1.5-1.5-3-3-4.9-3.4-1.5-.4-3-.4-4 0-1.2.4-2.3.8-2.3 1.5 0 .4 0 1.1.8 1.9l2.6 2.6c.3.3.7.7 1 .7 1.2.7 2 1.5 1.6 2.2-.4.8-.8 1.1-2.3.8-1-.4-3.3-1.1-5.5-2.3-1.5-.7-3-1.8-4.1-3a11.8 11.8 0 0 1-3-5.5 10.5 10.5 0 0 1 .7-6.7c.8-1.8 1.9-3.4 2.6-4.5 1.5-1.9 3.4-3.3 4.1-3.7 1.1-.4 1.5 0 1.9.7v3.4a4.5 4.5 0 0 0 1.8 1.8 4 4 0 0 0 3 .4c1.5-.4 3-1.1 4.5-1.9 1.5-.7 2.6-1.4 4.1-1.8 1.9-.8 3.4-.8 5.2-.8 1.9 0 3.4.4 5.2 1.2 1.5.3 2.6 1 3.7 1.8 1.2.8 2.3 1.5 3.7 1.9 1.2.3 2.3.3 3.4 0l3.4-1.1c.7-.4 1.1-1.2 1.5-1.5l.7-2.3v-1.4c0-1.2 0-1.9.4-2.3-.4-1-1.1-1.8-1.5-3-1.1-2.2-2.6-4.8-4-8.9-1.6-4.1-3.4-9.2-5-14.9a53.8 53.8 0 0 1-1.4-13c0-9.7 3.7-17.5 7.4-25.3zm7.3 72.7c-.4-1.2-.4-2.3-.8-3.4 0 .8-.4 1.5-.7 2.2-.4 1.2-1.5 1.9-2.6 2.7a12.6 12.6 0 0 1-4.5 1.5c-1.5.4-3 0-4.4-.4-1.6-.4-3-1.5-4.5-2.3-1.2-.7-2.3-1.5-3.4-1.8-1.1-.4-2.6-.8-4-.8-1.6 0-3 .4-4.5.8-1.1.3-2.6 1-3.7 1.8a19.7 19.7 0 0 1-5.3 2.3c-1.5.4-3 0-4.5-.7-1.4-.8-2.6-1.9-3-3-.3-.8-.3-1.5-.3-2-.7.5-1.5 1.2-2.2 2.3a9 9 0 0 0-2.3 4.2 8.4 8.4 0 0 0-.3 5.2 8.5 8.5 0 0 0 2.2 4.4c1.1 1.1 2.2 1.9 3.7 2.6.4 0 .4.4.8.4-.4-.4-.4-.8-.8-.8-1.1-1.4-1.5-2.6-1.1-4 .4-1.2 2.2-2.3 4-2.6 1.6-.4 3.8-.4 5.3 0 2.3.7 4.1 2.2 6 4 .7.8 1.5 1.5 2.6 2.3 1.1.7 2.6 1.5 3.7 1.5h1.9v-3.4c.3-2.6 1.4-5.2 4-6.4 2.6-1 6-1.4 9.3-1.8 3.4-.4 6.4-.8 7.9-1.9.7-.3 1-1.5 1-2.3zm.3 7.8c0-1.1.4-2.2 0-3.7l-.3.4c-1.5 1-4.1 1.5-6.7 1.8.7 0 1.5.4 1.8.4.8.4 1.2.4 1.5.7.8.8 1.5 1.5 1.5 2.3.4.7.4 1.8 0 2.6l.4-.4a12.4 12.4 0 0 0 1.8-4.5zm-16.4.8c1.1-.8 2.3-1.2 3.4-1.9l-4.8 1.1c-2 1.1-2.6 2.6-3 4.8v1.2l.7-.8c1.1-1.5 2.3-3 3.7-4.4zm.8 43.2h-5.2c-1.1.3-2.2.3-3.4.7l-10.4 1.1c-3.7.4-8.2 0-12.3-.4-3-.3-6-1-8.5-1.4-4.2-.8-7.4-1.5-8.2-.8-.4.4.3 1.5 1 3a34 34 0 0 0 7.2 7.8c2.6 2.2 5.6 4.1 8.5 5.6a33 33 0 0 0 10.8 3 67.9 67.9 0 0 0 26-1.9c4.2-1 7.5-2.6 10.6-4.1 2.9-1.5 5.1-3.4 7.4-4.8 1.9-1.5 3.3-3 4.4-4.1l3-3.7c.8-1.2 1.5-2.6 2.2-4.1l.4-.8c-1.8.8-4.4 1.5-6.7 2.3-4 1-8.6 1-12.3 1.4-1.5 0-3.3.4-4.4.4-1.9.4-3.7.4-4.9.8-1.8.3-3.7.7-5.5.7zm2.3-2.6c1 0 1.8-.4 3-.4a22 22 0 0 1 5.1-.8c1.5 0 3-.3 4.9-.3 3.7-.4 7.8-.4 12-1.5 2.5-.8 5.1-1.5 7-2.6.7-.4 1-.8 1.8-.8.4-.4.8-.8 1.1-.8-1-.3-2.6-.3-4.8-.3-1.1 0-1.9 0-3-.4-2.6-.4-5.5-.4-8.6-.7-3.7-.4-7.8-.8-10.7-1.5-1.9-.4-3.4-.4-4.5-.8l.4.4c.7 1.1.7 3 .4 4.5-.4 1.5-1.2 3-2.3 4.1-.3.7-1 1.1-1.8 1.5z"/><path d="M588.5 650.2c0 .8-.4 1.2-1.2 1.5-.7 0-1-.3-1.4-1 0-2-.4-3.8-.4-5.3 0-1.8-.4-3.3-.4-5.2v-5.5c0-1.9 0-3.8.4-5.7 0-.7.7-1 1.1-1 .7 0 1.1.6 1.1 1 0 1.9 0 3.7-.4 5.6v5.6c0 1.8 0 3.4.4 5.2 0 1.9.4 3.4.4 5.2z"/></g><g id="logo-icon-butterfly"><path d="M428 463.7a120.7 120.7 0 0 0-7.1-32c-1.9-4.9-4.5-9-6.7-12a22 22 0 0 0-7.9-7c-.3 0-.7-.4-.7-.4-1.5-.4-2.6-.4-3.4 0-1 .4-1.8 1.5-2.2 2.6 0 .4-.4.7-.4 1.1-.7 1.9-1 4.5-1 7 0 2-.4 4.2-.8 6l-1.5 6c-.7 2.6-1.5 5.2-1.9 7.4 0 1.9.4 3.4.8 5.3.7 1.9 1.8 3.3 3.3 5.2 1.1 1.5 2.6 3 4.5 4.8a63.6 63.6 0 0 1 15.3 12.3v1.2c-.4 1-.8 1-1.9.7-.4 0-.4-.4-.7-.4-1.5-.7-4.2-3-7.1-5.2-2.3-1.9-4.5-3.7-6.7-6l-.4-.3-1.9-1.2a26 26 0 0 0-6.3-2.2 9.2 9.2 0 0 0-4.5 0 8 8 0 0 0-3 1.9l-2.2 3.7a33.4 33.4 0 0 0-.7 6.7c0 3 .3 6.7.7 10.4.4 3 1.1 6 2.2 8.2 1.2 2.2 2.6 3.7 4.1 4.5 1.9.8 3.7 1.1 6.4 1.1 2.6 0 5.2-.3 8.2-1 3-.8 6-2 8.6-3.1a62 62 0 0 0 9.6-6c.8-.3 1.5 0 1.5.8.4.3 0 1-.4 1.5l-1 1a33.6 33.6 0 0 0-3.4 3.8l-3 4.1a6.5 6.5 0 0 0-1.1 2.6c.4-.3 1.1-.7 1.9-1.5 1-1 2.2-2.2 3.3-3.7 2.2-2.3 4-4.9 5.6-4.5 1.5.4 1.5 1.9 1 3.7 0 .8-.3 1.9-.7 3l-1 4.9a14 14 0 0 0 1 8.9c.4.7 1.2 1.1 2.3 1.1h3.7c1.5-.4 3-.4 4.9-1.1 1.8-.7 3.7-1.5 6-3 2.1-1.5 4.4-3.3 7-5.5 2.2-2.3 4-4.5 5.5-6.3 1.6-2.3 2.7-4.2 2.7-5.6 0-1.6-.4-2.7-1.5-3.7a12.4 12.4 0 0 0-4.5-1.9l-4.8-1.2c-1.1 0-1.9-.3-2.3-.3h-.7c-6.7-.4-10-1.5-10.4-2.3h-.4c-.4 0-.8 0-1.1-.3-.8-.8-.4-1.1 0-1.5.7-.8 2.6-3 3.4-4.8.3-.8.3-1.2.3-1.5-.7.3-1.5 1.8-2.6 3.3l-.8.8-2.2 3c-1.5 1.4-2.6 1.8-3 .3-.3-.4 0-1.1 0-1.9 0-1.4.4-4.8 0-10.4zm-.4-18c1.4 6.8 2.2 13.1 2.6 17.6a34.7 34.7 0 0 1 0 9l1-1.1.8-.8c1.5-1.8 3-3.7 4.2-4.5h1c.8 0 1.2.4 1.6.7.3.4.3.8.3 1.5v.8c.8-.4 1.1-1.2 1.9-1.5l5.2-4.1a251.9 251.9 0 0 0 7-4.8 72 72 0 0 1 9.3-5.6c3.4-1.9 7.5-4 11.2-6.4 3.7-1.8 7.4-3.7 10.9-5.2 3.3-1 6.3-1.8 8.5-2.2 2.6-.4 4.5.4 5.3 1.9.7 1.4.3 3-.8 5.2a143 143 0 0 1-4.5 6.7c-1.9 2.6-4 5.2-6.3 7.8-2.2 2.6-4.5 4.8-6.7 7a53.4 53.4 0 0 1-7.1 6.4 19.5 19.5 0 0 1-7 4.1 16 16 0 0 1-7.1 1.5h-.8l.4.4a6.7 6.7 0 0 1 2.6 5.5c-.4 2.3-1.5 4.5-3 6.8a45 45 0 0 1-6 6.7 50.1 50.1 0 0 1-7 5.9 35.3 35.3 0 0 1-6.3 3.3c-1.9.8-3.8 1.2-5.3 1.5a9 9 0 0 1-4.5 0 7 7 0 0 1-3.7-1.8 12.4 12.4 0 0 1-1.8-4.5c-.4-1.8 0-4 0-6.3l1-5.2c.5-1.1.5-2.3.8-3v-.4l-2.6 3c-1 1.5-2.6 2.6-3.3 3.7-1.1 1.2-2.2 2-3 2-.7 0-1.1.3-1.5 0-.7 0-1-.5-1-1.2-.5-.4-.5-1.1-.5-1.5 0-1.1.8-2.2 1.5-3.7l2.3-3.4c-1.2.4-1.9 1.1-3 1.5-3 1-6 2.3-9 3a36 36 0 0 1-8.5 1.1c-3 0-5.2-.3-7.5-1.5-2.2-1-3.7-3-5.2-5.5-1.1-2.3-1.9-5.7-2.6-8.7-.8-3.7-.8-7.7-.8-10.8 0-3 .4-5.5 1.2-7.4.7-1.8 1.4-3.7 2.6-4.8a9.6 9.6 0 0 1 4-2.6 14 14 0 0 1 5.6 0c1.2.4 1.9.4 3 .7l-.3-.3c-1.5-1.9-3-3.8-3.7-5.6-.8-1.9-1.2-4.2-1.2-6.4 0-2.6 1.2-5.2 1.9-8.2.7-1.8 1.1-3.7 1.5-6 .4-1.8.7-3.7.7-5.5.4-2.6.4-5.2 1.5-7.5 0-.3.4-.7.4-1 .7-1.6 1.8-3 3.3-3.8 1.5-.7 3.4-.7 5.6 0 .4 0 .7.4 1.1.4a26.6 26.6 0 0 1 8.6 7.8c2.6 3.3 4.8 7.4 7 12.7 2 4.8 3.4 10 4.9 15.2zm-1.9 42.9-.4.4c.4-.4.8-.4.4-.4zm19.4-11.5c.3 0 1.5 0 2.6.4 1 0 2.6.3 4 .3 2.3.4 4.2.4 6.4.4 2.3 0 4.1-.4 6.3-1.5 2.3-.7 4.1-2.2 6.3-4 2.3-2 4.5-3.8 6.8-6.4 2.2-2.3 4.5-4.5 6.3-7 2.2-2.7 4.5-5.3 6.3-7.9 1.9-2.2 3.4-4.5 4.1-6.4.7-1.4 1.1-2.6.7-3-.3-.3-1-.7-3-.3-1.8 0-4.8.7-7.7 2.2a88.5 88.5 0 0 0-10.9 5c-3.7 1.8-7.4 4-10.7 5.9-3.4 1.8-6.3 3.7-9 5.5l-7 4.8c-1.9 1.5-3.8 2.6-5.2 4.2-1.5 1.1-3 2.2-4.1 3.3-1.9 1.5-3 3-3.7 3.8 1-.4 4.4-.8 10.4.3h.3z"/><path d="M587 368.4c.7-1.5 1.5-4.1 1.8-6.8.4-2.2 1.1-4.8 1.1-7.4.4-3 .4-6 0-8.6 0-2.5-.7-4.8-1-6.7-.4-1.5-1.2-2.6-2-3-.7-.3-1-.7-1.4-.3-.4 0-1.1.7-1.5 1.4-.7.8-1.1 1.9-1.9 3l-.3.8c-1.2 1.8-2.3 4.1-3.7 6-.8.7-1.2 1.4-1.9 2.2a12.8 12.8 0 0 0-2.3 3c-.4.7-.4 1.4-.7 1.8 0 .8 0 1.1.3 1.9.4.7.8 1 1.2 1.5.3.3.7.7.3 1.4-.3.8-.7 1.2-1.5.8 0 0-.3 0-.7-.4-.7-.4-2.2-1.1-3.7-1.1-.8 0-1.9 0-2.6.4-.8.3-1.5 1-2.2 1.8-.8 1.1-1.5 2.3-1.9 3.4-.4 1.5-1.1 3-1.1 4.9a9 9 0 0 0 0 4.4 6 6 0 0 0 1.1 2.2c1.5 1.2 4 1.2 6.7.8h3.3c1.5 0 3 0 4.5-.4 1.5 0 2.6-.4 3-.7.7-.4 1.5-.4 1.8.7.4.8 0 1.1-.7 1.5h-.4c-.7.4-2.6.7-3.7 1.5-.8.4-1.5.7-1.9 1.1.4-.4 1.1-.7 1.9-1.1 1.1-.8 2.6-1.1 3.7-1.5 1.5-.4 2.7-.7 3.4-.7 1.1 0 1.5.3 1.9 1 0 .8-.8 1.6-1.9 2.7-.4.3-.7.7-1.1.7-1.1.8-2.3 2.2-3.4 3.4-1.1 1.1-2.2 2.6-3.4 3.7a11.8 11.8 0 0 0-2.2 2.6c-.4.4-.4.8-.4.8 0 .3.8.3 1.5.3 1.1 0 2.6 0 4.1-.3 1.9-.4 4.2-1.1 6-2.3 1.9-.7 3.7-1.8 4.8-3a5 5 0 0 0 1.9-2.2v-.4c-.7-.4-1.1-.7-1.1-1.1-.4-.4-.4-1.1 0-1.5 0-.4.4-.4.7-.7h.8c.7 0 1.5.3 1.8 1.5.8 0 1.5.3 2.6 0 1.5-.4 3.4-.8 5.6-1.9 2.3-.7 4.5-2.2 6.7-3.3a108.3 108.3 0 0 0 10.8-6.4c.7-.7 1.5-1 1.5-1 0-.4 0 .3-.4.3-.7 0-2.2-.4-3.7-.4-1.8 0-4 .4-6.3.4-2.2.4-4.5.4-7 .7l-6 1.2c-3.8.7-6 1.8-7.9 2.6a5.3 5.3 0 0 1-2.2.7h-.4c-.7.7-1.4.7-2.2.7-1.8.4-1.8-.3 0-1.8a.8.8 0 0 1-.7-.8c0-.3 0-.7.3-1 .4-.4 1.2-1.6 1.9-3.4zm4.4-6a54 54 0 0 1-2.2 7c0 .4-.4.8-.4.8.8-.4 1.5-.4 1.9-.4.4 0 .7 0 .7.4.4.4.4.4.4.8 1.5-.8 3.3-1.2 5.6-1.9l6-1.1c2.2-.4 4.8-.8 7-.8 2.3-.3 4.5-.3 6.3-.3 1.9 0 3.4 0 4.1.3 1.9.4 2.6 1.2 2.2 2.6 0 .8-.7 1.9-2.2 2.6-1 .8-2.6 1.9-4.4 3a108.3 108.3 0 0 1-6.7 3.7l-6.7 3.4a14.8 14.8 0 0 1-6 1.8c-1.1.5-2.2 0-3 0 0 .5 0 .5-.3.8-.4.8-1.2 1.9-2.6 3a36.8 36.8 0 0 1-12 5.6c-1.8.3-3.7.7-4.8.7-1.9 0-3-.7-3.4-1.5-.7-1-.3-1.8.4-3.3.4-.8 1.5-1.9 2.6-3s2.2-2.6 3.4-3.7l2.6-2.7-2.3 1.2c-1 .3-1.8 1-2.6 1.4-.7.8-1.5 1.2-2.2 1.2h-.7c-.4 0-.7-.4-1.1-1.2v-1c0-.4.4-1.2.7-2a4.5 4.5 0 0 1 1.9-1.8h-4.1c-3 0-6.4.4-8.2-1.5-1.2-.7-1.9-2.2-2.3-3.7-.4-1.5-.4-3.3 0-5.2l1.1-5.2 2.3-4.1c.7-1.1 1.9-1.9 3-2.6 1-.8 2.6-.8 3.7-.8.7 0 1.1.4 1.8.4 0-.7-.3-1.5 0-1.9 0-1 .4-1.8.8-3 .7-1 1.5-2.2 2.6-3.3l1.8-2.2 3.4-5.6c.4-.4-.4.3.4-.8.7-1 1-2.2 1.8-3.3a6 6 0 0 1 3-2.2c1.2-.4 2.6 0 3.8 1 1 .8 1.8 2.3 2.2 4.2.7 1.8 1.1 4.5 1.1 7.4.4 3 0 6 0 9l-1.1 7.8z"/><path d="M492.7 368.7a96 96 0 0 1-3-14.8 52.1 52.1 0 0 1-.7-13.1c0-4.1 1.1-7.8 2.2-10.4 1.5-3.4 3.4-5.6 5.2-6.3 1.9-1.2 3.7-.8 5.3.3 1.5 1.1 2.6 2.6 3.7 4.1l2.2 3.7c1.1 1.9 1.9 3.7 3.4 5.2l2.2 2.2c1.5 1.6 3.3 3.5 3.7 5.3a9 9 0 0 1 0 4.5c0 .3-.4 1-.4 1.4h1.9a14.2 14.2 0 0 1 9.7 4.5c1.5 1.5 2.6 3.3 3.7 5.6a18.3 18.3 0 0 1 2.3 12.3 12.4 12.4 0 0 1-1.9 4.4c-1.1 1.5-2.6 2.3-3.7 3a21 21 0 0 1-4.5 1.5c-1.5.4-3.3.4-5.2.4-1.5 0-3 0-4.1-.4.4 0 .4.4.7.4 1.1.7 1.9 1.5 2.3 2.3.4.3.4.7.4 1 0 .8 0 1.2-.4 1.6-.4 0-.4.3-.8.3-1.5.4-3.7-1-6.7-2.6h-.3l-2.3-1c.8.7 1.5 1.8 2.6 2.5l2.3 2.2c3 3 6 6 7.4 7.8 1.2 1.9 1.2 3.4 0 4.1-.7.8-2.2 1.1-4.1 1.1-1.9 0-4 0-6.3-.3-2.2-.4-4-1.1-6.3-1.9-2.3-.7-4.5-2.2-6.4-3.3a36.4 36.4 0 0 1-5.2-4.1c-1.5-1.5-1.9-2.6-2.2-3.7v-1.9c-.4 0-.8.4-.8.4-1.5.4-3 .7-4.4.4l-5.2-1.5-12.7-6-1.9-.8-1-.3c-4.9-2.6-9.4-4.9-11-6.4-1.8-1.8-1.4-3 1.2-3.3 1.2-.4 3.4-.4 6.8 0l11.8 1.1a114 114 0 0 1 17.2 3v-.4c0-.4.3-.7.7-1.1.4-.4 1.1-.4 2.2-.4.8 0 1.9.4 2.6.8.4 0 .4 0 .8.3-.4-1-.8-2.2-1.1-3.7zm-.7-15.3c.7 5.6 1.8 10.9 3 14.6 1 3.7 1.8 5.2 2.2 6 0 .3 0 .3.4.3.8 2.6.4 2.6-1.2 1.9-.3 0-.7 0-1-.4h-.5s0 .4.4.4c.4 1 0 1.8-1.5 1.4h-.7l-3.4-1-.7-.4c-1.9-.4-4.4-1.2-7-1.5-3.4-.8-8-1.1-12-1.9-4.4-.7-8.5-1.1-11.9-1.1-2.2 0-4.1-.4-5.2 0 1.8 1.1 5.5 3.3 9.7 5.2l1 .4 2 .7c4.4 2.2 8.9 4.5 12.3 6 1.8.8 3.3 1.1 4.4 1.5 1.1 0 2.3 0 3.4-.4l2.6-1c1.4-.9 2.6-1.6 3-2a57 57 0 0 1 12.6-7.8c1.1.4-1.8 3.3-11.1 9.7h-.5c-.7.4-1.8 1.5-2.6 2.2-.3.8-.7 1.2-.3 1.9 0 .7.7 1.5 1.5 2.6 1 1.1 3 2.6 4.8 3.7a44.4 44.4 0 0 0 12 4.8c2.2.4 4 .8 5.9.4 1 0 2.2-.4 2.6-.4 0 0 0-.3-.4-1a41.5 41.5 0 0 0-7-7.5l-2.3-2.2c-1.5-1.5-2.2-2.6-3.3-3.4a6.6 6.6 0 0 1-1.5-1.8c-.4-.8-.4-1.9 0-2.3.7-.8 1.8-.4 3.3.4 1.1.3 2.3 1 3.7 1.8h.4l3.7 1.9c-.3-.3-.7-.7-1-.7-.8-.8-2.3-1.2-3-1.9l-2-1.1-.3-.4c-.4-.8-.4-1.1.4-1.5.7-.4 2.6 0 4.8 0 1.5 0 3.4.4 4.8.4 1.9 0 3.4 0 5-.4l3.6-1.1a10 10 0 0 0 3-2.6c.8-.8 1.1-1.9 1.5-3.4.4-1.4.4-3.3 0-5.2-.4-1.8-1.1-4-1.9-6a16.5 16.5 0 0 0-7.4-7.8c-1.5-.3-2.6-.7-4.1-.7-1.1 0-2.3 0-3 .4-.7.7-1.1 1-1.9 1-.3 0-1 0-1-.3-.4-.4-.4-1.1 0-1.5.3-.3.7-.7 1.4-1h.4l1.1-2.7c.4-1 .4-2.2 0-3-.4-1.4-1.9-2.5-3-4l-2.6-2.7a22.3 22.3 0 0 1-3.3-5.6c-.8-1-1.1-2.2-1.9-3.3a8.8 8.8 0 0 0-3-3.3 2.3 2.3 0 0 0-2.6-.4c-1.5.7-2.6 2.6-3.7 5.2a23.5 23.5 0 0 0-1.9 9.7c0 3.7.4 8.2.8 12.6zm-1.1 20.5c1 .4 1.8.4 2.6.8-.4 0-.8-.4-1.2-.4-.7-.4-1.4-.4-1.8-.4z"/><path d="M447 405.2v-5.5c0-4.5 0-9.7.7-14.3a21.7 21.7 0 0 1 2.2-7.8c1.1-2.6 2.2-4 3.3-4.4 1.6-.4 2.7.7 3.4 2.6l1.2 5.6 1 9c.4 1.8.4 3.3.4 4.4v1.1a31 31 0 0 1 .4 11.6l-1.1 2.6c.7 0 1.5.3 2.2 1 1.1.8 2.3 2.7 3 4.5.7 1.9 1.1 4.1 1.9 6l1 6c0 1.8.4 3.3 0 4-.3 1.6-1 2.7-2.2 2.3-.7 0-1.8-.7-3.3-1.9-2.2-2.2-5.6-6.3-7.9-9.2v-.5c-.3-.7-1-1-1.4-1.8v.7l.3 2.6c0 1.5.4 3.4 0 4.5 0 .4 0 .8-.3 1.1-.4.8-.8 1.2-1.5.8-.4 0-.4-.4-.8-.4l-1.8-3.3c-.4.7-.4 1.8-.8 2.6-.7 1.8-1.8 3.7-3.3 5.5-1.5 1.5-3 3-4.5 3.8-1.8.7-3.7.7-5.2.3a6.7 6.7 0 0 1-4.5-3.3 13 13 0 0 1-2.6-5.6c-.4-1.8-.7-4.1-.4-5.6a8 8 0 0 1 1.9-3.7c-1.5 0-4 0-6.3-1.1a35 35 0 0 1-6.7-4.5c-2.2-1.9-4.1-4-6-6.3l-4.5-5.6c-1-2.3-1-3.7.8-4.9 1.1-.3 3.7-.3 6.3 0 3.4.4 7.1 1.1 10.8 2.3 3.4.7 6.3 1.8 9 2.6 2.6 1 4.8 2.2 7 3.4 2 1 3.4 2.6 4.9 3.7 1.1 1 2.2 1.8 3 2.2 0 0 .3-.4.3-.7.4-1.2.8-3 .8-5.6zm2.5-5.5v6c0 2.5-.3 4.7-.7 6.2-.8 1.9-1.9 2.6-3.4 2.6a14 14 0 0 1-4-2.6 23.2 23.2 0 0 0-4.5-3.3 57.1 57.1 0 0 0-6.7-3.4c-2.6-1.1-5.6-1.8-8.6-2.6-3.3-.8-7-1.9-10.4-2.2a12 12 0 0 0-5.2 0c-.4 0 0 .7.3 1.4.8 1.5 2.3 3.4 4.1 5.3 1.9 1.9 3.7 4 6 6a19 19 0 0 0 6 4c2.6 1.1 5.2.8 6.6.8.8 0 1.5 0 2.3.3.7.8.7 1.5 0 2.3 0 0-.4.3-.4.7a9 9 0 0 0-2.2 3.7 6.2 6.2 0 0 0 .3 4.5 8.5 8.5 0 0 0 2.3 4.5c1 1.1 2.2 2.2 3.4 2.6 1 .4 2.2.4 3.7-.4a8.7 8.7 0 0 0 3.7-3 34 34 0 0 0 3-4.8c.7-1.5.7-3 1-4.1 0-1.1.5-1.5.8-1.9.8-.7 1.1-.7 1.9 0 .4.4.7 1.5 1.5 2.6v-.7c0-.8-.4-1.9-.4-2.6-.4-1.9-.4-3.4 0-4.1.7-1.5 1.9-1.5 3 .4.7.7 1.5 1.8 2.6 3.3v.4c2.3 3 5.2 7.1 7.5 9 .7.7 1.4 1 1.8 1.4v-4c0-1.9-.4-3.8-1.1-5.6-.4-1.9-1.1-4.2-1.5-5.6-.7-1.5-1.1-3-2.2-3.4-1.1-.7-2.6-.4-3.4-.4-.3 0-.7.4-1 0-.8-.3-.8-.7-.8-1.4 0-.4.4-.4.4-.8.3-.4 1.8-1.5 2.6-3.3.7-2.7 0-6.8-.4-10.9v-1c-.4-2-.4-3.4-.4-4.5l-1.1-9-1.1-5.2c-.4-.7-.4-1.1-.4-1.1-.4 0-1.2 1.1-2 3.3a31 31 0 0 0-1.8 7.5c-.7 4.1-.7 9.3-.7 13.8l-.4-.8zm0 29.7c-.3-.3-.3-1 0-1.4z"/><path d="M527.4 482.3c-.4.4-.8.7-1.1.7.3 1.1 1 2.6 1.4 3.4.8 1.8 1.5 3 2.3 4.5 1 2.2 2.2 3.7 1.8 5.6.8 0 1.5-.4 1.9-.4 1.8 0 3.7 0 5.6 1.1 1.8.7 4.1 1.9 6.3 3.7 2.3 1.9 5.2 4.1 7.5 6.7 1.8 2.2 3.7 4.5 4.4 6.7a9.6 9.6 0 0 1 .8 6.4c-.4 2.2-1.5 4-3 5.2a8 8 0 0 1-5.2 1.8c.7 0 1.5 0 1.8.4a10.5 10.5 0 0 0 7.1-1.5c1.9-1.1 3-3 4.5-5.2a47.7 47.7 0 0 0 4.1-7.4 26 26 0 0 0 2.2-7.1c.4-2.3.8-4.5.4-6.4 0-2.2-.7-3.7-1.1-5.2l-2.2-3a6 6 0 0 0-2.6-1.4h-2.7c-.7 0-1.1.4-1.6 0-.7-.4-1-.8-.7-1.9 0-.4.4-.8.7-1.1.9-1.2 2.3-3 3-6 .5-2.2.8-4.8.8-7.8 0-2.6.4-5.5.8-8.6.3-3 1.5-6.3 2.2-8.9.7-2.6 1.5-5.2 1.9-7.4.3-1.9 0-3.4-.4-5a3.8 3.8 0 0 0-1.9-2.1c-.7-.4-1.8-.4-3 0-1.4.3-3.4 1-5.2 2.2a48 48 0 0 0-14.9 12c-5.5 6.3-10.8 15.6-16.4 24.9zm-1.9-1.5c5.6-9.3 11.2-18.6 16.7-25.4a52 52 0 0 1 15.7-12.6l5.6-2.6c1.8-.4 3.4-.4 4.8 0 1.5.8 2.6 1.9 3 3.7.4 1.5.8 3.4.4 5.6-.4 2.3-1.1 4.9-1.9 7.9l-2.2 8.9c-.4 2.6-.7 5.5-.7 8.2-.4 3-.4 6-1.2 8.2a19.4 19.4 0 0 1-2.6 5.5h1.5c1.1.4 2.6.8 3.7 1.9 1.2 1.2 1.9 2.3 2.6 3.7.8 1.9 1.2 3.7 1.5 6 0 2.2 0 4.5-.3 6.7-.4 2.2-1.5 4.8-2.6 7.4a52.3 52.3 0 0 1-4.1 7.9 20 20 0 0 1-5.3 6 12.3 12.3 0 0 1-8.5 1.8 66 66 0 0 1-19.7-6c-1.2-.3-1.2-1-.8-1.8.4-1.1 1.8-.8 4 0 2.3.7 5.3 1.5 8 1.8 2.5.4 4.8.8 6.2.8 1.9 0 3-.8 4.1-1.5 1.1-.8 1.9-2.2 2.3-3.7.3-1.5 0-3.4-.8-5.2-.7-1.9-2.2-4.2-4-6-2.3-2.3-4.5-4.5-7.1-6.3a54.6 54.6 0 0 0-5.6-3.4c-1.9-.7-3.4-.7-4.9-.7a7 7 0 0 0-3 .7c-.7.4-1 .4-1.4.8-.4 0-.4.3-.8.3s-.4.4-.4.4c-.7.4-1.4.4-1.8-.4v-1s.4-.5.7-.5l.4-.3c.7-.4 1.9-1.1 1.9-2.3a9 9 0 0 0-1.5-4 24.8 24.8 0 0 1-2.3-4.6 48.6 48.6 0 0 1-3-7.8c-1-3-2.2-6.3-3.3-8.5-1.1-2.3-1.8-3.7-3-4.9-.7-.7-1.9-1-2.6-1.5a4 4 0 0 0-2.6 1.1 13 13 0 0 0-2.6 4.2 44.5 44.5 0 0 0-1.9 8.2 50.7 50.7 0 0 0 1.9 24.2c.7 1.8 1.5 3.3 1.9 4 .7 1.5 1 2.3 0 3-.8.4-1.5 0-2.6-.4a5.3 5.3 0 0 0-2.3-.7h-.3v.4c.3.7 1 1.8 2.2 3a28.5 28.5 0 0 0 8.5 6.3 36.6 36.6 0 0 0 5.3 2.2v-.3c-.4-1.1-2.2-3-2.6-3.7l-.4-.4c-.4-.8-.4-1.1.4-1.9.4-.3.7-.3 1.1 0h.4s.3.4.7.4c.8.7 1.9 1.9 3 2.6 1.1.7 1.8 1.5 3 2.2 1 .8 2.2 1.5 3.3 1.9.7.4.7 1.1.4 1.5-.4.7-1.1.7-1.5.3-1.1-.7-2.2-1.4-3.4-1.8-.3-.4-.7-.8-1.4-.8 0 .8 0 1.2-.4 1.5-.4.4-.8.8-1.5.8s-1.5 0-2.2-.4c-1.1-.4-3-1.1-5-2.2a40.8 40.8 0 0 1-8.8-7 16.5 16.5 0 0 1-2.6-3.5c-.4-.7-.4-1.5-.4-2.2 0-.4.4-.8.4-.8l.7-.7c.4-.4 1.1-.4 1.9 0 .3 0 .7.4 1 .4l-1-3c-.8-1.9-1.5-4.5-2.3-7.8a55.8 55.8 0 0 1 0-18c.4-3.2 1.2-6.2 2.3-8.5.7-2.2 1.8-4 3-5.2 1.4-1.5 3-1.8 4.4-1.8 1.5 0 2.6.7 4 1.8a21 21 0 0 1 3.5 5.2 117.6 117.6 0 0 1 4 11.2zm-16.4 26.9c.4-.4 0 0 0 0z"/><path d="M520.7 422.3c0-2.2 0-5.5.4-9.6.3-3.4.7-7 1.4-10.5.8-3.7 1.9-7.4 3-11.1a160.3 160.3 0 0 1 9-20.1 29.3 29.3 0 0 1 9.3-11.2 6 6 0 0 1 4.8-1.2c1.5.4 2.6 1.2 3.7 3 1.1 1.6 1.9 3.4 2.6 6 .8 3 1.1 6.3 1.9 9.7.3 1.8.7 4 .7 5.5l1.1 5.3c.8 2.6 1.1 4.8 1.1 7 0 2 0 3.4-.7 4.9l-1.1 2.6h.7c1.5 0 2.7.7 4.2 1.8a26 26 0 0 1 3.3 4.6c.8 1.8 1.5 3.7 2.2 6.3.4 2.2.8 4.8.4 7.4 0 2.6-.7 4.9-1.5 7.4-.7 2.7-1.8 5.3-3.3 7.5a16.5 16.5 0 0 1-4.9 5.2 9 9 0 0 1-5.6 2.2c-1.8.4-3.7 0-6 0l-5.9-1c-1.8-.8-3.7-1.2-5.2-2 .4.4.4.8.7 1.2a7 7 0 0 1 1.1 3.3c.4 1.6.4 2.7-.3 3-.8 1.2-1.9.8-3-.3l-2.2-2.3c-.4-.4-1.1-1.1-1.5-1.9-1.1-1.4-2.2-3-3.7-4.4l-.4-.4c.4.4.4.8.7 1.5a31 31 0 0 1 1.9 10.5c0 1.8-.7 3-1.5 4-1.1 1.2-2.6 1.5-4.8 1.2a47.2 47.2 0 0 1-15.3-7.5c-2.2-1.8-4.8-3.7-6.7-5.5a50.4 50.4 0 0 1-6.4-6.4c-1.4-1.9-2.6-3-3-4.5-.3-1-.3-2.2.4-3h-.6c-2.3-.3-3.7-.7-5.6-1.8a16.7 16.7 0 0 1-5.2-4.1c-2.2-1.9-4.5-4.9-6.7-7.5-1.9-2.2-3.8-4.4-6-6.3l-4.4-4.4c-2.3-2.3-4.1-4.2-5.2-5.6-.8-1.2-.8-1.9-.8-3 0-.8 0-1.2.4-1.5l1.1-1.1c.7-.4 1.5-.8 3-.8 1.8 0 4 .8 7 1.9 3 1 6.8 3 10.9 5.2 4.4 2.2 10 5.5 15.2 8.6 4.9 3 9.3 5.5 12.7 8.1 3 2.3 5.2 4.1 6.7 5.6l.3.4c.4-.4.8-.8 1.5-.8h1.6l2.2 1.2.4.3v-2.6zm2.6-9.3c-.4 3.8-.4 7.1-.4 9.3 0 2.3.4 3.7.8 4.2v.3c.3 2.6 0 2.6-1.5 1.5a.8.8 0 0 1-.8-.7c-.3-.4-1.5-1.1-2.2-1.9-.7-.4-1.1-.8-1.5-.8v.4c1.1 1.2 1.8 1.9 1.8 2.3 0 .4.4.4.4.7.4 1.9-.3 2.3-1.8 1.1l-.4-.3-1.9-2.3-2.2-2.2a38.1 38.1 0 0 0-6.7-5.2c-3.4-2.6-7.8-5.2-12.7-8.2l-15.2-8.6c-4.5-2.2-7.9-3.7-10.8-4.8a16.7 16.7 0 0 0-6.4-1.5c-.7 0-1 0-1.4.3l-.4.4v.4c0 .4.4 1.1.7 1.8.8 1.5 2.6 3 4.9 5.2l4.4 4.6c1.9 1.8 4 4.4 6 6.6 2.2 2.6 4.8 5.2 6.7 7.5 1.9 1.8 3.3 3 4.8 3.7 1.5.8 3 1.2 4.8 1.5 3 .4 7.2.4 8.6.4h1.2c.3.4.7.7.3 1.5-.3.7-.7.7-1.5.7a18.6 18.6 0 0 0-6 1.1c-.3 0-.3.4-.3.8a50.3 50.3 0 0 0 9 9.7 53 53 0 0 0 6.6 5.5c2.6 1.9 5.2 3.4 7.9 4.9a32.8 32.8 0 0 0 6.3 2.2 3.7 3.7 0 0 0 3-.3c.3-.4.7-1.5.7-2.6 0-1.2 0-2.6-.4-4.1-.3-1.9-.7-3.7-1.4-5.3l-1.5-3.3c-.8-1.5-1.1-2.6-.4-3.4.4-.3 1.1-.3 2.2 0 .4.4.8.8 1.5 1.1l2.2 2.3 3.8 4.4c.3.8 1 1.1 1.4 1.9l1.2 1c-.4-.6-.4-1.8-1.2-2.5a16 16 0 0 0-2.6-3.7c-.3-.4-.7-.8-.7-1.1v-.4c-.4-.7 0-1.5.7-1.5.8-.4 1.2 0 1.9.4l3.3 1.8c1.6.8 3.4 1.2 5.3 1.9 1.9.4 3.7 1.1 5.6 1.1 1.8.4 3.3.4 5.2 0 1.5-.4 3-.7 4.4-1.8 1.5-1.2 3-2.6 4.2-4.9 1.5-2.2 2.2-4.4 3.3-6.7a21 21 0 0 0 1.1-6.7c0-2.2 0-4.5-.3-6.7-.4-1.8-1.2-4-1.9-5.6-.7-1.4-1.9-3-3-4-.7-.8-1.8-1.2-2.6-1.6-.8 0-1.9 0-3 .8h-.4c-.3.4-.7 1.1-1.5 1.5a8 8 0 0 1-3.3 2.2c-.4 0-.7 0-.7-.3-.4-.4-.8-1.2 0-1.9 0 0 .3-.4.3-.7.8-.8 1.9-2.3 3.4-3 .3-.4.7-.8 1-1.6.8-1 1.6-2.2 2-3.3.3-1.1.3-2.6.3-3.7 0-1.9-.7-4.1-1.1-6.7l-1.1-5.3c-.4-1.8-.8-3.7-.8-5.9a58.7 58.7 0 0 0-1.8-9.3c-.8-2.2-1.1-3.7-2.2-5.2a4.3 4.3 0 0 0-2.3-1.8 5 5 0 0 0-3 .6 33.7 33.7 0 0 0-4 3.8c-1.5 1.8-3 3.7-4.5 6.3a78 78 0 0 0-8.6 19.8c-1.1 3.3-2.2 7-3 10.7-.7 3.8-1 7.2-1.4 10.5z"/><path d="M616.4 443.6a83.7 83.7 0 0 0 5.2-23.8c.4-4.8.4-9.7 0-14.1a69.3 69.3 0 0 0-1.8-11.2 13 13 0 0 0-3-5.6c-1.1-1.1-2.2-1.5-3.3-1.1a5 5 0 0 0-3 2.6 21.1 21.1 0 0 0-3 4.8c-.4.8 0 .4-.7 1.5a72.2 72.2 0 0 1-6 9.3c-1.1 1.2-1.9 2.6-3 3.7-1.5 1.9-3 3.4-4 5.3a6 6 0 0 0-1.2 3.3c0 1.1 0 2.2.4 3.3.3 1.2 1 1.9 1.5 2.6.3.8.7 1.2.7 1.9-.4.8-.7 1.2-1.9.8-.3 0-.3-.4-.7-.4-1.1-.8-3.7-1.8-6.3-2.3-1.5 0-3.4 0-4.8.8-1.6.7-2.7 1.8-4.2 3.4a22.3 22.3 0 0 0-3 6c-.7 2.5-1.4 5.1-1.8 7.7-.4 2.6-.4 5.6 0 7.5.4 1.8 1.1 3.4 2.2 4.1 2.6 1.9 7.4 1.9 11.6 1.5h5.2c2.6 0 5.2 0 7.4-.4s4.5-.7 5.3-1.1c1-.4 1.5-.4 1.8.7.4.8 0 1.2-.7 1.5l-.4.4a58.2 58.2 0 0 0-6.4 2.6 13 13 0 0 0-3.3 2.2l-2.2 2.3c-.4.3-.4.7-.8 1l1.5-1 4.8-3c1.9-1.1 4.2-1.9 6-2.6 2.3-.8 4.1-1.5 5.2-1.5 1.2 0 1.9.4 1.9 1.1v.4c-.4.7-1.1 1.8-2.6 3.3l-1.5 1.5-5.2 5.2c-1.9 2.3-4.1 4.2-5.6 6-1.5 1.9-3 3.4-3.7 4.5-.4.7-.8 1.5-.4 1.8.4.4 1.5.8 3.3 1.1 1.9 0 4.1 0 7.2-.7a67.3 67.3 0 0 0 18.5-8.5c1.9-1.5 3-2.6 3.4-3.8.4-.4.4-1.1.4-1.5-1.1-.7-1.9-1.5-2.3-1.9-.4-.7-.4-1 0-1.8.4-.4.8-.8 1.2-.8h.7c.8 0 1.9.8 2.6 1.9 0 .4 0 .4.4.7h.4c1 .4 3 .4 4.8 0 2.6-.3 5.6-1.4 9.3-3 3.4-1.4 7.1-3.3 10.8-5.1 4-2.3 7.8-4.1 10.8-6 3-1.5 5.2-3.4 6.7-4.5s2.6-2.2 2.6-2.6c0 0-.3-.4-1-.4-1.6-.3-3.8-.3-6.4-.3-3 0-6.7.3-10.5.7-3.7.4-7.8.8-11.5 1.5-3.4.7-6.7 1.1-9.7 1.9-6 1.5-10 3-13 4.5h-.4c-1.5.7-2.6 1-3.4 1.5l-1 .3c-.4.4-1.2.4-1.6.4-2.6.7-2.6 0 .8-3l1.8-1 .4-.5c-.7.4-1.1.8-1.8.8-.8.4-1.2.7-1.5.7-.8.4-1.5 0-1.5-.7 0-.8 0-.8.4-1.5.3-.7 1.8-2.3 3-5.6v.7zm5.5-10.4a115.1 115.1 0 0 1-3.3 11.5l-1.5 3 1.9-.8c1-.4 1.8-.4 2.6-.4.3 0 .7.4 1 .4.4.4.8.8.4 1.5v.4a69.3 69.3 0 0 1 10.5-3.4c3-.7 6.3-1.5 10-1.8 3.7-.8 7.9-1.2 11.6-1.5 3.7-.4 7.4-.8 10.4-.8s5.3 0 6.7.4c2.3.4 3.4 1.5 3 3-.4 1-1.5 2.6-3.3 4.1a39 39 0 0 1-7.1 4.5c-3.4 1.8-7.1 4-11.2 6l-11.1 5.5c-3.7 1.5-7.1 2.6-9.7 3.3-2.3.4-4.1.4-5.6 0a11.1 11.1 0 0 1-4.8 6.3 58.4 58.4 0 0 1-19.4 9 32.8 32.8 0 0 1-7.9 1.2c-2.6 0-4.4-.8-5.2-1.9-.7-1.2-.7-2.6.4-4.5a21.7 21.7 0 0 1 4.1-4.8c1.9-1.9 3.7-4.1 5.6-6.4 1.8-1.9 3.7-3.7 5.2-5.6l1.5-1.4c-.7.3-1.1.3-1.8.7l-5.6 2.2-4.5 2.6c-1.5.8-2.3 1.5-3.4 1.9h-1c-.8-.4-1.2-.8-1.2-1.1v-1.5a4 4 0 0 1 1.1-2.6c.8-1.1 1.5-1.9 2.6-3 .8-.7 1.5-1.1 2.6-1.8h-9.3c-4.4 0-10 .3-13-2.3a9.1 9.1 0 0 1-3-5.5 33 33 0 0 1 2.2-17.2c.8-2.6 2.3-4.8 3.4-6.7a16.7 16.7 0 0 1 4.8-4.1c1.9-.8 4.1-1.1 6-1.1 1.5 0 3 .7 4.5 1-.8-1-.8-2.5-.8-4.4 0-1.5.4-3 1.5-4.4 1.1-1.9 2.6-3.7 4-5.6 1.2-1.1 2-2.3 3-3.4 2.3-3 4.2-6 5.6-9.3l.8-1.5 3.4-5.2c1-1.5 2.6-3 4-3.3 2-.4 3.8 0 5.6 1.5a16.7 16.7 0 0 1 3.7 6.3c1.1 3 1.9 7.4 1.9 11.9a94.5 94.5 0 0 1-1.9 27.6z"/><path d="m478.2 513.2 1.9-6.3a91 91 0 0 1 7-13c1.5-1.9 3-3.7 4.5-5 1.5-1 2.6-1.8 3.7-1.8 1.5-.4 2.7.4 3.4 1.1.8.8 1.1 1.9 1.1 3v4c0 2-.3 3.8 0 5.7 0 .7 0 1.4.4 2.2.4 1.5.4 2.6.4 3.7s-.4 1.9-.8 2.6l-1 1.1c.3 0 .7.4 1 .4 1.1.4 1.9 1.5 2.6 2.3a6 6 0 0 1 1.1 3.3c0 1.1 0 2.6-.3 4.1-.4 1.5-.8 3-1.5 4.5-.8 1.4-1.5 3-2.6 3.7-1.1 1-2.3 1.5-3.4 1.8-2.2 0-4.8-1.5-6.7-3l-.4-.3c-.3-.4-1-.8-1.5-1.1l-.3-.4c.3.7.3 1.5.3 1.9 0 .7 0 1-.3 1.4 0 .4-.4.4-.4.8-.4.4-.7.4-1.5.4-.3 0-.3-.4-.7-.4-.4-.4-.8-1.1-1.1-1.9-.4-.7-.8-1.5-1.1-2.6-.4-.3-.4-.7-.8-1 0 .7.4 1.4.4 2.5.4 1.5.4 3 .7 4.5.4 1.5.4 2.6.4 3.4 0 1.5-.4 2.2-1.5 2.6-.7.3-1.8 0-3.3-.8a20.4 20.4 0 0 1-3.4-2.6c-1.2-1.5-2.6-3-3.8-4.9-1-1.8-1.8-3.7-2.5-4.8-.4-1.5-.8-2.6-.4-3.3v-.8c-.8-.3-1.5-.7-2.2-1.5a23.2 23.2 0 0 1-3.4-4.4l-3.3-5.6c-1.1-2.3-2.3-4.1-3-6a36.3 36.3 0 0 1-1.9-4c-.4-1.6-.8-2.7-.4-3.4.4-1.1 1.6-1.5 3-.8.8.4 1.9 1.2 3.4 1.9s3 2.2 4.4 3.3a47 47 0 0 1 4.9 4.1c1.4 1.1 2.6 2.6 3.7 3.7 1.5 1.5 2.2 2.6 3.4 3.8 0 0 .4-.4.7-.4h.8c.3 0 .7.4 1 .8v-.4zm4.1-5.2c-.7 2.2-1.5 4.1-1.8 6-.4 1.8-.4 3-.4 3.3 0 .4 0 .8-.4 1.1-.3.4-.7.4-.7.4v.4c.4 1 .4 1.8 0 1.8l.4.4 1 1.1c0-.4 0-.7.8-1.1.8-.4 1.1-.4 1.9.4l1.8 1.8c.8.8 1.9 1.5 3 2.3.4.3.7.7 1.8 1l.4.4c1.9 1.2 3.7 2.6 5.2 2.6.8 0 1.1-.3 1.9-1a13 13 0 0 0 2.3-3.4c.7-1.1 1-2.6 1.4-4.1.4-1.1.4-2.2.4-3.3 0-1.2-.4-1.9-.7-2.3-.4-.7-1.1-1-1.5-1.5-1.1-.7-2.7-.7-3.4-.7h-.8c-.7-.4-1-.7-1-1.5s.3-.8 1-1.2c.4 0 .8-.3 1.5-.7l1.2-1.1c.4-.4.4-1.1.4-1.5 0-1.1 0-2.2-.4-3.3 0-.8-.4-1.5-.4-2.6V492c0-.7-.4-1.5-.4-1.5-.4-.4-.7-.4-1.1-.4-.8 0-1.5.4-2.6 1.5a36.9 36.9 0 0 0-8.2 10.9c-1 1.8-1.8 4-2.6 5.8zm-4.8 13c.4-.3.7-.3 1.1-.3l-.4-.4c-.3 0-1-.8-1.4-1.9l-.4-.3c-.4-.4-.8-.8-1.2-1.5-1.1-1.5-2.2-3.4-4.5-5.6l-3.7-3.7c-1.4-1.6-3-2.7-4.4-4.2l-4.5-3.3c-1-.7-1.8-1.1-2.6-1.5 0 .4 0 .4.4.8.4 1 1.1 2.2 1.9 3.7.7 1.8 1.8 3.7 3 6l3.3 5.5c1 1.5 2.2 3 3 3.7.7.8 1.4 1.2 1.8 1.2.7-.4 1.5-.4 2.2-.4.4 0 .4.4.8.4.3.3.3.7.3 1 0 .5-.3.8-.7 1.2-.4 0-.8.4-1.5.4v.3c0 .8 0 1.5.4 2.3.3 1 1 3 2.2 4.4 1.1 1.5 2.2 3.4 3.4 4.5 1.1 1.2 1.9 1.9 2.6 2.3l1.1.3v-.3c0-.8 0-1.9-.3-3-.4-1.2-.4-3-.8-4.5s-.4-3-.7-3.7l-.4-1.1c-.4-1.2-.4-1.9-.4-2.6v-.4zm-22-23s0-.4 0 0z"/><path d="M592.5 498.7c0-1.1 0-2.6-.3-4.5 0-1.4-.4-3-.8-4.9-.3-1.8-.7-3.3-1.5-5.2-.7-1.8-1.4-3.7-1.8-5.2a40.6 40.6 0 0 0-4.1-7c-.7-.7-1.1-1.5-1.9-1.9-.3-.3-.7-.3-1.1-.3-.4 0-.4.3-.8.7a6 6 0 0 0-1 2.2 16 16 0 0 0-.8 4.5c0 .7-.4 1.8-.4 2.6 0 1.1-.4 1.8-.7 2.6-.4 1.1-.4 2.2-.8 3 0 .7 0 1 .4 1.4 0 .4.4 1.2.7 1.5l.4.4c.7.4 1.5 1.1 1.9 1.5l.3.4c.4.8.4 1.1 0 1.5-.3.4-.3.4-.7.4-.4 0-1.1-.4-1.9-1.5l-.7-.8c-.4 0-.8-.4-1.1-.4-.4 0-.8.4-.8.4l-1 1.8c-.5.9-.8 1.6-.8 2.7-.4 1.1-.4 1.9-.4 3a7 7 0 0 0 .7 3c.4 1 .8 2.2 1.5 3a9.9 9.9 0 0 0 1.9 2.1c.7.4 1.1.8 1.8.8h2.3c.8 0 1.8-.4 2.6-.8.8-.3 1.9-.3 2.3-.7.7-.4 1-.7 1.4-.7.4-.4.8-.4 1.5-.4.4 0 .8.4.8.7l1-1 .8-.8c.8-.4 1.1-.4 1.9 0 .4.7.4 1-.4 2.2-.4.4-.4 1.1-.7 1.5-.4.7-.4 1.5-.8 2.2 0 .8-.3 1.1 0 1.9 0 .3 0 .7.4.7h.7a6 6 0 0 0 3-1.1l3.7-2.2c1.1-.8 2.3-1.9 3-2.6l3-3c.4-.4.8-.7.8-1.1-.8-.4-1.9-.4-2.3-.4-.7 0-1 0-1-.7 0-.4 0-1.1.3-1.5.4 0 .4-.4.7-.4h.4c.8 0 2.6 0 4.1-.4.7 0 1.5-.3 2.2-.7.8-.4 1.5-.7 2.3-1.5 1-.7 1.8-2.2 3-3.3 1-1.1 1.8-2.3 2.9-3l2.2-2.3 2.2-2.2v-.4h-.3c-.8 0-1.5.4-2.6.8a59.8 59.8 0 0 0-12.3 6.4c-2.2 1.4-4.4 2.5-6 3.6a24.3 24.3 0 0 0-4.8 4.9l-.4.3c-1 .8-1.8.8-1.8-.3h-.4c-1.1 1-1.5 1-1.1-1.9v-.4c0-.3.4-.7.4-1.8zm2.3-4.5c0 1.5.3 3 .3 4.1h1.5c.4 0 .4 0 .8.4.7-.8 1.8-1.5 3-2.6 1.8-1.1 3.7-2.6 6-4 2.5-1.6 5.1-3.1 7.4-4.2l5.2-2.6c1.4-.8 2.6-.8 3.7-.8.8 0 1.2 0 1.8.4.5.4.8.4.8.7 0 .4.4.8.4 1.1 0 .4 0 1.2-.4 1.9-.3.7-1.4 1.9-2.6 3l-2.3 2.3c-.7 1-1.8 1.8-2.5 3l-3.4 3.6c-1.1 1.2-1.8 1.5-2.6 1.9-.7.4-1.5.7-2.2.7v1.2c-.4.7-.8 1.4-1.5 2.2l-3 3c-1 1-2.2 1.8-3.4 2.6a25 25 0 0 1-4 2.6 8.6 8.6 0 0 1-3.4 1.1c-1.1.4-2.2 0-3-.7-.7-.8-1-1.5-1-2.2 0-.8 0-1.6.3-2.7v-.4l-.8.8-1 1.1c-.8.8-1.6.8-2.3 0-.4-.4-.4-1.1-.4-1.8 0-.4 0-.4.4-.8-.4 0-.7.4-1.1.4-1.1.3-1.9.3-3 .7-1.1 0-1.8.4-3 0-1.1 0-1.9-.4-3-1.1-.7-.8-1.8-1.5-2.2-2.6-.8-1.1-1.1-2.2-1.9-3.7a13.2 13.2 0 0 1-.3-7.5l1-3a4.2 4.2 0 0 1 2-2.2c.3-.4 1-.8 1.8-1.1 0-.4 0-.4-.4-.8-.4-.7-.4-1.5-.4-2.6 0-1 .4-2.2.8-3.3 0-.8.4-1.5.4-2.6l.3-2.6c.4-1.5.4-3.3.8-4.5l1-3c.8-.7 1.6-1.5 2.4-1.5.7 0 1.8 0 2.6.8.7.4 1.5 1.1 2.2 2.3a13 13 0 0 1 2.2 3.3 24.8 24.8 0 0 1 2.3 4.4l2.2 5.6c.7 1.9 1.1 3.4 1.5 5.2.3 1.9.7 3.4.7 5.3z"/><path d="M430.5 325.5c.8-1.4 1.1-3.3 1.9-6l1.1-6.6c.4-2.6.4-5.2 0-7.5a14.2 14.2 0 0 0-2.6-8.6c-.4-.3-.7-.3-1.1-.3-.4 0-.8.3-1.5 1-.4.9-1.1 1.6-1.5 2.7l-.4.8c-1 1.8-1.8 3.3-3.3 5.2-.4.7-1.1 1.5-1.5 1.8-.7 1.1-1.5 1.9-2.2 2.6-.4.8-.4 1.1-.4 1.5 0 .4 0 1.1.4 1.5.4.4.7 1.1.7 1.1.4.4.8.7.4 1.5-.4.7-.7 1.1-1.5.7 0 0-.4 0-.4-.3-.7-.4-1.8-1.2-3.3-1.2-.7 0-1.5 0-2.2.4-.8.4-1.6.8-1.9 1.5-.8.7-1.2 1.9-1.5 3l-1.1 4.1a6.3 6.3 0 0 0 0 3.7 2 2 0 0 0 1 1.9c1.2.7 3.8.7 6 .7h2.7c1.5 0 2.6 0 3.7-.3 1.1 0 2.2-.4 2.6-.4.7-.4 1.1-.4 1.5.7.3.4 0 .8 0 1.1.7-.3 1-.3 1.5-.3h.3c0-.4.4-.8 1.1-1.9-.3 0-.3-.3-.3-.7 0-.4 0-.8.3-1.1a9.9 9.9 0 0 0 1.5-3zm4.2-5.2c-.8 2.6-1.2 4.9-1.9 6.4 0 0 0 .3-.4.3.4 0 1-.3 1.5 0 .4 0 .4 0 .8.4.3 0 .3.4.3.7 1.5-.3 3-1 4.9-1.4l5.2-1.2a32.8 32.8 0 0 1 6.3-.7c2.2-.4 4.1-.4 5.5-.4 1.6 0 3 0 3.8.4 1.5.4 2.3 1.1 2.3 2.2 0 .8-.8 1.5-2.3 2.6l-3.7 2.6-6 3.4a44.4 44.4 0 0 1-11.1 4.8h-2.7s0 .4-.4.4a7 7 0 0 1-2.2 2.6c-1.2 1.1-3 1.9-4.9 3l-5.5 2.2c-2 .4-3 .8-4.5.4-1.5 0-2.6-.4-3-1.1-.7-.8-.3-1.9.4-3 .4-.7 1.1-1.5 2.2-2.6.8-1.1 1.9-2.3 3-3.4.7-.7 1.1-1.5 1.9-1.9-.4.4-1.2.4-1.5.8-.8.4-1.9 1.1-2.3 1.5l-1.8 1h-.8c-.3 0-.7-.3-1-1v-1.1c0-.4.3-1.2.7-1.5.3-.4.7-1.1 1.5-1.5h-3c-2.6 0-5.6.4-7.4-1.1-1.2-.8-1.6-1.9-1.9-3.4-.4-1.4-.4-3 0-4.8l1-4.4a11 11 0 0 1 2-3.8 5.8 5.8 0 0 1 3-2.3c1-.3 2.2-.7 3.3-.7.4 0 1.1 0 1.5.4v-1.5c0-.7.3-1.9.7-2.6l2.2-3c.4-.7 1.2-1 1.5-1.8l3-4.5v-.4.4-.4l.4-.7 1.8-3a4.3 4.3 0 0 1 2.6-1.9c1.1-.4 2.6 0 3.7 1.1.8.8 1.6 1.9 2.3 3.7.8 1.9 1.1 4.2 1.1 6.4v7.8l-1 7.1zm-6 12.3c.3.4.3.4.3 1.1 0 .7-.7 1.5-1.4 2.2l-.8.8-3 3a24.3 24.3 0 0 0-3 3.4l-1.8 2.2c0 .3-.4.3-.4.3s.8.4 1.2.4c.7 0 2.2 0 3.7-.4a45.2 45.2 0 0 0 5.2-1.8c1.8-.7 3.3-1.9 4.4-2.6.8-.8 1.6-1.2 1.6-1.9v-.4l-1.2-1.1c-.4-.4-.4-1.1 0-1.5l.8-.7h.7c.8 0 1.5.3 1.9 1.4.7 0 1.5.4 2.2 0 1.5-.3 3-.7 4.9-1.4 1.8-.8 3.7-1.9 5.9-3l6-3.3a32.8 32.8 0 0 0 3.7-2.3c.4-.3.8-.3.8-.7h-3a32.2 32.2 0 0 0-5.6.4c-1.8.3-4.1.3-6 .7l-5.2 1.1a34.7 34.7 0 0 0-8.6 3h-.4c-1 .7-1.8.7-2.2.7h-.7zm32-6.3z"/><path d="M511.7 297.3c0-1.2 0-2.7.4-4.2 0-1.5.4-3.3.7-5.2.4-1.8.8-3.7 1.5-5.2l2.2-5.6 2.3-4.5 2.3-3.3a6.3 6.3 0 0 1 2.2-2.2c.7-.4 1.8-.8 2.6-.8.7 0 1.5.8 2.2 1.5.4.7 1.1 1.9 1.1 3 .4 1.5.8 3 .8 4.4 0 1.1.3 1.9.3 2.7 0 .7.4 1.8.4 2.6.4 1.1.8 2.2.8 3.3 0 .8 0 1.9-.4 2.6 0 .4 0 .4-.4.8.8 0 1.1.3 1.9 1 .7.8 1 1.6 1.8 2.3.4.8.8 1.9 1.1 3a12.4 12.4 0 0 1-.4 7.4c-.3 1.2-1 2.7-1.8 3.7-.7 1.2-1.5 2.3-2.2 2.7-1.1.7-1.9 1-3 1h-3c-1 0-1.8-.3-3-.6-.3 0-.7-.4-1-.4 0 .4.3.7.3.7 0 .8 0 1.5-.3 1.9-.8.7-1.5.7-2.3 0l-1.1-1.1-.8-.8v.4c0 .7.4 1.9.4 2.6 0 1.1-.4 1.9-1.1 2.2-.8.8-1.5.8-3 .8-1.1 0-2.2-.8-3.3-1.1-1.2-.8-2.6-1.5-4.1-2.6-1.1-.8-2.3-2-3.4-2.6l-3-3a7.8 7.8 0 0 1-1.4-2.2v-1.2c-.8 0-1.6-.3-2.3-.7-.8-.4-1.9-1.1-2.6-1.9a33.6 33.6 0 0 1-3.4-3.7c-.7-1.1-1.8-2.3-2.6-3l-2.2-2.2c-1-1.1-2.2-1.9-2.6-3-.3-.7-.3-1.1-.3-1.9 0-.3 0-.7.3-1 0-.4.4-.8.8-.8.3-.4 1-.4 1.8-.4s2.2.4 3.7.8c1.5.3 3.4 1.4 5.2 2.6 2.3 1 5 2.6 7.5 4 2.2 1.5 4.5 2.6 6 4.1l3 2.6s.3 0 .7-.3h1.5zm2.6-4.2c0 1.9-.4 3.4-.4 4.5s.4 1.5.4 1.8v.5c.4 2.6 0 2.6-1.1 1.8h-.4c0 1.1-.7 1.1-1.8.4-.4-.4-.8-.8-.8-1.1l-1-1.1c-.8-.8-2-1.5-3-2.7a41.5 41.5 0 0 0-6-3.7l-7.1-4.1a19.8 19.8 0 0 0-5.2-2.2c-1.1-.4-2.2-.8-2.6-.8h-.4v.4c.4.7 1.1 1.5 2.2 2.2l2.3 2.3c.7 1 1.8 2.2 3 3l3 3.3c.7.8 1.4 1.1 2.2 1.5.8.4 1.5.4 2.2.8 1.5.3 3.4.3 4.1.3h.8c.3.4.7.8.3 1.5-.3.8-.7.8-1 .8-.5 0-1.6 0-2.3.3 0 .4.4.8.7 1.1l3 3c1.1.8 1.9 1.9 3 2.6 1 .8 2.6 1.5 3.7 2.2l3 1.2h.7s.4-.4.4-.8v-1.8c0-.8-.4-1.5-.8-2.3-.3-.7-.3-1-.7-1.5-.4-1-.8-1.4-.4-2.2v-.4c.4-.3 1.1-.3 1.9 0 .3 0 .3.4.7.8l1.2 1.1c0-.4.4-.4.7-.7.8-.4.8 0 1.5.3.4.4.8.4 1.5.8.7.3 1.5.7 2.2.7.8.4 1.9.4 2.6.8h2.3c.7 0 1-.4 1.8-.8s1.1-1.1 1.9-2.2a11.1 11.1 0 0 0 1.5-3c.3-1.1.3-2.2.7-3 0-1.1 0-2.2-.4-3-.3-.7-.3-1.8-.7-2.6l-1.1-1.8c-.4-.4-.8-.4-.8-.4-.3 0-.7 0-1 .4l-.8.7c-.8.7-1.5 1.5-1.9 1.5-.4 0-.7 0-.7-.4-.4-.4-.4-1.1 0-1.5l.3-.3c.4-.4 1.2-1.2 1.9-1.5l.4-.4c.3-.4.7-1.1.7-1.5 0-.4.4-1.1.4-1.5 0-.7-.4-1.8-.8-3 0-.7-.3-1.4-.7-2.5 0-1.2-.4-1.9-.4-2.6-.3-1.6-.3-3-.7-4.6a6 6 0 0 0-1.1-2.2c-.4-.4-.4-.7-.8-.7l-1 .3c-.5.4-1.2.8-2 1.9a8 8 0 0 0-1.8 3l-2.2 4.1a21.5 21.5 0 0 0-1.9 5.2c-.4 1.5-1.2 3.4-1.5 5.2-.4 1.5-.8 3.4-.8 4.8z"/><path d="M367.3 390.7c0-1.1 0-2.6.3-4 0-1.6.4-3.5.7-5.3.4-1.9.8-3.8 1.5-5.2l2.3-5.6 2.2-4.5 2.3-3.3a6.6 6.6 0 0 1 2.2-2.3c.7-.4 1.8-.7 2.6-.7.7 0 1.5.7 2.2 1.4.4.8 1.1 1.9 1.1 3 .4 1.6.8 3 .8 4.5 0 1.1.3 1.9.3 2.6 0 .8.4 1.9.4 2.6.4 1.1.4 2.3.8 3.4 0 .7 0 1.8-.4 2.6 0 .3 0 .3-.4.7.8 0 1.1.4 1.9 1.1.7.8 1 1.5 1.8 2.3.4.8.8 1.9 1.1 3 .5 1.1.5 2.2.5 3.7a17.4 17.4 0 0 1-2.6 7.4c-.8 1.1-1.6 2.3-2.3 2.6-1.1.8-1.9 1.1-3 1.1h-3c-1 0-1.8-.3-3-.7-.3 0-.7-.4-1-.4 0 .4.3.8.3.8 0 .7 0 1.5-.3 1.8-.8.8-1.5.8-2.3 0l-1-1c0-.5-.5-.5-.8-.8v.3l.3 2.6c0 1.2-.3 1.9-1 2.3-.8.8-1.6.8-3.1.8-1.1 0-2.2-.8-3.3-1.1l-4.1-2.7c-1.1-.7-2.3-1.9-3.4-2.6l-3-3a7.8 7.8 0 0 1-1.5-2.2v-1.1c-.7 0-1.5-.4-2.2-.8a13 13 0 0 1-2.7-1.8c-1-1.1-2.2-2.2-3.3-3.7-.8-1.1-1.9-2.3-2.6-3l-2.2-2.3c-1.2-1.1-2.3-1.8-2.6-3-.4-.7-.4-1-.4-1.8 0-.4 0-.8.4-1.1 0-.4.3-.8.7-.8.4-.3 1.1-.3 1.9-.3.7 0 2.2.3 3.7.7 1.5.4 3.3 1.5 5.2 2.6 2.3 1.1 4.9 2.6 7.5 4 2.2 1.6 4.4 2.7 5.9 4.2 1.1.8 2.2 1.9 3 2.6 0 0 .3 0 .7-.3h1.5zm2.5-4c0 1.8-.4 3.3-.4 4.4 0 1 .4 1.5.4 1.8v.4c.4 2.6 0 2.6-1.1 1.9h-.4c0 1-.7 1-1.8.3-.4-.3-.8-.7-.8-1l-1-1.2c-.8-.7-2-1.5-3-2.6a41.5 41.5 0 0 0-6-3.7l-7.1-4.2a19.8 19.8 0 0 0-5.2-2.2c-1.1-.4-2.2-.7-2.6-.7h-.4v.3c.4.8 1.1 1.5 2.2 2.3l2.3 2.3c.7 1 1.8 2.2 3 3l3 3.3c.7.7 1.5 1 2.2 1.5.7.3 1.5.3 2.2.7 1.5.4 3.4.4 4.1.4h1.1c.4.3.8.7.4 1.5-.4.7-.7.7-1.1.7-.4 0-1.5 0-2.2.4 0 .3.3.7.7 1l3 3c1 .8 1.8 2 3 2.7l3.7 2.2 3 1.2h.7s.4-.4.4-.8v-1.8c0-.8-.4-1.6-.7-2.3-.4-.8-.4-1.1-.8-1.5-.4-1.1-.8-1.5-.4-2.2.4-.4 1.2-.4 1.8 0 .5 0 .5.3.8.7l1.2 1.1c0-.4.3-.4.7-.7.7-.4.7 0 1.5.3.4.4.7.4 1.5.8.7.4 1.5.7 2.2.7.7.4 1.9.4 2.6.8h2.2c.8 0 1.1-.4 1.9-.8.7-.3 1.1-1 1.8-2.2a11.1 11.1 0 0 0 1.5-3c.4-1 .4-2.2.8-3 0-1 0-2.2-.4-3-.4-.7-.4-1.8-.7-2.5-.4-.8-.8-1.5-1.2-1.9-.3-.3-.7-.3-.7-.3-.4 0-.7 0-1.1.3l-.8.8c-.7.7-1.4 1.5-1.8 1.5-.4 0-.8 0-.8-.4-.3-.4-.3-1.1 0-1.5l.4-.4c.4-.3 1.1-1 1.9-1.5l.3-.4c.4-.4.8-1.1.8-1.5 0-.3.4-1 .4-1.5 0-.7-.4-1.8-.8-3 0-.7-.4-1.4-.7-2.5 0-1.1-.4-1.9-.4-2.6-.4-1.5-.4-3-.7-4.5-.4-.7-.8-1.8-1.2-2.2-.3-.4-.3-.8-.7-.8-.4 0-.4 0-1.1.4-.4.4-1.1.8-1.9 1.9a8 8 0 0 0-1.8 3c-.8 1-1.5 2.5-2.3 4a21.5 21.5 0 0 0-1.8 5.2c-.4 1.5-1.1 3.4-1.5 5.3-.4 1.5-.7 3.3-.7 4.8z"/><path d="m650 397-.5.4c0 .4.4.7.4 1.1l1.1 2.2c.4 1.1 1.1 1.9 1.1 2.6h.4c1.1 0 2.2 0 3.3.4a15 15 0 0 1 3.4 1.9 37.1 37.1 0 0 1 4 3.7c1.2 1.1 2 2.6 2.7 3.7a4.5 4.5 0 0 1 .4 3.8c-.4 1-.8 2.2-1.9 3 .4 0 1.1-.4 1.5-.8.8-.8 1.5-1.5 2.3-2.6l2.2-4.1c.4-1.1 1.1-2.2 1.1-3.7.4-1.1.4-2.2.4-3 0-1.2-.4-1.8-.8-2.6-.3-.8-.7-1.2-1-1.5-.5-.4-.8-.4-1.2-.4h-2.2c-.8-.4-1.2-.7-.8-1.5 0-.4.4-.4.4-.7.4-.4 1.1-1.5 1.5-3 .4-1.1.4-2.6.4-4 0-1.6 0-3 .3-4.5l1.1-5c.4-1.4.8-2.5.8-3.6v-2.3c0-.3-.4-.7-.8-.7h-1l-2.7 1.1a32.8 32.8 0 0 1-3.7 2.2 21.2 21.2 0 0 0-4.1 4.1c-3 3.4-5.6 8.2-8.6 13zm-1.6-2.2c2.6-4.5 5.6-9.3 8.2-12.3a25.3 25.3 0 0 1 8.5-7c1.2-.8 2.3-1.2 3.4-1.6 1.1-.3 1.9-.3 3 0 .7.4 1.5 1.1 1.9 2.3.3.7.3 1.8.3 3.3 0 1.1-.3 2.6-1 4.1l-1.2 4.5c-.4 1.5-.4 3-.4 4 0 1.6-.3 3.4-.3 4.5-.4.8-.4 1.5-.8 2.3.8 0 1.5.3 2.2 1 .8.5 1.2 1.2 1.5 2.3.4 1.1.8 2.2.8 3.4 0 1.1 0 2.6-.4 3.7s-.7 2.6-1.5 4.1a40.6 40.6 0 0 1-2.2 4.1 12 12 0 0 1-3 3.3 6.3 6.3 0 0 1-4.9 1.2c-1.5 0-3-.4-4.8-1.2a42 42 0 0 1-6-2.2c-.3-.4-.7-.4-.7-.7-.4.3-.7.3-1.5 0-.7-.4-1-.8-1.8-1.1l-.4.3c-.4.4-.7.4-1.1.4h-1.5l-2.7-1.1c-.7-.4-1.8-1.1-2.6-1.9a9.8 9.8 0 0 0-2.2-1.8c-.7-.8-1-1.5-1.5-1.9-.3-.4-.3-1.1-.3-1.5 0-.3 0-.3.3-.7 0-.4.4-.4.8-.4h.7s0-.4-.4-.4l-1-4.1c-.4-1.5-.4-3-.4-4.5 0-1.8 0-3.7.3-5.2l1.1-4.8a5.9 5.9 0 0 1 2-3 4 4 0 0 1 2.5-1 4 4 0 0 1 2.6 1 5.9 5.9 0 0 1 1.9 3c.8 1.5 1.1 3 1.8 4.8zm3.4 22.7h.7a61 61 0 0 0 5.2 1.5c1.1.4 2.2.4 3.3.4.8 0 1.5-.4 1.9-.8l1.1-1.5c0-.7 0-1.5-.4-2.2-.3-1.1-1-1.9-2.2-3a33.6 33.6 0 0 0-3.7-3.3c-1.1-.8-1.9-1.5-3-1.9-.7-.3-1.5-.3-2.2-.3-.4 0-1.1 0-1.5.3h-.7l-.4.4h-.4c-.7.4-1.4 0-1.8-.4v-1.1l.4-.4c.3 0 .7-.5.7-.8 0-.4-.4-.8-.7-1.9l-1.2-2.2-1.4-4c-.8-1.6-1.2-3.4-2-4.5-.3-1.2-1-1.9-1.5-2.3-.3-.3-.7-.3-1-.3-.4 0-.8 0-.8.3-.4.4-.8 1.1-1.1 1.9l-1.1 4c-.4 1.6-.4 3.4-.4 4.9 0 1.5 0 2.6.4 4a35 35 0 0 0 1 3.8c.4 1.2.8 1.5 1.2 2.3.7 1.1.7 1.5 0 2.2-.4.4-1.1.4-1.5 0l.4.4 1.8 1.8c.8.8 1.5 1.2 2.3 1.5.3.4.7.4 1 .4l-.7-.7-.3-.4c-.4-.8-.4-1.1.3-1.9.8-.7 1.2-.3 1.9.4.4.4 1.2.7 1.5 1.5.4.4 1.2.7 1.5 1l1.9 1.2c.3 0 .3.4.3.4s.4 0 .4-.4l.8-.4z"/></g></g><g id="logo-psicologia"><path d="M190.6 792.1c1.6 1.3 2.9 2 3.8 2 1 0 2.2-.6 3.6-1.9l21.8-18.4c1.1-1 1.7-1.7 1.9-2.3.1-.6-.1-1.3-.8-2-.2-.4-.5-.7-.9-1l-.6-.7v-.2l2.6-1.7 1.9 2.5a112.3 112.3 0 0 0 6 7l2.6 2.8c3 3.6 4.6 7 4.7 10.2 0 3.3-1.4 6.1-4.4 8.7-2 1.6-4.2 2.6-7 3-2.7.3-5.4 0-8-.9-2.6-.9-4.8-2.4-6.5-4.4l-3.7-4.3-5 4.2a48.2 48.2 0 0 0-3.5 3.2c-.6.7-1 1.3-1 1.8.1.4.5 1 1.1 1.8l1.4 1.6 1 1v.3l-2.8 1.6-1.5-2a61.4 61.4 0 0 0-6.7-7.6 57.3 57.3 0 0 0-2.6-2.7zm24 2a9.5 9.5 0 0 0 6.6 2.6c2.2 0 4.5-1.1 6.8-3.1 2.7-2.3 4-4.7 3.8-7.3 0-2.6-1.5-5.6-4.4-9l-1-1c-.2-.1-.5 0-.9.2-4.7 3.5-9.6 7.3-14.7 11.6zm0 0"/><path d="M251 857.6a28.3 28.3 0 0 1-7-8.4l.2-.8a51.2 51.2 0 0 0 8-8.7l2.7 1.6a31.6 31.6 0 0 0-4.2 6.3c-.7 1.6-.8 3-.2 4.3.6 1.2 1.9 2.7 3.8 4.2 2.3 1.8 4.5 2.7 6.7 2.8 2.1 0 4-.9 5.4-2.6a6 6 0 0 0 1.2-3.8c0-1.5-.4-2.9-.9-4.3l-2.4-6a55 55 0 0 1-2.4-6.2c-.5-1.7-.7-3.4-.7-5.1.1-1.8.8-3.4 2-4.9 1.4-1.8 3.2-3 5.5-3.6 2.3-.7 4.8-.7 7.3 0 2.5.6 5 1.8 7.2 3.6a29.6 29.6 0 0 1 7 7.8v.5l-1.5 1.3a64 64 0 0 0-7 6.8l-2.1-1.5-.2-.6a16 16 0 0 0 2.4-2.7c1.6-1.8 2.1-3.5 1.8-4.9-.4-1.4-1.8-3.1-4.2-5-2-1.5-4-2.3-5.9-2.3-2 0-3.6.6-4.8 2a6.1 6.1 0 0 0-1.1 5.2c.4 2 1.3 4.6 2.7 7.7l2.9 7c.5 1.8.8 3.6.8 5.5s-.5 3.5-1.7 5c-1.6 2-3.6 3.3-6 4a14 14 0 0 1-7.5 0c-2.7-.8-5.4-2.1-7.9-4.2zm0 0"/><path d="M307.4 892.8c2 .7 3.6.8 4.6.5 1-.3 2-1.3 3-3l13.8-24.9c.7-1.2 1-2.2 1-2.8-.1-.6-.6-1.1-1.5-1.6l-2.5-1.3v-.3l1.8-2.3 1.5.8 5.6 3.2c1.8 1 4.1 2 7 3.2L340 867c-1.7-.7-3-1-3.8-.8-.9.1-1.6.7-2.3 1.8a753 753 0 0 0-15 25.3c-.9 1.6-1.3 2.7-1.2 3.5 0 .7.6 1.4 1.7 2l3.2 1.5v.3l-2 2.4-1.3-.7-6.5-3.8c-2-1-4.4-2-7.3-3zm0 0"/><path d="M383.4 930.1c-3.9-1.3-7-3.3-9.4-5.9a17.5 17.5 0 0 1-4.3-9.1c-.6-3.5-.2-7.2 1.1-11.3 1.5-4.3 3.7-7.8 6.7-10.6 3.1-2.8 6.7-4.7 10.8-5.5 4-.8 8.3-.5 12.5 1a67.6 67.6 0 0 1 10.7 5.2l.2.5a102.8 102.8 0 0 0-5.2 10.2l-3.2-.7.5-1.2.7-1.9c1.3-4-1.2-7-7.5-9.2-2.8-.9-5.5-1-8.1-.4-2.6.6-5 2-7 4.1a22 22 0 0 0-4.6 8.3 25.2 25.2 0 0 0-1.4 10.5c.2 3.2 1.3 6 3 8.3 1.6 2.3 4 4 7 4.9 2.8 1 5.4 1 7.8-.1 2.3-1 4.5-3.2 6.5-6.4l3.1.8a61.5 61.5 0 0 0-5.2 9.9l-.7.4-2.2.1a35.2 35.2 0 0 1-11.8-1.9zm0 0"/><path d="M464.7 948a18 18 0 0 1-9.5-3.6 18 18 0 0 1-5.7-8.1c-1.2-3.4-1.6-7-1.1-11.1.5-4.4 1.9-8.3 4.2-11.7 2.4-3.4 5.4-6 9-7.8 3.6-1.7 7.5-2.3 11.7-1.9a18.5 18.5 0 0 1 15.5 12 25.2 25.2 0 0 1-3.2 22.8 22.4 22.4 0 0 1-20.9 9.5zm2.5-3.1c2.8.3 5.4-.2 7.8-1.4 2.3-1.2 4.3-3 5.8-5.6a25.6 25.6 0 0 0 2-19.2c-1-3.2-2.5-5.7-4.7-7.6a13.6 13.6 0 0 0-15.2-2 14.8 14.8 0 0 0-5.8 5.6 22.5 22.5 0 0 0-2.8 9 26 26 0 0 0 .8 10.4c.9 3 2.4 5.5 4.5 7.4 2.1 2 4.7 3 7.6 3.4zm0 0"/><path d="M537 947.2c1.6-.5 2.8-1.1 3.4-2 .5-.8.7-2.2.6-4.2l-2.5-28.3c0-1.5-.3-2.4-.7-3-.4-.4-1.1-.6-2-.5a22.8 22.8 0 0 0-2.3.3l-.2-.2.2-3a48.9 48.9 0 0 0 7.6-.4 74.2 74.2 0 0 0 7.2-1.3v3c-1.5.3-2.5.7-3 1.2-.6.4-.9 1-1 1.5v4a425.4 425.4 0 0 0 1.6 26.2c0 1.6.3 2.8.6 3.5.3.6 1 1 1.7 1.2h3.8c2.8-.3 4.8-.7 6-1.2a5 5 0 0 0 2.7-2.9 25 25 0 0 0 1.3-6.5l3-.5.2.3a146.4 146.4 0 0 0-.9 13l-.3.4a712.4 712.4 0 0 0-18.3 1 50.5 50.5 0 0 0-9 1.5zm0 0"/><path d="M628.7 934.6c-3.6 1-7 1-10.2.2-3.2-1-6-2.7-8.5-5.3a24.4 24.4 0 0 1-5.3-9.8 25 25 0 0 1-.6-12.4 21.2 21.2 0 0 1 25.6-17c3.3.8 6.1 2.5 8.5 5a25 25 0 0 1 6 22.2 22.5 22.5 0 0 1-15.5 17zm1-4c2.7-.8 4.9-2.2 6.6-4.3 1.7-2 2.8-4.5 3.2-7.5.4-2.9.2-6-.8-9.2-1-3.8-2.7-6.8-4.8-9.3-2.1-2.5-4.5-4.2-7.2-5-2.7-1-5.5-1-8.3-.3-2.8.8-5 2.2-6.6 4.3-1.6 2-2.6 4.5-3 7.4a26.1 26.1 0 0 0 5.6 18.6c2 2.5 4.4 4.2 7 5.1 2.7 1 5.4 1 8.2.2zm0 0"/><path d="M712.2 900.1c-3.6 2-7 2.8-10.5 2.7-3.4 0-6.6-1-9.6-3-2.9-2-5.3-4.8-7.4-8.6-2.3-4-3.4-8.2-3.4-12.3 0-4.2 1.1-8 3.3-11.5a25 25 0 0 1 9.5-8.6c1.5-.8 3-1.6 4.9-2.3a76.8 76.8 0 0 1 7.4-2.6l.5.3.5 2a72.3 72.3 0 0 0 3.3 8.7l-2.6 1.8-.6-1.2-1-2.1a5 5 0 0 0-4.3-2.8c-1.9-.1-4.4.7-7.6 2.5a15.5 15.5 0 0 0-8.3 9.9c-1 4-.2 8.6 2.5 13.5 1.9 3.5 4 6.2 6.7 8.2 2.5 2 5.2 3.1 8 3.5a14 14 0 0 0 8.4-1.8 18 18 0 0 0 6.9-6.7l-4-7.3c-.8-1.4-1.5-2.1-2.1-2.3-.6-.1-1.6.2-3 .9l-4 2.2-.3-.1-1.1-3.3a59 59 0 0 0 7.7-4 42.2 42.2 0 0 0 5-3l1 1a6 6 0 0 0 0 3.8 38.6 38.6 0 0 0 6.4 11.5l-.1.8-1.7 2a42.2 42.2 0 0 1-10.4 8.2zm0 0"/><path d="M767.5 860c1.4-1.7 2.1-3.1 2.2-4.2.1-1-.4-2.4-1.7-3.9l-18-22c-.9-1.1-1.6-1.8-2.2-2-.6-.1-1.3 0-2 .7l-2.2 2-.2-.2-1.5-2.7 1.3-1 5-3.9c1.6-1.3 3.5-3 5.7-5.3l1.7 2.4a8.7 8.7 0 0 0-2.2 3.3c-.2.8.1 1.8.9 3a843 843 0 0 0 17.8 23.1c1.2 1.5 2 2.4 2.8 2.6.7.2 1.5-.1 2.5-1 .5-.4 1.4-1.1 2.6-2.3h.3l1.4 3-1.1.9a165 165 0 0 0-5.8 4.5 44.3 44.3 0 0 0-5.6 5.6zm-27.2-37-1.4-1a327.2 327.2 0 0 0 5.8-14.2h.7l3 1.8.1.7A1401.6 1401.6 0 0 1 741 823zm0 0"/><path d="m829.5 803.5-1.7-2a20 20 0 0 0 2.4-4c.3-.9.1-1.6-.5-2.1-.7-.6-1.6-1.2-2.9-1.8l-7-3a83.8 83.8 0 0 0-9.1 11.2l3.7 6.6c.6 1 1.2 1.8 1.6 2.1.8.7 1.5 1 2.2.7.8-.2 1.6-.8 2.5-2l2.6-2.9.3.1 2 2.2-2.7 2.7a66 66 0 0 0-6.8 7.8l-1.8 2.2-2-2.6c.7-1 1-2 1-3-.1-1.1-.6-2.5-1.6-4.3L794 778.7l1.9-4 .3-.5a2732.2 2732.2 0 0 0 20.3 9.5c5.2 2.3 10 4.3 14.4 6 1.6.8 3 1 4.1.8a8.7 8.7 0 0 0 3.8-2.6l.3.2 1.8 2.1-2 2.2a161.6 161.6 0 0 0-6.7 8 49 49 0 0 0-2.2 3.3zm-16.7-9.3 3.9-5-17-7.5-.4.4 9.7 16.6zm0 0"/></g></svg>